<svg width="511" height="507" viewBox="0 0 511 507" fill="none" xmlns="http://www.w3.org/2000/svg">
<path d="M9.932 301.925C11.5093 301.925 12.8787 302.185 14.04 302.705C15.2187 303.225 16.12 303.97 16.744 304.941C17.368 305.912 17.68 307.064 17.68 308.399C17.68 309.716 17.368 310.869 16.744 311.857C16.12 312.828 15.2187 313.573 14.04 314.093C12.8787 314.613 11.5093 314.873 9.932 314.873H5.824V320.125H2.444V301.925H9.932ZM9.776 312.013C11.2493 312.013 12.3673 311.701 13.13 311.077C13.8927 310.453 14.274 309.56 14.274 308.399C14.274 307.238 13.8927 306.345 13.13 305.721C12.3673 305.097 11.2493 304.785 9.776 304.785H5.824V312.013H9.776ZM25.9204 306.085C27.9657 306.085 29.5257 306.579 30.6004 307.567C31.6924 308.538 32.2384 310.011 32.2384 311.987V320.125H29.1704V318.435C28.7717 319.042 28.1997 319.51 27.4544 319.839C26.7264 320.151 25.8424 320.307 24.8024 320.307C23.7624 320.307 22.8524 320.134 22.0724 319.787C21.2924 319.423 20.6857 318.929 20.2524 318.305C19.8364 317.664 19.6284 316.944 19.6284 316.147C19.6284 314.899 20.0877 313.902 21.0064 313.157C21.9424 312.394 23.407 312.013 25.4004 312.013H28.9884V311.805C28.9884 310.834 28.6937 310.089 28.1044 309.569C27.5324 309.049 26.6744 308.789 25.5304 308.789C24.7504 308.789 23.979 308.91 23.2164 309.153C22.471 309.396 21.8384 309.734 21.3184 310.167L20.0444 307.801C20.7724 307.246 21.6477 306.822 22.6704 306.527C23.693 306.232 24.7764 306.085 25.9204 306.085ZM25.4784 317.941C26.293 317.941 27.0124 317.759 27.6364 317.395C28.2777 317.014 28.7284 316.476 28.9884 315.783V314.171H25.6344C23.7624 314.171 22.8264 314.786 22.8264 316.017C22.8264 316.606 23.0604 317.074 23.5284 317.421C23.9964 317.768 24.6464 317.941 25.4784 317.941ZM49.1554 306.241L42.6554 321.243C42.0488 322.751 41.3121 323.808 40.4454 324.415C39.5788 325.039 38.5301 325.351 37.2994 325.351C36.6061 325.351 35.9214 325.238 35.2454 325.013C34.5694 324.788 34.0148 324.476 33.5814 324.077L34.8814 321.685C35.1934 321.98 35.5574 322.214 35.9734 322.387C36.4068 322.56 36.8401 322.647 37.2734 322.647C37.8454 322.647 38.3134 322.5 38.6774 322.205C39.0588 321.91 39.4054 321.416 39.7174 320.723L39.9514 320.177L33.8934 306.241H37.2734L41.6414 316.511L46.0354 306.241H49.1554ZM72.5908 306.241L67.4688 320.125H64.3488L60.7608 310.557L57.1208 320.125H54.0008L48.9048 306.241H51.9728L55.6388 316.485L59.4608 306.241H62.1908L65.9348 316.537L69.7048 306.241H72.5908ZM79.6977 306.085C81.7431 306.085 83.3031 306.579 84.3777 307.567C85.4697 308.538 86.0157 310.011 86.0157 311.987V320.125H82.9477V318.435C82.5491 319.042 81.9771 319.51 81.2317 319.839C80.5037 320.151 79.6197 320.307 78.5797 320.307C77.5397 320.307 76.6297 320.134 75.8497 319.787C75.0697 319.423 74.4631 318.929 74.0297 318.305C73.6137 317.664 73.4057 316.944 73.4057 316.147C73.4057 314.899 73.8651 313.902 74.7837 313.157C75.7197 312.394 77.1844 312.013 79.1777 312.013H82.7657V311.805C82.7657 310.834 82.4711 310.089 81.8817 309.569C81.3097 309.049 80.4517 308.789 79.3077 308.789C78.5277 308.789 77.7564 308.91 76.9937 309.153C76.2484 309.396 75.6157 309.734 75.0957 310.167L73.8217 307.801C74.5497 307.246 75.4251 306.822 76.4477 306.527C77.4704 306.232 78.5537 306.085 79.6977 306.085ZM79.2557 317.941C80.0704 317.941 80.7897 317.759 81.4137 317.395C82.0551 317.014 82.5057 316.476 82.7657 315.783V314.171H79.4117C77.5397 314.171 76.6037 314.786 76.6037 316.017C76.6037 316.606 76.8377 317.074 77.3057 317.421C77.7737 317.768 78.4237 317.941 79.2557 317.941ZM90.1867 300.833H93.4367V320.125H90.1867V300.833ZM97.7023 300.833H100.952V320.125H97.7023V300.833ZM109.508 320.307C108.381 320.307 107.281 320.16 106.206 319.865C105.131 319.57 104.273 319.198 103.632 318.747L104.88 316.277C105.504 316.693 106.249 317.031 107.116 317.291C108 317.534 108.867 317.655 109.716 317.655C111.657 317.655 112.628 317.144 112.628 316.121C112.628 315.636 112.377 315.298 111.874 315.107C111.389 314.916 110.6 314.734 109.508 314.561C108.364 314.388 107.428 314.188 106.7 313.963C105.989 313.738 105.365 313.348 104.828 312.793C104.308 312.221 104.048 311.432 104.048 310.427C104.048 309.11 104.594 308.061 105.686 307.281C106.795 306.484 108.286 306.085 110.158 306.085C111.111 306.085 112.065 306.198 113.018 306.423C113.971 306.631 114.751 306.917 115.358 307.281L114.11 309.751C112.931 309.058 111.605 308.711 110.132 308.711C109.179 308.711 108.451 308.858 107.948 309.153C107.463 309.43 107.22 309.803 107.22 310.271C107.22 310.791 107.48 311.164 108 311.389C108.537 311.597 109.361 311.796 110.47 311.987C111.579 312.16 112.489 312.36 113.2 312.585C113.911 312.81 114.517 313.192 115.02 313.729C115.54 314.266 115.8 315.029 115.8 316.017C115.8 317.317 115.237 318.357 114.11 319.137C112.983 319.917 111.449 320.307 109.508 320.307Z" fill="#88A1AC"/>
<path d="M8.36 389.325C6.94667 389.325 5.66667 389.018 4.52 388.405C3.38667 387.778 2.49333 386.918 1.84 385.825C1.2 384.732 0.88 383.498 0.88 382.125C0.88 380.752 1.20667 379.518 1.86 378.425C2.51333 377.332 3.40667 376.478 4.54 375.865C5.68667 375.238 6.96667 374.925 8.38 374.925C9.52667 374.925 10.5733 375.125 11.52 375.525C12.4667 375.925 13.2667 376.505 13.92 377.265L12.24 378.845C11.2267 377.752 9.98 377.205 8.5 377.205C7.54 377.205 6.68 377.418 5.92 377.845C5.16 378.258 4.56667 378.838 4.14 379.585C3.71333 380.332 3.5 381.178 3.5 382.125C3.5 383.072 3.71333 383.918 4.14 384.665C4.56667 385.412 5.16 385.998 5.92 386.425C6.68 386.838 7.54 387.045 8.5 387.045C9.98 387.045 11.2267 386.492 12.24 385.385L13.92 386.985C13.2667 387.745 12.46 388.325 11.5 388.725C10.5533 389.125 9.50667 389.325 8.36 389.325ZM18.5513 380.005C19.2713 378.885 20.5379 378.325 22.3513 378.325V380.705C22.1379 380.665 21.9446 380.645 21.7713 380.645C20.7979 380.645 20.0379 380.932 19.4913 381.505C18.9446 382.065 18.6713 382.878 18.6713 383.945V389.125H16.1713V378.445H18.5513V380.005ZM34.4144 383.845C34.4144 384.018 34.401 384.265 34.3744 384.585H25.9944C26.141 385.372 26.521 385.998 27.1344 386.465C27.761 386.918 28.5344 387.145 29.4544 387.145C30.6277 387.145 31.5944 386.758 32.3544 385.985L33.6944 387.525C33.2144 388.098 32.6077 388.532 31.8744 388.825C31.141 389.118 30.3144 389.265 29.3944 389.265C28.221 389.265 27.1877 389.032 26.2944 388.565C25.401 388.098 24.7077 387.452 24.2144 386.625C23.7344 385.785 23.4944 384.838 23.4944 383.785C23.4944 382.745 23.7277 381.812 24.1944 380.985C24.6744 380.145 25.3344 379.492 26.1744 379.025C27.0144 378.558 27.961 378.325 29.0144 378.325C30.0544 378.325 30.981 378.558 31.7944 379.025C32.621 379.478 33.261 380.125 33.7144 380.965C34.181 381.792 34.4144 382.752 34.4144 383.845ZM29.0144 380.325C28.2144 380.325 27.5344 380.565 26.9744 381.045C26.4277 381.512 26.0944 382.138 25.9744 382.925H32.0344C31.9277 382.152 31.601 381.525 31.0544 381.045C30.5077 380.565 29.8277 380.325 29.0144 380.325ZM40.6028 378.325C42.1761 378.325 43.3761 378.705 44.2028 379.465C45.0428 380.212 45.4628 381.345 45.4628 382.865V389.125H43.1028V387.825C42.7961 388.292 42.3561 388.652 41.7828 388.905C41.2228 389.145 40.5428 389.265 39.7428 389.265C38.9428 389.265 38.2428 389.132 37.6428 388.865C37.0428 388.585 36.5761 388.205 36.2428 387.725C35.9228 387.232 35.7628 386.678 35.7628 386.065C35.7628 385.105 36.1161 384.338 36.8228 383.765C37.5428 383.178 38.6695 382.885 40.2028 382.885H42.9628V382.725C42.9628 381.978 42.7361 381.405 42.2828 381.005C41.8428 380.605 41.1828 380.405 40.3028 380.405C39.7028 380.405 39.1095 380.498 38.5228 380.685C37.9495 380.872 37.4628 381.132 37.0628 381.465L36.0828 379.645C36.6428 379.218 37.3161 378.892 38.1028 378.665C38.8895 378.438 39.7228 378.325 40.6028 378.325ZM40.2628 387.445C40.8895 387.445 41.4428 387.305 41.9228 387.025C42.4161 386.732 42.7628 386.318 42.9628 385.785V384.545H40.3828C38.9428 384.545 38.2228 385.018 38.2228 385.965C38.2228 386.418 38.4028 386.778 38.7628 387.045C39.1228 387.312 39.6228 387.445 40.2628 387.445ZM55.0913 388.545C54.7979 388.785 54.4379 388.965 54.0113 389.085C53.5979 389.205 53.1579 389.265 52.6913 389.265C51.5179 389.265 50.6113 388.958 49.9712 388.345C49.3313 387.732 49.0113 386.838 49.0113 385.665V380.525H47.2513V378.525H49.0113V376.085H51.5113V378.525H54.3713V380.525H51.5113V385.605C51.5113 386.125 51.6379 386.525 51.8913 386.805C52.1446 387.072 52.5113 387.205 52.9913 387.205C53.5513 387.205 54.0179 387.058 54.3913 386.765L55.0913 388.545ZM66.8363 383.845C66.8363 384.018 66.8229 384.265 66.7963 384.585H58.4163C58.5629 385.372 58.9429 385.998 59.5563 386.465C60.1829 386.918 60.9563 387.145 61.8763 387.145C63.0496 387.145 64.0163 386.758 64.7763 385.985L66.1163 387.525C65.6363 388.098 65.0296 388.532 64.2963 388.825C63.5629 389.118 62.7363 389.265 61.8163 389.265C60.6429 389.265 59.6096 389.032 58.7163 388.565C57.8229 388.098 57.1296 387.452 56.6363 386.625C56.1563 385.785 55.9163 384.838 55.9163 383.785C55.9163 382.745 56.1496 381.812 56.6163 380.985C57.0963 380.145 57.7563 379.492 58.5963 379.025C59.4363 378.558 60.3829 378.325 61.4363 378.325C62.4763 378.325 63.4029 378.558 64.2163 379.025C65.0429 379.478 65.6829 380.125 66.1363 380.965C66.6029 381.792 66.8363 382.752 66.8363 383.845ZM61.4363 380.325C60.6363 380.325 59.9563 380.565 59.3963 381.045C58.8496 381.512 58.5163 382.138 58.3963 382.925H64.4563C64.3496 382.152 64.0229 381.525 63.4763 381.045C62.9296 380.565 62.2496 380.325 61.4363 380.325ZM78.845 378.325C80.4183 378.325 81.6183 378.705 82.445 379.465C83.285 380.212 83.705 381.345 83.705 382.865V389.125H81.345V387.825C81.0383 388.292 80.5983 388.652 80.025 388.905C79.465 389.145 78.785 389.265 77.985 389.265C77.185 389.265 76.485 389.132 75.885 388.865C75.285 388.585 74.8183 388.205 74.485 387.725C74.165 387.232 74.005 386.678 74.005 386.065C74.005 385.105 74.3583 384.338 75.065 383.765C75.785 383.178 76.9117 382.885 78.445 382.885H81.205V382.725C81.205 381.978 80.9783 381.405 80.525 381.005C80.085 380.605 79.425 380.405 78.545 380.405C77.945 380.405 77.3517 380.498 76.765 380.685C76.1917 380.872 75.705 381.132 75.305 381.465L74.325 379.645C74.885 379.218 75.5583 378.892 76.345 378.665C77.1317 378.438 77.965 378.325 78.845 378.325ZM78.505 387.445C79.1317 387.445 79.685 387.305 80.165 387.025C80.6583 386.732 81.005 386.318 81.205 385.785V384.545H78.625C77.185 384.545 76.465 385.018 76.465 385.965C76.465 386.418 76.645 386.778 77.005 387.045C77.365 387.312 77.865 387.445 78.505 387.445ZM98.7008 389.325C96.7674 389.325 95.2608 388.785 94.1808 387.705C93.1008 386.612 92.5608 385.052 92.5608 383.025V375.125H95.1608V382.925C95.1608 385.672 96.3474 387.045 98.7208 387.045C101.081 387.045 102.261 385.672 102.261 382.925V375.125H104.821V383.025C104.821 385.052 104.281 386.612 103.201 387.705C102.134 388.785 100.634 389.325 98.7008 389.325ZM114.222 375.125C115.435 375.125 116.489 375.325 117.382 375.725C118.289 376.125 118.982 376.698 119.462 377.445C119.942 378.192 120.182 379.078 120.182 380.105C120.182 381.118 119.942 382.005 119.462 382.765C118.982 383.512 118.289 384.085 117.382 384.485C116.489 384.885 115.435 385.085 114.222 385.085H111.062V389.125H108.462V375.125H114.222ZM114.102 382.885C115.235 382.885 116.095 382.645 116.682 382.165C117.269 381.685 117.562 380.998 117.562 380.105C117.562 379.212 117.269 378.525 116.682 378.045C116.095 377.565 115.235 377.325 114.102 377.325H111.062V382.885H114.102ZM122.778 375.125H125.378V389.125H122.778V375.125ZM139.253 389.265C138.173 389.265 137.199 389.032 136.333 388.565C135.466 388.098 134.786 387.452 134.293 386.625C133.813 385.785 133.573 384.838 133.573 383.785C133.573 382.732 133.813 381.792 134.293 380.965C134.786 380.138 135.466 379.492 136.333 379.025C137.199 378.558 138.173 378.325 139.253 378.325C140.346 378.325 141.326 378.558 142.193 379.025C143.059 379.492 143.733 380.138 144.213 380.965C144.706 381.792 144.953 382.732 144.953 383.785C144.953 384.838 144.706 385.785 144.213 386.625C143.733 387.452 143.059 388.098 142.193 388.565C141.326 389.032 140.346 389.265 139.253 389.265ZM139.253 387.125C140.173 387.125 140.933 386.818 141.533 386.205C142.133 385.592 142.433 384.785 142.433 383.785C142.433 382.785 142.133 381.978 141.533 381.365C140.933 380.752 140.173 380.445 139.253 380.445C138.333 380.445 137.573 380.752 136.973 381.365C136.386 381.978 136.093 382.785 136.093 383.785C136.093 384.785 136.386 385.592 136.973 386.205C137.573 386.818 138.333 387.125 139.253 387.125ZM149.723 380.005C150.443 378.885 151.71 378.325 153.523 378.325V380.705C153.31 380.665 153.116 380.645 152.943 380.645C151.97 380.645 151.21 380.932 150.663 381.505C150.116 382.065 149.843 382.878 149.843 383.945V389.125H147.343V378.445H149.723V380.005ZM171.429 381.845C172.202 382.098 172.816 382.525 173.269 383.125C173.722 383.712 173.949 384.445 173.949 385.325C173.949 386.538 173.482 387.478 172.549 388.145C171.616 388.798 170.256 389.125 168.469 389.125H161.509V375.125H168.069C169.722 375.125 170.996 375.452 171.889 376.105C172.782 376.745 173.229 377.632 173.229 378.765C173.229 379.458 173.069 380.072 172.749 380.605C172.429 381.138 171.989 381.552 171.429 381.845ZM164.109 377.165V381.025H167.789C168.696 381.025 169.389 380.865 169.869 380.545C170.362 380.212 170.609 379.732 170.609 379.105C170.609 378.465 170.362 377.985 169.869 377.665C169.389 377.332 168.696 377.165 167.789 377.165H164.109ZM168.309 387.085C170.322 387.085 171.329 386.412 171.329 385.065C171.329 383.718 170.322 383.045 168.309 383.045H164.109V387.085H168.309ZM176.484 378.445H178.984V389.125H176.484V378.445ZM177.744 376.685C177.29 376.685 176.91 376.545 176.604 376.265C176.297 375.972 176.144 375.612 176.144 375.185C176.144 374.758 176.297 374.405 176.604 374.125C176.91 373.832 177.29 373.685 177.744 373.685C178.197 373.685 178.577 373.825 178.884 374.105C179.19 374.372 179.344 374.712 179.344 375.125C179.344 375.565 179.19 375.938 178.884 376.245C178.59 376.538 178.21 376.685 177.744 376.685ZM188.685 388.545C188.392 388.785 188.032 388.965 187.605 389.085C187.192 389.205 186.752 389.265 186.285 389.265C185.112 389.265 184.205 388.958 183.565 388.345C182.925 387.732 182.605 386.838 182.605 385.665V380.525H180.845V378.525H182.605V376.085H185.105V378.525H187.965V380.525H185.105V385.605C185.105 386.125 185.232 386.525 185.485 386.805C185.738 387.072 186.105 387.205 186.585 387.205C187.145 387.205 187.612 387.058 187.985 386.765L188.685 388.545ZM195.29 389.265C194.183 389.265 193.19 389.032 192.31 388.565C191.43 388.098 190.743 387.452 190.25 386.625C189.757 385.785 189.51 384.838 189.51 383.785C189.51 382.732 189.757 381.792 190.25 380.965C190.743 380.138 191.423 379.492 192.29 379.025C193.17 378.558 194.17 378.325 195.29 378.325C196.343 378.325 197.263 378.538 198.05 378.965C198.85 379.392 199.45 380.005 199.85 380.805L197.93 381.925C197.623 381.432 197.237 381.065 196.77 380.825C196.317 380.572 195.817 380.445 195.27 380.445C194.337 380.445 193.563 380.752 192.95 381.365C192.337 381.965 192.03 382.772 192.03 383.785C192.03 384.798 192.33 385.612 192.93 386.225C193.543 386.825 194.323 387.125 195.27 387.125C195.817 387.125 196.317 387.005 196.77 386.765C197.237 386.512 197.623 386.138 197.93 385.645L199.85 386.765C199.437 387.565 198.83 388.185 198.03 388.625C197.243 389.052 196.33 389.265 195.29 389.265ZM206.655 389.265C205.575 389.265 204.602 389.032 203.735 388.565C202.868 388.098 202.188 387.452 201.695 386.625C201.215 385.785 200.975 384.838 200.975 383.785C200.975 382.732 201.215 381.792 201.695 380.965C202.188 380.138 202.868 379.492 203.735 379.025C204.602 378.558 205.575 378.325 206.655 378.325C207.748 378.325 208.728 378.558 209.595 379.025C210.462 379.492 211.135 380.138 211.615 380.965C212.108 381.792 212.355 382.732 212.355 383.785C212.355 384.838 212.108 385.785 211.615 386.625C211.135 387.452 210.462 388.098 209.595 388.565C208.728 389.032 207.748 389.265 206.655 389.265ZM206.655 387.125C207.575 387.125 208.335 386.818 208.935 386.205C209.535 385.592 209.835 384.785 209.835 383.785C209.835 382.785 209.535 381.978 208.935 381.365C208.335 380.752 207.575 380.445 206.655 380.445C205.735 380.445 204.975 380.752 204.375 381.365C203.788 381.978 203.495 382.785 203.495 383.785C203.495 384.785 203.788 385.592 204.375 386.205C204.975 386.818 205.735 387.125 206.655 387.125ZM214.745 378.445H217.245V389.125H214.745V378.445ZM216.005 376.685C215.552 376.685 215.172 376.545 214.865 376.265C214.559 375.972 214.405 375.612 214.405 375.185C214.405 374.758 214.559 374.405 214.865 374.125C215.172 373.832 215.552 373.685 216.005 373.685C216.459 373.685 216.839 373.825 217.145 374.105C217.452 374.372 217.605 374.712 217.605 375.125C217.605 375.565 217.452 375.938 217.145 376.245C216.852 376.538 216.472 376.685 216.005 376.685ZM226.587 378.325C227.933 378.325 229.013 378.718 229.827 379.505C230.64 380.292 231.047 381.458 231.047 383.005V389.125H228.547V383.325C228.547 382.392 228.327 381.692 227.887 381.225C227.447 380.745 226.82 380.505 226.007 380.505C225.087 380.505 224.36 380.785 223.827 381.345C223.293 381.892 223.027 382.685 223.027 383.725V389.125H220.527V378.445H222.907V379.825C223.32 379.332 223.84 378.958 224.467 378.705C225.093 378.452 225.8 378.325 226.587 378.325ZM7.56 408.325C8.6 408.325 9.52667 408.552 10.34 409.005C11.1667 409.458 11.8133 410.098 12.28 410.925C12.7467 411.752 12.98 412.705 12.98 413.785C12.98 414.865 12.7467 415.825 12.28 416.665C11.8133 417.492 11.1667 418.132 10.34 418.585C9.52667 419.038 8.6 419.265 7.56 419.265C6.12 419.265 4.98 418.785 4.14 417.825V423.005H1.64V408.445H4.02V409.845C4.43333 409.338 4.94 408.958 5.54 408.705C6.15333 408.452 6.82667 408.325 7.56 408.325ZM7.28 417.125C8.2 417.125 8.95333 416.818 9.54 416.205C10.14 415.592 10.44 414.785 10.44 413.785C10.44 412.785 10.14 411.978 9.54 411.365C8.95333 410.752 8.2 410.445 7.28 410.445C6.68 410.445 6.14 410.585 5.66 410.865C5.18 411.132 4.8 411.518 4.52 412.025C4.24 412.532 4.1 413.118 4.1 413.785C4.1 414.452 4.24 415.038 4.52 415.545C4.8 416.052 5.18 416.445 5.66 416.725C6.14 416.992 6.68 417.125 7.28 417.125ZM19.2942 408.325C20.8676 408.325 22.0676 408.705 22.8942 409.465C23.7342 410.212 24.1542 411.345 24.1542 412.865V419.125H21.7942V417.825C21.4876 418.292 21.0476 418.652 20.4742 418.905C19.9142 419.145 19.2342 419.265 18.4342 419.265C17.6342 419.265 16.9342 419.132 16.3342 418.865C15.7342 418.585 15.2676 418.205 14.9342 417.725C14.6142 417.232 14.4542 416.678 14.4542 416.065C14.4542 415.105 14.8076 414.338 15.5142 413.765C16.2342 413.178 17.3609 412.885 18.8942 412.885H21.6542V412.725C21.6542 411.978 21.4276 411.405 20.9742 411.005C20.5342 410.605 19.8742 410.405 18.9942 410.405C18.3942 410.405 17.8009 410.498 17.2142 410.685C16.6409 410.872 16.1542 411.132 15.7542 411.465L14.7742 409.645C15.3342 409.218 16.0076 408.892 16.7942 408.665C17.5809 408.438 18.4142 408.325 19.2942 408.325ZM18.9542 417.445C19.5809 417.445 20.1342 417.305 20.6142 417.025C21.1076 416.732 21.4542 416.318 21.6542 415.785V414.545H19.0742C17.6342 414.545 16.9142 415.018 16.9142 415.965C16.9142 416.418 17.0942 416.778 17.4542 417.045C17.8142 417.312 18.3142 417.445 18.9542 417.445ZM37.1673 408.445L32.1673 419.985C31.7007 421.145 31.134 421.958 30.4673 422.425C29.8007 422.905 28.994 423.145 28.0473 423.145C27.514 423.145 26.9873 423.058 26.4673 422.885C25.9473 422.712 25.5207 422.472 25.1873 422.165L26.1873 420.325C26.4273 420.552 26.7073 420.732 27.0273 420.865C27.3607 420.998 27.694 421.065 28.0273 421.065C28.4673 421.065 28.8273 420.952 29.1073 420.725C29.4007 420.498 29.6673 420.118 29.9073 419.585L30.0873 419.165L25.4273 408.445H28.0273L31.3873 416.345L34.7673 408.445H37.1673ZM55.1945 408.445L51.2545 419.125H48.8545L46.0945 411.765L43.2945 419.125H40.8945L36.9745 408.445H39.3345L42.1545 416.325L45.0945 408.445H47.1945L50.0745 416.365L52.9745 408.445H55.1945ZM60.6614 408.325C62.2347 408.325 63.4347 408.705 64.2614 409.465C65.1014 410.212 65.5214 411.345 65.5214 412.865V419.125H63.1614V417.825C62.8547 418.292 62.4147 418.652 61.8414 418.905C61.2814 419.145 60.6014 419.265 59.8014 419.265C59.0014 419.265 58.3014 419.132 57.7014 418.865C57.1014 418.585 56.6347 418.205 56.3014 417.725C55.9814 417.232 55.8214 416.678 55.8214 416.065C55.8214 415.105 56.1747 414.338 56.8814 413.765C57.6014 413.178 58.7281 412.885 60.2614 412.885H63.0214V412.725C63.0214 411.978 62.7947 411.405 62.3414 411.005C61.9014 410.605 61.2414 410.405 60.3614 410.405C59.7614 410.405 59.1681 410.498 58.5814 410.685C58.0081 410.872 57.5214 411.132 57.1214 411.465L56.1414 409.645C56.7014 409.218 57.3747 408.892 58.1614 408.665C58.9481 408.438 59.7814 408.325 60.6614 408.325ZM60.3214 417.445C60.9481 417.445 61.5014 417.305 61.9814 417.025C62.4747 416.732 62.8214 416.318 63.0214 415.785V414.545H60.4414C59.0014 414.545 58.2814 415.018 58.2814 415.965C58.2814 416.418 58.4614 416.778 58.8214 417.045C59.1814 417.312 59.6814 417.445 60.3214 417.445ZM68.7298 404.285H71.2298V419.125H68.7298V404.285ZM74.5111 404.285H77.0111V419.125H74.5111V404.285ZM90.1597 406.165C89.1064 406.165 88.5797 406.738 88.5797 407.885V408.525H91.5197V410.525H88.6597V419.125H86.1597V410.525H84.3997V408.525H86.1597V407.845C86.1597 406.698 86.493 405.798 87.1597 405.145C87.8264 404.478 88.7664 404.145 89.9797 404.145C90.9397 404.145 91.693 404.338 92.2397 404.725L91.5397 406.605C91.113 406.312 90.653 406.165 90.1597 406.165ZM97.8463 419.265C96.7663 419.265 95.7929 419.032 94.9263 418.565C94.0596 418.098 93.3796 417.452 92.8863 416.625C92.4063 415.785 92.1663 414.838 92.1663 413.785C92.1663 412.732 92.4063 411.792 92.8863 410.965C93.3796 410.138 94.0596 409.492 94.9263 409.025C95.7929 408.558 96.7663 408.325 97.8463 408.325C98.9396 408.325 99.9196 408.558 100.786 409.025C101.653 409.492 102.326 410.138 102.806 410.965C103.3 411.792 103.546 412.732 103.546 413.785C103.546 414.838 103.3 415.785 102.806 416.625C102.326 417.452 101.653 418.098 100.786 418.565C99.9196 419.032 98.9396 419.265 97.8463 419.265ZM97.8463 417.125C98.7663 417.125 99.5263 416.818 100.126 416.205C100.726 415.592 101.026 414.785 101.026 413.785C101.026 412.785 100.726 411.978 100.126 411.365C99.5263 410.752 98.7663 410.445 97.8463 410.445C96.9263 410.445 96.1663 410.752 95.5663 411.365C94.9796 411.978 94.6863 412.785 94.6863 413.785C94.6863 414.785 94.9796 415.592 95.5663 416.205C96.1663 416.818 96.9263 417.125 97.8463 417.125ZM108.317 410.005C109.037 408.885 110.304 408.325 112.117 408.325V410.705C111.904 410.665 111.71 410.645 111.537 410.645C110.564 410.645 109.804 410.932 109.257 411.505C108.71 412.065 108.437 412.878 108.437 413.945V419.125H105.937V408.445H108.317V410.005ZM129.863 408.445L124.863 419.985C124.396 421.145 123.829 421.958 123.163 422.425C122.496 422.905 121.689 423.145 120.743 423.145C120.209 423.145 119.683 423.058 119.163 422.885C118.643 422.712 118.216 422.472 117.883 422.165L118.883 420.325C119.123 420.552 119.403 420.732 119.723 420.865C120.056 420.998 120.389 421.065 120.723 421.065C121.163 421.065 121.523 420.952 121.803 420.725C122.096 420.498 122.363 420.118 122.603 419.585L122.783 419.165L118.123 408.445H120.723L124.083 416.345L127.463 408.445H129.863ZM135.932 419.265C134.852 419.265 133.879 419.032 133.012 418.565C132.146 418.098 131.466 417.452 130.972 416.625C130.492 415.785 130.252 414.838 130.252 413.785C130.252 412.732 130.492 411.792 130.972 410.965C131.466 410.138 132.146 409.492 133.012 409.025C133.879 408.558 134.852 408.325 135.932 408.325C137.026 408.325 138.006 408.558 138.872 409.025C139.739 409.492 140.412 410.138 140.892 410.965C141.386 411.792 141.632 412.732 141.632 413.785C141.632 414.838 141.386 415.785 140.892 416.625C140.412 417.452 139.739 418.098 138.872 418.565C138.006 419.032 137.026 419.265 135.932 419.265ZM135.932 417.125C136.852 417.125 137.612 416.818 138.212 416.205C138.812 415.592 139.112 414.785 139.112 413.785C139.112 412.785 138.812 411.978 138.212 411.365C137.612 410.752 136.852 410.445 135.932 410.445C135.012 410.445 134.252 410.752 133.652 411.365C133.066 411.978 132.772 412.785 132.772 413.785C132.772 414.785 133.066 415.592 133.652 416.205C134.252 416.818 135.012 417.125 135.932 417.125ZM154.363 408.445V419.125H151.983V417.765C151.583 418.245 151.083 418.618 150.483 418.885C149.883 419.138 149.236 419.265 148.543 419.265C147.116 419.265 145.989 418.872 145.163 418.085C144.349 417.285 143.943 416.105 143.943 414.545V408.445H146.443V414.205C146.443 415.165 146.656 415.885 147.083 416.365C147.523 416.832 148.143 417.065 148.943 417.065C149.836 417.065 150.543 416.792 151.063 416.245C151.596 415.685 151.863 414.885 151.863 413.845V408.445H154.363ZM160.016 410.005C160.736 408.885 162.003 408.325 163.816 408.325V410.705C163.603 410.665 163.409 410.645 163.236 410.645C162.263 410.645 161.503 410.932 160.956 411.505C160.409 412.065 160.136 412.878 160.136 413.945V419.125H157.636V408.445H160.016V410.005ZM177.482 408.325C178.522 408.325 179.449 408.552 180.262 409.005C181.089 409.458 181.735 410.098 182.202 410.925C182.669 411.752 182.902 412.705 182.902 413.785C182.902 414.865 182.669 415.825 182.202 416.665C181.735 417.492 181.089 418.132 180.262 418.585C179.449 419.038 178.522 419.265 177.482 419.265C176.042 419.265 174.902 418.785 174.062 417.825V423.005H171.562V408.445H173.942V409.845C174.355 409.338 174.862 408.958 175.462 408.705C176.075 408.452 176.749 408.325 177.482 408.325ZM177.202 417.125C178.122 417.125 178.875 416.818 179.462 416.205C180.062 415.592 180.362 414.785 180.362 413.785C180.362 412.785 180.062 411.978 179.462 411.365C178.875 410.752 178.122 410.445 177.202 410.445C176.602 410.445 176.062 410.585 175.582 410.865C175.102 411.132 174.722 411.518 174.442 412.025C174.162 412.532 174.022 413.118 174.022 413.785C174.022 414.452 174.162 415.038 174.442 415.545C174.722 416.052 175.102 416.445 175.582 416.725C176.062 416.992 176.602 417.125 177.202 417.125ZM187.653 410.005C188.373 408.885 189.639 408.325 191.453 408.325V410.705C191.239 410.665 191.046 410.645 190.873 410.645C189.899 410.645 189.139 410.932 188.593 411.505C188.046 412.065 187.773 412.878 187.773 413.945V419.125H185.273V408.445H187.653V410.005ZM193.574 408.445H196.074V419.125H193.574V408.445ZM194.834 406.685C194.38 406.685 194 406.545 193.694 406.265C193.387 405.972 193.234 405.612 193.234 405.185C193.234 404.758 193.387 404.405 193.694 404.125C194 403.832 194.38 403.685 194.834 403.685C195.287 403.685 195.667 403.825 195.974 404.105C196.28 404.372 196.434 404.712 196.434 405.125C196.434 405.565 196.28 405.938 195.974 406.245C195.68 406.538 195.3 406.685 194.834 406.685ZM209.355 408.445L204.775 419.125H202.195L197.615 408.445H200.215L203.535 416.365L206.955 408.445H209.355ZM214.665 408.325C216.239 408.325 217.439 408.705 218.265 409.465C219.105 410.212 219.525 411.345 219.525 412.865V419.125H217.165V417.825C216.859 418.292 216.419 418.652 215.845 418.905C215.285 419.145 214.605 419.265 213.805 419.265C213.005 419.265 212.305 419.132 211.705 418.865C211.105 418.585 210.639 418.205 210.305 417.725C209.985 417.232 209.825 416.678 209.825 416.065C209.825 415.105 210.179 414.338 210.885 413.765C211.605 413.178 212.732 412.885 214.265 412.885H217.025V412.725C217.025 411.978 216.799 411.405 216.345 411.005C215.905 410.605 215.245 410.405 214.365 410.405C213.765 410.405 213.172 410.498 212.585 410.685C212.012 410.872 211.525 411.132 211.125 411.465L210.145 409.645C210.705 409.218 211.379 408.892 212.165 408.665C212.952 408.438 213.785 408.325 214.665 408.325ZM214.325 417.445C214.952 417.445 215.505 417.305 215.985 417.025C216.479 416.732 216.825 416.318 217.025 415.785V414.545H214.445C213.005 414.545 212.285 415.018 212.285 415.965C212.285 416.418 212.465 416.778 212.825 417.045C213.185 417.312 213.685 417.445 214.325 417.445ZM229.154 418.545C228.86 418.785 228.5 418.965 228.074 419.085C227.66 419.205 227.22 419.265 226.754 419.265C225.58 419.265 224.674 418.958 224.034 418.345C223.394 417.732 223.074 416.838 223.074 415.665V410.525H221.314V408.525H223.074V406.085H225.574V408.525H228.434V410.525H225.574V415.605C225.574 416.125 225.7 416.525 225.954 416.805C226.207 417.072 226.574 417.205 227.054 417.205C227.614 417.205 228.08 417.058 228.454 416.765L229.154 418.545ZM240.899 413.845C240.899 414.018 240.885 414.265 240.859 414.585H232.479C232.625 415.372 233.005 415.998 233.619 416.465C234.245 416.918 235.019 417.145 235.939 417.145C237.112 417.145 238.079 416.758 238.839 415.985L240.179 417.525C239.699 418.098 239.092 418.532 238.359 418.825C237.625 419.118 236.799 419.265 235.879 419.265C234.705 419.265 233.672 419.032 232.779 418.565C231.885 418.098 231.192 417.452 230.699 416.625C230.219 415.785 229.979 414.838 229.979 413.785C229.979 412.745 230.212 411.812 230.679 410.985C231.159 410.145 231.819 409.492 232.659 409.025C233.499 408.558 234.445 408.325 235.499 408.325C236.539 408.325 237.465 408.558 238.279 409.025C239.105 409.478 239.745 410.125 240.199 410.965C240.665 411.792 240.899 412.752 240.899 413.845ZM235.499 410.325C234.699 410.325 234.019 410.565 233.459 411.045C232.912 411.512 232.579 412.138 232.459 412.925H238.519C238.412 412.152 238.085 411.525 237.539 411.045C236.992 410.565 236.312 410.325 235.499 410.325ZM6.54 449.265C5.43333 449.265 4.44 449.032 3.56 448.565C2.68 448.098 1.99333 447.452 1.5 446.625C1.00667 445.785 0.76 444.838 0.76 443.785C0.76 442.732 1.00667 441.792 1.5 440.965C1.99333 440.138 2.67333 439.492 3.54 439.025C4.42 438.558 5.42 438.325 6.54 438.325C7.59333 438.325 8.51333 438.538 9.3 438.965C10.1 439.392 10.7 440.005 11.1 440.805L9.18 441.925C8.87333 441.432 8.48667 441.065 8.02 440.825C7.56667 440.572 7.06667 440.445 6.52 440.445C5.58667 440.445 4.81333 440.752 4.2 441.365C3.58667 441.965 3.28 442.772 3.28 443.785C3.28 444.798 3.58 445.612 4.18 446.225C4.79333 446.825 5.57333 447.125 6.52 447.125C7.06667 447.125 7.56667 447.005 8.02 446.765C8.48667 446.512 8.87333 446.138 9.18 445.645L11.1 446.765C10.6867 447.565 10.08 448.185 9.28 448.625C8.49333 449.052 7.58 449.265 6.54 449.265ZM17.9048 449.265C16.8248 449.265 15.8515 449.032 14.9848 448.565C14.1182 448.098 13.4382 447.452 12.9448 446.625C12.4648 445.785 12.2248 444.838 12.2248 443.785C12.2248 442.732 12.4648 441.792 12.9448 440.965C13.4382 440.138 14.1182 439.492 14.9848 439.025C15.8515 438.558 16.8248 438.325 17.9048 438.325C18.9982 438.325 19.9782 438.558 20.8448 439.025C21.7115 439.492 22.3848 440.138 22.8648 440.965C23.3582 441.792 23.6048 442.732 23.6048 443.785C23.6048 444.838 23.3582 445.785 22.8648 446.625C22.3848 447.452 21.7115 448.098 20.8448 448.565C19.9782 449.032 18.9982 449.265 17.9048 449.265ZM17.9048 447.125C18.8248 447.125 19.5848 446.818 20.1848 446.205C20.7848 445.592 21.0848 444.785 21.0848 443.785C21.0848 442.785 20.7848 441.978 20.1848 441.365C19.5848 440.752 18.8248 440.445 17.9048 440.445C16.9848 440.445 16.2248 440.752 15.6248 441.365C15.0382 441.978 14.7448 442.785 14.7448 443.785C14.7448 444.785 15.0382 445.592 15.6248 446.205C16.2248 446.818 16.9848 447.125 17.9048 447.125ZM32.0555 438.325C33.4021 438.325 34.4821 438.718 35.2955 439.505C36.1088 440.292 36.5155 441.458 36.5155 443.005V449.125H34.0155V443.325C34.0155 442.392 33.7955 441.692 33.3555 441.225C32.9155 440.745 32.2888 440.505 31.4755 440.505C30.5555 440.505 29.8288 440.785 29.2955 441.345C28.7621 441.892 28.4955 442.685 28.4955 443.725V449.125H25.9955V438.445H28.3755V439.825C28.7888 439.332 29.3088 438.958 29.9355 438.705C30.5621 438.452 31.2688 438.325 32.0555 438.325ZM46.1069 448.545C45.8135 448.785 45.4535 448.965 45.0269 449.085C44.6135 449.205 44.1735 449.265 43.7069 449.265C42.5335 449.265 41.6269 448.958 40.9869 448.345C40.3469 447.732 40.0269 446.838 40.0269 445.665V440.525H38.2669V438.525H40.0269V436.085H42.5269V438.525H45.3869V440.525H42.5269V445.605C42.5269 446.125 42.6535 446.525 42.9069 446.805C43.1602 447.072 43.5269 447.205 44.0069 447.205C44.5669 447.205 45.0335 447.058 45.4069 446.765L46.1069 448.545ZM57.8519 443.845C57.8519 444.018 57.8385 444.265 57.8119 444.585H49.4319C49.5785 445.372 49.9585 445.998 50.5719 446.465C51.1985 446.918 51.9719 447.145 52.8919 447.145C54.0652 447.145 55.0319 446.758 55.7919 445.985L57.1319 447.525C56.6519 448.098 56.0452 448.532 55.3119 448.825C54.5785 449.118 53.7519 449.265 52.8319 449.265C51.6585 449.265 50.6252 449.032 49.7319 448.565C48.8385 448.098 48.1452 447.452 47.6519 446.625C47.1719 445.785 46.9319 444.838 46.9319 443.785C46.9319 442.745 47.1652 441.812 47.6319 440.985C48.1119 440.145 48.7719 439.492 49.6119 439.025C50.4519 438.558 51.3985 438.325 52.4519 438.325C53.4919 438.325 54.4185 438.558 55.2319 439.025C56.0585 439.478 56.6985 440.125 57.1519 440.965C57.6185 441.792 57.8519 442.752 57.8519 443.845ZM52.4519 440.325C51.6519 440.325 50.9719 440.565 50.4119 441.045C49.8652 441.512 49.5319 442.138 49.4119 442.925H55.4719C55.3652 442.152 55.0385 441.525 54.4919 441.045C53.9452 440.565 53.2652 440.325 52.4519 440.325ZM66.3133 438.325C67.6599 438.325 68.7399 438.718 69.5533 439.505C70.3666 440.292 70.7733 441.458 70.7733 443.005V449.125H68.2733V443.325C68.2733 442.392 68.0533 441.692 67.6133 441.225C67.1733 440.745 66.5466 440.505 65.7333 440.505C64.8133 440.505 64.0866 440.785 63.5533 441.345C63.0199 441.892 62.7533 442.685 62.7533 443.725V449.125H60.2533V438.445H62.6333V439.825C63.0466 439.332 63.5666 438.958 64.1933 438.705C64.8199 438.452 65.5266 438.325 66.3133 438.325ZM80.3647 448.545C80.0714 448.785 79.7114 448.965 79.2847 449.085C78.8714 449.205 78.4314 449.265 77.9647 449.265C76.7914 449.265 75.8847 448.958 75.2447 448.345C74.6047 447.732 74.2847 446.838 74.2847 445.665V440.525H72.5247V438.525H74.2847V436.085H76.7847V438.525H79.6447V440.525H76.7847V445.605C76.7847 446.125 76.9114 446.525 77.1647 446.805C77.418 447.072 77.7847 447.205 78.2647 447.205C78.8247 447.205 79.2914 447.058 79.6647 446.765L80.3647 448.545ZM83.4166 449.265C82.9632 449.265 82.5766 449.112 82.2566 448.805C81.9366 448.485 81.7766 448.085 81.7766 447.605C81.7766 447.112 81.9299 446.712 82.2366 446.405C82.5566 446.098 82.9499 445.945 83.4166 445.945C83.8832 445.945 84.2699 446.098 84.5766 446.405C84.8966 446.712 85.0566 447.112 85.0566 447.605C85.0566 448.085 84.8966 448.485 84.5766 448.805C84.2566 449.112 83.8699 449.265 83.4166 449.265Z" fill="#88A1AC"/>
<path d="M10.868 288.385C9.03067 288.385 7.36667 287.986 5.876 287.189C4.40267 286.374 3.24133 285.256 2.392 283.835C1.56 282.414 1.144 280.81 1.144 279.025C1.144 277.24 1.56867 275.636 2.418 274.215C3.26733 272.794 4.42867 271.684 5.902 270.887C7.39267 270.072 9.05667 269.665 10.894 269.665C12.3847 269.665 13.7453 269.925 14.976 270.445C16.2067 270.965 17.2467 271.719 18.096 272.707L15.912 274.761C14.5947 273.34 12.974 272.629 11.05 272.629C9.802 272.629 8.684 272.906 7.696 273.461C6.708 273.998 5.93667 274.752 5.382 275.723C4.82733 276.694 4.55 277.794 4.55 279.025C4.55 280.256 4.82733 281.356 5.382 282.327C5.93667 283.298 6.708 284.06 7.696 284.615C8.684 285.152 9.802 285.421 11.05 285.421C12.974 285.421 14.5947 284.702 15.912 283.263L18.096 285.343C17.2467 286.331 16.198 287.085 14.95 287.605C13.7193 288.125 12.3587 288.385 10.868 288.385ZM24.1166 276.269C25.0526 274.813 26.6993 274.085 29.0566 274.085V277.179C28.7793 277.127 28.528 277.101 28.3026 277.101C27.0373 277.101 26.0493 277.474 25.3386 278.219C24.628 278.947 24.2726 280.004 24.2726 281.391V288.125H21.0226V274.241H24.1166V276.269ZM44.7387 281.261C44.7387 281.486 44.7214 281.807 44.6867 282.223H33.7927C33.9834 283.246 34.4774 284.06 35.2747 284.667C36.0894 285.256 37.0947 285.551 38.2907 285.551C39.816 285.551 41.0727 285.048 42.0607 284.043L43.8027 286.045C43.1787 286.79 42.39 287.354 41.4367 287.735C40.4834 288.116 39.4087 288.307 38.2127 288.307C36.6874 288.307 35.344 288.004 34.1827 287.397C33.0214 286.79 32.12 285.95 31.4787 284.875C30.8547 283.783 30.5427 282.552 30.5427 281.183C30.5427 279.831 30.846 278.618 31.4527 277.543C32.0767 276.451 32.9347 275.602 34.0267 274.995C35.1187 274.388 36.3494 274.085 37.7187 274.085C39.0707 274.085 40.2754 274.388 41.3327 274.995C42.4074 275.584 43.2394 276.425 43.8287 277.517C44.4354 278.592 44.7387 279.84 44.7387 281.261ZM37.7187 276.685C36.6787 276.685 35.7947 276.997 35.0667 277.621C34.356 278.228 33.9227 279.042 33.7667 280.065H41.6447C41.506 279.06 41.0814 278.245 40.3707 277.621C39.66 276.997 38.776 276.685 37.7187 276.685ZM52.7837 274.085C54.829 274.085 56.389 274.579 57.4637 275.567C58.5557 276.538 59.1017 278.011 59.1017 279.987V288.125H56.0337V286.435C55.635 287.042 55.063 287.51 54.3177 287.839C53.5897 288.151 52.7057 288.307 51.6657 288.307C50.6257 288.307 49.7157 288.134 48.9357 287.787C48.1557 287.423 47.549 286.929 47.1157 286.305C46.6997 285.664 46.4917 284.944 46.4917 284.147C46.4917 282.899 46.951 281.902 47.8697 281.157C48.8057 280.394 50.2703 280.013 52.2637 280.013H55.8517V279.805C55.8517 278.834 55.557 278.089 54.9677 277.569C54.3957 277.049 53.5377 276.789 52.3937 276.789C51.6137 276.789 50.8423 276.91 50.0797 277.153C49.3343 277.396 48.7017 277.734 48.1817 278.167L46.9077 275.801C47.6357 275.246 48.511 274.822 49.5337 274.527C50.5563 274.232 51.6397 274.085 52.7837 274.085ZM52.3417 285.941C53.1563 285.941 53.8757 285.759 54.4997 285.395C55.141 285.014 55.5917 284.476 55.8517 283.783V282.171H52.4977C50.6257 282.171 49.6897 282.786 49.6897 284.017C49.6897 284.606 49.9237 285.074 50.3917 285.421C50.8597 285.768 51.5097 285.941 52.3417 285.941ZM71.6186 287.371C71.2373 287.683 70.7693 287.917 70.2146 288.073C69.6773 288.229 69.1053 288.307 68.4986 288.307C66.9733 288.307 65.7946 287.908 64.9626 287.111C64.1306 286.314 63.7146 285.152 63.7146 283.627V276.945H61.4266V274.345H63.7146V271.173H66.9646V274.345H70.6826V276.945H66.9646V283.549C66.9646 284.225 67.1293 284.745 67.4586 285.109C67.788 285.456 68.2646 285.629 68.8886 285.629C69.6166 285.629 70.2233 285.438 70.7086 285.057L71.6186 287.371ZM86.8871 281.261C86.8871 281.486 86.8698 281.807 86.8351 282.223H75.9411C76.1318 283.246 76.6258 284.06 77.4231 284.667C78.2378 285.256 79.2431 285.551 80.4391 285.551C81.9645 285.551 83.2211 285.048 84.2091 284.043L85.9511 286.045C85.3271 286.79 84.5385 287.354 83.5851 287.735C82.6318 288.116 81.5571 288.307 80.3611 288.307C78.8358 288.307 77.4925 288.004 76.3311 287.397C75.1698 286.79 74.2685 285.95 73.6271 284.875C73.0031 283.783 72.6911 282.552 72.6911 281.183C72.6911 279.831 72.9945 278.618 73.6011 277.543C74.2251 276.451 75.0831 275.602 76.1751 274.995C77.2671 274.388 78.4978 274.085 79.8671 274.085C81.2191 274.085 82.4238 274.388 83.4811 274.995C84.5558 275.584 85.3878 276.425 85.9771 277.517C86.5838 278.592 86.8871 279.84 86.8871 281.261ZM79.8671 276.685C78.8271 276.685 77.9431 276.997 77.2151 277.621C76.5045 278.228 76.0711 279.042 75.9151 280.065H83.7931C83.6545 279.06 83.2298 278.245 82.5191 277.621C81.8085 276.997 80.9245 276.685 79.8671 276.685Z" fill="#88A1AC"/>
<path fill-rule="evenodd" clip-rule="evenodd" d="M78.1647 157.385V166.127H86.4469V174.862H69.8477V148.679H78.1531V139.943H86.4469V122.465H78.1531V139.943H69.8477V113.736H69.8597V113.736H78.1531V105H69.8477V87.5281H78.1531V96.2578H86.4469V113.73H94.7523V96.2632H94.7645V96.2578H103.058V87.5219H94.7523V61.3204H86.4703V61.3203H86.4469V43.8609H78.1531V52.5968H69.8477V35.125H94.7523V52.5968H103.058V35.125H111.363V61.2959H103.058V78.7738H111.363V113.705H119.669V104.969H127.974V122.447H103.069V139.925H103.062V139.925H94.7581V148.66H94.7578V148.661H86.4585V157.385H78.1647ZM103.069 148.661H111.38V139.925H103.069V139.925H103.062V148.66H94.7581V148.661H94.7578V166.126H94.7636H111.386V157.384H103.069V148.661ZM103.069 148.661H103.062V148.66H103.069V148.661ZM86.4469 61.3203H69.8711V70.0685H86.4703V61.3204H86.4469V61.3203ZM94.7645 96.2578V87.5273H86.4648V96.2632H94.7523V96.2578H94.7645ZM69.8597 113.736V105H44.9492V113.736H69.8477V113.736H69.8597ZM3.4375 96.2571H61.5581V35.1304H3.4375V96.2571ZM36.6558 113.73V104.994H20.0391V122.466H28.3445V113.73H36.6558ZM53.2539 131.201H44.9651V122.465H28.3484V139.943H20.043V148.679H61.5643V139.943H53.2589V131.201H61.5593V122.465H53.2539V131.201ZM161.196 209.8H152.902V201.064H161.196V209.8ZM177.801 209.8H169.49V201.064H177.801V209.8ZM69.8711 218.53H86.4703V209.819H94.7641V192.341H103.07V201.064H111.381V218.53H119.686V201.059H111.387V192.322H103.075V183.605H94.7641V183.599V174.863H86.4645V183.605H69.8652V201.083H86.4645V209.794H69.8711V218.53ZM111.387 201.059V201.064H111.381V201.059H111.387ZM103.075 192.322V192.341H103.07V192.322H103.075ZM86.4645 209.794H86.4703V209.819H86.4645V209.794ZM144.591 209.794V218.53H136.279V209.818H136.304V209.794H144.591ZM136.304 209.794H136.279V209.818H127.998V201.083H119.693V183.605H103.07V174.863H127.975V157.385H136.28V166.127H144.592H144.603V183.605H169.508V192.341H136.304V209.794ZM53.2557 43.8667H11.7344V87.5277H53.2557V43.8667ZM44.9437 201.065H20.0391V174.863H44.9437V201.065ZM20.043 52.6021H44.9476V78.7913H20.043V52.6021ZM177.794 35.1304V96.2632H119.674V35.1304H177.794ZM127.98 43.8667H169.49V87.5277H127.98V43.8667ZM3.42773 157.385H61.5541V218.518H3.42773V157.385ZM53.2616 209.8H11.7402V166.127H53.2616V209.8ZM11.739 105H3.42773V148.673H11.739V105ZM119.674 157.384V148.66H127.979V157.384H119.674ZM136.285 139.937H152.907V148.673H161.207V122.478H152.907V105H144.59V131.202H119.697V139.944H128.003V148.679H136.308V139.944H136.285V139.937ZM144.59 166.126H152.907V148.66H144.59V166.126ZM169.49 174.863V166.127H152.891V174.863H169.49ZM136.287 52.6021H161.186V78.7913H136.287V52.6021ZM161.184 113.73H177.8V104.994H161.184V113.73ZM177.801 183.599H169.49V174.863H177.801V183.599ZM169.49 131.201H177.801V122.465H169.49V131.201Z" fill="white"/>
<path d="M53.4374 239.135C54.4974 239.135 55.2707 239.338 55.7574 239.745C56.244 240.152 56.4874 240.778 56.4874 241.625C56.4874 242.472 56.2374 243.092 55.7374 243.485C55.244 243.878 54.484 244.075 53.4574 244.075H52.2174V246.125H51.0374V239.135H53.4374ZM53.5874 243.005C54.2407 243.005 54.684 242.882 54.9174 242.635C55.1574 242.382 55.2774 242.015 55.2774 241.535C55.2774 241.048 55.1274 240.705 54.8274 240.505C54.5274 240.305 54.0574 240.205 53.4174 240.205H52.2174V243.005H53.5874ZM61.9257 246.125H60.9057V245.415C60.4657 245.942 59.8757 246.205 59.1357 246.205C58.5823 246.205 58.1223 246.048 57.7557 245.735C57.3957 245.422 57.2157 245.005 57.2157 244.485C57.2157 243.958 57.409 243.565 57.7957 243.305C58.1823 243.045 58.7057 242.915 59.3657 242.915H60.8157V242.715C60.8157 242.008 60.4223 241.655 59.6357 241.655C59.1423 241.655 58.629 241.835 58.0957 242.195L57.5957 241.495C58.2423 240.982 58.9757 240.725 59.7957 240.725C60.4223 240.725 60.9323 240.885 61.3257 241.205C61.7257 241.518 61.9257 242.015 61.9257 242.695V246.125ZM60.8057 244.145V243.695H59.5457C58.739 243.695 58.3357 243.948 58.3357 244.455C58.3357 244.715 58.4357 244.915 58.6357 245.055C58.8357 245.188 59.1123 245.255 59.4657 245.255C59.8257 245.255 60.139 245.155 60.4057 244.955C60.6723 244.755 60.8057 244.485 60.8057 244.145ZM64.0962 248.245C63.6095 248.245 63.1695 248.068 62.7762 247.715L63.2862 246.805C63.5195 247.025 63.7595 247.135 64.0062 247.135C64.2595 247.135 64.4629 247.045 64.6162 246.865C64.7762 246.685 64.8562 246.488 64.8562 246.275C64.8562 246.182 64.1395 244.358 62.7062 240.805H63.9062L65.4962 244.725L67.0862 240.805H68.2862L65.7062 247.125C65.5529 247.472 65.3329 247.745 65.0462 247.945C64.7595 248.145 64.4429 248.245 64.0962 248.245ZM93.8004 241.705V244.405C93.8004 244.658 93.867 244.862 94.0004 245.015C94.1337 245.162 94.3204 245.235 94.5604 245.235C94.8004 245.235 95.0304 245.118 95.2504 244.885L95.7104 245.675C95.317 246.028 94.8804 246.205 94.4004 246.205C93.927 246.205 93.5204 246.042 93.1804 245.715C92.847 245.382 92.6804 244.935 92.6804 244.375V241.705H92.0104V240.805H92.6804V239.135H93.8004V240.805H95.2004V241.705H93.8004ZM97.801 244.725C98.121 245.045 98.5243 245.205 99.011 245.205C99.4976 245.205 99.8976 245.045 100.211 244.725C100.531 244.398 100.691 243.978 100.691 243.465C100.691 242.952 100.531 242.535 100.211 242.215C99.8976 241.888 99.4976 241.725 99.011 241.725C98.5243 241.725 98.121 241.888 97.801 242.215C97.4876 242.535 97.331 242.952 97.331 243.465C97.331 243.978 97.4876 244.398 97.801 244.725ZM101.011 245.415C100.478 245.942 99.811 246.205 99.011 246.205C98.211 246.205 97.5443 245.942 97.011 245.415C96.4776 244.882 96.211 244.232 96.211 243.465C96.211 242.698 96.4776 242.052 97.011 241.525C97.5443 240.992 98.211 240.725 99.011 240.725C99.811 240.725 100.478 240.992 101.011 241.525C101.544 242.052 101.811 242.698 101.811 243.465C101.811 244.232 101.544 244.882 101.011 245.415ZM110.779 243.955H106.609C106.635 244.342 106.812 244.655 107.139 244.895C107.465 245.128 107.839 245.245 108.259 245.245C108.925 245.245 109.432 245.035 109.779 244.615L110.419 245.315C109.845 245.908 109.099 246.205 108.179 246.205C107.432 246.205 106.795 245.958 106.269 245.465C105.749 244.965 105.489 244.298 105.489 243.465C105.489 242.625 105.755 241.958 106.289 241.465C106.822 240.972 107.449 240.725 108.169 240.725C108.895 240.725 109.512 240.945 110.019 241.385C110.525 241.818 110.779 242.418 110.779 243.185V243.955ZM106.609 243.075H109.659C109.659 242.628 109.519 242.285 109.239 242.045C108.959 241.805 108.612 241.685 108.199 241.685C107.792 241.685 107.425 241.812 107.099 242.065C106.772 242.312 106.609 242.648 106.609 243.075ZM113.13 243.245V246.125H112.01V240.805H113.13V241.775C113.31 241.448 113.557 241.192 113.87 241.005C114.19 240.818 114.534 240.725 114.9 240.725C115.5 240.725 115.984 240.908 116.35 241.275C116.724 241.642 116.91 242.172 116.91 242.865V246.125H115.79V243.205C115.79 242.225 115.384 241.735 114.57 241.735C114.184 241.735 113.847 241.865 113.56 242.125C113.274 242.378 113.13 242.752 113.13 243.245ZM119.787 241.705V244.405C119.787 244.658 119.853 244.862 119.987 245.015C120.12 245.162 120.307 245.235 120.547 245.235C120.787 245.235 121.017 245.118 121.237 244.885L121.697 245.675C121.303 246.028 120.867 246.205 120.387 246.205C119.913 246.205 119.507 246.042 119.167 245.715C118.833 245.382 118.667 244.935 118.667 244.375V241.705H117.997V240.805H118.667V239.135H119.787V240.805H121.187V241.705H119.787ZM127.536 243.955H123.366C123.393 244.342 123.57 244.655 123.896 244.895C124.223 245.128 124.596 245.245 125.016 245.245C125.683 245.245 126.19 245.035 126.536 244.615L127.176 245.315C126.603 245.908 125.856 246.205 124.936 246.205C124.19 246.205 123.553 245.958 123.026 245.465C122.506 244.965 122.246 244.298 122.246 243.465C122.246 242.625 122.513 241.958 123.046 241.465C123.58 240.972 124.206 240.725 124.926 240.725C125.653 240.725 126.27 240.945 126.776 241.385C127.283 241.818 127.536 242.418 127.536 243.185V243.955ZM123.366 243.075H126.416C126.416 242.628 126.276 242.285 125.996 242.045C125.716 241.805 125.37 241.685 124.956 241.685C124.55 241.685 124.183 241.812 123.856 242.065C123.53 242.312 123.366 242.648 123.366 243.075ZM131.558 241.855C131.005 241.855 130.588 242.035 130.308 242.395C130.028 242.755 129.888 243.238 129.888 243.845V246.125H128.768V240.805H129.888V241.875C130.068 241.542 130.311 241.268 130.618 241.055C130.931 240.842 131.261 240.732 131.608 240.725L131.618 241.855C131.598 241.855 131.578 241.855 131.558 241.855Z" fill="#88A1AC" fill-opacity="0.7"/>
<path d="M74.5325 246.125L72.0125 241.729V240.693H72.8525C73.1885 240.693 73.4825 240.646 73.7345 240.553C73.9959 240.45 74.2105 240.306 74.3785 240.119C74.5559 239.932 74.6772 239.708 74.7425 239.447H72.0125V238.411H74.7285C74.6725 238.168 74.5745 237.954 74.4345 237.767C74.3039 237.58 74.1265 237.436 73.9025 237.333C73.6879 237.221 73.4265 237.165 73.1185 237.165H72.0125V236.129H78.3265V237.165H76.1285C76.2872 237.342 76.4179 237.534 76.5205 237.739C76.6325 237.944 76.7072 238.168 76.7445 238.411H78.3265V239.447H76.7725C76.6792 240.138 76.4132 240.679 75.9745 241.071C75.5359 241.454 74.9712 241.715 74.2805 241.855L77.0245 246.125H74.5325ZM82.9643 244.361C83.5709 244.361 84.0376 244.16 84.3643 243.759C84.7003 243.348 84.9056 242.793 84.9803 242.093C84.3829 242.494 83.7389 242.695 83.0483 242.695C82.1336 242.695 81.3683 242.396 80.7523 241.799C80.1456 241.192 79.8423 240.394 79.8423 239.405C79.8423 238.416 80.1689 237.622 80.8223 237.025C81.4849 236.418 82.3156 236.115 83.3143 236.115C84.0049 236.115 84.6023 236.25 85.1063 236.521C85.6196 236.782 86.0209 237.151 86.3103 237.627C86.8609 238.551 87.1363 239.708 87.1363 241.099C87.1363 241.995 87.0243 242.784 86.8003 243.465C86.5856 244.137 86.2916 244.669 85.9183 245.061C85.1529 245.845 84.2243 246.237 83.1323 246.237C82.6749 246.237 82.2363 246.172 81.8163 246.041C81.3963 245.901 81.0789 245.766 80.8643 245.635C80.6496 245.495 80.4023 245.318 80.1223 245.103L81.2143 243.563C81.2796 243.619 81.3636 243.694 81.4663 243.787C81.5783 243.871 81.7883 243.988 82.0963 244.137C82.4043 244.286 82.6936 244.361 82.9643 244.361ZM83.2583 240.833C83.6969 240.833 84.0609 240.707 84.3503 240.455C84.6396 240.203 84.7843 239.872 84.7843 239.461C84.7843 239.05 84.6443 238.696 84.3643 238.397C84.0843 238.098 83.7343 237.949 83.3143 237.949C82.8943 237.949 82.5489 238.084 82.2783 238.355C82.0169 238.616 81.8863 238.952 81.8863 239.363C81.8863 239.774 82.0076 240.124 82.2503 240.413C82.4929 240.693 82.8289 240.833 83.2583 240.833Z" fill="#88A1AC"/>
<path d="M312.444 301.925H320.4C322.341 301.925 324.066 302.306 325.574 303.069C327.082 303.814 328.252 304.88 329.084 306.267C329.916 307.636 330.332 309.222 330.332 311.025C330.332 312.828 329.916 314.422 329.084 315.809C328.252 317.178 327.082 318.244 325.574 319.007C324.066 319.752 322.341 320.125 320.4 320.125H312.444V301.925ZM320.244 317.265C321.579 317.265 322.749 317.014 323.754 316.511C324.777 315.991 325.557 315.263 326.094 314.327C326.649 313.374 326.926 312.273 326.926 311.025C326.926 309.777 326.649 308.685 326.094 307.749C325.557 306.796 324.777 306.068 323.754 305.565C322.749 305.045 321.579 304.785 320.244 304.785H315.824V317.265H320.244ZM338.916 306.085C340.962 306.085 342.522 306.579 343.596 307.567C344.688 308.538 345.234 310.011 345.234 311.987V320.125H342.166V318.435C341.768 319.042 341.196 319.51 340.45 319.839C339.722 320.151 338.838 320.307 337.798 320.307C336.758 320.307 335.848 320.134 335.068 319.787C334.288 319.423 333.682 318.929 333.248 318.305C332.832 317.664 332.624 316.944 332.624 316.147C332.624 314.899 333.084 313.902 334.002 313.157C334.938 312.394 336.403 312.013 338.396 312.013H341.984V311.805C341.984 310.834 341.69 310.089 341.1 309.569C340.528 309.049 339.67 308.789 338.526 308.789C337.746 308.789 336.975 308.91 336.212 309.153C335.467 309.396 334.834 309.734 334.314 310.167L333.04 307.801C333.768 307.246 334.644 306.822 335.666 306.527C336.689 306.232 337.772 306.085 338.916 306.085ZM338.474 317.941C339.289 317.941 340.008 317.759 340.632 317.395C341.274 317.014 341.724 316.476 341.984 315.783V314.171H338.63C336.758 314.171 335.822 314.786 335.822 316.017C335.822 316.606 336.056 317.074 336.524 317.421C336.992 317.768 337.642 317.941 338.474 317.941ZM353.695 320.307C352.569 320.307 351.468 320.16 350.393 319.865C349.319 319.57 348.461 319.198 347.819 318.747L349.067 316.277C349.691 316.693 350.437 317.031 351.303 317.291C352.187 317.534 353.054 317.655 353.903 317.655C355.845 317.655 356.815 317.144 356.815 316.121C356.815 315.636 356.564 315.298 356.061 315.107C355.576 314.916 354.787 314.734 353.695 314.561C352.551 314.388 351.615 314.188 350.887 313.963C350.177 313.738 349.553 313.348 349.015 312.793C348.495 312.221 348.235 311.432 348.235 310.427C348.235 309.11 348.781 308.061 349.873 307.281C350.983 306.484 352.473 306.085 354.345 306.085C355.299 306.085 356.252 306.198 357.205 306.423C358.159 306.631 358.939 306.917 359.545 307.281L358.297 309.751C357.119 309.058 355.793 308.711 354.319 308.711C353.366 308.711 352.638 308.858 352.135 309.153C351.65 309.43 351.407 309.803 351.407 310.271C351.407 310.791 351.667 311.164 352.187 311.389C352.725 311.597 353.548 311.796 354.657 311.987C355.767 312.16 356.677 312.36 357.387 312.585C358.098 312.81 358.705 313.192 359.207 313.729C359.727 314.266 359.987 315.029 359.987 316.017C359.987 317.317 359.424 318.357 358.297 319.137C357.171 319.917 355.637 320.307 353.695 320.307ZM370.664 306.085C372.415 306.085 373.819 306.596 374.876 307.619C375.934 308.642 376.462 310.158 376.462 312.169V320.125H373.212V312.585C373.212 311.372 372.926 310.462 372.354 309.855C371.782 309.231 370.968 308.919 369.91 308.919C368.714 308.919 367.77 309.283 367.076 310.011C366.383 310.722 366.036 311.753 366.036 313.105V320.125H362.786V300.833H366.036V307.853C366.574 307.281 367.232 306.848 368.012 306.553C368.81 306.241 369.694 306.085 370.664 306.085ZM388.281 306.085C389.633 306.085 390.838 306.38 391.895 306.969C392.97 307.558 393.81 308.39 394.417 309.465C395.024 310.54 395.327 311.779 395.327 313.183C395.327 314.587 395.024 315.835 394.417 316.927C393.81 318.002 392.97 318.834 391.895 319.423C390.838 320.012 389.633 320.307 388.281 320.307C387.328 320.307 386.452 320.142 385.655 319.813C384.875 319.484 384.216 318.99 383.679 318.331V320.125H380.585V300.833H383.835V307.931C384.39 307.324 385.04 306.865 385.785 306.553C386.548 306.241 387.38 306.085 388.281 306.085ZM387.917 317.525C389.113 317.525 390.092 317.126 390.855 316.329C391.635 315.532 392.025 314.483 392.025 313.183C392.025 311.883 391.635 310.834 390.855 310.037C390.092 309.24 389.113 308.841 387.917 308.841C387.137 308.841 386.435 309.023 385.811 309.387C385.187 309.734 384.693 310.236 384.329 310.895C383.965 311.554 383.783 312.316 383.783 313.183C383.783 314.05 383.965 314.812 384.329 315.471C384.693 316.13 385.187 316.641 385.811 317.005C386.435 317.352 387.137 317.525 387.917 317.525ZM404.649 320.307C403.245 320.307 401.98 320.004 400.853 319.397C399.727 318.79 398.843 317.95 398.201 316.875C397.577 315.783 397.265 314.552 397.265 313.183C397.265 311.814 397.577 310.592 398.201 309.517C398.843 308.442 399.727 307.602 400.853 306.995C401.98 306.388 403.245 306.085 404.649 306.085C406.071 306.085 407.345 306.388 408.471 306.995C409.598 307.602 410.473 308.442 411.097 309.517C411.739 310.592 412.059 311.814 412.059 313.183C412.059 314.552 411.739 315.783 411.097 316.875C410.473 317.95 409.598 318.79 408.471 319.397C407.345 320.004 406.071 320.307 404.649 320.307ZM404.649 317.525C405.845 317.525 406.833 317.126 407.613 316.329C408.393 315.532 408.783 314.483 408.783 313.183C408.783 311.883 408.393 310.834 407.613 310.037C406.833 309.24 405.845 308.841 404.649 308.841C403.453 308.841 402.465 309.24 401.685 310.037C400.923 310.834 400.541 311.883 400.541 313.183C400.541 314.483 400.923 315.532 401.685 316.329C402.465 317.126 403.453 317.525 404.649 317.525ZM420.293 306.085C422.339 306.085 423.899 306.579 424.973 307.567C426.065 308.538 426.611 310.011 426.611 311.987V320.125H423.543V318.435C423.145 319.042 422.573 319.51 421.827 319.839C421.099 320.151 420.215 320.307 419.175 320.307C418.135 320.307 417.225 320.134 416.445 319.787C415.665 319.423 415.059 318.929 414.625 318.305C414.209 317.664 414.001 316.944 414.001 316.147C414.001 314.899 414.461 313.902 415.379 313.157C416.315 312.394 417.78 312.013 419.773 312.013H423.361V311.805C423.361 310.834 423.067 310.089 422.477 309.569C421.905 309.049 421.047 308.789 419.903 308.789C419.123 308.789 418.352 308.91 417.589 309.153C416.844 309.396 416.211 309.734 415.691 310.167L414.417 307.801C415.145 307.246 416.021 306.822 417.043 306.527C418.066 306.232 419.149 306.085 420.293 306.085ZM419.851 317.941C420.666 317.941 421.385 317.759 422.009 317.395C422.651 317.014 423.101 316.476 423.361 315.783V314.171H420.007C418.135 314.171 417.199 314.786 417.199 316.017C417.199 316.606 417.433 317.074 417.901 317.421C418.369 317.768 419.019 317.941 419.851 317.941ZM433.876 308.269C434.812 306.813 436.459 306.085 438.816 306.085V309.179C438.539 309.127 438.288 309.101 438.062 309.101C436.797 309.101 435.809 309.474 435.098 310.219C434.388 310.947 434.032 312.004 434.032 313.391V320.125H430.782V306.241H433.876V308.269ZM455.044 300.833V320.125H451.924V318.331C451.387 318.99 450.72 319.484 449.922 319.813C449.142 320.142 448.276 320.307 447.322 320.307C445.988 320.307 444.783 320.012 443.708 319.423C442.651 318.834 441.819 318.002 441.212 316.927C440.606 315.835 440.302 314.587 440.302 313.183C440.302 311.779 440.606 310.54 441.212 309.465C441.819 308.39 442.651 307.558 443.708 306.969C444.783 306.38 445.988 306.085 447.322 306.085C448.241 306.085 449.082 306.241 449.844 306.553C450.607 306.865 451.257 307.333 451.794 307.957V300.833H455.044ZM447.712 317.525C448.492 317.525 449.194 317.352 449.818 317.005C450.442 316.641 450.936 316.13 451.3 315.471C451.664 314.812 451.846 314.05 451.846 313.183C451.846 312.316 451.664 311.554 451.3 310.895C450.936 310.236 450.442 309.734 449.818 309.387C449.194 309.023 448.492 308.841 447.712 308.841C446.932 308.841 446.23 309.023 445.606 309.387C444.982 309.734 444.488 310.236 444.124 310.895C443.76 311.554 443.578 312.316 443.578 313.183C443.578 314.05 443.76 314.812 444.124 315.471C444.488 316.13 444.982 316.641 445.606 317.005C446.23 317.352 446.932 317.525 447.712 317.525Z" fill="#88A1AC"/>
<path d="M314.72 377.325H310.08V375.125H321.96V377.325H317.32V389.125H314.72V377.325ZM325.797 380.005C326.517 378.885 327.784 378.325 329.597 378.325V380.705C329.384 380.665 329.191 380.645 329.017 380.645C328.044 380.645 327.284 380.932 326.737 381.505C326.191 382.065 325.917 382.878 325.917 383.945V389.125H323.417V378.445H325.797V380.005ZM335.74 378.325C337.313 378.325 338.513 378.705 339.34 379.465C340.18 380.212 340.6 381.345 340.6 382.865V389.125H338.24V387.825C337.933 388.292 337.493 388.652 336.92 388.905C336.36 389.145 335.68 389.265 334.88 389.265C334.08 389.265 333.38 389.132 332.78 388.865C332.18 388.585 331.713 388.205 331.38 387.725C331.06 387.232 330.9 386.678 330.9 386.065C330.9 385.105 331.253 384.338 331.96 383.765C332.68 383.178 333.806 382.885 335.34 382.885H338.1V382.725C338.1 381.978 337.873 381.405 337.42 381.005C336.98 380.605 336.32 380.405 335.44 380.405C334.84 380.405 334.246 380.498 333.66 380.685C333.086 380.872 332.6 381.132 332.2 381.465L331.22 379.645C331.78 379.218 332.453 378.892 333.24 378.665C334.026 378.438 334.86 378.325 335.74 378.325ZM335.4 387.445C336.026 387.445 336.58 387.305 337.06 387.025C337.553 386.732 337.9 386.318 338.1 385.785V384.545H335.52C334.08 384.545 333.36 385.018 333.36 385.965C333.36 386.418 333.54 386.778 333.9 387.045C334.26 387.312 334.76 387.445 335.4 387.445ZM348.806 389.265C347.699 389.265 346.706 389.032 345.826 388.565C344.946 388.098 344.259 387.452 343.766 386.625C343.272 385.785 343.026 384.838 343.026 383.785C343.026 382.732 343.272 381.792 343.766 380.965C344.259 380.138 344.939 379.492 345.806 379.025C346.686 378.558 347.686 378.325 348.806 378.325C349.859 378.325 350.779 378.538 351.566 378.965C352.366 379.392 352.966 380.005 353.366 380.805L351.446 381.925C351.139 381.432 350.752 381.065 350.286 380.825C349.832 380.572 349.332 380.445 348.786 380.445C347.852 380.445 347.079 380.752 346.466 381.365C345.852 381.965 345.546 382.772 345.546 383.785C345.546 384.798 345.846 385.612 346.446 386.225C347.059 386.825 347.839 387.125 348.786 387.125C349.332 387.125 349.832 387.005 350.286 386.765C350.752 386.512 351.139 386.138 351.446 385.645L353.366 386.765C352.952 387.565 352.346 388.185 351.546 388.625C350.759 389.052 349.846 389.265 348.806 389.265ZM359.789 384.545L357.929 386.305V389.125H355.429V374.285H357.929V383.245L363.109 378.445H366.109L361.649 382.925L366.529 389.125H363.489L359.789 384.545ZM387.151 378.325C388.498 378.325 389.565 378.718 390.351 379.505C391.138 380.278 391.531 381.445 391.531 383.005V389.125H389.031V383.325C389.031 382.392 388.825 381.692 388.411 381.225C387.998 380.745 387.405 380.505 386.631 380.505C385.791 380.505 385.118 380.785 384.611 381.345C384.105 381.892 383.851 382.678 383.851 383.705V389.125H381.351V383.325C381.351 382.392 381.145 381.692 380.731 381.225C380.318 380.745 379.725 380.505 378.951 380.505C378.098 380.505 377.418 380.778 376.911 381.325C376.418 381.872 376.171 382.665 376.171 383.705V389.125H373.671V378.445H376.051V379.805C376.451 379.325 376.951 378.958 377.551 378.705C378.151 378.452 378.818 378.325 379.551 378.325C380.351 378.325 381.058 378.478 381.671 378.785C382.298 379.078 382.791 379.518 383.151 380.105C383.591 379.545 384.158 379.112 384.851 378.805C385.545 378.485 386.311 378.325 387.151 378.325ZM399.624 389.265C398.544 389.265 397.57 389.032 396.704 388.565C395.837 388.098 395.157 387.452 394.664 386.625C394.184 385.785 393.944 384.838 393.944 383.785C393.944 382.732 394.184 381.792 394.664 380.965C395.157 380.138 395.837 379.492 396.704 379.025C397.57 378.558 398.544 378.325 399.624 378.325C400.717 378.325 401.697 378.558 402.564 379.025C403.43 379.492 404.104 380.138 404.584 380.965C405.077 381.792 405.324 382.732 405.324 383.785C405.324 384.838 405.077 385.785 404.584 386.625C404.104 387.452 403.43 388.098 402.564 388.565C401.697 389.032 400.717 389.265 399.624 389.265ZM399.624 387.125C400.544 387.125 401.304 386.818 401.904 386.205C402.504 385.592 402.804 384.785 402.804 383.785C402.804 382.785 402.504 381.978 401.904 381.365C401.304 380.752 400.544 380.445 399.624 380.445C398.704 380.445 397.944 380.752 397.344 381.365C396.757 381.978 396.464 382.785 396.464 383.785C396.464 384.785 396.757 385.592 397.344 386.205C397.944 386.818 398.704 387.125 399.624 387.125ZM413.774 378.325C415.121 378.325 416.201 378.718 417.014 379.505C417.828 380.292 418.234 381.458 418.234 383.005V389.125H415.734V383.325C415.734 382.392 415.514 381.692 415.074 381.225C414.634 380.745 414.008 380.505 413.194 380.505C412.274 380.505 411.548 380.785 411.014 381.345C410.481 381.892 410.214 382.685 410.214 383.725V389.125H407.714V378.445H410.094V379.825C410.508 379.332 411.028 378.958 411.654 378.705C412.281 378.452 412.988 378.325 413.774 378.325ZM431.543 383.845C431.543 384.018 431.53 384.265 431.503 384.585H423.123C423.27 385.372 423.65 385.998 424.263 386.465C424.89 386.918 425.663 387.145 426.583 387.145C427.757 387.145 428.723 386.758 429.483 385.985L430.823 387.525C430.343 388.098 429.737 388.532 429.003 388.825C428.27 389.118 427.443 389.265 426.523 389.265C425.35 389.265 424.317 389.032 423.423 388.565C422.53 388.098 421.837 387.452 421.343 386.625C420.863 385.785 420.623 384.838 420.623 383.785C420.623 382.745 420.857 381.812 421.323 380.985C421.803 380.145 422.463 379.492 423.303 379.025C424.143 378.558 425.09 378.325 426.143 378.325C427.183 378.325 428.11 378.558 428.923 379.025C429.75 379.478 430.39 380.125 430.843 380.965C431.31 381.792 431.543 382.752 431.543 383.845ZM426.143 380.325C425.343 380.325 424.663 380.565 424.103 381.045C423.557 381.512 423.223 382.138 423.103 382.925H429.163C429.057 382.152 428.73 381.525 428.183 381.045C427.637 380.565 426.957 380.325 426.143 380.325ZM443.749 378.445L438.749 389.985C438.283 391.145 437.716 391.958 437.049 392.425C436.383 392.905 435.576 393.145 434.629 393.145C434.096 393.145 433.569 393.058 433.049 392.885C432.529 392.712 432.103 392.472 431.769 392.165L432.769 390.325C433.009 390.552 433.289 390.732 433.609 390.865C433.943 390.998 434.276 391.065 434.609 391.065C435.049 391.065 435.409 390.952 435.689 390.725C435.983 390.498 436.249 390.118 436.489 389.585L436.669 389.165L432.009 378.445H434.609L437.969 386.345L441.349 378.445H443.749ZM318.06 418.545C317.767 418.785 317.407 418.965 316.98 419.085C316.567 419.205 316.127 419.265 315.66 419.265C314.487 419.265 313.58 418.958 312.94 418.345C312.3 417.732 311.98 416.838 311.98 415.665V410.525H310.22V408.525H311.98V406.085H314.48V408.525H317.34V410.525H314.48V415.605C314.48 416.125 314.607 416.525 314.86 416.805C315.113 417.072 315.48 417.205 315.96 417.205C316.52 417.205 316.987 417.058 317.36 416.765L318.06 418.545ZM326.177 408.325C327.523 408.325 328.603 408.718 329.417 409.505C330.23 410.292 330.637 411.458 330.637 413.005V419.125H328.137V413.325C328.137 412.392 327.917 411.692 327.477 411.225C327.037 410.745 326.41 410.505 325.597 410.505C324.677 410.505 323.95 410.785 323.417 411.345C322.883 411.892 322.617 412.685 322.617 413.725V419.125H320.117V404.285H322.617V409.685C323.03 409.245 323.537 408.912 324.137 408.685C324.75 408.445 325.43 408.325 326.177 408.325ZM336.188 410.005C336.908 408.885 338.175 408.325 339.988 408.325V410.705C339.775 410.665 339.581 410.645 339.408 410.645C338.435 410.645 337.675 410.932 337.128 411.505C336.581 412.065 336.308 412.878 336.308 413.945V419.125H333.808V408.445H336.188V410.005ZM346.811 419.265C345.731 419.265 344.758 419.032 343.891 418.565C343.024 418.098 342.344 417.452 341.851 416.625C341.371 415.785 341.131 414.838 341.131 413.785C341.131 412.732 341.371 411.792 341.851 410.965C342.344 410.138 343.024 409.492 343.891 409.025C344.758 408.558 345.731 408.325 346.811 408.325C347.904 408.325 348.884 408.558 349.751 409.025C350.618 409.492 351.291 410.138 351.771 410.965C352.264 411.792 352.511 412.732 352.511 413.785C352.511 414.838 352.264 415.785 351.771 416.625C351.291 417.452 350.618 418.098 349.751 418.565C348.884 419.032 347.904 419.265 346.811 419.265ZM346.811 417.125C347.731 417.125 348.491 416.818 349.091 416.205C349.691 415.592 349.991 414.785 349.991 413.785C349.991 412.785 349.691 411.978 349.091 411.365C348.491 410.752 347.731 410.445 346.811 410.445C345.891 410.445 345.131 410.752 344.531 411.365C343.944 411.978 343.651 412.785 343.651 413.785C343.651 414.785 343.944 415.592 344.531 416.205C345.131 416.818 345.891 417.125 346.811 417.125ZM365.242 408.445V419.125H362.862V417.765C362.462 418.245 361.962 418.618 361.362 418.885C360.762 419.138 360.115 419.265 359.422 419.265C357.995 419.265 356.868 418.872 356.042 418.085C355.228 417.285 354.822 416.105 354.822 414.545V408.445H357.322V414.205C357.322 415.165 357.535 415.885 357.962 416.365C358.402 416.832 359.022 417.065 359.822 417.065C360.715 417.065 361.422 416.792 361.942 416.245C362.475 415.685 362.742 414.885 362.742 413.845V408.445H365.242ZM379.115 408.445V417.505C379.115 421.265 377.195 423.145 373.355 423.145C372.328 423.145 371.355 423.012 370.435 422.745C369.515 422.492 368.755 422.118 368.155 421.625L369.275 419.745C369.742 420.132 370.328 420.438 371.035 420.665C371.755 420.905 372.482 421.025 373.215 421.025C374.388 421.025 375.248 420.758 375.795 420.225C376.342 419.692 376.615 418.878 376.615 417.785V417.225C376.188 417.692 375.668 418.045 375.055 418.285C374.442 418.525 373.768 418.645 373.035 418.645C372.022 418.645 371.102 418.432 370.275 418.005C369.462 417.565 368.815 416.952 368.335 416.165C367.868 415.378 367.635 414.478 367.635 413.465C367.635 412.452 367.868 411.558 368.335 410.785C368.815 409.998 369.462 409.392 370.275 408.965C371.102 408.538 372.022 408.325 373.035 408.325C373.808 408.325 374.508 408.452 375.135 408.705C375.775 408.958 376.308 409.345 376.735 409.865V408.445H379.115ZM373.415 416.525C374.362 416.525 375.135 416.245 375.735 415.685C376.348 415.112 376.655 414.372 376.655 413.465C376.655 412.572 376.348 411.845 375.735 411.285C375.135 410.725 374.362 410.445 373.415 410.445C372.455 410.445 371.668 410.725 371.055 411.285C370.455 411.845 370.155 412.572 370.155 413.465C370.155 414.372 370.455 415.112 371.055 415.685C371.668 416.245 372.455 416.525 373.415 416.525ZM388.462 408.325C389.808 408.325 390.888 408.718 391.702 409.505C392.515 410.292 392.922 411.458 392.922 413.005V419.125H390.422V413.325C390.422 412.392 390.202 411.692 389.762 411.225C389.322 410.745 388.695 410.505 387.882 410.505C386.962 410.505 386.235 410.785 385.702 411.345C385.168 411.892 384.902 412.685 384.902 413.725V419.125H382.402V404.285H384.902V409.685C385.315 409.245 385.822 408.912 386.422 408.685C387.035 408.445 387.715 408.325 388.462 408.325ZM408.04 418.545C407.747 418.785 407.387 418.965 406.96 419.085C406.547 419.205 406.107 419.265 405.64 419.265C404.467 419.265 403.56 418.958 402.92 418.345C402.28 417.732 401.96 416.838 401.96 415.665V410.525H400.2V408.525H401.96V406.085H404.46V408.525H407.32V410.525H404.46V415.605C404.46 416.125 404.587 416.525 404.84 416.805C405.094 417.072 405.46 417.205 405.94 417.205C406.5 417.205 406.967 417.058 407.34 416.765L408.04 418.545ZM416.157 408.325C417.504 408.325 418.584 408.718 419.397 409.505C420.21 410.292 420.617 411.458 420.617 413.005V419.125H418.117V413.325C418.117 412.392 417.897 411.692 417.457 411.225C417.017 410.745 416.39 410.505 415.577 410.505C414.657 410.505 413.93 410.785 413.397 411.345C412.864 411.892 412.597 412.685 412.597 413.725V419.125H410.097V404.285H412.597V409.685C413.01 409.245 413.517 408.912 414.117 408.685C414.73 408.445 415.41 408.325 416.157 408.325ZM433.926 413.845C433.926 414.018 433.913 414.265 433.886 414.585H425.506C425.653 415.372 426.033 415.998 426.646 416.465C427.273 416.918 428.046 417.145 428.966 417.145C430.139 417.145 431.106 416.758 431.866 415.985L433.206 417.525C432.726 418.098 432.119 418.532 431.386 418.825C430.653 419.118 429.826 419.265 428.906 419.265C427.733 419.265 426.699 419.032 425.806 418.565C424.913 418.098 424.219 417.452 423.726 416.625C423.246 415.785 423.006 414.838 423.006 413.785C423.006 412.745 423.239 411.812 423.706 410.985C424.186 410.145 424.846 409.492 425.686 409.025C426.526 408.558 427.473 408.325 428.526 408.325C429.566 408.325 430.493 408.558 431.306 409.025C432.133 409.478 432.773 410.125 433.226 410.965C433.693 411.792 433.926 412.752 433.926 413.845ZM428.526 410.325C427.726 410.325 427.046 410.565 426.486 411.045C425.939 411.512 425.606 412.138 425.486 412.925H431.546C431.439 412.152 431.113 411.525 430.566 411.045C430.019 410.565 429.339 410.325 428.526 410.325ZM455.335 408.325C456.682 408.325 457.748 408.718 458.535 409.505C459.322 410.278 459.715 411.445 459.715 413.005V419.125H457.215V413.325C457.215 412.392 457.008 411.692 456.595 411.225C456.182 410.745 455.588 410.505 454.815 410.505C453.975 410.505 453.302 410.785 452.795 411.345C452.288 411.892 452.035 412.678 452.035 413.705V419.125H449.535V413.325C449.535 412.392 449.328 411.692 448.915 411.225C448.502 410.745 447.908 410.505 447.135 410.505C446.282 410.505 445.602 410.778 445.095 411.325C444.602 411.872 444.355 412.665 444.355 413.705V419.125H441.855V408.445H444.235V409.805C444.635 409.325 445.135 408.958 445.735 408.705C446.335 408.452 447.002 408.325 447.735 408.325C448.535 408.325 449.242 408.478 449.855 408.785C450.482 409.078 450.975 409.518 451.335 410.105C451.775 409.545 452.342 409.112 453.035 408.805C453.728 408.485 454.495 408.325 455.335 408.325ZM473.047 413.845C473.047 414.018 473.034 414.265 473.007 414.585H464.627C464.774 415.372 465.154 415.998 465.767 416.465C466.394 416.918 467.167 417.145 468.087 417.145C469.261 417.145 470.227 416.758 470.987 415.985L472.327 417.525C471.847 418.098 471.241 418.532 470.507 418.825C469.774 419.118 468.947 419.265 468.027 419.265C466.854 419.265 465.821 419.032 464.927 418.565C464.034 418.098 463.341 417.452 462.847 416.625C462.367 415.785 462.127 414.838 462.127 413.785C462.127 412.745 462.361 411.812 462.827 410.985C463.307 410.145 463.967 409.492 464.807 409.025C465.647 408.558 466.594 408.325 467.647 408.325C468.687 408.325 469.614 408.558 470.427 409.025C471.254 409.478 471.894 410.125 472.347 410.965C472.814 411.792 473.047 412.752 473.047 413.845ZM467.647 410.325C466.847 410.325 466.167 410.565 465.607 411.045C465.061 411.512 464.727 412.138 464.607 412.925H470.667C470.561 412.152 470.234 411.525 469.687 411.045C469.141 410.565 468.461 410.325 467.647 410.325ZM479.236 408.325C480.809 408.325 482.009 408.705 482.836 409.465C483.676 410.212 484.096 411.345 484.096 412.865V419.125H481.736V417.825C481.429 418.292 480.989 418.652 480.416 418.905C479.856 419.145 479.176 419.265 478.376 419.265C477.576 419.265 476.876 419.132 476.276 418.865C475.676 418.585 475.209 418.205 474.876 417.725C474.556 417.232 474.396 416.678 474.396 416.065C474.396 415.105 474.749 414.338 475.456 413.765C476.176 413.178 477.302 412.885 478.836 412.885H481.596V412.725C481.596 411.978 481.369 411.405 480.916 411.005C480.476 410.605 479.816 410.405 478.936 410.405C478.336 410.405 477.742 410.498 477.156 410.685C476.582 410.872 476.096 411.132 475.696 411.465L474.716 409.645C475.276 409.218 475.949 408.892 476.736 408.665C477.522 408.438 478.356 408.325 479.236 408.325ZM478.896 417.445C479.522 417.445 480.076 417.305 480.556 417.025C481.049 416.732 481.396 416.318 481.596 415.785V414.545H479.016C477.576 414.545 476.856 415.018 476.856 415.965C476.856 416.418 477.036 416.778 477.396 417.045C477.756 417.312 478.256 417.445 478.896 417.445ZM493.364 408.325C494.711 408.325 495.791 408.718 496.604 409.505C497.417 410.292 497.824 411.458 497.824 413.005V419.125H495.324V413.325C495.324 412.392 495.104 411.692 494.664 411.225C494.224 410.745 493.597 410.505 492.784 410.505C491.864 410.505 491.137 410.785 490.604 411.345C490.071 411.892 489.804 412.685 489.804 413.725V419.125H487.304V408.445H489.684V409.825C490.097 409.332 490.617 408.958 491.244 408.705C491.871 408.452 492.577 408.325 493.364 408.325ZM504.295 419.265C503.429 419.265 502.582 419.152 501.755 418.925C500.929 418.698 500.269 418.412 499.775 418.065L500.735 416.165C501.215 416.485 501.789 416.745 502.455 416.945C503.135 417.132 503.802 417.225 504.455 417.225C505.949 417.225 506.695 416.832 506.695 416.045C506.695 415.672 506.502 415.412 506.115 415.265C505.742 415.118 505.135 414.978 504.295 414.845C503.415 414.712 502.695 414.558 502.135 414.385C501.589 414.212 501.109 413.912 500.695 413.485C500.295 413.045 500.095 412.438 500.095 411.665C500.095 410.652 500.515 409.845 501.355 409.245C502.209 408.632 503.355 408.325 504.795 408.325C505.529 408.325 506.262 408.412 506.995 408.585C507.729 408.745 508.329 408.965 508.795 409.245L507.835 411.145C506.929 410.612 505.909 410.345 504.775 410.345C504.042 410.345 503.482 410.458 503.095 410.685C502.722 410.898 502.535 411.185 502.535 411.545C502.535 411.945 502.735 412.232 503.135 412.405C503.549 412.565 504.182 412.718 505.035 412.865C505.889 412.998 506.589 413.152 507.135 413.325C507.682 413.498 508.149 413.792 508.535 414.205C508.935 414.618 509.135 415.205 509.135 415.965C509.135 416.965 508.702 417.765 507.835 418.365C506.969 418.965 505.789 419.265 504.295 419.265ZM316.44 449.265C315.36 449.265 314.387 449.032 313.52 448.565C312.653 448.098 311.973 447.452 311.48 446.625C311 445.785 310.76 444.838 310.76 443.785C310.76 442.732 311 441.792 311.48 440.965C311.973 440.138 312.653 439.492 313.52 439.025C314.387 438.558 315.36 438.325 316.44 438.325C317.533 438.325 318.513 438.558 319.38 439.025C320.247 439.492 320.92 440.138 321.4 440.965C321.893 441.792 322.14 442.732 322.14 443.785C322.14 444.838 321.893 445.785 321.4 446.625C320.92 447.452 320.247 448.098 319.38 448.565C318.513 449.032 317.533 449.265 316.44 449.265ZM316.44 447.125C317.36 447.125 318.12 446.818 318.72 446.205C319.32 445.592 319.62 444.785 319.62 443.785C319.62 442.785 319.32 441.978 318.72 441.365C318.12 440.752 317.36 440.445 316.44 440.445C315.52 440.445 314.76 440.752 314.16 441.365C313.573 441.978 313.28 442.785 313.28 443.785C313.28 444.785 313.573 445.592 314.16 446.205C314.76 446.818 315.52 447.125 316.44 447.125ZM328.871 436.165C327.817 436.165 327.291 436.738 327.291 437.885V438.525H330.231V440.525H327.371V449.125H324.871V440.525H323.111V438.525H324.871V437.845C324.871 436.698 325.204 435.798 325.871 435.145C326.537 434.478 327.477 434.145 328.691 434.145C329.651 434.145 330.404 434.338 330.951 434.725L330.251 436.605C329.824 436.312 329.364 436.165 328.871 436.165ZM341.521 438.325C343.094 438.325 344.294 438.705 345.121 439.465C345.961 440.212 346.381 441.345 346.381 442.865V449.125H344.021V447.825C343.714 448.292 343.274 448.652 342.701 448.905C342.141 449.145 341.461 449.265 340.661 449.265C339.861 449.265 339.161 449.132 338.561 448.865C337.961 448.585 337.494 448.205 337.161 447.725C336.841 447.232 336.681 446.678 336.681 446.065C336.681 445.105 337.034 444.338 337.741 443.765C338.461 443.178 339.587 442.885 341.121 442.885H343.881V442.725C343.881 441.978 343.654 441.405 343.201 441.005C342.761 440.605 342.101 440.405 341.221 440.405C340.621 440.405 340.027 440.498 339.441 440.685C338.867 440.872 338.381 441.132 337.981 441.465L337.001 439.645C337.561 439.218 338.234 438.892 339.021 438.665C339.807 438.438 340.641 438.325 341.521 438.325ZM341.181 447.445C341.807 447.445 342.361 447.305 342.841 447.025C343.334 446.732 343.681 446.318 343.881 445.785V444.545H341.301C339.861 444.545 339.141 445.018 339.141 445.965C339.141 446.418 339.321 446.778 339.681 447.045C340.041 447.312 340.541 447.445 341.181 447.445ZM365.577 434.285V449.125H363.177V447.745C362.763 448.252 362.25 448.632 361.637 448.885C361.037 449.138 360.37 449.265 359.637 449.265C358.61 449.265 357.683 449.038 356.857 448.585C356.043 448.132 355.403 447.492 354.937 446.665C354.47 445.825 354.237 444.865 354.237 443.785C354.237 442.705 354.47 441.752 354.937 440.925C355.403 440.098 356.043 439.458 356.857 439.005C357.683 438.552 358.61 438.325 359.637 438.325C360.343 438.325 360.99 438.445 361.577 438.685C362.163 438.925 362.663 439.285 363.077 439.765V434.285H365.577ZM359.937 447.125C360.537 447.125 361.077 446.992 361.557 446.725C362.037 446.445 362.417 446.052 362.697 445.545C362.977 445.038 363.117 444.452 363.117 443.785C363.117 443.118 362.977 442.532 362.697 442.025C362.417 441.518 362.037 441.132 361.557 440.865C361.077 440.585 360.537 440.445 359.937 440.445C359.337 440.445 358.797 440.585 358.317 440.865C357.837 441.132 357.457 441.518 357.177 442.025C356.897 442.532 356.757 443.118 356.757 443.785C356.757 444.452 356.897 445.038 357.177 445.545C357.457 446.052 357.837 446.445 358.317 446.725C358.797 446.992 359.337 447.125 359.937 447.125ZM368.847 438.445H371.347V449.125H368.847V438.445ZM370.107 436.685C369.654 436.685 369.274 436.545 368.967 436.265C368.66 435.972 368.507 435.612 368.507 435.185C368.507 434.758 368.66 434.405 368.967 434.125C369.274 433.832 369.654 433.685 370.107 433.685C370.56 433.685 370.94 433.825 371.247 434.105C371.554 434.372 371.707 434.712 371.707 435.125C371.707 435.565 371.554 435.938 371.247 436.245C370.954 436.538 370.574 436.685 370.107 436.685ZM385.228 438.445V447.505C385.228 451.265 383.308 453.145 379.468 453.145C378.442 453.145 377.468 453.012 376.548 452.745C375.628 452.492 374.868 452.118 374.268 451.625L375.388 449.745C375.855 450.132 376.442 450.438 377.148 450.665C377.868 450.905 378.595 451.025 379.328 451.025C380.502 451.025 381.362 450.758 381.908 450.225C382.455 449.692 382.728 448.878 382.728 447.785V447.225C382.302 447.692 381.782 448.045 381.168 448.285C380.555 448.525 379.882 448.645 379.148 448.645C378.135 448.645 377.215 448.432 376.388 448.005C375.575 447.565 374.928 446.952 374.448 446.165C373.982 445.378 373.748 444.478 373.748 443.465C373.748 442.452 373.982 441.558 374.448 440.785C374.928 439.998 375.575 439.392 376.388 438.965C377.215 438.538 378.135 438.325 379.148 438.325C379.922 438.325 380.622 438.452 381.248 438.705C381.888 438.958 382.422 439.345 382.848 439.865V438.445H385.228ZM379.528 446.525C380.475 446.525 381.248 446.245 381.848 445.685C382.462 445.112 382.768 444.372 382.768 443.465C382.768 442.572 382.462 441.845 381.848 441.285C381.248 440.725 380.475 440.445 379.528 440.445C378.568 440.445 377.782 440.725 377.168 441.285C376.568 441.845 376.268 442.572 376.268 443.465C376.268 444.372 376.568 445.112 377.168 445.685C377.782 446.245 378.568 446.525 379.528 446.525ZM388.515 438.445H391.015V449.125H388.515V438.445ZM389.775 436.685C389.322 436.685 388.942 436.545 388.635 436.265C388.328 435.972 388.175 435.612 388.175 435.185C388.175 434.758 388.328 434.405 388.635 434.125C388.942 433.832 389.322 433.685 389.775 433.685C390.228 433.685 390.608 433.825 390.915 434.105C391.222 434.372 391.375 434.712 391.375 435.125C391.375 435.565 391.222 435.938 390.915 436.245C390.622 436.538 390.242 436.685 389.775 436.685ZM400.716 448.545C400.423 448.785 400.063 448.965 399.636 449.085C399.223 449.205 398.783 449.265 398.316 449.265C397.143 449.265 396.236 448.958 395.596 448.345C394.956 447.732 394.636 446.838 394.636 445.665V440.525H392.876V438.525H394.636V436.085H397.136V438.525H399.996V440.525H397.136V445.605C397.136 446.125 397.263 446.525 397.516 446.805C397.77 447.072 398.136 447.205 398.616 447.205C399.176 447.205 399.643 447.058 400.016 446.765L400.716 448.545ZM406.853 438.325C408.426 438.325 409.626 438.705 410.453 439.465C411.293 440.212 411.713 441.345 411.713 442.865V449.125H409.353V447.825C409.046 448.292 408.606 448.652 408.033 448.905C407.473 449.145 406.793 449.265 405.993 449.265C405.193 449.265 404.493 449.132 403.893 448.865C403.293 448.585 402.826 448.205 402.493 447.725C402.173 447.232 402.013 446.678 402.013 446.065C402.013 445.105 402.366 444.338 403.073 443.765C403.793 443.178 404.919 442.885 406.453 442.885H409.213V442.725C409.213 441.978 408.986 441.405 408.533 441.005C408.093 440.605 407.433 440.405 406.553 440.405C405.953 440.405 405.359 440.498 404.773 440.685C404.199 440.872 403.713 441.132 403.313 441.465L402.333 439.645C402.893 439.218 403.566 438.892 404.353 438.665C405.139 438.438 405.973 438.325 406.853 438.325ZM406.513 447.445C407.139 447.445 407.693 447.305 408.173 447.025C408.666 446.732 409.013 446.318 409.213 445.785V444.545H406.633C405.193 444.545 404.473 445.018 404.473 445.965C404.473 446.418 404.653 446.778 405.013 447.045C405.373 447.312 405.873 447.445 406.513 447.445ZM414.921 434.285H417.421V449.125H414.921V434.285ZM426.23 434.285H428.73V449.125H426.23V434.285ZM442.051 443.845C442.051 444.018 442.038 444.265 442.011 444.585H433.631C433.778 445.372 434.158 445.998 434.771 446.465C435.398 446.918 436.171 447.145 437.091 447.145C438.264 447.145 439.231 446.758 439.991 445.985L441.331 447.525C440.851 448.098 440.244 448.532 439.511 448.825C438.778 449.118 437.951 449.265 437.031 449.265C435.858 449.265 434.824 449.032 433.931 448.565C433.038 448.098 432.344 447.452 431.851 446.625C431.371 445.785 431.131 444.838 431.131 443.785C431.131 442.745 431.364 441.812 431.831 440.985C432.311 440.145 432.971 439.492 433.811 439.025C434.651 438.558 435.598 438.325 436.651 438.325C437.691 438.325 438.618 438.558 439.431 439.025C440.258 439.478 440.898 440.125 441.351 440.965C441.818 441.792 442.051 442.752 442.051 443.845ZM436.651 440.325C435.851 440.325 435.171 440.565 434.611 441.045C434.064 441.512 433.731 442.138 433.611 442.925H439.671C439.564 442.152 439.238 441.525 438.691 441.045C438.144 440.565 437.464 440.325 436.651 440.325ZM454.913 434.285V449.125H452.513V447.745C452.099 448.252 451.586 448.632 450.973 448.885C450.373 449.138 449.706 449.265 448.973 449.265C447.946 449.265 447.019 449.038 446.193 448.585C445.379 448.132 444.739 447.492 444.273 446.665C443.806 445.825 443.573 444.865 443.573 443.785C443.573 442.705 443.806 441.752 444.273 440.925C444.739 440.098 445.379 439.458 446.193 439.005C447.019 438.552 447.946 438.325 448.973 438.325C449.679 438.325 450.326 438.445 450.913 438.685C451.499 438.925 451.999 439.285 452.413 439.765V434.285H454.913ZM449.273 447.125C449.873 447.125 450.413 446.992 450.893 446.725C451.373 446.445 451.753 446.052 452.033 445.545C452.313 445.038 452.453 444.452 452.453 443.785C452.453 443.118 452.313 442.532 452.033 442.025C451.753 441.518 451.373 441.132 450.893 440.865C450.413 440.585 449.873 440.445 449.273 440.445C448.673 440.445 448.133 440.585 447.653 440.865C447.173 441.132 446.793 441.518 446.513 442.025C446.233 442.532 446.093 443.118 446.093 443.785C446.093 444.452 446.233 445.038 446.513 445.545C446.793 446.052 447.173 446.445 447.653 446.725C448.133 446.992 448.673 447.125 449.273 447.125ZM468.783 438.445V447.505C468.783 451.265 466.863 453.145 463.023 453.145C461.996 453.145 461.023 453.012 460.103 452.745C459.183 452.492 458.423 452.118 457.823 451.625L458.943 449.745C459.41 450.132 459.996 450.438 460.703 450.665C461.423 450.905 462.15 451.025 462.883 451.025C464.056 451.025 464.916 450.758 465.463 450.225C466.01 449.692 466.283 448.878 466.283 447.785V447.225C465.856 447.692 465.336 448.045 464.723 448.285C464.11 448.525 463.436 448.645 462.703 448.645C461.69 448.645 460.77 448.432 459.943 448.005C459.13 447.565 458.483 446.952 458.003 446.165C457.536 445.378 457.303 444.478 457.303 443.465C457.303 442.452 457.536 441.558 458.003 440.785C458.483 439.998 459.13 439.392 459.943 438.965C460.77 438.538 461.69 438.325 462.703 438.325C463.476 438.325 464.176 438.452 464.803 438.705C465.443 438.958 465.976 439.345 466.403 439.865V438.445H468.783ZM463.083 446.525C464.03 446.525 464.803 446.245 465.403 445.685C466.016 445.112 466.323 444.372 466.323 443.465C466.323 442.572 466.016 441.845 465.403 441.285C464.803 440.725 464.03 440.445 463.083 440.445C462.123 440.445 461.336 440.725 460.723 441.285C460.123 441.845 459.823 442.572 459.823 443.465C459.823 444.372 460.123 445.112 460.723 445.685C461.336 446.245 462.123 446.525 463.083 446.525ZM482.11 443.845C482.11 444.018 482.096 444.265 482.07 444.585H473.69C473.836 445.372 474.216 445.998 474.83 446.465C475.456 446.918 476.23 447.145 477.15 447.145C478.323 447.145 479.29 446.758 480.05 445.985L481.39 447.525C480.91 448.098 480.303 448.532 479.57 448.825C478.836 449.118 478.01 449.265 477.09 449.265C475.916 449.265 474.883 449.032 473.99 448.565C473.096 448.098 472.403 447.452 471.91 446.625C471.43 445.785 471.19 444.838 471.19 443.785C471.19 442.745 471.423 441.812 471.89 440.985C472.37 440.145 473.03 439.492 473.87 439.025C474.71 438.558 475.656 438.325 476.71 438.325C477.75 438.325 478.676 438.558 479.49 439.025C480.316 439.478 480.956 440.125 481.41 440.965C481.876 441.792 482.11 442.752 482.11 443.845ZM476.71 440.325C475.91 440.325 475.23 440.565 474.67 441.045C474.123 441.512 473.79 442.138 473.67 442.925H479.73C479.623 442.152 479.296 441.525 478.75 441.045C478.203 440.565 477.523 440.325 476.71 440.325ZM486.891 440.005C487.611 438.885 488.878 438.325 490.691 438.325V440.705C490.478 440.665 490.284 440.645 490.111 440.645C489.138 440.645 488.378 440.932 487.831 441.505C487.284 442.065 487.011 442.878 487.011 443.945V449.125H484.511V438.445H486.891V440.005ZM493.514 449.265C493.061 449.265 492.674 449.112 492.354 448.805C492.034 448.485 491.874 448.085 491.874 447.605C491.874 447.112 492.028 446.712 492.334 446.405C492.654 446.098 493.048 445.945 493.514 445.945C493.981 445.945 494.368 446.098 494.674 446.405C494.994 446.712 495.154 447.112 495.154 447.605C495.154 448.085 494.994 448.485 494.674 448.805C494.354 449.112 493.968 449.265 493.514 449.265Z" fill="#88A1AC"/>
<path d="M329.162 288.125L329.136 276.061L323.156 286.045H321.648L315.668 276.217V288.125H312.444V269.925H315.226L322.454 281.989L329.552 269.925H332.334L332.36 288.125H329.162ZM350.016 281.261C350.016 281.486 349.999 281.807 349.964 282.223H339.07C339.261 283.246 339.755 284.06 340.552 284.667C341.367 285.256 342.372 285.551 343.568 285.551C345.093 285.551 346.35 285.048 347.338 284.043L349.08 286.045C348.456 286.79 347.667 287.354 346.714 287.735C345.761 288.116 344.686 288.307 343.49 288.307C341.965 288.307 340.621 288.004 339.46 287.397C338.299 286.79 337.397 285.95 336.756 284.875C336.132 283.783 335.82 282.552 335.82 281.183C335.82 279.831 336.123 278.618 336.73 277.543C337.354 276.451 338.212 275.602 339.304 274.995C340.396 274.388 341.627 274.085 342.996 274.085C344.348 274.085 345.553 274.388 346.61 274.995C347.685 275.584 348.517 276.425 349.106 277.517C349.713 278.592 350.016 279.84 350.016 281.261ZM342.996 276.685C341.956 276.685 341.072 276.997 340.344 277.621C339.633 278.228 339.2 279.042 339.044 280.065H346.922C346.783 279.06 346.359 278.245 345.648 277.621C344.937 276.997 344.053 276.685 342.996 276.685ZM356.232 276.269C357.168 274.813 358.815 274.085 361.172 274.085V277.179C360.895 277.127 360.643 277.101 360.418 277.101C359.153 277.101 358.165 277.474 357.454 278.219C356.743 278.947 356.388 280.004 356.388 281.391V288.125H353.138V274.241H356.232V276.269ZM370.172 288.307C368.733 288.307 367.442 288.004 366.298 287.397C365.154 286.79 364.261 285.95 363.62 284.875C362.979 283.783 362.658 282.552 362.658 281.183C362.658 279.814 362.979 278.592 363.62 277.517C364.261 276.442 365.145 275.602 366.272 274.995C367.416 274.388 368.716 274.085 370.172 274.085C371.541 274.085 372.737 274.362 373.76 274.917C374.8 275.472 375.58 276.269 376.1 277.309L373.604 278.765C373.205 278.124 372.703 277.647 372.096 277.335C371.507 277.006 370.857 276.841 370.146 276.841C368.933 276.841 367.927 277.24 367.13 278.037C366.333 278.817 365.934 279.866 365.934 281.183C365.934 282.5 366.324 283.558 367.104 284.355C367.901 285.135 368.915 285.525 370.146 285.525C370.857 285.525 371.507 285.369 372.096 285.057C372.703 284.728 373.205 284.242 373.604 283.601L376.1 285.057C375.563 286.097 374.774 286.903 373.734 287.475C372.711 288.03 371.524 288.307 370.172 288.307ZM386.66 274.085C388.411 274.085 389.815 274.596 390.872 275.619C391.93 276.642 392.458 278.158 392.458 280.169V288.125H389.208V280.585C389.208 279.372 388.922 278.462 388.35 277.855C387.778 277.231 386.964 276.919 385.906 276.919C384.71 276.919 383.766 277.283 383.072 278.011C382.379 278.722 382.032 279.753 382.032 281.105V288.125H378.782V268.833H382.032V275.853C382.57 275.281 383.228 274.848 384.008 274.553C384.806 274.241 385.69 274.085 386.66 274.085ZM401.885 274.085C403.931 274.085 405.491 274.579 406.565 275.567C407.657 276.538 408.203 278.011 408.203 279.987V288.125H405.135V286.435C404.737 287.042 404.165 287.51 403.419 287.839C402.691 288.151 401.807 288.307 400.767 288.307C399.727 288.307 398.817 288.134 398.037 287.787C397.257 287.423 396.651 286.929 396.217 286.305C395.801 285.664 395.593 284.944 395.593 284.147C395.593 282.899 396.053 281.902 396.971 281.157C397.907 280.394 399.372 280.013 401.365 280.013H404.953V279.805C404.953 278.834 404.659 278.089 404.069 277.569C403.497 277.049 402.639 276.789 401.495 276.789C400.715 276.789 399.944 276.91 399.181 277.153C398.436 277.396 397.803 277.734 397.283 278.167L396.009 275.801C396.737 275.246 397.613 274.822 398.635 274.527C399.658 274.232 400.741 274.085 401.885 274.085ZM401.443 285.941C402.258 285.941 402.977 285.759 403.601 285.395C404.243 285.014 404.693 284.476 404.953 283.783V282.171H401.599C399.727 282.171 398.791 282.786 398.791 284.017C398.791 284.606 399.025 285.074 399.493 285.421C399.961 285.768 400.611 285.941 401.443 285.941ZM420.252 274.085C422.003 274.085 423.407 274.596 424.464 275.619C425.522 276.642 426.05 278.158 426.05 280.169V288.125H422.8V280.585C422.8 279.372 422.514 278.462 421.942 277.855C421.37 277.231 420.556 276.919 419.498 276.919C418.302 276.919 417.358 277.283 416.664 278.011C415.971 278.722 415.624 279.753 415.624 281.105V288.125H412.374V274.241H415.468V276.035C416.006 275.394 416.682 274.908 417.496 274.579C418.311 274.25 419.23 274.085 420.252 274.085ZM438.519 287.371C438.138 287.683 437.67 287.917 437.115 288.073C436.578 288.229 436.006 288.307 435.399 288.307C433.874 288.307 432.695 287.908 431.863 287.111C431.031 286.314 430.615 285.152 430.615 283.627V276.945H428.327V274.345H430.615V271.173H433.865V274.345H437.583V276.945H433.865V283.549C433.865 284.225 434.03 284.745 434.359 285.109C434.688 285.456 435.165 285.629 435.789 285.629C436.517 285.629 437.124 285.438 437.609 285.057L438.519 287.371Z" fill="#88A1AC"/>
<g clip-path="url(#clip0_1435_64667)">
<path fill-rule="evenodd" clip-rule="evenodd" d="M417.65 192.335H464.316V198.885H417.65V192.335ZM417.65 175.634H481.672V182.183H417.65V175.634ZM454 145.997H463.17C463.661 145.997 463.988 146.325 463.988 146.816V164.827C463.988 165.318 463.661 165.646 463.17 165.646H454C453.509 165.646 453.182 165.318 453.182 164.827V146.816C453.182 146.488 453.509 145.997 454 145.997ZM418.633 135.027H427.802C428.293 135.027 428.621 135.354 428.621 135.845V164.991C428.621 165.482 428.293 165.81 427.802 165.81H418.633C418.142 165.81 417.814 165.482 417.814 164.991V135.845C417.65 135.354 418.142 135.027 418.633 135.027ZM436.317 128.805H445.486C445.977 128.805 446.305 129.132 446.305 129.623V164.991C446.305 165.482 445.977 165.81 445.486 165.81H436.317C435.825 165.81 435.498 165.482 435.498 164.991V129.623C435.498 129.132 435.825 128.805 436.317 128.805Z" fill="#E4E4E4"/>
<path fill-rule="evenodd" clip-rule="evenodd" d="M358.406 77.7099L389.278 78.2547C389.278 89.3325 383.83 99.5024 374.75 105.677L358.406 77.7099ZM355.318 72.4434L354.955 36.4858V34.125L357.316 34.3066C360.222 34.4882 363.127 35.033 365.851 35.7594C368.575 36.4858 371.118 37.5755 373.66 38.8467C386.191 45.3844 394.908 58.4599 395.634 73.3514L395.816 75.7123H393.455L357.679 74.6226H355.682L355.318 72.4434ZM359.314 38.6651L359.677 70.2641L391.094 71.1722C389.823 58.8231 382.196 48.1085 371.663 42.4788C369.483 41.3892 367.123 40.4811 364.762 39.7547C362.764 39.3915 361.13 39.0283 359.314 38.6651ZM352.231 75.8939L369.847 106.403C364.399 109.491 358.406 111.125 352.231 111.125C332.8 111.125 317 95.3255 317 75.8939C317 57.0071 331.892 41.3891 350.778 40.6627L352.231 75.8939Z" fill="#E4E4E4"/>
<path d="M317 194.125C322.179 184.008 327.403 174.222 332.297 163.467C333.52 160.778 333.978 155.874 334.662 152.217C335.905 145.561 337.047 138.784 338.164 132.02C338.186 131.887 338.553 128.716 338.553 129.586C338.553 131.384 338.828 133.04 339.227 134.618C340.101 138.079 342.483 141.151 343.807 143.796C344.893 145.966 345.891 148.426 347.01 150.507C347.537 151.486 348.049 148.151 348.312 147.48C350.602 141.646 353.245 136.39 355.945 131.493C357.03 129.527 358.615 127.541 359.448 124.98C359.951 123.433 359.226 125.022 359.971 126.296C360.439 127.095 361.4 126.424 361.887 126.263C363.992 125.569 366.106 124.591 368.233 124.289C369.046 124.174 369.421 125.835 369.865 125.572C371.318 124.713 373.299 125.46 374.744 125.309C375.641 125.215 386.054 122.092 386.224 123.401C386.51 125.6 386.033 128.128 386.374 130.375C386.896 133.816 389.054 127.738 389.921 126.23C392.14 122.372 394.307 118.365 396.507 114.454C396.923 113.714 397.773 112.589 397.824 111.23C398.002 106.548 398.916 102.108 399.74 97.8092C400.199 95.4124 400.9 92.8808 401.701 90.9671C402.661 88.6721 403.972 94.6605 404.5 95.9342C407.497 103.166 410.692 110.072 413.884 116.888C414.302 117.78 415.77 121.822 416.533 121.822C416.717 121.822 417.014 120.367 417.087 120.079C417.678 117.769 418.39 116.026 419.257 114.158C420.629 111.205 421.896 108.111 423.299 105.309C425.987 99.9386 430.594 95.0079 434.03 92.0526C435.453 90.8291 437.576 96.4121 438.55 98.0066C441.161 102.278 443.806 106.563 446.274 111.23C446.466 111.593 447.083 113.599 447.396 113.599C447.781 113.599 448.735 111.631 449.013 111.296C452.274 107.367 455.514 103.345 458.801 99.5197C460.098 98.0108 461.53 95.6823 462.962 94.7829C463.574 94.3987 463.292 102.699 463.292 103.138C463.292 104.583 462.966 122.668 463.726 123.039C466.055 124.177 468.679 122.836 469.698 117.809C471.236 110.217 471.71 101.459 472.661 93.4671C473.093 89.8376 473.858 86.4089 474.278 82.8092C474.578 80.2388 474.307 76.8736 474.352 74.2566C474.387 72.2607 474.267 60.7951 475.565 60.2763C476.591 59.8662 477.6 59.125 478.648 59.125C479.872 62.7275 481.011 66.5153 482.42 69.7829C482.728 70.4979 482.689 71.0688 482.689 69.7829M478.379 59.125C478.986 61.1267 480.093 67.253 481.342 67.4145C482.115 67.5144 481.674 67.8216 482.42 66.9539C482.758 66.5605 483.78 66.5978 483.977 67.4145C484.051 67.723 483.989 70.6821 484.246 70.2434C485.06 68.8526 487 64.6661 487 62.0855" stroke="white" stroke-width="3" stroke-linecap="round"/>
</g>
<defs>
<clipPath id="clip0_1435_64667">
<rect width="184" height="186" fill="white" transform="translate(313 34.125)"/>
</clipPath>
</defs>
</svg>
