<svg width="504" height="66" viewBox="0 0 504 66" fill="none" xmlns="http://www.w3.org/2000/svg">
<path fill-rule="evenodd" clip-rule="evenodd" d="M344.523 46.5C344.523 45.2969 343.539 44.3125 342.335 44.3125C341.132 44.3125 340.148 45.2969 340.148 46.5C340.148 47.7032 341.132 48.6875 342.335 48.6875C343.539 48.6875 344.523 47.7032 344.523 46.5ZM350.21 42.125V22.875C350.21 22.4102 349.8 22 349.335 22H335.335C334.871 22 334.46 22.4102 334.46 22.875V42.125C334.46 42.5899 334.871 43 335.335 43H349.335C349.8 43 350.21 42.5899 350.21 42.125ZM344.96 18.9375C344.96 18.6914 344.769 18.5 344.523 18.5H340.148C339.902 18.5 339.71 18.6914 339.71 18.9375C339.71 19.1836 339.902 19.375 340.148 19.375H344.523C344.769 19.375 344.96 19.1836 344.96 18.9375ZM352.835 18.5V46.5C352.835 48.4141 351.25 50 349.335 50H335.335C333.421 50 331.835 48.4141 331.835 46.5V18.5C331.835 16.5859 333.421 15 335.335 15H349.335C351.25 15 352.835 16.5859 352.835 18.5Z" fill="#88A1AC"/>
<path d="M387.516 25.2881C386.997 25.2881 386.495 25.2197 386.012 25.083C385.534 24.9463 385.085 24.7389 384.666 24.4609C384.246 24.1784 383.879 23.8389 383.565 23.4424C383.255 23.0413 383.009 22.5628 382.827 22.0068C382.649 21.4508 382.56 20.847 382.56 20.1953C382.56 19.3978 382.692 18.6686 382.957 18.0078C383.221 17.3424 383.576 16.7933 384.023 16.3604C384.474 15.9274 384.989 15.5924 385.568 15.3555C386.151 15.1185 386.764 15 387.407 15C388.692 15 389.777 15.3532 390.661 16.0596L390.039 17.1465C389.291 16.6133 388.457 16.3467 387.537 16.3467C386.908 16.3467 386.34 16.5107 385.834 16.8389C385.329 17.1624 384.932 17.6159 384.645 18.1992C384.358 18.7826 384.214 19.4411 384.214 20.1748C384.214 21.3232 384.531 22.2393 385.165 22.9229C385.803 23.6019 386.616 23.9414 387.605 23.9414C388.589 23.9414 389.514 23.6064 390.38 22.9365L390.907 24.1875C389.95 24.9212 388.819 25.2881 387.516 25.2881Z" fill="#88A1AC"/>
<path d="M395.835 24.0508C396.505 24.0508 397.004 23.8298 397.333 23.3877C397.661 22.9411 397.825 22.3464 397.825 21.6035C397.825 20.8743 397.654 20.2887 397.312 19.8467C396.975 19.4046 396.476 19.1836 395.815 19.1836C395.136 19.1836 394.623 19.4069 394.277 19.8535C393.931 20.2956 393.757 20.8835 393.757 21.6172C393.757 22.3372 393.931 22.9229 394.277 23.374C394.628 23.8252 395.147 24.0508 395.835 24.0508ZM395.624 25.2949C395.077 25.2949 394.582 25.1947 394.14 24.9941C393.698 24.7891 393.34 24.5156 393.067 24.1738C392.793 23.832 392.584 23.4492 392.438 23.0254C392.297 22.597 392.226 22.1481 392.226 21.6787C392.226 21.1865 392.301 20.7171 392.452 20.2705C392.607 19.8239 392.825 19.4274 393.108 19.0811C393.39 18.7347 393.75 18.459 394.188 18.2539C394.63 18.0488 395.118 17.9463 395.651 17.9463C396.116 17.9463 396.53 18.0465 396.895 18.2471C397.26 18.443 397.551 18.7074 397.77 19.04V18.124H399.267V25.1377H397.743V24.085C397.533 24.4495 397.244 24.7435 396.875 24.9668C396.51 25.1855 396.093 25.2949 395.624 25.2949Z" fill="#88A1AC"/>
<path d="M401.373 25.1377V15.0957H402.897V25.1377H401.373Z" fill="#88A1AC"/>
<path d="M404.982 25.1377V15.0957H406.506V25.1377H404.982Z" fill="#88A1AC"/>
<path d="M415.277 25.2949C414.397 25.2949 413.725 25.0443 413.26 24.543C412.8 24.0371 412.57 23.3649 412.57 22.5264V18.124H414.087V22.5127C414.087 23.0277 414.215 23.4128 414.47 23.668C414.73 23.9232 415.097 24.0508 415.571 24.0508C416.118 24.0508 416.532 23.9049 416.815 23.6133C417.097 23.3216 417.239 22.8887 417.239 22.3145V18.124H418.77V23.3057C418.77 23.889 418.793 24.4997 418.838 25.1377H417.266L417.239 24.0713C417.184 24.1989 417.109 24.3265 417.013 24.4541C416.917 24.5817 416.792 24.7139 416.637 24.8506C416.482 24.9827 416.286 25.0898 416.049 25.1719C415.812 25.2539 415.555 25.2949 415.277 25.2949Z" fill="#88A1AC"/>
<path d="M423.466 25.2949C422.856 25.2949 422.304 25.2061 421.812 25.0283C421.32 24.8506 420.932 24.6501 420.65 24.4268L421.046 23.3057C421.324 23.5153 421.675 23.6953 422.099 23.8457C422.523 23.9961 422.938 24.0713 423.343 24.0713C424.154 24.0713 424.56 23.7728 424.56 23.1758C424.56 22.9479 424.476 22.7725 424.307 22.6494C424.139 22.5218 423.781 22.3646 423.234 22.1777L422.578 21.9521C422.268 21.8473 422.015 21.7471 421.819 21.6514C421.623 21.5557 421.431 21.4326 421.245 21.2822C421.058 21.1318 420.919 20.9473 420.828 20.7285C420.741 20.5098 420.698 20.25 420.698 19.9492C420.698 19.6029 420.768 19.2998 420.91 19.04C421.051 18.7757 421.245 18.5684 421.491 18.418C421.737 18.263 422.008 18.1491 422.304 18.0762C422.6 17.9987 422.917 17.96 423.254 17.96C423.728 17.96 424.18 18.0192 424.608 18.1377C425.036 18.2562 425.401 18.4134 425.702 18.6094L425.292 19.6758C425.05 19.5482 424.751 19.432 424.396 19.3271C424.045 19.2223 423.715 19.1699 423.405 19.1699C422.598 19.1699 422.195 19.4115 422.195 19.8945C422.195 20.1133 422.265 20.2773 422.407 20.3867C422.553 20.4961 422.869 20.6374 423.357 20.8105C423.375 20.8151 423.487 20.8538 423.692 20.9268C423.902 20.9997 424.02 21.0407 424.047 21.0498C424.312 21.141 424.528 21.2253 424.697 21.3027C424.865 21.3757 425.039 21.4714 425.216 21.5898C425.399 21.7083 425.54 21.8359 425.64 21.9727C425.74 22.1094 425.822 22.278 425.886 22.4785C425.955 22.679 425.989 22.9092 425.989 23.1689C425.989 23.5518 425.914 23.8867 425.763 24.1738C425.617 24.4564 425.419 24.6774 425.168 24.8369C424.918 24.9919 424.649 25.1058 424.362 25.1787C424.079 25.2562 423.781 25.2949 423.466 25.2949Z" fill="#88A1AC"/>
<path d="M389.788 40.7522H386.748V43.7122H386.028V40.7522H382.988V40.0642H386.028V37.0882H386.748V40.0642H389.788V40.7522Z" fill="#88A1AC"/>
<path d="M395.201 34.7202C396.652 34.7202 397.761 35.2162 398.529 36.2082C399.308 37.1895 399.697 38.5655 399.697 40.3362C399.697 41.5735 399.489 42.6242 399.073 43.4882C398.668 44.3415 398.092 44.9869 397.345 45.4242C396.598 45.8615 395.724 46.0802 394.721 46.0802C393.665 46.0802 392.817 45.8882 392.177 45.5042L392.513 44.8482C393.046 45.1895 393.782 45.3602 394.721 45.3602C396.012 45.3602 397.025 44.9442 397.761 44.1122C398.508 43.2695 398.881 42.0535 398.881 40.4642C398.881 39.9735 398.849 39.5255 398.785 39.1202C398.561 39.8455 398.124 40.4109 397.473 40.8162C396.833 41.2215 396.081 41.4242 395.217 41.4242C394.481 41.4242 393.825 41.2909 393.249 41.0242C392.684 40.7469 392.246 40.3575 391.937 39.8562C391.628 39.3442 391.473 38.7575 391.473 38.0962C391.473 37.4242 391.633 36.8322 391.953 36.3202C392.273 35.8082 392.716 35.4135 393.281 35.1362C393.846 34.8589 394.486 34.7202 395.201 34.7202ZM395.329 40.7202C395.926 40.7202 396.46 40.6029 396.929 40.3682C397.409 40.1335 397.777 39.8135 398.033 39.4082C398.3 39.0029 398.433 38.5495 398.433 38.0482C398.433 37.6002 398.305 37.1735 398.049 36.7682C397.804 36.3629 397.441 36.0375 396.961 35.7922C396.481 35.5469 395.905 35.4242 395.233 35.4242C394.358 35.4242 393.649 35.6695 393.105 36.1602C392.561 36.6402 392.289 37.2802 392.289 38.0802C392.289 38.8802 392.561 39.5202 393.105 40.0002C393.649 40.4802 394.39 40.7202 395.329 40.7202Z" fill="#88A1AC"/>
<path d="M404.25 34.8002V46.0002H403.434V35.5362H400.698V34.8002H404.25Z" fill="#88A1AC"/>
<path d="M418.88 34.8002V35.3762L414.064 46.0002H413.168L417.936 35.5362H411.648V37.6802H410.848V34.8002H418.88Z" fill="#88A1AC"/>
<path d="M423.749 39.6802C424.986 39.7122 425.925 40.0162 426.565 40.5922C427.215 41.1575 427.541 41.9095 427.541 42.8482C427.541 43.4775 427.391 44.0375 427.093 44.5282C426.794 45.0082 426.346 45.3869 425.749 45.6642C425.162 45.9415 424.453 46.0802 423.621 46.0802C422.81 46.0802 422.047 45.9469 421.333 45.6802C420.618 45.4029 420.063 45.0349 419.669 44.5762L420.085 43.9522C420.447 44.3575 420.938 44.6882 421.557 44.9442C422.186 45.2002 422.874 45.3282 423.621 45.3282C424.613 45.3282 425.375 45.1095 425.909 44.6722C426.442 44.2242 426.709 43.6162 426.709 42.8482C426.709 42.0695 426.437 41.4615 425.893 41.0242C425.349 40.5869 424.533 40.3682 423.445 40.3682H422.741V39.7762L426.053 35.5362H420.085V34.8002H427.109V35.3762L423.749 39.6802Z" fill="#88A1AC"/>
<path d="M432.592 39.6802C433.83 39.7122 434.768 40.0162 435.408 40.5922C436.059 41.1575 436.384 41.9095 436.384 42.8482C436.384 43.4775 436.235 44.0375 435.936 44.5282C435.638 45.0082 435.19 45.3869 434.592 45.6642C434.006 45.9415 433.296 46.0802 432.464 46.0802C431.654 46.0802 430.891 45.9469 430.176 45.6802C429.462 45.4029 428.907 45.0349 428.512 44.5762L428.928 43.9522C429.291 44.3575 429.782 44.6882 430.4 44.9442C431.03 45.2002 431.718 45.3282 432.464 45.3282C433.456 45.3282 434.219 45.1095 434.752 44.6722C435.286 44.2242 435.552 43.6162 435.552 42.8482C435.552 42.0695 435.28 41.4615 434.736 41.0242C434.192 40.5869 433.376 40.3682 432.288 40.3682H431.584V39.7762L434.896 35.5362H428.928V34.8002H435.952V35.3762L432.592 39.6802Z" fill="#88A1AC"/>
<path d="M445.583 34.8002V35.3762L440.767 46.0002H439.871L444.639 35.5362H438.351V37.6802H437.551V34.8002H445.583Z" fill="#88A1AC"/>
<path d="M449.623 39.4882C451.255 39.4882 452.439 39.7762 453.175 40.3522C453.911 40.9175 454.279 41.7229 454.279 42.7682C454.279 43.4082 454.13 43.9789 453.831 44.4802C453.543 44.9709 453.106 45.3602 452.519 45.6482C451.933 45.9362 451.213 46.0802 450.359 46.0802C449.549 46.0802 448.786 45.9415 448.071 45.6642C447.367 45.3869 446.818 45.0242 446.423 44.5762L446.839 43.9522C447.191 44.3575 447.677 44.6882 448.295 44.9442C448.925 45.2002 449.607 45.3282 450.343 45.3282C451.346 45.3282 452.114 45.0989 452.647 44.6402C453.191 44.1815 453.463 43.5682 453.463 42.8002C453.463 41.9575 453.154 41.3175 452.535 40.8802C451.927 40.4429 450.898 40.2242 449.447 40.2242H447.175L447.767 34.8002H453.703V35.5362H448.455L448.023 39.4882H449.623Z" fill="#88A1AC"/>
<path d="M458.467 39.4882C460.099 39.4882 461.283 39.7762 462.019 40.3522C462.755 40.9175 463.123 41.7229 463.123 42.7682C463.123 43.4082 462.974 43.9789 462.675 44.4802C462.387 44.9709 461.95 45.3602 461.363 45.6482C460.777 45.9362 460.057 46.0802 459.203 46.0802C458.393 46.0802 457.63 45.9415 456.915 45.6642C456.211 45.3869 455.662 45.0242 455.267 44.5762L455.683 43.9522C456.035 44.3575 456.521 44.6882 457.139 44.9442C457.769 45.2002 458.451 45.3282 459.187 45.3282C460.19 45.3282 460.958 45.0989 461.491 44.6402C462.035 44.1815 462.307 43.5682 462.307 42.8002C462.307 41.9575 461.998 41.3175 461.379 40.8802C460.771 40.4429 459.742 40.2242 458.291 40.2242H456.019L456.611 34.8002H462.547V35.5362H457.299L456.867 39.4882H458.467Z" fill="#88A1AC"/>
<path d="M472.13 34.8002V35.3762L467.314 46.0002H466.418L471.186 35.5362H464.898V37.6802H464.098V34.8002H472.13Z" fill="#88A1AC"/>
<path d="M481.427 34.8002V35.3762L476.611 46.0002H475.715L480.483 35.5362H474.195V37.6802H473.395V34.8002H481.427Z" fill="#88A1AC"/>
<path d="M487.1 46.0802C486.246 46.0802 485.484 45.8509 484.812 45.3922C484.15 44.9229 483.633 44.2615 483.26 43.4082C482.897 42.5549 482.716 41.5522 482.716 40.4002C482.716 39.2482 482.897 38.2455 483.26 37.3922C483.633 36.5389 484.15 35.8829 484.812 35.4242C485.484 34.9549 486.246 34.7202 487.1 34.7202C487.953 34.7202 488.71 34.9549 489.372 35.4242C490.044 35.8829 490.561 36.5389 490.924 37.3922C491.297 38.2455 491.484 39.2482 491.484 40.4002C491.484 41.5522 491.297 42.5549 490.924 43.4082C490.561 44.2615 490.044 44.9229 489.372 45.3922C488.71 45.8509 487.953 46.0802 487.1 46.0802ZM487.1 45.3282C487.804 45.3282 488.422 45.1362 488.956 44.7522C489.5 44.3575 489.921 43.7922 490.22 43.0562C490.518 42.3095 490.668 41.4242 490.668 40.4002C490.668 39.3762 490.518 38.4962 490.22 37.7602C489.921 37.0135 489.5 36.4482 488.956 36.0642C488.422 35.6695 487.804 35.4722 487.1 35.4722C486.396 35.4722 485.772 35.6695 485.228 36.0642C484.694 36.4482 484.278 37.0135 483.98 37.7602C483.681 38.4962 483.532 39.3762 483.532 40.4002C483.532 41.4242 483.681 42.3095 483.98 43.0562C484.278 43.7922 484.694 44.3575 485.228 44.7522C485.772 45.1362 486.396 45.3282 487.1 45.3282Z" fill="#88A1AC"/>
<path d="M500.802 34.8002V35.3762L495.986 46.0002H495.09L499.858 35.5362H493.57V37.6802H492.77V34.8002H500.802Z" fill="#88A1AC"/>
<path fill-rule="evenodd" clip-rule="evenodd" d="M282.835 66V0H283.835V66H282.835Z" fill="#88A1AC"/>
<path d="M58.5901 24.9531L55.801 15H57.4827C57.6331 15.5833 57.8518 16.4287 58.1389 17.5361C58.4306 18.639 58.6903 19.6393 58.9182 20.5371C59.1506 21.4303 59.3625 22.2826 59.554 23.0938C59.7773 22.2734 60.0211 21.4189 60.2854 20.5303C60.5543 19.637 60.8619 18.6344 61.2083 17.5225C61.5546 16.4105 61.8144 15.5697 61.9875 15H63.5188L65.4192 21.1113L65.9934 23.1143C66.1757 22.3031 66.3785 21.4463 66.6018 20.5439C66.8251 19.637 67.0735 18.639 67.3469 17.5498C67.6204 16.4561 67.8323 15.6061 67.9827 15H69.6096L66.8889 24.9531H65.0637L62.7122 17.1533L60.3879 24.9531H58.5901Z" fill="#88A1AC"/>
<path d="M70.8674 24.9531V19.6895C70.8674 19.498 70.8583 19.2565 70.8401 18.9648C70.8219 18.6732 70.8036 18.4294 70.7854 18.2334L70.7581 17.9395H72.385V18.9307C72.8909 18.1514 73.4879 17.7617 74.176 17.7617C74.4039 17.7617 74.6409 17.7959 74.887 17.8643V19.2109C74.6226 19.1198 74.3492 19.0742 74.0667 19.0742C73.5699 19.0742 73.1689 19.2428 72.8635 19.5801C72.5582 19.9128 72.4055 20.389 72.4055 21.0088V24.9531H70.8674Z" fill="#88A1AC"/>
<path d="M76.2542 16.3672V15H77.7444V16.3672H76.2542ZM76.2473 24.9531V17.9395H77.7444V24.9531H76.2473Z" fill="#88A1AC"/>
<path d="M83.7874 24.9463H83.1311C82.6298 24.9463 82.2174 24.9144 81.8938 24.8506C81.5702 24.7868 81.2831 24.666 81.0325 24.4883C80.7818 24.3105 80.5995 24.0553 80.4856 23.7227C80.3762 23.39 80.3215 22.9616 80.3215 22.4375V18.9648H78.927V17.9395H80.3625V16.2305L81.8459 15.7861V17.9395H83.76V18.9648H81.8459V22.5264C81.8459 22.8135 81.871 23.0368 81.9211 23.1963C81.9713 23.3512 82.0761 23.4743 82.2356 23.5654C82.3951 23.6566 82.5865 23.7135 82.8098 23.7363C83.0331 23.7591 83.359 23.7705 83.7874 23.7705V24.9463Z" fill="#88A1AC"/>
<path d="M86.72 20.6602H90.343C90.2838 20.1087 90.106 19.6872 89.8098 19.3955C89.5181 19.1038 89.1422 18.958 88.6819 18.958C88.1669 18.958 87.7362 19.1084 87.3899 19.4092C87.0481 19.71 86.8248 20.127 86.72 20.6602ZM88.8186 25.1104C87.6702 25.1104 86.761 24.7754 86.0911 24.1055C85.4211 23.4355 85.0862 22.5514 85.0862 21.4531C85.0862 20.7741 85.2252 20.1566 85.5032 19.6006C85.7812 19.0446 86.1913 18.6003 86.7336 18.2676C87.276 17.9303 87.9026 17.7617 88.6135 17.7617C89.1376 17.7617 89.6002 17.8551 90.0012 18.042C90.4068 18.2243 90.7304 18.4818 90.9719 18.8145C91.218 19.1426 91.4026 19.5231 91.5256 19.9561C91.6487 20.3844 91.7102 20.8584 91.7102 21.3779C91.7102 21.4736 91.6988 21.5785 91.676 21.6924H86.6858C86.7131 22.4124 86.9296 22.9548 87.3352 23.3193C87.7408 23.6839 88.274 23.8662 88.9348 23.8662C89.7323 23.8662 90.4661 23.611 91.136 23.1006L91.5667 24.2217C90.7782 24.8141 89.8622 25.1104 88.8186 25.1104Z" fill="#88A1AC"/>
<path d="M101.602 24.9463H100.946C100.444 24.9463 100.032 24.9144 99.7083 24.8506C99.3847 24.7868 99.0976 24.666 98.8469 24.4883C98.5963 24.3105 98.414 24.0553 98.3 23.7227C98.1907 23.39 98.136 22.9616 98.136 22.4375V18.9648H96.7415V17.9395H98.177V16.2305L99.6604 15.7861V17.9395H101.574V18.9648H99.6604V22.5264C99.6604 22.8135 99.6855 23.0368 99.7356 23.1963C99.7857 23.3512 99.8905 23.4743 100.05 23.5654C100.21 23.6566 100.401 23.7135 100.624 23.7363C100.848 23.7591 101.173 23.7705 101.602 23.7705V24.9463Z" fill="#88A1AC"/>
<path d="M106.565 25.1104C105.977 25.1104 105.446 25.0146 104.972 24.8232C104.503 24.6318 104.117 24.3698 103.817 24.0371C103.52 23.7044 103.293 23.3193 103.133 22.8818C102.978 22.4398 102.901 21.9613 102.901 21.4463C102.901 20.7445 103.037 20.1201 103.311 19.5732C103.584 19.0218 104.001 18.582 104.562 18.2539C105.127 17.9258 105.797 17.7617 106.572 17.7617C107.164 17.7617 107.693 17.8551 108.157 18.042C108.622 18.2288 109.001 18.4909 109.292 18.8281C109.584 19.1608 109.805 19.5505 109.955 19.9971C110.11 20.4391 110.188 20.9268 110.188 21.46C110.188 21.9658 110.108 22.4375 109.948 22.875C109.794 23.3125 109.568 23.6999 109.272 24.0371C108.98 24.3698 108.6 24.6318 108.13 24.8232C107.665 25.0146 107.143 25.1104 106.565 25.1104ZM106.558 23.8662C107.232 23.8662 107.738 23.6406 108.075 23.1895C108.417 22.7383 108.588 22.1549 108.588 21.4395C108.588 20.7148 108.415 20.127 108.069 19.6758C107.722 19.2246 107.216 18.999 106.551 18.999C105.886 18.999 105.378 19.2246 105.027 19.6758C104.676 20.127 104.5 20.7148 104.5 21.4395C104.5 22.1549 104.673 22.7383 105.02 23.1895C105.366 23.6406 105.879 23.8662 106.558 23.8662Z" fill="#88A1AC"/>
<path d="M118.664 25.1104C117.785 25.1104 117.113 24.8597 116.648 24.3584C116.187 23.8525 115.957 23.1803 115.957 22.3418V17.9395H117.475V22.3281C117.475 22.8431 117.602 23.2282 117.858 23.4834C118.117 23.7386 118.484 23.8662 118.958 23.8662C119.505 23.8662 119.92 23.7204 120.202 23.4287C120.485 23.137 120.626 22.7041 120.626 22.1299V17.9395H122.157V23.1211C122.157 23.7044 122.18 24.3151 122.226 24.9531H120.654L120.626 23.8867C120.572 24.0143 120.496 24.1419 120.401 24.2695C120.305 24.3971 120.18 24.5293 120.025 24.666C119.87 24.7982 119.674 24.9053 119.437 24.9873C119.2 25.0693 118.942 25.1104 118.664 25.1104Z" fill="#88A1AC"/>
<path d="M126.854 25.1104C126.243 25.1104 125.692 25.0215 125.199 24.8438C124.707 24.666 124.32 24.4655 124.037 24.2422L124.434 23.1211C124.712 23.3307 125.063 23.5107 125.487 23.6611C125.91 23.8115 126.325 23.8867 126.731 23.8867C127.542 23.8867 127.948 23.5882 127.948 22.9912C127.948 22.7633 127.863 22.5879 127.695 22.4648C127.526 22.3372 127.168 22.18 126.621 21.9932L125.965 21.7676C125.655 21.6628 125.402 21.5625 125.206 21.4668C125.01 21.3711 124.819 21.248 124.632 21.0977C124.445 20.9473 124.306 20.7627 124.215 20.5439C124.129 20.3252 124.085 20.0654 124.085 19.7646C124.085 19.4183 124.156 19.1152 124.297 18.8555C124.438 18.5911 124.632 18.3838 124.878 18.2334C125.124 18.0785 125.395 17.9645 125.692 17.8916C125.988 17.8141 126.305 17.7754 126.642 17.7754C127.116 17.7754 127.567 17.8346 127.995 17.9531C128.424 18.0716 128.788 18.2288 129.089 18.4248L128.679 19.4912C128.437 19.3636 128.139 19.2474 127.783 19.1426C127.433 19.0378 127.102 18.9854 126.792 18.9854C125.986 18.9854 125.582 19.2269 125.582 19.71C125.582 19.9287 125.653 20.0928 125.794 20.2021C125.94 20.3115 126.257 20.4528 126.744 20.626C126.763 20.6305 126.874 20.6693 127.079 20.7422C127.289 20.8151 127.407 20.8561 127.435 20.8652C127.699 20.9564 127.916 21.0407 128.084 21.1182C128.253 21.1911 128.426 21.2868 128.604 21.4053C128.786 21.5238 128.927 21.6514 129.028 21.7881C129.128 21.9248 129.21 22.0934 129.274 22.2939C129.342 22.4945 129.376 22.7246 129.376 22.9844C129.376 23.3672 129.301 23.7021 129.151 23.9893C129.005 24.2718 128.807 24.4928 128.556 24.6523C128.305 24.8073 128.036 24.9212 127.749 24.9941C127.467 25.0716 127.168 25.1104 126.854 25.1104Z" fill="#88A1AC"/>
<path d="M59.6436 46.0639C58.9716 46.0639 58.3316 45.9626 57.7236 45.7599C57.1156 45.5573 56.6409 45.3013 56.2996 44.9919L56.6676 44.3519C57.0089 44.6399 57.4462 44.8799 57.9796 45.0719C58.5236 45.2639 59.0889 45.3599 59.6756 45.3599C60.5182 45.3599 61.1369 45.2213 61.5316 44.9439C61.9369 44.6666 62.1396 44.2826 62.1396 43.7919C62.1396 43.4399 62.0276 43.1626 61.8036 42.9599C61.5902 42.7573 61.3236 42.6079 61.0036 42.5119C60.6836 42.4159 60.2409 42.3146 59.6756 42.2079C59.0142 42.0906 58.4809 41.9626 58.0756 41.8239C57.6702 41.6853 57.3236 41.4613 57.0356 41.1519C56.7476 40.8426 56.6036 40.4159 56.6036 39.8719C56.6036 39.2106 56.8756 38.6666 57.4196 38.2399C57.9742 37.8026 58.7582 37.5839 59.7716 37.5839C60.3049 37.5839 60.8329 37.6586 61.3556 37.8079C61.8782 37.9573 62.3049 38.1546 62.6356 38.3999L62.2676 39.0399C61.9262 38.7946 61.5369 38.6079 61.0996 38.4799C60.6622 38.3519 60.2142 38.2879 59.7556 38.2879C58.9769 38.2879 58.3902 38.4319 57.9956 38.7199C57.6009 39.0079 57.4036 39.3866 57.4036 39.8559C57.4036 40.2293 57.5156 40.5226 57.7396 40.7359C57.9636 40.9386 58.2356 41.0933 58.5556 41.1999C58.8862 41.2959 59.3449 41.4026 59.9316 41.5199C60.5822 41.6373 61.1049 41.7653 61.4996 41.9039C61.9049 42.0319 62.2462 42.2453 62.5236 42.5439C62.8009 42.8426 62.9396 43.2533 62.9396 43.7759C62.9396 44.4693 62.6516 45.0239 62.0756 45.4399C61.4996 45.8559 60.6889 46.0639 59.6436 46.0639Z" fill="#88A1AC"/>
<path d="M72.4842 37.6479V45.9999H71.7162V44.2079C71.4389 44.7946 71.0282 45.2533 70.4842 45.5839C69.9402 45.9039 69.3002 46.0639 68.5642 46.0639C67.4762 46.0639 66.6229 45.7599 66.0042 45.1519C65.3855 44.5439 65.0762 43.6693 65.0762 42.5279V37.6479H65.8762V42.4639C65.8762 43.4026 66.1162 44.1173 66.5962 44.6079C67.0762 45.0986 67.7535 45.3439 68.6282 45.3439C69.5669 45.3439 70.3082 45.0506 70.8522 44.4639C71.4069 43.8773 71.6842 43.0879 71.6842 42.0959V37.6479H72.4842Z" fill="#88A1AC"/>
<path d="M80.0673 37.5839C80.846 37.5839 81.55 37.7653 82.1793 38.1279C82.8086 38.4906 83.2993 38.9919 83.6513 39.6319C84.014 40.2719 84.1953 41.0026 84.1953 41.8239C84.1953 42.6453 84.014 43.3813 83.6513 44.0319C83.2993 44.6719 82.8086 45.1733 82.1793 45.5359C81.55 45.8879 80.846 46.0639 80.0673 46.0639C79.3313 46.0639 78.6646 45.8933 78.0673 45.5519C77.47 45.1999 77.006 44.7146 76.6753 44.0959V49.1039H75.8753V37.6479H76.6433V39.6159C76.974 38.9759 77.438 38.4799 78.0353 38.1279C78.6433 37.7653 79.3206 37.5839 80.0673 37.5839ZM80.0193 45.3439C80.6593 45.3439 81.2353 45.1946 81.7473 44.8959C82.2593 44.5973 82.6593 44.1813 82.9473 43.6479C83.246 43.1146 83.3953 42.5066 83.3953 41.8239C83.3953 41.1413 83.246 40.5333 82.9473 39.9999C82.6593 39.4666 82.2593 39.0506 81.7473 38.7519C81.2353 38.4533 80.6593 38.3039 80.0193 38.3039C79.3793 38.3039 78.8033 38.4533 78.2913 38.7519C77.79 39.0506 77.39 39.4666 77.0913 39.9999C76.8033 40.5333 76.6593 41.1413 76.6593 41.8239C76.6593 42.5066 76.8033 43.1146 77.0913 43.6479C77.39 44.1813 77.79 44.5973 78.2913 44.8959C78.8033 45.1946 79.3793 45.3439 80.0193 45.3439Z" fill="#88A1AC"/>
<path d="M90.8642 37.5839C91.6429 37.5839 92.3469 37.7653 92.9762 38.1279C93.6055 38.4906 94.0962 38.9919 94.4482 39.6319C94.8109 40.2719 94.9922 41.0026 94.9922 41.8239C94.9922 42.6453 94.8109 43.3813 94.4482 44.0319C94.0962 44.6719 93.6055 45.1733 92.9762 45.5359C92.3469 45.8879 91.6429 46.0639 90.8642 46.0639C90.1282 46.0639 89.4615 45.8933 88.8642 45.5519C88.2669 45.1999 87.8029 44.7146 87.4722 44.0959V49.1039H86.6722V37.6479H87.4402V39.6159C87.7709 38.9759 88.2348 38.4799 88.8322 38.1279C89.4402 37.7653 90.1175 37.5839 90.8642 37.5839ZM90.8162 45.3439C91.4562 45.3439 92.0322 45.1946 92.5442 44.8959C93.0562 44.5973 93.4562 44.1813 93.7442 43.6479C94.0429 43.1146 94.1922 42.5066 94.1922 41.8239C94.1922 41.1413 94.0429 40.5333 93.7442 39.9999C93.4562 39.4666 93.0562 39.0506 92.5442 38.7519C92.0322 38.4533 91.4562 38.3039 90.8162 38.3039C90.1762 38.3039 89.6002 38.4533 89.0882 38.7519C88.5869 39.0506 88.1869 39.4666 87.8882 39.9999C87.6002 40.5333 87.4562 41.1413 87.4562 41.8239C87.4562 42.5066 87.6002 43.1146 87.8882 43.6479C88.1869 44.1813 88.5869 44.5973 89.0882 44.8959C89.6002 45.1946 90.1762 45.3439 90.8162 45.3439Z" fill="#88A1AC"/>
<path d="M100.733 46.0639C99.9437 46.0639 99.2291 45.8826 98.5891 45.5199C97.9597 45.1573 97.4637 44.6559 97.1011 44.0159C96.7384 43.3653 96.5571 42.6346 96.5571 41.8239C96.5571 41.0133 96.7384 40.2879 97.1011 39.6479C97.4637 38.9973 97.9597 38.4906 98.5891 38.1279C99.2291 37.7653 99.9437 37.5839 100.733 37.5839C101.522 37.5839 102.232 37.7653 102.861 38.1279C103.501 38.4906 104.002 38.9973 104.365 39.6479C104.728 40.2879 104.909 41.0133 104.909 41.8239C104.909 42.6346 104.728 43.3653 104.365 44.0159C104.002 44.6559 103.501 45.1573 102.861 45.5199C102.232 45.8826 101.522 46.0639 100.733 46.0639ZM100.733 45.3439C101.373 45.3439 101.944 45.1946 102.445 44.8959C102.957 44.5973 103.357 44.1813 103.645 43.6479C103.944 43.1146 104.093 42.5066 104.093 41.8239C104.093 41.1413 103.944 40.5333 103.645 39.9999C103.357 39.4666 102.957 39.0506 102.445 38.7519C101.944 38.4533 101.373 38.3039 100.733 38.3039C100.093 38.3039 99.5171 38.4533 99.0051 38.7519C98.5037 39.0506 98.1037 39.4666 97.8051 39.9999C97.5171 40.5333 97.3731 41.1413 97.3731 41.8239C97.3731 42.5066 97.5171 43.1146 97.8051 43.6479C98.1037 44.1813 98.5037 44.5973 99.0051 44.8959C99.5171 45.1946 100.093 45.3439 100.733 45.3439Z" fill="#88A1AC"/>
<path d="M108.159 39.4719C108.415 38.8639 108.815 38.3999 109.359 38.0799C109.903 37.7493 110.564 37.5839 111.343 37.5839V38.3679L111.151 38.3519C110.223 38.3519 109.498 38.6453 108.975 39.2319C108.452 39.8079 108.191 40.6133 108.191 41.6479V45.9999H107.391V37.6479H108.159V39.4719Z" fill="#88A1AC"/>
<path d="M118.066 45.4719C117.864 45.6639 117.608 45.8133 117.298 45.9199C117 46.0159 116.685 46.0639 116.354 46.0639C115.629 46.0639 115.069 45.8666 114.674 45.4719C114.28 45.0666 114.082 44.5066 114.082 43.7919V38.3359H112.546V37.6479H114.082V35.8239H114.882V37.6479H117.538V38.3359H114.882V43.7119C114.882 44.2559 115.01 44.6719 115.266 44.9599C115.533 45.2373 115.922 45.3759 116.434 45.3759C116.957 45.3759 117.389 45.2213 117.73 44.9119L118.066 45.4719Z" fill="#88A1AC"/>
<path d="M126.889 34.7199C128.308 34.7199 129.577 35.0186 130.697 35.6159C131.817 36.2026 132.687 37.0346 133.305 38.1119C133.935 39.1786 134.249 40.4053 134.249 41.7919C134.249 43.1359 134.025 44.1866 133.577 44.9439C133.14 45.6906 132.543 46.0639 131.785 46.0639C131.273 46.0639 130.863 45.9146 130.553 45.6159C130.255 45.3066 130.105 44.8853 130.105 44.3519V44.0159C129.785 44.6559 129.327 45.1573 128.729 45.5199C128.132 45.8826 127.455 46.0639 126.697 46.0639C125.951 46.0639 125.273 45.8879 124.665 45.5359C124.057 45.1733 123.577 44.6773 123.225 44.0479C122.884 43.4186 122.713 42.7039 122.713 41.9039C122.713 41.1146 122.884 40.4053 123.225 39.7759C123.577 39.1466 124.057 38.6559 124.665 38.3039C125.273 37.9413 125.951 37.7599 126.697 37.7599C127.455 37.7599 128.127 37.9359 128.713 38.2879C129.311 38.6399 129.769 39.1306 130.089 39.7599V37.8239H130.825V44.1439C130.825 44.5813 130.921 44.9013 131.113 45.1039C131.305 45.3066 131.561 45.4079 131.881 45.4079C132.415 45.4079 132.836 45.0933 133.145 44.4639C133.465 43.8239 133.625 42.9386 133.625 41.8079C133.625 40.5279 133.337 39.3973 132.761 38.4159C132.196 37.4346 131.401 36.6773 130.377 36.1439C129.364 35.5999 128.201 35.3279 126.889 35.3279C125.567 35.3279 124.393 35.6053 123.369 36.1599C122.356 36.7146 121.561 37.4933 120.985 38.4959C120.42 39.4986 120.137 40.6453 120.137 41.9359C120.137 43.2266 120.415 44.3733 120.969 45.3759C121.535 46.3786 122.324 47.1573 123.337 47.7119C124.361 48.2773 125.524 48.5599 126.825 48.5599C127.337 48.5599 127.865 48.5013 128.409 48.3839C128.953 48.2666 129.444 48.0906 129.881 47.8559L130.089 48.4479C129.641 48.6826 129.119 48.8639 128.521 48.9919C127.935 49.1199 127.369 49.1839 126.825 49.1839C125.396 49.1839 124.121 48.8746 123.001 48.2559C121.892 47.6479 121.028 46.7946 120.409 45.6959C119.791 44.5973 119.481 43.3439 119.481 41.9359C119.481 40.5279 119.796 39.2799 120.425 38.1919C121.055 37.0933 121.929 36.2399 123.049 35.6319C124.169 35.0239 125.449 34.7199 126.889 34.7199ZM126.777 45.3919C127.407 45.3919 127.972 45.2479 128.473 44.9599C128.985 44.6613 129.385 44.2506 129.673 43.7279C129.961 43.1946 130.105 42.5866 130.105 41.9039C130.105 41.2213 129.961 40.6186 129.673 40.0959C129.385 39.5626 128.985 39.1519 128.473 38.8639C127.972 38.5759 127.407 38.4319 126.777 38.4319C126.148 38.4319 125.583 38.5813 125.081 38.8799C124.58 39.1679 124.185 39.5786 123.897 40.1119C123.609 40.6346 123.465 41.2319 123.465 41.9039C123.465 42.5759 123.609 43.1786 123.897 43.7119C124.185 44.2453 124.58 44.6613 125.081 44.9599C125.583 45.2479 126.148 45.3919 126.777 45.3919Z" fill="#88A1AC"/>
<path d="M147.228 37.5839C148.263 37.5839 149.074 37.8879 149.66 38.4959C150.258 39.1039 150.556 39.9786 150.556 41.1199V45.9999H149.756V41.1839C149.756 40.2453 149.527 39.5306 149.068 39.0399C148.61 38.5493 147.97 38.3039 147.148 38.3039C146.21 38.3039 145.463 38.5973 144.908 39.1839C144.364 39.7706 144.092 40.5599 144.092 41.5519V45.9999H143.292V41.1839C143.292 40.2453 143.063 39.5306 142.604 39.0399C142.146 38.5493 141.506 38.3039 140.684 38.3039C139.746 38.3039 138.999 38.5973 138.444 39.1839C137.9 39.7706 137.628 40.5599 137.628 41.5519V45.9999H136.828V37.6479H137.596V39.4399C137.874 38.8533 138.284 38.3999 138.828 38.0799C139.383 37.7493 140.039 37.5839 140.796 37.5839C141.554 37.5839 142.194 37.7546 142.716 38.0959C143.25 38.4373 143.628 38.9386 143.852 39.5999C144.13 38.9813 144.562 38.4906 145.148 38.1279C145.746 37.7653 146.439 37.5839 147.228 37.5839Z" fill="#88A1AC"/>
<path d="M160.931 42.0159H153.747C153.769 42.6666 153.934 43.2479 154.243 43.7599C154.553 44.2613 154.969 44.6506 155.491 44.9279C156.025 45.2053 156.622 45.3439 157.283 45.3439C157.827 45.3439 158.329 45.2479 158.787 45.0559C159.257 44.8533 159.646 44.5599 159.955 44.1759L160.419 44.7039C160.057 45.1413 159.598 45.4773 159.043 45.7119C158.499 45.9466 157.907 46.0639 157.267 46.0639C156.435 46.0639 155.694 45.8826 155.043 45.5199C154.393 45.1573 153.881 44.6559 153.507 44.0159C153.145 43.3759 152.963 42.6453 152.963 41.8239C152.963 41.0133 153.134 40.2879 153.475 39.6479C153.827 38.9973 154.307 38.4906 154.915 38.1279C155.523 37.7653 156.206 37.5839 156.963 37.5839C157.721 37.5839 158.398 37.7653 158.995 38.1279C159.603 38.4799 160.078 38.9759 160.419 39.6159C160.771 40.2559 160.947 40.9813 160.947 41.7919L160.931 42.0159ZM156.963 38.2879C156.377 38.2879 155.849 38.4213 155.379 38.6879C154.91 38.9439 154.531 39.3119 154.243 39.7919C153.966 40.2613 153.806 40.7946 153.763 41.3919H160.163C160.131 40.7946 159.971 40.2613 159.683 39.7919C159.395 39.3226 159.017 38.9546 158.547 38.6879C158.078 38.4213 157.55 38.2879 156.963 38.2879Z" fill="#88A1AC"/>
<path d="M170.846 34.1279V45.9999H170.062V44.0319C169.732 44.6826 169.268 45.1839 168.67 45.5359C168.073 45.8879 167.396 46.0639 166.638 46.0639C165.86 46.0639 165.156 45.8826 164.526 45.5199C163.897 45.1573 163.401 44.6559 163.038 44.0159C162.686 43.3759 162.51 42.6453 162.51 41.8239C162.51 41.0026 162.686 40.2719 163.038 39.6319C163.401 38.9813 163.897 38.4799 164.526 38.1279C165.156 37.7653 165.86 37.5839 166.638 37.5839C167.385 37.5839 168.052 37.7599 168.638 38.1119C169.236 38.4639 169.705 38.9546 170.046 39.5839V34.1279H170.846ZM166.686 45.3439C167.326 45.3439 167.897 45.1946 168.398 44.8959C168.91 44.5973 169.31 44.1813 169.598 43.6479C169.897 43.1146 170.046 42.5066 170.046 41.8239C170.046 41.1413 169.897 40.5333 169.598 39.9999C169.31 39.4666 168.91 39.0506 168.398 38.7519C167.897 38.4533 167.326 38.3039 166.686 38.3039C166.046 38.3039 165.47 38.4533 164.958 38.7519C164.457 39.0506 164.057 39.4666 163.758 39.9999C163.47 40.5333 163.326 41.1413 163.326 41.8239C163.326 42.5066 163.47 43.1146 163.758 43.6479C164.057 44.1813 164.457 44.5973 164.958 44.8959C165.47 45.1946 166.046 45.3439 166.686 45.3439Z" fill="#88A1AC"/>
<path d="M174.219 37.6479H175.019V45.9999H174.219V37.6479ZM174.619 35.6159C174.438 35.6159 174.283 35.5573 174.155 35.4399C174.027 35.3119 173.963 35.1573 173.963 34.9759C173.963 34.7946 174.027 34.6399 174.155 34.5119C174.283 34.3839 174.438 34.3199 174.619 34.3199C174.8 34.3199 174.955 34.3839 175.083 34.5119C175.211 34.6293 175.275 34.7786 175.275 34.9599C175.275 35.1413 175.211 35.2959 175.083 35.4239C174.955 35.5519 174.8 35.6159 174.619 35.6159Z" fill="#88A1AC"/>
<path d="M182.471 37.5839C183.516 37.5839 184.343 37.8879 184.951 38.4959C185.559 39.1039 185.863 39.9786 185.863 41.1199V45.9999H185.063V41.1839C185.063 40.2453 184.823 39.5306 184.343 39.0399C183.874 38.5493 183.212 38.3039 182.359 38.3039C181.378 38.3039 180.604 38.5973 180.039 39.1839C179.474 39.7706 179.191 40.5599 179.191 41.5519V45.9999H178.391V37.6479H179.159V39.4559C179.447 38.8693 179.874 38.4106 180.439 38.0799C181.015 37.7493 181.692 37.5839 182.471 37.5839Z" fill="#88A1AC"/>
<path d="M189.157 37.6479H189.957V45.9999H189.157V37.6479ZM189.557 35.6159C189.375 35.6159 189.221 35.5573 189.093 35.4399C188.965 35.3119 188.901 35.1573 188.901 34.9759C188.901 34.7946 188.965 34.6399 189.093 34.5119C189.221 34.3839 189.375 34.3199 189.557 34.3199C189.738 34.3199 189.893 34.3839 190.021 34.5119C190.149 34.6293 190.213 34.7786 190.213 34.9599C190.213 35.1413 190.149 35.2959 190.021 35.4239C189.893 35.5519 189.738 35.6159 189.557 35.6159Z" fill="#88A1AC"/>
<path d="M197.408 37.5839C198.454 37.5839 199.28 37.8879 199.888 38.4959C200.496 39.1039 200.8 39.9786 200.8 41.1199V45.9999H200V41.1839C200 40.2453 199.76 39.5306 199.28 39.0399C198.811 38.5493 198.15 38.3039 197.296 38.3039C196.315 38.3039 195.542 38.5973 194.976 39.1839C194.411 39.7706 194.128 40.5599 194.128 41.5519V45.9999H193.328V37.6479H194.096V39.4559C194.384 38.8693 194.811 38.4106 195.376 38.0799C195.952 37.7493 196.63 37.5839 197.408 37.5839Z" fill="#88A1AC"/>
<path d="M203.998 46.0639C203.817 46.0639 203.657 45.9999 203.518 45.8719C203.39 45.7333 203.326 45.5679 203.326 45.3759C203.326 45.1839 203.39 45.0239 203.518 44.8959C203.657 44.7679 203.817 44.7039 203.998 44.7039C204.179 44.7039 204.334 44.7679 204.462 44.8959C204.601 45.0239 204.67 45.1839 204.67 45.3759C204.67 45.5679 204.601 45.7333 204.462 45.8719C204.334 45.9999 204.179 46.0639 203.998 46.0639Z" fill="#88A1AC"/>
<path d="M210.344 46.0639C209.533 46.0639 208.808 45.8826 208.168 45.5199C207.528 45.1573 207.026 44.6559 206.664 44.0159C206.301 43.3653 206.12 42.6346 206.12 41.8239C206.12 41.0026 206.301 40.2719 206.664 39.6319C207.026 38.9813 207.528 38.4799 208.168 38.1279C208.808 37.7653 209.533 37.5839 210.344 37.5839C211.016 37.5839 211.624 37.7173 212.168 37.9839C212.722 38.2399 213.17 38.6186 213.512 39.1199L212.92 39.5519C212.621 39.1359 212.248 38.8266 211.8 38.6239C211.362 38.4106 210.877 38.3039 210.344 38.3039C209.693 38.3039 209.106 38.4533 208.584 38.7519C208.072 39.0399 207.666 39.4506 207.368 39.9839C207.08 40.5173 206.936 41.1306 206.936 41.8239C206.936 42.5173 207.08 43.1306 207.368 43.6639C207.666 44.1973 208.072 44.6133 208.584 44.9119C209.106 45.1999 209.693 45.3439 210.344 45.3439C210.877 45.3439 211.362 45.2426 211.8 45.0399C212.248 44.8266 212.621 44.5119 212.92 44.0959L213.512 44.5279C213.17 45.0293 212.722 45.4133 212.168 45.6799C211.624 45.9359 211.016 46.0639 210.344 46.0639Z" fill="#88A1AC"/>
<path d="M219.03 46.0639C218.241 46.0639 217.526 45.8826 216.886 45.5199C216.257 45.1573 215.761 44.6559 215.398 44.0159C215.035 43.3653 214.854 42.6346 214.854 41.8239C214.854 41.0133 215.035 40.2879 215.398 39.6479C215.761 38.9973 216.257 38.4906 216.886 38.1279C217.526 37.7653 218.241 37.5839 219.03 37.5839C219.819 37.5839 220.529 37.7653 221.158 38.1279C221.798 38.4906 222.299 38.9973 222.662 39.6479C223.025 40.2879 223.206 41.0133 223.206 41.8239C223.206 42.6346 223.025 43.3653 222.662 44.0159C222.299 44.6559 221.798 45.1573 221.158 45.5199C220.529 45.8826 219.819 46.0639 219.03 46.0639ZM219.03 45.3439C219.67 45.3439 220.241 45.1946 220.742 44.8959C221.254 44.5973 221.654 44.1813 221.942 43.6479C222.241 43.1146 222.39 42.5066 222.39 41.8239C222.39 41.1413 222.241 40.5333 221.942 39.9999C221.654 39.4666 221.254 39.0506 220.742 38.7519C220.241 38.4533 219.67 38.3039 219.03 38.3039C218.39 38.3039 217.814 38.4533 217.302 38.7519C216.801 39.0506 216.401 39.4666 216.102 39.9999C215.814 40.5333 215.67 41.1413 215.67 41.8239C215.67 42.5066 215.814 43.1146 216.102 43.6479C216.401 44.1813 216.801 44.5973 217.302 44.8959C217.814 45.1946 218.39 45.3439 219.03 45.3439Z" fill="#88A1AC"/>
<path d="M236.088 37.5839C237.122 37.5839 237.933 37.8879 238.52 38.4959C239.117 39.1039 239.416 39.9786 239.416 41.1199V45.9999H238.616V41.1839C238.616 40.2453 238.386 39.5306 237.928 39.0399C237.469 38.5493 236.829 38.3039 236.008 38.3039C235.069 38.3039 234.322 38.5973 233.768 39.1839C233.224 39.7706 232.952 40.5599 232.952 41.5519V45.9999H232.152V41.1839C232.152 40.2453 231.922 39.5306 231.464 39.0399C231.005 38.5493 230.365 38.3039 229.544 38.3039C228.605 38.3039 227.858 38.5973 227.304 39.1839C226.76 39.7706 226.488 40.5599 226.488 41.5519V45.9999H225.688V37.6479H226.456V39.4399C226.733 38.8533 227.144 38.3999 227.688 38.0799C228.242 37.7493 228.898 37.5839 229.656 37.5839C230.413 37.5839 231.053 37.7546 231.576 38.0959C232.109 38.4373 232.488 38.9386 232.712 39.5999C232.989 38.9813 233.421 38.4906 234.008 38.1279C234.605 37.7653 235.298 37.5839 236.088 37.5839Z" fill="#88A1AC"/>
<path fill-rule="evenodd" clip-rule="evenodd" d="M32.3067 18.7325L27.3926 41.7129C27.1999 42.5319 26.8747 43.0498 26.417 43.2666C25.9594 43.4834 25.3933 43.3991 24.7188 43.0136L17.2755 37.5215L13.6622 40.9902C13.4213 41.2311 13.2286 41.3997 13.0841 41.4961C12.8432 41.6406 12.53 41.7129 12.1446 41.7129L12.7227 34.125L26.5254 21.6231C26.7181 21.4785 26.7784 21.3461 26.7061 21.2256C26.6338 21.1052 26.4893 21.057 26.2725 21.0811C26.0557 21.1052 25.8269 21.1895 25.586 21.334L8.53134 32.1016L1.16026 29.7891C0.341254 29.5482 -0.0441625 29.1869 0.0040148 28.7051C0.0521921 28.2233 0.55805 27.7897 1.52159 27.4043L30.211 16.3477C30.9336 16.1068 31.5118 16.1911 31.9453 16.6006C32.3789 17.0101 32.4994 17.7207 32.3067 18.7325Z" fill="#88A1AC"/>
</svg>
