<svg width="232" height="46" viewBox="0 0 232 46" fill="none" xmlns="http://www.w3.org/2000/svg">
<path d="M23 1H209C221.15 1 231 10.8497 231 23C231 35.1503 221.15 45 209 45H23C10.8497 45 1 35.1503 1 23C1 10.8497 10.8497 1 23 1Z" stroke="white" stroke-opacity="0.1" stroke-width="2"/>
<g clip-path="url(#clip0_1270_13646)">
<path fill-rule="evenodd" clip-rule="evenodd" d="M192.088 15.5717C192.031 15.7267 192 15.9108 192 16.121V29.8786C192 30.0894 192.031 30.2736 192.088 30.4286L199.328 22.9997L192.088 15.5717ZM192.59 30.9564C192.852 31.0466 193.183 30.9995 193.541 30.7912L202.074 25.8165L199.836 23.5211L192.59 30.9564ZM202.722 25.4391L205.365 23.8987C206.212 23.4041 206.212 22.5961 205.365 22.1022L202.721 20.561L200.344 22.9997L202.722 25.4391ZM202.073 20.1832L193.541 15.2091C193.183 15.0003 192.852 14.9534 192.59 15.0438L199.836 22.4783L202.073 20.1832Z" fill="white"/>
</g>
<path d="M29.7301 29C33.054 29 34.9769 26.9386 34.9769 23.5295C34.9769 20.1364 33.054 18.0909 29.842 18.0909H26.1985V29H29.7301ZM27.8445 27.5618V19.5291H29.7408C32.1271 19.5291 33.3576 20.9567 33.3576 23.5295C33.3576 26.1129 32.1271 27.5618 29.6396 27.5618H27.8445ZM40.3422 29.1651C42.6487 29.1651 44.1562 27.4766 44.1562 24.9464C44.1562 22.4002 42.6487 20.7116 40.3422 20.7116C38.0358 20.7116 36.5283 22.4002 36.5283 24.9464C36.5283 27.4766 38.0358 29.1651 40.3422 29.1651ZM40.3476 27.8281C38.8401 27.8281 38.137 26.5124 38.137 24.9411C38.137 23.375 38.8401 22.0433 40.3476 22.0433C41.8444 22.0433 42.5475 23.375 42.5475 24.9411C42.5475 26.5124 41.8444 27.8281 40.3476 27.8281ZM47.4587 29H49.078L50.74 23.0927H50.8625L52.5244 29H54.1491L56.5514 20.8182H54.9055L53.3128 26.8001H53.2329L51.6349 20.8182H49.9889L48.3802 26.8267H48.3003L46.697 20.8182H45.051L47.4587 29ZM59.6555 24.142C59.6555 22.837 60.4545 22.0913 61.5625 22.0913C62.6438 22.0913 63.299 22.7997 63.299 23.9876V29H64.8917V23.7958C64.8917 21.7717 63.7784 20.7116 62.1058 20.7116C60.8754 20.7116 60.071 21.2816 59.6928 22.1499H59.5916V20.8182H58.0629V29H59.6555V24.142ZM68.6204 18.0909H67.0277V29H68.6204V18.0909ZM74.2094 29.1651C76.5159 29.1651 78.0233 27.4766 78.0233 24.9464C78.0233 22.4002 76.5159 20.7116 74.2094 20.7116C71.903 20.7116 70.3955 22.4002 70.3955 24.9464C70.3955 27.4766 71.903 29.1651 74.2094 29.1651ZM74.2148 27.8281C72.7073 27.8281 72.0042 26.5124 72.0042 24.9411C72.0042 23.375 72.7073 22.0433 74.2148 22.0433C75.7116 22.0433 76.4147 23.375 76.4147 24.9411C76.4147 26.5124 75.7116 27.8281 74.2148 27.8281ZM82.1822 29.1811C83.5352 29.1811 84.2969 28.494 84.6005 27.8814H84.6644V29H86.2198V23.5668C86.2198 21.1857 84.3448 20.7116 83.0451 20.7116C81.5643 20.7116 80.2006 21.3082 79.668 22.7997L81.1648 23.1406C81.3991 22.56 81.9957 22.0007 83.0664 22.0007C84.0945 22.0007 84.6218 22.5387 84.6218 23.4656V23.5028C84.6218 24.0835 84.0252 24.0728 82.555 24.2433C81.005 24.4244 79.4176 24.8292 79.4176 26.6882C79.4176 28.2969 80.6268 29.1811 82.1822 29.1811ZM82.5284 27.9027C81.6282 27.9027 80.9783 27.4979 80.9783 26.7095C80.9783 25.8572 81.7347 25.5536 82.6562 25.4311C83.1729 25.3619 84.3981 25.2234 84.6271 24.9943V26.049C84.6271 27.0185 83.8548 27.9027 82.5284 27.9027ZM91.404 29.1598C92.8955 29.1598 93.4814 28.2489 93.7691 27.7269H93.9023V29H95.4577V18.0909H93.865V22.1445H93.7691C93.4814 21.6385 92.9381 20.7116 91.4147 20.7116C89.4385 20.7116 87.9843 22.2724 87.9843 24.9251C87.9843 27.5724 89.4172 29.1598 91.404 29.1598ZM91.7556 27.8015C90.3334 27.8015 89.593 26.5497 89.593 24.9091C89.593 23.2844 90.3174 22.0646 91.7556 22.0646C93.1459 22.0646 93.8916 23.1992 93.8916 24.9091C93.8916 26.6296 93.1299 27.8015 91.7556 27.8015ZM105.52 20.8182H103.842V18.858H102.249V20.8182H101.051V22.0966H102.249V26.9279C102.244 28.4141 103.378 29.1332 104.636 29.1065C105.142 29.1012 105.483 29.0053 105.669 28.9361L105.381 27.6204C105.275 27.6417 105.078 27.6896 104.822 27.6896C104.305 27.6896 103.842 27.5192 103.842 26.5977V22.0966H105.52V20.8182ZM109.05 24.142C109.05 22.837 109.876 22.0913 111.01 22.0913C112.108 22.0913 112.763 22.7891 112.763 23.9876V29H114.355V23.7958C114.355 21.7557 113.237 20.7116 111.554 20.7116C110.281 20.7116 109.513 21.2656 109.13 22.1499H109.029V18.0909H107.457V29H109.05V24.142ZM120.007 29.1651C121.792 29.1651 123.054 28.2862 123.416 26.9545L121.909 26.6829C121.621 27.4553 120.929 27.8494 120.023 27.8494C118.659 27.8494 117.743 26.9652 117.701 25.3885H123.517V24.8239C123.517 21.8675 121.749 20.7116 119.895 20.7116C117.615 20.7116 116.113 22.4482 116.113 24.9624C116.113 27.5032 117.594 29.1651 120.007 29.1651ZM117.706 24.1953C117.77 23.0341 118.612 22.0273 119.906 22.0273C121.142 22.0273 121.951 22.9435 121.957 24.1953H117.706ZM130.304 29L131.305 26.1129H135.566L136.562 29H138.31L134.384 18.0909H132.482L128.556 29H130.304ZM131.784 24.728L133.393 20.0724H133.478L135.087 24.728H131.784ZM139.757 32.0682H141.35V27.7269H141.446C141.733 28.2489 142.319 29.1598 143.811 29.1598C145.792 29.1598 147.231 27.5724 147.231 24.9251C147.231 22.2724 145.771 20.7116 143.795 20.7116C142.277 20.7116 141.728 21.6385 141.446 22.1445H141.313V20.8182H139.757V32.0682ZM141.318 24.9091C141.318 23.1992 142.064 22.0646 143.454 22.0646C144.897 22.0646 145.622 23.2844 145.622 24.9091C145.622 26.5497 144.876 27.8015 143.454 27.8015C142.085 27.8015 141.318 26.6296 141.318 24.9091ZM149.015 32.0682H150.608V27.7269H150.704C150.991 28.2489 151.577 29.1598 153.069 29.1598C155.05 29.1598 156.488 27.5724 156.488 24.9251C156.488 22.2724 155.029 20.7116 153.053 20.7116C151.535 20.7116 150.986 21.6385 150.704 22.1445H150.57V20.8182H149.015V32.0682ZM150.576 24.9091C150.576 23.1992 151.321 22.0646 152.712 22.0646C154.155 22.0646 154.88 23.2844 154.88 24.9091C154.88 26.5497 154.134 27.8015 152.712 27.8015C151.343 27.8015 150.576 26.6296 150.576 24.9091Z" fill="white"/>
<g clip-path="url(#clip1_1270_13646)">
<path d="M178.659 30.3557C177.759 31.1979 176.765 31.0666 175.819 30.6695C174.812 30.2644 173.891 30.2388 172.828 30.6695C171.504 31.2203 170.802 31.0602 170.004 30.3557C165.502 25.8883 166.167 19.0831 171.283 18.8269C172.524 18.891 173.393 19.4882 174.124 19.5378C175.211 19.3249 176.25 18.7148 177.413 18.7949C178.811 18.9038 179.855 19.4354 180.553 20.3913C177.679 22.0566 178.36 25.7073 181 26.7321C180.472 28.0691 179.794 29.3902 178.658 30.3669L178.659 30.3557ZM174.024 18.7789C173.89 16.7934 175.559 15.1601 177.48 15C177.744 17.2897 175.32 19.003 174.024 18.7789Z" fill="white"/>
</g>
<defs>
<clipPath id="clip0_1270_13646">
<rect width="14" height="16" fill="white" transform="translate(192 15)"/>
</clipPath>
<clipPath id="clip1_1270_13646">
<rect width="14" height="16" fill="white" transform="translate(167 15)"/>
</clipPath>
</defs>
</svg>
