<svg width="255" height="200" viewBox="0 0 255 200" fill="none" xmlns="http://www.w3.org/2000/svg">
<path d="M132.518 126.327C132.53 126.354 132.539 126.383 132.544 126.412L132.562 126.525L132.597 126.75L132.663 127.2L132.78 128.103C132.852 128.706 132.915 129.31 132.974 129.914C133.089 131.123 133.194 132.333 133.264 133.545C133.413 135.968 133.511 138.394 133.558 140.823C133.605 143.25 133.596 145.678 133.578 148.105C133.562 149.319 133.543 150.533 133.507 151.746L133.374 155.384L133.137 155.083L148.695 158.217L156.481 159.747L160.378 160.483L162.329 160.83L163.305 160.99L163.792 161.059L164.032 161.087L164.148 161.095L164.199 161.097C164.211 161.098 164.23 161.091 164.199 161.102L164.164 161.121C165.134 160.484 166.122 159.89 167.12 159.308C168.121 158.732 169.141 158.188 170.185 157.693C171.222 157.177 172.294 156.736 173.394 156.372C173.948 156.194 174.513 156.051 175.086 155.945C175.666 155.83 176.259 155.797 176.848 155.847L176.668 156.016C176.488 153.307 176.293 150.599 176.082 147.892L175.444 139.774C175.22 137.07 174.993 134.365 174.719 131.668C174.581 130.319 174.435 128.972 174.26 127.631C174.173 126.961 174.078 126.292 173.964 125.631C173.907 125.302 173.845 124.973 173.772 124.654C173.735 124.495 173.696 124.337 173.65 124.192C173.629 124.125 173.604 124.059 173.577 123.995C173.564 123.968 173.553 123.946 173.545 123.933C173.547 123.928 173.524 123.932 173.621 123.983L173.756 124.012C170.062 123.923 166.358 123.905 162.664 123.994C160.817 124.046 158.97 124.106 157.133 124.245C156.215 124.315 155.298 124.405 154.395 124.542C153.944 124.612 153.495 124.693 153.062 124.803C152.652 124.885 152.262 125.047 151.915 125.279L151.903 125.288C151.857 125.327 151.8 125.349 151.74 125.353C148.57 125.541 145.391 125.69 142.192 125.852L132.518 126.327ZM132.463 126.283L142.02 125.52C145.232 125.27 148.463 125.007 151.704 124.782L151.529 124.856C151.94 124.551 152.411 124.338 152.91 124.231C153.372 124.106 153.835 124.016 154.298 123.937C155.224 123.783 156.151 123.68 157.078 123.595C158.933 123.429 160.789 123.333 162.645 123.284C166.357 123.184 170.064 123.19 173.776 123.268L173.794 123.268C173.835 123.269 173.875 123.279 173.911 123.297C174.017 123.346 174.106 123.425 174.167 123.524C174.2 123.576 174.23 123.63 174.255 123.686C174.295 123.777 174.33 123.87 174.36 123.965C174.417 124.143 174.46 124.315 174.5 124.487C174.578 124.83 174.638 125.169 174.694 125.509C174.805 126.187 174.895 126.863 174.978 127.54C175.143 128.894 175.279 130.247 175.406 131.601C175.655 134.309 175.873 137.017 176.059 139.727C176.243 142.438 176.423 145.148 176.569 147.86L176.989 155.998C176.992 156.04 176.978 156.082 176.95 156.114C176.921 156.145 176.882 156.165 176.839 156.167C176.83 156.168 176.82 156.168 176.81 156.166C175.677 156.082 174.54 156.233 173.468 156.609C172.376 156.958 171.309 157.384 170.277 157.884C169.245 158.388 168.239 158.945 167.251 159.531C166.263 160.116 165.295 160.743 164.364 161.408L164.358 161.412C164.349 161.418 164.339 161.423 164.329 161.427C164.289 161.44 164.248 161.447 164.207 161.447L164.134 161.446L164.001 161.437L163.749 161.411L163.253 161.344L162.269 161.192L160.311 160.861L156.403 160.158L148.602 158.694C143.405 157.7 138.208 156.704 133.02 155.663C132.951 155.65 132.89 155.612 132.846 155.558C132.803 155.503 132.78 155.435 132.782 155.365L132.782 155.362L132.885 151.729L132.969 148.096C133.012 145.674 133.045 143.251 133.024 140.829C133.017 138.406 132.995 135.983 132.903 133.563C132.854 132.353 132.812 131.142 132.741 129.932C132.706 129.328 132.667 128.723 132.619 128.119L132.463 126.283Z" fill="#21728D"/>
<path d="M132.938 126.286C132.284 125.421 131.661 124.535 131.024 123.659C131.005 123.633 130.995 123.601 130.996 123.568C130.997 123.536 131.009 123.504 131.029 123.479L131.036 123.471C131.792 122.557 132.63 121.716 133.541 120.956C134.447 120.186 135.422 119.5 136.453 118.906C137.493 118.311 138.601 117.841 139.752 117.507C140.914 117.174 142.122 117.031 143.33 117.083L143.339 117.084C143.393 117.087 143.445 117.104 143.49 117.133C143.536 117.162 143.573 117.202 143.598 117.25C144.278 118.536 144.944 119.83 145.597 121.132C145.925 121.782 146.247 122.435 146.56 123.093C146.877 123.748 147.197 124.403 147.499 125.067C147.104 124.454 146.726 123.831 146.347 123.209C145.964 122.589 145.588 121.965 145.22 121.337C144.479 120.084 143.752 118.823 143.038 117.555L143.306 117.721C142.168 117.707 141.035 117.861 139.942 118.179C138.843 118.499 137.782 118.941 136.78 119.495C135.766 120.047 134.798 120.679 133.884 121.383C132.961 122.084 132.09 122.85 131.275 123.675L131.287 123.487C131.838 124.419 132.404 125.342 132.938 126.286Z" fill="#21728D"/>
<path d="M148.133 125.067C148.351 124.215 148.661 123.389 149.056 122.604C149.444 121.806 149.917 121.053 150.466 120.357L150.89 119.841C151.04 119.675 151.201 119.521 151.356 119.36C151.673 119.043 152.009 118.745 152.361 118.467C152.536 118.327 152.731 118.211 152.916 118.084C153.099 117.952 153.291 117.833 153.49 117.728C153.883 117.506 154.294 117.315 154.716 117.156L155.354 116.923C155.569 116.854 155.794 116.819 156.013 116.765L156.683 116.62C156.986 116.58 157.292 116.652 157.545 116.822C157.672 116.907 157.782 117.016 157.868 117.141C157.94 117.253 157.995 117.343 158.055 117.447C158.172 117.652 158.272 117.866 158.357 118.086C158.536 118.538 158.617 119.024 158.596 119.51C158.561 120.007 158.4 120.487 158.129 120.906C157.994 121.107 157.837 121.292 157.661 121.458C157.574 121.539 157.491 121.626 157.399 121.7L157.114 121.905C156.351 122.399 155.513 122.768 154.632 122.996L154.708 122.96C154.195 123.289 153.686 123.653 153.2 124.034C152.708 124.413 152.237 124.818 151.789 125.248C151.53 125.461 151.227 125.614 150.901 125.695C150.576 125.776 150.237 125.784 149.908 125.716C149.28 125.618 148.677 125.397 148.133 125.067ZM148.133 125.067C148.419 125.192 148.715 125.294 149.018 125.37C149.315 125.454 149.62 125.505 149.928 125.522C150.219 125.558 150.515 125.529 150.793 125.436C151.072 125.344 151.327 125.191 151.539 124.989C151.967 124.523 152.419 124.08 152.895 123.663C153.377 123.248 153.87 122.858 154.396 122.486C154.412 122.475 154.43 122.466 154.448 122.459L154.472 122.451C155.275 122.208 156.038 121.846 156.733 121.376L156.976 121.193C157.053 121.128 157.117 121.053 157.188 120.984C157.328 120.848 157.452 120.697 157.56 120.536C157.763 120.216 157.882 119.851 157.906 119.474C157.919 119.084 157.848 118.696 157.7 118.336C157.627 118.148 157.542 117.966 157.446 117.789C157.399 117.704 157.339 117.607 157.294 117.535C157.257 117.48 157.21 117.432 157.156 117.395C157.043 117.318 156.906 117.285 156.771 117.302L156.16 117.43C155.955 117.478 155.745 117.507 155.545 117.57L154.947 117.773C154.548 117.91 154.161 118.078 153.788 118.275C153.598 118.368 153.416 118.474 153.241 118.593C153.064 118.709 152.878 118.811 152.705 118.935C152.013 119.433 151.378 120.008 150.813 120.648C149.667 121.952 148.76 123.448 148.133 125.067Z" fill="#21728D"/>
<path d="M127.901 166.84C130.348 166.84 132.331 164.856 132.331 162.409C132.331 159.963 130.348 157.979 127.901 157.979C125.454 157.979 123.471 159.963 123.471 162.409C123.471 164.856 125.454 166.84 127.901 166.84Z" fill="#21728D"/>
<path d="M101.043 155.78C101.121 156.405 101.199 157.033 101.256 157.664C101.298 158.294 101.328 158.927 101.321 159.56C101.315 160.825 101.237 162.094 101.156 163.341C101.088 164.573 101.044 165.862 101.703 166.815C102.028 167.294 102.465 167.687 102.976 167.959C103.5 168.221 104.072 168.37 104.656 168.398C104.952 168.414 105.249 168.403 105.543 168.364C105.828 168.325 106.156 168.25 106.471 168.208C107.104 168.114 107.744 168.068 108.384 168.068C109.661 168.07 110.93 168.254 112.154 168.614C112.763 168.798 113.356 169.028 113.93 169.301C114.224 169.424 114.494 169.595 114.776 169.74C115.045 169.894 115.323 170.031 115.609 170.149C116.768 170.599 118.005 170.812 119.248 170.776C120.477 170.773 121.695 170.54 122.838 170.087C123.108 169.975 123.363 169.831 123.599 169.658C123.813 169.513 123.98 169.309 124.081 169.072C124.101 169.022 124.114 168.968 124.117 168.914C124.124 168.894 124.125 168.872 124.12 168.851C124.121 168.832 124.118 168.814 124.111 168.797C124.076 168.694 124.019 168.6 123.943 168.522C123.746 168.311 123.526 168.123 123.287 167.962C122.79 167.612 122.252 167.291 121.714 166.971C121.171 166.653 120.637 166.34 120.084 166.053C118.986 165.469 117.854 164.96 116.696 164.467C115.494 163.998 114.36 163.373 113.321 162.608C112.311 161.79 111.456 160.797 110.799 159.675C109.572 157.461 108.376 155.257 107.209 153.02C107.205 153.012 107.204 153.002 107.207 152.994C107.209 152.985 107.215 152.978 107.223 152.973C107.231 152.968 107.24 152.967 107.249 152.969C107.257 152.971 107.265 152.977 107.27 152.984C108.634 155.1 109.959 157.254 111.269 159.388C111.923 160.423 112.758 161.332 113.735 162.07C114.747 162.77 115.841 163.343 116.992 163.778C118.167 164.259 119.316 164.803 120.433 165.408C120.992 165.711 121.538 166.046 122.074 166.374C122.612 166.707 123.151 167.041 123.676 167.426C123.955 167.623 124.21 167.851 124.436 168.107C124.574 168.262 124.674 168.446 124.727 168.646C124.758 168.76 124.762 168.879 124.741 168.995C124.728 169.098 124.701 169.198 124.661 169.293C124.51 169.637 124.262 169.929 123.947 170.133C123.669 170.325 123.369 170.483 123.053 170.603C121.833 171.04 120.538 171.23 119.244 171.161C117.962 171.131 116.697 170.865 115.512 170.377C115.219 170.25 114.934 170.104 114.659 169.94C114.384 169.794 114.122 169.622 113.836 169.497C113.275 169.225 112.691 169.003 112.091 168.833C111.49 168.672 110.876 168.559 110.257 168.494C109.638 168.439 109.016 168.428 108.395 168.46C107.777 168.493 107.162 168.571 106.555 168.693C106.248 168.751 105.966 168.833 105.63 168.899C105.302 168.962 104.969 168.991 104.636 168.984C103.957 168.976 103.29 168.814 102.682 168.512C102.072 168.199 101.556 167.73 101.185 167.152C100.827 166.574 100.618 165.914 100.58 165.234C100.542 164.591 100.555 163.945 100.618 163.304C100.724 162.04 100.892 160.802 100.952 159.55C100.983 158.924 101.009 158.299 101.017 157.671L100.973 155.788L100.973 155.785C100.973 155.776 100.976 155.768 100.982 155.761C100.988 155.754 100.997 155.75 101.006 155.749C101.015 155.749 101.023 155.752 101.03 155.757C101.037 155.763 101.042 155.771 101.043 155.78V155.78Z" fill="#21728D"/>
<path d="M124.44 169.094C124.44 169.094 123.563 171.428 117.236 170.769C116.975 168.412 120.269 165.406 120.269 165.406C119.988 164.808 118.844 164.305 117.753 163.949C117.842 164.016 117.908 164.108 117.942 164.214C117.977 164.319 117.978 164.433 117.945 164.539C117.912 164.645 117.847 164.738 117.759 164.806C117.672 164.874 117.565 164.912 117.454 164.917C117.317 164.913 117.187 164.855 117.092 164.757C116.997 164.658 116.943 164.526 116.943 164.389C116.943 164.252 116.997 164.12 117.092 164.022C117.187 163.923 117.317 163.866 117.454 163.861H117.465C116.455 163.552 115.564 163.376 115.564 163.376C113.052 163.214 111.169 168.493 111.169 168.493C111.169 168.493 111.088 168.531 110.662 168.405C107.699 167.514 103.145 169.992 101.572 167.173C101.572 167.173 100.766 168.285 102.431 169.622L101.554 171.526H107.294L109.3 170.674V169.094C109.3 169.094 114.723 170.988 117.51 171.832C120.825 172.835 125.689 171.526 124.44 169.094ZM114.287 169.605C114.15 169.6 114.02 169.543 113.925 169.444C113.829 169.346 113.776 169.214 113.776 169.077C113.776 168.94 113.829 168.808 113.925 168.71C114.02 168.611 114.15 168.553 114.287 168.549C114.424 168.553 114.554 168.611 114.649 168.71C114.744 168.808 114.797 168.94 114.797 169.077C114.797 169.214 114.744 169.346 114.649 169.444C114.554 169.543 114.424 169.6 114.287 169.605ZM115.68 167.071C115.543 167.066 115.413 167.009 115.318 166.91C115.223 166.812 115.17 166.68 115.17 166.543C115.17 166.406 115.223 166.274 115.318 166.176C115.413 166.077 115.543 166.02 115.68 166.015C115.817 166.02 115.947 166.077 116.042 166.176C116.138 166.274 116.191 166.406 116.191 166.543C116.191 166.68 116.138 166.812 116.042 166.91C115.947 167.009 115.817 167.066 115.68 167.071V167.071Z" fill="#21728D"/>
<path d="M76.4805 161.905C75.9976 160.905 75.7256 159.816 75.6816 158.706V158.685C75.6922 158.435 75.7204 158.185 75.7415 157.935C75.7626 157.682 75.7872 157.432 75.8154 157.182C75.8168 157.173 75.8216 157.165 75.8287 157.159C75.8359 157.153 75.8449 157.15 75.8541 157.15C75.8717 157.154 75.8858 157.165 75.8858 157.182C75.9174 157.432 75.9421 157.682 75.9667 157.932C75.9913 158.178 76.0195 158.421 76.0336 158.664C76.1366 159.706 76.4464 160.717 76.945 161.637C77.4305 162.372 78.0346 163.022 78.7328 163.559C78.8559 163.661 78.9826 163.763 79.1093 163.865C79.5985 164.249 80.0947 164.632 80.5909 165.012C80.461 165.046 80.3492 165.128 80.2784 165.242C80.2076 165.356 80.1835 165.493 80.2108 165.625C79.697 165.216 79.1903 164.801 78.6906 164.368C78.4442 164.157 78.1979 163.939 77.9586 163.71C77.375 163.189 76.8763 162.58 76.4805 161.905Z" fill="#21728D"/>
<path d="M86.5098 171.35C86.4695 171.539 86.3878 171.717 86.2705 171.871C86.1817 171.994 86.0763 172.104 85.9573 172.198C85.4687 172.541 84.9005 172.753 84.3068 172.814C83.2058 172.947 82.0904 172.897 81.0058 172.666C79.9329 172.452 78.8905 172.107 77.9019 171.639C77.7013 171.54 77.5007 171.434 77.3072 171.322C76.9881 171.146 76.6812 170.948 76.3886 170.731C75.9791 170.435 75.6038 170.095 75.2695 169.717C74.5629 168.918 73.7452 168.225 72.8413 167.658C72.3868 167.386 71.91 167.153 71.416 166.962C70.921 166.779 70.4112 166.639 69.8923 166.543C69.3724 166.45 68.8468 166.392 68.3192 166.37C67.751 166.341 67.1919 166.216 66.6651 166.001C66.1313 165.781 65.6459 165.458 65.2364 165.051C64.8656 164.694 64.5773 164.26 64.3918 163.78C64.3658 163.709 64.3435 163.636 64.3249 163.562C64.1664 162.993 64.1531 162.392 64.2862 161.817C64.4116 161.263 64.6192 160.732 64.9021 160.24C65.4531 159.288 66.1556 158.432 66.9819 157.706C67.755 156.989 68.2151 155.997 68.2629 154.944C68.2626 154.939 68.2633 154.934 68.265 154.93C68.2666 154.925 68.2692 154.921 68.2725 154.918C68.2759 154.915 68.2799 154.912 68.2843 154.911C68.2887 154.909 68.2934 154.908 68.2981 154.908C68.3022 154.908 68.3064 154.908 68.3105 154.909C68.3145 154.911 68.3183 154.912 68.3216 154.915C68.3249 154.918 68.3276 154.921 68.3296 154.925C68.3316 154.928 68.3328 154.932 68.3333 154.937C68.4158 155.487 68.3514 156.049 68.1467 156.566C67.9492 157.089 67.6582 157.572 67.288 157.991C66.5406 158.735 65.9052 159.584 65.4018 160.511C64.9372 161.419 64.6311 162.457 64.9267 163.383C65.0701 163.849 65.3291 164.271 65.6798 164.611C66.0309 164.968 66.4449 165.258 66.9009 165.466C67.3613 165.68 67.8533 165.818 68.3578 165.874C68.903 165.928 69.4438 166.018 69.9767 166.145C70.5089 166.278 71.0292 166.454 71.5321 166.673C71.6518 166.726 71.7679 166.782 71.884 166.842C71.8903 166.843 71.8962 166.846 71.9016 166.849C72.2711 167.035 72.6266 167.236 72.9715 167.454C73.8739 168.057 74.7029 168.764 75.4419 169.559C76.166 170.335 77.0529 170.94 78.0391 171.332C79.0157 171.743 80.0412 172.025 81.0902 172.173C81.4104 172.219 81.7307 172.258 82.0509 172.279C82.7706 172.342 83.4953 172.315 84.2082 172.198C84.6876 172.137 85.1452 171.96 85.5419 171.684C85.7003 171.562 85.8096 171.386 85.8502 171.19C85.8909 170.994 85.8602 170.79 85.7637 170.614C85.5546 170.171 85.2646 169.77 84.9085 169.432C84.5346 169.067 84.1398 168.724 83.7261 168.404L82.526 167.454L81.2028 166.409C81.0515 166.289 80.9037 166.173 80.7524 166.054C80.8204 166.05 80.887 166.032 80.948 166.002C81.0089 165.972 81.0631 165.929 81.1069 165.877C81.1508 165.825 81.1835 165.764 81.203 165.699C81.2226 165.634 81.2285 165.565 81.2204 165.498C81.8996 166.015 82.5788 166.536 83.251 167.064C83.5677 167.317 83.8809 167.567 84.1941 167.82C84.6322 168.158 85.045 168.527 85.4293 168.925C85.8458 169.338 86.1801 169.827 86.4147 170.365C86.5428 170.677 86.5759 171.019 86.5098 171.35Z" fill="#21728D"/>
<path d="M86.2712 171.871C86.2677 171.836 86.2641 171.801 86.2571 171.765C86.2571 171.765 85.3069 172.983 82.0517 172.279C80.9635 172.032 79.9017 171.681 78.8809 171.231C79.2011 169.58 81.3197 168.148 82.5268 167.454C82.854 167.268 83.111 167.134 83.2517 167.064C83.3256 167.025 83.3679 167.008 83.3679 167.008C83.1849 165.677 79.4757 163.675 79.4757 163.675C79.2387 163.586 78.986 163.546 78.7331 163.559C78.4688 163.569 78.2076 163.62 77.9589 163.71C75.9002 164.407 73.7605 167.257 73.7605 167.257C73.7605 167.257 73.3206 167.623 72.9511 167.374C72.6231 167.159 72.2712 166.983 71.9024 166.849C71.8969 166.846 71.891 166.844 71.8848 166.842C69.1821 165.836 65.216 166.269 64.6353 163.502C64.5407 163.582 64.4588 163.676 64.3925 163.78C64.1567 164.154 63.9315 164.917 64.7268 166.1L63.3262 167.659L68.809 169.358L70.9768 169.14L71.4484 167.63C71.4484 167.63 74.0421 169.232 76.3893 170.731C76.7025 170.931 77.0087 171.128 77.3079 171.322C77.8674 171.685 78.3917 172.029 78.8281 172.325C81.6575 174.243 86.5985 174.454 86.2712 171.871ZM78.6874 167.704C78.5504 167.7 78.4205 167.642 78.3252 167.544C78.2299 167.445 78.1767 167.313 78.1767 167.176C78.1767 167.039 78.2299 166.908 78.3252 166.809C78.4205 166.711 78.5504 166.653 78.6874 166.649C78.8243 166.653 78.9542 166.711 79.0495 166.809C79.1448 166.908 79.1981 167.039 79.1981 167.176C79.1981 167.313 79.1448 167.445 79.0495 167.544C78.9542 167.642 78.8243 167.7 78.6874 167.704ZM80.5947 165.012C80.6342 165.005 80.6743 165.001 80.7144 165.002C80.7806 165 80.8466 165.011 80.9083 165.035C80.9701 165.059 81.0263 165.095 81.0737 165.142C81.121 165.188 81.1585 165.243 81.1838 165.305C81.2092 165.366 81.2219 165.432 81.2212 165.498C81.2292 165.565 81.2233 165.634 81.2038 165.699C81.1843 165.765 81.1516 165.825 81.1077 165.877C81.0638 165.929 81.0097 165.972 80.9487 166.002C80.8877 166.033 80.8211 166.05 80.7531 166.054C80.7404 166.057 80.7274 166.058 80.7144 166.057C80.5914 166.062 80.4713 166.02 80.3781 165.939C80.2848 165.859 80.2252 165.747 80.2112 165.625C80.1838 165.493 80.208 165.356 80.2787 165.242C80.3495 165.128 80.4614 165.046 80.5912 165.012H80.5947ZM76.787 168.422C76.9237 168.427 77.0533 168.485 77.1483 168.583C77.2433 168.682 77.2964 168.813 77.2964 168.95C77.2964 169.087 77.2433 169.218 77.1483 169.317C77.0533 169.415 76.9237 169.473 76.787 169.478C76.6503 169.473 76.5208 169.415 76.4257 169.317C76.3307 169.218 76.2776 169.087 76.2776 168.95C76.2776 168.813 76.3307 168.682 76.4257 168.583C76.5207 168.485 76.6503 168.427 76.787 168.422H76.787Z" fill="#21728D"/>
<path d="M83.7342 40.6041L83.527 40.7247C83.4519 40.7526 83.3722 40.7727 83.2933 40.7959C83.2109 40.8017 83.1282 40.8024 83.0457 40.7979C82.9636 40.7855 82.883 40.7641 82.8056 40.7343C82.5061 40.5969 82.255 40.3725 82.0851 40.0903C81.7411 39.5324 81.6019 38.8721 81.6916 38.2228L81.7321 37.9799L81.8005 37.7423C81.8466 37.5726 81.9235 37.4127 82.0274 37.2708C82.147 37.1008 82.3286 36.9845 82.5331 36.9468C82.7277 36.9213 82.9256 36.9513 83.1039 37.0333C83.4072 37.1777 83.6834 37.3731 83.9206 37.6111C84.1546 37.8329 84.3697 38.0737 84.5638 38.3311L84.4155 38.2285C84.7512 38.2843 85.0959 38.2399 85.4066 38.1009C85.7506 37.9584 86.0777 37.7782 86.382 37.5635C87.009 37.1166 87.5952 36.6151 88.1338 36.0649C89.2296 34.9561 90.2614 33.786 91.2242 32.56L91.2367 32.5444C91.2584 32.5171 91.2852 32.4944 91.3156 32.4776C91.3461 32.4607 91.3795 32.45 91.4141 32.446C91.4487 32.4421 91.4837 32.445 91.5171 32.4546C91.5506 32.4642 91.5818 32.4803 91.609 32.502C91.6415 32.528 91.6675 32.5612 91.685 32.599C91.852 32.9637 91.9935 33.3233 92.1276 33.693C92.2606 34.0613 92.3804 34.4348 92.4782 34.8158C92.5815 35.1973 92.6558 35.5861 92.7004 35.9788C92.7517 36.3795 92.7414 36.7856 92.6699 37.1831L92.6581 37.0891C92.8118 37.4132 93.0065 37.7162 93.2375 37.9907C93.464 38.269 93.7333 38.5094 94.0354 38.703L94.0411 38.7065C94.0532 38.7142 94.0636 38.7241 94.0717 38.7359C94.0797 38.7477 94.0853 38.761 94.088 38.775C94.1183 38.9295 94.1195 39.0884 94.0916 39.2434C94.0645 39.404 93.9925 39.5536 93.8841 39.6751C93.7734 39.793 93.6328 39.8787 93.4772 39.9229C93.403 39.9436 93.3276 39.9596 93.2515 39.9711L93.0264 39.9839L93.132 39.8708C93.1549 40.3427 93.1346 40.8157 93.0715 41.2839C93.0128 41.7539 92.9042 42.2164 92.7475 42.6634C92.5838 43.1148 92.3564 43.5405 92.0721 43.9274C91.7642 44.3087 91.382 44.6236 90.9487 44.8528C90.9358 44.8597 90.9217 44.8644 90.9071 44.8664L90.8862 44.8693C90.4656 44.9084 90.0584 45.0383 89.6927 45.25C89.3271 45.4617 89.0118 45.7502 88.7684 46.0956C88.6663 46.2701 88.5902 46.4587 88.5426 46.6552C88.498 46.8606 88.473 47.0697 88.4677 47.2798L88.4078 48.6371L88.3477 48.4417C89.0448 49.3233 89.7038 50.2244 90.3269 51.1615C90.6354 51.6323 90.9402 52.1059 91.2161 52.6065C91.3517 52.8594 91.4883 53.1105 91.6032 53.385C91.7389 53.6757 91.8283 53.9859 91.8681 54.3042C91.8751 54.3632 91.8669 54.423 91.8441 54.4778C91.8213 54.5326 91.7848 54.5807 91.7381 54.6174C91.6913 54.654 91.636 54.678 91.5773 54.6871C91.5186 54.6962 91.4586 54.69 91.403 54.6692L91.3889 54.6637C90.33 54.2388 89.2949 53.757 88.288 53.2204C87.2832 52.7076 86.3021 52.1543 85.3198 51.6052C84.3382 51.0547 83.3741 50.4747 82.4088 49.8984C81.4456 49.3182 80.4842 48.7361 79.5311 48.1402L79.5274 48.1379C79.4992 48.1202 79.4747 48.0972 79.4553 48.0701C79.436 48.043 79.4222 48.0123 79.4147 47.9798C79.4072 47.9474 79.4062 47.9137 79.4117 47.8809C79.4172 47.848 79.4291 47.8166 79.4468 47.7883C79.4624 47.7636 79.4821 47.7416 79.505 47.7234C79.93 47.3815 80.3113 46.9884 80.6402 46.5532C80.9747 46.1153 81.2486 45.6344 81.4546 45.1234C81.6687 44.6126 81.7929 44.0688 81.8219 43.5158C81.8499 42.956 81.7933 42.3953 81.654 41.8524L81.6533 41.8491C81.6514 41.8402 81.653 41.831 81.6578 41.8234C81.6625 41.8157 81.67 41.8101 81.6787 41.8078C81.6874 41.8055 81.6967 41.8067 81.7046 41.811C81.7125 41.8154 81.7184 41.8226 81.7211 41.8312C81.9158 42.3735 82.0198 42.9442 82.0289 43.5203C82.0412 44.1034 81.9506 44.6841 81.7613 45.2357C81.5716 45.7887 81.3082 46.3135 80.9783 46.7961C80.648 47.2851 80.2575 47.7307 79.8162 48.1223L79.7901 47.7056L82.7208 49.359L85.6675 50.9785C86.6501 51.516 87.6429 52.0335 88.6329 52.5517C89.1294 52.8074 89.6272 53.0608 90.1288 53.3014C90.6255 53.5373 91.1435 53.7911 91.6232 53.9778L91.144 54.3372C91.1107 54.1032 91.0449 53.875 90.9485 53.6592C90.8533 53.418 90.7281 53.1769 90.6052 52.9374C90.3524 52.4581 90.063 51.9894 89.7699 51.5241C89.1735 50.5988 88.5387 49.6867 87.8866 48.7977L87.8796 48.7881C87.8402 48.7345 87.8213 48.6685 87.8264 48.6022L87.9296 47.2411C87.9432 46.9977 87.9824 46.7564 88.0465 46.5212C88.1175 46.2792 88.2238 46.0491 88.3619 45.8381C88.6441 45.4295 89.0299 45.1033 89.4797 44.8929C89.9137 44.687 90.3806 44.5592 90.859 44.5153L90.7966 44.5318C91.1945 44.3405 91.5499 44.0712 91.8416 43.7399C92.1255 43.3903 92.3508 42.9971 92.5088 42.5755C92.6661 42.1473 92.7773 41.7036 92.8406 41.2518C92.9086 40.7997 92.9354 40.3424 92.9207 39.8854C92.9196 39.8566 92.9299 39.8285 92.9495 39.8072C92.9691 39.786 92.9963 39.7735 93.0251 39.7723L93.0264 39.7722C93.1573 39.7722 93.2875 39.7537 93.4132 39.7174C93.5309 39.6834 93.6371 39.618 93.7204 39.5283C93.7954 39.4297 93.8474 39.3156 93.8724 39.1943C93.8974 39.0731 93.8949 38.9477 93.865 38.8275L93.9176 38.8994C93.5887 38.6999 93.2926 38.4509 93.0395 38.1612C92.7848 37.8735 92.5639 37.5575 92.3811 37.2195C92.3679 37.195 92.363 37.1669 92.3672 37.1394L92.3693 37.1253C92.4143 36.7598 92.4036 36.3897 92.3377 36.0274C92.2759 35.6565 92.186 35.2909 92.069 34.9336C91.9565 34.5731 91.8231 34.2178 91.6766 33.8681C91.5305 33.52 91.3711 33.1694 91.2005 32.8413L91.6612 32.8802C91.2015 33.5359 90.7079 34.1527 90.1984 34.7641C89.6847 35.3731 89.1407 35.9559 88.5684 36.5103C87.9931 37.075 87.3689 37.5874 86.703 38.0417C86.3584 38.2743 85.9889 38.4676 85.6014 38.6181C85.1835 38.7909 84.7233 38.8336 84.2808 38.7405C84.2227 38.7261 84.1716 38.6917 84.1364 38.6434L84.1323 38.6378C83.8199 38.1555 83.4068 37.7467 82.9213 37.4393C82.6803 37.3256 82.4934 37.3289 82.3422 37.5186C82.2596 37.6221 82.1971 37.7402 82.1579 37.8667L82.0884 38.0692L82.0432 38.2792C81.9333 38.855 82.0173 39.4509 82.2822 39.9737C82.4123 40.2327 82.6169 40.4468 82.8698 40.5883C82.9988 40.6547 83.1432 40.6858 83.2882 40.6783C83.4332 40.6709 83.5736 40.6251 83.6951 40.5457L83.6978 40.5439C83.7057 40.5391 83.7152 40.5375 83.7243 40.5397C83.7333 40.5418 83.7412 40.5474 83.7461 40.5553C83.751 40.5632 83.7526 40.5727 83.7505 40.5817C83.7485 40.5908 83.7429 40.5987 83.7351 40.6036L83.7342 40.6041Z" fill="#21728D"/>
<path d="M84.1582 41.4619C84.7363 42.0661 85.2281 42.6259 85.786 43.1091C86.0616 43.3508 86.3563 43.5699 86.6671 43.7643C87.0022 43.9672 87.349 44.1502 87.7055 44.3124C87.2888 44.4151 86.8518 44.4006 86.4428 44.2703C86.0297 44.1416 85.6486 43.9268 85.3244 43.6402C85.0055 43.3597 84.7374 43.0261 84.5321 42.6542C84.3232 42.2883 84.1957 41.8816 84.1582 41.4619Z" fill="#21728D"/>
<path d="M83.013 40.7219C82.763 41.2001 82.3957 41.6068 81.9454 41.9041C81.8216 41.984 81.6823 42.0367 81.5366 42.0587C81.391 42.0808 81.2423 42.0717 81.1004 42.0321C80.9569 41.9837 80.8239 41.9085 80.7084 41.8105C80.606 41.7107 80.5109 41.6037 80.4238 41.4903C79.7932 40.6119 79.3224 39.6292 79.033 38.5873C78.7262 37.5305 78.6547 36.4194 78.8235 35.332C79.0142 34.2336 79.4842 33.2027 80.1885 32.3385C80.8819 31.4728 81.7645 30.7778 82.7686 30.3067C83.7817 29.8621 84.8891 29.6752 85.992 29.7627C87.0737 29.8434 88.1292 30.135 89.099 30.6209C89.3388 30.7412 89.5719 30.8747 89.7972 31.0206L90.133 31.2402L90.4484 31.4894C90.8826 31.8046 91.2254 32.2293 91.442 32.7201C91.1648 32.2772 90.7861 31.9067 90.3373 31.6392L90.0104 31.4302L89.6651 31.2513C89.4354 31.1332 89.1992 31.0279 88.9579 30.9357C88.0059 30.5509 86.9928 30.3395 85.9664 30.3114C84.9592 30.2799 83.9586 30.486 83.0457 30.9129C82.1469 31.3538 81.3584 31.9908 80.7385 32.777C80.0984 33.5475 79.6644 34.4678 79.4772 35.4518C79.2996 36.4474 79.3289 37.4689 79.5634 38.4526C79.6076 38.7042 79.6965 38.9454 79.7607 39.1933C79.8484 39.4336 79.9221 39.6805 80.0233 39.9167C80.2102 40.3964 80.4393 40.8585 80.7077 41.2978C80.7712 41.3998 80.8414 41.4976 80.9177 41.5904C80.9959 41.6707 81.0881 41.7361 81.1898 41.7835C81.2982 41.8242 81.4142 41.8413 81.5298 41.8336C81.6454 41.826 81.7581 41.7939 81.8603 41.7394C82.3155 41.4903 82.7093 41.1427 83.013 40.7219Z" fill="#21728D"/>
<path d="M79.6548 47.958C79.1336 47.9479 78.6156 48.0423 78.1314 48.2358C77.8933 48.3308 77.6622 48.4428 77.4401 48.5709C77.2257 48.7089 77.0199 48.8598 76.8237 49.0227C76.4398 49.3584 76.1014 49.7429 75.8172 50.1663C75.6842 50.3855 75.5425 50.5981 75.4138 50.8187L75.0895 51.5191C74.982 51.7539 74.8903 51.9955 74.8151 52.2425C74.7363 52.489 74.6344 52.7269 74.5742 52.98L74.3924 53.7391C74.3215 53.99 74.2669 54.2452 74.2288 54.5031C74.1502 55.0201 74.0353 55.5314 73.975 56.0537L73.7963 57.6241L73.7961 57.6026C73.8187 58.7929 73.83 59.9829 73.8877 61.1707C73.9385 62.3588 74.0118 63.5458 74.1078 64.7317L74.3846 68.2918C74.4593 69.4807 74.5317 70.6674 74.5498 71.8678L74.5486 71.8964L74.5478 71.9037C74.4941 72.4258 74.4197 72.9319 74.3251 73.4442C74.2338 73.9638 74.102 74.4754 73.9309 74.9744L73.9204 74.9993L73.9089 75.0231C73.8819 75.0906 73.8666 75.1622 73.8635 75.2349C73.8614 75.3113 73.8755 75.3872 73.9047 75.4578C73.986 75.6223 74.1159 75.7578 74.2768 75.8459C74.6911 76.0717 75.1434 76.2193 75.6112 76.2813C76.6186 76.4225 77.6368 76.4712 78.6531 76.4269C79.6816 76.3892 80.7144 76.3141 81.7474 76.2202C82.7801 76.1218 83.8127 76.0009 84.8487 75.8872C84.858 75.8861 84.8673 75.8887 84.8747 75.8945C84.8821 75.9002 84.8868 75.9087 84.888 75.918C84.8889 75.9265 84.8868 75.9351 84.8819 75.9422C84.8769 75.9493 84.8696 75.9544 84.8613 75.9565C83.8483 76.2018 82.8303 76.4362 81.8 76.6089C80.7694 76.7987 79.7299 76.9362 78.6854 77.0207C77.6256 77.1269 76.5573 77.1183 75.4993 76.9952C74.9315 76.932 74.3814 76.7593 73.8795 76.4865C73.5849 76.3155 73.3512 76.0566 73.211 75.7462C73.1404 75.5739 73.1074 75.3885 73.1141 75.2024C73.1209 75.0163 73.1673 74.8337 73.2502 74.667L73.2283 74.7156C73.392 74.2542 73.5245 73.7823 73.6247 73.3031C73.728 72.8183 73.8147 72.3197 73.8782 71.8319L73.8763 71.8678C73.881 70.6901 73.8653 69.5001 73.8493 68.3129L73.8089 64.7462C73.7881 63.5571 73.7403 62.3692 73.6656 61.1826C73.5967 59.9958 73.477 58.8115 73.3631 57.6278L73.3626 57.6133L73.3629 57.6061L73.4255 55.9971C73.4346 55.7278 73.4611 55.4594 73.5048 55.1936L73.6142 54.3913C73.6519 54.1231 73.7065 53.8576 73.7774 53.5963L73.9756 52.807C74.0438 52.5445 74.1556 52.2923 74.2437 52.0349C74.3273 51.7747 74.4307 51.5213 74.5529 51.2769C74.9946 50.2593 75.687 49.3704 76.5655 48.6931C76.7921 48.5346 77.0282 48.3903 77.2727 48.261C77.5224 48.1442 77.7822 48.0501 78.0489 47.9799C78.5744 47.8284 79.1273 47.7972 79.6666 47.8887C79.6752 47.8903 79.6829 47.8952 79.6882 47.9022C79.6934 47.9093 79.6958 47.9181 79.6949 47.9268C79.694 47.9356 79.6898 47.9437 79.6832 47.9495C79.6766 47.9553 79.668 47.9584 79.6592 47.9582L79.6548 47.958Z" fill="#21728D"/>
<path d="M76.6136 59.7379C76.6169 60.5936 76.7327 61.4453 76.9578 62.2709C77.1648 63.1013 77.3985 63.9257 77.6835 64.7317C77.9554 65.5326 78.2887 66.3113 78.6804 67.0609C78.7633 67.2218 78.8698 67.3694 78.9963 67.4988C79.0101 67.514 79.0131 67.5108 79.0131 67.5108C79.0163 67.5123 79.0075 67.511 79.0199 67.5172L79.0698 67.5396C79.1372 67.5668 79.201 67.6021 79.26 67.6447C79.3753 67.7235 79.4757 67.8221 79.5564 67.9361C79.7017 68.142 79.807 68.3734 79.8667 68.6182C79.9283 68.8498 79.9643 69.0873 79.9741 69.3267L79.9736 69.3483L79.9713 69.3706C79.9097 69.9998 79.9304 70.6344 80.033 71.2582C80.112 71.8605 80.3509 72.4307 80.7248 72.9095C80.8179 73.0189 80.9242 73.1164 81.0413 73.1997L81.2159 73.3251L81.413 73.4147C81.6972 73.5407 81.9939 73.6363 82.2981 73.6999C82.5893 73.7678 82.8904 73.7814 83.1865 73.74C83.3168 73.7162 83.441 73.6667 83.5519 73.5942C83.6443 73.5283 83.7161 73.4374 83.7589 73.3322L84.0184 73.5777C83.8289 73.6181 83.636 73.6409 83.4422 73.6458C83.2476 73.6508 83.0529 73.6337 82.8621 73.5946C82.6713 73.5552 82.4861 73.4926 82.3104 73.4083C82.1299 73.3244 81.9634 73.2133 81.8165 73.079L81.8123 73.0752C81.8037 73.0671 81.7965 73.0576 81.7912 73.0471C81.5904 72.659 81.4969 72.2243 81.5204 71.788C81.5621 71.3667 81.6786 70.9562 81.8645 70.5757C81.9541 70.3875 82.0542 70.2045 82.1643 70.0274C82.2875 69.8605 82.3934 69.6801 82.5312 69.525C82.7876 69.1989 83.0742 68.8978 83.3873 68.6257C83.702 68.3505 84.0501 68.1158 84.4233 67.9273C84.518 67.8789 84.616 67.8376 84.7167 67.8035C84.8165 67.7616 84.9209 67.7316 85.0277 67.7143C85.2236 67.6833 85.4171 67.6388 85.6068 67.5812C85.9633 67.4421 86.2843 67.2252 86.5461 66.9461C86.808 66.6671 87.0042 66.3331 87.1204 65.9684C87.1278 65.9479 87.1381 65.9285 87.151 65.9108C87.3876 65.5938 87.631 65.2801 87.8989 64.9811C88.1693 64.6665 88.4826 64.3916 88.8297 64.1645C89.0315 64.0309 89.2654 63.9537 89.5072 63.9408C89.6469 63.9403 89.7846 63.9733 89.909 64.0369C90.0333 64.1005 90.1407 64.1929 90.222 64.3065C90.3579 64.4961 90.4552 64.7105 90.5086 64.9376C90.5626 65.148 90.5949 65.3635 90.6052 65.5805L90.154 65.3366C90.3158 65.2347 90.4556 65.1015 90.5652 64.9448C90.6749 64.7881 90.7521 64.6111 90.7923 64.4241C90.8681 64.0395 90.8144 63.6407 90.6398 63.2897C90.571 63.132 90.465 62.9933 90.3307 62.8857C90.3031 62.8605 90.294 62.8748 90.2791 62.8566C90.2804 62.8626 90.2853 62.8653 90.2891 62.8626C90.2844 62.8625 90.3076 62.8561 90.279 62.858L90.1956 62.8608C90.0848 62.8626 89.9751 62.8392 89.8747 62.7923C89.7913 62.7484 89.7149 62.6923 89.648 62.6259C89.4555 62.4161 89.3126 62.1657 89.23 61.8932C89.1474 61.655 89.085 61.4104 89.0432 61.1618L89.0486 61.1904C88.9504 60.843 88.8648 60.492 88.757 60.148C88.6377 59.808 88.5393 59.4604 88.4012 59.1278C88.1484 58.4542 87.8481 57.7995 87.5026 57.1685C87.1576 56.5392 86.7661 55.9365 86.3315 55.3655C85.9052 54.8016 85.4218 54.2832 84.889 53.8185L84.962 53.8599L83.2578 53.1235L83.3251 53.1426L82.7681 53.079C82.5837 53.0488 82.397 53.0344 82.2102 53.036C81.8383 53.0264 81.4665 53.054 81.1001 53.1185C80.7324 53.1748 80.371 53.2665 80.0209 53.3922C79.6745 53.5331 79.3422 53.7065 79.0286 53.91C78.396 54.3311 77.8411 54.8584 77.3882 55.4686C76.9258 56.0861 76.5527 56.7657 76.2799 57.4873L76.279 57.4896C76.2759 57.4981 76.2696 57.505 76.2615 57.509C76.2533 57.5129 76.244 57.5136 76.2354 57.5108C76.2268 57.5081 76.2196 57.5022 76.2153 57.4942C76.2109 57.4863 76.2098 57.4771 76.2121 57.4683C76.4212 56.7073 76.7456 55.9827 77.1741 55.3198C77.6024 54.643 78.1531 54.052 78.7979 53.577C79.1248 53.3381 79.4739 53.1311 79.8402 52.9588C80.2142 52.7987 80.6036 52.6772 81.0022 52.596C81.4002 52.5122 81.8055 52.4683 82.2122 52.465C82.4144 52.4567 82.617 52.4652 82.8178 52.4903L83.423 52.5399C83.4385 52.5412 83.4537 52.5447 83.4682 52.5503L83.4904 52.5591L85.2186 53.2374C85.2448 53.2478 85.2694 53.2618 85.2917 53.2789C85.892 53.7593 86.4325 54.3099 86.9016 54.9191C87.3714 55.5131 87.793 56.1436 88.1625 56.8046C88.5239 57.4679 88.8377 58.1561 89.1016 58.8639C89.2479 59.2123 89.3399 59.5791 89.4587 59.9364C89.5645 60.2977 89.6471 60.6652 89.7421 61.0291L89.7461 61.0487L89.7475 61.0579C89.7789 61.2646 89.8271 61.4685 89.8914 61.6675C89.9381 61.8389 90.0193 61.999 90.1301 62.138C90.176 62.1858 90.1859 62.1846 90.1906 62.1815L90.1936 62.1848C90.1937 62.1868 90.2456 62.1837 90.2697 62.1851C90.3309 62.1863 90.3919 62.1923 90.4521 62.203C90.5427 62.233 90.6287 62.2752 90.7078 62.3285C90.9395 62.5048 91.1213 62.7382 91.2354 63.006C91.4655 63.4919 91.527 64.0407 91.4099 64.5654C91.3444 64.8284 91.2275 65.0758 91.0659 65.2934C90.9044 65.511 90.7013 65.6945 90.4685 65.8332L90.4622 65.837C90.4287 65.8566 90.3918 65.8695 90.3534 65.8749C90.315 65.8803 90.2759 65.878 90.2384 65.8683C90.2008 65.8586 90.1656 65.8416 90.1346 65.8182C90.1037 65.7949 90.0776 65.7657 90.058 65.7322C90.0326 65.6888 90.0185 65.6396 90.0172 65.5893C90.0242 65.2559 89.9429 64.9265 89.7816 64.6346C89.7534 64.5857 89.713 64.5448 89.6644 64.5161C89.6158 64.4874 89.5606 64.4717 89.5042 64.4706C89.354 64.4777 89.208 64.5223 89.0794 64.6003C88.7628 64.7881 88.4739 65.0189 88.2207 65.2862C87.953 65.5565 87.7014 65.8485 87.4554 66.1459L87.4859 66.0884C87.3269 66.4933 87.0889 66.8624 86.7857 67.1743C86.4861 67.4905 86.1085 67.7222 85.6909 67.8462C85.4934 67.9162 85.2478 67.9231 85.0767 67.9685C84.982 67.9818 84.8894 68.0068 84.8009 68.0431C84.7081 68.0727 84.6177 68.1091 84.5303 68.1521C84.173 68.326 83.8389 68.5439 83.5356 68.8008C82.9145 69.3079 82.4137 69.9465 82.0693 70.6706C81.9003 71.0254 81.8011 71.4094 81.777 71.8016C81.7665 72.1832 81.863 72.56 82.0555 72.8897L82.0303 72.8578C82.1573 72.9587 82.2983 73.0407 82.4488 73.1011C82.6024 73.1648 82.7631 73.2095 82.9275 73.2342C83.092 73.2586 83.2586 73.2641 83.4243 73.2506C83.5907 73.2371 83.7556 73.2085 83.9168 73.165L83.9282 73.1622C83.981 73.1491 84.0368 73.1575 84.0833 73.1855C84.1299 73.2135 84.1634 73.2589 84.1765 73.3117C84.1844 73.3442 84.1844 73.3781 84.1765 73.4106C84.1173 73.6122 84.0031 73.7933 83.8468 73.9337C83.6905 74.0741 83.4983 74.1682 83.2915 74.2055C82.9334 74.279 82.5647 74.2842 82.2047 74.2208C81.8565 74.1676 81.5152 74.0765 81.1867 73.9492L80.9292 73.8379C80.8496 73.7889 80.7724 73.7347 80.6942 73.6825C80.5387 73.5774 80.3964 73.454 80.2705 73.3148C80.1479 73.1761 80.0361 73.0283 79.9359 72.8727C79.8448 72.7158 79.7648 72.5527 79.6966 72.3847C79.5638 72.056 79.4676 71.7136 79.4098 71.3639C79.303 70.6772 79.2928 69.9789 79.3796 69.2894L79.3768 69.3332C79.3795 68.9599 79.2817 68.5927 79.0938 68.2702C79.0519 68.2064 78.9985 68.1509 78.9364 68.1066C78.9089 68.0848 78.8785 68.0669 78.846 68.0536C78.7739 68.0204 78.7058 67.9789 78.6431 67.93C78.4636 67.7551 78.3155 67.5506 78.2051 67.3256C77.8122 66.5386 77.4974 65.7149 77.2653 64.8665C77.0153 64.0337 76.8164 63.1865 76.6695 62.3295C76.5001 61.4738 76.4576 60.5979 76.5436 59.7299C76.5449 59.7207 76.5499 59.7123 76.5574 59.7068C76.5649 59.7012 76.5743 59.6988 76.5835 59.7001C76.5922 59.7018 76.6 59.7065 76.6055 59.7134C76.6111 59.7203 76.6139 59.729 76.6136 59.7379Z" fill="#21728D"/>
<path d="M88.1172 48.6183C88.2962 48.5512 88.4861 48.5178 88.6772 48.5197C88.8642 48.5177 89.0509 48.5358 89.234 48.5735C89.6052 48.6449 89.9523 48.8092 90.2428 49.0511C90.0568 49.0538 89.8709 49.0404 89.6872 49.011C89.5089 48.9861 89.3348 48.9529 89.1614 48.9176C88.8059 48.846 88.4567 48.7459 88.1172 48.6183Z" fill="#21728D"/>
<path d="M92.8828 50.7407C93.8889 51.5926 94.7006 52.6504 95.2629 53.8427C95.8435 54.9984 96.426 56.1523 97.0433 57.2801C97.3474 57.8458 97.662 58.406 98.0016 58.941C98.1726 59.2044 98.3469 59.475 98.5282 59.7004C98.5821 59.7766 98.7388 59.905 98.8475 60.0205C98.9654 60.1381 99.081 60.2577 99.1943 60.3794C99.6659 60.8664 100.07 61.4148 100.395 62.0096C100.586 62.3401 100.682 62.7165 100.674 63.098C100.657 63.3234 100.566 63.5369 100.415 63.7047C100.269 63.8494 100.092 63.9598 99.8986 64.0278C99.8672 64.0403 99.8337 64.0465 99.8 64.0461C99.7663 64.0456 99.7329 64.0385 99.7019 64.0252C99.671 64.0118 99.6429 63.9925 99.6194 63.9683C99.5958 63.9442 99.5773 63.9156 99.5648 63.8842C99.5603 63.8726 99.5566 63.8607 99.5536 63.8486C99.4719 63.4982 99.3549 63.157 99.2045 62.8301C99.0793 62.5148 98.8559 62.2482 98.5673 62.0698C98.4088 62.0167 98.2384 62.0097 98.076 62.0499C97.9137 62.09 97.7661 62.1755 97.6506 62.2964C97.367 62.5429 97.1122 62.8208 96.8911 63.1246C97.0578 62.7765 97.2747 62.4548 97.5349 62.1697C97.675 62.0212 97.8414 61.9001 98.0257 61.8124C98.2312 61.7194 98.4639 61.7061 98.6787 61.775C99.0706 61.9434 99.3905 62.2448 99.5817 62.6261C99.7849 62.9709 99.9444 63.3396 100.056 63.7238L99.7115 63.5447C99.8215 63.4975 99.9205 63.4281 100.002 63.3407C100.063 63.2602 100.095 63.1615 100.093 63.0605C100.074 62.7914 99.9881 62.5313 99.8435 62.3036C99.5181 61.7762 99.1335 61.2878 98.6971 60.8478C98.5881 60.7339 98.4771 60.622 98.364 60.512C98.2501 60.3921 98.1447 60.324 97.9947 60.1472C97.7807 59.883 97.5853 59.6044 97.4098 59.3133C97.0622 58.7493 96.7495 58.1743 96.4475 57.5947C95.8584 56.4283 95.3253 55.2412 94.8349 54.0366C94.3815 52.8325 93.7208 51.717 92.8828 50.7407Z" fill="#21728D"/>
<path d="M99.8027 63.7842C100.269 64.2216 100.71 64.6775 101.145 65.1387C101.577 65.6021 102.007 66.0676 102.42 66.5456C102.836 67.0208 103.249 67.4995 103.647 67.9887C104.054 68.4712 104.448 68.9646 104.837 69.4613L104.723 69.3529L107.613 71.3348L110.494 73.3307L112.568 74.853L113.085 75.8063C113.085 75.8063 111.026 74.6679 110.018 74.0646C109.018 73.4493 108.018 72.8337 107.042 72.1827C106.063 71.535 105.088 70.886 104.131 70.2019L104.123 70.196C104.083 70.1671 104.047 70.1325 104.017 70.0934C103.635 69.5913 103.258 69.0858 102.895 68.5695C102.523 68.0597 102.164 67.5396 101.81 67.0159C101.453 66.4952 101.111 65.9618 100.773 65.4263C100.437 64.8885 100.108 64.3456 99.8027 63.7842Z" fill="#21728D"/>
<path d="M95.7637 70.6758C96.4151 71.5338 97.1348 72.3378 97.9156 73.08C98.6806 73.8177 99.51 74.4857 100.394 75.076C101.27 75.6763 102.199 76.1944 103.17 76.6237C103.65 76.8597 104.155 77.0335 104.657 77.2282C104.908 77.3273 105.164 77.4137 105.423 77.487C105.681 77.5685 105.94 77.6555 106.199 77.7479C105.928 77.7295 105.655 77.7066 105.382 77.6777C105.108 77.6562 104.835 77.6175 104.566 77.5617C104.024 77.4593 103.49 77.3165 102.969 77.1347C102.443 76.96 101.929 76.7484 101.433 76.5015C101.179 76.3895 100.949 76.2314 100.705 76.0983C100.462 75.965 100.226 75.8181 99.9989 75.6581C99.7747 75.4944 99.5405 75.3443 99.3252 75.1692L98.6823 74.6412C98.2719 74.2693 97.8835 73.8739 97.519 73.4568C96.7835 72.6338 96.1902 71.6939 95.7637 70.6758Z" fill="#21728D"/>
<path d="M75.0547 76.5415C75.2212 76.7358 75.3543 76.9564 75.4485 77.1944C75.5384 77.4158 75.6045 77.6461 75.6455 77.8816C75.6873 78.1168 75.7034 78.3559 75.6936 78.5947C75.6857 78.8506 75.6348 79.1034 75.543 79.3425C75.3758 79.1485 75.2424 78.9279 75.1484 78.6898C75.0583 78.4684 74.9925 78.2379 74.9523 78.0024C74.9112 77.767 74.8954 77.5279 74.9051 77.2891C74.9132 77.0333 74.9638 76.7807 75.0547 76.5415Z" fill="#21728D"/>
<path d="M74.624 79.3584C73.7183 81.3674 73.0263 83.466 72.5593 85.6197C72.0787 87.7645 71.8267 89.9543 71.8075 92.1522C71.7968 93.2477 71.8604 94.3427 71.9981 95.4295C72.3921 98.6932 73.5142 101.827 75.2815 104.599L75.2827 104.6C75.3029 104.633 75.316 104.669 75.3212 104.707C75.3265 104.745 75.3237 104.783 75.3131 104.82C74.1787 108.701 73.0123 112.571 71.8138 116.43C70.6265 120.294 69.3704 124.136 68.0829 127.969C66.8006 131.803 65.4332 135.608 63.981 139.385C63.2482 141.27 62.4934 143.148 61.6631 144.996C61.2472 145.919 60.813 146.835 60.3302 147.73C60.0906 148.178 59.8341 148.618 59.5507 149.045C59.2789 149.495 58.927 149.891 58.5124 150.215L58.52 149.988C59.5818 150.708 60.685 151.365 61.8239 151.956C62.9588 152.56 64.1245 153.106 65.3028 153.621C67.6651 154.644 70.0929 155.509 72.5699 156.209C77.5281 157.604 82.6286 158.432 87.7735 158.676C92.9125 158.919 98.0629 158.652 103.149 157.88C108.232 157.108 113.243 155.922 118.133 154.336L117.918 154.778L112.442 140.092L107.01 125.391L101.624 110.672L96.2765 95.9386L96.2756 95.9362C96.2677 95.9141 96.2642 95.8907 96.2654 95.8673L96.6244 88.986L96.7924 85.5449C96.843 84.3978 96.8973 83.2502 96.9195 82.1032C96.9195 82.0986 96.9204 82.094 96.9222 82.0897C96.9239 82.0855 96.9265 82.0816 96.9298 82.0783C96.9331 82.0751 96.937 82.0725 96.9413 82.0707C96.9455 82.069 96.9501 82.0681 96.9547 82.0681C96.964 82.0682 96.9728 82.072 96.9794 82.0785C96.9859 82.0851 96.9897 82.0939 96.9898 82.1031C96.9938 83.2531 96.9654 84.4014 96.9408 85.55L96.851 88.9951C96.7865 91.2916 96.7122 93.5878 96.6281 95.8836L96.617 95.8124L102.165 110.471L107.674 125.144L113.137 139.835L118.557 154.541C118.572 154.583 118.58 154.627 118.578 154.672C118.576 154.717 118.566 154.76 118.548 154.801C118.529 154.842 118.503 154.878 118.47 154.909C118.438 154.939 118.399 154.963 118.358 154.978L118.342 154.984C113.412 156.566 108.356 157.719 103.228 158.431C98.1027 159.148 92.9188 159.356 87.7525 159.052C82.5908 158.729 77.479 157.852 72.5052 156.435C70.025 155.711 67.5899 154.842 65.2128 153.83C64.0265 153.32 62.8523 152.778 61.7075 152.178C60.5537 151.588 59.4358 150.931 58.3594 150.21C58.3415 150.198 58.3269 150.181 58.3167 150.162C58.3065 150.143 58.301 150.122 58.3008 150.1C58.3006 150.079 58.3055 150.057 58.3153 150.038C58.3251 150.019 58.3394 150.002 58.357 149.99L58.367 149.982C58.7457 149.678 59.0655 149.306 59.3108 148.887C59.58 148.468 59.8259 148.03 60.0558 147.584C60.5192 146.693 60.9367 145.776 61.3362 144.851C62.1341 143.001 62.8573 141.117 63.5603 139.226C64.9629 135.441 66.237 131.609 67.5182 127.78C68.7905 123.948 70.005 120.096 71.2319 116.248C72.4482 112.397 73.6362 108.537 74.7959 104.668L74.8275 104.889C73.632 102.997 72.7404 100.93 72.1853 98.7625C71.9032 97.6842 71.7027 96.5863 71.5856 95.4779C71.4617 94.3724 71.4129 93.2597 71.4397 92.1476C71.4899 89.9275 71.7902 87.72 72.3349 85.5671C72.8562 83.4146 73.6024 81.3228 74.5613 79.3264C74.5654 79.3181 74.5725 79.3117 74.5813 79.3086C74.59 79.3056 74.5996 79.3061 74.608 79.31C74.6164 79.314 74.6228 79.3211 74.626 79.3298C74.6292 79.3385 74.6287 79.3482 74.6249 79.3566L74.624 79.3584Z" fill="#21728D"/>
<path d="M82.592 78.7905L74.5936 79.3421C74.5936 79.3421 72.0776 84.698 72.2464 86.5046C72.2464 86.5046 81.8733 80.3554 82.592 78.7905Z" fill="#21728D"/>
<path d="M96.4484 95.8745C96.0858 95.4826 95.7595 95.0586 95.4736 94.6076C95.1886 94.1677 94.9211 93.7172 94.6783 93.2527C94.4355 92.7882 94.2173 92.3095 94.0202 91.8204C93.8142 91.3288 93.6517 90.8201 93.5346 90.3001C93.8923 90.6944 94.2161 91.1182 94.5024 91.5671C94.7909 92.007 95.0572 92.4597 95.3012 92.9254C95.5466 93.3898 95.7674 93.8667 95.9628 94.3542C96.1688 94.8458 96.3313 95.3545 96.4484 95.8745C96.4484 95.8745 96.9552 84.5463 96.9552 82.104L96.1388 82.0618C95.1569 82.3961 91.3105 81.1538 91.3105 81.1538C84.0891 106.576 73.2888 101.34 73.2888 101.34L75.0554 104.743C75.7768 105.503 76.442 106.305 77.0895 107.118C77.737 107.931 78.3529 108.765 78.9617 109.606C79.5635 110.454 80.1547 111.31 80.7107 112.186C81.2738 113.059 81.8157 113.949 82.3014 114.878C81.5764 114.118 80.9113 113.319 80.2638 112.506C79.6162 111.693 79.0004 110.856 78.3916 110.015C77.7933 109.166 77.2021 108.315 76.6426 107.435C76.083 106.562 75.5411 105.672 75.0554 104.743C75.0554 104.743 62.4955 147.564 58.4414 150.098C58.4414 150.098 81.2456 166.568 118.239 154.659L96.4484 95.8745ZM60.9506 150.601C60.8136 150.597 60.6837 150.539 60.5884 150.441C60.4931 150.342 60.4398 150.21 60.4398 150.073C60.4398 149.936 60.4931 149.805 60.5884 149.706C60.6837 149.607 60.8136 149.55 60.9506 149.545C61.0876 149.55 61.2174 149.607 61.3127 149.706C61.408 149.805 61.4613 149.936 61.4613 150.073C61.4613 150.21 61.408 150.342 61.3127 150.441C61.2174 150.539 61.0876 150.597 60.9506 150.601ZM63.7378 151.995C63.6008 151.99 63.4709 151.933 63.3756 151.834C63.2803 151.736 63.2271 151.604 63.2271 151.467C63.2271 151.33 63.2803 151.198 63.3756 151.1C63.4709 151.001 63.6008 150.944 63.7378 150.939C63.8747 150.944 64.0046 151.001 64.0999 151.1C64.1952 151.198 64.2484 151.33 64.2484 151.467C64.2484 151.604 64.1952 151.736 64.0999 151.834C64.0046 151.933 63.8747 151.99 63.7377 151.995H63.7378ZM66.525 153.262C66.388 153.257 66.2581 153.2 66.1628 153.101C66.0675 153.003 66.0142 152.871 66.0142 152.734C66.0142 152.597 66.0675 152.465 66.1628 152.366C66.2581 152.268 66.388 152.21 66.525 152.206C66.6619 152.21 66.7917 152.268 66.887 152.367C66.9822 152.465 67.0355 152.597 67.0355 152.734C67.0355 152.871 66.9822 153.002 66.887 153.101C66.7917 153.199 66.6619 153.257 66.525 153.262V153.262ZM69.9456 154.529C69.8086 154.524 69.6787 154.466 69.5835 154.368C69.4882 154.269 69.4349 154.138 69.4349 154.001C69.4349 153.864 69.4882 153.732 69.5835 153.633C69.6787 153.535 69.8086 153.477 69.9456 153.473C70.0825 153.477 70.2123 153.535 70.3076 153.633C70.4028 153.732 70.456 153.864 70.456 154.001C70.456 154.138 70.4028 154.269 70.3076 154.368C70.2123 154.466 70.0825 154.524 69.9456 154.529V154.529ZM73.7463 155.542C73.6093 155.538 73.4794 155.48 73.3841 155.381C73.2888 155.283 73.2355 155.151 73.2355 155.014C73.2355 154.877 73.2888 154.745 73.3841 154.647C73.4794 154.548 73.6093 154.491 73.7463 154.486C73.8832 154.491 74.013 154.548 74.1083 154.647C74.2035 154.745 74.2568 154.877 74.2568 155.014C74.2568 155.151 74.2035 155.283 74.1083 155.381C74.013 155.48 73.8832 155.537 73.7463 155.542V155.542ZM77.6737 156.429C77.5367 156.424 77.4069 156.367 77.3116 156.268C77.2163 156.17 77.163 156.038 77.163 155.901C77.163 155.764 77.2163 155.632 77.3116 155.534C77.4069 155.435 77.5367 155.378 77.6737 155.373C77.8106 155.378 77.9404 155.435 78.0357 155.534C78.1309 155.632 78.1841 155.764 78.1841 155.901C78.1841 156.038 78.1309 156.17 78.0357 156.268C77.9404 156.367 77.8106 156.424 77.6737 156.429V156.429ZM81.4744 157.062C81.3374 157.058 81.2075 157 81.1122 156.902C81.0169 156.803 80.9636 156.671 80.9636 156.534C80.9636 156.397 81.0169 156.266 81.1122 156.167C81.2075 156.069 81.3374 156.011 81.4744 156.007C81.6113 156.011 81.7411 156.069 81.8364 156.167C81.9317 156.266 81.9849 156.397 81.9849 156.534C81.9849 156.671 81.9317 156.803 81.8364 156.902C81.7411 157 81.6113 157.058 81.4744 157.062V157.062ZM85.1484 157.442C85.0114 157.438 84.8815 157.38 84.7862 157.282C84.6909 157.183 84.6376 157.052 84.6376 156.915C84.6376 156.777 84.6909 156.646 84.7862 156.547C84.8815 156.449 85.0114 156.391 85.1484 156.387C85.2853 156.391 85.4151 156.449 85.5104 156.547C85.6057 156.646 85.6589 156.777 85.6589 156.915C85.6589 157.052 85.6057 157.183 85.5104 157.282C85.4151 157.38 85.2853 157.438 85.1484 157.442V157.442ZM88.569 157.696C88.4321 157.691 88.3022 157.634 88.2069 157.535C88.1116 157.437 88.0583 157.305 88.0583 157.168C88.0583 157.031 88.1116 156.899 88.2069 156.801C88.3022 156.702 88.4321 156.645 88.569 156.64C88.706 156.645 88.8358 156.702 88.9311 156.801C89.0263 156.899 89.0796 157.031 89.0796 157.168C89.0796 157.305 89.0263 157.437 88.9311 157.535C88.8358 157.634 88.706 157.691 88.569 157.696V157.696ZM92.243 157.696C92.106 157.691 91.9762 157.634 91.8809 157.535C91.7856 157.437 91.7323 157.305 91.7323 157.168C91.7323 157.031 91.7856 156.899 91.8809 156.801C91.9762 156.702 92.106 156.645 92.243 156.64C92.38 156.645 92.5098 156.702 92.605 156.801C92.7003 156.899 92.7536 157.031 92.7536 157.168C92.7536 157.305 92.7003 157.437 92.605 157.535C92.5098 157.634 92.38 157.691 92.243 157.696V157.696ZM95.7904 157.569C95.6534 157.565 95.5235 157.507 95.4282 157.408C95.3329 157.31 95.2797 157.178 95.2797 157.041C95.2797 156.904 95.3329 156.772 95.4282 156.674C95.5235 156.575 95.6534 156.518 95.7904 156.513C95.9273 156.518 96.0571 156.576 96.1523 156.674C96.2476 156.773 96.3008 156.904 96.3008 157.041C96.3008 157.178 96.2476 157.31 96.1523 157.408C96.0571 157.507 95.9273 157.564 95.7904 157.569V157.569ZM99.3377 157.316C99.2007 157.311 99.0708 157.254 98.9755 157.155C98.8802 157.057 98.8269 156.925 98.8269 156.788C98.8269 156.651 98.8802 156.519 98.9755 156.421C99.0708 156.322 99.2007 156.264 99.3377 156.26C99.4746 156.264 99.6045 156.322 99.6997 156.421C99.795 156.519 99.8483 156.651 99.8483 156.788C99.8483 156.925 99.795 157.056 99.6997 157.155C99.6045 157.253 99.4746 157.311 99.3377 157.316V157.316ZM102.758 157.062C102.621 157.058 102.491 157 102.396 156.902C102.301 156.803 102.248 156.671 102.248 156.534C102.248 156.397 102.301 156.266 102.396 156.167C102.491 156.069 102.621 156.011 102.758 156.007C102.895 156.011 103.025 156.069 103.12 156.167C103.216 156.266 103.269 156.397 103.269 156.534C103.269 156.671 103.216 156.803 103.12 156.902C103.025 157 102.895 157.058 102.758 157.062V157.062ZM106.179 156.429C106.042 156.424 105.912 156.367 105.817 156.268C105.722 156.17 105.668 156.038 105.668 155.901C105.668 155.764 105.722 155.632 105.817 155.534C105.912 155.435 106.042 155.378 106.179 155.373C106.316 155.378 106.446 155.435 106.541 155.534C106.636 155.632 106.689 155.764 106.689 155.901C106.689 156.038 106.636 156.17 106.541 156.268C106.446 156.367 106.316 156.424 106.179 156.429V156.429ZM109.726 155.669C109.589 155.664 109.459 155.607 109.364 155.508C109.269 155.41 109.216 155.278 109.216 155.141C109.216 155.004 109.269 154.872 109.364 154.774C109.459 154.675 109.589 154.618 109.726 154.613C109.863 154.618 109.993 154.675 110.088 154.774C110.184 154.872 110.237 155.004 110.237 155.141C110.237 155.278 110.184 155.41 110.088 155.508C109.993 155.606 109.863 155.664 109.726 155.669V155.669ZM112.894 154.782C112.757 154.777 112.627 154.72 112.531 154.621C112.436 154.523 112.383 154.391 112.383 154.254C112.383 154.117 112.436 153.985 112.531 153.887C112.627 153.788 112.757 153.731 112.894 153.726C113.03 153.731 113.16 153.788 113.256 153.887C113.351 153.985 113.404 154.117 113.404 154.254C113.404 154.391 113.351 154.523 113.256 154.621C113.16 154.72 113.03 154.777 112.894 154.782V154.782ZM116.187 153.642C116.05 153.637 115.921 153.58 115.825 153.481C115.73 153.383 115.677 153.251 115.677 153.114C115.677 152.977 115.73 152.845 115.825 152.747C115.921 152.648 116.05 152.59 116.187 152.586C116.324 152.591 116.454 152.648 116.549 152.747C116.645 152.845 116.698 152.977 116.698 153.114C116.698 153.251 116.645 153.382 116.549 153.481C116.454 153.579 116.324 153.637 116.187 153.642V153.642Z" fill="#21728D"/>
<path d="M90.4508 38.5003C90.5534 38.4967 90.6506 38.4535 90.722 38.3796C90.7933 38.3058 90.8332 38.2071 90.8332 38.1044C90.8332 38.0017 90.7933 37.903 90.722 37.8292C90.6506 37.7553 90.5534 37.7121 90.4508 37.7085C90.3481 37.7121 90.2509 37.7553 90.1796 37.8292C90.1082 37.903 90.0684 38.0017 90.0684 38.1044C90.0684 38.2071 90.1082 38.3058 90.1796 38.3796C90.2509 38.4535 90.3481 38.4967 90.4508 38.5003Z" fill="#21728D"/>
<path d="M89.3516 36.3945C89.493 36.2354 89.6741 36.1168 89.8764 36.0506C90.0669 35.9852 90.2688 35.9595 90.4696 35.9752C90.6822 35.9879 90.8881 36.0535 91.0688 36.1662C91.1685 36.2225 91.2539 36.3009 91.3186 36.3954C91.3833 36.4899 91.4255 36.5979 91.4419 36.7112C91.2589 36.6897 91.0744 36.6827 90.8903 36.6901C90.7333 36.6889 90.5769 36.6898 90.4157 36.6768C90.2468 36.6633 90.079 36.6379 89.9137 36.6009C89.7182 36.5567 89.5292 36.4873 89.3516 36.3945Z" fill="#21728D"/>
<path d="M91 41.145C91 41.145 92.0386 42.1511 92.8812 41.7114" stroke="#21728D" stroke-width="0.96777" stroke-linecap="round" stroke-linejoin="round"/>
<path d="M72.2656 86.403C73.366 85.5637 74.4761 84.7523 75.5845 83.941C76.6883 83.1236 77.7938 82.3135 78.8792 81.4799C79.4248 81.0671 79.9649 80.6478 80.4936 80.2158C80.7657 80.0082 81.0277 79.7901 81.2867 79.5685C81.5427 79.344 81.8179 79.1379 82.0665 78.9064C83.1254 78.0411 84.0631 77.0373 84.8543 75.9219C84.7094 76.2314 84.5787 76.5605 84.4022 76.8616C84.2126 77.1519 84.0251 77.4496 83.8204 77.7331L83.1595 78.545C82.9279 78.8048 82.6824 79.0512 82.4438 79.3055C81.4613 80.2868 80.413 81.2 79.3064 82.0387C78.1995 82.871 77.0656 83.6645 75.8915 84.3939C74.7227 85.1331 73.5121 85.804 72.2656 86.403Z" fill="#21728D"/>
<path d="M93.5336 54.4674C94.0777 55.4358 94.5949 56.4211 95.0613 57.4314C95.53 58.4404 95.9683 59.4657 96.3389 60.5198C96.7339 61.5747 97 62.6735 97.1312 63.7923C97.2003 64.3728 97.1582 64.9612 97.007 65.5259C96.9152 65.8237 96.7618 66.099 96.5569 66.3338C96.335 66.5627 96.062 66.7357 95.7602 66.8386L95.9285 66.5972C95.9893 67.5552 96.0664 68.5164 96.1679 69.4699C96.2192 69.9465 96.277 70.4223 96.3513 70.8908C96.3892 71.1246 96.4266 71.3582 96.4774 71.5821C96.5026 71.6936 96.5305 71.8034 96.563 71.9028C96.5772 71.9474 96.5943 71.9911 96.6141 72.0336C96.6273 72.0732 96.6573 72.0841 96.6077 72.0533L96.568 72.5867L94.8959 73.322C94.8435 73.345 94.7858 73.3531 94.7291 73.3452C94.6724 73.3373 94.619 73.3139 94.5749 73.2775C94.5307 73.241 94.4976 73.1931 94.4791 73.1389C94.4606 73.0848 94.4575 73.0265 94.4702 72.9707L94.4714 72.9653C94.706 71.9033 94.866 70.8263 94.9502 69.7421C95.0239 68.6535 95.0481 67.5614 95.0225 66.4658C94.9883 65.3718 94.9314 64.2772 94.8209 63.1857C94.7196 62.0939 94.6006 61.0024 94.4432 59.9153C94.1393 57.7399 93.7292 55.5771 93.2421 53.433C92.9965 52.3676 92.7322 51.2798 92.4304 50.2561C92.3133 49.7853 92.0383 49.369 91.6512 49.0766C91.4488 48.9834 91.2238 48.9508 91.0032 48.9826C90.7827 49.0145 90.5761 49.1094 90.4083 49.2561L90.4291 49.2374L90.4256 49.2408L90.4558 48.9052C91.1483 49.9867 91.619 51.1951 91.8405 52.4602C92.0722 53.7017 92.1675 54.9648 92.1248 56.2271C92.0846 57.4807 91.9617 58.7303 91.7569 59.9677C91.562 61.2029 91.288 62.4242 90.9365 63.6243C91.2156 62.4093 91.4299 61.1803 91.5785 59.9425C91.7316 58.7092 91.8031 57.4672 91.7926 56.2244C91.7956 54.9893 91.6697 53.7573 91.4168 52.5483C91.178 51.3526 90.7045 50.2162 90.0237 49.2047C89.9888 49.1547 89.9725 49.0941 89.9774 49.0334C89.9824 48.9726 90.0084 48.9155 90.0509 48.8719L90.0538 48.869L90.0573 48.8655C90.0639 48.8588 90.0709 48.8525 90.0782 48.8466C90.3288 48.6459 90.6229 48.5067 90.9371 48.4403C91.2729 48.3693 91.6229 48.4189 91.9257 48.5804C92.4512 48.9265 92.832 49.453 92.9961 50.0605C93.3282 51.1506 93.5915 52.2082 93.8515 53.291C94.3602 55.4477 94.7913 57.6232 95.1163 59.8178C95.4584 62.0138 95.652 64.2304 95.6957 66.4525C95.7131 67.5654 95.6793 68.6791 95.5944 69.7937C95.4986 70.9102 95.3245 72.0186 95.0734 73.1107L94.6489 72.7541L96.327 72.0324L96.2873 72.5657C96.1919 72.497 96.1172 72.4036 96.0711 72.2955C96.0399 72.2286 96.0133 72.1597 95.9913 72.0893C95.9499 71.959 95.92 71.8344 95.8928 71.7104C95.8403 71.463 95.7997 71.22 95.7677 70.9765C95.7028 70.49 95.6562 70.0061 95.6162 69.5222C95.5374 68.5542 95.4839 67.5894 95.4463 66.6199C95.4442 66.5679 95.4589 66.5166 95.4881 66.4735C95.5173 66.4304 95.5595 66.3978 95.6086 66.3804L95.6146 66.3784C95.8417 66.3061 96.0491 66.1824 96.2206 66.0167C96.3847 65.8349 96.5096 65.6211 96.5872 65.3887C96.7334 64.8807 96.7825 64.3497 96.7319 63.8235C96.6239 62.732 96.3976 61.6554 96.0568 60.6129C95.3719 58.5037 94.5285 56.4493 93.5336 54.4674Z" fill="#21728D"/>
<path d="M73.2871 101.339C74.4611 101.769 75.7296 101.873 76.9581 101.641C77.5639 101.539 78.1559 101.367 78.7226 101.13C79.0093 101.022 79.2783 100.871 79.5563 100.745C79.8195 100.586 80.0937 100.449 80.3466 100.275C82.4045 98.9237 84.0076 96.97 85.3399 94.8867C86.653 92.7653 87.7828 90.5358 88.7171 88.2225C89.6698 85.9082 90.5098 83.5414 91.3121 81.1533C90.7863 83.6217 90.0901 86.0507 89.2284 88.4228C88.3728 90.813 87.2681 93.1066 85.9325 95.2656C85.2453 96.343 84.4668 97.3594 83.6057 98.3036C82.7336 99.2506 81.7333 100.071 80.6339 100.741C79.5289 101.414 78.2898 101.838 77.0036 101.981C76.3655 102.045 75.7218 102.026 75.0888 101.923C74.46 101.829 73.8512 101.632 73.2871 101.339Z" fill="#21728D"/>
<path d="M111.023 71.661C111.059 71.6295 111.071 71.7144 111.105 71.7535L111.185 71.898L111.344 72.1884L111.652 72.7738C111.852 73.1664 112.047 73.5616 112.237 73.9593C112.618 74.7542 112.975 75.5601 113.318 76.3719C114.003 77.996 114.628 79.6441 115.191 81.3162C116.315 84.6602 117.226 88.0717 117.921 91.5303C118.617 94.99 119.109 98.4879 119.392 102.006C119.673 105.525 119.759 109.058 119.648 112.587L119.397 112.321L148.569 112.812L148.366 112.882C149.188 112.229 150.05 111.628 150.948 111.084C151.843 110.536 152.774 110.048 153.735 109.624C154.703 109.193 155.711 108.859 156.744 108.626C157.796 108.387 158.879 108.317 159.953 108.419L159.5 108.786C160.075 102.042 160.586 95.292 161.033 88.5362C161.251 85.1595 161.452 81.7817 161.608 78.4055C161.683 76.7175 161.747 75.0292 161.772 73.3455C161.782 72.504 161.793 71.6629 161.773 70.8297C161.763 70.4137 161.747 69.9983 161.712 69.5954C161.695 69.3948 161.673 69.196 161.641 69.0139C161.627 68.9329 161.609 68.8527 161.586 68.7737C161.576 68.7433 161.566 68.7201 161.564 68.7152C161.577 68.7196 161.551 68.7498 161.728 68.8448L161.924 68.8876C159.647 68.8283 157.361 68.7998 155.079 68.7924C152.796 68.7809 150.513 68.7835 148.232 68.8305C145.952 68.878 143.672 68.9584 141.405 69.1308C140.272 69.2184 139.142 69.329 138.028 69.4992C137.472 69.5856 136.919 69.6856 136.386 69.8221C135.886 69.9222 135.41 70.1171 134.984 70.3961L134.964 70.4126C134.903 70.4636 134.826 70.4932 134.747 70.4971L111.023 71.661ZM110.93 71.6115L122.712 70.6598L134.697 69.7194L134.459 69.8203C134.968 69.4375 135.555 69.1698 136.178 69.0358C136.75 68.8814 137.323 68.7708 137.895 68.6738C139.04 68.4834 140.186 68.3565 141.332 68.2525C143.623 68.0477 145.915 67.9368 148.206 67.8586C152.79 67.7036 157.368 67.7046 161.954 67.8043L161.983 67.805C162.041 67.8065 162.098 67.8208 162.151 67.8471C162.313 67.9203 162.445 68.0483 162.523 68.2087C162.561 68.2845 162.594 68.3634 162.619 68.4444C162.657 68.5682 162.687 68.6942 162.71 68.8217C162.751 69.0566 162.776 69.2789 162.796 69.4998C162.835 69.9404 162.854 70.3713 162.866 70.8015C162.888 71.6609 162.887 72.5132 162.868 73.3646C162.833 75.0665 162.76 76.7621 162.675 78.4565C162.505 81.8448 162.273 85.226 162.022 88.6053C161.518 95.3637 160.932 102.112 160.311 108.859C160.306 108.913 160.291 108.964 160.267 109.012C160.242 109.059 160.208 109.101 160.167 109.135C160.127 109.169 160.079 109.195 160.028 109.211C159.978 109.227 159.924 109.233 159.871 109.228L159.858 109.227C158.871 109.12 157.872 109.17 156.901 109.376C155.912 109.584 154.947 109.888 154.018 110.284C153.08 110.681 152.169 111.141 151.293 111.66C150.414 112.174 149.568 112.744 148.761 113.365L148.754 113.37C148.698 113.414 148.629 113.437 148.558 113.435L119.387 112.833C119.354 112.833 119.321 112.826 119.29 112.812C119.259 112.799 119.231 112.78 119.208 112.756C119.184 112.732 119.166 112.703 119.154 112.672C119.141 112.641 119.135 112.607 119.136 112.574L119.136 112.567C119.28 109.057 119.228 105.542 118.982 102.037C118.734 98.5308 118.278 95.0424 117.617 91.59C116.958 88.1356 116.082 84.7261 114.994 81.3817C114.447 79.7108 113.841 78.0609 113.174 76.4321C112.839 75.6191 112.491 74.8116 112.118 74.0152C111.933 73.6165 111.742 73.2205 111.546 72.8273L111.245 72.241L111.09 71.9504L111.011 71.806C110.99 71.7493 110.949 71.738 110.93 71.6115H110.93Z" fill="#21728D"/>
<path d="M143.271 73.0381C144.121 76.2324 144.873 79.4502 145.529 82.6915C146.198 85.9285 146.785 89.1819 147.289 92.4517C147.779 95.7221 148.199 99.007 148.429 102.311C148.55 103.962 148.613 105.62 148.597 107.277C148.6 108.935 148.444 110.589 148.133 112.217C148.308 110.578 148.348 108.928 148.252 107.282C148.186 105.638 148.049 103.996 147.881 102.358C147.542 99.0824 147.095 95.8162 146.594 92.5578C146.103 89.2975 145.549 86.0457 144.992 82.7933L143.271 73.0381Z" fill="#21728D"/>
<path d="M117.129 71.2401C116.616 70.8389 116.214 70.3127 115.962 69.7117C115.71 69.1107 115.617 68.4551 115.691 67.8077C115.77 67.1198 116.013 66.4612 116.401 65.8874C116.501 65.7445 116.611 65.6064 116.723 65.4703C116.844 65.348 116.974 65.2127 117.092 65.1018C117.322 64.8929 117.553 64.6833 117.793 64.4846C118.749 63.6737 119.774 62.9473 120.856 62.3135C121.399 61.9942 121.963 61.7061 122.539 61.44C122.829 61.3095 123.122 61.1868 123.419 61.0717C123.559 61.0113 123.735 60.9593 123.897 60.9049C124.06 60.8466 124.226 60.7991 124.396 60.7626C125.751 60.4393 127.172 60.536 128.471 61.0398C129.752 61.5387 130.85 62.4172 131.618 63.5576C131.806 63.8356 131.973 64.1268 132.119 64.4288L132.501 65.2581L133.246 66.9266C133.721 68.0508 134.202 69.1721 134.611 70.3321C133.858 69.3596 133.175 68.3485 132.487 67.3403L131.488 65.8103L130.998 65.0403C130.847 64.8126 130.684 64.5935 130.509 64.384C129.819 63.5628 128.916 62.9481 127.899 62.6077C127.401 62.4416 126.881 62.3468 126.356 62.3263C125.835 62.2949 125.311 62.3445 124.805 62.4735C124.676 62.4983 124.55 62.5327 124.427 62.5765C124.301 62.6183 124.183 62.6469 124.044 62.7049C123.773 62.8049 123.506 62.9177 123.238 63.028C122.702 63.25 122.179 63.5067 121.658 63.7723C120.613 64.3167 119.601 64.9213 118.626 65.5831L117.893 66.0897L117.584 66.3282C117.494 66.4179 117.394 66.5015 117.305 66.5948C116.945 66.985 116.681 67.4543 116.536 67.9649C116.379 68.52 116.351 69.1036 116.454 69.6711C116.557 70.2386 116.788 70.7752 117.129 71.2401Z" fill="#21728D"/>
<path d="M134.426 70.059C134.613 69.0171 134.924 68.0016 135.354 67.0342C135.778 66.0487 136.305 65.1109 136.927 64.2364C137.563 63.3487 138.304 62.5407 139.134 61.8296C139.982 61.1102 140.927 60.5142 141.942 60.0592L142.328 59.8979C142.463 59.8391 142.601 59.7873 142.741 59.7425C143.059 59.6362 143.39 59.574 143.725 59.5578C144.412 59.5212 145.094 59.685 145.69 60.0293C146.277 60.3659 146.765 60.8509 147.105 61.4356C147.446 62.0204 147.627 62.6843 147.63 63.361C147.623 64.0538 147.41 64.7288 147.018 65.3001C146.65 65.8099 146.186 66.2427 145.652 66.5743C144.695 67.1654 143.646 67.5917 142.548 67.8353L142.656 67.7938L140.723 68.6108L138.774 69.394L138.716 69.4174C138.708 69.4206 138.699 69.4231 138.69 69.4246C137.921 69.559 137.155 69.6752 136.435 69.7697C135.714 69.8622 135.045 69.9526 134.426 70.059ZM134.426 70.059C135.191 69.8102 135.907 69.5453 136.571 69.2826C137.235 69.0219 137.854 68.7827 138.469 68.5619L138.386 68.5925L140.208 67.5476L142.046 66.5367C142.056 66.5312 142.067 66.5266 142.077 66.5227L142.154 66.4952C143.068 66.1962 143.935 65.7711 144.732 65.232C145.073 64.9962 145.369 64.701 145.605 64.3607C145.797 64.0621 145.896 63.7133 145.889 63.3586C145.876 62.9901 145.771 62.6308 145.583 62.3134C145.396 61.9961 145.132 61.7308 144.815 61.5418C144.58 61.4041 144.32 61.3167 144.05 61.285C143.779 61.2533 143.506 61.278 143.245 61.3576C143.163 61.3749 143.034 61.4304 142.924 61.4666L142.584 61.5886C140.759 62.3333 139.127 63.484 137.812 64.9534C136.435 66.477 135.294 68.1978 134.426 70.059Z" fill="#21728D"/>
<path d="M79.6607 39.6484C78.8218 40.384 78.1011 41.2442 77.5239 42.199C76.9501 43.1403 76.4754 44.1385 76.1076 45.1777L75.8327 45.9587L75.6118 46.7588C75.4339 47.2853 75.3649 47.8394 75.2211 48.3787C75.1121 48.9249 75.0306 49.4782 74.9227 50.0308C74.8484 50.5871 74.7799 51.1462 74.6772 51.7092C74.6236 51.1444 74.5998 50.5753 74.5781 50.0041C74.6059 49.4363 74.6137 48.8624 74.6785 48.2938C74.8031 47.1492 75.0608 46.023 75.4462 44.9381C75.8358 43.8471 76.3841 42.8195 77.0735 41.8885C77.7472 40.9483 78.6338 40.1807 79.6607 39.6484Z" fill="#21728D"/>
<path d="M139.736 129.958C140.84 135.134 141.733 140.343 142.574 145.56C142.983 148.17 143.383 150.782 143.743 153.4C144.112 156.017 144.437 158.641 144.717 161.272C144.166 158.684 143.661 156.089 143.2 153.486C142.73 150.886 142.3 148.279 141.879 145.67C141.06 140.45 140.293 135.221 139.736 129.958Z" fill="#21728D"/>
<path d="M119.449 142.62C121.174 142.298 122.902 142.013 124.631 141.763L127.226 141.395L129.823 141.07C133.286 140.649 136.753 140.295 140.225 140.008C141.959 139.842 143.697 139.728 145.434 139.61C147.171 139.497 148.907 139.351 150.647 139.279L155.864 139.017L161.087 138.851L160.736 138.919C162.172 138.481 163.626 138.099 165.07 137.687C166.512 137.27 167.971 136.902 169.425 136.521C170.876 136.129 172.346 135.796 173.807 135.436L176.013 134.939C176.75 134.776 177.493 134.635 178.233 134.482L178.242 134.48C178.264 134.475 178.287 134.479 178.306 134.491C178.325 134.503 178.339 134.521 178.345 134.543C178.351 134.564 178.348 134.587 178.337 134.607C178.327 134.627 178.309 134.642 178.288 134.649L161.213 140.358C161.202 140.362 161.189 140.365 161.177 140.365L150.75 141.017L140.321 141.616L119.46 142.796C119.438 142.797 119.416 142.79 119.399 142.775C119.382 142.761 119.371 142.741 119.368 142.719C119.365 142.697 119.371 142.674 119.384 142.656C119.397 142.638 119.417 142.626 119.439 142.622L119.449 142.62Z" fill="#21728D"/>
<path d="M120.866 151.392C122.63 151.234 124.393 151.11 126.154 151.029L128.796 150.91L131.436 150.833C134.956 150.744 138.474 150.724 141.988 150.772C143.747 150.77 145.503 150.834 147.259 150.878C149.016 150.925 150.773 150.96 152.528 151.054L157.794 151.299L163.057 151.638L162.506 151.733L166.624 150.309C167.993 149.824 169.386 149.4 170.766 148.945C172.145 148.486 173.548 148.087 174.938 147.656L177.041 147.054L179.159 146.49L179.169 146.488C179.19 146.482 179.213 146.485 179.233 146.495C179.252 146.506 179.267 146.524 179.274 146.545C179.281 146.566 179.28 146.589 179.271 146.609C179.261 146.63 179.244 146.646 179.224 146.654L163.059 153.127C163.041 153.134 163.022 153.138 163.003 153.137L152.466 152.789C148.953 152.675 145.442 152.521 141.93 152.389L120.86 151.568C120.838 151.567 120.817 151.558 120.801 151.542C120.785 151.526 120.776 151.505 120.775 151.483C120.775 151.46 120.783 151.439 120.798 151.422C120.813 151.405 120.833 151.395 120.856 151.393L120.866 151.392Z" fill="#21728D"/>
<path d="M116.062 103.294C118.698 103.011 121.328 102.866 123.955 102.778L125.926 102.711L127.895 102.684C129.208 102.669 130.521 102.642 131.831 102.667L135.765 102.712L139.695 102.838C141.006 102.868 142.314 102.945 143.623 103.018C144.932 103.094 146.241 103.149 147.549 103.243L147.045 103.307L151.628 102.077C153.166 101.704 154.698 101.309 156.243 100.955C157.79 100.61 159.333 100.253 160.894 99.9523C161.671 99.7897 162.453 99.645 163.237 99.5068C164.019 99.3614 164.807 99.2356 165.598 99.1204L165.611 99.1186C165.632 99.1154 165.655 99.1206 165.673 99.133C165.691 99.1455 165.704 99.1643 165.708 99.1858C165.713 99.2073 165.71 99.2298 165.699 99.2489C165.688 99.268 165.67 99.2822 165.649 99.2887L156.594 102.107L147.531 104.898C147.514 104.903 147.495 104.905 147.477 104.905L139.62 104.575L131.764 104.217L123.908 103.858L116.054 103.47C116.032 103.469 116.011 103.46 115.996 103.444C115.98 103.428 115.971 103.407 115.971 103.385C115.97 103.363 115.978 103.342 115.992 103.325C116.007 103.309 116.027 103.298 116.049 103.296L116.062 103.294Z" fill="#21728D"/>
<path d="M164.448 172.522C166.895 172.522 168.878 170.539 168.878 168.092C168.878 165.645 166.895 163.662 164.448 163.662C162.001 163.662 160.018 165.645 160.018 168.092C160.018 170.539 162.001 172.522 164.448 172.522Z" fill="#21728D"/>
<path d="M117.742 163.946C117.651 163.918 117.563 163.89 117.475 163.861C117.57 163.862 117.663 163.892 117.742 163.946Z" fill="white"/>
<path d="M74.3771 100.685C74.5139 100.68 74.6436 100.622 74.7387 100.524C74.8338 100.425 74.887 100.294 74.887 100.157C74.887 100.02 74.8338 99.8883 74.7387 99.7898C74.6436 99.6913 74.5139 99.6336 74.3771 99.6289C74.2403 99.6336 74.1106 99.6913 74.0155 99.7898C73.9204 99.8883 73.8672 100.02 73.8672 100.157C73.8672 100.294 73.9204 100.425 74.0155 100.524C74.1106 100.622 74.2403 100.68 74.3771 100.685Z" fill="black"/>
<path d="M77.4182 100.431C77.555 100.427 77.6847 100.369 77.7798 100.27C77.875 100.172 77.9281 100.04 77.9281 99.9034C77.9281 99.7664 77.875 99.6349 77.7798 99.5364C77.6847 99.4379 77.555 99.3802 77.4182 99.3755C77.2813 99.3802 77.1517 99.4379 77.0565 99.5364C76.9614 99.6349 76.9082 99.7664 76.9082 99.9034C76.9082 100.04 76.9614 100.172 77.0565 100.27C77.1517 100.369 77.2813 100.427 77.4182 100.431Z" fill="black"/>
<path d="M80.4592 98.5308C80.596 98.5261 80.7257 98.4684 80.8208 98.3699C80.916 98.2715 80.9691 98.1399 80.9691 98.003C80.9691 97.866 80.916 97.7345 80.8208 97.636C80.7257 97.5375 80.596 97.4798 80.4592 97.4751C80.3223 97.4798 80.1927 97.5375 80.0975 97.636C80.0024 97.7345 79.9492 97.866 79.9492 98.003C79.9492 98.1399 80.0024 98.2715 80.0975 98.3699C80.1927 98.4684 80.3223 98.5261 80.4592 98.5308Z" fill="black"/>
<path d="M83.5001 95.3639C83.637 95.3591 83.7666 95.3014 83.8618 95.2029C83.9569 95.1045 84.0101 94.9729 84.0101 94.836C84.0101 94.6991 83.9569 94.5675 83.8618 94.469C83.7666 94.3705 83.637 94.3128 83.5001 94.3081C83.3633 94.3128 83.2337 94.3705 83.1385 94.469C83.0434 94.5675 82.9902 94.6991 82.9902 94.836C82.9902 94.9729 83.0434 95.1045 83.1385 95.2029C83.2337 95.3014 83.3633 95.3591 83.5001 95.3639Z" fill="black"/>
<path d="M85.9064 91.943C86.0432 91.9382 86.1729 91.8805 86.268 91.7821C86.3631 91.6836 86.4163 91.552 86.4163 91.4151C86.4163 91.2782 86.3631 91.1466 86.268 91.0481C86.1729 90.9496 86.0432 90.8919 85.9064 90.8872C85.7696 90.8919 85.6399 90.9496 85.5448 91.0481C85.4497 91.1466 85.3965 91.2782 85.3965 91.4151C85.3965 91.552 85.4497 91.6836 85.5448 91.7821C85.6399 91.8805 85.7696 91.9382 85.9064 91.943Z" fill="black"/>
<path d="M87.5548 88.649C87.6917 88.6443 87.8213 88.5866 87.9164 88.4881C88.0116 88.3896 88.0647 88.2581 88.0647 88.1211C88.0647 87.9842 88.0116 87.8526 87.9164 87.7542C87.8213 87.6557 87.6917 87.598 87.5548 87.5933C87.418 87.598 87.2883 87.6557 87.1932 87.7542C87.0981 87.8526 87.0449 87.9842 87.0449 88.1211C87.0449 88.2581 87.0981 88.3896 87.1932 88.4881C87.2883 88.5866 87.418 88.6443 87.5548 88.649Z" fill="black"/>
<path d="M88.9475 85.482C89.0843 85.4773 89.214 85.4196 89.3091 85.3211C89.4043 85.2226 89.4574 85.0911 89.4574 84.9541C89.4574 84.8172 89.4043 84.6856 89.3091 84.5872C89.214 84.4887 89.0843 84.431 88.9475 84.4263C88.8106 84.431 88.681 84.4887 88.5858 84.5872C88.4907 84.6856 88.4375 84.8172 88.4375 84.9541C88.4375 85.0911 88.4907 85.2226 88.5858 85.3211C88.681 85.4196 88.8106 85.4773 88.9475 85.482Z" fill="black"/>
<path d="M90.0881 82.0611C90.2249 82.0564 90.3546 81.9987 90.4497 81.9002C90.5449 81.8018 90.598 81.6702 90.598 81.5332C90.598 81.3963 90.5449 81.2647 90.4497 81.1663C90.3546 81.0678 90.2249 81.0101 90.0881 81.0054C89.9512 81.0101 89.8216 81.0678 89.7264 81.1663C89.6313 81.2647 89.5781 81.3963 89.5781 81.5332C89.5781 81.6702 89.6313 81.8018 89.7264 81.9002C89.8216 81.9987 89.9512 82.0564 90.0881 82.0611Z" fill="black"/>
<path d="M93.9982 71.9259C94.135 71.9211 94.2647 71.8634 94.3598 71.765C94.4549 71.6665 94.5081 71.5349 94.5081 71.398C94.5081 71.2611 94.4549 71.1295 94.3598 71.031C94.2647 70.9325 94.135 70.8749 93.9982 70.8701C93.8614 70.8749 93.7317 70.9325 93.6366 71.031C93.5414 71.1295 93.4883 71.2611 93.4883 71.398C93.4883 71.5349 93.5414 71.6665 93.6366 71.765C93.7317 71.8634 93.8614 71.9211 93.9982 71.9259Z" fill="black"/>
<path d="M94.2677 68.6319C94.4046 68.6272 94.5342 68.5695 94.6294 68.471C94.7245 68.3725 94.7777 68.241 94.7777 68.104C94.7777 67.9671 94.7245 67.8356 94.6294 67.7371C94.5342 67.6386 94.4046 67.5809 94.2677 67.5762C94.1309 67.5809 94.0012 67.6386 93.9061 67.7371C93.811 67.8356 93.7578 67.9671 93.7578 68.104C93.7578 68.241 93.811 68.3725 93.9061 68.471C94.0012 68.5695 94.1309 68.6272 94.2677 68.6319Z" fill="black"/>
<path d="M94.1428 65.338C94.2796 65.3332 94.4093 65.2756 94.5044 65.1771C94.5996 65.0786 94.6527 64.947 94.6527 64.8101C94.6527 64.6732 94.5996 64.5416 94.5044 64.4431C94.4093 64.3446 94.2796 64.287 94.1428 64.2822C94.0059 64.287 93.8763 64.3446 93.7811 64.4431C93.686 64.5416 93.6328 64.6732 93.6328 64.8101C93.6328 64.947 93.686 65.0786 93.7811 65.1771C93.8763 65.2756 94.0059 65.3332 94.1428 65.338Z" fill="black"/>
<path d="M93.8889 61.9176C94.0257 61.9128 94.1554 61.8552 94.2505 61.7567C94.3457 61.6582 94.3988 61.5266 94.3988 61.3897C94.3988 61.2528 94.3457 61.1212 94.2505 61.0227C94.1554 60.9242 94.0257 60.8665 93.8889 60.8618C93.752 60.8665 93.6224 60.9242 93.5272 61.0227C93.4321 61.1212 93.3789 61.2528 93.3789 61.3897C93.3789 61.5266 93.4321 61.6582 93.5272 61.7567C93.6224 61.8552 93.752 61.9128 93.8889 61.9176Z" fill="black"/>
<path d="M93.2541 57.6099C93.391 57.6052 93.5206 57.5475 93.6158 57.4491C93.7109 57.3506 93.7641 57.219 93.7641 57.0821C93.7641 56.9451 93.7109 56.8136 93.6158 56.7151C93.5206 56.6166 93.391 56.5589 93.2541 56.5542C93.1173 56.5589 92.9876 56.6166 92.8925 56.7151C92.7973 56.8136 92.7441 56.9451 92.7441 57.0821C92.7441 57.219 92.7973 57.3506 92.8925 57.4491C92.9876 57.5475 93.1173 57.6052 93.2541 57.6099Z" fill="black"/>
<path d="M92.8752 53.5557C93.012 53.551 93.1417 53.4933 93.2368 53.3949C93.332 53.2964 93.3852 53.1648 93.3852 53.0279C93.3852 52.8909 93.332 52.7594 93.2368 52.6609C93.1417 52.5624 93.012 52.5047 92.8752 52.5C92.7384 52.5047 92.6087 52.5624 92.5135 52.6609C92.4184 52.7594 92.3652 52.8909 92.3652 53.0279C92.3652 53.1648 92.4184 53.2964 92.5135 53.3949C92.6087 53.4933 92.7384 53.551 92.8752 53.5557Z" fill="black"/>
<path d="M91.8615 49.755C91.9983 49.7502 92.128 49.6925 92.2231 49.5941C92.3182 49.4956 92.3714 49.364 92.3714 49.2271C92.3714 49.0902 92.3182 48.9586 92.2231 48.8601C92.128 48.7617 91.9983 48.704 91.8615 48.6992C91.7246 48.704 91.595 48.7617 91.4999 48.8601C91.4047 48.9586 91.3516 49.0902 91.3516 49.2271C91.3516 49.364 91.4047 49.4956 91.4999 49.5941C91.595 49.6925 91.7246 49.7502 91.8615 49.755Z" fill="black"/>
<path d="M80.7932 71.2037C80.93 71.199 81.0597 71.1413 81.1548 71.0428C81.2499 70.9443 81.3031 70.8127 81.3031 70.6758C81.3031 70.5389 81.2499 70.4073 81.1548 70.3088C81.0597 70.2104 80.93 70.1527 80.7932 70.1479C80.6563 70.1527 80.5267 70.2104 80.4315 70.3088C80.3364 70.4073 80.2832 70.5389 80.2832 70.6758C80.2832 70.8127 80.3364 70.9443 80.4315 71.0428C80.5267 71.1413 80.6563 71.199 80.7932 71.2037Z" fill="black"/>
<path d="M82.09 68.7076C82.2268 68.7029 82.3565 68.6452 82.4516 68.5467C82.5468 68.4482 82.5999 68.3166 82.5999 68.1797C82.5999 68.0428 82.5468 67.9112 82.4516 67.8128C82.3565 67.7143 82.2268 67.6566 82.09 67.6519C81.9532 67.6566 81.8235 67.7143 81.7284 67.8128C81.6332 67.9112 81.5801 68.0428 81.5801 68.1797C81.5801 68.3166 81.6332 68.4482 81.7284 68.5467C81.8235 68.6452 81.9532 68.7029 82.09 68.7076Z" fill="black"/>
<path d="M84.8419 67.4049C84.9788 67.4001 85.1084 67.3424 85.2035 67.244C85.2987 67.1455 85.3518 67.0139 85.3518 66.877C85.3518 66.7401 85.2987 66.6085 85.2035 66.51C85.1084 66.4115 84.9788 66.3539 84.8419 66.3491C84.7051 66.3539 84.5755 66.4115 84.4803 66.51C84.3852 66.6085 84.332 66.7401 84.332 66.877C84.332 67.0139 84.3852 67.1455 84.4803 67.244C84.5755 67.3424 84.7051 67.4001 84.8419 67.4049Z" fill="black"/>
<path d="M86.715 65.336C86.8518 65.3313 86.9815 65.2736 87.0766 65.1751C87.1717 65.0766 87.2249 64.9451 87.2249 64.8082C87.2249 64.6712 87.1717 64.5397 87.0766 64.4412C86.9815 64.3427 86.8518 64.285 86.715 64.2803C86.5782 64.285 86.4485 64.3427 86.3534 64.4412C86.2582 64.5397 86.2051 64.6712 86.2051 64.8082C86.2051 64.9451 86.2582 65.0766 86.3534 65.1751C86.4485 65.2736 86.5782 65.3313 86.715 65.336Z" fill="black"/>
<path d="M88.6779 63.8941C88.8148 63.8894 88.9444 63.8317 89.0396 63.7332C89.1347 63.6348 89.1879 63.5032 89.1879 63.3663C89.1879 63.2293 89.1347 63.0977 89.0396 62.9993C88.9444 62.9008 88.8148 62.8431 88.6779 62.8384C88.5411 62.8431 88.4114 62.9008 88.3163 62.9993C88.2211 63.0977 88.168 63.2293 88.168 63.3663C88.168 63.5032 88.2211 63.6348 88.3163 63.7332C88.4114 63.8317 88.5411 63.8894 88.6779 63.8941Z" fill="black"/>
<path d="M97.4357 61.4107C97.5726 61.406 97.7023 61.3483 97.7974 61.2498C97.8925 61.1514 97.9457 61.0198 97.9457 60.8829C97.9457 60.7459 97.8925 60.6143 97.7974 60.5159C97.7023 60.4174 97.5726 60.3597 97.4357 60.355C97.2989 60.3597 97.1692 60.4174 97.0741 60.5159C96.979 60.6143 96.9258 60.7459 96.9258 60.8829C96.9258 61.0198 96.979 61.1514 97.0741 61.2498C97.1692 61.3483 97.2989 61.406 97.4357 61.4107Z" fill="black"/>
<path d="M176.209 170.199C177.521 169.683 178.808 169.137 180.068 168.544C180.695 168.24 181.319 167.936 181.924 167.599C182.533 167.269 183.132 166.924 183.703 166.538C184.864 165.813 185.908 164.914 186.798 163.874C187.689 162.816 188.212 161.498 188.288 160.117C188.399 160.827 188.359 161.552 188.17 162.245C187.974 162.946 187.659 163.609 187.238 164.203C186.381 165.366 185.313 166.358 184.088 167.127C182.89 167.897 181.615 168.54 180.284 169.047C178.967 169.565 177.602 169.951 176.209 170.199Z" fill="black"/>
<path d="M184.65 172.097C186.04 171.19 187.381 170.231 188.674 169.22C189.966 168.216 191.184 167.121 192.318 165.942C193.452 164.781 194.418 163.466 195.185 162.036C195.957 160.593 196.345 158.975 196.313 157.338C196.623 159.008 196.402 160.734 195.681 162.272C194.975 163.809 194.01 165.214 192.828 166.426C191.665 167.631 190.382 168.715 188.999 169.66C187.634 170.615 186.177 171.431 184.65 172.097Z" fill="black"/>
<path d="M172.08 67.2373C171.141 66.1857 170.181 65.169 169.187 64.1936C168.685 63.7118 168.183 63.2321 167.656 62.7817C167.136 62.3253 166.603 61.8834 166.044 61.4823C164.96 60.6457 163.755 59.9794 162.47 59.5064C161.169 59.0383 159.751 59.0061 158.43 59.4145C159.056 59.0632 159.75 58.8489 160.466 58.7858C161.191 58.7256 161.922 58.7912 162.625 58.9796C164.014 59.3784 165.316 60.0355 166.461 60.9164C167.6 61.7724 168.646 62.7443 169.584 63.8164C170.527 64.871 171.364 66.017 172.08 67.2373Z" fill="black"/>
<path d="M170.114 55.7495C168.781 54.7616 167.416 53.8371 166.018 52.9761C164.628 52.1134 163.178 51.3524 161.678 50.6989C160.196 50.0382 158.627 49.59 157.02 49.3674C155.398 49.1455 153.746 49.3435 152.223 49.9424C153.681 49.0712 155.375 48.6787 157.068 48.8203C158.755 48.9487 160.408 49.3653 161.954 50.052C163.489 50.7236 164.951 51.5501 166.318 52.5186C167.688 53.4666 168.959 54.5489 170.114 55.7495Z" fill="black"/>
<path d="M73.7803 26.2129C72.8883 27.3047 72.034 28.4113 71.2259 29.5454C70.8286 30.1171 70.4332 30.688 70.0705 31.2785C69.7011 31.864 69.3478 32.4588 69.0391 33.0742C68.3821 34.2754 67.9122 35.5699 67.6458 36.913C67.3867 38.2712 67.5764 39.6768 68.1863 40.9178C67.7413 40.3538 67.4212 39.7018 67.2472 39.0049C67.0743 38.2976 67.0249 37.5657 67.1012 36.8416C67.2781 35.4073 67.7237 34.0192 68.4148 32.75C69.0825 31.4919 69.8789 30.3065 70.7914 29.2128C71.6857 28.1161 72.6869 27.1112 73.7803 26.2129Z" fill="black"/>
<path d="M62.741 29.9478C61.9735 31.4186 61.2737 32.9117 60.6417 34.4268C60.0067 35.9344 59.4816 37.4858 59.0705 39.0691C58.6495 40.6365 58.4518 42.2555 58.4831 43.8782C58.5174 45.5149 58.971 47.1153 59.8005 48.5266C58.7122 47.2226 58.0598 45.6103 57.9352 43.9163C57.7984 42.2297 57.9517 40.5321 58.3883 38.8973C58.8119 37.2765 59.3998 35.7033 60.1429 34.2019C60.8652 32.701 61.7356 31.2758 62.741 29.9478Z" fill="black"/>
<path d="M132.415 125.509C130.126 126.586 127.829 127.641 125.531 128.696L122.085 130.28L118.632 131.846L118.462 131.139L118.656 131.126C118.749 131.12 118.841 131.149 118.913 131.208C118.985 131.267 119.032 131.352 119.044 131.444L119.046 131.454L120.747 144.511L122.366 157.577L121.853 157.045L132.075 158.624C135.482 159.155 138.884 159.716 142.286 160.281L162.682 163.745L162.635 163.741C164.29 163.708 165.941 163.559 167.575 163.294C169.213 163.043 170.824 162.644 172.389 162.102C173.955 161.586 175.422 160.807 176.727 159.8C178.022 158.803 178.96 157.414 179.399 155.84L179.392 155.909C179.262 153.111 179.153 150.311 179.006 147.513L178.573 139.12L178.128 130.726L177.7 122.332L178.474 122.831L169.602 126.51L160.732 130.156L160.725 130.158C160.652 130.188 160.574 130.206 160.495 130.21L150.051 130.753L139.605 131.265L129.157 131.733L118.708 132.166L118.678 132.167C118.516 132.174 118.357 132.118 118.234 132.013C118.111 131.907 118.032 131.758 118.014 131.597L116.918 121.596C116.556 118.265 116.181 114.936 115.843 111.603L114.803 101.606L113.806 91.6059L113.805 91.6003C113.802 91.5625 113.812 91.5247 113.834 91.4939C114.245 90.9158 114.759 90.4182 115.35 90.0263C115.941 89.6484 116.587 89.364 117.265 89.1829C117.283 89.1778 117.302 89.1799 117.318 89.1887C117.334 89.1975 117.346 89.2122 117.352 89.2298C117.357 89.2473 117.355 89.2663 117.347 89.2827C117.339 89.2991 117.324 89.3115 117.307 89.3173C116.657 89.5234 116.042 89.8285 115.485 90.2217C114.941 90.6222 114.473 91.1158 114.101 91.6797L114.129 91.5678L115.485 101.523L116.798 111.482C117.244 114.801 117.655 118.124 118.077 121.445L119.338 131.398L118.645 130.829L129.089 130.277L139.534 129.763L149.982 129.288L160.43 128.844L160.193 128.898L169.123 125.326L178.051 121.788L178.061 121.784C178.198 121.729 178.352 121.732 178.488 121.79C178.624 121.849 178.731 121.96 178.786 122.097C178.81 122.158 178.823 122.222 178.825 122.286L179.08 130.687L179.318 139.089L179.568 147.491C179.648 150.291 179.767 153.09 179.864 155.89L179.864 155.894C179.865 155.916 179.862 155.938 179.857 155.959C179.38 157.624 178.377 159.089 176.998 160.137C176.328 160.658 175.613 161.119 174.861 161.514C174.109 161.898 173.333 162.234 172.539 162.52C170.949 163.074 169.316 163.496 167.657 163.779C165.999 164.073 164.323 164.254 162.641 164.324C162.629 164.324 162.617 164.324 162.605 164.322L162.593 164.32L142.111 161.401C138.699 160.901 135.288 160.399 131.882 159.865L121.665 158.252L121.66 158.252C121.529 158.231 121.408 158.167 121.317 158.071C121.225 157.975 121.167 157.852 121.152 157.72L119.688 144.636L118.307 131.541L118.696 131.869L118.503 131.877L118.491 131.878C118.405 131.881 118.32 131.855 118.252 131.802C118.183 131.749 118.135 131.674 118.116 131.59C118.098 131.506 118.109 131.418 118.149 131.341C118.188 131.264 118.253 131.204 118.333 131.17C119.5 130.679 120.661 130.183 121.832 129.704L125.338 128.257C127.675 127.29 130.012 126.325 132.359 125.38C132.376 125.373 132.395 125.373 132.412 125.38C132.429 125.387 132.442 125.401 132.449 125.417C132.457 125.434 132.457 125.453 132.451 125.47C132.444 125.487 132.431 125.501 132.415 125.509L132.415 125.509Z" fill="black"/>
<path d="M179.629 155.9C178.852 158.884 176.28 160.773 173.363 161.97C173.726 162.505 174.201 162.955 174.756 163.287C175.311 163.619 175.932 163.826 176.575 163.893C177.218 163.959 177.868 163.884 178.479 163.672C179.09 163.461 179.648 163.118 180.112 162.668C180.577 162.218 180.937 161.672 181.168 161.068C181.399 160.464 181.494 159.817 181.448 159.172C181.402 158.526 181.215 157.899 180.901 157.334C180.587 156.769 180.152 156.28 179.629 155.9Z" fill="#21728D"/>
<path d="M127.901 166.84C130.348 166.84 132.331 164.856 132.331 162.409C132.331 159.963 130.348 157.979 127.901 157.979C125.454 157.979 123.471 159.963 123.471 162.409C123.471 164.856 125.454 166.84 127.901 166.84Z" fill="#21728D"/>
<path d="M113.928 91.5515L121.995 92.0364L130.179 92.554C132.923 92.7412 135.675 92.9213 138.433 93.1311C141.19 93.3357 143.95 93.5441 146.705 93.7796L146.54 93.7955L151.114 92.5482L155.698 91.3388L164.866 88.9195L164.87 88.9183C164.922 88.9046 164.977 88.9121 165.023 88.9391C165.07 88.966 165.103 89.0103 165.117 89.062C165.119 89.071 165.121 89.0801 165.122 89.0893L165.702 93.8795C165.898 95.4761 166.105 97.0711 166.323 98.6646L166.963 103.447L167.639 108.225C167.647 108.281 167.636 108.338 167.607 108.387C167.579 108.435 167.534 108.473 167.482 108.493L167.475 108.496L157.998 112.154L148.5 115.758C148.451 115.777 148.4 115.787 148.348 115.789L148.339 115.789L140.465 115.984C137.841 116.054 135.216 116.113 132.592 116.16L124.717 116.288L116.842 116.372L116.832 116.372C116.715 116.373 116.603 116.33 116.515 116.253C116.428 116.175 116.373 116.068 116.36 115.952L115.706 109.781C115.484 107.725 115.3 105.679 115.097 103.64L113.928 91.5515ZM114.004 91.6248L115.701 103.844C115.977 105.856 116.27 107.862 116.526 109.857L117.305 115.84L116.824 115.42L124.697 115.205L132.57 115.033C135.195 114.98 137.82 114.939 140.445 114.908L148.32 114.804L148.159 114.835L157.719 111.4L167.299 108.019L167.135 108.29L166.578 103.497L165.985 98.7082C165.791 97.1115 165.587 95.5161 165.372 93.9221L164.719 89.1412L164.976 89.3109L155.89 92.0235L151.347 93.38L146.794 94.6986C146.743 94.7135 146.689 94.7191 146.636 94.7152L146.629 94.7146C143.933 94.5069 141.243 94.2722 138.55 94.0335C135.858 93.8002 133.16 93.5372 130.454 93.2812L114.004 91.6248Z" fill="black"/>
<path d="M136.441 160.003L135.91 159.926L135.737 158.809L134.614 145.299L133.545 131.609L133.418 129.994L133.97 129.958C134.051 130.5 134.129 131.046 134.203 131.588C134.365 132.749 134.509 133.911 134.65 135.075C134.868 136.761 135.023 138.45 135.209 140.139L135.663 145.214L136.026 150.292C136.114 151.988 136.233 153.685 136.286 155.381C136.335 156.56 136.378 157.739 136.406 158.918C136.423 159.597 136.434 159.324 136.441 160.003Z" fill="#21728D"/>
<path d="M151.382 162.279L150.809 162.194L150.643 161.269L149.331 146.911L147.955 131.046L147.895 129.738L148.37 129.714C148.468 130.33 148.461 130.406 148.553 131.022C148.792 132.637 149.007 134.256 149.211 135.875C149.454 137.694 149.633 139.52 149.844 141.343L150.379 146.819L150.819 152.302C150.932 154.136 151.076 155.962 151.157 157.795C151.22 158.992 151.277 160.185 151.322 161.381C151.344 161.976 151.365 161.684 151.382 162.279Z" fill="#21728D"/>
<path d="M160.486 128.983L160.673 130.43L162.26 144.517L164.47 163.268L164.568 164.091C164.57 164.104 164.577 164.115 164.586 164.124C164.596 164.132 164.608 164.137 164.621 164.137C164.635 164.136 164.648 164.131 164.658 164.121C164.668 164.111 164.674 164.098 164.674 164.084V164.077C164.674 163.803 164.671 163.528 164.667 163.254C164.635 160.227 164.463 157.218 164.238 154.209C164.132 152.569 163.963 150.936 163.822 149.296C163.664 147.664 163.478 146.031 163.305 144.398L162.696 139.51C162.457 137.884 162.253 136.254 161.982 134.632C161.753 133.158 161.507 131.68 161.243 130.209C161.13 129.593 161.042 129.427 160.919 128.811L160.486 128.983Z" fill="#21728D"/>
<path d="M174.106 162.184C173.938 162.261 173.769 162.339 173.596 162.409L173.48 161.378L171.471 143.67L169.612 126.675L169.512 125.555L170.015 125.361C170.107 125.886 170.116 125.898 170.2 126.422C170.475 128.108 170.733 129.793 170.974 131.479C171.284 133.489 171.523 135.502 171.798 137.511L172.516 143.553L173.142 149.606C173.318 151.626 173.526 153.646 173.667 155.67C173.807 157.489 173.941 159.312 174.047 161.135C174.068 161.484 174.089 161.835 174.106 162.184Z" fill="#21728D"/>
<path d="M157.998 162.522C157.998 163.046 158.002 162.888 157.998 163.413C157.805 163.384 157.611 163.36 157.418 163.332L157.33 162.406L156.534 146.995L155.767 130.698L155.676 129.54C155.845 129.533 156.017 129.526 156.186 129.515C156.26 130.142 156.327 130.04 156.387 130.666C156.549 132.229 156.689 133.788 156.819 135.35C156.999 137.279 157.112 139.214 157.256 141.146L157.59 146.946L157.826 152.749C157.875 154.685 157.953 156.62 157.963 158.559C157.984 159.879 157.998 161.202 157.998 162.522Z" fill="#21728D"/>
<path d="M128.342 157.602C128.345 158.316 128.345 159.034 128.338 159.752L127.818 159.675L127.67 157.493L126.825 144.993L126.012 131.852L125.928 130.455C126.104 130.444 126.283 130.434 126.459 130.423C126.526 130.895 126.589 131.363 126.649 131.835C126.801 133.042 126.938 134.252 127.068 135.463C127.254 137.036 127.374 138.616 127.525 140.189L127.881 144.922C127.965 146.502 128.064 148.083 128.138 149.663C128.191 151.243 128.275 152.823 128.293 154.407C128.317 155.469 128.334 156.534 128.342 157.602Z" fill="#21728D"/>
<path d="M144.77 162.194L144.207 162.114L143.971 160.16L142.296 146.288L140.568 131.353L140.496 130.17L140.999 130.142C141.112 130.726 141.089 130.74 141.195 131.328C141.445 132.753 141.677 134.182 141.902 135.611C142.19 137.363 142.416 139.123 142.673 140.882L143.345 146.165L143.922 151.457C144.08 153.228 144.27 154.991 144.397 156.764C144.492 157.933 144.58 159.101 144.654 160.273C144.696 160.914 144.735 161.554 144.77 162.194Z" fill="#21728D"/>
<path d="M137.962 118.527C137.793 118.312 137.66 118.072 137.566 117.816C137.476 117.575 137.409 117.326 137.368 117.072C137.326 116.819 137.309 116.562 137.319 116.305C137.326 116.032 137.377 115.762 137.469 115.504C137.638 115.719 137.772 115.959 137.865 116.216C137.956 116.456 138.022 116.705 138.063 116.959C138.104 117.213 138.12 117.47 138.111 117.727C138.103 118 138.053 118.27 137.962 118.527Z" fill="#21728D"/>
<path d="M138.238 160.224C138.507 160.971 138.972 161.632 139.584 162.137C140.196 162.642 140.933 162.974 141.717 163.096C142.501 163.218 143.304 163.128 144.041 162.833C144.778 162.538 145.422 162.051 145.906 161.421L138.238 160.224Z" fill="#21728D"/>
<path d="M103.811 84.5002C103.653 84.4486 103.519 84.3415 103.433 84.1987C103.348 84.0559 103.317 83.8871 103.347 83.7234C103.376 83.5597 103.464 83.4122 103.594 83.3081C103.724 83.2041 103.887 83.1505 104.053 83.1573L104.091 83.159C104.723 83.1926 105.356 83.216 105.982 83.2799L106.924 83.3616L107.395 83.4025C107.553 83.4184 107.741 83.4457 107.913 83.4745C109.339 83.7148 110.678 84.3221 111.798 85.2368C112.926 86.1547 113.8 87.3467 114.335 88.6986C114.599 89.3678 114.775 90.0681 114.86 90.7823L114.961 91.7617L115.063 92.698L115.46 96.4442L116.238 103.939C116.504 106.436 116.737 108.938 116.983 111.438C117.226 113.938 117.474 116.438 117.695 118.941C118.155 123.945 118.594 128.952 118.966 133.968C118.138 129.012 117.375 124.048 116.634 119.081C116.255 116.598 115.902 114.112 115.545 111.627C115.19 109.141 114.823 106.657 114.488 104.169L113.464 96.7069L112.961 92.9747L112.837 92.0413C112.807 91.7429 112.759 91.4465 112.693 91.1538C112.565 90.6304 112.384 90.1213 112.153 89.6342C111.691 88.665 111.033 87.802 110.221 87.0994C109.409 86.3969 108.461 85.8699 107.435 85.5518L105.663 85.0586C105.054 84.9 104.451 84.7009 103.848 84.5119L103.811 84.5002Z" fill="#21728D"/>
<path d="M89.393 64.2037C89.7504 64.8478 90.0986 65.4965 90.4455 66.1458C90.7921 66.7954 91.1455 67.4415 91.4821 68.0959L92.5024 70.054C92.8399 70.708 93.1886 71.3564 93.5169 72.015L93.4396 71.9212C94.4523 72.6816 95.5162 73.3713 96.6236 73.9854C97.1788 74.2881 97.7393 74.5814 98.3146 74.8432C98.8845 75.1159 99.4642 75.3669 100.054 75.5962C101.23 76.0632 102.435 76.454 103.662 76.7662C104.894 77.0735 106.146 77.2911 107.41 77.4175L107.397 77.417C108.337 77.4413 109.276 77.451 110.216 77.4636L110.195 77.4656C110.618 77.4216 111.044 77.5032 111.421 77.7002C111.789 77.8764 112.137 78.0897 112.461 78.3369C113.113 78.821 113.692 79.3949 114.182 80.0413C114.443 80.3672 114.642 80.7379 114.769 81.1352C114.801 81.2471 114.812 81.3639 114.803 81.4798C114.784 81.5965 114.743 81.7083 114.68 81.8085C114.58 81.9903 114.472 82.1597 114.36 82.3293C114.247 82.4986 114.134 82.6637 114.001 82.8291C113.961 82.8824 113.913 82.93 113.859 82.9703C113.797 83.0092 113.767 83.0221 113.719 83.0497L113.457 83.1952C113.281 83.2921 113.104 83.3884 112.922 83.4802C112.831 83.5259 112.739 83.5709 112.642 83.6131C112.53 83.667 112.411 83.7028 112.288 83.7191L112.461 83.6065C112.375 83.7987 112.245 83.9676 112.08 84.0987C111.908 84.227 111.706 84.3081 111.492 84.334C111.292 84.3554 111.09 84.3443 110.894 84.3012C110.701 84.2618 110.513 84.1996 110.335 84.1159L110.675 83.9791C110.63 84.1189 110.568 84.2524 110.489 84.3761C110.404 84.5096 110.292 84.6241 110.16 84.7126C110.025 84.8025 109.871 84.8607 109.71 84.8831C109.549 84.9065 109.385 84.8974 109.228 84.8564C109.173 84.843 109.125 84.81 109.094 84.7637L109.076 84.7374C108.886 84.4393 108.656 84.1694 108.392 83.9354C108.124 83.7007 107.828 83.5016 107.51 83.3433C107.188 83.1825 106.852 83.0539 106.505 82.9594C106.163 82.863 105.812 82.7996 105.458 82.7701L105.448 82.7694L105.427 82.767C103.091 82.4077 100.801 81.9439 98.5042 81.4644C96.2113 80.9741 93.9282 80.4487 91.6569 79.8378C90.4886 79.5611 89.3672 79.1147 88.3284 78.5127C87.292 77.9015 86.3689 77.1157 85.5999 76.1902C85.2189 75.7299 84.8765 75.2389 84.5764 74.7222C84.2866 74.2072 84.0232 73.6777 83.7873 73.136L82.3352 69.9368C82.3314 69.9284 82.331 69.919 82.3341 69.9104C82.3372 69.9018 82.3434 69.8947 82.3516 69.8907C82.3598 69.8866 82.3693 69.8859 82.378 69.8887C82.3867 69.8915 82.3939 69.8975 82.3983 69.9056L84.0603 73.0009C84.3395 73.5189 84.5907 74.0422 84.9081 74.5193C85.2186 75.0017 85.5685 75.4576 85.9541 75.8824C86.7248 76.7267 87.6259 77.442 88.6231 78.0009C89.1188 78.2792 89.6379 78.5137 90.1745 78.7017C90.7182 78.8872 91.2712 79.0439 91.8314 79.1711C94.093 79.7326 96.3802 80.2282 98.6622 80.7319C100.944 81.2241 103.235 81.7404 105.522 82.1241L105.492 82.1211C105.895 82.1582 106.293 82.236 106.68 82.3533C107.064 82.4693 107.435 82.6232 107.788 82.8125C108.146 83.003 108.477 83.2391 108.773 83.5147C109.071 83.793 109.328 84.112 109.537 84.4623L109.385 84.3433C109.469 84.3642 109.556 84.3702 109.641 84.3609C109.728 84.3531 109.811 84.3258 109.885 84.2812C109.962 84.2338 110.028 84.1711 110.079 84.097C110.137 84.0134 110.184 83.9227 110.219 83.8272L110.224 83.8131C110.248 83.7542 110.294 83.707 110.352 83.682C110.411 83.657 110.477 83.6562 110.536 83.6798L110.558 83.6903C110.697 83.7612 110.844 83.8162 110.995 83.8541C111.142 83.8934 111.294 83.9089 111.446 83.9001C111.585 83.8895 111.719 83.8431 111.834 83.7657C111.949 83.68 112.042 83.5682 112.106 83.4395L112.12 83.416C112.137 83.3887 112.16 83.3662 112.188 83.3506C112.216 83.335 112.248 83.3268 112.279 83.3269C112.354 83.3132 112.427 83.2912 112.497 83.2614C112.584 83.2271 112.673 83.1876 112.762 83.1472C112.94 83.0655 113.117 82.9771 113.295 82.8876L113.561 82.752L113.684 82.6886C113.678 82.6955 113.728 82.6466 113.753 82.6176C113.876 82.476 113.995 82.3159 114.109 82.1566C114.223 81.9967 114.336 81.833 114.435 81.6685C114.482 81.6013 114.515 81.5256 114.533 81.4456C114.542 81.3623 114.536 81.2781 114.514 81.1972C114.399 80.8315 114.219 80.4894 113.984 80.187C113.515 79.5526 112.959 78.9875 112.333 78.5085C112.023 78.2684 111.686 78.0645 111.33 77.9005C110.994 77.7264 110.614 77.6547 110.238 77.6941L110.216 77.6961C109.277 77.7094 108.337 77.7199 107.397 77.745L107.392 77.7449L107.385 77.7445C106.096 77.6747 104.815 77.5102 103.551 77.2524C101.009 76.7401 98.5691 75.8131 96.3281 74.5087C95.2085 73.8626 94.1347 73.1401 93.1144 72.3463L93.112 72.3445C93.0805 72.3197 93.0549 72.2883 93.0371 72.2524C92.7127 71.5919 92.4089 70.9213 92.0938 70.2562L91.1564 68.2571C90.8403 67.5925 90.5412 66.9195 90.2352 66.2499C89.9295 65.5802 89.6252 64.9098 89.3299 64.2349C89.3263 64.2266 89.326 64.2172 89.3291 64.2087C89.3322 64.2002 89.3385 64.1932 89.3466 64.1892C89.3547 64.1852 89.3641 64.1844 89.3727 64.1871C89.3814 64.1898 89.3886 64.1957 89.393 64.2037H89.393Z" fill="black"/>
<path d="M108.102 81.2637C108.661 81.5139 109.171 81.8624 109.607 82.2927C109.829 82.509 110.025 82.7493 110.194 83.0092C110.381 83.2679 110.47 83.5847 110.445 83.9031C110.339 83.63 110.178 83.3814 109.973 83.1725C109.776 82.9585 109.572 82.749 109.361 82.5441C108.941 82.1303 108.505 81.7282 108.102 81.2637Z" fill="#21728D"/>
<path d="M109.836 80.6719C110.444 80.9349 110.994 81.3142 111.456 81.7885C111.692 82.0285 111.894 82.3004 112.054 82.5963C112.145 82.7423 112.205 82.9059 112.228 83.0765C112.251 83.247 112.239 83.4205 112.19 83.5857C112.151 83.2739 112.022 82.9801 111.82 82.7394C111.63 82.4916 111.424 82.2559 111.204 82.0339C110.763 81.5803 110.29 81.1525 109.836 80.6719Z" fill="#21728D"/>
<path d="M113.764 82.8359C113.425 82.3524 113.155 81.8546 112.867 81.3703C112.727 81.1257 112.578 80.8908 112.424 80.6595C112.276 80.4206 112.086 80.2101 111.863 80.0381C112.163 80.0955 112.435 80.2524 112.635 80.4833C112.841 80.6971 113.021 80.9351 113.17 81.1921C113.471 81.6973 113.672 82.2552 113.764 82.8359Z" fill="#21728D"/>
<path d="M106.318 82.5835L107.693 83.0999L105.128 84.0442L103.85 83.814L106.318 82.5835Z" fill="#21728D"/>
<path d="M112.715 78.6751L113.871 78.0693L114.433 79.4482L113.866 79.8341L112.715 78.6751Z" fill="#21728D"/>
<path d="M149.023 113.842C148.986 112.356 148.885 110.875 148.814 109.392C148.724 107.91 148.608 106.431 148.506 104.95L148.1 100.515C147.931 99.04 147.796 97.5619 147.593 96.0892C147.508 95.413 147.419 94.7371 147.326 94.0615L146.666 94.2469L146.605 94.1244L147.454 105.035L148.313 115.298L149.063 115.025C149.051 114.631 149.038 114.236 149.023 113.842Z" fill="#21728D"/>
<path d="M155.254 111.668C155.217 110.182 155.116 108.701 155.045 107.218C154.955 105.736 154.838 104.257 154.736 102.776L154.331 98.3415C154.161 96.8662 154.026 95.3881 153.823 93.9154C153.739 93.2392 153.649 92.5633 153.556 91.8877L152.897 92.0731L152.836 91.9506L153.684 102.861L154.543 113.124L155.293 112.851C155.281 112.457 155.268 112.063 155.254 111.668Z" fill="#21728D"/>
<path d="M140.856 113.842C140.819 112.356 140.717 110.875 140.646 109.392C140.556 107.91 140.44 106.431 140.338 104.95L139.932 100.515C139.763 99.04 139.628 97.5619 139.425 96.0892C139.34 95.413 139.251 94.7371 139.158 94.0615L138.498 94.2469L138.438 94.1244L139.286 105.035L140.145 115.298L140.895 115.025C140.883 114.631 140.87 114.236 140.856 113.842Z" fill="#21728D"/>
<path d="M131.906 114.659C131.869 113.029 131.768 111.405 131.697 109.778C131.607 108.153 131.49 106.53 131.388 104.906L130.983 100.042C130.814 98.4235 130.678 96.8022 130.476 95.1869C130.391 94.4452 130.302 93.7039 130.209 92.9629L129.549 93.1663L129.488 93.0319L130.337 104.999L131.196 116.255L131.946 115.957C131.934 115.524 131.921 115.091 131.906 114.659Z" fill="#21728D"/>
<path d="M123.348 114.114C123.311 112.456 123.21 110.804 123.139 109.149C123.048 107.496 122.932 105.845 122.83 104.193L122.424 99.2462C122.255 97.6002 122.12 95.9511 121.917 94.3081C121.832 93.5537 121.743 92.7996 121.65 92.0459L120.991 92.2527L120.93 92.1161L121.778 104.288L122.637 115.738L123.387 115.434C123.375 114.994 123.362 114.554 123.348 114.114Z" fill="#21728D"/>
<path d="M162.436 109.605C162.399 108.119 162.297 106.638 162.226 105.155C162.136 103.673 162.02 102.194 161.918 100.713L161.512 96.2784C161.343 94.8031 161.208 93.325 161.005 91.8523C160.92 91.1761 160.831 90.9446 160.738 90.269L160.078 90.4545L160.018 90.3319L160.866 100.798L161.725 110.549L162.475 110.277C162.475 110.277 162.45 109.999 162.436 109.605Z" fill="#21728D"/>
<path d="M149.606 121.92C148.434 122.014 147.262 122.121 146.09 122.257L146.084 122.258C146.07 122.26 146.058 122.266 146.049 122.277C146.041 122.287 146.036 122.3 146.037 122.313C146.038 122.327 146.044 122.339 146.054 122.349C146.063 122.358 146.076 122.363 146.09 122.363L149.333 122.372C149.419 122.224 149.51 122.073 149.606 121.92Z" fill="black"/>
<path d="M178.261 121.727C177.076 121.656 175.891 121.597 174.706 121.55C173.116 121.469 171.526 121.456 169.936 121.405L165.167 121.361C163.577 121.378 161.988 121.381 160.398 121.411C159.305 121.444 158.213 121.464 157.121 121.5C156.634 121.873 156.095 122.173 155.521 122.389L165.167 122.416L178.874 122.378C178.874 122.212 178.811 122.052 178.697 121.931C178.583 121.81 178.427 121.737 178.261 121.727Z" fill="black"/>
<path d="M163.256 152.166L163.115 152.18L161.493 138.691L160.486 129.517L161.296 129.189C161.5 130.062 161.686 130.936 161.855 131.811C162.095 132.923 162.246 134.046 162.439 135.165C162.605 136.284 162.742 137.407 162.89 138.529C162.995 139.659 163.122 140.785 163.214 141.911C163.277 143.044 163.383 144.174 163.404 145.311C163.512 147.597 163.463 149.887 163.256 152.166Z" fill="black"/>
</svg>
