<svg width="20" height="20" viewBox="0 0 20 20" fill="none" xmlns="http://www.w3.org/2000/svg">
<path fill-rule="evenodd" clip-rule="evenodd" d="M16.4111 3.45417C14.6634 1.70556 12.3389 0.742137 9.86525 0.741211C4.76525 0.741211 0.614324 4.89029 0.61201 9.99075C0.611547 11.5495 1.00507 13.0857 1.75136 14.4454L0.554602 18.8153C0.511084 18.975 0.555528 19.1454 0.672195 19.263C0.760158 19.3519 0.879139 19.4005 1.00136 19.4005C1.04071 19.4005 1.08007 19.3954 1.11895 19.3852L5.60368 18.2093C6.91294 18.8889 8.38053 19.2477 9.86155 19.2482C14.9653 19.2482 19.1162 15.0986 19.1185 9.99816C19.1194 7.5264 18.1578 5.20232 16.4111 3.45417Z" fill="url(#paint0_linear_2024_13818)"/>
<path fill-rule="evenodd" clip-rule="evenodd" d="M15.0328 4.82917C13.6532 3.44861 11.8194 2.68796 9.86751 2.6875C5.83788 2.6875 2.56057 5.96343 2.55872 9.99028C2.55825 11.3704 2.94436 12.7139 3.67585 13.8773L3.84992 14.1537L3.11149 16.8486L5.87677 16.1236L6.1439 16.2819C7.2652 16.9477 8.55131 17.2995 9.86242 17.3H9.8652C13.8921 17.3 17.1694 14.0236 17.1708 9.9963C17.1712 8.04491 16.4124 6.20972 15.0328 4.82917Z" fill="url(#paint1_linear_2024_13818)"/>
<path opacity="0.05" fill-rule="evenodd" clip-rule="evenodd" d="M12.2653 14.5734C11.8046 14.5734 11.1755 14.4558 9.9102 13.9572C8.49353 13.3979 7.10187 12.184 5.99168 10.5386L5.95603 10.4863C5.65881 10.0896 4.96899 9.0479 4.96899 7.94002C4.96899 6.74558 5.56529 6.10993 5.81992 5.83817L5.85927 5.79604C6.21066 5.41132 6.62455 5.37012 6.78612 5.37012C6.95696 5.37197 7.10186 5.37012 7.22733 5.37567C7.53011 5.38771 7.87501 5.47521 8.12362 6.02799C8.23937 6.28632 8.43659 6.77104 8.59075 7.15114C8.68937 7.39512 8.76946 7.59327 8.794 7.64604C8.93011 7.91734 8.93659 8.18632 8.81066 8.43956L8.78057 8.50114C8.72131 8.62243 8.65974 8.74789 8.52872 8.90067L8.41992 9.03123C8.34492 9.12243 8.26946 9.21317 8.20233 9.28354C8.38242 9.5803 8.76066 10.1428 9.2815 10.6076C9.92687 11.1822 10.4796 11.4224 10.7764 11.5516C10.8352 11.5771 10.8843 11.5988 10.9232 11.6173C11.1107 11.3997 11.4195 11.0289 11.5259 10.8701C11.8824 10.3349 12.3949 10.5206 12.563 10.5822C12.8264 10.6775 14.1014 11.3118 14.1139 11.3178L14.232 11.3757C14.4259 11.4697 14.6083 11.5581 14.7236 11.7497C14.9065 12.0558 14.8051 12.7095 14.6343 13.1872C14.3871 13.8831 13.325 14.4859 12.7574 14.5368L12.6528 14.5479C12.5301 14.5622 12.4056 14.5734 12.2653 14.5734ZM6.85927 6.29604C6.79446 6.29604 6.68103 6.26919 6.54168 6.42104L6.49492 6.47151C6.2852 6.69512 5.89446 7.11178 5.89446 7.94002C5.89446 8.79327 6.50835 9.67938 6.69631 9.93077C6.70881 9.94743 6.72918 9.97752 6.75881 10.0206C7.76575 11.5127 9.00557 12.6048 10.25 13.0956C11.8167 13.7136 12.219 13.6669 12.5445 13.6285L12.6732 13.6146C12.9551 13.5891 13.6556 13.1743 13.7616 12.8766C13.8583 12.6058 13.8894 12.3734 13.8945 12.2405C13.8741 12.2308 13.8519 12.2206 13.8283 12.2095L13.6972 12.1451C13.4023 11.997 12.4107 11.5127 12.2477 11.453C12.0431 11.7345 11.6634 12.1775 11.563 12.2928C11.3746 12.509 11.0412 12.7136 10.531 12.4567C10.5005 12.4414 10.4588 12.4238 10.407 12.4011C10.0871 12.2618 9.42085 11.9724 8.66483 11.2993C7.98474 10.6923 7.51946 9.95484 7.35094 9.66549C7.14492 9.31317 7.20186 8.97336 7.52038 8.65623C7.57594 8.60067 7.63937 8.52151 7.70418 8.44327L7.82548 8.29789C7.88011 8.23447 7.90001 8.19326 7.94909 8.09373L7.96529 8.06086C7.9227 7.96641 7.83659 7.75577 7.73288 7.49928C7.58335 7.1303 7.39214 6.65901 7.27964 6.40808C7.24955 6.34141 7.22687 6.30854 7.21575 6.29465C7.21807 6.3016 7.20233 6.30206 7.1889 6.30114C7.08612 6.29604 6.97362 6.29604 6.85927 6.29604Z" fill="black"/>
<path opacity="0.07" fill-rule="evenodd" clip-rule="evenodd" d="M12.2634 14.3451C11.8717 14.3451 11.2657 14.2433 9.99535 13.7424C8.62173 13.2007 7.26803 12.0169 6.18377 10.4099L6.14349 10.3507C5.85831 9.97013 5.20044 8.97939 5.20044 7.9405C5.20044 6.83772 5.75275 6.24884 5.98887 5.99698L6.03007 5.95254C6.31942 5.63634 6.65553 5.60254 6.78655 5.60254C6.96109 5.60393 7.09535 5.60254 7.21757 5.60809C7.44535 5.61735 7.70692 5.6655 7.91294 6.12384C8.02822 6.38032 8.22359 6.8618 8.37636 7.23911C8.48053 7.49606 8.56386 7.703 8.58562 7.74698C8.62359 7.82337 8.74211 8.05902 8.60368 8.33726L8.57266 8.40022C8.51479 8.51828 8.46479 8.62059 8.35275 8.75115L8.24072 8.88495C8.16062 8.98217 8.08053 9.07893 8.01109 9.14837C7.91109 9.24791 7.91109 9.24791 7.9509 9.31596C8.10275 9.57661 8.52127 10.241 9.12729 10.7812C9.79998 11.3808 10.3754 11.6303 10.6842 11.7646C10.7509 11.7933 10.8041 11.8169 10.8435 11.8368C10.9791 11.9044 10.993 11.8905 11.0412 11.8359C11.1745 11.684 11.5819 11.2044 11.7185 10.9993C11.975 10.615 12.306 10.7354 12.4842 10.7998C12.7185 10.8849 13.8912 11.465 14.0102 11.5248L14.1315 11.584C14.3074 11.6692 14.4463 11.7363 14.5259 11.8683C14.6435 12.0655 14.5949 12.6104 14.4171 13.1095C14.1912 13.7442 13.1921 14.2655 12.7375 14.3062L12.6268 14.3183C12.519 14.3312 12.4055 14.3451 12.2634 14.3451ZM6.85229 6.0655C6.84025 6.0655 6.82822 6.0655 6.81618 6.0655C6.73146 6.0655 6.54072 6.07985 6.37081 6.2655L6.3259 6.31365C6.11062 6.54328 5.66294 7.02106 5.66294 7.9405C5.66294 8.84004 6.256 9.72939 6.51109 10.0701C6.52266 10.0854 6.54072 10.1118 6.56711 10.1507C7.59998 11.6812 8.87775 12.8035 10.1653 13.3118C11.7879 13.9516 12.2231 13.9002 12.5713 13.8595L12.6949 13.8461C13.0157 13.8174 13.8296 13.3771 13.9801 12.9549C14.1342 12.5234 14.1407 12.1632 14.1171 12.0859C14.1203 12.0886 14.0097 12.0405 13.9296 12.0016L13.8018 11.9386C13.5134 11.7937 12.5028 11.2993 12.3259 11.2349C12.1592 11.1748 12.1588 11.1734 12.1037 11.2562C11.9421 11.4974 11.4926 12.0234 11.3898 12.1405C11.0926 12.4808 10.749 12.3067 10.6356 12.2498C10.6023 12.2331 10.5565 12.2136 10.5 12.1891C10.1907 12.0544 9.54766 11.7748 8.81942 11.1261C8.16387 10.5419 7.71433 9.82846 7.55137 9.54883C7.33099 9.17198 7.57868 8.92522 7.68423 8.82013C7.74442 8.75995 7.81387 8.67522 7.88377 8.59004L8.00183 8.44837C8.07544 8.36226 8.10646 8.2993 8.15738 8.19513L8.18979 8.12893C8.21248 8.08356 8.21664 8.04143 8.17127 7.95161C8.1472 7.90346 8.05785 7.68402 7.94766 7.41133C7.79674 7.03958 7.60461 6.56458 7.49072 6.31226C7.3847 6.07661 7.32266 6.07384 7.19812 6.06921C7.09118 6.0655 6.97266 6.0655 6.85229 6.0655Z" fill="black"/>
<path fill-rule="evenodd" clip-rule="evenodd" d="M7.7013 6.21774C7.53695 5.852 7.3638 5.84459 7.20686 5.83811C7.07862 5.83255 6.93232 5.83302 6.78603 5.83302C6.63973 5.83302 6.40177 5.88811 6.20038 6.10802C5.99899 6.32792 5.4314 6.85894 5.4314 7.9395C5.4314 9.02005 6.21843 10.0645 6.32816 10.2108C6.43788 10.3571 7.8476 12.6455 10.08 13.5261C11.9351 14.2576 12.3129 14.1122 12.7157 14.0756C13.1184 14.039 14.0152 13.5446 14.1981 13.0316C14.3809 12.5187 14.3809 12.0793 14.3263 11.9876C14.2712 11.896 14.1249 11.8413 13.9055 11.7312C13.686 11.621 12.6059 11.09 12.4045 11.0168C12.2032 10.9437 12.0569 10.9071 11.9101 11.127C11.7638 11.3464 11.343 11.8413 11.2147 11.9876C11.0865 12.1344 10.9582 12.1529 10.7388 12.0427C10.5194 11.9326 9.81195 11.7011 8.9726 10.9529C8.31982 10.371 7.87908 9.652 7.75084 9.43209C7.6226 9.21265 7.73695 9.09366 7.84714 8.98394C7.94575 8.88533 8.06658 8.72746 8.17677 8.59922C8.28649 8.47098 8.32306 8.37931 8.39621 8.23302C8.46936 8.08626 8.43279 7.95802 8.37769 7.84829C8.32353 7.73811 7.89667 6.652 7.7013 6.21774Z" fill="white"/>
<defs>
<linearGradient id="paint0_linear_2024_13818" x1="1.99905" y1="4.81575" x2="15.1375" y2="17.9542" gradientUnits="userSpaceOnUse">
<stop stop-color="#DFE9F2"/>
<stop offset="0.391" stop-color="#D6E0E9"/>
<stop offset="1" stop-color="#BFC8D1"/>
</linearGradient>
<linearGradient id="paint1_linear_2024_13818" x1="6.01335" y1="3.85417" x2="12.2513" y2="17.0667" gradientUnits="userSpaceOnUse">
<stop stop-color="#2ECC75"/>
<stop offset="1" stop-color="#0B964A"/>
</linearGradient>
</defs>
</svg>
