<svg width="161" height="46" viewBox="0 0 161 46" fill="none" xmlns="http://www.w3.org/2000/svg">
<path d="M0 23C0 10.2975 10.2975 0 23 0H138C150.703 0 161 10.2975 161 23V23C161 35.7025 150.703 46 138 46H23C10.2974 46 0 35.7025 0 23V23Z" fill="black"/>
<path d="M23 1H138C150.15 1 160 10.8497 160 23C160 35.1503 150.15 45 138 45H23C10.8497 45 1 35.1503 1 23C1 10.8497 10.8497 1 23 1Z" stroke="white" stroke-opacity="0.1" stroke-width="2"/>
<path d="M128.43 19L133.954 24.1319L128.43 29.2637" stroke="white" stroke-linecap="round" stroke-linejoin="round"/>
<path d="M122.43 24.1318H133" stroke="white" stroke-linecap="round"/>
<path d="M26.1992 28.9999V18.0908H27.8452V27.583H32.7884V28.9999H26.1992Z" fill="white"/>
<path d="M38.0645 29.165C37.2583 29.165 36.5641 28.9928 35.9817 28.6483C35.4029 28.3003 34.9554 27.8121 34.6394 27.1835C34.3269 26.5514 34.1706 25.811 34.1706 24.9623C34.1706 24.1242 34.3269 23.3856 34.6394 22.7464C34.9554 22.1072 35.3958 21.6082 35.9604 21.2496C36.5286 20.8909 37.1926 20.7116 37.9526 20.7116C38.4142 20.7116 38.8617 20.7879 39.2949 20.9406C39.7282 21.0933 40.117 21.333 40.4615 21.6597C40.8059 21.9864 41.0776 22.4108 41.2765 22.9328C41.4753 23.4513 41.5748 24.0816 41.5748 24.8238V25.3884H35.0708V24.1952H40.014C40.014 23.7762 39.9288 23.4051 39.7583 23.0819C39.5879 22.7552 39.3482 22.4978 39.0392 22.3096C38.7338 22.1214 38.3752 22.0273 37.9632 22.0273C37.5158 22.0273 37.1252 22.1373 36.7914 22.3575C36.4611 22.5741 36.2054 22.8582 36.0243 23.2098C35.8468 23.5578 35.758 23.936 35.758 24.3444V25.2765C35.758 25.8234 35.8539 26.2886 36.0456 26.6721C36.2409 27.0557 36.5126 27.3486 36.8606 27.551C37.2086 27.7499 37.6152 27.8493 38.0804 27.8493C38.3823 27.8493 38.6575 27.8067 38.9061 27.7215C39.1547 27.6327 39.3695 27.5013 39.5506 27.3273C39.7317 27.1533 39.8702 26.9385 39.9661 26.6828L41.4735 26.9545C41.3528 27.3983 41.1362 27.7872 40.8237 28.121C40.5147 28.4513 40.1259 28.7087 39.6571 28.8934C39.1919 29.0745 38.661 29.165 38.0645 29.165Z" fill="white"/>
<path d="M45.7229 29.181C45.2045 29.181 44.7357 29.0851 44.3167 28.8934C43.8976 28.6981 43.5656 28.4157 43.3206 28.0464C43.0791 27.6771 42.9584 27.2243 42.9584 26.6881C42.9584 26.2265 43.0471 25.8465 43.2247 25.5482C43.4023 25.2499 43.642 25.0138 43.9438 24.8398C44.2457 24.6657 44.583 24.5344 44.9559 24.4456C45.3287 24.3568 45.7087 24.2893 46.0958 24.2432C46.5858 24.1863 46.9836 24.1402 47.289 24.1047C47.5944 24.0656 47.8163 24.0035 47.9548 23.9182C48.0933 23.833 48.1626 23.6945 48.1626 23.5028V23.4655C48.1626 23.0003 48.0312 22.6398 47.7684 22.3841C47.5091 22.1285 47.1221 22.0006 46.6072 22.0006C46.0709 22.0006 45.6483 22.1196 45.3394 22.3575C45.034 22.5919 44.8227 22.8529 44.7055 23.1405L43.2087 22.7996C43.3863 22.3025 43.6455 21.9012 43.9864 21.5958C44.3309 21.2868 44.7268 21.0631 45.1743 20.9246C45.6217 20.7826 46.0922 20.7116 46.5858 20.7116C46.9126 20.7116 47.2588 20.7506 47.6246 20.8287C47.9939 20.9033 48.3383 21.0418 48.6579 21.2442C48.9811 21.4466 49.2457 21.7361 49.4516 22.1125C49.6576 22.4854 49.7606 22.9701 49.7606 23.5667V28.9999H48.2052V27.8813H48.1412C48.0383 28.0873 47.8838 28.2897 47.6778 28.4885C47.4719 28.6874 47.2073 28.8525 46.8841 28.9839C46.561 29.1153 46.1739 29.181 45.7229 29.181ZM46.0692 27.9026C46.5095 27.9026 46.8859 27.8156 47.1984 27.6416C47.5145 27.4676 47.7542 27.2403 47.9175 26.9598C48.0844 26.6757 48.1679 26.3721 48.1679 26.0489V24.9942C48.1111 25.051 48.001 25.1043 47.8376 25.154C47.6778 25.2002 47.4949 25.241 47.289 25.2765C47.083 25.3085 46.8824 25.3387 46.6871 25.3671C46.4917 25.392 46.3284 25.4133 46.197 25.431C45.888 25.4701 45.6057 25.5358 45.3501 25.6281C45.0979 25.7204 44.8955 25.8536 44.7428 26.0276C44.5937 26.1981 44.5191 26.4253 44.5191 26.7094C44.5191 27.1036 44.6647 27.4019 44.9559 27.6043C45.2471 27.8032 45.6182 27.9026 46.0692 27.9026Z" fill="white"/>
<path d="M51.8819 28.9999V20.8181H53.4213V22.1178H53.5066C53.6557 21.6775 53.9185 21.3312 54.2949 21.0791C54.6749 20.8234 55.1046 20.6956 55.584 20.6956C55.6834 20.6956 55.8006 20.6991 55.9355 20.7062C56.074 20.7133 56.1824 20.7222 56.2605 20.7329V22.2563C56.1966 22.2385 56.0829 22.219 55.9196 22.1977C55.7562 22.1729 55.5929 22.1604 55.4295 22.1604C55.0531 22.1604 54.7175 22.2403 54.4228 22.4001C54.1316 22.5564 53.9007 22.7748 53.7303 23.0553C53.5598 23.3323 53.4746 23.6483 53.4746 24.0035V28.9999H51.8819Z" fill="white"/>
<path d="M59.2314 24.142V28.9999H57.6388V20.8181H59.1675V22.1498H59.2687C59.4569 21.7165 59.7517 21.3685 60.153 21.1057C60.5578 20.843 61.0674 20.7116 61.6817 20.7116C62.2393 20.7116 62.7275 20.8287 63.1466 21.0631C63.5656 21.2939 63.8905 21.6384 64.1214 22.0965C64.3522 22.5546 64.4676 23.121 64.4676 23.7957V28.9999H62.8749V23.9875C62.8749 23.3944 62.7204 22.931 62.4115 22.5972C62.1025 22.2599 61.6782 22.0912 61.1384 22.0912C60.7691 22.0912 60.4406 22.1711 60.153 22.3309C59.8689 22.4907 59.6434 22.7251 59.4765 23.034C59.3131 23.3394 59.2314 23.7087 59.2314 24.142Z" fill="white"/>
<path d="M70.7012 18.0908H72.6987L76.1717 26.5709H76.2995L79.7725 18.0908H81.7701V28.9999H80.204V21.1057H80.1028L76.8855 28.9839H75.5858L72.3684 21.1004H72.2672V28.9999H70.7012V18.0908Z" fill="white"/>
<path d="M87.4816 29.165C86.7146 29.165 86.0452 28.9893 85.4735 28.6377C84.9017 28.2861 84.4578 27.7943 84.1418 27.1622C83.8257 26.5301 83.6677 25.7915 83.6677 24.9463C83.6677 24.0976 83.8257 23.3554 84.1418 22.7197C84.4578 22.0841 84.9017 21.5905 85.4735 21.2389C86.0452 20.8873 86.7146 20.7116 87.4816 20.7116C88.2487 20.7116 88.9181 20.8873 89.4898 21.2389C90.0615 21.5905 90.5054 22.0841 90.8215 22.7197C91.1375 23.3554 91.2955 24.0976 91.2955 24.9463C91.2955 25.7915 91.1375 26.5301 90.8215 27.1622C90.5054 27.7943 90.0615 28.2861 89.4898 28.6377C88.9181 28.9893 88.2487 29.165 87.4816 29.165ZM87.4869 27.828C87.9841 27.828 88.396 27.6966 88.7227 27.4339C89.0494 27.1711 89.2909 26.8213 89.4472 26.3845C89.607 25.9477 89.6869 25.4665 89.6869 24.941C89.6869 24.4189 89.607 23.9395 89.4472 23.5028C89.2909 23.0624 89.0494 22.7091 88.7227 22.4427C88.396 22.1764 87.9841 22.0432 87.4869 22.0432C86.9862 22.0432 86.5708 22.1764 86.2405 22.4427C85.9138 22.7091 85.6705 23.0624 85.5107 23.5028C85.3545 23.9395 85.2764 24.4189 85.2764 24.941C85.2764 25.4665 85.3545 25.9477 85.5107 26.3845C85.6705 26.8213 85.9138 27.1711 86.2405 27.4339C86.5708 27.6966 86.9862 27.828 87.4869 27.828Z" fill="white"/>
<path d="M93.0733 28.9999V20.8181H94.6127V22.1178H94.698C94.8471 21.6775 95.1099 21.3312 95.4863 21.0791C95.8663 20.8234 96.296 20.6956 96.7754 20.6956C96.8748 20.6956 96.992 20.6991 97.127 20.7062C97.2654 20.7133 97.3738 20.7222 97.4519 20.7329V22.2563C97.388 22.2385 97.2743 22.219 97.111 22.1977C96.9476 22.1729 96.7843 22.1604 96.6209 22.1604C96.2445 22.1604 95.9089 22.2403 95.6142 22.4001C95.323 22.5564 95.0922 22.7748 94.9217 23.0553C94.7512 23.3323 94.666 23.6483 94.666 24.0035V28.9999H93.0733Z" fill="white"/>
<path d="M102.063 29.165C101.257 29.165 100.563 28.9928 99.9807 28.6483C99.4019 28.3003 98.9545 27.8121 98.6384 27.1835C98.3259 26.5514 98.1697 25.811 98.1697 24.9623C98.1697 24.1242 98.3259 23.3856 98.6384 22.7464C98.9545 22.1072 99.3948 21.6082 99.9594 21.2496C100.528 20.8909 101.192 20.7116 101.952 20.7116C102.413 20.7116 102.861 20.7879 103.294 20.9406C103.727 21.0933 104.116 21.333 104.46 21.6597C104.805 21.9864 105.077 22.4108 105.275 22.9328C105.474 23.4513 105.574 24.0816 105.574 24.8238V25.3884H99.0699V24.1952H104.013C104.013 23.7762 103.928 23.4051 103.757 23.0819C103.587 22.7552 103.347 22.4978 103.038 22.3096C102.733 22.1214 102.374 22.0273 101.962 22.0273C101.515 22.0273 101.124 22.1373 100.79 22.3575C100.46 22.5741 100.204 22.8582 100.023 23.2098C99.8458 23.5578 99.757 23.936 99.757 24.3444V25.2765C99.757 25.8234 99.8529 26.2886 100.045 26.6721C100.24 27.0557 100.512 27.3486 100.86 27.551C101.208 27.7499 101.614 27.8493 102.079 27.8493C102.381 27.8493 102.657 27.8067 102.905 27.7215C103.154 27.6327 103.369 27.5013 103.55 27.3273C103.731 27.1533 103.869 26.9385 103.965 26.6828L105.473 26.9545C105.352 27.3983 105.135 27.7872 104.823 28.121C104.514 28.4513 104.125 28.7087 103.656 28.8934C103.191 29.0745 102.66 29.165 102.063 29.165Z" fill="white"/>
</svg>
