<svg width="104" height="13" viewBox="0 0 104 13" fill="none" xmlns="http://www.w3.org/2000/svg">
<path d="M2.548 12.226V0.417999H5.176L11.35 8.518V0.417999H14.158V12.226H15.904V13H11.35L5.356 5.116V13H0.802V12.226H2.548ZM22.6169 12.226V13H16.7129V12.226H18.2609V0.417999H21.0689V12.226H22.6169ZM25.1671 12.226V0.417999H27.7951L33.9691 8.518V0.417999H36.7771V12.226H38.5231V13H33.9691L27.9751 5.116V13H23.4211V12.226H25.1671ZM49.34 12.226V13H39.332V12.226H41.474C40.886 11.962 40.328 11.554 39.8 11.002L41.258 8.932C42.014 9.748 42.806 10.156 43.634 10.156C44.03 10.156 44.366 10 44.642 9.688C44.93 9.376 45.074 8.92 45.074 8.32V2.83H41.348V0.417999H47.9V8.266C47.9 10.174 47.252 11.494 45.956 12.226H49.34ZM65.58 12.226V13H60.846L59.676 10.282H54.402L53.232 13H48.498V12.226H50.568L55.68 0.417999H58.398L63.492 12.226H65.58ZM57.048 4.162L55.464 7.816H58.614L57.048 4.162ZM76.9321 12.226V13H64.5481V12.226H66.2941V0.417999H70.7401C72.6721 0.417999 74.0761 0.795999 74.9521 1.552C75.8401 2.296 76.2841 3.448 76.2841 5.008C76.2841 6.556 75.8281 7.69 74.9161 8.41C74.0161 9.13 72.6361 9.49 70.7761 9.49H69.1021V12.226H76.9321ZM70.9921 7.06C71.9281 7.06 72.5641 6.874 72.9001 6.502C73.2361 6.118 73.4041 5.566 73.4041 4.846C73.4041 4.114 73.1821 3.598 72.7381 3.298C72.3061 2.986 71.6281 2.83 70.7041 2.83H69.1021V7.06H70.9921ZM93.1737 12.226V13H88.4397L87.2697 10.282H81.9957L80.8257 13H76.0917V12.226H78.1617L83.2737 0.417999H85.9917L91.0857 12.226H93.1737ZM84.6417 4.162L83.0577 7.816H86.2077L84.6417 4.162ZM103.464 12.226V13H92.3398V12.226H96.4978V8.032L92.1418 0.417999H95.1838L97.9018 5.098L100.62 0.417999H103.662L99.3058 8.032V12.226H103.464Z" fill="white"/>
</svg>
