<svg width="771" height="231" viewBox="0 0 771 231" fill="none" xmlns="http://www.w3.org/2000/svg">
<path d="M29.0109 37.8529H41.6069C40.9369 41.0019 36.8499 41.9399 30.1499 41.9399C19.8989 41.9399 18.0899 36.8479 18.0899 31.1529C18.0899 25.5249 19.8319 21.1699 30.1499 21.1699C37.5199 21.1699 40.9369 23.3809 41.6069 25.7929H59.4289C58.6919 12.9959 48.9099 6.4299 30.1499 6.4299C10.8539 6.4299 0.669922 14.2019 0.669922 30.4829C0.669922 46.8309 10.8539 54.6699 28.1399 54.6699C37.9889 54.6699 44.1529 51.8559 48.1059 47.2329L49.3789 53.9999H59.4289V28.4729H29.0109V37.8529Z" fill="url(#paint0_linear_1264_13519)"/>
<path d="M64.4698 0.399902V53.9999H80.5498V0.399902H64.4698Z" fill="url(#paint1_linear_1264_13519)"/>
<path d="M112.914 54.6699C129.999 54.6699 140.25 48.7739 140.25 33.8999C140.25 19.0259 129.999 13.1299 112.914 13.1299C95.8291 13.1299 85.5781 19.0259 85.5781 33.8999C85.5781 48.7739 95.8291 54.6699 112.914 54.6699ZM112.914 41.2699C105.745 41.2699 101.658 39.7959 101.658 33.8999C101.658 28.0039 105.745 26.5299 112.914 26.5299C120.083 26.5299 124.17 28.0039 124.17 33.8999C124.17 39.7959 120.083 41.2699 112.914 41.2699Z" fill="url(#paint2_linear_1264_13519)"/>
<path d="M177.952 13.1299C171.721 13.1299 165.557 15.0059 161.336 19.2939V0.399902H145.256V53.9999H161.336V48.5059C165.557 52.7939 171.721 54.6699 177.952 54.6699C188.337 54.6699 199.928 50.1139 199.928 33.8999C199.928 17.6859 188.337 13.1299 177.952 13.1299ZM172.592 41.2699C165.423 41.2699 161.336 39.7959 161.336 33.8999C161.336 28.0039 165.423 26.5299 172.592 26.5299C179.761 26.5299 183.848 28.0039 183.848 33.8999C183.848 39.7959 179.761 41.2699 172.592 41.2699Z" fill="url(#paint3_linear_1264_13519)"/>
<path d="M230.409 13.1299C222.972 13.1299 214.262 14.6039 206.222 17.2169L211.448 28.6069C218.818 26.9989 224.714 26.5299 229.873 26.5299C235.233 26.5299 240.325 26.7309 240.325 31.5549C236.64 30.2149 232.352 29.4779 226.724 29.4779C214.999 29.4779 202.939 32.2249 202.939 42.6769C202.939 51.3869 210.979 54.6699 220.158 54.6699C227.126 54.6699 234.094 53.6649 240.325 49.1089V53.9999H256.405V34.1009C256.271 18.7579 246.891 13.1299 230.409 13.1299ZM240.325 40.8679C236.305 42.6099 230.409 43.9499 224.982 43.9499C220.895 43.9499 219.019 43.6149 219.019 41.4039C219.019 38.8579 222.235 38.1879 229.672 38.1879C234.295 38.1879 237.779 38.5229 240.325 39.1929V40.8679Z" fill="url(#paint4_linear_1264_13519)"/>
<path d="M262.094 0.399902V53.9999H278.174V0.399902H262.094Z" fill="url(#paint5_linear_1264_13519)"/>
<path d="M38.1899 87.0999H1.33992V134H18.7599V123.012H38.1899C48.8429 123.012 56.1459 115.508 56.1459 105.056C56.1459 94.6039 48.8429 87.0999 38.1899 87.0999ZM34.8399 108.272H18.7599V101.84H34.8399C36.5819 101.84 38.7259 101.84 38.7259 105.056C38.7259 108.272 36.5819 108.272 34.8399 108.272Z" fill="url(#paint6_linear_1264_13519)"/>
<path d="M84.596 93.1299C77.159 93.1299 68.449 94.6039 60.409 97.2169L65.635 108.607C73.005 106.999 78.901 106.53 84.06 106.53C89.42 106.53 94.512 106.731 94.512 111.555C90.827 110.215 86.539 109.478 80.911 109.478C69.186 109.478 57.126 112.225 57.126 122.677C57.126 131.387 65.166 134.67 74.345 134.67C81.313 134.67 88.281 133.665 94.512 129.109V134H110.592V114.101C110.458 98.7579 101.078 93.1299 84.596 93.1299ZM94.512 120.868C90.492 122.61 84.596 123.95 79.169 123.95C75.082 123.95 73.206 123.615 73.206 121.404C73.206 118.858 76.422 118.188 83.859 118.188C88.482 118.188 91.966 118.523 94.512 119.193V120.868Z" fill="url(#paint7_linear_1264_13519)"/>
<path d="M150.512 93.7999L139.323 121.739L127.665 93.7999H110.245L126.995 134H134.365L127.665 150.75H145.085L167.932 93.7999H150.512Z" fill="url(#paint8_linear_1264_13519)"/>
<path d="M241.154 93.1299C231.372 93.1299 225.208 96.4799 220.987 100.5C217.838 94.6039 211.473 93.1299 206.448 93.1299C196.666 93.1299 191.909 97.1499 188.358 100.5V93.7999H172.278V134H188.358V112.292C191.775 108.942 195.192 107.2 199.279 107.2C205.175 107.2 206.984 110.148 206.984 117.049V134H223.064V112.292C226.481 108.942 229.898 107.2 233.985 107.2C239.881 107.2 241.69 110.148 241.69 117.049V134H257.77V109.813C257.77 95.9439 248.189 93.1299 241.154 93.1299Z" fill="url(#paint9_linear_1264_13519)"/>
<path d="M288.819 121.94C284.397 121.94 279.908 120.868 278.568 116.58H316.691C316.691 99.0259 306.038 93.1299 289.489 93.1299C273.074 93.1299 262.153 99.0259 262.153 113.9C262.153 128.774 273.074 134.67 288.819 134.67C305.368 134.67 314.011 129.578 316.021 118.925H300.276C296.993 121.538 294.648 121.94 288.819 121.94ZM289.422 104.52C293.71 104.52 297.73 104.922 299.539 108.54H279.305C281.114 104.922 285.134 104.52 289.422 104.52Z" fill="url(#paint10_linear_1264_13519)"/>
<path d="M357.21 93.1299C348.768 93.1299 342.604 95.8099 337.78 99.1599V93.7999H321.7V134H337.78V112.292C340.929 109.277 345.954 107.2 350.711 107.2C357.947 107.2 360.426 110.148 360.426 117.049V134H376.506V110.483C376.506 95.9439 366.255 93.1299 357.21 93.1299Z" fill="url(#paint11_linear_1264_13519)"/>
<path d="M421.491 107.2V93.7999H405.076V83.0799L388.996 87.0999V93.7999H380.889V107.2H388.996V122.141C388.996 130.851 395.16 134.67 407.622 134.67C412.915 134.67 417.672 134.335 421.491 133.665V120.6C416.868 121.27 414.858 121.27 411.24 121.27C406.55 121.27 405.076 119.327 405.076 115.508V107.2H421.491Z" fill="url(#paint12_linear_1264_13519)"/>
<path d="M425.829 120.131C425.829 132.727 439.229 134.67 454.438 134.67C469.647 134.67 480.367 132.727 480.367 120.466C480.367 109.947 470.25 109.009 454.438 108.205C444.254 107.669 442.579 107.736 442.579 106.061C442.579 104.52 444.924 104.52 453.098 104.52C460.267 104.52 462.947 104.52 462.947 106.664H479.027C479.027 95.0729 468.642 93.1299 453.768 93.1299C438.894 93.1299 426.499 95.0729 426.499 106.53C426.499 116.781 434.606 118.188 453.098 118.925C462.746 119.327 464.287 119.126 464.287 121.136C464.287 122.878 462.746 123.28 453.768 123.28C444.053 123.28 441.909 122.409 441.909 120.131H425.829Z" fill="url(#paint13_linear_1264_13519)"/>
<path d="M31.0209 170.115C33.9689 170.115 36.6489 170.249 39.2619 170.45V160.4C33.4329 159.73 31.3559 159.73 27.4029 159.73C13.6009 159.73 8.77692 163.549 8.77692 171.589V173.8H0.669922V187.2H8.77692V214H24.8569V187.2H39.2619V173.8H24.9909C25.4599 171.254 27.1349 170.115 31.0209 170.115Z" fill="url(#paint14_linear_1264_13519)"/>
<path d="M70.2637 214.67C87.3487 214.67 97.5997 208.774 97.5997 193.9C97.5997 179.026 87.3487 173.13 70.2637 173.13C53.1787 173.13 42.9277 179.026 42.9277 193.9C42.9277 208.774 53.1787 214.67 70.2637 214.67ZM70.2637 201.27C63.0947 201.27 59.0077 199.796 59.0077 193.9C59.0077 188.004 63.0947 186.53 70.2637 186.53C77.4327 186.53 81.5197 188.004 81.5197 193.9C81.5197 199.796 77.4327 201.27 70.2637 201.27Z" fill="url(#paint15_linear_1264_13519)"/>
<path d="M134.297 173.13C127.731 173.13 122.237 175.207 118.686 180.5V173.8H102.606V214H118.686V192.292C123.309 187.2 129.54 186.53 135.235 186.53C138.183 186.53 141.198 186.932 144.95 187.87V174.47C142.27 173.8 138.987 173.13 134.297 173.13Z" fill="url(#paint16_linear_1264_13519)"/>
<path d="M219.725 187.2V173.8H203.31V163.08L187.23 167.1V173.8H179.123V187.2H187.23V202.141C187.23 210.851 193.394 214.67 205.856 214.67C211.149 214.67 215.906 214.335 219.725 213.665V200.6C215.102 201.27 213.092 201.27 209.474 201.27C204.784 201.27 203.31 199.327 203.31 195.508V187.2H219.725Z" fill="url(#paint17_linear_1264_13519)"/>
<path d="M260.243 173.13C251.801 173.13 245.637 175.81 240.813 179.16V160.4H224.733V214H240.813V192.292C243.962 189.277 248.987 187.2 253.744 187.2C260.98 187.2 263.459 190.148 263.459 197.049V214H279.539V190.483C279.539 175.944 269.288 173.13 260.243 173.13Z" fill="url(#paint18_linear_1264_13519)"/>
<path d="M310.588 201.94C306.166 201.94 301.677 200.868 300.337 196.58H338.46C338.46 179.026 327.807 173.13 311.258 173.13C294.843 173.13 283.922 179.026 283.922 193.9C283.922 208.774 294.843 214.67 310.588 214.67C327.137 214.67 335.78 209.578 337.79 198.925H322.045C318.762 201.538 316.417 201.94 310.588 201.94ZM311.191 184.52C315.479 184.52 319.499 184.922 321.308 188.54H301.074C302.883 184.922 306.903 184.52 311.191 184.52Z" fill="url(#paint19_linear_1264_13519)"/>
<path d="M416.309 167.1V194.771L396.075 167.1H373.295V214H390.715V186.329L410.949 214H433.729V167.1H416.309Z" fill="url(#paint20_linear_1264_13519)"/>
<path d="M465.431 201.94C461.009 201.94 456.52 200.868 455.18 196.58H493.303C493.303 179.026 482.65 173.13 466.101 173.13C449.686 173.13 438.765 179.026 438.765 193.9C438.765 208.774 449.686 214.67 465.431 214.67C481.98 214.67 490.623 209.578 492.633 198.925H476.888C473.605 201.538 471.26 201.94 465.431 201.94ZM466.034 184.52C470.322 184.52 474.342 184.922 476.151 188.54H455.917C457.726 184.922 461.746 184.52 466.034 184.52Z" fill="url(#paint21_linear_1264_13519)"/>
<path d="M489.594 214H510.364L519.476 202.275L528.588 214H549.358L530.866 193.9L549.358 173.8H528.588L519.476 185.525L510.364 173.8H489.594L508.086 193.9L489.594 214Z" fill="url(#paint22_linear_1264_13519)"/>
<path d="M592.998 187.2V173.8H576.583V163.08L560.503 167.1V173.8H552.396V187.2H560.503V202.141C560.503 210.851 566.667 214.67 579.129 214.67C584.422 214.67 589.179 214.335 592.998 213.665V200.6C588.375 201.27 586.365 201.27 582.747 201.27C578.057 201.27 576.583 199.327 576.583 195.508V187.2H592.998Z" fill="url(#paint23_linear_1264_13519)"/>
<path d="M635.275 173.8V179.83C631.791 175.609 626.096 173.13 617.989 173.13C605.594 173.13 596.683 179.026 596.683 192.56C596.683 206.094 605.594 211.99 617.989 211.99C626.096 211.99 631.791 209.511 635.275 205.29C635.141 215.474 630.92 217.35 623.081 217.35C614.371 217.35 605.527 215.407 600.904 214.536V227.601C604.723 228.606 614.572 230.75 626.029 230.75C639.831 230.75 651.355 224.921 651.355 208.841V173.8H635.275ZM624.019 198.59C615.51 198.59 612.763 197.116 612.763 192.56C612.763 188.004 615.51 186.53 624.019 186.53C632.528 186.53 635.275 188.004 635.275 192.56C635.275 197.116 632.528 198.59 624.019 198.59Z" fill="url(#paint24_linear_1264_13519)"/>
<path d="M683.011 201.94C678.589 201.94 674.1 200.868 672.76 196.58H710.883C710.883 179.026 700.23 173.13 683.681 173.13C667.266 173.13 656.345 179.026 656.345 193.9C656.345 208.774 667.266 214.67 683.011 214.67C699.56 214.67 708.203 209.578 710.213 198.925H694.468C691.185 201.538 688.84 201.94 683.011 201.94ZM683.614 184.52C687.902 184.52 691.922 184.922 693.731 188.54H673.497C675.306 184.922 679.326 184.52 683.614 184.52Z" fill="url(#paint25_linear_1264_13519)"/>
<path d="M751.402 173.13C742.96 173.13 736.796 175.81 731.972 179.16V173.8H715.892V214H731.972V192.292C735.121 189.277 740.146 187.2 744.903 187.2C752.139 187.2 754.618 190.148 754.618 197.049V214H770.698V190.483C770.698 175.944 760.447 173.13 751.402 173.13Z" fill="url(#paint26_linear_1264_13519)"/>
<defs>
<linearGradient id="paint0_linear_1264_13519" x1="23.5684" y1="16.0868" x2="1014.46" y2="498.836" gradientUnits="userSpaceOnUse">
<stop stop-color="#88A1AC"/>
<stop offset="1" stop-color="#282F3F"/>
</linearGradient>
<linearGradient id="paint1_linear_1264_13519" x1="23.5684" y1="16.0868" x2="1014.46" y2="498.836" gradientUnits="userSpaceOnUse">
<stop stop-color="#88A1AC"/>
<stop offset="1" stop-color="#282F3F"/>
</linearGradient>
<linearGradient id="paint2_linear_1264_13519" x1="23.5684" y1="16.0868" x2="1014.46" y2="498.836" gradientUnits="userSpaceOnUse">
<stop stop-color="#88A1AC"/>
<stop offset="1" stop-color="#282F3F"/>
</linearGradient>
<linearGradient id="paint3_linear_1264_13519" x1="23.5684" y1="16.0868" x2="1014.46" y2="498.836" gradientUnits="userSpaceOnUse">
<stop stop-color="#88A1AC"/>
<stop offset="1" stop-color="#282F3F"/>
</linearGradient>
<linearGradient id="paint4_linear_1264_13519" x1="23.5684" y1="16.0868" x2="1014.46" y2="498.836" gradientUnits="userSpaceOnUse">
<stop stop-color="#88A1AC"/>
<stop offset="1" stop-color="#282F3F"/>
</linearGradient>
<linearGradient id="paint5_linear_1264_13519" x1="23.5684" y1="16.0868" x2="1014.46" y2="498.836" gradientUnits="userSpaceOnUse">
<stop stop-color="#88A1AC"/>
<stop offset="1" stop-color="#282F3F"/>
</linearGradient>
<linearGradient id="paint6_linear_1264_13519" x1="23.5684" y1="16.0868" x2="1014.46" y2="498.836" gradientUnits="userSpaceOnUse">
<stop stop-color="#88A1AC"/>
<stop offset="1" stop-color="#282F3F"/>
</linearGradient>
<linearGradient id="paint7_linear_1264_13519" x1="23.5684" y1="16.0868" x2="1014.46" y2="498.836" gradientUnits="userSpaceOnUse">
<stop stop-color="#88A1AC"/>
<stop offset="1" stop-color="#282F3F"/>
</linearGradient>
<linearGradient id="paint8_linear_1264_13519" x1="23.5684" y1="16.0868" x2="1014.46" y2="498.836" gradientUnits="userSpaceOnUse">
<stop stop-color="#88A1AC"/>
<stop offset="1" stop-color="#282F3F"/>
</linearGradient>
<linearGradient id="paint9_linear_1264_13519" x1="23.5684" y1="16.0868" x2="1014.46" y2="498.836" gradientUnits="userSpaceOnUse">
<stop stop-color="#88A1AC"/>
<stop offset="1" stop-color="#282F3F"/>
</linearGradient>
<linearGradient id="paint10_linear_1264_13519" x1="23.5684" y1="16.0868" x2="1014.46" y2="498.836" gradientUnits="userSpaceOnUse">
<stop stop-color="#88A1AC"/>
<stop offset="1" stop-color="#282F3F"/>
</linearGradient>
<linearGradient id="paint11_linear_1264_13519" x1="23.5684" y1="16.0868" x2="1014.46" y2="498.836" gradientUnits="userSpaceOnUse">
<stop stop-color="#88A1AC"/>
<stop offset="1" stop-color="#282F3F"/>
</linearGradient>
<linearGradient id="paint12_linear_1264_13519" x1="23.5684" y1="16.0868" x2="1014.46" y2="498.836" gradientUnits="userSpaceOnUse">
<stop stop-color="#88A1AC"/>
<stop offset="1" stop-color="#282F3F"/>
</linearGradient>
<linearGradient id="paint13_linear_1264_13519" x1="23.5684" y1="16.0868" x2="1014.46" y2="498.836" gradientUnits="userSpaceOnUse">
<stop stop-color="#88A1AC"/>
<stop offset="1" stop-color="#282F3F"/>
</linearGradient>
<linearGradient id="paint14_linear_1264_13519" x1="23.5684" y1="16.0868" x2="1014.46" y2="498.836" gradientUnits="userSpaceOnUse">
<stop stop-color="#88A1AC"/>
<stop offset="1" stop-color="#282F3F"/>
</linearGradient>
<linearGradient id="paint15_linear_1264_13519" x1="23.5684" y1="16.0868" x2="1014.46" y2="498.836" gradientUnits="userSpaceOnUse">
<stop stop-color="#88A1AC"/>
<stop offset="1" stop-color="#282F3F"/>
</linearGradient>
<linearGradient id="paint16_linear_1264_13519" x1="23.5684" y1="16.0868" x2="1014.46" y2="498.836" gradientUnits="userSpaceOnUse">
<stop stop-color="#88A1AC"/>
<stop offset="1" stop-color="#282F3F"/>
</linearGradient>
<linearGradient id="paint17_linear_1264_13519" x1="23.5684" y1="16.0868" x2="1014.46" y2="498.836" gradientUnits="userSpaceOnUse">
<stop stop-color="#88A1AC"/>
<stop offset="1" stop-color="#282F3F"/>
</linearGradient>
<linearGradient id="paint18_linear_1264_13519" x1="23.5684" y1="16.0868" x2="1014.46" y2="498.836" gradientUnits="userSpaceOnUse">
<stop stop-color="#88A1AC"/>
<stop offset="1" stop-color="#282F3F"/>
</linearGradient>
<linearGradient id="paint19_linear_1264_13519" x1="23.5684" y1="16.0868" x2="1014.46" y2="498.836" gradientUnits="userSpaceOnUse">
<stop stop-color="#88A1AC"/>
<stop offset="1" stop-color="#282F3F"/>
</linearGradient>
<linearGradient id="paint20_linear_1264_13519" x1="23.5684" y1="16.0868" x2="1014.46" y2="498.836" gradientUnits="userSpaceOnUse">
<stop stop-color="#88A1AC"/>
<stop offset="1" stop-color="#282F3F"/>
</linearGradient>
<linearGradient id="paint21_linear_1264_13519" x1="23.5684" y1="16.0868" x2="1014.46" y2="498.836" gradientUnits="userSpaceOnUse">
<stop stop-color="#88A1AC"/>
<stop offset="1" stop-color="#282F3F"/>
</linearGradient>
<linearGradient id="paint22_linear_1264_13519" x1="23.5684" y1="16.0868" x2="1014.46" y2="498.836" gradientUnits="userSpaceOnUse">
<stop stop-color="#88A1AC"/>
<stop offset="1" stop-color="#282F3F"/>
</linearGradient>
<linearGradient id="paint23_linear_1264_13519" x1="23.5684" y1="16.0868" x2="1014.46" y2="498.836" gradientUnits="userSpaceOnUse">
<stop stop-color="#88A1AC"/>
<stop offset="1" stop-color="#282F3F"/>
</linearGradient>
<linearGradient id="paint24_linear_1264_13519" x1="23.5684" y1="16.0868" x2="1014.46" y2="498.836" gradientUnits="userSpaceOnUse">
<stop stop-color="#88A1AC"/>
<stop offset="1" stop-color="#282F3F"/>
</linearGradient>
<linearGradient id="paint25_linear_1264_13519" x1="23.5684" y1="16.0868" x2="1014.46" y2="498.836" gradientUnits="userSpaceOnUse">
<stop stop-color="#88A1AC"/>
<stop offset="1" stop-color="#282F3F"/>
</linearGradient>
<linearGradient id="paint26_linear_1264_13519" x1="23.5684" y1="16.0868" x2="1014.46" y2="498.836" gradientUnits="userSpaceOnUse">
<stop stop-color="#88A1AC"/>
<stop offset="1" stop-color="#282F3F"/>
</linearGradient>
</defs>
</svg>
