<svg width="170" height="25" viewBox="0 0 170 25" fill="none" xmlns="http://www.w3.org/2000/svg">
<path d="M5.69991 19.744H6.90391C8.28525 19.744 9.27458 19.5667 9.87191 19.212C10.4692 18.8573 10.7679 18.288 10.7679 17.504C10.7679 16.72 10.4692 16.1507 9.87191 15.796C9.27458 15.4413 8.28525 15.264 6.90391 15.264H5.69991V19.744ZM5.69991 11.176H6.70791C8.42525 11.176 9.28391 10.4947 9.28391 9.13201C9.28391 7.76934 8.42525 7.08801 6.70791 7.08801H5.69991V11.176ZM0.211914 2.88801H8.38791C10.3292 2.88801 11.8039 3.35468 12.8119 4.28801C13.8199 5.22134 14.3239 6.56534 14.3239 8.32001C14.3239 9.38401 14.1279 10.2707 13.7359 10.98C13.3626 11.6707 12.7839 12.2587 11.9999 12.744C12.7839 12.8933 13.4466 13.1267 13.9879 13.444C14.5479 13.7427 14.9959 14.116 15.3319 14.564C15.6866 15.012 15.9386 15.516 16.0879 16.076C16.2372 16.636 16.3119 17.2333 16.3119 17.868C16.3119 18.8573 16.1346 19.7347 15.7799 20.5C15.4439 21.2653 14.9586 21.9093 14.3239 22.432C13.7079 22.9547 12.9519 23.3467 12.0559 23.608C11.1599 23.8693 10.1519 24 9.03191 24H0.211914V2.88801Z" fill="#282F3F"/>
<path d="M24.1906 9.63601V17.728C24.1906 19.5013 25.0493 20.388 26.7666 20.388C28.484 20.388 29.3426 19.5013 29.3426 17.728V9.63601H34.4106V18.708C34.4106 20.6493 33.7666 22.1053 32.4786 23.076C31.2093 24.0467 29.3053 24.532 26.7666 24.532C24.228 24.532 22.3146 24.0467 21.0266 23.076C19.7573 22.1053 19.1226 20.6493 19.1226 18.708V9.63601H24.1906Z" fill="#282F3F"/>
<path d="M42.9211 9.63601V24H37.8531V9.63601H42.9211ZM37.5171 4.12001C37.5171 3.72801 37.5918 3.36401 37.7411 3.02801C37.8904 2.67334 38.0958 2.36534 38.3571 2.10401C38.6184 1.84268 38.9171 1.63734 39.2531 1.48801C39.6078 1.33868 39.9811 1.26401 40.3731 1.26401C40.7651 1.26401 41.1291 1.33868 41.4651 1.48801C41.8198 1.63734 42.1278 1.84268 42.3891 2.10401C42.6504 2.36534 42.8558 2.67334 43.0051 3.02801C43.1544 3.36401 43.2291 3.72801 43.2291 4.12001C43.2291 4.51201 43.1544 4.88534 43.0051 5.24001C42.8558 5.57601 42.6504 5.87468 42.3891 6.13601C42.1278 6.39734 41.8198 6.60268 41.4651 6.75201C41.1291 6.90134 40.7651 6.97601 40.3731 6.97601C39.9811 6.97601 39.6078 6.90134 39.2531 6.75201C38.9171 6.60268 38.6184 6.39734 38.3571 6.13601C38.0958 5.87468 37.8904 5.57601 37.7411 5.24001C37.5918 4.88534 37.5171 4.51201 37.5171 4.12001Z" fill="#282F3F"/>
<path d="M51.4524 0.76001V24H46.3843V0.76001H51.4524Z" fill="#282F3F"/>
<path d="M59.6196 16.776C59.6196 17.2427 59.7036 17.6813 59.8716 18.092C60.0396 18.484 60.2636 18.8293 60.5436 19.128C60.8423 19.4267 61.1876 19.66 61.5796 19.828C61.9903 19.996 62.4289 20.08 62.8956 20.08C63.3436 20.08 63.7636 19.996 64.1556 19.828C64.5663 19.66 64.9116 19.4267 65.1916 19.128C65.4903 18.8293 65.7236 18.484 65.8916 18.092C66.0783 17.7 66.1716 17.28 66.1716 16.832C66.1716 16.384 66.0783 15.964 65.8916 15.572C65.7236 15.1613 65.4903 14.8067 65.1916 14.508C64.9116 14.2093 64.5663 13.976 64.1556 13.808C63.7636 13.64 63.3436 13.556 62.8956 13.556C62.4476 13.556 62.0183 13.64 61.6076 13.808C61.2156 13.976 60.8703 14.2093 60.5716 14.508C60.2916 14.8067 60.0583 15.152 59.8716 15.544C59.7036 15.9173 59.6196 16.328 59.6196 16.776ZM66.0036 0.76001H71.0996V24H66.0036V22.404C64.9209 23.7667 63.4556 24.448 61.6076 24.448C60.5623 24.448 59.6009 24.252 58.7236 23.86C57.8463 23.468 57.0809 22.9267 56.4276 22.236C55.7743 21.5453 55.2609 20.7333 54.8876 19.8C54.5329 18.8667 54.3556 17.8587 54.3556 16.776C54.3556 15.7493 54.5236 14.7787 54.8596 13.864C55.2143 12.9307 55.7089 12.1187 56.3436 11.428C56.9783 10.7373 57.7343 10.196 58.6116 9.80401C59.5076 9.39334 60.4876 9.18801 61.5516 9.18801C63.3436 9.18801 64.8276 9.81334 66.0036 11.064V0.76001Z" fill="#282F3F"/>
<path d="M78.5524 2.88801L82.1924 16.524L86.6724 2.88801H91.0404L95.5204 16.524L99.1604 2.88801H104.9L98.6004 24H93.0004L88.8564 11.764L84.7124 24H79.1124L72.8124 2.88801H78.5524Z" fill="#282F3F"/>
<path d="M110.426 16.748C110.426 17.2333 110.51 17.6813 110.678 18.092C110.865 18.484 111.098 18.8293 111.378 19.128C111.677 19.4267 112.022 19.66 112.414 19.828C112.825 19.996 113.254 20.08 113.702 20.08C114.15 20.08 114.57 19.996 114.962 19.828C115.373 19.66 115.718 19.4267 115.998 19.128C116.297 18.8293 116.53 18.484 116.698 18.092C116.885 17.6813 116.978 17.2427 116.978 16.776C116.978 16.328 116.885 15.908 116.698 15.516C116.53 15.1053 116.297 14.7507 115.998 14.452C115.718 14.1533 115.373 13.92 114.962 13.752C114.57 13.584 114.15 13.5 113.702 13.5C113.254 13.5 112.825 13.584 112.414 13.752C112.022 13.92 111.677 14.1533 111.378 14.452C111.098 14.7507 110.865 15.096 110.678 15.488C110.51 15.88 110.426 16.3 110.426 16.748ZM105.078 16.692C105.078 15.628 105.293 14.6387 105.722 13.724C106.152 12.7907 106.749 11.988 107.514 11.316C108.28 10.6253 109.185 10.084 110.23 9.69201C111.294 9.30001 112.452 9.10401 113.702 9.10401C114.934 9.10401 116.073 9.30001 117.118 9.69201C118.182 10.0653 119.097 10.5973 119.862 11.288C120.646 11.96 121.253 12.772 121.682 13.724C122.112 14.6573 122.326 15.6933 122.326 16.832C122.326 17.9707 122.102 19.016 121.654 19.968C121.225 20.9013 120.628 21.7133 119.862 22.404C119.097 23.076 118.173 23.5987 117.09 23.972C116.026 24.3453 114.869 24.532 113.618 24.532C112.386 24.532 111.248 24.3453 110.202 23.972C109.157 23.5987 108.252 23.0667 107.486 22.376C106.74 21.6853 106.152 20.864 105.722 19.912C105.293 18.9413 105.078 17.868 105.078 16.692Z" fill="#282F3F"/>
<path d="M125.244 9.63601H130.312V11.988C130.853 11.1293 131.516 10.476 132.3 10.028C133.084 9.56134 133.998 9.32801 135.044 9.32801C135.174 9.32801 135.314 9.32801 135.464 9.32801C135.632 9.32801 135.818 9.34668 136.024 9.38401V14.228C135.352 13.892 134.624 13.724 133.84 13.724C132.664 13.724 131.777 14.0787 131.18 14.788C130.601 15.4787 130.312 16.496 130.312 17.84V24H125.244V9.63601Z" fill="#282F3F"/>
<path d="M143.355 0.76001V14.816L148.675 9.63601H155.619L148.423 16.272L156.039 24H148.927L143.355 18.148V24H138.287V0.76001H143.355Z" fill="#282F3F"/>
<path d="M167.74 13.332C166.807 12.8467 165.892 12.604 164.996 12.604C164.53 12.604 164.147 12.6973 163.848 12.884C163.568 13.0707 163.428 13.3227 163.428 13.64C163.428 13.808 163.447 13.948 163.484 14.06C163.54 14.1533 163.643 14.2467 163.792 14.34C163.96 14.4333 164.194 14.5173 164.492 14.592C164.81 14.6667 165.22 14.76 165.724 14.872C167.124 15.152 168.17 15.656 168.86 16.384C169.551 17.0933 169.896 18.008 169.896 19.128C169.896 19.968 169.728 20.724 169.392 21.396C169.056 22.068 168.59 22.6373 167.992 23.104C167.395 23.552 166.676 23.8973 165.836 24.14C164.996 24.4013 164.072 24.532 163.064 24.532C161.123 24.532 159.21 23.9813 157.324 22.88L159.172 19.296C160.591 20.2667 161.935 20.752 163.204 20.752C163.671 20.752 164.054 20.6493 164.352 20.444C164.651 20.2387 164.8 19.9773 164.8 19.66C164.8 19.4733 164.772 19.324 164.716 19.212C164.679 19.0813 164.586 18.9693 164.436 18.876C164.287 18.764 164.063 18.6707 163.764 18.596C163.484 18.5027 163.111 18.4093 162.644 18.316C161.076 17.9987 159.975 17.532 159.34 16.916C158.724 16.2813 158.416 15.4133 158.416 14.312C158.416 13.5093 158.566 12.7907 158.864 12.156C159.163 11.5027 159.592 10.952 160.152 10.504C160.712 10.056 161.384 9.71068 162.168 9.46801C162.971 9.22534 163.858 9.10401 164.828 9.10401C166.415 9.10401 167.955 9.41201 169.448 10.028L167.74 13.332Z" fill="#282F3F"/>
</svg>
