<svg width="600" height="622" viewBox="0 0 600 622" fill="none" xmlns="http://www.w3.org/2000/svg">
<g filter="url(#filter0_dd_1373_36531)">
<g clip-path="url(#clip0_1373_36531)">
<rect x="41" y="32" width="518" height="540" rx="13.5" fill="black"/>
<rect x="41" y="32" width="518" height="540" rx="13.5" fill="black"/>
<g filter="url(#filter1_bd_1373_36531)">
<g filter="url(#filter2_d_1373_36531)">
<rect x="50" y="86" width="500" height="36" rx="18" fill="#242424"/>
<path d="M75.5555 101.595L72.8825 108.75H71.6405L69.575 103.323L67.4825 108.75H66.2405L63.581 101.595H64.8095L66.8885 107.292L69.0485 101.595H70.142L72.2615 107.319L74.3945 101.595H75.5555ZM87.9971 101.595L85.3241 108.75H84.0821L82.0166 103.323L79.9241 108.75H78.6821L76.0226 101.595H77.2511L79.3301 107.292L81.4901 101.595H82.5836L84.7031 107.319L86.8361 101.595H87.9971ZM100.439 101.595L97.7657 108.75H96.5237L94.4582 103.323L92.3657 108.75H91.1237L88.4642 101.595H89.6927L91.7717 107.292L93.9317 101.595H95.0252L97.1447 107.319L99.2777 101.595H100.439ZM102.021 108.831C101.769 108.831 101.553 108.745 101.373 108.574C101.193 108.395 101.103 108.169 101.103 107.899C101.103 107.638 101.193 107.422 101.373 107.251C101.553 107.071 101.769 106.981 102.021 106.981C102.273 106.981 102.485 107.067 102.656 107.238C102.827 107.409 102.912 107.629 102.912 107.899C102.912 108.169 102.822 108.395 102.642 108.574C102.471 108.745 102.264 108.831 102.021 108.831ZM108.995 101.527C109.904 101.527 110.624 101.793 111.155 102.324C111.695 102.846 111.965 103.615 111.965 104.632V108.75H110.669V104.781C110.669 104.088 110.502 103.566 110.169 103.215C109.836 102.864 109.359 102.688 108.738 102.688C108.036 102.688 107.483 102.895 107.078 103.309C106.673 103.714 106.47 104.299 106.47 105.064V108.75H105.174V101.595H106.416V102.675C106.677 102.306 107.028 102.022 107.469 101.824C107.919 101.626 108.428 101.527 108.995 101.527ZM114.768 101.595H116.064V108.75H114.768V101.595ZM115.416 100.218C115.164 100.218 114.953 100.137 114.782 99.975C114.62 99.813 114.539 99.615 114.539 99.381C114.539 99.147 114.62 98.949 114.782 98.787C114.953 98.616 115.164 98.5305 115.416 98.5305C115.668 98.5305 115.875 98.6115 116.037 98.7735C116.208 98.9265 116.294 99.12 116.294 99.354C116.294 99.597 116.208 99.804 116.037 99.975C115.875 100.137 115.668 100.218 115.416 100.218ZM122.764 101.527C123.673 101.527 124.393 101.793 124.924 102.324C125.464 102.846 125.734 103.615 125.734 104.632V108.75H124.438V104.781C124.438 104.088 124.272 103.566 123.939 103.215C123.606 102.864 123.129 102.688 122.508 102.688C121.806 102.688 121.252 102.895 120.847 103.309C120.442 103.714 120.24 104.299 120.24 105.064V108.75H118.944V101.595H120.186V102.675C120.447 102.306 120.798 102.022 121.239 101.824C121.689 101.626 122.197 101.527 122.764 101.527ZM127.62 111.45C127.305 111.45 127.012 111.414 126.742 111.342C126.472 111.27 126.247 111.162 126.067 111.018L126.486 110.019C126.756 110.244 127.107 110.357 127.539 110.357C127.881 110.357 128.142 110.249 128.322 110.033C128.511 109.826 128.605 109.515 128.605 109.101V101.595H129.901V109.074C129.901 109.812 129.703 110.393 129.307 110.816C128.911 111.239 128.349 111.45 127.62 111.45ZM129.253 100.218C129.001 100.218 128.79 100.137 128.619 99.975C128.457 99.813 128.376 99.615 128.376 99.381C128.376 99.147 128.457 98.949 128.619 98.787C128.79 98.616 129.001 98.5305 129.253 98.5305C129.505 98.5305 129.712 98.6115 129.874 98.7735C130.045 98.9265 130.131 99.12 130.131 99.354C130.131 99.597 130.045 99.804 129.874 99.975C129.712 100.137 129.505 100.218 129.253 100.218ZM135.385 101.527C136.375 101.527 137.131 101.77 137.653 102.256C138.184 102.742 138.449 103.467 138.449 104.43V108.75H137.221V107.805C137.005 108.138 136.694 108.395 136.289 108.574C135.893 108.745 135.421 108.831 134.872 108.831C134.071 108.831 133.427 108.637 132.941 108.25C132.464 107.863 132.226 107.355 132.226 106.725C132.226 106.095 132.455 105.591 132.914 105.213C133.373 104.826 134.102 104.632 135.101 104.632H137.153V104.376C137.153 103.818 136.991 103.39 136.667 103.093C136.343 102.796 135.866 102.648 135.236 102.648C134.813 102.648 134.399 102.72 133.994 102.864C133.589 102.999 133.247 103.183 132.968 103.417L132.428 102.445C132.797 102.148 133.238 101.923 133.751 101.77C134.264 101.608 134.809 101.527 135.385 101.527ZM135.088 107.832C135.583 107.832 136.01 107.724 136.37 107.508C136.73 107.283 136.991 106.968 137.153 106.563V105.564H135.155C134.057 105.564 133.508 105.933 133.508 106.671C133.508 107.031 133.648 107.314 133.927 107.521C134.206 107.728 134.593 107.832 135.088 107.832ZM145.046 101.527C145.739 101.527 146.36 101.68 146.909 101.986C147.458 102.292 147.885 102.72 148.191 103.269C148.506 103.818 148.664 104.452 148.664 105.172C148.664 105.892 148.506 106.531 148.191 107.089C147.885 107.638 147.458 108.066 146.909 108.372C146.36 108.678 145.739 108.831 145.046 108.831C144.533 108.831 144.06 108.732 143.628 108.534C143.205 108.336 142.845 108.048 142.548 107.67V111.369H141.252V101.595H142.494V102.729C142.782 102.333 143.147 102.036 143.588 101.838C144.029 101.631 144.515 101.527 145.046 101.527ZM144.938 107.697C145.397 107.697 145.806 107.593 146.166 107.386C146.535 107.17 146.823 106.873 147.03 106.495C147.246 106.108 147.354 105.667 147.354 105.172C147.354 104.677 147.246 104.241 147.03 103.863C146.823 103.476 146.535 103.179 146.166 102.972C145.806 102.765 145.397 102.661 144.938 102.661C144.488 102.661 144.078 102.769 143.709 102.985C143.349 103.192 143.061 103.485 142.845 103.863C142.638 104.241 142.535 104.677 142.535 105.172C142.535 105.667 142.638 106.108 142.845 106.495C143.052 106.873 143.34 107.17 143.709 107.386C144.078 107.593 144.488 107.697 144.938 107.697ZM153.399 101.527C154.389 101.527 155.145 101.77 155.667 102.256C156.198 102.742 156.464 103.467 156.464 104.43V108.75H155.235V107.805C155.019 108.138 154.709 108.395 154.304 108.574C153.908 108.745 153.435 108.831 152.886 108.831C152.085 108.831 151.442 108.637 150.956 108.25C150.479 107.863 150.24 107.355 150.24 106.725C150.24 106.095 150.47 105.591 150.929 105.213C151.388 104.826 152.117 104.632 153.116 104.632H155.168V104.376C155.168 103.818 155.006 103.39 154.682 103.093C154.358 102.796 153.881 102.648 153.251 102.648C152.828 102.648 152.414 102.72 152.009 102.864C151.604 102.999 151.262 103.183 150.983 103.417L150.443 102.445C150.812 102.148 151.253 101.923 151.766 101.77C152.279 101.608 152.823 101.527 153.399 101.527ZM153.102 107.832C153.597 107.832 154.025 107.724 154.385 107.508C154.745 107.283 155.006 106.968 155.168 106.563V105.564H153.17C152.072 105.564 151.523 105.933 151.523 106.671C151.523 107.031 151.662 107.314 151.941 107.521C152.22 107.728 152.607 107.832 153.102 107.832ZM165.467 101.595L161.997 109.466C161.691 110.195 161.331 110.708 160.917 111.005C160.512 111.302 160.022 111.45 159.446 111.45C159.095 111.45 158.753 111.392 158.42 111.275C158.096 111.167 157.826 111.005 157.61 110.789L158.163 109.817C158.532 110.168 158.96 110.343 159.446 110.343C159.761 110.343 160.022 110.258 160.229 110.087C160.445 109.925 160.638 109.641 160.809 109.236L161.039 108.736L157.88 101.595H159.23L161.727 107.319L164.198 101.595H165.467ZM166.943 108.831C166.691 108.831 166.475 108.745 166.295 108.574C166.115 108.395 166.025 108.169 166.025 107.899C166.025 107.638 166.115 107.422 166.295 107.251C166.475 107.071 166.691 106.981 166.943 106.981C167.195 106.981 167.407 107.067 167.578 107.238C167.749 107.409 167.834 107.629 167.834 107.899C167.834 108.169 167.744 108.395 167.564 108.574C167.393 108.745 167.186 108.831 166.943 108.831ZM179.047 101.527C179.947 101.527 180.658 101.788 181.18 102.31C181.711 102.832 181.977 103.606 181.977 104.632V108.75H180.681V104.781C180.681 104.088 180.519 103.566 180.195 103.215C179.88 102.864 179.425 102.688 178.831 102.688C178.174 102.688 177.652 102.895 177.265 103.309C176.878 103.714 176.685 104.299 176.685 105.064V108.75H175.389V104.781C175.389 104.088 175.227 103.566 174.903 103.215C174.588 102.864 174.133 102.688 173.539 102.688C172.882 102.688 172.36 102.895 171.973 103.309C171.586 103.714 171.393 104.299 171.393 105.064V108.75H170.097V101.595H171.339V102.661C171.6 102.292 171.942 102.013 172.365 101.824C172.788 101.626 173.269 101.527 173.809 101.527C174.367 101.527 174.862 101.64 175.294 101.865C175.726 102.09 176.059 102.418 176.293 102.85C176.563 102.436 176.937 102.112 177.414 101.878C177.9 101.644 178.444 101.527 179.047 101.527ZM191.272 105.213C191.272 105.312 191.263 105.442 191.245 105.604H185.44C185.521 106.234 185.796 106.743 186.264 107.13C186.741 107.508 187.33 107.697 188.032 107.697C188.887 107.697 189.576 107.409 190.098 106.833L190.813 107.67C190.489 108.048 190.084 108.336 189.598 108.534C189.121 108.732 188.586 108.831 187.992 108.831C187.236 108.831 186.565 108.678 185.98 108.372C185.395 108.057 184.941 107.62 184.617 107.062C184.302 106.504 184.144 105.874 184.144 105.172C184.144 104.479 184.297 103.854 184.603 103.296C184.918 102.738 185.346 102.306 185.886 102C186.435 101.685 187.051 101.527 187.735 101.527C188.419 101.527 189.027 101.685 189.558 102C190.098 102.306 190.516 102.738 190.813 103.296C191.119 103.854 191.272 104.493 191.272 105.213ZM187.735 102.621C187.114 102.621 186.592 102.81 186.169 103.188C185.755 103.566 185.512 104.061 185.44 104.673H190.03C189.958 104.07 189.711 103.579 189.288 103.201C188.874 102.814 188.356 102.621 187.735 102.621ZM196.325 97.383H197.5L193.045 110.1H191.87L196.325 97.383ZM199.77 108.831C199.185 108.831 198.623 108.754 198.083 108.601C197.543 108.439 197.12 108.237 196.814 107.994L197.354 106.968C197.669 107.193 198.051 107.373 198.501 107.508C198.951 107.643 199.406 107.71 199.865 107.71C200.999 107.71 201.566 107.386 201.566 106.738C201.566 106.522 201.489 106.351 201.336 106.225C201.183 106.099 200.99 106.009 200.756 105.955C200.531 105.892 200.207 105.825 199.784 105.753C199.208 105.663 198.735 105.559 198.366 105.442C198.006 105.325 197.696 105.127 197.435 104.848C197.174 104.569 197.043 104.178 197.043 103.674C197.043 103.026 197.313 102.508 197.853 102.121C198.393 101.725 199.118 101.527 200.027 101.527C200.504 101.527 200.981 101.586 201.458 101.703C201.935 101.82 202.326 101.977 202.632 102.175L202.079 103.201C201.494 102.823 200.805 102.634 200.013 102.634C199.464 102.634 199.046 102.724 198.758 102.904C198.47 103.084 198.326 103.323 198.326 103.62C198.326 103.854 198.407 104.038 198.569 104.173C198.731 104.308 198.929 104.407 199.163 104.47C199.406 104.533 199.743 104.605 200.175 104.686C200.751 104.785 201.215 104.893 201.566 105.01C201.926 105.118 202.232 105.307 202.484 105.577C202.736 105.847 202.862 106.225 202.862 106.711C202.862 107.359 202.583 107.877 202.025 108.264C201.476 108.642 200.724 108.831 199.77 108.831ZM207.492 101.527C208.482 101.527 209.238 101.77 209.76 102.256C210.291 102.742 210.556 103.467 210.556 104.43V108.75H209.328V107.805C209.112 108.138 208.801 108.395 208.396 108.574C208 108.745 207.528 108.831 206.979 108.831C206.178 108.831 205.534 108.637 205.048 108.25C204.571 107.863 204.333 107.355 204.333 106.725C204.333 106.095 204.562 105.591 205.021 105.213C205.48 104.826 206.209 104.632 207.208 104.632H209.26V104.376C209.26 103.818 209.098 103.39 208.774 103.093C208.45 102.796 207.973 102.648 207.343 102.648C206.92 102.648 206.506 102.72 206.101 102.864C205.696 102.999 205.354 103.183 205.075 103.417L204.535 102.445C204.904 102.148 205.345 101.923 205.858 101.77C206.371 101.608 206.916 101.527 207.492 101.527ZM207.195 107.832C207.69 107.832 208.117 107.724 208.477 107.508C208.837 107.283 209.098 106.968 209.26 106.563V105.564H207.262C206.164 105.564 205.615 105.933 205.615 106.671C205.615 107.031 205.755 107.314 206.034 107.521C206.313 107.728 206.7 107.832 207.195 107.832ZM217.18 101.527C218.089 101.527 218.809 101.793 219.34 102.324C219.88 102.846 220.15 103.615 220.15 104.632V108.75H218.854V104.781C218.854 104.088 218.688 103.566 218.355 103.215C218.022 102.864 217.545 102.688 216.924 102.688C216.222 102.688 215.668 102.895 215.263 103.309C214.858 103.714 214.656 104.299 214.656 105.064V108.75H213.36V101.595H214.602V102.675C214.863 102.306 215.214 102.022 215.655 101.824C216.105 101.626 216.613 101.527 217.18 101.527ZM226.977 108.331C226.788 108.493 226.554 108.619 226.275 108.709C225.996 108.791 225.708 108.831 225.411 108.831C224.691 108.831 224.133 108.637 223.737 108.25C223.341 107.863 223.143 107.31 223.143 106.59V102.661H221.928V101.595H223.143V100.029H224.439V101.595H226.491V102.661H224.439V106.536C224.439 106.923 224.533 107.22 224.722 107.427C224.92 107.634 225.199 107.737 225.559 107.737C225.955 107.737 226.293 107.625 226.572 107.4L226.977 108.331ZM231.776 108.831C231.065 108.831 230.426 108.673 229.859 108.358C229.292 108.043 228.846 107.611 228.522 107.062C228.207 106.504 228.05 105.874 228.05 105.172C228.05 104.47 228.207 103.845 228.522 103.296C228.846 102.738 229.292 102.306 229.859 102C230.426 101.685 231.065 101.527 231.776 101.527C232.487 101.527 233.121 101.685 233.679 102C234.246 102.306 234.687 102.738 235.002 103.296C235.326 103.845 235.488 104.47 235.488 105.172C235.488 105.874 235.326 106.504 235.002 107.062C234.687 107.611 234.246 108.043 233.679 108.358C233.121 108.673 232.487 108.831 231.776 108.831ZM231.776 107.697C232.235 107.697 232.644 107.593 233.004 107.386C233.373 107.17 233.661 106.873 233.868 106.495C234.075 106.108 234.179 105.667 234.179 105.172C234.179 104.677 234.075 104.241 233.868 103.863C233.661 103.476 233.373 103.179 233.004 102.972C232.644 102.765 232.235 102.661 231.776 102.661C231.317 102.661 230.903 102.765 230.534 102.972C230.174 103.179 229.886 103.476 229.67 103.863C229.463 104.241 229.359 104.677 229.359 105.172C229.359 105.667 229.463 106.108 229.67 106.495C229.886 106.873 230.174 107.17 230.534 107.386C230.903 107.593 231.317 107.697 231.776 107.697ZM239.738 108.831C239.153 108.831 238.59 108.754 238.05 108.601C237.51 108.439 237.087 108.237 236.781 107.994L237.321 106.968C237.636 107.193 238.019 107.373 238.469 107.508C238.919 107.643 239.373 107.71 239.832 107.71C240.966 107.71 241.533 107.386 241.533 106.738C241.533 106.522 241.457 106.351 241.304 106.225C241.151 106.099 240.957 106.009 240.723 105.955C240.498 105.892 240.174 105.825 239.751 105.753C239.175 105.663 238.703 105.559 238.334 105.442C237.974 105.325 237.663 105.127 237.402 104.848C237.141 104.569 237.011 104.178 237.011 103.674C237.011 103.026 237.281 102.508 237.821 102.121C238.361 101.725 239.085 101.527 239.994 101.527C240.471 101.527 240.948 101.586 241.425 101.703C241.902 101.82 242.294 101.977 242.6 102.175L242.046 103.201C241.461 102.823 240.773 102.634 239.981 102.634C239.432 102.634 239.013 102.724 238.725 102.904C238.437 103.084 238.293 103.323 238.293 103.62C238.293 103.854 238.374 104.038 238.536 104.173C238.698 104.308 238.896 104.407 239.13 104.47C239.373 104.533 239.711 104.605 240.143 104.686C240.719 104.785 241.182 104.893 241.533 105.01C241.893 105.118 242.199 105.307 242.451 105.577C242.703 105.847 242.829 106.225 242.829 106.711C242.829 107.359 242.55 107.877 241.992 108.264C241.443 108.642 240.692 108.831 239.738 108.831ZM248.674 101.527C249.583 101.527 250.303 101.793 250.834 102.324C251.374 102.846 251.644 103.615 251.644 104.632V108.75H250.348V104.781C250.348 104.088 250.182 103.566 249.849 103.215C249.516 102.864 249.039 102.688 248.418 102.688C247.716 102.688 247.162 102.895 246.757 103.309C246.352 103.714 246.15 104.299 246.15 105.064V108.75H244.854V98.733H246.15V102.607C246.42 102.265 246.771 102 247.203 101.811C247.644 101.622 248.134 101.527 248.674 101.527ZM254.448 101.595H255.744V108.75H254.448V101.595ZM255.096 100.218C254.844 100.218 254.632 100.137 254.461 99.975C254.299 99.813 254.218 99.615 254.218 99.381C254.218 99.147 254.299 98.949 254.461 98.787C254.632 98.616 254.844 98.5305 255.096 98.5305C255.348 98.5305 255.555 98.6115 255.717 98.7735C255.888 98.9265 255.973 99.12 255.973 99.354C255.973 99.597 255.888 99.804 255.717 99.975C255.555 100.137 255.348 100.218 255.096 100.218ZM262.444 101.527C263.353 101.527 264.073 101.793 264.604 102.324C265.144 102.846 265.414 103.615 265.414 104.632V108.75H264.118V104.781C264.118 104.088 263.951 103.566 263.618 103.215C263.285 102.864 262.808 102.688 262.187 102.688C261.485 102.688 260.932 102.895 260.527 103.309C260.122 103.714 259.919 104.299 259.919 105.064V108.75H258.623V101.595H259.865V102.675C260.126 102.306 260.477 102.022 260.918 101.824C261.368 101.626 261.877 101.527 262.444 101.527ZM270.823 101.527C271.813 101.527 272.569 101.77 273.091 102.256C273.622 102.742 273.887 103.467 273.887 104.43V108.75H272.659V107.805C272.443 108.138 272.132 108.395 271.727 108.574C271.331 108.745 270.859 108.831 270.31 108.831C269.509 108.831 268.865 108.637 268.379 108.25C267.902 107.863 267.664 107.355 267.664 106.725C267.664 106.095 267.893 105.591 268.352 105.213C268.811 104.826 269.54 104.632 270.539 104.632H272.591V104.376C272.591 103.818 272.429 103.39 272.105 103.093C271.781 102.796 271.304 102.648 270.674 102.648C270.251 102.648 269.837 102.72 269.432 102.864C269.027 102.999 268.685 103.183 268.406 103.417L267.866 102.445C268.235 102.148 268.676 101.923 269.189 101.77C269.702 101.608 270.247 101.527 270.823 101.527ZM270.526 107.832C271.021 107.832 271.448 107.724 271.808 107.508C272.168 107.283 272.429 106.968 272.591 106.563V105.564H270.593C269.495 105.564 268.946 105.933 268.946 106.671C268.946 107.031 269.086 107.314 269.365 107.521C269.644 107.728 270.031 107.832 270.526 107.832ZM279.472 105.415L277.987 106.792V108.75H276.691V98.733H277.987V105.159L281.888 101.595H283.454L280.444 104.551L283.751 108.75H282.158L279.472 105.415ZM287.888 101.527C288.878 101.527 289.634 101.77 290.156 102.256C290.687 102.742 290.953 103.467 290.953 104.43V108.75H289.724V107.805C289.508 108.138 289.198 108.395 288.793 108.574C288.397 108.745 287.924 108.831 287.375 108.831C286.574 108.831 285.931 108.637 285.445 108.25C284.968 107.863 284.729 107.355 284.729 106.725C284.729 106.095 284.959 105.591 285.418 105.213C285.877 104.826 286.606 104.632 287.605 104.632H289.657V104.376C289.657 103.818 289.495 103.39 289.171 103.093C288.847 102.796 288.37 102.648 287.74 102.648C287.317 102.648 286.903 102.72 286.498 102.864C286.093 102.999 285.751 103.183 285.472 103.417L284.932 102.445C285.301 102.148 285.742 101.923 286.255 101.77C286.768 101.608 287.312 101.527 287.888 101.527ZM287.591 107.832C288.086 107.832 288.514 107.724 288.874 107.508C289.234 107.283 289.495 106.968 289.657 106.563V105.564H287.659C286.561 105.564 286.012 105.933 286.012 106.671C286.012 107.031 286.151 107.314 286.43 107.521C286.709 107.728 287.096 107.832 287.591 107.832ZM302.706 101.527C303.606 101.527 304.317 101.788 304.839 102.31C305.37 102.832 305.636 103.606 305.636 104.632V108.75H304.34V104.781C304.34 104.088 304.178 103.566 303.854 103.215C303.539 102.864 303.084 102.688 302.49 102.688C301.833 102.688 301.311 102.895 300.924 103.309C300.537 103.714 300.344 104.299 300.344 105.064V108.75H299.048V104.781C299.048 104.088 298.886 103.566 298.562 103.215C298.247 102.864 297.792 102.688 297.198 102.688C296.541 102.688 296.019 102.895 295.632 103.309C295.245 103.714 295.052 104.299 295.052 105.064V108.75H293.756V101.595H294.998V102.661C295.259 102.292 295.601 102.013 296.024 101.824C296.447 101.626 296.928 101.527 297.468 101.527C298.026 101.527 298.521 101.64 298.953 101.865C299.385 102.09 299.718 102.418 299.952 102.85C300.222 102.436 300.596 102.112 301.073 101.878C301.559 101.644 302.103 101.527 302.706 101.527ZM311.53 108.831C310.819 108.831 310.18 108.673 309.613 108.358C309.046 108.043 308.6 107.611 308.276 107.062C307.961 106.504 307.804 105.874 307.804 105.172C307.804 104.47 307.961 103.845 308.276 103.296C308.6 102.738 309.046 102.306 309.613 102C310.18 101.685 310.819 101.527 311.53 101.527C312.241 101.527 312.875 101.685 313.433 102C314 102.306 314.441 102.738 314.756 103.296C315.08 103.845 315.242 104.47 315.242 105.172C315.242 105.874 315.08 106.504 314.756 107.062C314.441 107.611 314 108.043 313.433 108.358C312.875 108.673 312.241 108.831 311.53 108.831ZM311.53 107.697C311.989 107.697 312.398 107.593 312.758 107.386C313.127 107.17 313.415 106.873 313.622 106.495C313.829 106.108 313.933 105.667 313.933 105.172C313.933 104.677 313.829 104.241 313.622 103.863C313.415 103.476 313.127 103.179 312.758 102.972C312.398 102.765 311.989 102.661 311.53 102.661C311.071 102.661 310.657 102.765 310.288 102.972C309.928 103.179 309.64 103.476 309.424 103.863C309.217 104.241 309.113 104.677 309.113 105.172C309.113 105.667 309.217 106.108 309.424 106.495C309.64 106.873 309.928 107.17 310.288 107.386C310.657 107.593 311.071 107.697 311.53 107.697ZM321.463 108.331C321.274 108.493 321.04 108.619 320.761 108.709C320.482 108.791 320.194 108.831 319.897 108.831C319.177 108.831 318.619 108.637 318.223 108.25C317.827 107.863 317.629 107.31 317.629 106.59V102.661H316.414V101.595H317.629V100.029H318.925V101.595H320.977V102.661H318.925V106.536C318.925 106.923 319.019 107.22 319.208 107.427C319.406 107.634 319.685 107.737 320.045 107.737C320.441 107.737 320.779 107.625 321.058 107.4L321.463 108.331ZM326.262 108.831C325.551 108.831 324.912 108.673 324.345 108.358C323.778 108.043 323.332 107.611 323.008 107.062C322.693 106.504 322.536 105.874 322.536 105.172C322.536 104.47 322.693 103.845 323.008 103.296C323.332 102.738 323.778 102.306 324.345 102C324.912 101.685 325.551 101.527 326.262 101.527C326.973 101.527 327.607 101.685 328.165 102C328.732 102.306 329.173 102.738 329.488 103.296C329.812 103.845 329.974 104.47 329.974 105.172C329.974 105.874 329.812 106.504 329.488 107.062C329.173 107.611 328.732 108.043 328.165 108.358C327.607 108.673 326.973 108.831 326.262 108.831ZM326.262 107.697C326.721 107.697 327.13 107.593 327.49 107.386C327.859 107.17 328.147 106.873 328.354 106.495C328.561 106.108 328.665 105.667 328.665 105.172C328.665 104.677 328.561 104.241 328.354 103.863C328.147 103.476 327.859 103.179 327.49 102.972C327.13 102.765 326.721 102.661 326.262 102.661C325.803 102.661 325.389 102.765 325.02 102.972C324.66 103.179 324.372 103.476 324.156 103.863C323.949 104.241 323.845 104.677 323.845 105.172C323.845 105.667 323.949 106.108 324.156 106.495C324.372 106.873 324.66 107.17 325.02 107.386C325.389 107.593 325.803 107.697 326.262 107.697Z" fill="#999999"/>
</g>
<g filter="url(#filter3_d_1373_36531)">
<circle cx="65.75" cy="59" r="6.75" fill="#242424"/>
</g>
<g filter="url(#filter4_d_1373_36531)">
<circle cx="88.25" cy="59" r="6.75" fill="#242424"/>
</g>
<g filter="url(#filter5_d_1373_36531)">
<circle cx="110.75" cy="59" r="6.75" fill="#242424"/>
</g>
</g>
</g>
<rect x="42" y="33" width="516" height="538" rx="12.5" stroke="#88A1AC" stroke-opacity="0.2" stroke-width="2"/>
</g>
<path fill-rule="evenodd" clip-rule="evenodd" d="M275.366 436.15V446.921H286.099V457.685H264.588V425.424H275.351V414.661H286.099V393.126H275.351V414.661H264.588V382.37H275.351V371.607H264.604V371.606H264.588V350.08H275.351V360.836H286.099V382.363H296.862V360.843H296.879V360.836H307.625V350.072H296.862V317.789H286.099V296.277H275.351V307.041H264.588V285.514H296.862V307.041H307.625V285.514H318.389V317.759H307.625V339.294H318.389V382.333H329.152V371.569H339.915V393.104H307.641V414.638L318.411 414.638V425.402H307.642V425.401H307.633V414.638L296.87 414.638V425.402H286.114V436.15H275.366ZM307.633 425.401H296.871V446.921H296.879H318.42V436.15H307.642V425.402H307.633V425.401ZM296.879 360.836V350.08H286.123V360.843H296.862V360.836H296.879ZM264.588 371.606H232.322V382.37H264.604V371.607H264.588V371.606ZM178.527 360.835H253.847V285.521H178.527V360.835ZM221.575 382.363V371.599H200.041V393.126H210.804V382.363H221.575ZM243.084 403.89H232.344V393.126H210.81V414.661H200.047V425.424H253.855V414.661H243.092V403.89H253.847V393.126H243.084V403.89ZM382.969 500.731H372.221V489.968H382.969V500.731ZM404.488 500.731H393.717V489.968H404.488V500.731ZM264.619 511.488H286.13V500.754H296.878V479.22H307.643V489.968H318.412V511.488H329.175V489.96H318.421V479.197H307.649V468.456H296.878V468.449V457.685H286.123V468.456H264.611V489.991H286.123V500.724H264.619V511.488ZM318.421 489.96V489.968H318.412V489.96H318.421ZM307.649 479.197V479.22H307.643V479.197H307.649ZM286.123 500.724H286.13V500.754H286.123V500.724ZM361.45 500.724V511.488H350.68V500.754H350.71V500.724H361.45ZM350.71 500.724H350.68V500.754H339.947V489.991H329.184V468.456H307.643V457.685H339.917V436.15H350.68V446.921H361.451H361.466V468.456H393.74V479.22H350.71V500.724ZM243.086 296.284H189.277V350.079H243.086V296.284ZM232.315 489.968H200.041V457.685H232.315V489.968ZM200.047 307.047H232.321V339.315H200.047V307.047ZM404.48 285.521V360.843H329.16V285.521H404.48ZM339.924 296.284H393.717V350.079H339.924V296.284ZM178.514 436.15H253.841V511.472H178.514V436.15ZM243.093 500.731H189.285V446.921H243.093V500.731ZM189.284 371.606H178.514V425.417H189.284V371.606ZM329.16 436.15V425.401H339.923V436.15H329.16ZM286.13 328.568H264.619V317.79H286.13V328.568ZM350.686 414.653H372.227V425.401H361.449V446.921H372.227V425.417H382.983V393.141H372.227V371.606H361.449V403.889H329.189V414.661H339.953V425.424H350.716V414.661H350.686V414.653ZM372.227 425.417V425.401H372.227V425.417H372.227ZM393.716 457.685V446.921H372.205V457.685H393.716ZM350.688 307.047H382.954V339.315H350.688V307.047ZM382.953 382.363H404.487V371.599H382.953V382.363ZM404.488 468.449H393.717V457.685H404.488V468.449ZM393.717 403.89H404.488V393.126H393.717V403.89Z" fill="white"/>
<rect x="307.822" y="182.218" width="2.74857" height="2.74857" fill="#FFF594"/>
<rect x="305.074" y="182.218" width="2.74857" height="2.74857" fill="#FFF594"/>
<rect x="305.074" y="184.966" width="2.74857" height="2.74857" fill="#FFF594"/>
<rect x="305.074" y="187.714" width="2.74857" height="2.74857" fill="#FFF594"/>
<rect x="305.074" y="190.463" width="2.74857" height="2.74857" fill="#FFF594"/>
<rect x="305.074" y="193.211" width="2.74857" height="2.74857" fill="#FFF594"/>
<rect x="305.074" y="195.96" width="2.74857" height="2.74857" fill="#FFF594"/>
<rect x="305.074" y="198.709" width="2.74857" height="2.74857" fill="black"/>
<rect x="305.074" y="201.457" width="2.74857" height="2.74857" fill="black"/>
<rect x="305.074" y="204.206" width="2.74857" height="2.74857" fill="black"/>
<rect x="305.074" y="206.955" width="2.74857" height="2.74857" fill="black"/>
<rect x="305.074" y="209.703" width="2.74857" height="2.74857" fill="black"/>
<rect x="305.074" y="212.452" width="2.74857" height="2.74857" fill="black"/>
<rect x="305.074" y="215.2" width="2.74857" height="2.74857" fill="black"/>
<rect x="302.324" y="217.949" width="2.74857" height="2.74857" fill="black"/>
<rect x="299.578" y="220.697" width="2.74857" height="2.74857" fill="black"/>
<rect x="296.828" y="223.446" width="2.74857" height="2.74857" fill="black"/>
<rect x="294.082" y="223.446" width="2.74857" height="2.74857" fill="black"/>
<rect x="294.082" y="226.195" width="2.74857" height="2.74857" fill="black"/>
<rect x="294.082" y="228.943" width="2.74857" height="2.74857" fill="black"/>
<rect x="294.082" y="231.691" width="2.74857" height="2.74857" fill="black"/>
<rect x="291.33" y="223.446" width="2.74857" height="2.74857" fill="black"/>
<rect x="288.582" y="220.697" width="2.74857" height="2.74857" fill="black"/>
<rect x="307.822" y="190.463" width="2.74857" height="2.74857" fill="#FFF594"/>
<rect x="302.324" y="182.218" width="2.74857" height="2.74857" fill="#FFF594"/>
<rect x="302.324" y="187.714" width="2.74857" height="2.74857" fill="#FFF594"/>
<rect x="302.324" y="184.966" width="2.74857" height="2.74857" fill="#FFF594"/>
<rect x="302.324" y="179.469" width="2.74857" height="2.74857" fill="#FFF594"/>
<rect x="302.324" y="190.463" width="2.74857" height="2.74857" fill="#FFF594"/>
<rect x="302.324" y="176.72" width="2.74857" height="2.74857" fill="#FFF594"/>
<rect x="299.578" y="182.218" width="2.74857" height="2.74857" fill="#FFF594"/>
<rect x="299.578" y="187.714" width="2.74857" height="2.74857" fill="#FFF594"/>
<rect x="299.578" y="184.966" width="2.74857" height="2.74857" fill="#FFF594"/>
<rect x="299.578" y="179.469" width="2.74857" height="2.74857" fill="#FFF594"/>
<rect x="296.828" y="182.218" width="2.74857" height="2.74857" fill="#FFF594"/>
<rect x="296.828" y="184.966" width="2.74857" height="2.74857" fill="#FFF594"/>
<rect x="296.828" y="179.469" width="2.74857" height="2.74857" fill="#FFF594"/>
<rect x="296.828" y="176.72" width="2.74857" height="2.74857" fill="#FFF594"/>
<rect x="294.082" y="182.218" width="2.74857" height="2.74857" fill="#FFF594"/>
<rect x="294.082" y="184.966" width="2.74857" height="2.74857" fill="#FFF594"/>
<rect x="294.082" y="190.463" width="2.74857" height="2.74857" fill="#FFF594"/>
<rect x="294.082" y="187.714" width="2.74857" height="2.74857" fill="#FFF594"/>
<rect x="294.082" y="193.211" width="2.74857" height="2.74857" fill="#FFF594"/>
<rect x="294.082" y="176.72" width="2.74857" height="2.74857" fill="#FFF594"/>
<rect x="294.082" y="179.469" width="2.74857" height="2.74857" fill="#FFF594"/>
<rect x="291.33" y="182.218" width="2.74857" height="2.74857" fill="#FFF594"/>
<rect x="291.33" y="184.966" width="2.74857" height="2.74857" fill="#FFF594"/>
<rect x="291.33" y="187.714" width="2.74857" height="2.74857" fill="#FFF594"/>
<rect x="291.33" y="179.469" width="2.74857" height="2.74857" fill="#FFF594"/>
<rect x="288.582" y="182.218" width="2.74857" height="2.74857" fill="#FFF594"/>
<rect x="291.33" y="176.72" width="2.74857" height="2.74857" fill="#FFF594"/>
<rect x="288.582" y="184.966" width="2.74857" height="2.74857" fill="#FFF594"/>
<rect x="288.582" y="187.714" width="2.74857" height="2.74857" fill="#FFF594"/>
<rect x="288.582" y="179.469" width="2.74857" height="2.74857" fill="#FFF594"/>
<rect x="288.582" y="176.72" width="2.74857" height="2.74857" fill="#FFF594"/>
<rect x="285.834" y="184.966" width="2.74857" height="2.74857" fill="#FFF594"/>
<rect x="285.834" y="182.218" width="2.74857" height="2.74857" fill="#FFF594"/>
<rect x="285.834" y="187.714" width="2.74857" height="2.74857" fill="#FFF594"/>
<rect x="285.834" y="190.463" width="2.74857" height="2.74857" fill="#FFF594"/>
<rect x="285.834" y="176.72" width="2.74857" height="2.74857" fill="#FFF594"/>
<rect x="285.834" y="179.469" width="2.74857" height="2.74857" fill="#FFF594"/>
<rect x="283.088" y="182.218" width="2.74857" height="2.74857" fill="#FFF594"/>
<rect x="283.088" y="184.966" width="2.74857" height="2.74857" fill="#FFF594"/>
<rect x="283.088" y="187.714" width="2.74857" height="2.74857" fill="#FFF594"/>
<rect x="283.088" y="179.469" width="2.74857" height="2.74857" fill="#FFF594"/>
<rect x="283.088" y="176.72" width="2.74857" height="2.74857" fill="#FFF594"/>
<rect x="280.336" y="182.218" width="2.74857" height="2.74857" fill="#FFF594"/>
<rect x="280.336" y="190.463" width="2.74857" height="2.74857" fill="#FFF594"/>
<rect x="277.588" y="190.463" width="2.74857" height="2.74857" fill="#FFF594"/>
<rect x="274.84" y="190.463" width="2.74857" height="2.74857" fill="#FFF594"/>
<rect x="280.336" y="184.966" width="2.74857" height="2.74857" fill="#FFF594"/>
<rect x="280.336" y="193.211" width="2.74857" height="2.74857" fill="#FFF594"/>
<rect x="283.088" y="193.211" width="2.74857" height="2.74857" fill="#FFF594"/>
<rect x="280.336" y="187.714" width="2.74857" height="2.74857" fill="#FFF594"/>
<rect x="280.336" y="195.96" width="2.74857" height="2.74857" fill="#FFF594"/>
<rect x="277.588" y="198.709" width="2.74857" height="2.74857" fill="#FFF594"/>
<rect x="277.588" y="201.457" width="2.74857" height="2.74857" fill="#FFF594"/>
<rect x="274.84" y="204.206" width="2.74857" height="2.74857" fill="#FFF594"/>
<rect x="280.336" y="204.206" width="2.74857" height="2.74857" fill="black"/>
<rect x="280.336" y="206.955" width="2.74857" height="2.74857" fill="black"/>
<rect x="277.588" y="206.955" width="2.74857" height="2.74857" fill="#FFF594"/>
<rect x="280.336" y="209.703" width="2.74857" height="2.74857" fill="black"/>
<rect x="280.336" y="212.452" width="2.74857" height="2.74857" fill="black"/>
<rect x="280.336" y="215.2" width="2.74857" height="2.74857" fill="black"/>
<rect x="283.088" y="217.949" width="2.74857" height="2.74857" fill="black"/>
<rect x="283.088" y="220.697" width="2.74857" height="2.74857" fill="black"/>
<rect x="283.088" y="223.446" width="2.74857" height="2.74857" fill="black"/>
<rect x="283.088" y="226.195" width="2.74857" height="2.74857" fill="black"/>
<rect x="283.088" y="228.943" width="2.74857" height="2.74857" fill="black"/>
<rect x="283.088" y="231.691" width="2.74857" height="2.74857" fill="black"/>
<rect x="280.336" y="179.469" width="2.74857" height="2.74857" fill="#FFF594"/>
<rect x="277.588" y="184.966" width="2.74857" height="2.74857" fill="#FFF594"/>
<rect x="277.588" y="182.218" width="2.74857" height="2.74857" fill="#FFF594"/>
<rect x="274.84" y="184.966" width="2.74857" height="2.74857" fill="#FFF594"/>
<rect x="277.588" y="187.714" width="2.74857" height="2.74857" fill="#FFF594"/>
<rect x="296.828" y="187.714" width="2.74857" height="2.74857" fill="#7EA16B"/>
<rect x="296.828" y="190.463" width="2.74857" height="2.74857" fill="#7EA16B"/>
<rect x="296.828" y="193.211" width="2.74857" height="2.74857" fill="#7EA16B"/>
<rect x="296.828" y="195.96" width="2.74857" height="2.74857" fill="#7EA16B"/>
<rect x="302.324" y="195.96" width="2.74857" height="2.74857" fill="#7EA16B"/>
<rect x="302.324" y="193.211" width="2.74857" height="2.74857" fill="#7EA16B"/>
<rect x="294.082" y="195.96" width="2.74857" height="2.74857" fill="#7EA16B"/>
<rect x="299.578" y="195.96" width="2.74857" height="2.74857" fill="#7EA16B"/>
<rect x="299.578" y="193.211" width="2.74857" height="2.74857" fill="#7EA16B"/>
<rect x="299.578" y="190.463" width="2.74857" height="2.74857" fill="#7EA16B"/>
<rect x="291.33" y="195.96" width="2.74857" height="2.74857" fill="#7EA16B"/>
<rect x="288.582" y="195.96" width="2.74857" height="2.74857" fill="#7EA16B"/>
<rect x="285.834" y="195.96" width="2.74857" height="2.74857" fill="#7EA16B"/>
<rect x="291.33" y="190.463" width="2.74857" height="2.74857" fill="#7EA16B"/>
<rect x="288.582" y="190.463" width="2.74857" height="2.74857" fill="#7EA16B"/>
<rect x="296.828" y="198.709" width="2.74857" height="2.74857" fill="#7EA16B"/>
<rect x="302.324" y="198.709" width="2.74857" height="2.74857" fill="#7EA16B"/>
<rect x="302.324" y="201.457" width="2.74857" height="2.74857" fill="#7EA16B"/>
<rect x="302.324" y="204.206" width="2.74857" height="2.74857" fill="#7EA16B"/>
<rect x="302.324" y="206.955" width="2.74857" height="2.74857" fill="#7EA16B"/>
<rect x="299.578" y="204.206" width="2.74857" height="2.74857" fill="#7EA16B"/>
<rect x="299.578" y="206.955" width="2.74857" height="2.74857" fill="#7EA16B"/>
<rect x="302.324" y="209.703" width="2.74857" height="2.74857" fill="#7EA16B"/>
<rect x="299.578" y="209.703" width="2.74857" height="2.74857" fill="#7EA16B"/>
<rect x="302.324" y="212.452" width="2.74857" height="2.74857" fill="#7EA16B"/>
<rect x="302.324" y="215.2" width="2.74857" height="2.74857" fill="#7EA16B"/>
<rect x="299.578" y="212.452" width="2.74857" height="2.74857" fill="#7EA16B"/>
<rect x="299.578" y="215.2" width="2.74857" height="2.74857" fill="#7EA16B"/>
<rect x="299.578" y="217.949" width="2.74857" height="2.74857" fill="#7EA16B"/>
<rect x="296.828" y="220.697" width="2.74857" height="2.74857" fill="#7EA16B"/>
<rect x="296.828" y="217.949" width="2.74857" height="2.74857" fill="#7EA16B"/>
<rect x="294.082" y="217.949" width="2.74857" height="2.74857" fill="#7EA16B"/>
<rect x="294.082" y="220.697" width="2.74857" height="2.74857" fill="#7EA16B"/>
<rect x="291.33" y="217.949" width="2.74857" height="2.74857" fill="#7EA16B"/>
<rect x="291.33" y="220.697" width="2.74857" height="2.74857" fill="#7EA16B"/>
<rect x="294.082" y="198.709" width="2.74857" height="2.74857" fill="#7EA16B"/>
<rect x="288.582" y="217.949" width="2.74857" height="2.74857" fill="#7EA16B"/>
<rect x="291.33" y="198.709" width="2.74857" height="2.74857" fill="#7EA16B"/>
<rect x="299.578" y="198.709" width="2.74857" height="2.74857" fill="#7EA16B"/>
<rect x="288.582" y="198.709" width="2.74857" height="2.74857" fill="#7EA16B"/>
<rect x="291.33" y="193.211" width="2.74857" height="2.74857" fill="#7EA16B"/>
<rect x="285.834" y="198.709" width="2.74857" height="2.74857" fill="#7EA16B"/>
<rect x="285.834" y="193.211" width="2.74857" height="2.74857" fill="#7EA16B"/>
<rect x="288.582" y="193.211" width="2.74857" height="2.74857" fill="#7EA16B"/>
<rect x="296.828" y="201.457" width="2.74857" height="2.74857" fill="#7EA16B"/>
<rect x="294.082" y="201.457" width="2.74857" height="2.74857" fill="#7EA16B"/>
<rect x="291.33" y="201.457" width="2.74857" height="2.74857" fill="#7EA16B"/>
<rect x="288.582" y="201.457" width="2.74857" height="2.74857" fill="#7EA16B"/>
<rect x="296.828" y="204.206" width="2.74857" height="2.74857" fill="#7EA16B"/>
<rect x="294.082" y="204.206" width="2.74857" height="2.74857" fill="#7EA16B"/>
<rect x="288.582" y="204.206" width="2.74857" height="2.74857" fill="#7EA16B"/>
<rect x="291.33" y="204.206" width="2.74857" height="2.74857" fill="#7EA16B"/>
<rect x="285.834" y="204.206" width="2.74857" height="2.74857" fill="#7EA16B"/>
<rect x="283.088" y="204.206" width="2.74857" height="2.74857" fill="#7EA16B"/>
<rect x="277.588" y="204.206" width="2.74857" height="2.74857" fill="#7EA16B"/>
<rect x="283.088" y="195.96" width="2.74857" height="2.74857" fill="#7EA16B"/>
<rect x="283.088" y="190.463" width="2.74857" height="2.74857" fill="#7EA16B"/>
<rect x="296.828" y="206.955" width="2.74857" height="2.74857" fill="#7EA16B"/>
<rect x="294.082" y="206.955" width="2.74857" height="2.74857" fill="#7EA16B"/>
<rect x="291.33" y="206.955" width="2.74857" height="2.74857" fill="#7EA16B"/>
<rect x="288.582" y="206.955" width="2.74857" height="2.74857" fill="#7EA16B"/>
<rect x="285.834" y="206.955" width="2.74857" height="2.74857" fill="#7EA16B"/>
<rect x="283.088" y="206.955" width="2.74857" height="2.74857" fill="#7EA16B"/>
<rect x="283.088" y="198.709" width="2.74857" height="2.74857" fill="#7EA16B"/>
<rect x="291.33" y="209.703" width="2.74857" height="2.74857" fill="#7EA16B"/>
<rect x="280.336" y="198.709" width="2.74857" height="2.74857" fill="#7EA16B"/>
<rect x="288.582" y="209.703" width="2.74857" height="2.74857" fill="#7EA16B"/>
<rect x="285.834" y="209.703" width="2.74857" height="2.74857" fill="#7EA16B"/>
<rect x="283.088" y="209.703" width="2.74857" height="2.74857" fill="#7EA16B"/>
<rect x="283.088" y="201.457" width="2.74857" height="2.74857" fill="#7EA16B"/>
<rect x="280.336" y="201.457" width="2.74857" height="2.74857" fill="#7EA16B"/>
<rect x="291.33" y="212.452" width="2.74857" height="2.74857" fill="#7EA16B"/>
<rect x="294.082" y="212.452" width="2.74857" height="2.74857" fill="#7EA16B"/>
<rect x="288.582" y="212.452" width="2.74857" height="2.74857" fill="#7EA16B"/>
<rect x="288.582" y="215.2" width="2.74857" height="2.74857" fill="#7EA16B"/>
<rect x="285.834" y="212.452" width="2.74857" height="2.74857" fill="#7EA16B"/>
<rect x="283.088" y="212.452" width="2.74857" height="2.74857" fill="#7EA16B"/>
<rect x="285.834" y="215.2" width="2.74857" height="2.74857" fill="#7EA16B"/>
<rect x="283.088" y="215.2" width="2.74857" height="2.74857" fill="#7EA16B"/>
<rect x="285.834" y="217.949" width="2.74857" height="2.74857" fill="#7EA16B"/>
<rect x="285.834" y="220.697" width="2.74857" height="2.74857" fill="#7EA16B"/>
<rect x="285.834" y="223.446" width="2.74857" height="2.74857" fill="#7EA16B"/>
<rect x="288.582" y="223.446" width="2.74857" height="2.74857" fill="#7EA16B"/>
<rect x="285.834" y="226.195" width="2.74857" height="2.74857" fill="#7EA16B"/>
<rect x="288.582" y="226.195" width="2.74857" height="2.74857" fill="#7EA16B"/>
<rect x="291.33" y="226.195" width="2.74857" height="2.74857" fill="#7EA16B"/>
<rect x="285.834" y="228.943" width="2.74857" height="2.74857" fill="#7EA16B"/>
<rect x="288.582" y="228.943" width="2.74857" height="2.74857" fill="#7EA16B"/>
<rect x="291.33" y="228.943" width="2.74857" height="2.74857" fill="#7EA16B"/>
<rect x="285.834" y="231.691" width="2.74857" height="2.74857" fill="#7EA16B"/>
<rect x="288.582" y="231.691" width="2.74857" height="2.74857" fill="#7EA16B"/>
<rect x="291.33" y="231.691" width="2.74857" height="2.74857" fill="#7EA16B"/>
<rect x="296.828" y="209.703" width="2.74857" height="2.74857" fill="#7EA16B"/>
<rect x="296.828" y="212.452" width="2.74857" height="2.74857" fill="#7EA16B"/>
<rect x="299.578" y="201.457" width="2.74857" height="2.74857" fill="#2E5393"/>
<rect x="285.834" y="201.457" width="2.74857" height="2.74857" fill="#2E5393"/>
<rect x="294.082" y="209.703" width="2.74857" height="2.74857" fill="#298F16"/>
<rect x="296.828" y="215.2" width="2.74857" height="2.74857" fill="#2E5393"/>
<rect x="294.082" y="215.2" width="2.74857" height="2.74857" fill="#2E5393"/>
<rect x="291.33" y="215.2" width="2.74857" height="2.74857" fill="#2E5393"/>
<rect x="285.834" y="198.709" width="2.74857" height="2.74857" fill="#298F16"/>
<rect x="299.578" y="198.709" width="2.74857" height="2.74857" fill="#298F16"/>
<rect x="288.582" y="198.709" width="2.74857" height="2.74857" fill="#298F16"/>
<rect x="302.324" y="198.709" width="2.74857" height="2.74857" fill="#298F16"/>
<rect x="288.582" y="201.457" width="2.74857" height="2.74857" fill="#31AF49"/>
<rect x="302.324" y="201.457" width="2.74857" height="2.74857" fill="#31AF49"/>
<circle cx="292" cy="197" r="38.25" stroke="#88A1AC" stroke-width="1.5"/>
<path d="M222.31 247.032C223.607 247.032 224.76 247.298 225.768 247.83C226.785 248.362 227.574 249.09 228.134 250.014C228.703 250.938 228.988 251.969 228.988 253.108C228.988 253.948 228.852 254.671 228.582 255.278C228.32 255.875 227.956 256.333 227.49 256.65C227.032 256.958 226.505 257.112 225.908 257.112C225.413 257.112 224.988 257.009 224.634 256.804C224.279 256.599 224.018 256.295 223.85 255.894C223.392 256.706 222.636 257.112 221.582 257.112C221.031 257.112 220.518 256.967 220.042 256.678C219.566 256.379 219.183 255.964 218.894 255.432C218.614 254.9 218.474 254.289 218.474 253.598C218.474 252.907 218.614 252.296 218.894 251.764C219.174 251.232 219.552 250.821 220.028 250.532C220.504 250.243 221.022 250.098 221.582 250.098C222.403 250.098 223.052 250.364 223.528 250.896V250.21H225.81V254.48C225.81 254.779 225.866 254.993 225.978 255.124C226.09 255.255 226.239 255.32 226.426 255.32C227.014 255.32 227.308 254.597 227.308 253.15C227.308 252.263 227.098 251.475 226.678 250.784C226.267 250.093 225.684 249.557 224.928 249.174C224.172 248.782 223.299 248.586 222.31 248.586C221.33 248.586 220.457 248.796 219.692 249.216C218.936 249.636 218.348 250.219 217.928 250.966C217.508 251.703 217.298 252.534 217.298 253.458C217.298 254.401 217.503 255.245 217.914 255.992C218.324 256.739 218.903 257.317 219.65 257.728C220.406 258.148 221.274 258.358 222.254 258.358C223.252 258.358 224.181 258.153 225.04 257.742L225.558 259.24C225.138 259.445 224.629 259.609 224.032 259.73C223.444 259.851 222.851 259.912 222.254 259.912C220.9 259.912 219.706 259.632 218.67 259.072C217.643 258.512 216.845 257.742 216.276 256.762C215.716 255.782 215.436 254.681 215.436 253.458C215.436 252.245 215.72 251.153 216.29 250.182C216.859 249.202 217.662 248.432 218.698 247.872C219.743 247.312 220.947 247.032 222.31 247.032ZM222.184 255.208C222.594 255.208 222.926 255.068 223.178 254.788C223.439 254.508 223.57 254.111 223.57 253.598C223.57 253.094 223.439 252.702 223.178 252.422C222.926 252.142 222.594 252.002 222.184 252.002C221.773 252.002 221.442 252.142 221.19 252.422C220.938 252.702 220.812 253.094 220.812 253.598C220.812 254.102 220.938 254.499 221.19 254.788C221.442 255.068 221.773 255.208 222.184 255.208Z" fill="#88A1AC"/>
<path d="M233.077 257.126C232.443 257.126 231.817 257.056 231.201 256.916C230.585 256.767 230.091 256.575 229.717 256.342L230.515 254.522C230.861 254.737 231.271 254.909 231.747 255.04C232.223 255.161 232.695 255.222 233.161 255.222C233.591 255.222 233.894 255.18 234.071 255.096C234.258 255.003 234.351 254.872 234.351 254.704C234.351 254.536 234.239 254.419 234.015 254.354C233.801 254.279 233.455 254.209 232.979 254.144C232.373 254.069 231.855 253.971 231.425 253.85C231.005 253.729 230.641 253.505 230.333 253.178C230.025 252.851 229.871 252.394 229.871 251.806C229.871 251.321 230.016 250.891 230.305 250.518C230.595 250.135 231.015 249.837 231.565 249.622C232.125 249.398 232.793 249.286 233.567 249.286C234.118 249.286 234.664 249.342 235.205 249.454C235.747 249.566 236.199 249.725 236.563 249.93L235.765 251.736C235.093 251.363 234.365 251.176 233.581 251.176C233.161 251.176 232.853 251.227 232.657 251.33C232.461 251.423 232.363 251.549 232.363 251.708C232.363 251.885 232.471 252.011 232.685 252.086C232.9 252.151 233.255 252.221 233.749 252.296C234.375 252.389 234.893 252.497 235.303 252.618C235.714 252.739 236.069 252.963 236.367 253.29C236.675 253.607 236.829 254.055 236.829 254.634C236.829 255.11 236.685 255.539 236.395 255.922C236.106 256.295 235.677 256.589 235.107 256.804C234.547 257.019 233.871 257.126 233.077 257.126Z" fill="#88A1AC"/>
<path d="M241.21 249.286C242.47 249.286 243.431 249.575 244.094 250.154C244.756 250.723 245.088 251.601 245.088 252.786V257H242.61V256.02C242.227 256.757 241.48 257.126 240.37 257.126C239.782 257.126 239.273 257.023 238.844 256.818C238.414 256.613 238.088 256.337 237.864 255.992C237.649 255.637 237.542 255.236 237.542 254.788C237.542 254.069 237.817 253.514 238.368 253.122C238.918 252.721 239.768 252.52 240.916 252.52H242.428C242.381 251.717 241.844 251.316 240.818 251.316C240.454 251.316 240.085 251.377 239.712 251.498C239.338 251.61 239.021 251.769 238.76 251.974L237.864 250.168C238.284 249.888 238.792 249.673 239.39 249.524C239.996 249.365 240.603 249.286 241.21 249.286ZM241.112 255.446C241.42 255.446 241.69 255.371 241.924 255.222C242.157 255.073 242.325 254.853 242.428 254.564V253.906H241.28C240.505 253.906 240.118 254.163 240.118 254.676C240.118 254.909 240.206 255.096 240.384 255.236C240.561 255.376 240.804 255.446 241.112 255.446Z" fill="#88A1AC"/>
<path d="M251.709 249.286C252.651 249.286 253.407 249.566 253.977 250.126C254.555 250.686 254.845 251.531 254.845 252.66V257H252.185V253.094C252.185 252.058 251.769 251.54 250.939 251.54C250.481 251.54 250.113 251.689 249.833 251.988C249.562 252.287 249.427 252.735 249.427 253.332V257H246.767V249.412H249.301V250.238C249.599 249.93 249.954 249.697 250.365 249.538C250.775 249.37 251.223 249.286 251.709 249.286Z" fill="#88A1AC"/>
<path d="M261.751 256.692C261.527 256.832 261.251 256.939 260.925 257.014C260.607 257.089 260.267 257.126 259.903 257.126C258.913 257.126 258.153 256.883 257.621 256.398C257.089 255.913 256.823 255.189 256.823 254.228V251.68H255.717V249.692H256.823V247.718H259.483V249.692H261.219V251.68H259.483V254.2C259.483 254.471 259.553 254.685 259.693 254.844C259.842 254.993 260.038 255.068 260.281 255.068C260.589 255.068 260.859 254.989 261.093 254.83L261.751 256.692Z" fill="#88A1AC"/>
<path d="M266.366 257.126C265.554 257.126 264.821 256.958 264.168 256.622C263.514 256.286 263.001 255.819 262.628 255.222C262.264 254.625 262.082 253.948 262.082 253.192C262.082 252.445 262.264 251.773 262.628 251.176C263.001 250.579 263.51 250.117 264.154 249.79C264.807 249.454 265.544 249.286 266.366 249.286C267.187 249.286 267.924 249.454 268.578 249.79C269.231 250.117 269.74 250.579 270.104 251.176C270.468 251.764 270.65 252.436 270.65 253.192C270.65 253.948 270.468 254.625 270.104 255.222C269.74 255.819 269.231 256.286 268.578 256.622C267.924 256.958 267.187 257.126 266.366 257.126ZM266.366 255.012C266.832 255.012 267.215 254.853 267.514 254.536C267.812 254.209 267.962 253.761 267.962 253.192C267.962 252.632 267.812 252.193 267.514 251.876C267.215 251.559 266.832 251.4 266.366 251.4C265.899 251.4 265.516 251.559 265.218 251.876C264.919 252.193 264.77 252.632 264.77 253.192C264.77 253.761 264.919 254.209 265.218 254.536C265.516 254.853 265.899 255.012 266.366 255.012Z" fill="#88A1AC"/>
<path d="M274.64 257.126C274.005 257.126 273.38 257.056 272.764 256.916C272.148 256.767 271.653 256.575 271.28 256.342L272.078 254.522C272.423 254.737 272.834 254.909 273.31 255.04C273.786 255.161 274.257 255.222 274.724 255.222C275.153 255.222 275.457 255.18 275.634 255.096C275.821 255.003 275.914 254.872 275.914 254.704C275.914 254.536 275.802 254.419 275.578 254.354C275.363 254.279 275.018 254.209 274.542 254.144C273.935 254.069 273.417 253.971 272.988 253.85C272.568 253.729 272.204 253.505 271.896 253.178C271.588 252.851 271.434 252.394 271.434 251.806C271.434 251.321 271.579 250.891 271.868 250.518C272.157 250.135 272.577 249.837 273.128 249.622C273.688 249.398 274.355 249.286 275.13 249.286C275.681 249.286 276.227 249.342 276.768 249.454C277.309 249.566 277.762 249.725 278.126 249.93L277.328 251.736C276.656 251.363 275.928 251.176 275.144 251.176C274.724 251.176 274.416 251.227 274.22 251.33C274.024 251.423 273.926 251.549 273.926 251.708C273.926 251.885 274.033 252.011 274.248 252.086C274.463 252.151 274.817 252.221 275.312 252.296C275.937 252.389 276.455 252.497 276.866 252.618C277.277 252.739 277.631 252.963 277.93 253.29C278.238 253.607 278.392 254.055 278.392 254.634C278.392 255.11 278.247 255.539 277.958 255.922C277.669 256.295 277.239 256.589 276.67 256.804C276.11 257.019 275.433 257.126 274.64 257.126Z" fill="#88A1AC"/>
<path d="M284.48 249.286C285.423 249.286 286.179 249.566 286.748 250.126C287.327 250.686 287.616 251.531 287.616 252.66V257H284.956V253.094C284.956 252.058 284.541 251.54 283.71 251.54C283.253 251.54 282.884 251.689 282.604 251.988C282.333 252.287 282.198 252.735 282.198 253.332V257H279.538V246.612H282.198V250.112C282.487 249.841 282.828 249.636 283.22 249.496C283.612 249.356 284.032 249.286 284.48 249.286Z" fill="#88A1AC"/>
<path d="M289.286 249.412H291.946V257H289.286V249.412ZM290.616 248.572C290.131 248.572 289.739 248.437 289.44 248.166C289.142 247.895 288.992 247.559 288.992 247.158C288.992 246.757 289.142 246.421 289.44 246.15C289.739 245.879 290.131 245.744 290.616 245.744C291.102 245.744 291.494 245.875 291.792 246.136C292.091 246.388 292.24 246.715 292.24 247.116C292.24 247.536 292.091 247.886 291.792 248.166C291.494 248.437 291.102 248.572 290.616 248.572Z" fill="#88A1AC"/>
<path d="M298.617 249.286C299.56 249.286 300.316 249.566 300.885 250.126C301.464 250.686 301.753 251.531 301.753 252.66V257H299.093V253.094C299.093 252.058 298.678 251.54 297.847 251.54C297.39 251.54 297.021 251.689 296.741 251.988C296.47 252.287 296.335 252.735 296.335 253.332V257H293.675V249.412H296.209V250.238C296.508 249.93 296.862 249.697 297.273 249.538C297.684 249.37 298.132 249.286 298.617 249.286Z" fill="#88A1AC"/>
<path d="M306.657 249.286C307.917 249.286 308.878 249.575 309.541 250.154C310.204 250.723 310.535 251.601 310.535 252.786V257H308.057V256.02C307.674 256.757 306.928 257.126 305.817 257.126C305.229 257.126 304.72 257.023 304.291 256.818C303.862 256.613 303.535 256.337 303.311 255.992C303.096 255.637 302.989 255.236 302.989 254.788C302.989 254.069 303.264 253.514 303.815 253.122C304.366 252.721 305.215 252.52 306.363 252.52H307.875C307.828 251.717 307.292 251.316 306.265 251.316C305.901 251.316 305.532 251.377 305.159 251.498C304.786 251.61 304.468 251.769 304.207 251.974L303.311 250.168C303.731 249.888 304.24 249.673 304.837 249.524C305.444 249.365 306.05 249.286 306.657 249.286ZM306.559 255.446C306.867 255.446 307.138 255.371 307.371 255.222C307.604 255.073 307.772 254.853 307.875 254.564V253.906H306.727C305.952 253.906 305.565 254.163 305.565 254.676C305.565 254.909 305.654 255.096 305.831 255.236C306.008 255.376 306.251 255.446 306.559 255.446Z" fill="#88A1AC"/>
<path d="M315.658 254.34L314.874 255.138V257H312.214V246.612H314.874V252.058L317.59 249.412H320.74L317.59 252.66L321.006 257H317.786L315.658 254.34Z" fill="#88A1AC"/>
<path d="M324.909 249.286C326.169 249.286 327.13 249.575 327.793 250.154C328.456 250.723 328.787 251.601 328.787 252.786V257H326.309V256.02C325.926 256.757 325.18 257.126 324.069 257.126C323.481 257.126 322.972 257.023 322.543 256.818C322.114 256.613 321.787 256.337 321.563 255.992C321.348 255.637 321.241 255.236 321.241 254.788C321.241 254.069 321.516 253.514 322.067 253.122C322.618 252.721 323.467 252.52 324.615 252.52H326.127C326.08 251.717 325.544 251.316 324.517 251.316C324.153 251.316 323.784 251.377 323.411 251.498C323.038 251.61 322.72 251.769 322.459 251.974L321.563 250.168C321.983 249.888 322.492 249.673 323.089 249.524C323.696 249.365 324.302 249.286 324.909 249.286ZM324.811 255.446C325.119 255.446 325.39 255.371 325.623 255.222C325.856 255.073 326.024 254.853 326.127 254.564V253.906H324.979C324.204 253.906 323.817 254.163 323.817 254.676C323.817 254.909 323.906 255.096 324.083 255.236C324.26 255.376 324.503 255.446 324.811 255.446Z" fill="#88A1AC"/>
<path d="M340.35 249.286C341.283 249.286 342.025 249.566 342.576 250.126C343.136 250.686 343.416 251.531 343.416 252.66V257H340.756V253.094C340.756 252.562 340.653 252.17 340.448 251.918C340.252 251.666 339.972 251.54 339.608 251.54C339.207 251.54 338.885 251.68 338.642 251.96C338.399 252.24 338.278 252.665 338.278 253.234V257H335.618V253.094C335.618 252.058 335.235 251.54 334.47 251.54C334.059 251.54 333.733 251.68 333.49 251.96C333.247 252.24 333.126 252.665 333.126 253.234V257H330.466V249.412H333V250.21C333.28 249.902 333.611 249.673 333.994 249.524C334.386 249.365 334.811 249.286 335.268 249.286C335.8 249.286 336.276 249.384 336.696 249.58C337.116 249.776 337.457 250.075 337.718 250.476C338.017 250.093 338.395 249.799 338.852 249.594C339.309 249.389 339.809 249.286 340.35 249.286Z" fill="#88A1AC"/>
<path d="M349.012 257.126C348.2 257.126 347.468 256.958 346.814 256.622C346.161 256.286 345.648 255.819 345.274 255.222C344.91 254.625 344.728 253.948 344.728 253.192C344.728 252.445 344.91 251.773 345.274 251.176C345.648 250.579 346.156 250.117 346.8 249.79C347.454 249.454 348.191 249.286 349.012 249.286C349.834 249.286 350.571 249.454 351.224 249.79C351.878 250.117 352.386 250.579 352.75 251.176C353.114 251.764 353.296 252.436 353.296 253.192C353.296 253.948 353.114 254.625 352.75 255.222C352.386 255.819 351.878 256.286 351.224 256.622C350.571 256.958 349.834 257.126 349.012 257.126ZM349.012 255.012C349.479 255.012 349.862 254.853 350.16 254.536C350.459 254.209 350.608 253.761 350.608 253.192C350.608 252.632 350.459 252.193 350.16 251.876C349.862 251.559 349.479 251.4 349.012 251.4C348.546 251.4 348.163 251.559 347.864 251.876C347.565 252.193 347.416 252.632 347.416 253.192C347.416 253.761 347.565 254.209 347.864 254.536C348.163 254.853 348.546 255.012 349.012 255.012Z" fill="#88A1AC"/>
<path d="M359.764 256.692C359.54 256.832 359.265 256.939 358.938 257.014C358.621 257.089 358.28 257.126 357.916 257.126C356.927 257.126 356.166 256.883 355.634 256.398C355.102 255.913 354.836 255.189 354.836 254.228V251.68H353.73V249.692H354.836V247.718H357.496V249.692H359.232V251.68H357.496V254.2C357.496 254.471 357.566 254.685 357.706 254.844C357.856 254.993 358.052 255.068 358.294 255.068C358.602 255.068 358.873 254.989 359.106 254.83L359.764 256.692Z" fill="#88A1AC"/>
<path d="M364.379 257.126C363.567 257.126 362.835 256.958 362.181 256.622C361.528 256.286 361.015 255.819 360.641 255.222C360.277 254.625 360.095 253.948 360.095 253.192C360.095 252.445 360.277 251.773 360.641 251.176C361.015 250.579 361.523 250.117 362.167 249.79C362.821 249.454 363.558 249.286 364.379 249.286C365.201 249.286 365.938 249.454 366.591 249.79C367.245 250.117 367.753 250.579 368.117 251.176C368.481 251.764 368.663 252.436 368.663 253.192C368.663 253.948 368.481 254.625 368.117 255.222C367.753 255.819 367.245 256.286 366.591 256.622C365.938 256.958 365.201 257.126 364.379 257.126ZM364.379 255.012C364.846 255.012 365.229 254.853 365.527 254.536C365.826 254.209 365.975 253.761 365.975 253.192C365.975 252.632 365.826 252.193 365.527 251.876C365.229 251.559 364.846 251.4 364.379 251.4C363.913 251.4 363.53 251.559 363.231 251.876C362.933 252.193 362.783 252.632 362.783 253.192C362.783 253.761 362.933 254.209 363.231 254.536C363.53 254.853 363.913 255.012 364.379 255.012Z" fill="#88A1AC"/>
<path d="M245.427 265.93C245.087 265.93 244.807 266 244.587 266.14C244.367 266.28 244.257 266.493 244.257 266.78C244.257 267.06 244.367 267.277 244.587 267.43C244.807 267.577 245.274 267.737 245.987 267.91C246.707 268.083 247.247 268.327 247.607 268.64C247.974 268.953 248.157 269.417 248.157 270.03C248.157 270.637 247.927 271.13 247.467 271.51C247.007 271.89 246.404 272.08 245.657 272.08C244.564 272.08 243.594 271.703 242.747 270.95L243.487 270.06C244.194 270.673 244.927 270.98 245.687 270.98C246.067 270.98 246.367 270.9 246.587 270.74C246.814 270.573 246.927 270.357 246.927 270.09C246.927 269.817 246.821 269.607 246.607 269.46C246.401 269.307 246.041 269.17 245.527 269.05C245.014 268.923 244.624 268.81 244.357 268.71C244.091 268.603 243.854 268.467 243.647 268.3C243.234 267.987 243.027 267.507 243.027 266.86C243.027 266.213 243.261 265.717 243.727 265.37C244.201 265.017 244.784 264.84 245.477 264.84C245.924 264.84 246.367 264.913 246.807 265.06C247.247 265.207 247.627 265.413 247.947 265.68L247.317 266.57C247.111 266.383 246.831 266.23 246.477 266.11C246.124 265.99 245.774 265.93 245.427 265.93Z" fill="#88A1AC"/>
<path d="M253.766 272H252.746V271.29C252.306 271.817 251.716 272.08 250.976 272.08C250.423 272.08 249.963 271.923 249.596 271.61C249.236 271.297 249.056 270.88 249.056 270.36C249.056 269.833 249.249 269.44 249.636 269.18C250.023 268.92 250.546 268.79 251.206 268.79H252.656V268.59C252.656 267.883 252.263 267.53 251.476 267.53C250.983 267.53 250.469 267.71 249.936 268.07L249.436 267.37C250.083 266.857 250.816 266.6 251.636 266.6C252.263 266.6 252.773 266.76 253.166 267.08C253.566 267.393 253.766 267.89 253.766 268.57V272ZM252.646 270.02V269.57H251.386C250.579 269.57 250.176 269.823 250.176 270.33C250.176 270.59 250.276 270.79 250.476 270.93C250.676 271.063 250.953 271.13 251.306 271.13C251.666 271.13 251.979 271.03 252.246 270.83C252.513 270.63 252.646 270.36 252.646 270.02Z" fill="#88A1AC"/>
<path d="M256.445 269.12V272H255.325V266.68H256.445V267.65C256.625 267.323 256.872 267.067 257.185 266.88C257.505 266.693 257.849 266.6 258.215 266.6C258.815 266.6 259.299 266.783 259.665 267.15C260.039 267.517 260.225 268.047 260.225 268.74V272H259.105V269.08C259.105 268.1 258.699 267.61 257.885 267.61C257.499 267.61 257.162 267.74 256.875 268C256.589 268.253 256.445 268.627 256.445 269.12Z" fill="#88A1AC"/>
<path d="M263.102 267.58V270.28C263.102 270.533 263.168 270.737 263.302 270.89C263.435 271.037 263.622 271.11 263.862 271.11C264.102 271.11 264.332 270.993 264.552 270.76L265.012 271.55C264.618 271.903 264.182 272.08 263.702 272.08C263.228 272.08 262.822 271.917 262.482 271.59C262.148 271.257 261.982 270.81 261.982 270.25V267.58H261.312V266.68H261.982V265.01H263.102V266.68H264.502V267.58H263.102Z" fill="#88A1AC"/>
<path d="M267.102 270.6C267.422 270.92 267.826 271.08 268.312 271.08C268.799 271.08 269.199 270.92 269.512 270.6C269.832 270.273 269.992 269.853 269.992 269.34C269.992 268.827 269.832 268.41 269.512 268.09C269.199 267.763 268.799 267.6 268.312 267.6C267.826 267.6 267.422 267.763 267.102 268.09C266.789 268.41 266.632 268.827 266.632 269.34C266.632 269.853 266.789 270.273 267.102 270.6ZM270.312 271.29C269.779 271.817 269.112 272.08 268.312 272.08C267.512 272.08 266.846 271.817 266.312 271.29C265.779 270.757 265.512 270.107 265.512 269.34C265.512 268.573 265.779 267.927 266.312 267.4C266.846 266.867 267.512 266.6 268.312 266.6C269.112 266.6 269.779 266.867 270.312 267.4C270.846 267.927 271.112 268.573 271.112 269.34C271.112 270.107 270.846 270.757 270.312 271.29Z" fill="#88A1AC"/>
<path d="M276.176 270.41C276.176 270.917 275.992 271.323 275.626 271.63C275.259 271.93 274.789 272.08 274.216 272.08C273.829 272.08 273.426 272.01 273.006 271.87C272.592 271.73 272.226 271.533 271.906 271.28L272.446 270.41C273.066 270.877 273.666 271.11 274.246 271.11C274.499 271.11 274.699 271.053 274.846 270.94C274.992 270.82 275.066 270.67 275.066 270.49C275.066 270.223 274.712 269.983 274.006 269.77C273.952 269.75 273.912 269.737 273.886 269.73C272.779 269.43 272.226 268.93 272.226 268.23C272.226 267.737 272.416 267.343 272.796 267.05C273.182 266.75 273.682 266.6 274.296 266.6C274.909 266.6 275.489 266.78 276.036 267.14L275.616 267.97C275.182 267.683 274.712 267.54 274.206 267.54C273.939 267.54 273.722 267.59 273.556 267.69C273.389 267.783 273.306 267.927 273.306 268.12C273.306 268.293 273.392 268.42 273.566 268.5C273.686 268.56 273.852 268.617 274.066 268.67C274.286 268.723 274.479 268.777 274.646 268.83C274.812 268.883 274.972 268.943 275.126 269.01C275.286 269.077 275.456 269.17 275.636 269.29C275.996 269.53 276.176 269.903 276.176 270.41Z" fill="#88A1AC"/>
<path d="M278.564 269.12V272H277.444V264.59H278.564V267.65C278.724 267.323 278.964 267.067 279.284 266.88C279.611 266.693 279.961 266.6 280.334 266.6C280.934 266.6 281.418 266.783 281.784 267.15C282.158 267.517 282.344 268.047 282.344 268.74V272H281.224V269.08C281.224 268.1 280.818 267.61 280.004 267.61C279.618 267.61 279.281 267.74 278.994 268C278.708 268.253 278.564 268.627 278.564 269.12Z" fill="#88A1AC"/>
<path d="M285.029 272H283.909V266.68H285.029V272ZM283.979 265.62C283.839 265.48 283.769 265.313 283.769 265.12C283.769 264.927 283.839 264.76 283.979 264.62C284.119 264.48 284.286 264.41 284.479 264.41C284.673 264.41 284.839 264.48 284.979 264.62C285.119 264.76 285.189 264.927 285.189 265.12C285.189 265.313 285.119 265.48 284.979 265.62C284.839 265.76 284.673 265.83 284.479 265.83C284.286 265.83 284.119 265.76 283.979 265.62Z" fill="#88A1AC"/>
<path d="M294.797 265.01H295.977V272H294.697L290.737 266.9V272H289.557V265.01H290.737L294.797 270.23V265.01Z" fill="#88A1AC"/>
<path d="M302.067 272H301.047V271.29C300.607 271.817 300.017 272.08 299.277 272.08C298.724 272.08 298.264 271.923 297.897 271.61C297.537 271.297 297.357 270.88 297.357 270.36C297.357 269.833 297.55 269.44 297.937 269.18C298.324 268.92 298.847 268.79 299.507 268.79H300.957V268.59C300.957 267.883 300.564 267.53 299.777 267.53C299.284 267.53 298.77 267.71 298.237 268.07L297.737 267.37C298.384 266.857 299.117 266.6 299.937 266.6C300.564 266.6 301.074 266.76 301.467 267.08C301.867 267.393 302.067 267.89 302.067 268.57V272ZM300.947 270.02V269.57H299.687C298.88 269.57 298.477 269.823 298.477 270.33C298.477 270.59 298.577 270.79 298.777 270.93C298.977 271.063 299.254 271.13 299.607 271.13C299.967 271.13 300.28 271.03 300.547 270.83C300.814 270.63 300.947 270.36 300.947 270.02Z" fill="#88A1AC"/>
<path d="M304.746 272H303.626V264.58H304.746V268.94L306.906 266.68H308.346L306.326 268.79L308.496 272H307.136L305.556 269.67L304.746 270.49V272Z" fill="#88A1AC"/>
<path d="M313.659 272H312.639V271.29C312.199 271.817 311.609 272.08 310.869 272.08C310.315 272.08 309.855 271.923 309.489 271.61C309.129 271.297 308.949 270.88 308.949 270.36C308.949 269.833 309.142 269.44 309.529 269.18C309.915 268.92 310.439 268.79 311.099 268.79H312.549V268.59C312.549 267.883 312.155 267.53 311.369 267.53C310.875 267.53 310.362 267.71 309.829 268.07L309.329 267.37C309.975 266.857 310.709 266.6 311.529 266.6C312.155 266.6 312.665 266.76 313.059 267.08C313.459 267.393 313.659 267.89 313.659 268.57V272ZM312.539 270.02V269.57H311.279C310.472 269.57 310.069 269.823 310.069 270.33C310.069 270.59 310.169 270.79 310.369 270.93C310.569 271.063 310.845 271.13 311.199 271.13C311.559 271.13 311.872 271.03 312.139 270.83C312.405 270.63 312.539 270.36 312.539 270.02Z" fill="#88A1AC"/>
<path d="M316.338 269.12V272H315.218V266.68H316.338V267.65C316.498 267.323 316.738 267.067 317.058 266.88C317.384 266.693 317.734 266.6 318.108 266.6C318.948 266.6 319.518 266.947 319.818 267.64C320.344 266.947 321.001 266.6 321.788 266.6C322.388 266.6 322.871 266.783 323.238 267.15C323.611 267.517 323.798 268.047 323.798 268.74V272H322.678V269.08C322.678 268.1 322.271 267.61 321.458 267.61C321.078 267.61 320.744 267.733 320.458 267.98C320.178 268.22 320.031 268.573 320.018 269.04V272H318.898V269.08C318.898 268.573 318.808 268.203 318.628 267.97C318.448 267.73 318.164 267.61 317.778 267.61C317.391 267.61 317.054 267.74 316.768 268C316.481 268.253 316.338 268.627 316.338 269.12Z" fill="#88A1AC"/>
<path d="M326.595 270.6C326.915 270.92 327.318 271.08 327.805 271.08C328.291 271.08 328.691 270.92 329.005 270.6C329.325 270.273 329.485 269.853 329.485 269.34C329.485 268.827 329.325 268.41 329.005 268.09C328.691 267.763 328.291 267.6 327.805 267.6C327.318 267.6 326.915 267.763 326.595 268.09C326.281 268.41 326.125 268.827 326.125 269.34C326.125 269.853 326.281 270.273 326.595 270.6ZM329.805 271.29C329.271 271.817 328.605 272.08 327.805 272.08C327.005 272.08 326.338 271.817 325.805 271.29C325.271 270.757 325.005 270.107 325.005 269.34C325.005 268.573 325.271 267.927 325.805 267.4C326.338 266.867 327.005 266.6 327.805 266.6C328.605 266.6 329.271 266.867 329.805 267.4C330.338 267.927 330.605 268.573 330.605 269.34C330.605 270.107 330.338 270.757 329.805 271.29Z" fill="#88A1AC"/>
<path d="M333.18 267.58V270.28C333.18 270.533 333.246 270.737 333.38 270.89C333.513 271.037 333.7 271.11 333.94 271.11C334.18 271.11 334.41 270.993 334.63 270.76L335.09 271.55C334.696 271.903 334.26 272.08 333.78 272.08C333.306 272.08 332.9 271.917 332.56 271.59C332.226 271.257 332.06 270.81 332.06 270.25V267.58H331.39V266.68H332.06V265.01H333.18V266.68H334.58V267.58H333.18Z" fill="#88A1AC"/>
<path d="M337.18 270.6C337.5 270.92 337.904 271.08 338.39 271.08C338.877 271.08 339.277 270.92 339.59 270.6C339.91 270.273 340.07 269.853 340.07 269.34C340.07 268.827 339.91 268.41 339.59 268.09C339.277 267.763 338.877 267.6 338.39 267.6C337.904 267.6 337.5 267.763 337.18 268.09C336.867 268.41 336.71 268.827 336.71 269.34C336.71 269.853 336.867 270.273 337.18 270.6ZM340.39 271.29C339.857 271.817 339.19 272.08 338.39 272.08C337.59 272.08 336.924 271.817 336.39 271.29C335.857 270.757 335.59 270.107 335.59 269.34C335.59 268.573 335.857 267.927 336.39 267.4C336.924 266.867 337.59 266.6 338.39 266.6C339.19 266.6 339.857 266.867 340.39 267.4C340.924 267.927 341.19 268.573 341.19 269.34C341.19 270.107 340.924 270.757 340.39 271.29Z" fill="#88A1AC"/>
<path d="M224.246 535.01C225.306 535.01 226.079 535.213 226.566 535.62C227.052 536.027 227.296 536.653 227.296 537.5C227.296 538.347 227.046 538.967 226.546 539.36C226.052 539.753 225.292 539.95 224.266 539.95H223.026V542H221.846V535.01H224.246ZM224.396 538.88C225.049 538.88 225.492 538.757 225.726 538.51C225.966 538.257 226.086 537.89 226.086 537.41C226.086 536.923 225.936 536.58 225.636 536.38C225.336 536.18 224.866 536.08 224.226 536.08H223.026V538.88H224.396Z" fill="#88A1AC"/>
<path d="M229.703 540.6C230.023 540.92 230.426 541.08 230.913 541.08C231.4 541.08 231.8 540.92 232.113 540.6C232.433 540.273 232.593 539.853 232.593 539.34C232.593 538.827 232.433 538.41 232.113 538.09C231.8 537.763 231.4 537.6 230.913 537.6C230.426 537.6 230.023 537.763 229.703 538.09C229.39 538.41 229.233 538.827 229.233 539.34C229.233 539.853 229.39 540.273 229.703 540.6ZM232.913 541.29C232.38 541.817 231.713 542.08 230.913 542.08C230.113 542.08 229.446 541.817 228.913 541.29C228.38 540.757 228.113 540.107 228.113 539.34C228.113 538.573 228.38 537.927 228.913 537.4C229.446 536.867 230.113 536.6 230.913 536.6C231.713 536.6 232.38 536.867 232.913 537.4C233.446 537.927 233.713 538.573 233.713 539.34C233.713 540.107 233.446 540.757 232.913 541.29Z" fill="#88A1AC"/>
<path d="M237.408 542H236.128L234.288 536.68H235.448L236.768 540.7L238.088 536.68H239.248L240.568 540.7L241.888 536.68H243.048L241.208 542H239.928L238.668 538.36L237.408 542Z" fill="#88A1AC"/>
<path d="M248.989 539.83H244.819C244.846 540.217 245.022 540.53 245.349 540.77C245.676 541.003 246.049 541.12 246.469 541.12C247.136 541.12 247.642 540.91 247.989 540.49L248.629 541.19C248.056 541.783 247.309 542.08 246.389 542.08C245.642 542.08 245.006 541.833 244.479 541.34C243.959 540.84 243.699 540.173 243.699 539.34C243.699 538.5 243.966 537.833 244.499 537.34C245.032 536.847 245.659 536.6 246.379 536.6C247.106 536.6 247.722 536.82 248.229 537.26C248.736 537.693 248.989 538.293 248.989 539.06V539.83ZM244.819 538.95H247.869C247.869 538.503 247.729 538.16 247.449 537.92C247.169 537.68 246.822 537.56 246.409 537.56C246.002 537.56 245.636 537.687 245.309 537.94C244.982 538.187 244.819 538.523 244.819 538.95Z" fill="#88A1AC"/>
<path d="M253.011 537.73C252.457 537.73 252.041 537.91 251.761 538.27C251.481 538.63 251.341 539.113 251.341 539.72V542H250.221V536.68H251.341V537.75C251.521 537.417 251.764 537.143 252.071 536.93C252.384 536.717 252.714 536.607 253.061 536.6L253.071 537.73C253.051 537.73 253.031 537.73 253.011 537.73Z" fill="#88A1AC"/>
<path d="M259.145 539.83H254.975C255.002 540.217 255.179 540.53 255.505 540.77C255.832 541.003 256.205 541.12 256.625 541.12C257.292 541.12 257.799 540.91 258.145 540.49L258.785 541.19C258.212 541.783 257.465 542.08 256.545 542.08C255.799 542.08 255.162 541.833 254.635 541.34C254.115 540.84 253.855 540.173 253.855 539.34C253.855 538.5 254.122 537.833 254.655 537.34C255.189 536.847 255.815 536.6 256.535 536.6C257.262 536.6 257.879 536.82 258.385 537.26C258.892 537.693 259.145 538.293 259.145 539.06V539.83ZM254.975 538.95H258.025C258.025 538.503 257.885 538.16 257.605 537.92C257.325 537.68 256.979 537.56 256.565 537.56C256.159 537.56 255.792 537.687 255.465 537.94C255.139 538.187 254.975 538.523 254.975 538.95Z" fill="#88A1AC"/>
<path d="M262.547 542.08C261.874 542.08 261.287 541.827 260.787 541.32C260.287 540.813 260.037 540.147 260.037 539.32C260.037 538.493 260.294 537.833 260.807 537.34C261.32 536.847 261.93 536.6 262.637 536.6C263.35 536.6 263.924 536.9 264.357 537.5V534.58H265.477V542H264.357V541.2C263.944 541.787 263.34 542.08 262.547 542.08ZM261.157 539.37C261.157 539.877 261.32 540.29 261.647 540.61C261.974 540.93 262.357 541.09 262.797 541.09C263.237 541.09 263.61 540.93 263.917 540.61C264.224 540.283 264.377 539.867 264.377 539.36C264.377 538.853 264.224 538.43 263.917 538.09C263.61 537.75 263.234 537.58 262.787 537.58C262.34 537.58 261.957 537.75 261.637 538.09C261.317 538.43 261.157 538.857 261.157 539.37Z" fill="#88A1AC"/>
<path d="M272.69 536.6C273.403 536.6 274.013 536.847 274.52 537.34C275.027 537.833 275.28 538.49 275.28 539.31C275.28 540.13 275.027 540.797 274.52 541.31C274.02 541.823 273.433 542.08 272.76 542.08C272.093 542.08 271.493 541.787 270.96 541.2V542H269.84V534.58H270.96V537.61C271.4 536.937 271.977 536.6 272.69 536.6ZM270.94 539.35C270.94 539.857 271.093 540.273 271.4 540.6C271.707 540.92 272.08 541.08 272.52 541.08C272.96 541.08 273.343 540.92 273.67 540.6C273.997 540.28 274.16 539.867 274.16 539.36C274.16 538.847 274 538.423 273.68 538.09C273.36 537.75 272.977 537.58 272.53 537.58C272.083 537.58 271.707 537.75 271.4 538.09C271.093 538.423 270.94 538.843 270.94 539.35Z" fill="#88A1AC"/>
<path d="M277.229 544.12C276.742 544.12 276.302 543.943 275.909 543.59L276.419 542.68C276.652 542.9 276.892 543.01 277.139 543.01C277.392 543.01 277.595 542.92 277.749 542.74C277.909 542.56 277.989 542.363 277.989 542.15C277.989 542.057 277.272 540.233 275.839 536.68H277.039L278.629 540.6L280.219 536.68H281.419L278.839 543C278.685 543.347 278.465 543.62 278.179 543.82C277.892 544.02 277.575 544.12 277.229 544.12Z" fill="#88A1AC"/>
<path d="M290.078 541.398V532.214H292.122L296.924 538.514V532.214H299.108V541.398H300.466V542H296.924L292.262 535.868V542H288.72V541.398H290.078Z" fill="#88A1AC"/>
<path d="M304.909 541.398V542H300.317V541.398H301.521V532.214H303.705V541.398H304.909Z" fill="#88A1AC"/>
<path d="M306.115 541.398V532.214H308.159L312.961 538.514V532.214H315.145V541.398H316.503V542H312.961L308.299 535.868V542H304.757V541.398H306.115Z" fill="#88A1AC"/>
<path d="M324.138 541.398V542H316.354V541.398H318.02C317.563 541.193 317.129 540.875 316.718 540.446L317.852 538.836C318.44 539.471 319.056 539.788 319.7 539.788C320.008 539.788 320.269 539.667 320.484 539.424C320.708 539.181 320.82 538.827 320.82 538.36V534.09H317.922V532.214H323.018V538.318C323.018 539.802 322.514 540.829 321.506 541.398H324.138Z" fill="#88A1AC"/>
<path d="M335.991 541.398V542H332.309L331.399 539.886H327.297L326.387 542H322.705V541.398H324.315L328.291 532.214H330.405L334.367 541.398H335.991ZM329.355 535.126L328.123 537.968H330.573L329.355 535.126Z" fill="#88A1AC"/>
<path d="M344.043 541.398V542H334.411V541.398H335.769V532.214H339.227C340.73 532.214 341.822 532.508 342.503 533.096C343.194 533.675 343.539 534.571 343.539 535.784C343.539 536.988 343.184 537.87 342.475 538.43C341.775 538.99 340.702 539.27 339.255 539.27H337.953V541.398H344.043ZM339.423 537.38C340.151 537.38 340.646 537.235 340.907 536.946C341.168 536.647 341.299 536.218 341.299 535.658C341.299 535.089 341.126 534.687 340.781 534.454C340.445 534.211 339.918 534.09 339.199 534.09H337.953V537.38H339.423Z" fill="#88A1AC"/>
<path d="M355.898 541.398V542H352.216L351.306 539.886H347.204L346.294 542H342.612V541.398H344.222L348.198 532.214H350.312L354.274 541.398H355.898ZM349.262 535.126L348.03 537.968H350.48L349.262 535.126Z" fill="#88A1AC"/>
<path d="M363.123 541.398V542H354.471V541.398H357.705V538.136L354.317 532.214H356.683L358.797 535.854L360.911 532.214H363.277L359.889 538.136V541.398H363.123Z" fill="#88A1AC"/>
<defs>
<filter id="filter0_dd_1373_36531" x="0.5" y="0.5" width="599" height="621" filterUnits="userSpaceOnUse" color-interpolation-filters="sRGB">
<feFlood flood-opacity="0" result="BackgroundImageFix"/>
<feColorMatrix in="SourceAlpha" type="matrix" values="0 0 0 0 0 0 0 0 0 0 0 0 0 0 0 0 0 0 127 0" result="hardAlpha"/>
<feOffset dy="9"/>
<feGaussianBlur stdDeviation="20.25"/>
<feColorMatrix type="matrix" values="0 0 0 0 0 0 0 0 0 0 0 0 0 0 0 0 0 0 0.175 0"/>
<feBlend mode="normal" in2="BackgroundImageFix" result="effect1_dropShadow_1373_36531"/>
<feColorMatrix in="SourceAlpha" type="matrix" values="0 0 0 0 0 0 0 0 0 0 0 0 0 0 0 0 0 0 127 0" result="hardAlpha"/>
<feOffset/>
<feGaussianBlur stdDeviation="1.125"/>
<feColorMatrix type="matrix" values="0 0 0 0 0 0 0 0 0 0 0 0 0 0 0 0 0 0 0.25 0"/>
<feBlend mode="normal" in2="effect1_dropShadow_1373_36531" result="effect2_dropShadow_1373_36531"/>
<feBlend mode="normal" in="SourceGraphic" in2="effect2_dropShadow_1373_36531" result="shape"/>
</filter>
<filter id="filter1_bd_1373_36531" x="5" y="-4" width="590" height="171" filterUnits="userSpaceOnUse" color-interpolation-filters="sRGB">
<feFlood flood-opacity="0" result="BackgroundImageFix"/>
<feGaussianBlur in="BackgroundImage" stdDeviation="18"/>
<feComposite in2="SourceAlpha" operator="in" result="effect1_backgroundBlur_1373_36531"/>
<feColorMatrix in="SourceAlpha" type="matrix" values="0 0 0 0 0 0 0 0 0 0 0 0 0 0 0 0 0 0 127 0" result="hardAlpha"/>
<feOffset dy="0.5625"/>
<feColorMatrix type="matrix" values="0 0 0 0 1 0 0 0 0 1 0 0 0 0 1 0 0 0 0.25 0"/>
<feBlend mode="normal" in2="effect1_backgroundBlur_1373_36531" result="effect2_dropShadow_1373_36531"/>
<feBlend mode="normal" in="SourceGraphic" in2="effect2_dropShadow_1373_36531" result="shape"/>
</filter>
<filter id="filter2_d_1373_36531" x="48.875" y="84.875" width="502.25" height="38.25" filterUnits="userSpaceOnUse" color-interpolation-filters="sRGB">
<feFlood flood-opacity="0" result="BackgroundImageFix"/>
<feColorMatrix in="SourceAlpha" type="matrix" values="0 0 0 0 0 0 0 0 0 0 0 0 0 0 0 0 0 0 127 0" result="hardAlpha"/>
<feMorphology radius="1.125" operator="dilate" in="SourceAlpha" result="effect1_dropShadow_1373_36531"/>
<feOffset/>
<feColorMatrix type="matrix" values="0 0 0 0 1 0 0 0 0 1 0 0 0 0 1 0 0 0 0.1 0"/>
<feBlend mode="normal" in2="BackgroundImageFix" result="effect1_dropShadow_1373_36531"/>
<feBlend mode="normal" in="SourceGraphic" in2="effect1_dropShadow_1373_36531" result="shape"/>
</filter>
<filter id="filter3_d_1373_36531" x="57.875" y="51.125" width="15.75" height="15.75" filterUnits="userSpaceOnUse" color-interpolation-filters="sRGB">
<feFlood flood-opacity="0" result="BackgroundImageFix"/>
<feColorMatrix in="SourceAlpha" type="matrix" values="0 0 0 0 0 0 0 0 0 0 0 0 0 0 0 0 0 0 127 0" result="hardAlpha"/>
<feMorphology radius="1.125" operator="dilate" in="SourceAlpha" result="effect1_dropShadow_1373_36531"/>
<feOffset/>
<feColorMatrix type="matrix" values="0 0 0 0 1 0 0 0 0 1 0 0 0 0 1 0 0 0 0.15 0"/>
<feBlend mode="normal" in2="BackgroundImageFix" result="effect1_dropShadow_1373_36531"/>
<feBlend mode="normal" in="SourceGraphic" in2="effect1_dropShadow_1373_36531" result="shape"/>
</filter>
<filter id="filter4_d_1373_36531" x="80.375" y="51.125" width="15.75" height="15.75" filterUnits="userSpaceOnUse" color-interpolation-filters="sRGB">
<feFlood flood-opacity="0" result="BackgroundImageFix"/>
<feColorMatrix in="SourceAlpha" type="matrix" values="0 0 0 0 0 0 0 0 0 0 0 0 0 0 0 0 0 0 127 0" result="hardAlpha"/>
<feMorphology radius="1.125" operator="dilate" in="SourceAlpha" result="effect1_dropShadow_1373_36531"/>
<feOffset/>
<feColorMatrix type="matrix" values="0 0 0 0 1 0 0 0 0 1 0 0 0 0 1 0 0 0 0.15 0"/>
<feBlend mode="normal" in2="BackgroundImageFix" result="effect1_dropShadow_1373_36531"/>
<feBlend mode="normal" in="SourceGraphic" in2="effect1_dropShadow_1373_36531" result="shape"/>
</filter>
<filter id="filter5_d_1373_36531" x="102.875" y="51.125" width="15.75" height="15.75" filterUnits="userSpaceOnUse" color-interpolation-filters="sRGB">
<feFlood flood-opacity="0" result="BackgroundImageFix"/>
<feColorMatrix in="SourceAlpha" type="matrix" values="0 0 0 0 0 0 0 0 0 0 0 0 0 0 0 0 0 0 127 0" result="hardAlpha"/>
<feMorphology radius="1.125" operator="dilate" in="SourceAlpha" result="effect1_dropShadow_1373_36531"/>
<feOffset/>
<feColorMatrix type="matrix" values="0 0 0 0 1 0 0 0 0 1 0 0 0 0 1 0 0 0 0.15 0"/>
<feBlend mode="normal" in2="BackgroundImageFix" result="effect1_dropShadow_1373_36531"/>
<feBlend mode="normal" in="SourceGraphic" in2="effect1_dropShadow_1373_36531" result="shape"/>
</filter>
<clipPath id="clip0_1373_36531">
<rect x="41" y="32" width="518" height="540" rx="13.5" fill="white"/>
</clipPath>
</defs>
</svg>
