<svg width="784" height="301" viewBox="0 0 784 301" fill="none" xmlns="http://www.w3.org/2000/svg">
<path d="M29.0109 43.8529H41.6069C40.9369 47.0019 36.8499 47.9399 30.1499 47.9399C19.8989 47.9399 18.0899 42.8479 18.0899 37.1529C18.0899 31.5249 19.8319 27.1699 30.1499 27.1699C37.5199 27.1699 40.9369 29.3809 41.6069 31.7929H59.4289C58.6919 18.9959 48.9099 12.4299 30.1499 12.4299C10.8539 12.4299 0.669922 20.2019 0.669922 36.4829C0.669922 52.8309 10.8539 60.6699 28.1399 60.6699C37.9889 60.6699 44.1529 57.8559 48.1059 53.2329L49.3789 59.9999H59.4289V34.4729H29.0109V43.8529Z" fill="url(#paint0_linear_1264_13514)"/>
<path d="M64.4698 6.3999V59.9999H80.5498V6.3999H64.4698Z" fill="url(#paint1_linear_1264_13514)"/>
<path d="M112.914 60.6699C129.999 60.6699 140.25 54.7739 140.25 39.8999C140.25 25.0259 129.999 19.1299 112.914 19.1299C95.8291 19.1299 85.5781 25.0259 85.5781 39.8999C85.5781 54.7739 95.8291 60.6699 112.914 60.6699ZM112.914 47.2699C105.745 47.2699 101.658 45.7959 101.658 39.8999C101.658 34.0039 105.745 32.5299 112.914 32.5299C120.083 32.5299 124.17 34.0039 124.17 39.8999C124.17 45.7959 120.083 47.2699 112.914 47.2699Z" fill="url(#paint2_linear_1264_13514)"/>
<path d="M177.952 19.1299C171.721 19.1299 165.557 21.0059 161.336 25.2939V6.3999H145.256V59.9999H161.336V54.5059C165.557 58.7939 171.721 60.6699 177.952 60.6699C188.337 60.6699 199.928 56.1139 199.928 39.8999C199.928 23.6859 188.337 19.1299 177.952 19.1299ZM172.592 47.2699C165.423 47.2699 161.336 45.7959 161.336 39.8999C161.336 34.0039 165.423 32.5299 172.592 32.5299C179.761 32.5299 183.848 34.0039 183.848 39.8999C183.848 45.7959 179.761 47.2699 172.592 47.2699Z" fill="url(#paint3_linear_1264_13514)"/>
<path d="M230.409 19.1299C222.972 19.1299 214.262 20.6039 206.222 23.2169L211.448 34.6069C218.818 32.9989 224.714 32.5299 229.873 32.5299C235.233 32.5299 240.325 32.7309 240.325 37.5549C236.64 36.2149 232.352 35.4779 226.724 35.4779C214.999 35.4779 202.939 38.2249 202.939 48.6769C202.939 57.3869 210.979 60.6699 220.158 60.6699C227.126 60.6699 234.094 59.6649 240.325 55.1089V59.9999H256.405V40.1009C256.271 24.7579 246.891 19.1299 230.409 19.1299ZM240.325 46.8679C236.305 48.6099 230.409 49.9499 224.982 49.9499C220.895 49.9499 219.019 49.6149 219.019 47.4039C219.019 44.8579 222.235 44.1879 229.672 44.1879C234.295 44.1879 237.779 44.5229 240.325 45.1929V46.8679Z" fill="url(#paint4_linear_1264_13514)"/>
<path d="M262.094 6.3999V59.9999H278.174V6.3999H262.094Z" fill="url(#paint5_linear_1264_13514)"/>
<path d="M38.1899 93.0999H1.33992V140H18.7599V129.012H38.1899C48.8429 129.012 56.1459 121.508 56.1459 111.056C56.1459 100.604 48.8429 93.0999 38.1899 93.0999ZM34.8399 114.272H18.7599V107.84H34.8399C36.5819 107.84 38.7259 107.84 38.7259 111.056C38.7259 114.272 36.5819 114.272 34.8399 114.272Z" fill="url(#paint6_linear_1264_13514)"/>
<path d="M84.596 99.1299C77.159 99.1299 68.449 100.604 60.409 103.217L65.635 114.607C73.005 112.999 78.901 112.53 84.06 112.53C89.42 112.53 94.512 112.731 94.512 117.555C90.827 116.215 86.539 115.478 80.911 115.478C69.186 115.478 57.126 118.225 57.126 128.677C57.126 137.387 65.166 140.67 74.345 140.67C81.313 140.67 88.281 139.665 94.512 135.109V140H110.592V120.101C110.458 104.758 101.078 99.1299 84.596 99.1299ZM94.512 126.868C90.492 128.61 84.596 129.95 79.169 129.95C75.082 129.95 73.206 129.615 73.206 127.404C73.206 124.858 76.422 124.188 83.859 124.188C88.482 124.188 91.966 124.523 94.512 125.193V126.868Z" fill="url(#paint7_linear_1264_13514)"/>
<path d="M150.512 99.7999L139.323 127.739L127.665 99.7999H110.245L126.995 140H134.365L127.665 156.75H145.085L167.932 99.7999H150.512Z" fill="url(#paint8_linear_1264_13514)"/>
<path d="M241.154 99.1299C231.372 99.1299 225.208 102.48 220.987 106.5C217.838 100.604 211.473 99.1299 206.448 99.1299C196.666 99.1299 191.909 103.15 188.358 106.5V99.7999H172.278V140H188.358V118.292C191.775 114.942 195.192 113.2 199.279 113.2C205.175 113.2 206.984 116.148 206.984 123.049V140H223.064V118.292C226.481 114.942 229.898 113.2 233.985 113.2C239.881 113.2 241.69 116.148 241.69 123.049V140H257.77V115.813C257.77 101.944 248.189 99.1299 241.154 99.1299Z" fill="url(#paint9_linear_1264_13514)"/>
<path d="M288.819 127.94C284.397 127.94 279.908 126.868 278.568 122.58H316.691C316.691 105.026 306.038 99.1299 289.489 99.1299C273.074 99.1299 262.153 105.026 262.153 119.9C262.153 134.774 273.074 140.67 288.819 140.67C305.368 140.67 314.011 135.578 316.021 124.925H300.276C296.993 127.538 294.648 127.94 288.819 127.94ZM289.422 110.52C293.71 110.52 297.73 110.922 299.539 114.54H279.305C281.114 110.922 285.134 110.52 289.422 110.52Z" fill="url(#paint10_linear_1264_13514)"/>
<path d="M357.21 99.1299C348.768 99.1299 342.604 101.81 337.78 105.16V99.7999H321.7V140H337.78V118.292C340.929 115.277 345.954 113.2 350.711 113.2C357.947 113.2 360.426 116.148 360.426 123.049V140H376.506V116.483C376.506 101.944 366.255 99.1299 357.21 99.1299Z" fill="url(#paint11_linear_1264_13514)"/>
<path d="M421.491 113.2V99.7999H405.076V89.0799L388.996 93.0999V99.7999H380.889V113.2H388.996V128.141C388.996 136.851 395.16 140.67 407.622 140.67C412.915 140.67 417.672 140.335 421.491 139.665V126.6C416.868 127.27 414.858 127.27 411.24 127.27C406.55 127.27 405.076 125.327 405.076 121.508V113.2H421.491Z" fill="url(#paint12_linear_1264_13514)"/>
<path d="M425.829 126.131C425.829 138.727 439.229 140.67 454.438 140.67C469.647 140.67 480.367 138.727 480.367 126.466C480.367 115.947 470.25 115.009 454.438 114.205C444.254 113.669 442.579 113.736 442.579 112.061C442.579 110.52 444.924 110.52 453.098 110.52C460.267 110.52 462.947 110.52 462.947 112.664H479.027C479.027 101.073 468.642 99.1299 453.768 99.1299C438.894 99.1299 426.499 101.073 426.499 112.53C426.499 122.781 434.606 124.188 453.098 124.925C462.746 125.327 464.287 125.126 464.287 127.136C464.287 128.878 462.746 129.28 453.768 129.28C444.053 129.28 441.909 128.409 441.909 126.131H425.829Z" fill="url(#paint13_linear_1264_13514)"/>
<path d="M31.0209 176.115C33.9689 176.115 36.6489 176.249 39.2619 176.45V166.4C33.4329 165.73 31.3559 165.73 27.4029 165.73C13.6009 165.73 8.77692 169.549 8.77692 177.589V179.8H0.669922V193.2H8.77692V220H24.8569V193.2H39.2619V179.8H24.9909C25.4599 177.254 27.1349 176.115 31.0209 176.115Z" fill="url(#paint14_linear_1264_13514)"/>
<path d="M70.2637 220.67C87.3487 220.67 97.5997 214.774 97.5997 199.9C97.5997 185.026 87.3487 179.13 70.2637 179.13C53.1787 179.13 42.9277 185.026 42.9277 199.9C42.9277 214.774 53.1787 220.67 70.2637 220.67ZM70.2637 207.27C63.0947 207.27 59.0077 205.796 59.0077 199.9C59.0077 194.004 63.0947 192.53 70.2637 192.53C77.4327 192.53 81.5197 194.004 81.5197 199.9C81.5197 205.796 77.4327 207.27 70.2637 207.27Z" fill="url(#paint15_linear_1264_13514)"/>
<path d="M134.297 179.13C127.731 179.13 122.237 181.207 118.686 186.5V179.8H102.606V220H118.686V198.292C123.309 193.2 129.54 192.53 135.235 192.53C138.183 192.53 141.198 192.932 144.95 193.87V180.47C142.27 179.8 138.987 179.13 134.297 179.13Z" fill="url(#paint16_linear_1264_13514)"/>
<path d="M219.725 193.2V179.8H203.31V169.08L187.23 173.1V179.8H179.123V193.2H187.23V208.141C187.23 216.851 193.394 220.67 205.856 220.67C211.149 220.67 215.906 220.335 219.725 219.665V206.6C215.102 207.27 213.092 207.27 209.474 207.27C204.784 207.27 203.31 205.327 203.31 201.508V193.2H219.725Z" fill="url(#paint17_linear_1264_13514)"/>
<path d="M260.243 179.13C251.801 179.13 245.637 181.81 240.813 185.16V166.4H224.733V220H240.813V198.292C243.962 195.277 248.987 193.2 253.744 193.2C260.98 193.2 263.459 196.148 263.459 203.049V220H279.539V196.483C279.539 181.944 269.288 179.13 260.243 179.13Z" fill="url(#paint18_linear_1264_13514)"/>
<path d="M310.588 207.94C306.166 207.94 301.677 206.868 300.337 202.58H338.46C338.46 185.026 327.807 179.13 311.258 179.13C294.843 179.13 283.922 185.026 283.922 199.9C283.922 214.774 294.843 220.67 310.588 220.67C327.137 220.67 335.78 215.578 337.79 204.925H322.045C318.762 207.538 316.417 207.94 310.588 207.94ZM311.191 190.52C315.479 190.52 319.499 190.922 321.308 194.54H301.074C302.883 190.922 306.903 190.52 311.191 190.52Z" fill="url(#paint19_linear_1264_13514)"/>
<path d="M416.309 173.1V200.771L396.075 173.1H373.295V220H390.715V192.329L410.949 220H433.729V173.1H416.309Z" fill="url(#paint20_linear_1264_13514)"/>
<path d="M465.431 207.94C461.009 207.94 456.52 206.868 455.18 202.58H493.303C493.303 185.026 482.65 179.13 466.101 179.13C449.686 179.13 438.765 185.026 438.765 199.9C438.765 214.774 449.686 220.67 465.431 220.67C481.98 220.67 490.623 215.578 492.633 204.925H476.888C473.605 207.538 471.26 207.94 465.431 207.94ZM466.034 190.52C470.322 190.52 474.342 190.922 476.151 194.54H455.917C457.726 190.922 461.746 190.52 466.034 190.52Z" fill="url(#paint21_linear_1264_13514)"/>
<path d="M489.594 220H510.364L519.476 208.275L528.588 220H549.358L530.866 199.9L549.358 179.8H528.588L519.476 191.525L510.364 179.8H489.594L508.086 199.9L489.594 220Z" fill="url(#paint22_linear_1264_13514)"/>
<path d="M592.998 193.2V179.8H576.583V169.08L560.503 173.1V179.8H552.396V193.2H560.503V208.141C560.503 216.851 566.667 220.67 579.129 220.67C584.422 220.67 589.179 220.335 592.998 219.665V206.6C588.375 207.27 586.365 207.27 582.747 207.27C578.057 207.27 576.583 205.327 576.583 201.508V193.2H592.998Z" fill="url(#paint23_linear_1264_13514)"/>
<path d="M635.275 179.8V185.83C631.791 181.609 626.096 179.13 617.989 179.13C605.594 179.13 596.683 185.026 596.683 198.56C596.683 212.094 605.594 217.99 617.989 217.99C626.096 217.99 631.791 215.511 635.275 211.29C635.141 221.474 630.92 223.35 623.081 223.35C614.371 223.35 605.527 221.407 600.904 220.536V233.601C604.723 234.606 614.572 236.75 626.029 236.75C639.831 236.75 651.355 230.921 651.355 214.841V179.8H635.275ZM624.019 204.59C615.51 204.59 612.763 203.116 612.763 198.56C612.763 194.004 615.51 192.53 624.019 192.53C632.528 192.53 635.275 194.004 635.275 198.56C635.275 203.116 632.528 204.59 624.019 204.59Z" fill="url(#paint24_linear_1264_13514)"/>
<path d="M683.011 207.94C678.589 207.94 674.1 206.868 672.76 202.58H710.883C710.883 185.026 700.23 179.13 683.681 179.13C667.266 179.13 656.345 185.026 656.345 199.9C656.345 214.774 667.266 220.67 683.011 220.67C699.56 220.67 708.203 215.578 710.213 204.925H694.468C691.185 207.538 688.84 207.94 683.011 207.94ZM683.614 190.52C687.902 190.52 691.922 190.922 693.731 194.54H673.497C675.306 190.922 679.326 190.52 683.614 190.52Z" fill="url(#paint25_linear_1264_13514)"/>
<path d="M751.402 179.13C742.96 179.13 736.796 181.81 731.972 185.16V179.8H715.892V220H731.972V198.292C735.121 195.277 740.146 193.2 744.903 193.2C752.139 193.2 754.618 196.148 754.618 203.049V220H770.698V196.483C770.698 181.944 760.447 179.13 751.402 179.13Z" fill="url(#paint26_linear_1264_13514)"/>
<g opacity="0.6">
<path d="M13.0124 265.97H9.06836V264.1H19.1664V265.97H15.2224V276H13.0124V265.97Z" fill="#88A1AC"/>
<path d="M26.2719 266.82C27.4166 266.82 28.3346 267.154 29.0259 267.823C29.7173 268.492 30.0629 269.483 30.0629 270.798V276H27.9379V271.07C27.9379 270.277 27.7509 269.682 27.3769 269.285C27.0029 268.877 26.4703 268.673 25.7789 268.673C24.9969 268.673 24.3793 268.911 23.9259 269.387C23.4726 269.852 23.2459 270.526 23.2459 271.41V276H21.1209V263.386H23.2459V267.976C23.5973 267.602 24.0279 267.319 24.5379 267.126C25.0593 266.922 25.6373 266.82 26.2719 266.82Z" fill="#88A1AC"/>
<path d="M41.8756 271.512C41.8756 271.659 41.8643 271.869 41.8416 272.141H34.7186C34.8433 272.81 35.1663 273.342 35.6876 273.739C36.2203 274.124 36.8776 274.317 37.6596 274.317C38.657 274.317 39.4786 273.988 40.1246 273.331L41.2636 274.64C40.8556 275.127 40.34 275.496 39.7166 275.745C39.0933 275.994 38.3906 276.119 37.6086 276.119C36.6113 276.119 35.733 275.921 34.9736 275.524C34.2143 275.127 33.625 274.578 33.2056 273.875C32.7976 273.161 32.5936 272.356 32.5936 271.461C32.5936 270.577 32.792 269.784 33.1886 269.081C33.5966 268.367 34.1576 267.812 34.8716 267.415C35.5856 267.018 36.3903 266.82 37.2856 266.82C38.1696 266.82 38.9573 267.018 39.6486 267.415C40.3513 267.8 40.8953 268.35 41.2806 269.064C41.6773 269.767 41.8756 270.583 41.8756 271.512ZM37.2856 268.52C36.6056 268.52 36.0276 268.724 35.5516 269.132C35.087 269.529 34.8036 270.061 34.7016 270.73H39.8526C39.762 270.073 39.4843 269.54 39.0196 269.132C38.555 268.724 37.977 268.52 37.2856 268.52Z" fill="#88A1AC"/>
<path d="M53.3041 264.984C52.4087 264.984 51.9611 265.471 51.9611 266.446V266.99H54.4601V268.69H52.0291V276H49.9041V268.69H48.4081V266.99H49.9041V266.412C49.9041 265.437 50.1874 264.672 50.7541 264.117C51.3207 263.55 52.1197 263.267 53.1511 263.267C53.9671 263.267 54.6074 263.431 55.0721 263.76L54.4771 265.358C54.1144 265.109 53.7234 264.984 53.3041 264.984Z" fill="#88A1AC"/>
<path d="M59.6924 266.82C61.0298 266.82 62.0498 267.143 62.7524 267.789C63.4664 268.424 63.8234 269.387 63.8234 270.679V276H61.8174V274.895C61.5568 275.292 61.1828 275.598 60.6954 275.813C60.2194 276.017 59.6414 276.119 58.9614 276.119C58.2814 276.119 57.6864 276.006 57.1764 275.779C56.6664 275.541 56.2698 275.218 55.9864 274.81C55.7144 274.391 55.5784 273.92 55.5784 273.399C55.5784 272.583 55.8788 271.931 56.4794 271.444C57.0914 270.945 58.0491 270.696 59.3524 270.696H61.6984V270.56C61.6984 269.925 61.5058 269.438 61.1204 269.098C60.7464 268.758 60.1854 268.588 59.4374 268.588C58.9274 268.588 58.4231 268.667 57.9244 268.826C57.4371 268.985 57.0234 269.206 56.6834 269.489L55.8504 267.942C56.3264 267.579 56.8988 267.302 57.5674 267.109C58.2361 266.916 58.9444 266.82 59.6924 266.82ZM59.4034 274.572C59.9361 274.572 60.4064 274.453 60.8144 274.215C61.2338 273.966 61.5284 273.614 61.6984 273.161V272.107H59.5054C58.2814 272.107 57.6694 272.509 57.6694 273.314C57.6694 273.699 57.8224 274.005 58.1284 274.232C58.4344 274.459 58.8594 274.572 59.4034 274.572Z" fill="#88A1AC"/>
<path d="M69.8556 276.119C69.1189 276.119 68.3993 276.023 67.6966 275.83C66.9939 275.637 66.4329 275.394 66.0136 275.099L66.8296 273.484C67.2376 273.756 67.7249 273.977 68.2916 274.147C68.8696 274.306 69.4363 274.385 69.9916 274.385C71.2609 274.385 71.8956 274.051 71.8956 273.382C71.8956 273.065 71.7313 272.844 71.4026 272.719C71.0853 272.594 70.5696 272.475 69.8556 272.362C69.1076 272.249 68.4956 272.118 68.0196 271.971C67.5549 271.824 67.1469 271.569 66.7956 271.206C66.4556 270.832 66.2856 270.316 66.2856 269.659C66.2856 268.798 66.6426 268.112 67.3566 267.602C68.0819 267.081 69.0566 266.82 70.2806 266.82C70.9039 266.82 71.5273 266.894 72.1506 267.041C72.7739 267.177 73.2839 267.364 73.6806 267.602L72.8646 269.217C72.0939 268.764 71.2269 268.537 70.2636 268.537C69.6403 268.537 69.1643 268.633 68.8356 268.826C68.5183 269.007 68.3596 269.251 68.3596 269.557C68.3596 269.897 68.5296 270.141 68.8696 270.288C69.2209 270.424 69.7593 270.554 70.4846 270.679C71.2099 270.792 71.8049 270.923 72.2696 271.07C72.7343 271.217 73.1309 271.467 73.4596 271.818C73.7996 272.169 73.9696 272.668 73.9696 273.314C73.9696 274.164 73.6013 274.844 72.8646 275.354C72.1279 275.864 71.1249 276.119 69.8556 276.119Z" fill="#88A1AC"/>
<path d="M81.7566 275.507C81.5073 275.711 81.2013 275.864 80.8386 275.966C80.4873 276.068 80.1133 276.119 79.7166 276.119C78.7193 276.119 77.9486 275.858 77.4046 275.337C76.8606 274.816 76.5886 274.056 76.5886 273.059V268.69H75.0926V266.99H76.5886V264.916H78.7136V266.99H81.1446V268.69H78.7136V273.008C78.7136 273.45 78.8213 273.79 79.0366 274.028C79.252 274.255 79.5636 274.368 79.9716 274.368C80.4476 274.368 80.8443 274.243 81.1616 273.994L81.7566 275.507Z" fill="#88A1AC"/>
<path d="M92.2399 271.512C92.2399 271.659 92.2286 271.869 92.2059 272.141H85.0829C85.2076 272.81 85.5305 273.342 86.0519 273.739C86.5845 274.124 87.2419 274.317 88.0239 274.317C89.0212 274.317 89.8429 273.988 90.4889 273.331L91.6279 274.64C91.2199 275.127 90.7042 275.496 90.0809 275.745C89.4576 275.994 88.7549 276.119 87.9729 276.119C86.9756 276.119 86.0972 275.921 85.3379 275.524C84.5785 275.127 83.9892 274.578 83.5699 273.875C83.1619 273.161 82.9579 272.356 82.9579 271.461C82.9579 270.577 83.1562 269.784 83.5529 269.081C83.9609 268.367 84.5219 267.812 85.2359 267.415C85.9499 267.018 86.7545 266.82 87.6499 266.82C88.5339 266.82 89.3216 267.018 90.0129 267.415C90.7156 267.8 91.2595 268.35 91.6449 269.064C92.0415 269.767 92.2399 270.583 92.2399 271.512ZM87.6499 268.52C86.9699 268.52 86.3919 268.724 85.9159 269.132C85.4512 269.529 85.1679 270.061 85.0659 270.73H90.2169C90.1262 270.073 89.8485 269.54 89.3839 269.132C88.9192 268.724 88.3412 268.52 87.6499 268.52Z" fill="#88A1AC"/>
<path d="M97.5861 276.119C96.8494 276.119 96.1297 276.023 95.4271 275.83C94.7244 275.637 94.1634 275.394 93.7441 275.099L94.5601 273.484C94.9681 273.756 95.4554 273.977 96.0221 274.147C96.6001 274.306 97.1667 274.385 97.7221 274.385C98.9914 274.385 99.6261 274.051 99.6261 273.382C99.6261 273.065 99.4617 272.844 99.1331 272.719C98.8157 272.594 98.3001 272.475 97.5861 272.362C96.8381 272.249 96.2261 272.118 95.7501 271.971C95.2854 271.824 94.8774 271.569 94.5261 271.206C94.1861 270.832 94.0161 270.316 94.0161 269.659C94.0161 268.798 94.3731 268.112 95.0871 267.602C95.8124 267.081 96.7871 266.82 98.0111 266.82C98.6344 266.82 99.2577 266.894 99.8811 267.041C100.504 267.177 101.014 267.364 101.411 267.602L100.595 269.217C99.8244 268.764 98.9574 268.537 97.9941 268.537C97.3707 268.537 96.8947 268.633 96.5661 268.826C96.2487 269.007 96.0901 269.251 96.0901 269.557C96.0901 269.897 96.2601 270.141 96.6001 270.288C96.9514 270.424 97.4897 270.554 98.2151 270.679C98.9404 270.792 99.5354 270.923 100 271.07C100.465 271.217 100.861 271.467 101.19 271.818C101.53 272.169 101.7 272.668 101.7 273.314C101.7 274.164 101.332 274.844 100.595 275.354C99.8584 275.864 98.8554 276.119 97.5861 276.119Z" fill="#88A1AC"/>
<path d="M109.487 275.507C109.238 275.711 108.932 275.864 108.569 275.966C108.218 276.068 107.844 276.119 107.447 276.119C106.45 276.119 105.679 275.858 105.135 275.337C104.591 274.816 104.319 274.056 104.319 273.059V268.69H102.823V266.99H104.319V264.916H106.444V266.99H108.875V268.69H106.444V273.008C106.444 273.45 106.552 273.79 106.767 274.028C106.982 274.255 107.294 274.368 107.702 274.368C108.178 274.368 108.575 274.243 108.892 273.994L109.487 275.507Z" fill="#88A1AC"/>
<path d="M131.094 266.922L127.745 276H125.705L123.359 269.744L120.979 276H118.939L115.607 266.922H117.613L120.01 273.62L122.509 266.922H124.294L126.742 273.654L129.207 266.922H131.094Z" fill="#88A1AC"/>
<path d="M136.241 266.82C137.579 266.82 138.599 267.143 139.301 267.789C140.015 268.424 140.372 269.387 140.372 270.679V276H138.366V274.895C138.106 275.292 137.732 275.598 137.244 275.813C136.768 276.017 136.19 276.119 135.51 276.119C134.83 276.119 134.235 276.006 133.725 275.779C133.215 275.541 132.819 275.218 132.535 274.81C132.263 274.391 132.127 273.92 132.127 273.399C132.127 272.583 132.428 271.931 133.028 271.444C133.64 270.945 134.598 270.696 135.901 270.696H138.247V270.56C138.247 269.925 138.055 269.438 137.669 269.098C137.295 268.758 136.734 268.588 135.986 268.588C135.476 268.588 134.972 268.667 134.473 268.826C133.986 268.985 133.572 269.206 133.232 269.489L132.399 267.942C132.875 267.579 133.448 267.302 134.116 267.109C134.785 266.916 135.493 266.82 136.241 266.82ZM135.952 274.572C136.485 274.572 136.955 274.453 137.363 274.215C137.783 273.966 138.077 273.614 138.247 273.161V272.107H136.054C134.83 272.107 134.218 272.509 134.218 273.314C134.218 273.699 134.371 274.005 134.677 274.232C134.983 274.459 135.408 274.572 135.952 274.572Z" fill="#88A1AC"/>
<path d="M151.933 266.922L147.683 276.731C147.287 277.717 146.805 278.408 146.238 278.805C145.672 279.213 144.986 279.417 144.181 279.417C143.728 279.417 143.28 279.343 142.838 279.196C142.396 279.049 142.034 278.845 141.75 278.584L142.6 277.02C142.804 277.213 143.042 277.366 143.314 277.479C143.598 277.592 143.881 277.649 144.164 277.649C144.538 277.649 144.844 277.553 145.082 277.36C145.332 277.167 145.558 276.844 145.762 276.391L145.915 276.034L141.954 266.922H144.164L147.02 273.637L149.893 266.922H151.933Z" fill="#88A1AC"/>
<path d="M164.417 275.507C164.167 275.711 163.861 275.864 163.499 275.966C163.147 276.068 162.773 276.119 162.377 276.119C161.379 276.119 160.609 275.858 160.065 275.337C159.521 274.816 159.249 274.056 159.249 273.059V268.69H157.753V266.99H159.249V264.916H161.374V266.99H163.805V268.69H161.374V273.008C161.374 273.45 161.481 273.79 161.697 274.028C161.912 274.255 162.224 274.368 162.632 274.368C163.108 274.368 163.504 274.243 163.822 273.994L164.417 275.507Z" fill="#88A1AC"/>
<path d="M170.446 276.119C169.528 276.119 168.701 275.921 167.964 275.524C167.227 275.127 166.649 274.578 166.23 273.875C165.822 273.161 165.618 272.356 165.618 271.461C165.618 270.566 165.822 269.767 166.23 269.064C166.649 268.361 167.227 267.812 167.964 267.415C168.701 267.018 169.528 266.82 170.446 266.82C171.375 266.82 172.208 267.018 172.945 267.415C173.682 267.812 174.254 268.361 174.662 269.064C175.081 269.767 175.291 270.566 175.291 271.461C175.291 272.356 175.081 273.161 174.662 273.875C174.254 274.578 173.682 275.127 172.945 275.524C172.208 275.921 171.375 276.119 170.446 276.119ZM170.446 274.3C171.228 274.3 171.874 274.039 172.384 273.518C172.894 272.997 173.149 272.311 173.149 271.461C173.149 270.611 172.894 269.925 172.384 269.404C171.874 268.883 171.228 268.622 170.446 268.622C169.664 268.622 169.018 268.883 168.508 269.404C168.009 269.925 167.76 270.611 167.76 271.461C167.76 272.311 168.009 272.997 168.508 273.518C169.018 274.039 169.664 274.3 170.446 274.3Z" fill="#88A1AC"/>
<path d="M185.826 276.119C185.09 276.119 184.37 276.023 183.667 275.83C182.965 275.637 182.404 275.394 181.984 275.099L182.8 273.484C183.208 273.756 183.696 273.977 184.262 274.147C184.84 274.306 185.407 274.385 185.962 274.385C187.232 274.385 187.866 274.051 187.866 273.382C187.866 273.065 187.702 272.844 187.373 272.719C187.056 272.594 186.54 272.475 185.826 272.362C185.078 272.249 184.466 272.118 183.99 271.971C183.526 271.824 183.118 271.569 182.766 271.206C182.426 270.832 182.256 270.316 182.256 269.659C182.256 268.798 182.613 268.112 183.327 267.602C184.053 267.081 185.027 266.82 186.251 266.82C186.875 266.82 187.498 266.894 188.121 267.041C188.745 267.177 189.255 267.364 189.651 267.602L188.835 269.217C188.065 268.764 187.198 268.537 186.234 268.537C185.611 268.537 185.135 268.633 184.806 268.826C184.489 269.007 184.33 269.251 184.33 269.557C184.33 269.897 184.5 270.141 184.84 270.288C185.192 270.424 185.73 270.554 186.455 270.679C187.181 270.792 187.776 270.923 188.24 271.07C188.705 271.217 189.102 271.467 189.43 271.818C189.77 272.169 189.94 272.668 189.94 273.314C189.94 274.164 189.572 274.844 188.835 275.354C188.099 275.864 187.096 276.119 185.826 276.119Z" fill="#88A1AC"/>
<path d="M200.804 271.512C200.804 271.659 200.793 271.869 200.77 272.141H193.647C193.772 272.81 194.095 273.342 194.616 273.739C195.149 274.124 195.806 274.317 196.588 274.317C197.586 274.317 198.407 273.988 199.053 273.331L200.192 274.64C199.784 275.127 199.269 275.496 198.645 275.745C198.022 275.994 197.319 276.119 196.537 276.119C195.54 276.119 194.662 275.921 193.902 275.524C193.143 275.127 192.554 274.578 192.134 273.875C191.726 273.161 191.522 272.356 191.522 271.461C191.522 270.577 191.721 269.784 192.117 269.081C192.525 268.367 193.086 267.812 193.8 267.415C194.514 267.018 195.319 266.82 196.214 266.82C197.098 266.82 197.886 267.018 198.577 267.415C199.28 267.8 199.824 268.35 200.209 269.064C200.606 269.767 200.804 270.583 200.804 271.512ZM196.214 268.52C195.534 268.52 194.956 268.724 194.48 269.132C194.016 269.529 193.732 270.061 193.63 270.73H198.781C198.691 270.073 198.413 269.54 197.948 269.132C197.484 268.724 196.906 268.52 196.214 268.52Z" fill="#88A1AC"/>
<path d="M208.497 266.82C209.641 266.82 210.559 267.154 211.251 267.823C211.942 268.492 212.288 269.483 212.288 270.798V276H210.163V271.07C210.163 270.277 209.976 269.682 209.602 269.285C209.228 268.877 208.695 268.673 208.004 268.673C207.222 268.673 206.604 268.911 206.151 269.387C205.697 269.852 205.471 270.526 205.471 271.41V276H203.346V266.922H205.369V268.095C205.72 267.676 206.162 267.358 206.695 267.143C207.227 266.928 207.828 266.82 208.497 266.82Z" fill="#88A1AC"/>
<path d="M224.457 263.386V276H222.417V274.827C222.066 275.258 221.63 275.581 221.108 275.796C220.598 276.011 220.032 276.119 219.408 276.119C218.536 276.119 217.748 275.926 217.045 275.541C216.354 275.156 215.81 274.612 215.413 273.909C215.017 273.195 214.818 272.379 214.818 271.461C214.818 270.543 215.017 269.733 215.413 269.03C215.81 268.327 216.354 267.783 217.045 267.398C217.748 267.013 218.536 266.82 219.408 266.82C220.009 266.82 220.559 266.922 221.057 267.126C221.556 267.33 221.981 267.636 222.332 268.044V263.386H224.457ZM219.663 274.3C220.173 274.3 220.632 274.187 221.04 273.96C221.448 273.722 221.771 273.388 222.009 272.957C222.247 272.526 222.366 272.028 222.366 271.461C222.366 270.894 222.247 270.396 222.009 269.965C221.771 269.534 221.448 269.206 221.04 268.979C220.632 268.741 220.173 268.622 219.663 268.622C219.153 268.622 218.694 268.741 218.286 268.979C217.878 269.206 217.555 269.534 217.317 269.965C217.079 270.396 216.96 270.894 216.96 271.461C216.96 272.028 217.079 272.526 217.317 272.957C217.555 273.388 217.878 273.722 218.286 273.96C218.694 274.187 219.153 274.3 219.663 274.3Z" fill="#88A1AC"/>
<path d="M236.403 266.82C237.741 266.82 238.761 267.143 239.463 267.789C240.177 268.424 240.534 269.387 240.534 270.679V276H238.528V274.895C238.268 275.292 237.894 275.598 237.406 275.813C236.93 276.017 236.352 276.119 235.672 276.119C234.992 276.119 234.397 276.006 233.887 275.779C233.377 275.541 232.981 275.218 232.697 274.81C232.425 274.391 232.289 273.92 232.289 273.399C232.289 272.583 232.59 271.931 233.19 271.444C233.802 270.945 234.76 270.696 236.063 270.696H238.409V270.56C238.409 269.925 238.217 269.438 237.831 269.098C237.457 268.758 236.896 268.588 236.148 268.588C235.638 268.588 235.134 268.667 234.635 268.826C234.148 268.985 233.734 269.206 233.394 269.489L232.561 267.942C233.037 267.579 233.61 267.302 234.278 267.109C234.947 266.916 235.655 266.82 236.403 266.82ZM236.114 274.572C236.647 274.572 237.117 274.453 237.525 274.215C237.945 273.966 238.239 273.614 238.409 273.161V272.107H236.216C234.992 272.107 234.38 272.509 234.38 273.314C234.38 273.699 234.533 274.005 234.839 274.232C235.145 274.459 235.57 274.572 236.114 274.572Z" fill="#88A1AC"/>
<path d="M248.913 266.82C250.057 266.82 250.975 267.154 251.667 267.823C252.358 268.492 252.704 269.483 252.704 270.798V276H250.579V271.07C250.579 270.277 250.392 269.682 250.018 269.285C249.644 268.877 249.111 268.673 248.42 268.673C247.638 268.673 247.02 268.911 246.567 269.387C246.113 269.852 245.887 270.526 245.887 271.41V276H243.762V266.922H245.785V268.095C246.136 267.676 246.578 267.358 247.111 267.143C247.643 266.928 248.244 266.82 248.913 266.82Z" fill="#88A1AC"/>
<path d="M264.873 263.386V276H262.833V274.827C262.482 275.258 262.046 275.581 261.524 275.796C261.014 276.011 260.448 276.119 259.824 276.119C258.952 276.119 258.164 275.926 257.461 275.541C256.77 275.156 256.226 274.612 255.829 273.909C255.433 273.195 255.234 272.379 255.234 271.461C255.234 270.543 255.433 269.733 255.829 269.03C256.226 268.327 256.77 267.783 257.461 267.398C258.164 267.013 258.952 266.82 259.824 266.82C260.425 266.82 260.975 266.922 261.473 267.126C261.972 267.33 262.397 267.636 262.748 268.044V263.386H264.873ZM260.079 274.3C260.589 274.3 261.048 274.187 261.456 273.96C261.864 273.722 262.187 273.388 262.425 272.957C262.663 272.526 262.782 272.028 262.782 271.461C262.782 270.894 262.663 270.396 262.425 269.965C262.187 269.534 261.864 269.206 261.456 268.979C261.048 268.741 260.589 268.622 260.079 268.622C259.569 268.622 259.11 268.741 258.702 268.979C258.294 269.206 257.971 269.534 257.733 269.965C257.495 270.396 257.376 270.894 257.376 271.461C257.376 272.028 257.495 272.526 257.733 272.957C257.971 273.388 258.294 273.722 258.702 273.96C259.11 274.187 259.569 274.3 260.079 274.3Z" fill="#88A1AC"/>
<path d="M275.374 268.248C275.986 267.296 277.063 266.82 278.604 266.82V268.843C278.423 268.809 278.259 268.792 278.111 268.792C277.284 268.792 276.638 269.036 276.173 269.523C275.709 269.999 275.476 270.69 275.476 271.597V276H273.351V266.922H275.374V268.248Z" fill="#88A1AC"/>
<path d="M289.358 271.512C289.358 271.659 289.347 271.869 289.324 272.141H282.201C282.326 272.81 282.649 273.342 283.17 273.739C283.703 274.124 284.36 274.317 285.142 274.317C286.139 274.317 286.961 273.988 287.607 273.331L288.746 274.64C288.338 275.127 287.822 275.496 287.199 275.745C286.576 275.994 285.873 276.119 285.091 276.119C284.094 276.119 283.215 275.921 282.456 275.524C281.697 275.127 281.107 274.578 280.688 273.875C280.28 273.161 280.076 272.356 280.076 271.461C280.076 270.577 280.274 269.784 280.671 269.081C281.079 268.367 281.64 267.812 282.354 267.415C283.068 267.018 283.873 266.82 284.768 266.82C285.652 266.82 286.44 267.018 287.131 267.415C287.834 267.8 288.378 268.35 288.763 269.064C289.16 269.767 289.358 270.583 289.358 271.512ZM284.768 268.52C284.088 268.52 283.51 268.724 283.034 269.132C282.569 269.529 282.286 270.061 282.184 270.73H287.335C287.244 270.073 286.967 269.54 286.502 269.132C286.037 268.724 285.459 268.52 284.768 268.52Z" fill="#88A1AC"/>
<path d="M296.064 276.119C295.124 276.119 294.279 275.921 293.531 275.524C292.783 275.127 292.2 274.578 291.78 273.875C291.361 273.161 291.151 272.356 291.151 271.461C291.151 270.566 291.361 269.767 291.78 269.064C292.2 268.361 292.778 267.812 293.514 267.415C294.262 267.018 295.112 266.82 296.064 266.82C296.96 266.82 297.742 267.001 298.41 267.364C299.09 267.727 299.6 268.248 299.94 268.928L298.308 269.88C298.048 269.461 297.719 269.149 297.322 268.945C296.937 268.73 296.512 268.622 296.047 268.622C295.254 268.622 294.597 268.883 294.075 269.404C293.554 269.914 293.293 270.6 293.293 271.461C293.293 272.322 293.548 273.014 294.058 273.535C294.58 274.045 295.243 274.3 296.047 274.3C296.512 274.3 296.937 274.198 297.322 273.994C297.719 273.779 298.048 273.461 298.308 273.042L299.94 273.994C299.589 274.674 299.073 275.201 298.393 275.575C297.725 275.938 296.948 276.119 296.064 276.119Z" fill="#88A1AC"/>
<path d="M310.678 271.512C310.678 271.659 310.667 271.869 310.644 272.141H303.521C303.646 272.81 303.969 273.342 304.49 273.739C305.023 274.124 305.68 274.317 306.462 274.317C307.46 274.317 308.281 273.988 308.927 273.331L310.066 274.64C309.658 275.127 309.143 275.496 308.519 275.745C307.896 275.994 307.193 276.119 306.411 276.119C305.414 276.119 304.536 275.921 303.776 275.524C303.017 275.127 302.428 274.578 302.008 273.875C301.6 273.161 301.396 272.356 301.396 271.461C301.396 270.577 301.595 269.784 301.991 269.081C302.399 268.367 302.96 267.812 303.674 267.415C304.388 267.018 305.193 266.82 306.088 266.82C306.972 266.82 307.76 267.018 308.451 267.415C309.154 267.8 309.698 268.35 310.083 269.064C310.48 269.767 310.678 270.583 310.678 271.512ZM306.088 268.52C305.408 268.52 304.83 268.724 304.354 269.132C303.89 269.529 303.606 270.061 303.504 270.73H308.655C308.565 270.073 308.287 269.54 307.822 269.132C307.358 268.724 306.78 268.52 306.088 268.52Z" fill="#88A1AC"/>
<path d="M313.22 266.922H315.345V276H313.22V266.922ZM314.291 265.426C313.905 265.426 313.582 265.307 313.322 265.069C313.061 264.82 312.931 264.514 312.931 264.151C312.931 263.788 313.061 263.488 313.322 263.25C313.582 263.001 313.905 262.876 314.291 262.876C314.676 262.876 314.999 262.995 315.26 263.233C315.52 263.46 315.651 263.749 315.651 264.1C315.651 264.474 315.52 264.791 315.26 265.052C315.01 265.301 314.687 265.426 314.291 265.426Z" fill="#88A1AC"/>
<path d="M327.134 266.922L323.241 276H321.048L317.155 266.922H319.365L322.187 273.654L325.094 266.922H327.134Z" fill="#88A1AC"/>
<path d="M337.247 271.512C337.247 271.659 337.235 271.869 337.213 272.141H330.09C330.214 272.81 330.537 273.342 331.059 273.739C331.591 274.124 332.249 274.317 333.031 274.317C334.028 274.317 334.85 273.988 335.496 273.331L336.635 274.64C336.227 275.127 335.711 275.496 335.088 275.745C334.464 275.994 333.762 276.119 332.98 276.119C331.982 276.119 331.104 275.921 330.345 275.524C329.585 275.127 328.996 274.578 328.577 273.875C328.169 273.161 327.965 272.356 327.965 271.461C327.965 270.577 328.163 269.784 328.56 269.081C328.968 268.367 329.529 267.812 330.243 267.415C330.957 267.018 331.761 266.82 332.657 266.82C333.541 266.82 334.328 267.018 335.02 267.415C335.722 267.8 336.266 268.35 336.652 269.064C337.048 269.767 337.247 270.583 337.247 271.512ZM332.657 268.52C331.977 268.52 331.399 268.724 330.923 269.132C330.458 269.529 330.175 270.061 330.073 270.73H335.224C335.133 270.073 334.855 269.54 334.391 269.132C333.926 268.724 333.348 268.52 332.657 268.52Z" fill="#88A1AC"/>
<path d="M356.444 266.82C357.589 266.82 358.495 267.154 359.164 267.823C359.833 268.48 360.167 269.472 360.167 270.798V276H358.042V271.07C358.042 270.277 357.867 269.682 357.515 269.285C357.164 268.877 356.66 268.673 356.002 268.673C355.288 268.673 354.716 268.911 354.285 269.387C353.854 269.852 353.639 270.52 353.639 271.393V276H351.514V271.07C351.514 270.277 351.338 269.682 350.987 269.285C350.636 268.877 350.131 268.673 349.474 268.673C348.749 268.673 348.171 268.905 347.74 269.37C347.321 269.835 347.111 270.509 347.111 271.393V276H344.986V266.922H347.009V268.078C347.349 267.67 347.774 267.358 348.284 267.143C348.794 266.928 349.361 266.82 349.984 266.82C350.664 266.82 351.265 266.95 351.786 267.211C352.319 267.46 352.738 267.834 353.044 268.333C353.418 267.857 353.9 267.489 354.489 267.228C355.078 266.956 355.73 266.82 356.444 266.82Z" fill="#88A1AC"/>
<path d="M367.546 276.119C366.628 276.119 365.8 275.921 365.064 275.524C364.327 275.127 363.749 274.578 363.33 273.875C362.922 273.161 362.718 272.356 362.718 271.461C362.718 270.566 362.922 269.767 363.33 269.064C363.749 268.361 364.327 267.812 365.064 267.415C365.8 267.018 366.628 266.82 367.546 266.82C368.475 266.82 369.308 267.018 370.045 267.415C370.781 267.812 371.354 268.361 371.762 269.064C372.181 269.767 372.391 270.566 372.391 271.461C372.391 272.356 372.181 273.161 371.762 273.875C371.354 274.578 370.781 275.127 370.045 275.524C369.308 275.921 368.475 276.119 367.546 276.119ZM367.546 274.3C368.328 274.3 368.974 274.039 369.484 273.518C369.994 272.997 370.249 272.311 370.249 271.461C370.249 270.611 369.994 269.925 369.484 269.404C368.974 268.883 368.328 268.622 367.546 268.622C366.764 268.622 366.118 268.883 365.608 269.404C365.109 269.925 364.86 270.611 364.86 271.461C364.86 272.311 365.109 272.997 365.608 273.518C366.118 274.039 366.764 274.3 367.546 274.3Z" fill="#88A1AC"/>
<path d="M380.074 266.82C381.218 266.82 382.136 267.154 382.828 267.823C383.519 268.492 383.865 269.483 383.865 270.798V276H381.74V271.07C381.74 270.277 381.553 269.682 381.179 269.285C380.805 268.877 380.272 268.673 379.581 268.673C378.799 268.673 378.181 268.911 377.728 269.387C377.274 269.852 377.048 270.526 377.048 271.41V276H374.923V266.922H376.946V268.095C377.297 267.676 377.739 267.358 378.272 267.143C378.804 266.928 379.405 266.82 380.074 266.82Z" fill="#88A1AC"/>
<path d="M395.677 271.512C395.677 271.659 395.666 271.869 395.643 272.141H388.52C388.645 272.81 388.968 273.342 389.489 273.739C390.022 274.124 390.679 274.317 391.461 274.317C392.459 274.317 393.28 273.988 393.926 273.331L395.065 274.64C394.657 275.127 394.142 275.496 393.518 275.745C392.895 275.994 392.192 276.119 391.41 276.119C390.413 276.119 389.535 275.921 388.775 275.524C388.016 275.127 387.427 274.578 387.007 273.875C386.599 273.161 386.395 272.356 386.395 271.461C386.395 270.577 386.594 269.784 386.99 269.081C387.398 268.367 387.959 267.812 388.673 267.415C389.387 267.018 390.192 266.82 391.087 266.82C391.971 266.82 392.759 267.018 393.45 267.415C394.153 267.8 394.697 268.35 395.082 269.064C395.479 269.767 395.677 270.583 395.677 271.512ZM391.087 268.52C390.407 268.52 389.829 268.724 389.353 269.132C388.889 269.529 388.605 270.061 388.503 270.73H393.654C393.564 270.073 393.286 269.54 392.821 269.132C392.357 268.724 391.779 268.52 391.087 268.52Z" fill="#88A1AC"/>
<path d="M406.553 266.922L402.303 276.731C401.906 277.717 401.424 278.408 400.858 278.805C400.291 279.213 399.605 279.417 398.801 279.417C398.347 279.417 397.9 279.343 397.458 279.196C397.016 279.049 396.653 278.845 396.37 278.584L397.22 277.02C397.424 277.213 397.662 277.366 397.934 277.479C398.217 277.592 398.5 277.649 398.784 277.649C399.158 277.649 399.464 277.553 399.702 277.36C399.951 277.167 400.178 276.844 400.382 276.391L400.535 276.034L396.574 266.922H398.784L401.64 273.637L404.513 266.922H406.553Z" fill="#88A1AC"/>
<path d="M427.74 266.922L424.391 276H422.351L420.005 269.744L417.625 276H415.585L412.253 266.922H414.259L416.656 273.62L419.155 266.922H420.94L423.388 273.654L425.853 266.922H427.74Z" fill="#88A1AC"/>
<path d="M433.532 276.119C432.614 276.119 431.787 275.921 431.05 275.524C430.313 275.127 429.735 274.578 429.316 273.875C428.908 273.161 428.704 272.356 428.704 271.461C428.704 270.566 428.908 269.767 429.316 269.064C429.735 268.361 430.313 267.812 431.05 267.415C431.787 267.018 432.614 266.82 433.532 266.82C434.461 266.82 435.294 267.018 436.031 267.415C436.768 267.812 437.34 268.361 437.748 269.064C438.167 269.767 438.377 270.566 438.377 271.461C438.377 272.356 438.167 273.161 437.748 273.875C437.34 274.578 436.768 275.127 436.031 275.524C435.294 275.921 434.461 276.119 433.532 276.119ZM433.532 274.3C434.314 274.3 434.96 274.039 435.47 273.518C435.98 272.997 436.235 272.311 436.235 271.461C436.235 270.611 435.98 269.925 435.47 269.404C434.96 268.883 434.314 268.622 433.532 268.622C432.75 268.622 432.104 268.883 431.594 269.404C431.095 269.925 430.846 270.611 430.846 271.461C430.846 272.311 431.095 272.997 431.594 273.518C432.104 274.039 432.75 274.3 433.532 274.3Z" fill="#88A1AC"/>
<path d="M442.932 268.248C443.544 267.296 444.621 266.82 446.162 266.82V268.843C445.981 268.809 445.816 268.792 445.669 268.792C444.842 268.792 444.196 269.036 443.731 269.523C443.266 269.999 443.034 270.69 443.034 271.597V276H440.909V266.922H442.932V268.248Z" fill="#88A1AC"/>
<path d="M448.465 263.386H450.59V276H448.465V263.386Z" fill="#88A1AC"/>
<path d="M462.77 263.386V276H460.73V274.827C460.378 275.258 459.942 275.581 459.421 275.796C458.911 276.011 458.344 276.119 457.721 276.119C456.848 276.119 456.06 275.926 455.358 275.541C454.666 275.156 454.122 274.612 453.726 273.909C453.329 273.195 453.131 272.379 453.131 271.461C453.131 270.543 453.329 269.733 453.726 269.03C454.122 268.327 454.666 267.783 455.358 267.398C456.06 267.013 456.848 266.82 457.721 266.82C458.321 266.82 458.871 266.922 459.37 267.126C459.868 267.33 460.293 267.636 460.645 268.044V263.386H462.77ZM457.976 274.3C458.486 274.3 458.945 274.187 459.353 273.96C459.761 273.722 460.084 273.388 460.322 272.957C460.56 272.526 460.679 272.028 460.679 271.461C460.679 270.894 460.56 270.396 460.322 269.965C460.084 269.534 459.761 269.206 459.353 268.979C458.945 268.741 458.486 268.622 457.976 268.622C457.466 268.622 457.007 268.741 456.599 268.979C456.191 269.206 455.868 269.534 455.63 269.965C455.392 270.396 455.273 270.894 455.273 271.461C455.273 272.028 455.392 272.526 455.63 272.957C455.868 273.388 456.191 273.722 456.599 273.96C457.007 274.187 457.466 274.3 457.976 274.3Z" fill="#88A1AC"/>
<path d="M480.211 266.922L476.862 276H474.822L472.476 269.744L470.096 276H468.056L464.724 266.922H466.73L469.127 273.62L471.626 266.922H473.411L475.859 273.654L478.324 266.922H480.211Z" fill="#88A1AC"/>
<path d="M482.172 266.922H484.297V276H482.172V266.922ZM483.243 265.426C482.857 265.426 482.534 265.307 482.274 265.069C482.013 264.82 481.883 264.514 481.883 264.151C481.883 263.788 482.013 263.488 482.274 263.25C482.534 263.001 482.857 262.876 483.243 262.876C483.628 262.876 483.951 262.995 484.212 263.233C484.472 263.46 484.603 263.749 484.603 264.1C484.603 264.474 484.472 264.791 484.212 265.052C483.962 265.301 483.639 265.426 483.243 265.426Z" fill="#88A1AC"/>
<path d="M496.477 263.386V276H494.437V274.827C494.085 275.258 493.649 275.581 493.128 275.796C492.618 276.011 492.051 276.119 491.428 276.119C490.555 276.119 489.767 275.926 489.065 275.541C488.373 275.156 487.829 274.612 487.433 273.909C487.036 273.195 486.838 272.379 486.838 271.461C486.838 270.543 487.036 269.733 487.433 269.03C487.829 268.327 488.373 267.783 489.065 267.398C489.767 267.013 490.555 266.82 491.428 266.82C492.028 266.82 492.578 266.922 493.077 267.126C493.575 267.33 494 267.636 494.352 268.044V263.386H496.477ZM491.683 274.3C492.193 274.3 492.652 274.187 493.06 273.96C493.468 273.722 493.791 273.388 494.029 272.957C494.267 272.526 494.386 272.028 494.386 271.461C494.386 270.894 494.267 270.396 494.029 269.965C493.791 269.534 493.468 269.206 493.06 268.979C492.652 268.741 492.193 268.622 491.683 268.622C491.173 268.622 490.714 268.741 490.306 268.979C489.898 269.206 489.575 269.534 489.337 269.965C489.099 270.396 488.98 270.894 488.98 271.461C488.98 272.028 489.099 272.526 489.337 272.957C489.575 273.388 489.898 273.722 490.306 273.96C490.714 274.187 491.173 274.3 491.683 274.3Z" fill="#88A1AC"/>
<path d="M508.291 271.512C508.291 271.659 508.279 271.869 508.257 272.141H501.134C501.258 272.81 501.581 273.342 502.103 273.739C502.635 274.124 503.293 274.317 504.075 274.317C505.072 274.317 505.894 273.988 506.54 273.331L507.679 274.64C507.271 275.127 506.755 275.496 506.132 275.745C505.508 275.994 504.806 276.119 504.024 276.119C503.026 276.119 502.148 275.921 501.389 275.524C500.629 275.127 500.04 274.578 499.621 273.875C499.213 273.161 499.009 272.356 499.009 271.461C499.009 270.577 499.207 269.784 499.604 269.081C500.012 268.367 500.573 267.812 501.287 267.415C502.001 267.018 502.805 266.82 503.701 266.82C504.585 266.82 505.372 267.018 506.064 267.415C506.766 267.8 507.31 268.35 507.696 269.064C508.092 269.767 508.291 270.583 508.291 271.512ZM503.701 268.52C503.021 268.52 502.443 268.724 501.967 269.132C501.502 269.529 501.219 270.061 501.117 270.73H506.268C506.177 270.073 505.899 269.54 505.435 269.132C504.97 268.724 504.392 268.52 503.701 268.52Z" fill="#88A1AC"/>
<path d="M511.512 276.119C511.127 276.119 510.798 275.989 510.526 275.728C510.254 275.456 510.118 275.116 510.118 274.708C510.118 274.289 510.248 273.949 510.509 273.688C510.781 273.427 511.115 273.297 511.512 273.297C511.909 273.297 512.237 273.427 512.498 273.688C512.77 273.949 512.906 274.289 512.906 274.708C512.906 275.116 512.77 275.456 512.498 275.728C512.226 275.989 511.897 276.119 511.512 276.119Z" fill="#88A1AC"/>
<path d="M520.884 264.1H523.094V276H520.884V264.1Z" fill="#88A1AC"/>
<path d="M531.76 266.82C532.905 266.82 533.823 267.154 534.514 267.823C535.206 268.492 535.551 269.483 535.551 270.798V276H533.426V271.07C533.426 270.277 533.239 269.682 532.865 269.285C532.491 268.877 531.959 268.673 531.267 268.673C530.485 268.673 529.868 268.911 529.414 269.387C528.961 269.852 528.734 270.526 528.734 271.41V276H526.609V266.922H528.632V268.095C528.984 267.676 529.426 267.358 529.958 267.143C530.491 266.928 531.092 266.82 531.76 266.82Z" fill="#88A1AC"/>
<path d="M547.081 266.922L543.188 276H540.995L537.102 266.922H539.312L542.134 273.654L545.041 266.922H547.081Z" fill="#88A1AC"/>
<path d="M557.194 271.512C557.194 271.659 557.183 271.869 557.16 272.141H550.037C550.162 272.81 550.485 273.342 551.006 273.739C551.539 274.124 552.196 274.317 552.978 274.317C553.975 274.317 554.797 273.988 555.443 273.331L556.582 274.64C556.174 275.127 555.658 275.496 555.035 275.745C554.412 275.994 553.709 276.119 552.927 276.119C551.93 276.119 551.051 275.921 550.292 275.524C549.533 275.127 548.943 274.578 548.524 273.875C548.116 273.161 547.912 272.356 547.912 271.461C547.912 270.577 548.11 269.784 548.507 269.081C548.915 268.367 549.476 267.812 550.19 267.415C550.904 267.018 551.709 266.82 552.604 266.82C553.488 266.82 554.276 267.018 554.967 267.415C555.67 267.8 556.214 268.35 556.599 269.064C556.996 269.767 557.194 270.583 557.194 271.512ZM552.604 268.52C551.924 268.52 551.346 268.724 550.87 269.132C550.405 269.529 550.122 270.061 550.02 270.73H555.171C555.08 270.073 554.803 269.54 554.338 269.132C553.873 268.724 553.295 268.52 552.604 268.52Z" fill="#88A1AC"/>
<path d="M562.54 276.119C561.803 276.119 561.084 276.023 560.381 275.83C559.678 275.637 559.118 275.394 558.698 275.099L559.514 273.484C559.922 273.756 560.41 273.977 560.976 274.147C561.554 274.306 562.121 274.385 562.676 274.385C563.946 274.385 564.58 274.051 564.58 273.382C564.58 273.065 564.416 272.844 564.087 272.719C563.77 272.594 563.254 272.475 562.54 272.362C561.792 272.249 561.18 272.118 560.704 271.971C560.239 271.824 559.831 271.569 559.48 271.206C559.14 270.832 558.97 270.316 558.97 269.659C558.97 268.798 559.327 268.112 560.041 267.602C560.767 267.081 561.741 266.82 562.965 266.82C563.589 266.82 564.212 266.894 564.835 267.041C565.459 267.177 565.969 267.364 566.365 267.602L565.549 269.217C564.779 268.764 563.912 268.537 562.948 268.537C562.325 268.537 561.849 268.633 561.52 268.826C561.203 269.007 561.044 269.251 561.044 269.557C561.044 269.897 561.214 270.141 561.554 270.288C561.906 270.424 562.444 270.554 563.169 270.679C563.895 270.792 564.489 270.923 564.954 271.07C565.419 271.217 565.815 271.467 566.144 271.818C566.484 272.169 566.654 272.668 566.654 273.314C566.654 274.164 566.286 274.844 565.549 275.354C564.813 275.864 563.809 276.119 562.54 276.119Z" fill="#88A1AC"/>
<path d="M574.441 275.507C574.192 275.711 573.886 275.864 573.523 275.966C573.172 276.068 572.798 276.119 572.401 276.119C571.404 276.119 570.633 275.858 570.089 275.337C569.545 274.816 569.273 274.056 569.273 273.059V268.69H567.777V266.99H569.273V264.916H571.398V266.99H573.829V268.69H571.398V273.008C571.398 273.45 571.506 273.79 571.721 274.028C571.937 274.255 572.248 274.368 572.656 274.368C573.132 274.368 573.529 274.243 573.846 273.994L574.441 275.507Z" fill="#88A1AC"/>
<path d="M581.888 266.922H584.013V276H581.888V266.922ZM582.958 265.426C582.573 265.426 582.25 265.307 581.99 265.069C581.729 264.82 581.599 264.514 581.599 264.151C581.599 263.788 581.729 263.488 581.99 263.25C582.25 263.001 582.573 262.876 582.958 262.876C583.344 262.876 583.667 262.995 583.928 263.233C584.188 263.46 584.319 263.749 584.319 264.1C584.319 264.474 584.188 264.791 583.928 265.052C583.678 265.301 583.355 265.426 582.958 265.426Z" fill="#88A1AC"/>
<path d="M592.453 266.82C593.597 266.82 594.515 267.154 595.207 267.823C595.898 268.492 596.244 269.483 596.244 270.798V276H594.119V271.07C594.119 270.277 593.932 269.682 593.558 269.285C593.184 268.877 592.651 268.673 591.96 268.673C591.178 268.673 590.56 268.911 590.107 269.387C589.653 269.852 589.427 270.526 589.427 271.41V276H587.302V266.922H589.325V268.095C589.676 267.676 590.118 267.358 590.651 267.143C591.183 266.928 591.784 266.82 592.453 266.82Z" fill="#88A1AC"/>
<path d="M609.669 266.82C610.553 266.82 611.341 267.013 612.033 267.398C612.735 267.783 613.285 268.327 613.682 269.03C614.078 269.733 614.277 270.543 614.277 271.461C614.277 272.379 614.078 273.195 613.682 273.909C613.285 274.612 612.735 275.156 612.033 275.541C611.341 275.926 610.553 276.119 609.669 276.119C609.046 276.119 608.474 276.011 607.953 275.796C607.443 275.581 607.012 275.258 606.661 274.827V276H604.638V263.386H606.763V268.027C607.125 267.63 607.55 267.33 608.038 267.126C608.536 266.922 609.08 266.82 609.669 266.82ZM609.432 274.3C610.214 274.3 610.854 274.039 611.353 273.518C611.863 272.997 612.118 272.311 612.118 271.461C612.118 270.611 611.863 269.925 611.353 269.404C610.854 268.883 610.214 268.622 609.432 268.622C608.922 268.622 608.463 268.741 608.055 268.979C607.647 269.206 607.324 269.534 607.086 269.965C606.848 270.396 606.729 270.894 606.729 271.461C606.729 272.028 606.848 272.526 607.086 272.957C607.324 273.388 607.647 273.722 608.055 273.96C608.463 274.187 608.922 274.3 609.432 274.3Z" fill="#88A1AC"/>
<path d="M616.792 266.922H618.917V276H616.792V266.922ZM617.863 265.426C617.477 265.426 617.154 265.307 616.894 265.069C616.633 264.82 616.503 264.514 616.503 264.151C616.503 263.788 616.633 263.488 616.894 263.25C617.154 263.001 617.477 262.876 617.863 262.876C618.248 262.876 618.571 262.995 618.832 263.233C619.093 263.46 619.223 263.749 619.223 264.1C619.223 264.474 619.093 264.791 618.832 265.052C618.583 265.301 618.259 265.426 617.863 265.426Z" fill="#88A1AC"/>
<path d="M627.663 275.507C627.414 275.711 627.108 275.864 626.745 275.966C626.394 276.068 626.02 276.119 625.623 276.119C624.626 276.119 623.855 275.858 623.311 275.337C622.767 274.816 622.495 274.056 622.495 273.059V268.69H620.999V266.99H622.495V264.916H624.62V266.99H627.051V268.69H624.62V273.008C624.62 273.45 624.728 273.79 624.943 274.028C625.158 274.255 625.47 274.368 625.878 274.368C626.354 274.368 626.751 274.243 627.068 273.994L627.663 275.507Z" fill="#88A1AC"/>
<path d="M633.777 276.119C632.836 276.119 631.992 275.921 631.244 275.524C630.496 275.127 629.912 274.578 629.493 273.875C629.074 273.161 628.864 272.356 628.864 271.461C628.864 270.566 629.074 269.767 629.493 269.064C629.912 268.361 630.49 267.812 631.227 267.415C631.975 267.018 632.825 266.82 633.777 266.82C634.672 266.82 635.454 267.001 636.123 267.364C636.803 267.727 637.313 268.248 637.653 268.928L636.021 269.88C635.76 269.461 635.432 269.149 635.035 268.945C634.65 268.73 634.225 268.622 633.76 268.622C632.967 268.622 632.309 268.883 631.788 269.404C631.267 269.914 631.006 270.6 631.006 271.461C631.006 272.322 631.261 273.014 631.771 273.535C632.292 274.045 632.955 274.3 633.76 274.3C634.225 274.3 634.65 274.198 635.035 273.994C635.432 273.779 635.76 273.461 636.021 273.042L637.653 273.994C637.302 274.674 636.786 275.201 636.106 275.575C635.437 275.938 634.661 276.119 633.777 276.119Z" fill="#88A1AC"/>
<path d="M643.937 276.119C643.019 276.119 642.192 275.921 641.455 275.524C640.719 275.127 640.141 274.578 639.721 273.875C639.313 273.161 639.109 272.356 639.109 271.461C639.109 270.566 639.313 269.767 639.721 269.064C640.141 268.361 640.719 267.812 641.455 267.415C642.192 267.018 643.019 266.82 643.937 266.82C644.867 266.82 645.7 267.018 646.436 267.415C647.173 267.812 647.745 268.361 648.153 269.064C648.573 269.767 648.782 270.566 648.782 271.461C648.782 272.356 648.573 273.161 648.153 273.875C647.745 274.578 647.173 275.127 646.436 275.524C645.7 275.921 644.867 276.119 643.937 276.119ZM643.937 274.3C644.719 274.3 645.365 274.039 645.875 273.518C646.385 272.997 646.64 272.311 646.64 271.461C646.64 270.611 646.385 269.925 645.875 269.404C645.365 268.883 644.719 268.622 643.937 268.622C643.155 268.622 642.509 268.883 641.999 269.404C641.501 269.925 641.251 270.611 641.251 271.461C641.251 272.311 641.501 272.997 641.999 273.518C642.509 274.039 643.155 274.3 643.937 274.3Z" fill="#88A1AC"/>
<path d="M651.314 266.922H653.439V276H651.314V266.922ZM652.385 265.426C652 265.426 651.677 265.307 651.416 265.069C651.156 264.82 651.025 264.514 651.025 264.151C651.025 263.788 651.156 263.488 651.416 263.25C651.677 263.001 652 262.876 652.385 262.876C652.771 262.876 653.094 262.995 653.354 263.233C653.615 263.46 653.745 263.749 653.745 264.1C653.745 264.474 653.615 264.791 653.354 265.052C653.105 265.301 652.782 265.426 652.385 265.426Z" fill="#88A1AC"/>
<path d="M661.879 266.82C663.024 266.82 663.942 267.154 664.633 267.823C665.325 268.492 665.67 269.483 665.67 270.798V276H663.545V271.07C663.545 270.277 663.358 269.682 662.984 269.285C662.61 268.877 662.078 268.673 661.386 268.673C660.604 268.673 659.987 268.911 659.533 269.387C659.08 269.852 658.853 270.526 658.853 271.41V276H656.728V266.922H658.751V268.095C659.103 267.676 659.545 267.358 660.077 267.143C660.61 266.928 661.211 266.82 661.879 266.82Z" fill="#88A1AC"/>
<path d="M669.546 276.119C669.161 276.119 668.832 275.989 668.56 275.728C668.288 275.456 668.152 275.116 668.152 274.708C668.152 274.289 668.282 273.949 668.543 273.688C668.815 273.427 669.149 273.297 669.546 273.297C669.943 273.297 670.271 273.427 670.532 273.688C670.804 273.949 670.94 274.289 670.94 274.708C670.94 275.116 670.804 275.456 670.532 275.728C670.26 275.989 669.931 276.119 669.546 276.119Z" fill="#88A1AC"/>
<path d="M683.815 264.1C684.846 264.1 685.741 264.27 686.501 264.61C687.271 264.95 687.861 265.437 688.269 266.072C688.677 266.707 688.881 267.46 688.881 268.333C688.881 269.194 688.677 269.948 688.269 270.594C687.861 271.229 687.271 271.716 686.501 272.056C685.741 272.396 684.846 272.566 683.815 272.566H681.129V276H678.919V264.1H683.815ZM683.713 270.696C684.676 270.696 685.407 270.492 685.906 270.084C686.404 269.676 686.654 269.092 686.654 268.333C686.654 267.574 686.404 266.99 685.906 266.582C685.407 266.174 684.676 265.97 683.713 265.97H681.129V270.696H683.713Z" fill="#88A1AC"/>
<path d="M691.55 263.386H693.675V276H691.55V263.386Z" fill="#88A1AC"/>
<path d="M700.432 266.82C701.769 266.82 702.789 267.143 703.492 267.789C704.206 268.424 704.563 269.387 704.563 270.679V276H702.557V274.895C702.296 275.292 701.922 275.598 701.435 275.813C700.959 276.017 700.381 276.119 699.701 276.119C699.021 276.119 698.426 276.006 697.916 275.779C697.406 275.541 697.009 275.218 696.726 274.81C696.454 274.391 696.318 273.92 696.318 273.399C696.318 272.583 696.618 271.931 697.219 271.444C697.831 270.945 698.788 270.696 700.092 270.696H702.438V270.56C702.438 269.925 702.245 269.438 701.86 269.098C701.486 268.758 700.925 268.588 700.177 268.588C699.667 268.588 699.162 268.667 698.664 268.826C698.176 268.985 697.763 269.206 697.423 269.489L696.59 267.942C697.066 267.579 697.638 267.302 698.307 267.109C698.975 266.916 699.684 266.82 700.432 266.82ZM700.143 274.572C700.675 274.572 701.146 274.453 701.554 274.215C701.973 273.966 702.268 273.614 702.438 273.161V272.107H700.245C699.021 272.107 698.409 272.509 698.409 273.314C698.409 273.699 698.562 274.005 698.868 274.232C699.174 274.459 699.599 274.572 700.143 274.572Z" fill="#88A1AC"/>
<path d="M716.124 266.922L711.874 276.731C711.477 277.717 710.995 278.408 710.429 278.805C709.862 279.213 709.176 279.417 708.372 279.417C707.918 279.417 707.471 279.343 707.029 279.196C706.587 279.049 706.224 278.845 705.941 278.584L706.791 277.02C706.995 277.213 707.233 277.366 707.505 277.479C707.788 277.592 708.072 277.649 708.355 277.649C708.729 277.649 709.035 277.553 709.273 277.36C709.522 277.167 709.749 276.844 709.953 276.391L710.106 276.034L706.145 266.922H708.355L711.211 273.637L714.084 266.922H716.124Z" fill="#88A1AC"/>
<path d="M19.4044 287.922V295.623C19.4044 298.819 17.7724 300.417 14.5084 300.417C13.6357 300.417 12.8084 300.304 12.0264 300.077C11.2444 299.862 10.5984 299.544 10.0884 299.125L11.0404 297.527C11.437 297.856 11.9357 298.116 12.5364 298.309C13.1484 298.513 13.766 298.615 14.3894 298.615C15.3867 298.615 16.1177 298.388 16.5824 297.935C17.047 297.482 17.2794 296.79 17.2794 295.861V295.385C16.9167 295.782 16.4747 296.082 15.9534 296.286C15.432 296.49 14.8597 296.592 14.2364 296.592C13.375 296.592 12.593 296.411 11.8904 296.048C11.199 295.674 10.6494 295.153 10.2414 294.484C9.84469 293.815 9.64636 293.05 9.64636 292.189C9.64636 291.328 9.84469 290.568 10.2414 289.911C10.6494 289.242 11.199 288.727 11.8904 288.364C12.593 288.001 13.375 287.82 14.2364 287.82C14.8937 287.82 15.4887 287.928 16.0214 288.143C16.5654 288.358 17.0187 288.687 17.3814 289.129V287.922H19.4044ZM14.5594 294.79C15.364 294.79 16.0214 294.552 16.5314 294.076C17.0527 293.589 17.3134 292.96 17.3134 292.189C17.3134 291.43 17.0527 290.812 16.5314 290.336C16.0214 289.86 15.364 289.622 14.5594 289.622C13.7434 289.622 13.0747 289.86 12.5534 290.336C12.0434 290.812 11.7884 291.43 11.7884 292.189C11.7884 292.96 12.0434 293.589 12.5534 294.076C13.0747 294.552 13.7434 294.79 14.5594 294.79Z" fill="#88A1AC"/>
<path d="M26.1661 287.82C27.5034 287.82 28.5234 288.143 29.2261 288.789C29.9401 289.424 30.2971 290.387 30.2971 291.679V297H28.2911V295.895C28.0304 296.292 27.6564 296.598 27.1691 296.813C26.6931 297.017 26.1151 297.119 25.4351 297.119C24.7551 297.119 24.1601 297.006 23.6501 296.779C23.1401 296.541 22.7434 296.218 22.4601 295.81C22.1881 295.391 22.0521 294.92 22.0521 294.399C22.0521 293.583 22.3524 292.931 22.9531 292.444C23.5651 291.945 24.5227 291.696 25.8261 291.696H28.1721V291.56C28.1721 290.925 27.9794 290.438 27.5941 290.098C27.2201 289.758 26.6591 289.588 25.9111 289.588C25.4011 289.588 24.8967 289.667 24.3981 289.826C23.9107 289.985 23.4971 290.206 23.1571 290.489L22.3241 288.942C22.8001 288.579 23.3724 288.302 24.0411 288.109C24.7097 287.916 25.4181 287.82 26.1661 287.82ZM25.8771 295.572C26.4097 295.572 26.8801 295.453 27.2881 295.215C27.7074 294.966 28.0021 294.614 28.1721 294.161V293.107H25.9791C24.7551 293.107 24.1431 293.509 24.1431 294.314C24.1431 294.699 24.2961 295.005 24.6021 295.232C24.9081 295.459 25.3331 295.572 25.8771 295.572Z" fill="#88A1AC"/>
<path d="M44.9822 287.82C46.1269 287.82 47.0336 288.154 47.7022 288.823C48.3709 289.48 48.7052 290.472 48.7052 291.798V297H46.5802V292.07C46.5802 291.277 46.4046 290.682 46.0532 290.285C45.7019 289.877 45.1976 289.673 44.5402 289.673C43.8262 289.673 43.2539 289.911 42.8232 290.387C42.3926 290.852 42.1772 291.52 42.1772 292.393V297H40.0522V292.07C40.0522 291.277 39.8766 290.682 39.5252 290.285C39.1739 289.877 38.6696 289.673 38.0122 289.673C37.2869 289.673 36.7089 289.905 36.2782 290.37C35.8589 290.835 35.6492 291.509 35.6492 292.393V297H33.5242V287.922H35.5472V289.078C35.8872 288.67 36.3122 288.358 36.8222 288.143C37.3322 287.928 37.8989 287.82 38.5222 287.82C39.2022 287.82 39.8029 287.95 40.3242 288.211C40.8569 288.46 41.2762 288.834 41.5822 289.333C41.9562 288.857 42.4379 288.489 43.0272 288.228C43.6166 287.956 44.2682 287.82 44.9822 287.82Z" fill="#88A1AC"/>
<path d="M60.5377 292.512C60.5377 292.659 60.5264 292.869 60.5037 293.141H53.3807C53.5054 293.81 53.8284 294.342 54.3497 294.739C54.8824 295.124 55.5397 295.317 56.3217 295.317C57.3191 295.317 58.1407 294.988 58.7867 294.331L59.9257 295.64C59.5177 296.127 59.0021 296.496 58.3787 296.745C57.7554 296.994 57.0527 297.119 56.2707 297.119C55.2734 297.119 54.3951 296.921 53.6357 296.524C52.8764 296.127 52.2871 295.578 51.8677 294.875C51.4597 294.161 51.2557 293.356 51.2557 292.461C51.2557 291.577 51.4541 290.784 51.8507 290.081C52.2587 289.367 52.8197 288.812 53.5337 288.415C54.2477 288.018 55.0524 287.82 55.9477 287.82C56.8317 287.82 57.6194 288.018 58.3107 288.415C59.0134 288.8 59.5574 289.35 59.9427 290.064C60.3394 290.767 60.5377 291.583 60.5377 292.512ZM55.9477 289.52C55.2677 289.52 54.6897 289.724 54.2137 290.132C53.7491 290.529 53.4657 291.061 53.3637 291.73H58.5147C58.4241 291.073 58.1464 290.54 57.6817 290.132C57.2171 289.724 56.6391 289.52 55.9477 289.52Z" fill="#88A1AC"/>
<path d="M65.8839 297.119C65.1473 297.119 64.4276 297.023 63.7249 296.83C63.0223 296.637 62.4613 296.394 62.0419 296.099L62.8579 294.484C63.2659 294.756 63.7533 294.977 64.3199 295.147C64.8979 295.306 65.4646 295.385 66.0199 295.385C67.2893 295.385 67.9239 295.051 67.9239 294.382C67.9239 294.065 67.7596 293.844 67.4309 293.719C67.1136 293.594 66.5979 293.475 65.8839 293.362C65.1359 293.249 64.5239 293.118 64.0479 292.971C63.5833 292.824 63.1753 292.569 62.8239 292.206C62.4839 291.832 62.3139 291.316 62.3139 290.659C62.3139 289.798 62.6709 289.112 63.3849 288.602C64.1103 288.081 65.0849 287.82 66.3089 287.82C66.9323 287.82 67.5556 287.894 68.1789 288.041C68.8023 288.177 69.3123 288.364 69.7089 288.602L68.8929 290.217C68.1223 289.764 67.2553 289.537 66.2919 289.537C65.6686 289.537 65.1926 289.633 64.8639 289.826C64.5466 290.007 64.3879 290.251 64.3879 290.557C64.3879 290.897 64.5579 291.141 64.8979 291.288C65.2493 291.424 65.7876 291.554 66.5129 291.679C67.2383 291.792 67.8333 291.923 68.2979 292.07C68.7626 292.217 69.1593 292.467 69.4879 292.818C69.8279 293.169 69.9979 293.668 69.9979 294.314C69.9979 295.164 69.6296 295.844 68.8929 296.354C68.1563 296.864 67.1533 297.119 65.8839 297.119Z" fill="#88A1AC"/>
<path d="M73.025 294.297C73.4216 294.297 73.7503 294.427 74.011 294.688C74.2716 294.949 74.402 295.289 74.402 295.708C74.402 295.889 74.3736 296.082 74.317 296.286C74.2716 296.479 74.1696 296.773 74.011 297.17L73.144 299.567H71.767L72.447 296.966C72.1976 296.864 71.9993 296.705 71.852 296.49C71.716 296.263 71.648 296.003 71.648 295.708C71.648 295.289 71.7783 294.949 72.039 294.688C72.2996 294.427 72.6283 294.297 73.025 294.297Z" fill="#88A1AC"/>
<path d="M85.6446 287.82C86.9819 287.82 88.0019 288.143 88.7046 288.789C89.4186 289.424 89.7756 290.387 89.7756 291.679V297H87.7696V295.895C87.5089 296.292 87.1349 296.598 86.6476 296.813C86.1716 297.017 85.5936 297.119 84.9136 297.119C84.2336 297.119 83.6386 297.006 83.1286 296.779C82.6186 296.541 82.2219 296.218 81.9386 295.81C81.6666 295.391 81.5306 294.92 81.5306 294.399C81.5306 293.583 81.8309 292.931 82.4316 292.444C83.0436 291.945 84.0013 291.696 85.3046 291.696H87.6506V291.56C87.6506 290.925 87.4579 290.438 87.0726 290.098C86.6986 289.758 86.1376 289.588 85.3896 289.588C84.8796 289.588 84.3753 289.667 83.8766 289.826C83.3893 289.985 82.9756 290.206 82.6356 290.489L81.8026 288.942C82.2786 288.579 82.8509 288.302 83.5196 288.109C84.1883 287.916 84.8966 287.82 85.6446 287.82ZM85.3556 295.572C85.8882 295.572 86.3586 295.453 86.7666 295.215C87.1859 294.966 87.4806 294.614 87.6506 294.161V293.107H85.4576C84.2336 293.107 83.6216 293.509 83.6216 294.314C83.6216 294.699 83.7746 295.005 84.0806 295.232C84.3866 295.459 84.8116 295.572 85.3556 295.572Z" fill="#88A1AC"/>
<path d="M98.1538 287.82C99.2984 287.82 100.216 288.154 100.908 288.823C101.599 289.492 101.945 290.483 101.945 291.798V297H99.8198V292.07C99.8198 291.277 99.6328 290.682 99.2588 290.285C98.8848 289.877 98.3521 289.673 97.6608 289.673C96.8788 289.673 96.2611 289.911 95.8078 290.387C95.3544 290.852 95.1278 291.526 95.1278 292.41V297H93.0028V287.922H95.0258V289.095C95.3771 288.676 95.8191 288.358 96.3518 288.143C96.8844 287.928 97.4851 287.82 98.1538 287.82Z" fill="#88A1AC"/>
<path d="M114.114 284.386V297H112.074V295.827C111.723 296.258 111.287 296.581 110.765 296.796C110.255 297.011 109.689 297.119 109.065 297.119C108.193 297.119 107.405 296.926 106.702 296.541C106.011 296.156 105.467 295.612 105.07 294.909C104.674 294.195 104.475 293.379 104.475 292.461C104.475 291.543 104.674 290.733 105.07 290.03C105.467 289.327 106.011 288.783 106.702 288.398C107.405 288.013 108.193 287.82 109.065 287.82C109.666 287.82 110.216 287.922 110.714 288.126C111.213 288.33 111.638 288.636 111.989 289.044V284.386H114.114ZM109.32 295.3C109.83 295.3 110.289 295.187 110.697 294.96C111.105 294.722 111.428 294.388 111.666 293.957C111.904 293.526 112.023 293.028 112.023 292.461C112.023 291.894 111.904 291.396 111.666 290.965C111.428 290.534 111.105 290.206 110.697 289.979C110.289 289.741 109.83 289.622 109.32 289.622C108.81 289.622 108.351 289.741 107.943 289.979C107.535 290.206 107.212 290.534 106.974 290.965C106.736 291.396 106.617 291.894 106.617 292.461C106.617 293.028 106.736 293.526 106.974 293.957C107.212 294.388 107.535 294.722 107.943 294.96C108.351 295.187 108.81 295.3 109.32 295.3Z" fill="#88A1AC"/>
<path d="M131.484 284.386V297H129.444V295.827C129.092 296.258 128.656 296.581 128.135 296.796C127.625 297.011 127.058 297.119 126.435 297.119C125.562 297.119 124.774 296.926 124.072 296.541C123.38 296.156 122.836 295.612 122.44 294.909C122.043 294.195 121.845 293.379 121.845 292.461C121.845 291.543 122.043 290.733 122.44 290.03C122.836 289.327 123.38 288.783 124.072 288.398C124.774 288.013 125.562 287.82 126.435 287.82C127.035 287.82 127.585 287.922 128.084 288.126C128.582 288.33 129.007 288.636 129.359 289.044V284.386H131.484ZM126.69 295.3C127.2 295.3 127.659 295.187 128.067 294.96C128.475 294.722 128.798 294.388 129.036 293.957C129.274 293.526 129.393 293.028 129.393 292.461C129.393 291.894 129.274 291.396 129.036 290.965C128.798 290.534 128.475 290.206 128.067 289.979C127.659 289.741 127.2 289.622 126.69 289.622C126.18 289.622 125.721 289.741 125.313 289.979C124.905 290.206 124.582 290.534 124.344 290.965C124.106 291.396 123.987 291.894 123.987 292.461C123.987 293.028 124.106 293.526 124.344 293.957C124.582 294.388 124.905 294.722 125.313 294.96C125.721 295.187 126.18 295.3 126.69 295.3Z" fill="#88A1AC"/>
<path d="M138.844 297.119C137.926 297.119 137.098 296.921 136.362 296.524C135.625 296.127 135.047 295.578 134.628 294.875C134.22 294.161 134.016 293.356 134.016 292.461C134.016 291.566 134.22 290.767 134.628 290.064C135.047 289.361 135.625 288.812 136.362 288.415C137.098 288.018 137.926 287.82 138.844 287.82C139.773 287.82 140.606 288.018 141.342 288.415C142.079 288.812 142.651 289.361 143.059 290.064C143.479 290.767 143.689 291.566 143.689 292.461C143.689 293.356 143.479 294.161 143.059 294.875C142.651 295.578 142.079 296.127 141.342 296.524C140.606 296.921 139.773 297.119 138.844 297.119ZM138.844 295.3C139.626 295.3 140.271 295.039 140.781 294.518C141.291 293.997 141.546 293.311 141.546 292.461C141.546 291.611 141.291 290.925 140.781 290.404C140.271 289.883 139.626 289.622 138.844 289.622C138.062 289.622 137.416 289.883 136.906 290.404C136.407 290.925 136.158 291.611 136.158 292.461C136.158 293.311 136.407 293.997 136.906 294.518C137.416 295.039 138.062 295.3 138.844 295.3Z" fill="#88A1AC"/>
<path d="M154.887 287.82C156.224 287.82 157.244 288.143 157.947 288.789C158.661 289.424 159.018 290.387 159.018 291.679V297H157.012V295.895C156.751 296.292 156.377 296.598 155.89 296.813C155.414 297.017 154.836 297.119 154.156 297.119C153.476 297.119 152.881 297.006 152.371 296.779C151.861 296.541 151.464 296.218 151.181 295.81C150.909 295.391 150.773 294.92 150.773 294.399C150.773 293.583 151.073 292.931 151.674 292.444C152.286 291.945 153.243 291.696 154.547 291.696H156.893V291.56C156.893 290.925 156.7 290.438 156.315 290.098C155.941 289.758 155.38 289.588 154.632 289.588C154.122 289.588 153.617 289.667 153.119 289.826C152.631 289.985 152.218 290.206 151.878 290.489L151.045 288.942C151.521 288.579 152.093 288.302 152.762 288.109C153.43 287.916 154.139 287.82 154.887 287.82ZM154.598 295.572C155.13 295.572 155.601 295.453 156.009 295.215C156.428 294.966 156.723 294.614 156.893 294.161V293.107H154.7C153.476 293.107 152.864 293.509 152.864 294.314C152.864 294.699 153.017 295.005 153.323 295.232C153.629 295.459 154.054 295.572 154.598 295.572Z" fill="#88A1AC"/>
<path d="M167.443 284.386H169.568V297H167.443V284.386Z" fill="#88A1AC"/>
<path d="M176.937 297.119C176.019 297.119 175.192 296.921 174.455 296.524C173.719 296.127 173.141 295.578 172.721 294.875C172.313 294.161 172.109 293.356 172.109 292.461C172.109 291.566 172.313 290.767 172.721 290.064C173.141 289.361 173.719 288.812 174.455 288.415C175.192 288.018 176.019 287.82 176.937 287.82C177.867 287.82 178.7 288.018 179.436 288.415C180.173 288.812 180.745 289.361 181.153 290.064C181.573 290.767 181.782 291.566 181.782 292.461C181.782 293.356 181.573 294.161 181.153 294.875C180.745 295.578 180.173 296.127 179.436 296.524C178.7 296.921 177.867 297.119 176.937 297.119ZM176.937 295.3C177.719 295.3 178.365 295.039 178.875 294.518C179.385 293.997 179.64 293.311 179.64 292.461C179.64 291.611 179.385 290.925 178.875 290.404C178.365 289.883 177.719 289.622 176.937 289.622C176.155 289.622 175.509 289.883 174.999 290.404C174.501 290.925 174.251 291.611 174.251 292.461C174.251 293.311 174.501 293.997 174.999 294.518C175.509 295.039 176.155 295.3 176.937 295.3Z" fill="#88A1AC"/>
<path d="M189.771 296.507C189.522 296.711 189.216 296.864 188.853 296.966C188.502 297.068 188.128 297.119 187.731 297.119C186.734 297.119 185.963 296.858 185.419 296.337C184.875 295.816 184.603 295.056 184.603 294.059V289.69H183.107V287.99H184.603V285.916H186.728V287.99H189.159V289.69H186.728V294.008C186.728 294.45 186.836 294.79 187.051 295.028C187.267 295.255 187.578 295.368 187.986 295.368C188.462 295.368 188.859 295.243 189.176 294.994L189.771 296.507Z" fill="#88A1AC"/>
<path d="M208.676 287.82C209.82 287.82 210.727 288.154 211.396 288.823C212.064 289.48 212.399 290.472 212.399 291.798V297H210.274V292.07C210.274 291.277 210.098 290.682 209.747 290.285C209.395 289.877 208.891 289.673 208.234 289.673C207.52 289.673 206.947 289.911 206.517 290.387C206.086 290.852 205.871 291.52 205.871 292.393V297H203.746V292.07C203.746 291.277 203.57 290.682 203.219 290.285C202.867 289.877 202.363 289.673 201.706 289.673C200.98 289.673 200.402 289.905 199.972 290.37C199.552 290.835 199.343 291.509 199.343 292.393V297H197.218V287.922H199.241V289.078C199.581 288.67 200.006 288.358 200.516 288.143C201.026 287.928 201.592 287.82 202.216 287.82C202.896 287.82 203.496 287.95 204.018 288.211C204.55 288.46 204.97 288.834 205.276 289.333C205.65 288.857 206.131 288.489 206.721 288.228C207.31 287.956 207.962 287.82 208.676 287.82Z" fill="#88A1AC"/>
<path d="M219.777 297.119C218.859 297.119 218.032 296.921 217.295 296.524C216.558 296.127 215.98 295.578 215.561 294.875C215.153 294.161 214.949 293.356 214.949 292.461C214.949 291.566 215.153 290.767 215.561 290.064C215.98 289.361 216.558 288.812 217.295 288.415C218.032 288.018 218.859 287.82 219.777 287.82C220.706 287.82 221.539 288.018 222.276 288.415C223.013 288.812 223.585 289.361 223.993 290.064C224.412 290.767 224.622 291.566 224.622 292.461C224.622 293.356 224.412 294.161 223.993 294.875C223.585 295.578 223.013 296.127 222.276 296.524C221.539 296.921 220.706 297.119 219.777 297.119ZM219.777 295.3C220.559 295.3 221.205 295.039 221.715 294.518C222.225 293.997 222.48 293.311 222.48 292.461C222.48 291.611 222.225 290.925 221.715 290.404C221.205 289.883 220.559 289.622 219.777 289.622C218.995 289.622 218.349 289.883 217.839 290.404C217.34 290.925 217.091 291.611 217.091 292.461C217.091 293.311 217.34 293.997 217.839 294.518C218.349 295.039 218.995 295.3 219.777 295.3Z" fill="#88A1AC"/>
<path d="M229.177 289.248C229.789 288.296 230.866 287.82 232.407 287.82V289.843C232.226 289.809 232.061 289.792 231.914 289.792C231.087 289.792 230.441 290.036 229.976 290.523C229.511 290.999 229.279 291.69 229.279 292.597V297H227.154V287.922H229.177V289.248Z" fill="#88A1AC"/>
<path d="M243.161 292.512C243.161 292.659 243.149 292.869 243.127 293.141H236.004C236.128 293.81 236.451 294.342 236.973 294.739C237.505 295.124 238.163 295.317 238.945 295.317C239.942 295.317 240.764 294.988 241.41 294.331L242.549 295.64C242.141 296.127 241.625 296.496 241.002 296.745C240.378 296.994 239.676 297.119 238.894 297.119C237.896 297.119 237.018 296.921 236.259 296.524C235.499 296.127 234.91 295.578 234.491 294.875C234.083 294.161 233.879 293.356 233.879 292.461C233.879 291.577 234.077 290.784 234.474 290.081C234.882 289.367 235.443 288.812 236.157 288.415C236.871 288.018 237.675 287.82 238.571 287.82C239.455 287.82 240.242 288.018 240.934 288.415C241.636 288.8 242.18 289.35 242.566 290.064C242.962 290.767 243.161 291.583 243.161 292.512ZM238.571 289.52C237.891 289.52 237.313 289.724 236.837 290.132C236.372 290.529 236.089 291.061 235.987 291.73H241.138C241.047 291.073 240.769 290.54 240.305 290.132C239.84 289.724 239.262 289.52 238.571 289.52Z" fill="#88A1AC"/>
<path d="M246.382 297.119C245.997 297.119 245.668 296.989 245.396 296.728C245.124 296.456 244.988 296.116 244.988 295.708C244.988 295.289 245.118 294.949 245.379 294.688C245.651 294.427 245.985 294.297 246.382 294.297C246.779 294.297 247.107 294.427 247.368 294.688C247.64 294.949 247.776 295.289 247.776 295.708C247.776 296.116 247.64 296.456 247.368 296.728C247.096 296.989 246.767 297.119 246.382 297.119Z" fill="#88A1AC"/>
</g>
<defs>
<linearGradient id="paint0_linear_1264_13514" x1="23.5684" y1="22.0868" x2="1014.46" y2="504.836" gradientUnits="userSpaceOnUse">
<stop stop-color="#88A1AC"/>
<stop offset="1" stop-color="#282F3F"/>
</linearGradient>
<linearGradient id="paint1_linear_1264_13514" x1="23.5684" y1="22.0868" x2="1014.46" y2="504.836" gradientUnits="userSpaceOnUse">
<stop stop-color="#88A1AC"/>
<stop offset="1" stop-color="#282F3F"/>
</linearGradient>
<linearGradient id="paint2_linear_1264_13514" x1="23.5684" y1="22.0868" x2="1014.46" y2="504.836" gradientUnits="userSpaceOnUse">
<stop stop-color="#88A1AC"/>
<stop offset="1" stop-color="#282F3F"/>
</linearGradient>
<linearGradient id="paint3_linear_1264_13514" x1="23.5684" y1="22.0868" x2="1014.46" y2="504.836" gradientUnits="userSpaceOnUse">
<stop stop-color="#88A1AC"/>
<stop offset="1" stop-color="#282F3F"/>
</linearGradient>
<linearGradient id="paint4_linear_1264_13514" x1="23.5684" y1="22.0868" x2="1014.46" y2="504.836" gradientUnits="userSpaceOnUse">
<stop stop-color="#88A1AC"/>
<stop offset="1" stop-color="#282F3F"/>
</linearGradient>
<linearGradient id="paint5_linear_1264_13514" x1="23.5684" y1="22.0868" x2="1014.46" y2="504.836" gradientUnits="userSpaceOnUse">
<stop stop-color="#88A1AC"/>
<stop offset="1" stop-color="#282F3F"/>
</linearGradient>
<linearGradient id="paint6_linear_1264_13514" x1="23.5684" y1="22.0868" x2="1014.46" y2="504.836" gradientUnits="userSpaceOnUse">
<stop stop-color="#88A1AC"/>
<stop offset="1" stop-color="#282F3F"/>
</linearGradient>
<linearGradient id="paint7_linear_1264_13514" x1="23.5684" y1="22.0868" x2="1014.46" y2="504.836" gradientUnits="userSpaceOnUse">
<stop stop-color="#88A1AC"/>
<stop offset="1" stop-color="#282F3F"/>
</linearGradient>
<linearGradient id="paint8_linear_1264_13514" x1="23.5684" y1="22.0868" x2="1014.46" y2="504.836" gradientUnits="userSpaceOnUse">
<stop stop-color="#88A1AC"/>
<stop offset="1" stop-color="#282F3F"/>
</linearGradient>
<linearGradient id="paint9_linear_1264_13514" x1="23.5684" y1="22.0868" x2="1014.46" y2="504.836" gradientUnits="userSpaceOnUse">
<stop stop-color="#88A1AC"/>
<stop offset="1" stop-color="#282F3F"/>
</linearGradient>
<linearGradient id="paint10_linear_1264_13514" x1="23.5684" y1="22.0868" x2="1014.46" y2="504.836" gradientUnits="userSpaceOnUse">
<stop stop-color="#88A1AC"/>
<stop offset="1" stop-color="#282F3F"/>
</linearGradient>
<linearGradient id="paint11_linear_1264_13514" x1="23.5684" y1="22.0868" x2="1014.46" y2="504.836" gradientUnits="userSpaceOnUse">
<stop stop-color="#88A1AC"/>
<stop offset="1" stop-color="#282F3F"/>
</linearGradient>
<linearGradient id="paint12_linear_1264_13514" x1="23.5684" y1="22.0868" x2="1014.46" y2="504.836" gradientUnits="userSpaceOnUse">
<stop stop-color="#88A1AC"/>
<stop offset="1" stop-color="#282F3F"/>
</linearGradient>
<linearGradient id="paint13_linear_1264_13514" x1="23.5684" y1="22.0868" x2="1014.46" y2="504.836" gradientUnits="userSpaceOnUse">
<stop stop-color="#88A1AC"/>
<stop offset="1" stop-color="#282F3F"/>
</linearGradient>
<linearGradient id="paint14_linear_1264_13514" x1="23.5684" y1="22.0868" x2="1014.46" y2="504.836" gradientUnits="userSpaceOnUse">
<stop stop-color="#88A1AC"/>
<stop offset="1" stop-color="#282F3F"/>
</linearGradient>
<linearGradient id="paint15_linear_1264_13514" x1="23.5684" y1="22.0868" x2="1014.46" y2="504.836" gradientUnits="userSpaceOnUse">
<stop stop-color="#88A1AC"/>
<stop offset="1" stop-color="#282F3F"/>
</linearGradient>
<linearGradient id="paint16_linear_1264_13514" x1="23.5684" y1="22.0868" x2="1014.46" y2="504.836" gradientUnits="userSpaceOnUse">
<stop stop-color="#88A1AC"/>
<stop offset="1" stop-color="#282F3F"/>
</linearGradient>
<linearGradient id="paint17_linear_1264_13514" x1="23.5684" y1="22.0868" x2="1014.46" y2="504.836" gradientUnits="userSpaceOnUse">
<stop stop-color="#88A1AC"/>
<stop offset="1" stop-color="#282F3F"/>
</linearGradient>
<linearGradient id="paint18_linear_1264_13514" x1="23.5684" y1="22.0868" x2="1014.46" y2="504.836" gradientUnits="userSpaceOnUse">
<stop stop-color="#88A1AC"/>
<stop offset="1" stop-color="#282F3F"/>
</linearGradient>
<linearGradient id="paint19_linear_1264_13514" x1="23.5684" y1="22.0868" x2="1014.46" y2="504.836" gradientUnits="userSpaceOnUse">
<stop stop-color="#88A1AC"/>
<stop offset="1" stop-color="#282F3F"/>
</linearGradient>
<linearGradient id="paint20_linear_1264_13514" x1="23.5684" y1="22.0868" x2="1014.46" y2="504.836" gradientUnits="userSpaceOnUse">
<stop stop-color="#88A1AC"/>
<stop offset="1" stop-color="#282F3F"/>
</linearGradient>
<linearGradient id="paint21_linear_1264_13514" x1="23.5684" y1="22.0868" x2="1014.46" y2="504.836" gradientUnits="userSpaceOnUse">
<stop stop-color="#88A1AC"/>
<stop offset="1" stop-color="#282F3F"/>
</linearGradient>
<linearGradient id="paint22_linear_1264_13514" x1="23.5684" y1="22.0868" x2="1014.46" y2="504.836" gradientUnits="userSpaceOnUse">
<stop stop-color="#88A1AC"/>
<stop offset="1" stop-color="#282F3F"/>
</linearGradient>
<linearGradient id="paint23_linear_1264_13514" x1="23.5684" y1="22.0868" x2="1014.46" y2="504.836" gradientUnits="userSpaceOnUse">
<stop stop-color="#88A1AC"/>
<stop offset="1" stop-color="#282F3F"/>
</linearGradient>
<linearGradient id="paint24_linear_1264_13514" x1="23.5684" y1="22.0868" x2="1014.46" y2="504.836" gradientUnits="userSpaceOnUse">
<stop stop-color="#88A1AC"/>
<stop offset="1" stop-color="#282F3F"/>
</linearGradient>
<linearGradient id="paint25_linear_1264_13514" x1="23.5684" y1="22.0868" x2="1014.46" y2="504.836" gradientUnits="userSpaceOnUse">
<stop stop-color="#88A1AC"/>
<stop offset="1" stop-color="#282F3F"/>
</linearGradient>
<linearGradient id="paint26_linear_1264_13514" x1="23.5684" y1="22.0868" x2="1014.46" y2="504.836" gradientUnits="userSpaceOnUse">
<stop stop-color="#88A1AC"/>
<stop offset="1" stop-color="#282F3F"/>
</linearGradient>
</defs>
</svg>
