<svg width="481" height="232" viewBox="0 0 481 232" fill="none" xmlns="http://www.w3.org/2000/svg">
<path fill-rule="evenodd" clip-rule="evenodd" d="M395.364 140.033C395.256 140.142 395.107 140.157 395.033 140.068C394.959 139.977 395.047 139.889 395.228 139.869C395.43 139.851 395.482 139.914 395.364 140.033ZM393.613 140.131C393.52 140.147 393.372 140.033 393.286 139.878C393.199 139.723 393.203 139.582 393.297 139.566C393.391 139.549 393.539 139.663 393.626 139.818C393.713 139.973 393.707 140.114 393.613 140.131ZM386.347 139.552C385.923 139.626 385.615 139.203 385.839 138.852C385.924 138.721 386.155 138.808 386.352 139.048C386.686 139.454 386.685 139.492 386.347 139.552ZM383.048 133.292C382.59 133.394 382.437 133.275 382.642 132.978C382.699 132.894 382.918 132.907 383.129 133.007C383.463 133.165 383.453 133.201 383.048 133.292ZM381.619 133.635C380.928 133.872 379.812 133.736 380.23 133.465C380.591 133.231 382.337 132.991 382.368 133.169C382.388 133.278 382.05 133.487 381.619 133.635ZM372.466 143.849C371.935 143.949 371.429 143.903 371.342 143.748C371.255 143.593 371.245 143.447 371.318 143.424C371.392 143.4 371.722 143.282 372.051 143.157C372.404 143.025 372.811 143.084 373.041 143.302C373.393 143.631 373.335 143.688 372.466 143.849ZM365.406 141.101C365.292 141.424 364.012 141.689 360.107 142.199C359.683 142.254 359.156 142.173 358.936 142.02C358.716 141.864 357.881 141.829 357.08 141.939C355.156 142.203 354.798 142.21 354.517 141.984C354.387 141.88 354.173 141.899 354.042 142.024C353.885 142.178 353.775 142.092 353.719 141.773C353.672 141.507 353.518 141.31 353.378 141.335C353.238 141.36 353.096 141.228 353.063 141.042C353.021 140.806 353.264 140.724 353.849 140.773C354.664 140.843 356.25 140.573 358.123 140.049C358.688 139.892 359.241 139.935 359.628 140.171C359.964 140.377 360.866 140.496 361.631 140.436C362.396 140.378 363.134 140.441 363.27 140.575C363.521 140.822 364.096 140.895 365.025 140.797C365.391 140.756 365.498 140.842 365.406 141.101ZM347.956 129.459C347.676 129.992 346.846 130.236 346.63 129.849C346.553 129.711 345.937 129.68 345.263 129.781C344.588 129.88 343.991 129.907 343.936 129.839C343.823 129.702 344.632 129.086 344.907 129.1C345.005 129.105 345.787 129.08 346.646 129.045C348.037 128.991 348.179 129.035 347.956 129.459ZM335.677 131.705C334.997 131.816 334.42 131.786 334.393 131.635C334.367 131.485 334.521 131.33 334.736 131.293C334.951 131.255 335.178 131.077 335.242 130.9C335.41 130.425 338.238 129.569 338.309 129.972C338.408 130.536 336.954 131.493 335.677 131.705ZM333.675 130.546C333.506 130.818 333.526 130.977 333.788 131.444C334.182 132.144 334.009 132.281 332.018 132.836C331.258 133.047 330.629 133.166 330.617 133.1C330.58 132.892 331.522 131.942 332.296 131.405C332.706 131.119 333.062 130.762 333.087 130.611C333.112 130.458 333.3 130.307 333.506 130.274C333.808 130.224 333.84 130.278 333.675 130.546ZM346.041 122.178C346.264 122.146 346.267 122.208 346.058 122.514C345.918 122.72 345.761 122.836 345.709 122.773C345.551 122.581 345.753 122.22 346.041 122.178ZM346.754 121.733C346.914 121.705 346.939 121.415 346.826 120.898C346.685 120.253 346.74 120.044 347.119 119.763C347.728 119.316 348.098 119.491 348.119 120.241C348.131 120.67 348.238 120.845 348.502 120.866C348.705 120.882 348.925 121.043 348.992 121.222C349.153 121.652 348.608 122.017 347.508 122.216C347.017 122.306 346.592 122.244 346.563 122.078C346.534 121.912 346.619 121.757 346.754 121.733ZM352.146 122.411C352.52 122.348 352.665 122.387 352.466 122.496C352.267 122.605 351.96 122.656 351.784 122.61C351.608 122.563 351.771 122.475 352.146 122.411ZM354.292 122.398L355.495 122.506L354.654 122.936C354.032 123.253 353.727 123.276 353.487 123.032C352.897 122.427 353.075 122.285 354.292 122.398ZM356.448 122.219C356.911 122.124 357.457 121.755 357.746 121.344C358.301 120.559 358.806 120.362 359.068 120.829C359.173 121.016 359.456 121.02 359.783 120.845C360.331 120.549 360.52 120.763 360.288 121.421C360.196 121.679 360.226 121.83 360.394 121.959C360.535 122.069 360.621 121.882 360.611 121.491C360.597 120.972 360.725 120.819 361.253 120.726C361.991 120.595 362.18 120.973 361.696 121.616C361.52 121.848 361.353 122.17 361.323 122.329C361.294 122.491 360.97 122.669 360.604 122.726C360.237 122.783 359.228 122.948 358.362 123.091C357.494 123.234 356.764 123.234 356.738 123.088C356.713 122.943 356.457 122.725 356.171 122.604C355.69 122.402 355.711 122.372 356.448 122.219ZM362.36 120.74C362.742 120.369 363.778 120.234 363.834 120.549C363.86 120.696 363.628 120.915 363.319 121.039L363.32 121.039C363.012 121.161 362.61 121.202 362.428 121.129C362.112 121.004 362.109 120.985 362.36 120.74ZM364.847 122.56C365.4 122.13 365.613 122.113 366.351 122.443C367.605 123 367.646 123.319 366.493 123.522C365.936 123.621 365.194 123.556 364.842 123.381L364.203 123.061L364.847 122.56ZM409.23 145.194C409.082 145.134 408.737 144.796 408.464 144.441C408.191 144.089 407.86 143.81 407.729 143.822C407.597 143.835 407.088 143.582 406.597 143.26C406.106 142.937 405.465 142.555 405.173 142.411C404.88 142.267 404.633 141.983 404.623 141.78C404.613 141.578 404.235 141.01 403.782 140.521C402.824 139.487 402.834 138.802 403.796 139.484C404.261 139.813 404.484 139.835 404.651 139.567C404.991 139.024 404.734 138.703 403.97 138.716C403.593 138.723 403.146 138.585 402.977 138.411C402.532 137.953 402.232 137.931 400.627 138.223C399.835 138.368 399.09 138.395 398.971 138.281C398.852 138.167 398.255 138.146 397.643 138.233C397.007 138.322 396.211 138.218 395.786 137.989C395.107 137.623 395.062 137.547 395.274 137.145C395.657 136.416 395.26 136.304 394.358 136.891C393.109 137.699 391.731 137.318 391.483 136.09C391.459 135.968 392.222 135.764 393.179 135.637C394.369 135.479 394.922 135.292 394.926 135.048C394.929 134.852 394.835 134.728 394.717 134.769C394.02 135.021 392.012 134.712 391.76 134.315C391.514 133.929 391.444 133.931 391.263 134.333C391.014 134.887 388.367 135.57 387.749 135.242C387.414 135.065 387.444 135.027 387.915 135.033C388.229 135.036 388.466 134.925 388.442 134.79C388.418 134.654 388.69 134.2 389.044 133.781C389.827 132.857 390.066 132.163 389.664 131.984C389.513 131.916 389.204 132.038 388.979 132.256C388.418 132.793 387.288 132.96 387.125 132.529C387.037 132.297 386.571 132.246 385.77 132.38C385.097 132.492 384.531 132.498 384.513 132.392C384.463 132.118 383.493 132.012 381.469 132.057C380.5 132.078 379.574 131.958 379.411 131.792C379.248 131.623 378.676 131.484 378.141 131.481C377.606 131.478 377.186 131.362 377.209 131.222C377.287 130.742 376.773 130.604 375.404 130.735C374.649 130.808 373.957 130.811 373.868 130.741C373.777 130.673 372.631 130.72 371.318 130.847C368.343 131.136 367.527 131.059 367.425 130.48C367.367 130.153 367.558 129.997 368.15 129.887C369.192 129.691 369.554 128.899 368.557 128.992C366.123 129.222 365.879 129.29 366.042 129.686C366.163 129.983 366.041 130.103 365.565 130.159C364.929 130.235 363.667 130.017 363.999 129.888C364.094 129.852 364.286 129.595 364.424 129.319C364.652 128.864 364.522 128.845 363.063 129.116C362.176 129.283 361.325 129.382 361.173 129.338C359.958 128.99 359.514 129.038 359.401 129.533C359.297 129.978 359.066 130.047 357.702 130.04C356.833 130.038 355.638 129.977 355.047 129.908C354.456 129.838 353.164 129.897 352.176 130.039C350.415 130.292 349.643 130.1 348.928 129.234C348.503 128.718 348.738 128.527 349.972 128.383C351.12 128.251 351.999 127.583 352.029 126.82C352.053 126.209 351.284 126.372 351.052 127.028C350.91 127.431 350.631 127.532 349.682 127.533C349.027 127.533 348.11 127.617 347.647 127.722C346.91 127.884 346.831 127.85 347.029 127.455C347.154 127.204 347.243 126.929 347.228 126.842C347.213 126.756 346.564 126.87 345.786 127.097C344.447 127.486 344.347 127.475 343.902 126.852C343.479 126.262 343.418 126.248 343.303 126.712C343.203 127.118 342.896 127.265 341.888 127.388C340.016 127.614 339.219 127.443 339.202 126.808C339.19 126.392 339.069 126.318 338.578 126.427C338.244 126.501 337.907 126.655 337.832 126.77C337.755 126.884 337.468 127.113 337.193 127.277C336.639 127.606 336.199 127.176 336.72 126.814C337.158 126.509 336.882 126.079 336.169 125.96C335.816 125.902 335.633 125.746 335.701 125.562C335.763 125.391 336.142 125.307 336.567 125.369C337.044 125.437 337.367 125.348 337.445 125.128C337.532 124.883 337.752 124.853 338.183 125.03C338.884 125.315 341.817 124.876 343.523 124.23C344.645 123.806 345.414 123.905 345.812 124.528C345.928 124.711 346.022 124.644 346.076 124.347C346.148 123.938 346.461 123.892 348.571 123.966C351.02 124.054 351.398 124.159 351.077 124.664C350.947 124.869 351.016 124.978 351.328 125.061C351.564 125.124 351.759 125.039 351.763 124.871C351.765 124.702 351.849 124.628 351.949 124.706C352.349 125.011 355.795 124.507 355.972 124.113C356.111 123.804 356.167 123.823 356.235 124.208C356.282 124.477 356.387 124.685 356.469 124.67C356.55 124.656 357.327 124.733 358.195 124.843C359.064 124.951 360.36 124.912 361.077 124.758C361.794 124.605 362.459 124.537 362.555 124.607C362.651 124.678 364.118 124.807 365.817 124.893C368.152 125.01 369.006 124.949 369.325 124.646C369.635 124.348 369.762 124.335 369.808 124.591C369.956 125.421 373.904 125.63 374.19 124.823C374.31 124.484 373.871 124.082 373.458 124.154C373.214 124.197 372.756 124.148 372.442 124.046C370.584 123.435 370.1 123.363 369.016 123.549C367.935 123.734 367.802 123.693 367.657 123.141C367.406 122.18 368.096 121.539 368.872 122.013C369.417 122.345 369.507 122.327 369.808 121.824C370.015 121.476 370.332 121.299 370.653 121.353C370.935 121.4 371.188 121.307 371.214 121.146C371.284 120.725 370.693 120.416 369.671 120.337C369.182 120.3 368.705 120.211 368.613 120.141C368.265 119.875 366.837 120.128 366.498 120.517C366.207 120.85 366.099 120.834 365.891 120.436C365.712 120.095 365.524 120.027 365.254 120.208C365.02 120.367 364.847 120.337 364.811 120.133C364.779 119.951 364.5 119.845 364.191 119.899C363.883 119.954 363.533 119.88 363.414 119.736C363.294 119.591 362.268 119.563 361.131 119.672C359.995 119.782 358.582 119.819 357.992 119.754C356.48 119.587 355.579 119.794 355.285 120.375C354.903 121.129 354.11 121.188 353.874 120.478C353.68 119.898 353.266 119.743 353.187 120.222C353.165 120.36 352.927 120.493 352.659 120.518C352.391 120.544 351.881 120.595 351.526 120.63C351.094 120.676 350.855 120.555 350.804 120.268C350.744 119.927 350.53 119.905 349.777 120.162L348.826 120.487L349.13 119.833C349.446 119.152 349.256 118.395 348.867 118.775C348.745 118.893 348.499 118.84 348.321 118.658C348.144 118.477 347.968 118.409 347.933 118.511C347.897 118.613 347.6 118.561 347.273 118.399C346.873 118.199 346.526 118.215 346.21 118.453C345.894 118.692 345.682 118.701 345.561 118.485C345.439 118.266 345.19 118.282 344.773 118.538C344.438 118.743 343.265 119.079 342.168 119.282C340.202 119.651 340.171 119.646 340.052 118.971C339.911 118.172 339.472 118.124 339.369 118.895C339.281 119.563 338.811 119.226 338.79 118.479C338.772 117.83 338.525 117.738 336.858 117.762C335.461 117.782 331.591 118.431 330.469 118.832C330.016 118.996 328.972 119.345 328.151 119.609C327.258 119.896 326.576 120.28 326.456 120.562C326.322 120.875 325.673 121.185 324.521 121.485C323.568 121.731 322.736 122.08 322.672 122.263C322.608 122.443 322.265 122.641 321.909 122.704C321.448 122.785 321.286 122.949 321.343 123.271C321.423 123.724 321.269 123.866 320.702 123.864C320.533 123.863 320.425 124.032 320.461 124.24C320.499 124.456 320.389 124.398 320.203 124.106C319.892 123.619 319.818 123.629 318.533 124.336C317.793 124.742 317.069 125.069 316.924 125.064C316.551 125.049 315.543 125.652 314.478 126.529C313.98 126.938 313.37 127.311 313.124 127.355C312.878 127.398 312.613 127.611 312.536 127.83C312.458 128.048 312.375 128.114 312.351 127.978C312.327 127.843 312.211 127.941 312.093 128.195C311.946 128.51 311.897 128.532 311.939 128.26C311.982 127.984 311.868 127.885 311.565 127.938C311.305 127.984 311.16 128.185 311.204 128.436C311.323 129.112 310.505 129.684 310.034 129.257C309.425 128.703 309.18 128.888 309.338 129.785L309.48 130.593L309.017 129.996C308.412 129.217 308.099 129.3 307.919 130.29C307.837 130.733 307.603 131.207 307.399 131.345C306.973 131.632 307.013 132.204 307.501 132.795C307.685 133.02 307.871 133.406 307.915 133.654C307.958 133.902 308.169 134.167 308.382 134.242C308.596 134.317 308.747 134.443 308.718 134.526C308.651 134.716 307.655 134.169 307.611 133.918C307.577 133.728 306.516 134.026 306.148 134.33C305.928 134.51 306.026 135.306 306.294 135.511C306.393 135.588 306.592 136.014 306.738 136.46C306.883 136.904 307.252 137.651 307.559 138.118C307.866 138.585 308.199 139.279 308.3 139.661C308.478 140.337 308.741 140.62 309.402 140.842C309.652 140.928 309.786 141.282 309.978 142.371C310.294 144.167 311.364 147.49 311.829 148.119C312.023 148.383 312.406 148.559 312.678 148.511C313.261 148.409 313.915 148.788 314.001 149.277C314.035 149.467 313.956 149.951 313.826 150.351L313.589 151.082L314.202 152.239C314.541 152.878 314.932 153.384 315.074 153.366C315.518 153.309 316.121 154.032 316.099 154.597C316.072 155.297 316.519 155.893 317.006 155.807C317.223 155.769 317.468 155.859 317.551 156.006C317.714 156.297 318.641 155.992 319.379 155.403C319.633 155.201 320.267 154.888 320.789 154.705C321.75 154.367 322.262 153.773 322.776 152.401C322.932 151.983 323.145 151.623 323.249 151.605C323.354 151.586 323.63 151.313 323.864 151C324.125 150.649 324.841 150.287 325.716 150.063C326.501 149.862 327.692 149.459 328.364 149.168C329.036 148.877 330.841 148.201 332.375 147.665C334.981 146.754 335.189 146.721 335.573 147.145C335.946 147.56 336.197 147.532 338.407 146.825C339.74 146.397 340.897 145.912 340.978 145.747C341.238 145.214 341.885 144.927 342.17 145.218C342.329 145.381 342.701 145.373 343.052 145.198C343.385 145.031 344.163 144.675 344.778 144.41C345.393 144.142 345.924 143.847 345.957 143.754C345.99 143.66 346.225 143.891 346.478 144.267C346.992 145.029 347.749 145.059 348.233 144.335C348.468 143.984 348.555 143.968 348.671 144.258C348.749 144.457 348.922 144.601 349.055 144.578C349.187 144.554 349.246 144.369 349.186 144.167C349.105 143.89 349.465 143.744 350.617 143.579C352.117 143.365 352.602 143.365 354.824 143.565C357.806 143.836 358.492 143.807 358.853 143.393C359.142 143.06 359.263 143.056 359.439 143.369C359.623 143.699 359.716 143.687 360.006 143.295C360.203 143.032 360.53 142.891 360.762 142.974C361.138 143.104 361.153 143.15 360.948 143.541C360.754 143.909 360.871 143.993 361.788 144.144C362.372 144.243 364.007 144.393 365.421 144.481C366.836 144.569 368.513 144.687 369.151 144.747C369.788 144.804 371.457 144.868 372.859 144.886C374.261 144.904 375.533 144.968 375.684 145.028C375.836 145.086 376.561 145.167 377.294 145.203C378.027 145.242 379.225 145.307 379.956 145.349C380.687 145.393 381.92 145.445 382.695 145.466C384.018 145.501 385.201 145.611 387.331 145.898C387.825 145.966 388.816 145.987 389.531 145.943C391.336 145.838 390.473 145.527 387.565 145.234C386.289 145.105 384.076 144.866 382.648 144.703C380.388 144.444 374.89 144.051 374.5 144.12C374.425 144.133 374.217 143.824 374.039 143.432C373.762 142.824 373.756 142.665 373.996 142.343C374.15 142.134 374.502 141.896 374.776 141.811C375.103 141.712 375.223 141.531 375.124 141.289C374.93 140.814 376.78 140.674 377.447 141.113C377.752 141.314 378.811 141.256 380.648 140.939C382.157 140.676 383.553 140.567 383.75 140.692C383.948 140.817 384.477 140.912 384.927 140.9C385.991 140.877 387.715 141.097 389.536 141.49C390.339 141.665 391.364 141.802 391.814 141.797C392.263 141.791 392.718 141.853 392.826 141.938C392.933 142.019 393.812 142.158 394.778 142.243C396.812 142.425 397.868 142.599 398.907 142.92C399.733 143.176 400.946 143.399 401.913 143.473C402.262 143.499 402.749 143.751 402.995 144.03C403.277 144.353 403.686 144.496 404.103 144.419C405.105 144.236 405.943 144.351 406.785 144.779C408.002 145.401 409.347 145.785 409.427 145.535C409.468 145.407 409.379 145.255 409.23 145.194V145.194Z" fill="#21728D"/>
<g opacity="0.6">
<path d="M5.2875 173.17C4.3695 173.17 3.47983 173.04 2.6185 172.779C1.7685 172.518 1.09417 172.173 0.5955 171.742L1.3605 170.025C1.84783 170.41 2.44283 170.728 3.1455 170.977C3.8595 171.215 4.5735 171.334 5.2875 171.334C6.1715 171.334 6.82883 171.192 7.2595 170.909C7.7015 170.626 7.9225 170.252 7.9225 169.787C7.9225 169.447 7.79783 169.169 7.5485 168.954C7.3105 168.727 7.0045 168.552 6.6305 168.427C6.2565 168.302 5.7465 168.161 5.1005 168.002C4.19383 167.787 3.45717 167.571 2.8905 167.356C2.33517 167.141 1.8535 166.806 1.4455 166.353C1.04883 165.888 0.8505 165.265 0.8505 164.483C0.8505 163.826 1.02617 163.231 1.3775 162.698C1.74017 162.154 2.2785 161.723 2.9925 161.406C3.71783 161.089 4.60183 160.93 5.6445 160.93C6.36983 160.93 7.08383 161.021 7.7865 161.202C8.48917 161.383 9.0955 161.644 9.6055 161.984L8.9085 163.701C8.38717 163.395 7.84317 163.163 7.2765 163.004C6.70983 162.845 6.16017 162.766 5.6275 162.766C4.75483 162.766 4.10317 162.913 3.6725 163.208C3.25317 163.503 3.0435 163.894 3.0435 164.381C3.0435 164.721 3.1625 164.999 3.4005 165.214C3.64983 165.429 3.9615 165.599 4.3355 165.724C4.7095 165.849 5.2195 165.99 5.8655 166.149C6.7495 166.353 7.47483 166.568 8.0415 166.795C8.60817 167.01 9.08983 167.345 9.4865 167.798C9.8945 168.251 10.0985 168.863 10.0985 169.634C10.0985 170.291 9.91717 170.886 9.5545 171.419C9.20317 171.952 8.66483 172.377 7.9395 172.694C7.21417 173.011 6.33017 173.17 5.2875 173.17Z" fill="#88A1AC"/>
<path d="M20.6199 168.512C20.6199 168.659 20.6086 168.869 20.5859 169.141H13.4629C13.5876 169.81 13.9106 170.342 14.4319 170.739C14.9646 171.124 15.6219 171.317 16.4039 171.317C17.4012 171.317 18.2229 170.988 18.8689 170.331L20.0079 171.64C19.5999 172.127 19.0842 172.496 18.4609 172.745C17.8376 172.994 17.1349 173.119 16.3529 173.119C15.3556 173.119 14.4772 172.921 13.7179 172.524C12.9586 172.127 12.3692 171.578 11.9499 170.875C11.5419 170.161 11.3379 169.356 11.3379 168.461C11.3379 167.577 11.5362 166.784 11.9329 166.081C12.3409 165.367 12.9019 164.812 13.6159 164.415C14.3299 164.018 15.1346 163.82 16.0299 163.82C16.9139 163.82 17.7016 164.018 18.3929 164.415C19.0956 164.8 19.6396 165.35 20.0249 166.064C20.4216 166.767 20.6199 167.583 20.6199 168.512ZM16.0299 165.52C15.3499 165.52 14.7719 165.724 14.2959 166.132C13.8312 166.529 13.5479 167.061 13.4459 167.73H18.5969C18.5062 167.073 18.2286 166.54 17.7639 166.132C17.2992 165.724 16.7212 165.52 16.0299 165.52Z" fill="#88A1AC"/>
<path d="M26.8261 173.119C25.8854 173.119 25.0411 172.921 24.2931 172.524C23.5451 172.127 22.9614 171.578 22.5421 170.875C22.1228 170.161 21.9131 169.356 21.9131 168.461C21.9131 167.566 22.1228 166.767 22.5421 166.064C22.9614 165.361 23.5394 164.812 24.2761 164.415C25.0241 164.018 25.8741 163.82 26.8261 163.82C27.7214 163.82 28.5034 164.001 29.1721 164.364C29.8521 164.727 30.3621 165.248 30.7021 165.928L29.0701 166.88C28.8094 166.461 28.4808 166.149 28.0841 165.945C27.6988 165.73 27.2738 165.622 26.8091 165.622C26.0158 165.622 25.3584 165.883 24.8371 166.404C24.3158 166.914 24.0551 167.6 24.0551 168.461C24.0551 169.322 24.3101 170.014 24.8201 170.535C25.3414 171.045 26.0044 171.3 26.8091 171.3C27.2738 171.3 27.6988 171.198 28.0841 170.994C28.4808 170.779 28.8094 170.461 29.0701 170.042L30.7021 170.994C30.3508 171.674 29.8351 172.201 29.1551 172.575C28.4864 172.938 27.7101 173.119 26.8261 173.119Z" fill="#88A1AC"/>
<path d="M41.328 163.922V173H39.305V171.844C38.965 172.252 38.54 172.569 38.03 172.796C37.52 173.011 36.9704 173.119 36.381 173.119C35.1684 173.119 34.2107 172.785 33.508 172.116C32.8167 171.436 32.471 170.433 32.471 169.107V163.922H34.596V168.818C34.596 169.634 34.7774 170.246 35.14 170.654C35.514 171.051 36.041 171.249 36.721 171.249C37.4804 171.249 38.081 171.017 38.523 170.552C38.9764 170.076 39.203 169.396 39.203 168.512V163.922H41.328Z" fill="#88A1AC"/>
<path d="M46.1333 165.248C46.7453 164.296 47.822 163.82 49.3633 163.82V165.843C49.182 165.809 49.0177 165.792 48.8703 165.792C48.043 165.792 47.397 166.036 46.9323 166.523C46.4677 166.999 46.2353 167.69 46.2353 168.597V173H44.1103V163.922H46.1333V165.248Z" fill="#88A1AC"/>
<path d="M59.617 168.512C59.617 168.659 59.6056 168.869 59.583 169.141H52.46C52.5846 169.81 52.9076 170.342 53.429 170.739C53.9616 171.124 54.619 171.317 55.401 171.317C56.3983 171.317 57.22 170.988 57.866 170.331L59.005 171.64C58.597 172.127 58.0813 172.496 57.458 172.745C56.8346 172.994 56.132 173.119 55.35 173.119C54.3526 173.119 53.4743 172.921 52.715 172.524C51.9556 172.127 51.3663 171.578 50.947 170.875C50.539 170.161 50.335 169.356 50.335 168.461C50.335 167.577 50.5333 166.784 50.93 166.081C51.338 165.367 51.899 164.812 52.613 164.415C53.327 164.018 54.1316 163.82 55.027 163.82C55.911 163.82 56.6986 164.018 57.39 164.415C58.0926 164.8 58.6366 165.35 59.022 166.064C59.4186 166.767 59.617 167.583 59.617 168.512ZM55.027 165.52C54.347 165.52 53.769 165.724 53.293 166.132C52.8283 166.529 52.545 167.061 52.443 167.73H57.594C57.5033 167.073 57.2256 166.54 56.761 166.132C56.2963 165.724 55.7183 165.52 55.027 165.52Z" fill="#88A1AC"/>
<path d="M74.8564 163.922L70.6064 173.731C70.2097 174.717 69.7281 175.408 69.1614 175.805C68.5947 176.213 67.9091 176.417 67.1044 176.417C66.6511 176.417 66.2034 176.343 65.7614 176.196C65.3194 176.049 64.9567 175.845 64.6734 175.584L65.5234 174.02C65.7274 174.213 65.9654 174.366 66.2374 174.479C66.5207 174.592 66.8041 174.649 67.0874 174.649C67.4614 174.649 67.7674 174.553 68.0054 174.36C68.2548 174.167 68.4814 173.844 68.6854 173.391L68.8384 173.034L64.8774 163.922H67.0874L69.9434 170.637L72.8164 163.922H74.8564Z" fill="#88A1AC"/>
<path d="M80.0155 173.119C79.0975 173.119 78.2702 172.921 77.5335 172.524C76.7968 172.127 76.2188 171.578 75.7995 170.875C75.3915 170.161 75.1875 169.356 75.1875 168.461C75.1875 167.566 75.3915 166.767 75.7995 166.064C76.2188 165.361 76.7968 164.812 77.5335 164.415C78.2702 164.018 79.0975 163.82 80.0155 163.82C80.9449 163.82 81.7779 164.018 82.5145 164.415C83.2512 164.812 83.8235 165.361 84.2315 166.064C84.6508 166.767 84.8605 167.566 84.8605 168.461C84.8605 169.356 84.6508 170.161 84.2315 170.875C83.8235 171.578 83.2512 172.127 82.5145 172.524C81.7779 172.921 80.9449 173.119 80.0155 173.119ZM80.0155 171.3C80.7975 171.3 81.4435 171.039 81.9535 170.518C82.4635 169.997 82.7185 169.311 82.7185 168.461C82.7185 167.611 82.4635 166.925 81.9535 166.404C81.4435 165.883 80.7975 165.622 80.0155 165.622C79.2335 165.622 78.5875 165.883 78.0775 166.404C77.5788 166.925 77.3295 167.611 77.3295 168.461C77.3295 169.311 77.5788 169.997 78.0775 170.518C78.5875 171.039 79.2335 171.3 80.0155 171.3Z" fill="#88A1AC"/>
<path d="M95.6815 163.922V173H93.6585V171.844C93.3185 172.252 92.8935 172.569 92.3835 172.796C91.8735 173.011 91.3239 173.119 90.7346 173.119C89.5219 173.119 88.5642 172.785 87.8615 172.116C87.1702 171.436 86.8245 170.433 86.8245 169.107V163.922H88.9495V168.818C88.9495 169.634 89.1309 170.246 89.4935 170.654C89.8675 171.051 90.3945 171.249 91.0745 171.249C91.8339 171.249 92.4345 171.017 92.8765 170.552C93.3299 170.076 93.5565 169.396 93.5565 168.512V163.922H95.6815Z" fill="#88A1AC"/>
<path d="M100.487 165.248C101.099 164.296 102.176 163.82 103.717 163.82V165.843C103.536 165.809 103.371 165.792 103.224 165.792C102.397 165.792 101.751 166.036 101.286 166.523C100.821 166.999 100.589 167.69 100.589 168.597V173H98.4638V163.922H100.487V165.248Z" fill="#88A1AC"/>
<path d="M113.99 161.984C113.094 161.984 112.647 162.471 112.647 163.446V163.99H115.146V165.69H112.715V173H110.59V165.69H109.094V163.99H110.59V163.412C110.59 162.437 110.873 161.672 111.44 161.117C112.006 160.55 112.805 160.267 113.837 160.267C114.653 160.267 115.293 160.431 115.758 160.76L115.163 162.358C114.8 162.109 114.409 161.984 113.99 161.984Z" fill="#88A1AC"/>
<path d="M125.365 163.922V173H123.342V171.844C123.002 172.252 122.577 172.569 122.067 172.796C121.557 173.011 121.007 173.119 120.418 173.119C119.205 173.119 118.248 172.785 117.545 172.116C116.854 171.436 116.508 170.433 116.508 169.107V163.922H118.633V168.818C118.633 169.634 118.814 170.246 119.177 170.654C119.551 171.051 120.078 171.249 120.758 171.249C121.517 171.249 122.118 171.017 122.56 170.552C123.013 170.076 123.24 169.396 123.24 168.512V163.922H125.365Z" fill="#88A1AC"/>
<path d="M133.604 172.507C133.355 172.711 133.049 172.864 132.686 172.966C132.335 173.068 131.961 173.119 131.564 173.119C130.567 173.119 129.796 172.858 129.252 172.337C128.708 171.816 128.436 171.056 128.436 170.059V165.69H126.94V163.99H128.436V161.916H130.561V163.99H132.992V165.69H130.561V170.008C130.561 170.45 130.669 170.79 130.884 171.028C131.1 171.255 131.411 171.368 131.819 171.368C132.295 171.368 132.692 171.243 133.009 170.994L133.604 172.507Z" fill="#88A1AC"/>
<path d="M144.142 163.922V173H142.119V171.844C141.779 172.252 141.354 172.569 140.844 172.796C140.334 173.011 139.784 173.119 139.195 173.119C137.982 173.119 137.024 172.785 136.322 172.116C135.63 171.436 135.285 170.433 135.285 169.107V163.922H137.41V168.818C137.41 169.634 137.591 170.246 137.954 170.654C138.328 171.051 138.855 171.249 139.535 171.249C140.294 171.249 140.895 171.017 141.337 170.552C141.79 170.076 142.017 169.396 142.017 168.512V163.922H144.142Z" fill="#88A1AC"/>
<path d="M148.947 165.248C149.559 164.296 150.635 163.82 152.177 163.82V165.843C151.995 165.809 151.831 165.792 151.684 165.792C150.856 165.792 150.21 166.036 149.746 166.523C149.281 166.999 149.049 167.69 149.049 168.597V173H146.924V163.922H148.947V165.248Z" fill="#88A1AC"/>
<path d="M162.43 168.512C162.43 168.659 162.419 168.869 162.396 169.141H155.273C155.398 169.81 155.721 170.342 156.242 170.739C156.775 171.124 157.432 171.317 158.214 171.317C159.212 171.317 160.033 170.988 160.679 170.331L161.818 171.64C161.41 172.127 160.895 172.496 160.271 172.745C159.648 172.994 158.945 173.119 158.163 173.119C157.166 173.119 156.288 172.921 155.528 172.524C154.769 172.127 154.18 171.578 153.76 170.875C153.352 170.161 153.148 169.356 153.148 168.461C153.148 167.577 153.347 166.784 153.743 166.081C154.151 165.367 154.712 164.812 155.426 164.415C156.14 164.018 156.945 163.82 157.84 163.82C158.724 163.82 159.512 164.018 160.203 164.415C160.906 164.8 161.45 165.35 161.835 166.064C162.232 166.767 162.43 167.583 162.43 168.512ZM157.84 165.52C157.16 165.52 156.582 165.724 156.106 166.132C155.642 166.529 155.358 167.061 155.256 167.73H160.407C160.317 167.073 160.039 166.54 159.574 166.132C159.11 165.724 158.532 165.52 157.84 165.52Z" fill="#88A1AC"/>
<path d="M174.202 163.82C175.086 163.82 175.874 164.013 176.565 164.398C177.268 164.783 177.817 165.327 178.214 166.03C178.611 166.733 178.809 167.543 178.809 168.461C178.809 169.379 178.611 170.195 178.214 170.909C177.817 171.612 177.268 172.156 176.565 172.541C175.874 172.926 175.086 173.119 174.202 173.119C173.579 173.119 173.006 173.011 172.485 172.796C171.975 172.581 171.544 172.258 171.193 171.827V173H169.17V160.386H171.295V165.027C171.658 164.63 172.083 164.33 172.57 164.126C173.069 163.922 173.613 163.82 174.202 163.82ZM173.964 171.3C174.746 171.3 175.386 171.039 175.885 170.518C176.395 169.997 176.65 169.311 176.65 168.461C176.65 167.611 176.395 166.925 175.885 166.404C175.386 165.883 174.746 165.622 173.964 165.622C173.454 165.622 172.995 165.741 172.587 165.979C172.179 166.206 171.856 166.534 171.618 166.965C171.38 167.396 171.261 167.894 171.261 168.461C171.261 169.028 171.38 169.526 171.618 169.957C171.856 170.388 172.179 170.722 172.587 170.96C172.995 171.187 173.454 171.3 173.964 171.3Z" fill="#88A1AC"/>
<path d="M189.075 163.922L184.825 173.731C184.428 174.717 183.947 175.408 183.38 175.805C182.813 176.213 182.128 176.417 181.323 176.417C180.87 176.417 180.422 176.343 179.98 176.196C179.538 176.049 179.175 175.845 178.892 175.584L179.742 174.02C179.946 174.213 180.184 174.366 180.456 174.479C180.739 174.592 181.023 174.649 181.306 174.649C181.68 174.649 181.986 174.553 182.224 174.36C182.474 174.167 182.7 173.844 182.904 173.391L183.057 173.034L179.096 163.922H181.306L184.162 170.637L187.035 163.922H189.075Z" fill="#88A1AC"/>
<path d="M195.102 163.922H197.227V173H195.102V163.922ZM196.173 162.426C195.787 162.426 195.464 162.307 195.204 162.069C194.943 161.82 194.813 161.514 194.813 161.151C194.813 160.788 194.943 160.488 195.204 160.25C195.464 160.001 195.787 159.876 196.173 159.876C196.558 159.876 196.881 159.995 197.142 160.233C197.402 160.46 197.533 160.749 197.533 161.1C197.533 161.474 197.402 161.791 197.142 162.052C196.892 162.301 196.569 162.426 196.173 162.426Z" fill="#88A1AC"/>
<path d="M205.167 163.82C206.311 163.82 207.229 164.154 207.921 164.823C208.612 165.492 208.958 166.483 208.958 167.798V173H206.833V168.07C206.833 167.277 206.646 166.682 206.272 166.285C205.898 165.877 205.365 165.673 204.674 165.673C203.892 165.673 203.274 165.911 202.821 166.387C202.367 166.852 202.141 167.526 202.141 168.41V173H200.016V163.922H202.039V165.095C202.39 164.676 202.832 164.358 203.365 164.143C203.897 163.928 204.498 163.82 205.167 163.82Z" fill="#88A1AC"/>
<path d="M219.987 163.922L216.094 173H213.901L210.008 163.922H212.218L215.04 170.654L217.947 163.922H219.987Z" fill="#88A1AC"/>
<path d="M229.6 168.512C229.6 168.659 229.589 168.869 229.566 169.141H222.443C222.568 169.81 222.891 170.342 223.412 170.739C223.945 171.124 224.602 171.317 225.384 171.317C226.382 171.317 227.203 170.988 227.849 170.331L228.988 171.64C228.58 172.127 228.065 172.496 227.441 172.745C226.818 172.994 226.115 173.119 225.333 173.119C224.336 173.119 223.458 172.921 222.698 172.524C221.939 172.127 221.35 171.578 220.93 170.875C220.522 170.161 220.318 169.356 220.318 168.461C220.318 167.577 220.517 166.784 220.913 166.081C221.321 165.367 221.882 164.812 222.596 164.415C223.31 164.018 224.115 163.82 225.01 163.82C225.894 163.82 226.682 164.018 227.373 164.415C228.076 164.8 228.62 165.35 229.005 166.064C229.402 166.767 229.6 167.583 229.6 168.512ZM225.01 165.52C224.33 165.52 223.752 165.724 223.276 166.132C222.812 166.529 222.528 167.061 222.426 167.73H227.577C227.487 167.073 227.209 166.54 226.744 166.132C226.28 165.724 225.702 165.52 225.01 165.52Z" fill="#88A1AC"/>
<path d="M234.447 173.119C233.71 173.119 232.99 173.023 232.288 172.83C231.585 172.637 231.024 172.394 230.605 172.099L231.421 170.484C231.829 170.756 232.316 170.977 232.883 171.147C233.461 171.306 234.027 171.385 234.583 171.385C235.852 171.385 236.487 171.051 236.487 170.382C236.487 170.065 236.322 169.844 235.994 169.719C235.676 169.594 235.161 169.475 234.447 169.362C233.699 169.249 233.087 169.118 232.611 168.971C232.146 168.824 231.738 168.569 231.387 168.206C231.047 167.832 230.877 167.316 230.877 166.659C230.877 165.798 231.234 165.112 231.948 164.602C232.673 164.081 233.648 163.82 234.872 163.82C235.495 163.82 236.118 163.894 236.742 164.041C237.365 164.177 237.875 164.364 238.272 164.602L237.456 166.217C236.685 165.764 235.818 165.537 234.855 165.537C234.231 165.537 233.755 165.633 233.427 165.826C233.109 166.007 232.951 166.251 232.951 166.557C232.951 166.897 233.121 167.141 233.461 167.288C233.812 167.424 234.35 167.554 235.076 167.679C235.801 167.792 236.396 167.923 236.861 168.07C237.325 168.217 237.722 168.467 238.051 168.818C238.391 169.169 238.561 169.668 238.561 170.314C238.561 171.164 238.192 171.844 237.456 172.354C236.719 172.864 235.716 173.119 234.447 173.119Z" fill="#88A1AC"/>
<path d="M245.848 172.507C245.598 172.711 245.292 172.864 244.93 172.966C244.578 173.068 244.204 173.119 243.808 173.119C242.81 173.119 242.04 172.858 241.496 172.337C240.952 171.816 240.68 171.056 240.68 170.059V165.69H239.184V163.99H240.68V161.916H242.805V163.99H245.236V165.69H242.805V170.008C242.805 170.45 242.912 170.79 243.128 171.028C243.343 171.255 243.655 171.368 244.063 171.368C244.539 171.368 244.935 171.243 245.253 170.994L245.848 172.507Z" fill="#88A1AC"/>
<path d="M247.596 163.922H249.721V173H247.596V163.922ZM248.667 162.426C248.281 162.426 247.958 162.307 247.698 162.069C247.437 161.82 247.307 161.514 247.307 161.151C247.307 160.788 247.437 160.488 247.698 160.25C247.958 160.001 248.281 159.876 248.667 159.876C249.052 159.876 249.375 159.995 249.636 160.233C249.896 160.46 250.027 160.749 250.027 161.1C250.027 161.474 249.896 161.791 249.636 162.052C249.386 162.301 249.063 162.426 248.667 162.426Z" fill="#88A1AC"/>
<path d="M257.661 163.82C258.805 163.82 259.723 164.154 260.415 164.823C261.106 165.492 261.452 166.483 261.452 167.798V173H259.327V168.07C259.327 167.277 259.14 166.682 258.766 166.285C258.392 165.877 257.859 165.673 257.168 165.673C256.386 165.673 255.768 165.911 255.315 166.387C254.861 166.852 254.635 167.526 254.635 168.41V173H252.51V163.922H254.533V165.095C254.884 164.676 255.326 164.358 255.859 164.143C256.391 163.928 256.992 163.82 257.661 163.82Z" fill="#88A1AC"/>
<path d="M273.24 163.922V171.623C273.24 174.819 271.608 176.417 268.344 176.417C267.472 176.417 266.644 176.304 265.862 176.077C265.08 175.862 264.434 175.544 263.924 175.125L264.876 173.527C265.273 173.856 265.772 174.116 266.372 174.309C266.984 174.513 267.602 174.615 268.225 174.615C269.223 174.615 269.954 174.388 270.418 173.935C270.883 173.482 271.115 172.79 271.115 171.861V171.385C270.753 171.782 270.311 172.082 269.789 172.286C269.268 172.49 268.696 172.592 268.072 172.592C267.211 172.592 266.429 172.411 265.726 172.048C265.035 171.674 264.485 171.153 264.077 170.484C263.681 169.815 263.482 169.05 263.482 168.189C263.482 167.328 263.681 166.568 264.077 165.911C264.485 165.242 265.035 164.727 265.726 164.364C266.429 164.001 267.211 163.82 268.072 163.82C268.73 163.82 269.325 163.928 269.857 164.143C270.401 164.358 270.855 164.687 271.217 165.129V163.922H273.24ZM268.395 170.79C269.2 170.79 269.857 170.552 270.367 170.076C270.889 169.589 271.149 168.96 271.149 168.189C271.149 167.43 270.889 166.812 270.367 166.336C269.857 165.86 269.2 165.622 268.395 165.622C267.579 165.622 266.911 165.86 266.389 166.336C265.879 166.812 265.624 167.43 265.624 168.189C265.624 168.96 265.879 169.589 266.389 170.076C266.911 170.552 267.579 170.79 268.395 170.79Z" fill="#88A1AC"/>
<path d="M280.732 163.922H282.857V173H280.732V163.922ZM281.803 162.426C281.418 162.426 281.095 162.307 280.834 162.069C280.574 161.82 280.443 161.514 280.443 161.151C280.443 160.788 280.574 160.488 280.834 160.25C281.095 160.001 281.418 159.876 281.803 159.876C282.189 159.876 282.512 159.995 282.772 160.233C283.033 160.46 283.163 160.749 283.163 161.1C283.163 161.474 283.033 161.791 282.772 162.052C282.523 162.301 282.2 162.426 281.803 162.426Z" fill="#88A1AC"/>
<path d="M290.797 163.82C291.942 163.82 292.86 164.154 293.551 164.823C294.243 165.492 294.588 166.483 294.588 167.798V173H292.463V168.07C292.463 167.277 292.276 166.682 291.902 166.285C291.528 165.877 290.996 165.673 290.304 165.673C289.522 165.673 288.905 165.911 288.451 166.387C287.998 166.852 287.771 167.526 287.771 168.41V173H285.646V163.922H287.669V165.095C288.021 164.676 288.463 164.358 288.995 164.143C289.528 163.928 290.129 163.82 290.797 163.82Z" fill="#88A1AC"/>
<path d="M307.014 163.82C307.898 163.82 308.686 164.013 309.377 164.398C310.08 164.783 310.63 165.327 311.026 166.03C311.423 166.733 311.621 167.543 311.621 168.461C311.621 169.379 311.423 170.195 311.026 170.909C310.63 171.612 310.08 172.156 309.377 172.541C308.686 172.926 307.898 173.119 307.014 173.119C306.391 173.119 305.819 173.011 305.297 172.796C304.787 172.581 304.357 172.258 304.005 171.827V173H301.982V160.386H304.107V165.027C304.47 164.63 304.895 164.33 305.382 164.126C305.881 163.922 306.425 163.82 307.014 163.82ZM306.776 171.3C307.558 171.3 308.199 171.039 308.697 170.518C309.207 169.997 309.462 169.311 309.462 168.461C309.462 167.611 309.207 166.925 308.697 166.404C308.199 165.883 307.558 165.622 306.776 165.622C306.266 165.622 305.807 165.741 305.399 165.979C304.991 166.206 304.668 166.534 304.43 166.965C304.192 167.396 304.073 167.894 304.073 168.461C304.073 169.028 304.192 169.526 304.43 169.957C304.668 170.388 304.991 170.722 305.399 170.96C305.807 171.187 306.266 171.3 306.776 171.3Z" fill="#88A1AC"/>
<path d="M313.637 163.922H315.762V173H313.637V163.922ZM314.708 162.426C314.322 162.426 313.999 162.307 313.739 162.069C313.478 161.82 313.348 161.514 313.348 161.151C313.348 160.788 313.478 160.488 313.739 160.25C313.999 160.001 314.322 159.876 314.708 159.876C315.093 159.876 315.416 159.995 315.677 160.233C315.937 160.46 316.068 160.749 316.068 161.1C316.068 161.474 315.937 161.791 315.677 162.052C315.427 162.301 315.104 162.426 314.708 162.426Z" fill="#88A1AC"/>
<path d="M324.008 172.507C323.758 172.711 323.452 172.864 323.09 172.966C322.738 173.068 322.364 173.119 321.968 173.119C320.97 173.119 320.2 172.858 319.656 172.337C319.112 171.816 318.84 171.056 318.84 170.059V165.69H317.344V163.99H318.84V161.916H320.965V163.99H323.396V165.69H320.965V170.008C320.965 170.45 321.072 170.79 321.288 171.028C321.503 171.255 321.815 171.368 322.223 171.368C322.699 171.368 323.095 171.243 323.413 170.994L324.008 172.507Z" fill="#88A1AC"/>
<path d="M329.622 173.119C328.681 173.119 327.837 172.921 327.089 172.524C326.341 172.127 325.757 171.578 325.338 170.875C324.919 170.161 324.709 169.356 324.709 168.461C324.709 167.566 324.919 166.767 325.338 166.064C325.757 165.361 326.335 164.812 327.072 164.415C327.82 164.018 328.67 163.82 329.622 163.82C330.517 163.82 331.299 164.001 331.968 164.364C332.648 164.727 333.158 165.248 333.498 165.928L331.866 166.88C331.605 166.461 331.277 166.149 330.88 165.945C330.495 165.73 330.07 165.622 329.605 165.622C328.812 165.622 328.154 165.883 327.633 166.404C327.112 166.914 326.851 167.6 326.851 168.461C326.851 169.322 327.106 170.014 327.616 170.535C328.137 171.045 328.8 171.3 329.605 171.3C330.07 171.3 330.495 171.198 330.88 170.994C331.277 170.779 331.605 170.461 331.866 170.042L333.498 170.994C333.147 171.674 332.631 172.201 331.951 172.575C331.282 172.938 330.506 173.119 329.622 173.119Z" fill="#88A1AC"/>
<path d="M339.282 173.119C338.364 173.119 337.537 172.921 336.8 172.524C336.063 172.127 335.485 171.578 335.066 170.875C334.658 170.161 334.454 169.356 334.454 168.461C334.454 167.566 334.658 166.767 335.066 166.064C335.485 165.361 336.063 164.812 336.8 164.415C337.537 164.018 338.364 163.82 339.282 163.82C340.211 163.82 341.044 164.018 341.781 164.415C342.518 164.812 343.09 165.361 343.498 166.064C343.917 166.767 344.127 167.566 344.127 168.461C344.127 169.356 343.917 170.161 343.498 170.875C343.09 171.578 342.518 172.127 341.781 172.524C341.044 172.921 340.211 173.119 339.282 173.119ZM339.282 171.3C340.064 171.3 340.71 171.039 341.22 170.518C341.73 169.997 341.985 169.311 341.985 168.461C341.985 167.611 341.73 166.925 341.22 166.404C340.71 165.883 340.064 165.622 339.282 165.622C338.5 165.622 337.854 165.883 337.344 166.404C336.845 166.925 336.596 167.611 336.596 168.461C336.596 169.311 336.845 169.997 337.344 170.518C337.854 171.039 338.5 171.3 339.282 171.3Z" fill="#88A1AC"/>
<path d="M346.159 163.922H348.284V173H346.159V163.922ZM347.23 162.426C346.845 162.426 346.522 162.307 346.261 162.069C346 161.82 345.87 161.514 345.87 161.151C345.87 160.788 346 160.488 346.261 160.25C346.522 160.001 346.845 159.876 347.23 159.876C347.615 159.876 347.938 159.995 348.199 160.233C348.46 160.46 348.59 160.749 348.59 161.1C348.59 161.474 348.46 161.791 348.199 162.052C347.95 162.301 347.627 162.426 347.23 162.426Z" fill="#88A1AC"/>
<path d="M356.224 163.82C357.369 163.82 358.287 164.154 358.978 164.823C359.67 165.492 360.015 166.483 360.015 167.798V173H357.89V168.07C357.89 167.277 357.703 166.682 357.329 166.285C356.955 165.877 356.423 165.673 355.731 165.673C354.949 165.673 354.332 165.911 353.878 166.387C353.425 166.852 353.198 167.526 353.198 168.41V173H351.073V163.922H353.096V165.095C353.448 164.676 353.89 164.358 354.422 164.143C354.955 163.928 355.556 163.82 356.224 163.82Z" fill="#88A1AC"/>
<path d="M363.408 170.297C363.805 170.297 364.133 170.427 364.394 170.688C364.655 170.949 364.785 171.289 364.785 171.708C364.785 171.889 364.757 172.082 364.7 172.286C364.655 172.479 364.553 172.773 364.394 173.17L363.527 175.567H362.15L362.83 172.966C362.581 172.864 362.382 172.705 362.235 172.49C362.099 172.263 362.031 172.003 362.031 171.708C362.031 171.289 362.161 170.949 362.422 170.688C362.683 170.427 363.011 170.297 363.408 170.297Z" fill="#88A1AC"/>
<path d="M380.57 163.922V171.623C380.57 174.819 378.938 176.417 375.674 176.417C374.801 176.417 373.974 176.304 373.192 176.077C372.41 175.862 371.764 175.544 371.254 175.125L372.206 173.527C372.602 173.856 373.101 174.116 373.702 174.309C374.314 174.513 374.931 174.615 375.555 174.615C376.552 174.615 377.283 174.388 377.748 173.935C378.212 173.482 378.445 172.79 378.445 171.861V171.385C378.082 171.782 377.64 172.082 377.119 172.286C376.597 172.49 376.025 172.592 375.402 172.592C374.54 172.592 373.758 172.411 373.056 172.048C372.364 171.674 371.815 171.153 371.407 170.484C371.01 169.815 370.812 169.05 370.812 168.189C370.812 167.328 371.01 166.568 371.407 165.911C371.815 165.242 372.364 164.727 373.056 164.364C373.758 164.001 374.54 163.82 375.402 163.82C376.059 163.82 376.654 163.928 377.187 164.143C377.731 164.358 378.184 164.687 378.547 165.129V163.922H380.57ZM375.725 170.79C376.529 170.79 377.187 170.552 377.697 170.076C378.218 169.589 378.479 168.96 378.479 168.189C378.479 167.43 378.218 166.812 377.697 166.336C377.187 165.86 376.529 165.622 375.725 165.622C374.909 165.622 374.24 165.86 373.719 166.336C373.209 166.812 372.954 167.43 372.954 168.189C372.954 168.96 373.209 169.589 373.719 170.076C374.24 170.552 374.909 170.79 375.725 170.79Z" fill="#88A1AC"/>
<path d="M383.363 163.922H385.488V173H383.363V163.922ZM384.434 162.426C384.049 162.426 383.726 162.307 383.465 162.069C383.205 161.82 383.074 161.514 383.074 161.151C383.074 160.788 383.205 160.488 383.465 160.25C383.726 160.001 384.049 159.876 384.434 159.876C384.82 159.876 385.143 159.995 385.403 160.233C385.664 160.46 385.794 160.749 385.794 161.1C385.794 161.474 385.664 161.791 385.403 162.052C385.154 162.301 384.831 162.426 384.434 162.426Z" fill="#88A1AC"/>
<path d="M391.966 161.984C391.071 161.984 390.623 162.471 390.623 163.446V163.99H393.122V165.69H390.691V173H388.566V165.69H387.07V163.99H388.566V163.412C388.566 162.437 388.85 161.672 389.416 161.117C389.983 160.55 390.782 160.267 391.813 160.267C392.629 160.267 393.27 160.431 393.734 160.76L393.139 162.358C392.777 162.109 392.386 161.984 391.966 161.984Z" fill="#88A1AC"/>
<path d="M400.01 172.507C399.76 172.711 399.454 172.864 399.092 172.966C398.74 173.068 398.366 173.119 397.97 173.119C396.972 173.119 396.202 172.858 395.658 172.337C395.114 171.816 394.842 171.056 394.842 170.059V165.69H393.346V163.99H394.842V161.916H396.967V163.99H399.398V165.69H396.967V170.008C396.967 170.45 397.074 170.79 397.29 171.028C397.505 171.255 397.817 171.368 398.225 171.368C398.701 171.368 399.097 171.243 399.415 170.994L400.01 172.507Z" fill="#88A1AC"/>
<path d="M409.261 173.119C408.524 173.119 407.805 173.023 407.102 172.83C406.399 172.637 405.838 172.394 405.419 172.099L406.235 170.484C406.643 170.756 407.13 170.977 407.697 171.147C408.275 171.306 408.842 171.385 409.397 171.385C410.666 171.385 411.301 171.051 411.301 170.382C411.301 170.065 411.137 169.844 410.808 169.719C410.491 169.594 409.975 169.475 409.261 169.362C408.513 169.249 407.901 169.118 407.425 168.971C406.96 168.824 406.552 168.569 406.201 168.206C405.861 167.832 405.691 167.316 405.691 166.659C405.691 165.798 406.048 165.112 406.762 164.602C407.487 164.081 408.462 163.82 409.686 163.82C410.309 163.82 410.933 163.894 411.556 164.041C412.179 164.177 412.689 164.364 413.086 164.602L412.27 166.217C411.499 165.764 410.632 165.537 409.669 165.537C409.046 165.537 408.57 165.633 408.241 165.826C407.924 166.007 407.765 166.251 407.765 166.557C407.765 166.897 407.935 167.141 408.275 167.288C408.626 167.424 409.165 167.554 409.89 167.679C410.615 167.792 411.21 167.923 411.675 168.07C412.14 168.217 412.536 168.467 412.865 168.818C413.205 169.169 413.375 169.668 413.375 170.314C413.375 171.164 413.007 171.844 412.27 172.354C411.533 172.864 410.53 173.119 409.261 173.119Z" fill="#88A1AC"/>
<path d="M419.285 173.119C418.367 173.119 417.54 172.921 416.803 172.524C416.066 172.127 415.488 171.578 415.069 170.875C414.661 170.161 414.457 169.356 414.457 168.461C414.457 167.566 414.661 166.767 415.069 166.064C415.488 165.361 416.066 164.812 416.803 164.415C417.54 164.018 418.367 163.82 419.285 163.82C420.214 163.82 421.047 164.018 421.784 164.415C422.521 164.812 423.093 165.361 423.501 166.064C423.92 166.767 424.13 167.566 424.13 168.461C424.13 169.356 423.92 170.161 423.501 170.875C423.093 171.578 422.521 172.127 421.784 172.524C421.047 172.921 420.214 173.119 419.285 173.119ZM419.285 171.3C420.067 171.3 420.713 171.039 421.223 170.518C421.733 169.997 421.988 169.311 421.988 168.461C421.988 167.611 421.733 166.925 421.223 166.404C420.713 165.883 420.067 165.622 419.285 165.622C418.503 165.622 417.857 165.883 417.347 166.404C416.848 166.925 416.599 167.611 416.599 168.461C416.599 169.311 416.848 169.997 417.347 170.518C417.857 171.039 418.503 171.3 419.285 171.3Z" fill="#88A1AC"/>
<path d="M437.62 163.82C438.765 163.82 439.671 164.154 440.34 164.823C441.009 165.48 441.343 166.472 441.343 167.798V173H439.218V168.07C439.218 167.277 439.042 166.682 438.691 166.285C438.34 165.877 437.835 165.673 437.178 165.673C436.464 165.673 435.892 165.911 435.461 166.387C435.03 166.852 434.815 167.52 434.815 168.393V173H432.69V168.07C432.69 167.277 432.514 166.682 432.163 166.285C431.812 165.877 431.307 165.673 430.65 165.673C429.925 165.673 429.347 165.905 428.916 166.37C428.497 166.835 428.287 167.509 428.287 168.393V173H426.162V163.922H428.185V165.078C428.525 164.67 428.95 164.358 429.46 164.143C429.97 163.928 430.537 163.82 431.16 163.82C431.84 163.82 432.441 163.95 432.962 164.211C433.495 164.46 433.914 164.834 434.22 165.333C434.594 164.857 435.076 164.489 435.665 164.228C436.254 163.956 436.906 163.82 437.62 163.82Z" fill="#88A1AC"/>
<path d="M452.676 168.512C452.676 168.659 452.664 168.869 452.642 169.141H445.519C445.643 169.81 445.966 170.342 446.488 170.739C447.02 171.124 447.678 171.317 448.46 171.317C449.457 171.317 450.279 170.988 450.925 170.331L452.064 171.64C451.656 172.127 451.14 172.496 450.517 172.745C449.893 172.994 449.191 173.119 448.409 173.119C447.411 173.119 446.533 172.921 445.774 172.524C445.014 172.127 444.425 171.578 444.006 170.875C443.598 170.161 443.394 169.356 443.394 168.461C443.394 167.577 443.592 166.784 443.989 166.081C444.397 165.367 444.958 164.812 445.672 164.415C446.386 164.018 447.19 163.82 448.086 163.82C448.97 163.82 449.757 164.018 450.449 164.415C451.151 164.8 451.695 165.35 452.081 166.064C452.477 166.767 452.676 167.583 452.676 168.512ZM448.086 165.52C447.406 165.52 446.828 165.724 446.352 166.132C445.887 166.529 445.604 167.061 445.502 167.73H450.653C450.562 167.073 450.284 166.54 449.82 166.132C449.355 165.724 448.777 165.52 448.086 165.52Z" fill="#88A1AC"/>
<path d="M464.872 172.507C464.623 172.711 464.317 172.864 463.954 172.966C463.603 173.068 463.229 173.119 462.832 173.119C461.835 173.119 461.064 172.858 460.52 172.337C459.976 171.816 459.704 171.056 459.704 170.059V165.69H458.208V163.99H459.704V161.916H461.829V163.99H464.26V165.69H461.829V170.008C461.829 170.45 461.937 170.79 462.152 171.028C462.367 171.255 462.679 171.368 463.087 171.368C463.563 171.368 463.96 171.243 464.277 170.994L464.872 172.507Z" fill="#88A1AC"/>
<path d="M470.401 173.119C469.483 173.119 468.656 172.921 467.919 172.524C467.183 172.127 466.605 171.578 466.185 170.875C465.777 170.161 465.573 169.356 465.573 168.461C465.573 167.566 465.777 166.767 466.185 166.064C466.605 165.361 467.183 164.812 467.919 164.415C468.656 164.018 469.483 163.82 470.401 163.82C471.331 163.82 472.164 164.018 472.9 164.415C473.637 164.812 474.209 165.361 474.617 166.064C475.037 166.767 475.246 167.566 475.246 168.461C475.246 169.356 475.037 170.161 474.617 170.875C474.209 171.578 473.637 172.127 472.9 172.524C472.164 172.921 471.331 173.119 470.401 173.119ZM470.401 171.3C471.183 171.3 471.829 171.039 472.339 170.518C472.849 169.997 473.104 169.311 473.104 168.461C473.104 167.611 472.849 166.925 472.339 166.404C471.829 165.883 471.183 165.622 470.401 165.622C469.619 165.622 468.973 165.883 468.463 166.404C467.965 166.925 467.715 167.611 467.715 168.461C467.715 169.311 467.965 169.997 468.463 170.518C468.973 171.039 469.619 171.3 470.401 171.3Z" fill="#88A1AC"/>
<path d="M5.0835 187.984C4.18817 187.984 3.7405 188.471 3.7405 189.446V189.99H6.2395V191.69H3.8085V199H1.6835V191.69H0.1875V189.99H1.6835V189.412C1.6835 188.437 1.96683 187.672 2.5335 187.117C3.10017 186.55 3.89917 186.267 4.9305 186.267C5.7465 186.267 6.38683 186.431 6.8515 186.76L6.2565 188.358C5.89383 188.109 5.50283 187.984 5.0835 187.984Z" fill="#88A1AC"/>
<path d="M11.0542 191.248C11.6662 190.296 12.7429 189.82 14.2842 189.82V191.843C14.1029 191.809 13.9386 191.792 13.7912 191.792C12.9639 191.792 12.3179 192.036 11.8532 192.523C11.3886 192.999 11.1562 193.69 11.1562 194.597V199H9.03122V189.922H11.0542V191.248Z" fill="#88A1AC"/>
<path d="M16.0869 189.922H18.2119V199H16.0869V189.922ZM17.1579 188.426C16.7725 188.426 16.4495 188.307 16.1889 188.069C15.9282 187.82 15.7979 187.514 15.7979 187.151C15.7979 186.788 15.9282 186.488 16.1889 186.25C16.4495 186.001 16.7725 185.876 17.1579 185.876C17.5432 185.876 17.8662 185.995 18.1269 186.233C18.3875 186.46 18.5179 186.749 18.5179 187.1C18.5179 187.474 18.3875 187.791 18.1269 188.052C17.8775 188.301 17.5545 188.426 17.1579 188.426Z" fill="#88A1AC"/>
<path d="M29.5349 194.512C29.5349 194.659 29.5236 194.869 29.5009 195.141H22.3779C22.5026 195.81 22.8256 196.342 23.3469 196.739C23.8796 197.124 24.5369 197.317 25.3189 197.317C26.3163 197.317 27.1379 196.988 27.7839 196.331L28.9229 197.64C28.5149 198.127 27.9993 198.496 27.3759 198.745C26.7526 198.994 26.0499 199.119 25.2679 199.119C24.2706 199.119 23.3923 198.921 22.6329 198.524C21.8736 198.127 21.2843 197.578 20.8649 196.875C20.4569 196.161 20.2529 195.356 20.2529 194.461C20.2529 193.577 20.4513 192.784 20.8479 192.081C21.2559 191.367 21.8169 190.812 22.5309 190.415C23.2449 190.018 24.0496 189.82 24.9449 189.82C25.8289 189.82 26.6166 190.018 27.3079 190.415C28.0106 190.8 28.5546 191.35 28.9399 192.064C29.3366 192.767 29.5349 193.583 29.5349 194.512ZM24.9449 191.52C24.2649 191.52 23.6869 191.724 23.2109 192.132C22.7463 192.529 22.4629 193.061 22.3609 193.73H27.5119C27.4213 193.073 27.1436 192.54 26.6789 192.132C26.2143 191.724 25.6363 191.52 24.9449 191.52Z" fill="#88A1AC"/>
<path d="M36.7271 189.82C37.8718 189.82 38.7898 190.154 39.4811 190.823C40.1725 191.492 40.5181 192.483 40.5181 193.798V199H38.3931V194.07C38.3931 193.277 38.2061 192.682 37.8321 192.285C37.4581 191.877 36.9255 191.673 36.2341 191.673C35.4521 191.673 34.8345 191.911 34.3811 192.387C33.9278 192.852 33.7011 193.526 33.7011 194.41V199H31.5761V189.922H33.5991V191.095C33.9505 190.676 34.3925 190.358 34.9251 190.143C35.4578 189.928 36.0585 189.82 36.7271 189.82Z" fill="#88A1AC"/>
<path d="M52.1878 186.386V199H50.1478V197.827C49.7965 198.258 49.3602 198.581 48.8388 198.796C48.3288 199.011 47.7622 199.119 47.1388 199.119C46.2662 199.119 45.4785 198.926 44.7758 198.541C44.0845 198.156 43.5405 197.612 43.1438 196.909C42.7472 196.195 42.5488 195.379 42.5488 194.461C42.5488 193.543 42.7472 192.733 43.1438 192.03C43.5405 191.327 44.0845 190.783 44.7758 190.398C45.4785 190.013 46.2662 189.82 47.1388 189.82C47.7395 189.82 48.2892 189.922 48.7878 190.126C49.2865 190.33 49.7115 190.636 50.0628 191.044V186.386H52.1878ZM47.3938 197.3C47.9038 197.3 48.3628 197.187 48.7708 196.96C49.1788 196.722 49.5018 196.388 49.7398 195.957C49.9778 195.526 50.0968 195.028 50.0968 194.461C50.0968 193.894 49.9778 193.396 49.7398 192.965C49.5018 192.534 49.1788 192.206 48.7708 191.979C48.3628 191.741 47.9038 191.622 47.3938 191.622C46.8838 191.622 46.4248 191.741 46.0168 191.979C45.6088 192.206 45.2858 192.534 45.0478 192.965C44.8098 193.396 44.6908 193.894 44.6908 194.461C44.6908 195.028 44.8098 195.526 45.0478 195.957C45.2858 196.388 45.6088 196.722 46.0168 196.96C46.4248 197.187 46.8838 197.3 47.3938 197.3Z" fill="#88A1AC"/>
<path d="M57.7727 199.119C57.0361 199.119 56.3164 199.023 55.6137 198.83C54.9111 198.637 54.3501 198.394 53.9307 198.099L54.7467 196.484C55.1547 196.756 55.6421 196.977 56.2087 197.147C56.7867 197.306 57.3534 197.385 57.9087 197.385C59.1781 197.385 59.8127 197.051 59.8127 196.382C59.8127 196.065 59.6484 195.844 59.3197 195.719C59.0024 195.594 58.4867 195.475 57.7727 195.362C57.0247 195.249 56.4127 195.118 55.9367 194.971C55.4721 194.824 55.0641 194.569 54.7127 194.206C54.3727 193.832 54.2027 193.316 54.2027 192.659C54.2027 191.798 54.5597 191.112 55.2737 190.602C55.9991 190.081 56.9737 189.82 58.1977 189.82C58.8211 189.82 59.4444 189.894 60.0677 190.041C60.6911 190.177 61.2011 190.364 61.5977 190.602L60.7817 192.217C60.0111 191.764 59.1441 191.537 58.1807 191.537C57.5574 191.537 57.0814 191.633 56.7527 191.826C56.4354 192.007 56.2767 192.251 56.2767 192.557C56.2767 192.897 56.4467 193.141 56.7867 193.288C57.1381 193.424 57.6764 193.554 58.4017 193.679C59.1271 193.792 59.7221 193.923 60.1867 194.07C60.6514 194.217 61.0481 194.467 61.3767 194.818C61.7167 195.169 61.8867 195.668 61.8867 196.314C61.8867 197.164 61.5184 197.844 60.7817 198.354C60.0451 198.864 59.0421 199.119 57.7727 199.119Z" fill="#88A1AC"/>
<path d="M71.883 189.82C73.2203 189.82 74.2403 190.143 74.943 190.789C75.657 191.424 76.014 192.387 76.014 193.679V199H74.008V197.895C73.7473 198.292 73.3733 198.598 72.886 198.813C72.41 199.017 71.832 199.119 71.152 199.119C70.472 199.119 69.877 199.006 69.367 198.779C68.857 198.541 68.4603 198.218 68.177 197.81C67.905 197.391 67.769 196.92 67.769 196.399C67.769 195.583 68.0693 194.931 68.67 194.444C69.282 193.945 70.2397 193.696 71.543 193.696H73.889V193.56C73.889 192.925 73.6963 192.438 73.311 192.098C72.937 191.758 72.376 191.588 71.628 191.588C71.118 191.588 70.6137 191.667 70.115 191.826C69.6277 191.985 69.214 192.206 68.874 192.489L68.041 190.942C68.517 190.579 69.0893 190.302 69.758 190.109C70.4267 189.916 71.135 189.82 71.883 189.82ZM71.594 197.572C72.1267 197.572 72.597 197.453 73.005 197.215C73.4243 196.966 73.719 196.614 73.889 196.161V195.107H71.696C70.472 195.107 69.86 195.509 69.86 196.314C69.86 196.699 70.013 197.005 70.319 197.232C70.625 197.459 71.05 197.572 71.594 197.572Z" fill="#88A1AC"/>
<path d="M83.8922 189.82C85.0368 189.82 85.9548 190.154 86.6462 190.823C87.3375 191.492 87.6832 192.483 87.6832 193.798V199H85.5582V194.07C85.5582 193.277 85.3712 192.682 84.9972 192.285C84.6232 191.877 84.0905 191.673 83.3992 191.673C82.6172 191.673 81.9995 191.911 81.5462 192.387C81.0928 192.852 80.8662 193.526 80.8662 194.41V199H78.7412V189.922H80.7642V191.095C81.1155 190.676 81.5575 190.358 82.0902 190.143C82.6228 189.928 83.2235 189.82 83.8922 189.82Z" fill="#88A1AC"/>
<path d="M99.3529 186.386V199H97.3129V197.827C96.9615 198.258 96.5252 198.581 96.0039 198.796C95.4939 199.011 94.9272 199.119 94.3039 199.119C93.4312 199.119 92.6435 198.926 91.9409 198.541C91.2495 198.156 90.7056 197.612 90.3089 196.909C89.9122 196.195 89.7139 195.379 89.7139 194.461C89.7139 193.543 89.9122 192.733 90.3089 192.03C90.7056 191.327 91.2495 190.783 91.9409 190.398C92.6435 190.013 93.4312 189.82 94.3039 189.82C94.9046 189.82 95.4542 189.922 95.9529 190.126C96.4515 190.33 96.8765 190.636 97.2279 191.044V186.386H99.3529ZM94.5589 197.3C95.0689 197.3 95.5279 197.187 95.9359 196.96C96.3439 196.722 96.6669 196.388 96.9049 195.957C97.1429 195.526 97.2619 195.028 97.2619 194.461C97.2619 193.894 97.1429 193.396 96.9049 192.965C96.6669 192.534 96.3439 192.206 95.9359 191.979C95.5279 191.741 95.0689 191.622 94.5589 191.622C94.0489 191.622 93.5899 191.741 93.1819 191.979C92.7739 192.206 92.4509 192.534 92.2129 192.965C91.9749 193.396 91.8559 193.894 91.8559 194.461C91.8559 195.028 91.9749 195.526 92.2129 195.957C92.4509 196.388 92.7739 196.722 93.1819 196.96C93.5899 197.187 94.0489 197.3 94.5589 197.3Z" fill="#88A1AC"/>
<path d="M110.52 187.984C109.625 187.984 109.177 188.471 109.177 189.446V189.99H111.676V191.69H109.245V199H107.12V191.69H105.624V189.99H107.12V189.412C107.12 188.437 107.403 187.672 107.97 187.117C108.537 186.55 109.336 186.267 110.367 186.267C111.183 186.267 111.823 186.431 112.288 186.76L111.693 188.358C111.33 188.109 110.939 187.984 110.52 187.984Z" fill="#88A1AC"/>
<path d="M116.408 189.82C117.746 189.82 118.766 190.143 119.468 190.789C120.182 191.424 120.539 192.387 120.539 193.679V199H118.533V197.895C118.273 198.292 117.899 198.598 117.411 198.813C116.935 199.017 116.357 199.119 115.677 199.119C114.997 199.119 114.402 199.006 113.892 198.779C113.382 198.541 112.986 198.218 112.702 197.81C112.43 197.391 112.294 196.92 112.294 196.399C112.294 195.583 112.595 194.931 113.195 194.444C113.807 193.945 114.765 193.696 116.068 193.696H118.414V193.56C118.414 192.925 118.222 192.438 117.836 192.098C117.462 191.758 116.901 191.588 116.153 191.588C115.643 191.588 115.139 191.667 114.64 191.826C114.153 191.985 113.739 192.206 113.399 192.489L112.566 190.942C113.042 190.579 113.615 190.302 114.283 190.109C114.952 189.916 115.66 189.82 116.408 189.82ZM116.119 197.572C116.652 197.572 117.122 197.453 117.53 197.215C117.95 196.966 118.244 196.614 118.414 196.161V195.107H116.221C114.997 195.107 114.385 195.509 114.385 196.314C114.385 196.699 114.538 197.005 114.844 197.232C115.15 197.459 115.575 197.572 116.119 197.572Z" fill="#88A1AC"/>
<path d="M134.725 189.82C135.869 189.82 136.776 190.154 137.445 190.823C138.113 191.48 138.448 192.472 138.448 193.798V199H136.323V194.07C136.323 193.277 136.147 192.682 135.796 192.285C135.444 191.877 134.94 191.673 134.283 191.673C133.569 191.673 132.996 191.911 132.566 192.387C132.135 192.852 131.92 193.52 131.92 194.393V199H129.795V194.07C129.795 193.277 129.619 192.682 129.268 192.285C128.916 191.877 128.412 191.673 127.755 191.673C127.029 191.673 126.451 191.905 126.021 192.37C125.601 192.835 125.392 193.509 125.392 194.393V199H123.267V189.922H125.29V191.078C125.63 190.67 126.055 190.358 126.565 190.143C127.075 189.928 127.641 189.82 128.265 189.82C128.945 189.82 129.545 189.95 130.067 190.211C130.599 190.46 131.019 190.834 131.325 191.333C131.699 190.857 132.18 190.489 132.77 190.228C133.359 189.956 134.011 189.82 134.725 189.82Z" fill="#88A1AC"/>
<path d="M141.163 189.922H143.288V199H141.163V189.922ZM142.234 188.426C141.849 188.426 141.526 188.307 141.265 188.069C141.004 187.82 140.874 187.514 140.874 187.151C140.874 186.788 141.004 186.488 141.265 186.25C141.526 186.001 141.849 185.876 142.234 185.876C142.619 185.876 142.942 185.995 143.203 186.233C143.464 186.46 143.594 186.749 143.594 187.1C143.594 187.474 143.464 187.791 143.203 188.052C142.954 188.301 142.631 188.426 142.234 188.426Z" fill="#88A1AC"/>
<path d="M146.077 186.386H148.202V199H146.077V186.386Z" fill="#88A1AC"/>
<path d="M159.491 189.922L155.241 199.731C154.845 200.717 154.363 201.408 153.796 201.805C153.23 202.213 152.544 202.417 151.739 202.417C151.286 202.417 150.838 202.343 150.396 202.196C149.954 202.049 149.592 201.845 149.308 201.584L150.158 200.02C150.362 200.213 150.6 200.366 150.872 200.479C151.156 200.592 151.439 200.649 151.722 200.649C152.096 200.649 152.402 200.553 152.64 200.36C152.89 200.167 153.116 199.844 153.32 199.391L153.473 199.034L149.512 189.922H151.722L154.578 196.637L157.451 189.922H159.491Z" fill="#88A1AC"/>
<path d="M160.952 196.297C161.349 196.297 161.677 196.427 161.938 196.688C162.199 196.949 162.329 197.289 162.329 197.708C162.329 197.889 162.301 198.082 162.244 198.286C162.199 198.479 162.097 198.773 161.938 199.17L161.071 201.567H159.694L160.374 198.966C160.125 198.864 159.926 198.705 159.779 198.49C159.643 198.263 159.575 198.003 159.575 197.708C159.575 197.289 159.705 196.949 159.966 196.688C160.227 196.427 160.555 196.297 160.952 196.297Z" fill="#88A1AC"/>
<path d="M173.183 199.119C172.265 199.119 171.438 198.921 170.701 198.524C169.965 198.127 169.387 197.578 168.967 196.875C168.559 196.161 168.355 195.356 168.355 194.461C168.355 193.566 168.559 192.767 168.967 192.064C169.387 191.361 169.965 190.812 170.701 190.415C171.438 190.018 172.265 189.82 173.183 189.82C174.113 189.82 174.946 190.018 175.682 190.415C176.419 190.812 176.991 191.361 177.399 192.064C177.819 192.767 178.028 193.566 178.028 194.461C178.028 195.356 177.819 196.161 177.399 196.875C176.991 197.578 176.419 198.127 175.682 198.524C174.946 198.921 174.113 199.119 173.183 199.119ZM173.183 197.3C173.965 197.3 174.611 197.039 175.121 196.518C175.631 195.997 175.886 195.311 175.886 194.461C175.886 193.611 175.631 192.925 175.121 192.404C174.611 191.883 173.965 191.622 173.183 191.622C172.401 191.622 171.755 191.883 171.245 192.404C170.747 192.925 170.497 193.611 170.497 194.461C170.497 195.311 170.747 195.997 171.245 196.518C171.755 197.039 172.401 197.3 173.183 197.3Z" fill="#88A1AC"/>
<path d="M182.084 191.248C182.696 190.296 183.772 189.82 185.314 189.82V191.843C185.132 191.809 184.968 191.792 184.821 191.792C183.993 191.792 183.347 192.036 182.883 192.523C182.418 192.999 182.186 193.69 182.186 194.597V199H180.061V189.922H182.084V191.248Z" fill="#88A1AC"/>
<path d="M197.354 198.507C197.105 198.711 196.799 198.864 196.436 198.966C196.085 199.068 195.711 199.119 195.314 199.119C194.317 199.119 193.546 198.858 193.002 198.337C192.458 197.816 192.186 197.056 192.186 196.059V191.69H190.69V189.99H192.186V187.916H194.311V189.99H196.742V191.69H194.311V196.008C194.311 196.45 194.419 196.79 194.634 197.028C194.85 197.255 195.161 197.368 195.569 197.368C196.045 197.368 196.442 197.243 196.759 196.994L197.354 198.507Z" fill="#88A1AC"/>
<path d="M201.126 191.248C201.738 190.296 202.814 189.82 204.356 189.82V191.843C204.174 191.809 204.01 191.792 203.863 191.792C203.035 191.792 202.389 192.036 201.925 192.523C201.46 192.999 201.228 193.69 201.228 194.597V199H199.103V189.922H201.126V191.248Z" fill="#88A1AC"/>
<path d="M209.576 189.82C210.914 189.82 211.934 190.143 212.636 190.789C213.35 191.424 213.707 192.387 213.707 193.679V199H211.701V197.895C211.441 198.292 211.067 198.598 210.579 198.813C210.103 199.017 209.525 199.119 208.845 199.119C208.165 199.119 207.57 199.006 207.06 198.779C206.55 198.541 206.154 198.218 205.87 197.81C205.598 197.391 205.462 196.92 205.462 196.399C205.462 195.583 205.763 194.931 206.363 194.444C206.975 193.945 207.933 193.696 209.236 193.696H211.582V193.56C211.582 192.925 211.39 192.438 211.004 192.098C210.63 191.758 210.069 191.588 209.321 191.588C208.811 191.588 208.307 191.667 207.808 191.826C207.321 191.985 206.907 192.206 206.567 192.489L205.734 190.942C206.21 190.579 206.783 190.302 207.451 190.109C208.12 189.916 208.828 189.82 209.576 189.82ZM209.287 197.572C209.82 197.572 210.29 197.453 210.698 197.215C211.118 196.966 211.412 196.614 211.582 196.161V195.107H209.389C208.165 195.107 207.553 195.509 207.553 196.314C207.553 196.699 207.706 197.005 208.012 197.232C208.318 197.459 208.743 197.572 209.287 197.572Z" fill="#88A1AC"/>
<path d="M225.409 186.386V199H223.369V197.827C223.017 198.258 222.581 198.581 222.06 198.796C221.55 199.011 220.983 199.119 220.36 199.119C219.487 199.119 218.699 198.926 217.997 198.541C217.305 198.156 216.761 197.612 216.365 196.909C215.968 196.195 215.77 195.379 215.77 194.461C215.77 193.543 215.968 192.733 216.365 192.03C216.761 191.327 217.305 190.783 217.997 190.398C218.699 190.013 219.487 189.82 220.36 189.82C220.96 189.82 221.51 189.922 222.009 190.126C222.507 190.33 222.932 190.636 223.284 191.044V186.386H225.409ZM220.615 197.3C221.125 197.3 221.584 197.187 221.992 196.96C222.4 196.722 222.723 196.388 222.961 195.957C223.199 195.526 223.318 195.028 223.318 194.461C223.318 193.894 223.199 193.396 222.961 192.965C222.723 192.534 222.4 192.206 221.992 191.979C221.584 191.741 221.125 191.622 220.615 191.622C220.105 191.622 219.646 191.741 219.238 191.979C218.83 192.206 218.507 192.534 218.269 192.965C218.031 193.396 217.912 193.894 217.912 194.461C217.912 195.028 218.031 195.526 218.269 195.957C218.507 196.388 218.83 196.722 219.238 196.96C219.646 197.187 220.105 197.3 220.615 197.3Z" fill="#88A1AC"/>
<path d="M236.722 194.512C236.722 194.659 236.711 194.869 236.688 195.141H229.565C229.69 195.81 230.013 196.342 230.534 196.739C231.067 197.124 231.724 197.317 232.506 197.317C233.504 197.317 234.325 196.988 234.971 196.331L236.11 197.64C235.702 198.127 235.187 198.496 234.563 198.745C233.94 198.994 233.237 199.119 232.455 199.119C231.458 199.119 230.58 198.921 229.82 198.524C229.061 198.127 228.472 197.578 228.052 196.875C227.644 196.161 227.44 195.356 227.44 194.461C227.44 193.577 227.639 192.784 228.035 192.081C228.443 191.367 229.004 190.812 229.718 190.415C230.432 190.018 231.237 189.82 232.132 189.82C233.016 189.82 233.804 190.018 234.495 190.415C235.198 190.8 235.742 191.35 236.127 192.064C236.524 192.767 236.722 193.583 236.722 194.512ZM232.132 191.52C231.452 191.52 230.874 191.724 230.398 192.132C229.934 192.529 229.65 193.061 229.548 193.73H234.699C234.609 193.073 234.331 192.54 233.866 192.132C233.402 191.724 232.824 191.52 232.132 191.52Z" fill="#88A1AC"/>
<path d="M251.962 189.922L247.712 199.731C247.315 200.717 246.834 201.408 246.267 201.805C245.7 202.213 245.015 202.417 244.21 202.417C243.757 202.417 243.309 202.343 242.867 202.196C242.425 202.049 242.062 201.845 241.779 201.584L242.629 200.02C242.833 200.213 243.071 200.366 243.343 200.479C243.626 200.592 243.91 200.649 244.193 200.649C244.567 200.649 244.873 200.553 245.111 200.36C245.36 200.167 245.587 199.844 245.791 199.391L245.944 199.034L241.983 189.922H244.193L247.049 196.637L249.922 189.922H251.962Z" fill="#88A1AC"/>
<path d="M257.121 199.119C256.203 199.119 255.376 198.921 254.639 198.524C253.902 198.127 253.324 197.578 252.905 196.875C252.497 196.161 252.293 195.356 252.293 194.461C252.293 193.566 252.497 192.767 252.905 192.064C253.324 191.361 253.902 190.812 254.639 190.415C255.376 190.018 256.203 189.82 257.121 189.82C258.05 189.82 258.883 190.018 259.62 190.415C260.357 190.812 260.929 191.361 261.337 192.064C261.756 192.767 261.966 193.566 261.966 194.461C261.966 195.356 261.756 196.161 261.337 196.875C260.929 197.578 260.357 198.127 259.62 198.524C258.883 198.921 258.05 199.119 257.121 199.119ZM257.121 197.3C257.903 197.3 258.549 197.039 259.059 196.518C259.569 195.997 259.824 195.311 259.824 194.461C259.824 193.611 259.569 192.925 259.059 192.404C258.549 191.883 257.903 191.622 257.121 191.622C256.339 191.622 255.693 191.883 255.183 192.404C254.684 192.925 254.435 193.611 254.435 194.461C254.435 195.311 254.684 195.997 255.183 196.518C255.693 197.039 256.339 197.3 257.121 197.3Z" fill="#88A1AC"/>
<path d="M272.787 189.922V199H270.764V197.844C270.424 198.252 269.999 198.569 269.489 198.796C268.979 199.011 268.429 199.119 267.84 199.119C266.627 199.119 265.67 198.785 264.967 198.116C264.276 197.436 263.93 196.433 263.93 195.107V189.922H266.055V194.818C266.055 195.634 266.236 196.246 266.599 196.654C266.973 197.051 267.5 197.249 268.18 197.249C268.939 197.249 269.54 197.017 269.982 196.552C270.435 196.076 270.662 195.396 270.662 194.512V189.922H272.787Z" fill="#88A1AC"/>
<path d="M277.592 191.248C278.204 190.296 279.281 189.82 280.822 189.82V191.843C280.641 191.809 280.477 191.792 280.329 191.792C279.502 191.792 278.856 192.036 278.391 192.523C277.927 192.999 277.694 193.69 277.694 194.597V199H275.569V189.922H277.592V191.248Z" fill="#88A1AC"/>
<path d="M292.438 189.82C293.322 189.82 294.11 190.013 294.801 190.398C295.504 190.783 296.054 191.327 296.45 192.03C296.847 192.733 297.045 193.543 297.045 194.461C297.045 195.379 296.847 196.195 296.45 196.909C296.054 197.612 295.504 198.156 294.801 198.541C294.11 198.926 293.322 199.119 292.438 199.119C291.815 199.119 291.243 199.011 290.721 198.796C290.211 198.581 289.781 198.258 289.429 197.827V199H287.406V186.386H289.531V191.027C289.894 190.63 290.319 190.33 290.806 190.126C291.305 189.922 291.849 189.82 292.438 189.82ZM292.2 197.3C292.982 197.3 293.623 197.039 294.121 196.518C294.631 195.997 294.886 195.311 294.886 194.461C294.886 193.611 294.631 192.925 294.121 192.404C293.623 191.883 292.982 191.622 292.2 191.622C291.69 191.622 291.231 191.741 290.823 191.979C290.415 192.206 290.092 192.534 289.854 192.965C289.616 193.396 289.497 193.894 289.497 194.461C289.497 195.028 289.616 195.526 289.854 195.957C290.092 196.388 290.415 196.722 290.823 196.96C291.231 197.187 291.69 197.3 292.2 197.3Z" fill="#88A1AC"/>
<path d="M299.061 189.922H301.186V199H299.061V189.922ZM300.132 188.426C299.746 188.426 299.423 188.307 299.163 188.069C298.902 187.82 298.772 187.514 298.772 187.151C298.772 186.788 298.902 186.488 299.163 186.25C299.423 186.001 299.746 185.876 300.132 185.876C300.517 185.876 300.84 185.995 301.101 186.233C301.361 186.46 301.492 186.749 301.492 187.1C301.492 187.474 301.361 187.791 301.101 188.052C300.851 188.301 300.528 188.426 300.132 188.426Z" fill="#88A1AC"/>
<path d="M309.432 198.507C309.182 198.711 308.876 198.864 308.514 198.966C308.162 199.068 307.788 199.119 307.392 199.119C306.394 199.119 305.624 198.858 305.08 198.337C304.536 197.816 304.264 197.056 304.264 196.059V191.69H302.768V189.99H304.264V187.916H306.389V189.99H308.82V191.69H306.389V196.008C306.389 196.45 306.496 196.79 306.712 197.028C306.927 197.255 307.239 197.368 307.647 197.368C308.123 197.368 308.519 197.243 308.837 196.994L309.432 198.507Z" fill="#88A1AC"/>
<path d="M315.046 199.119C314.105 199.119 313.261 198.921 312.513 198.524C311.765 198.127 311.181 197.578 310.762 196.875C310.343 196.161 310.133 195.356 310.133 194.461C310.133 193.566 310.343 192.767 310.762 192.064C311.181 191.361 311.759 190.812 312.496 190.415C313.244 190.018 314.094 189.82 315.046 189.82C315.941 189.82 316.723 190.001 317.392 190.364C318.072 190.727 318.582 191.248 318.922 191.928L317.29 192.88C317.029 192.461 316.7 192.149 316.304 191.945C315.918 191.73 315.494 191.622 315.029 191.622C314.236 191.622 313.578 191.883 313.057 192.404C312.535 192.914 312.275 193.6 312.275 194.461C312.275 195.322 312.53 196.014 313.04 196.535C313.561 197.045 314.224 197.3 315.029 197.3C315.494 197.3 315.918 197.198 316.304 196.994C316.7 196.779 317.029 196.461 317.29 196.042L318.922 196.994C318.57 197.674 318.055 198.201 317.375 198.575C316.706 198.938 315.93 199.119 315.046 199.119Z" fill="#88A1AC"/>
<path d="M324.706 199.119C323.788 199.119 322.961 198.921 322.224 198.524C321.487 198.127 320.909 197.578 320.49 196.875C320.082 196.161 319.878 195.356 319.878 194.461C319.878 193.566 320.082 192.767 320.49 192.064C320.909 191.361 321.487 190.812 322.224 190.415C322.961 190.018 323.788 189.82 324.706 189.82C325.635 189.82 326.468 190.018 327.205 190.415C327.942 190.812 328.514 191.361 328.922 192.064C329.341 192.767 329.551 193.566 329.551 194.461C329.551 195.356 329.341 196.161 328.922 196.875C328.514 197.578 327.942 198.127 327.205 198.524C326.468 198.921 325.635 199.119 324.706 199.119ZM324.706 197.3C325.488 197.3 326.134 197.039 326.644 196.518C327.154 195.997 327.409 195.311 327.409 194.461C327.409 193.611 327.154 192.925 326.644 192.404C326.134 191.883 325.488 191.622 324.706 191.622C323.924 191.622 323.278 191.883 322.768 192.404C322.269 192.925 322.02 193.611 322.02 194.461C322.02 195.311 322.269 195.997 322.768 196.518C323.278 197.039 323.924 197.3 324.706 197.3Z" fill="#88A1AC"/>
<path d="M331.583 189.922H333.708V199H331.583V189.922ZM332.654 188.426C332.269 188.426 331.946 188.307 331.685 188.069C331.424 187.82 331.294 187.514 331.294 187.151C331.294 186.788 331.424 186.488 331.685 186.25C331.946 186.001 332.269 185.876 332.654 185.876C333.039 185.876 333.362 185.995 333.623 186.233C333.884 186.46 334.014 186.749 334.014 187.1C334.014 187.474 333.884 187.791 333.623 188.052C333.374 188.301 333.051 188.426 332.654 188.426Z" fill="#88A1AC"/>
<path d="M341.648 189.82C342.793 189.82 343.711 190.154 344.402 190.823C345.093 191.492 345.439 192.483 345.439 193.798V199H343.314V194.07C343.314 193.277 343.127 192.682 342.753 192.285C342.379 191.877 341.846 191.673 341.155 191.673C340.373 191.673 339.755 191.911 339.302 192.387C338.849 192.852 338.622 193.526 338.622 194.41V199H336.497V189.922H338.52V191.095C338.871 190.676 339.313 190.358 339.846 190.143C340.379 189.928 340.979 189.82 341.648 189.82Z" fill="#88A1AC"/>
<path d="M357.865 189.82C358.749 189.82 359.537 190.013 360.228 190.398C360.931 190.783 361.48 191.327 361.877 192.03C362.274 192.733 362.472 193.543 362.472 194.461C362.472 195.379 362.274 196.195 361.877 196.909C361.48 197.612 360.931 198.156 360.228 198.541C359.537 198.926 358.749 199.119 357.865 199.119C356.641 199.119 355.672 198.711 354.958 197.895V202.298H352.833V189.922H354.856V191.112C355.207 190.681 355.638 190.358 356.148 190.143C356.669 189.928 357.242 189.82 357.865 189.82ZM357.627 197.3C358.409 197.3 359.049 197.039 359.548 196.518C360.058 195.997 360.313 195.311 360.313 194.461C360.313 193.611 360.058 192.925 359.548 192.404C359.049 191.883 358.409 191.622 357.627 191.622C357.117 191.622 356.658 191.741 356.25 191.979C355.842 192.206 355.519 192.534 355.281 192.965C355.043 193.396 354.924 193.894 354.924 194.461C354.924 195.028 355.043 195.526 355.281 195.957C355.519 196.388 355.842 196.722 356.25 196.96C356.658 197.187 357.117 197.3 357.627 197.3Z" fill="#88A1AC"/>
<path d="M373.021 194.512C373.021 194.659 373.01 194.869 372.987 195.141H365.864C365.989 195.81 366.312 196.342 366.833 196.739C367.366 197.124 368.023 197.317 368.805 197.317C369.803 197.317 370.624 196.988 371.27 196.331L372.409 197.64C372.001 198.127 371.486 198.496 370.862 198.745C370.239 198.994 369.536 199.119 368.754 199.119C367.757 199.119 366.879 198.921 366.119 198.524C365.36 198.127 364.771 197.578 364.351 196.875C363.943 196.161 363.739 195.356 363.739 194.461C363.739 193.577 363.938 192.784 364.334 192.081C364.742 191.367 365.303 190.812 366.017 190.415C366.731 190.018 367.536 189.82 368.431 189.82C369.315 189.82 370.103 190.018 370.794 190.415C371.497 190.8 372.041 191.35 372.426 192.064C372.823 192.767 373.021 193.583 373.021 194.512ZM368.431 191.52C367.751 191.52 367.173 191.724 366.697 192.132C366.233 192.529 365.949 193.061 365.847 193.73H370.998C370.908 193.073 370.63 192.54 370.165 192.132C369.701 191.724 369.123 191.52 368.431 191.52Z" fill="#88A1AC"/>
<path d="M383.596 194.512C383.596 194.659 383.585 194.869 383.562 195.141H376.439C376.564 195.81 376.887 196.342 377.408 196.739C377.941 197.124 378.598 197.317 379.38 197.317C380.378 197.317 381.199 196.988 381.845 196.331L382.984 197.64C382.576 198.127 382.061 198.496 381.437 198.745C380.814 198.994 380.111 199.119 379.329 199.119C378.332 199.119 377.454 198.921 376.694 198.524C375.935 198.127 375.346 197.578 374.926 196.875C374.518 196.161 374.314 195.356 374.314 194.461C374.314 193.577 374.513 192.784 374.909 192.081C375.317 191.367 375.878 190.812 376.592 190.415C377.306 190.018 378.111 189.82 379.006 189.82C379.89 189.82 380.678 190.018 381.369 190.415C382.072 190.8 382.616 191.35 383.001 192.064C383.398 192.767 383.596 193.583 383.596 194.512ZM379.006 191.52C378.326 191.52 377.748 191.724 377.272 192.132C376.808 192.529 376.524 193.061 376.422 193.73H381.573C381.483 193.073 381.205 192.54 380.74 192.132C380.276 191.724 379.698 191.52 379.006 191.52Z" fill="#88A1AC"/>
<path d="M387.661 191.248C388.273 190.296 389.349 189.82 390.891 189.82V191.843C390.709 191.809 390.545 191.792 390.398 191.792C389.57 191.792 388.924 192.036 388.46 192.523C387.995 192.999 387.763 193.69 387.763 194.597V199H385.638V189.922H387.661V191.248Z" fill="#88A1AC"/>
<path d="M402.932 198.507C402.682 198.711 402.376 198.864 402.014 198.966C401.662 199.068 401.288 199.119 400.892 199.119C399.894 199.119 399.124 198.858 398.58 198.337C398.036 197.816 397.764 197.056 397.764 196.059V191.69H396.268V189.99H397.764V187.916H399.889V189.99H402.32V191.69H399.889V196.008C399.889 196.45 399.996 196.79 400.212 197.028C400.427 197.255 400.739 197.368 401.147 197.368C401.623 197.368 402.019 197.243 402.337 196.994L402.932 198.507Z" fill="#88A1AC"/>
<path d="M408.461 199.119C407.543 199.119 406.715 198.921 405.979 198.524C405.242 198.127 404.664 197.578 404.245 196.875C403.837 196.161 403.633 195.356 403.633 194.461C403.633 193.566 403.837 192.767 404.245 192.064C404.664 191.361 405.242 190.812 405.979 190.415C406.715 190.018 407.543 189.82 408.461 189.82C409.39 189.82 410.223 190.018 410.96 190.415C411.697 190.812 412.269 191.361 412.677 192.064C413.096 192.767 413.306 193.566 413.306 194.461C413.306 195.356 413.096 196.161 412.677 196.875C412.269 197.578 411.697 198.127 410.96 198.524C410.223 198.921 409.39 199.119 408.461 199.119ZM408.461 197.3C409.243 197.3 409.889 197.039 410.399 196.518C410.909 195.997 411.164 195.311 411.164 194.461C411.164 193.611 410.909 192.925 410.399 192.404C409.889 191.883 409.243 191.622 408.461 191.622C407.679 191.622 407.033 191.883 406.523 192.404C406.024 192.925 405.775 193.611 405.775 194.461C405.775 195.311 406.024 195.997 406.523 196.518C407.033 197.039 407.679 197.3 408.461 197.3Z" fill="#88A1AC"/>
<path d="M425.068 189.82C425.952 189.82 426.74 190.013 427.431 190.398C428.134 190.783 428.683 191.327 429.08 192.03C429.477 192.733 429.675 193.543 429.675 194.461C429.675 195.379 429.477 196.195 429.08 196.909C428.683 197.612 428.134 198.156 427.431 198.541C426.74 198.926 425.952 199.119 425.068 199.119C423.844 199.119 422.875 198.711 422.161 197.895V202.298H420.036V189.922H422.059V191.112C422.41 190.681 422.841 190.358 423.351 190.143C423.872 189.928 424.445 189.82 425.068 189.82ZM424.83 197.3C425.612 197.3 426.252 197.039 426.751 196.518C427.261 195.997 427.516 195.311 427.516 194.461C427.516 193.611 427.261 192.925 426.751 192.404C426.252 191.883 425.612 191.622 424.83 191.622C424.32 191.622 423.861 191.741 423.453 191.979C423.045 192.206 422.722 192.534 422.484 192.965C422.246 193.396 422.127 193.894 422.127 194.461C422.127 195.028 422.246 195.526 422.484 195.957C422.722 196.388 423.045 196.722 423.453 196.96C423.861 197.187 424.32 197.3 424.83 197.3Z" fill="#88A1AC"/>
<path d="M440.224 194.512C440.224 194.659 440.213 194.869 440.19 195.141H433.067C433.192 195.81 433.515 196.342 434.036 196.739C434.569 197.124 435.226 197.317 436.008 197.317C437.006 197.317 437.827 196.988 438.473 196.331L439.612 197.64C439.204 198.127 438.689 198.496 438.065 198.745C437.442 198.994 436.739 199.119 435.957 199.119C434.96 199.119 434.082 198.921 433.322 198.524C432.563 198.127 431.974 197.578 431.554 196.875C431.146 196.161 430.942 195.356 430.942 194.461C430.942 193.577 431.141 192.784 431.537 192.081C431.945 191.367 432.506 190.812 433.22 190.415C433.934 190.018 434.739 189.82 435.634 189.82C436.518 189.82 437.306 190.018 437.997 190.415C438.7 190.8 439.244 191.35 439.629 192.064C440.026 192.767 440.224 193.583 440.224 194.512ZM435.634 191.52C434.954 191.52 434.376 191.724 433.9 192.132C433.436 192.529 433.152 193.061 433.05 193.73H438.201C438.111 193.073 437.833 192.54 437.368 192.132C436.904 191.724 436.326 191.52 435.634 191.52Z" fill="#88A1AC"/>
<path d="M450.8 194.512C450.8 194.659 450.788 194.869 450.766 195.141H443.643C443.767 195.81 444.09 196.342 444.612 196.739C445.144 197.124 445.802 197.317 446.584 197.317C447.581 197.317 448.403 196.988 449.049 196.331L450.188 197.64C449.78 198.127 449.264 198.496 448.641 198.745C448.017 198.994 447.315 199.119 446.533 199.119C445.535 199.119 444.657 198.921 443.898 198.524C443.138 198.127 442.549 197.578 442.13 196.875C441.722 196.161 441.518 195.356 441.518 194.461C441.518 193.577 441.716 192.784 442.113 192.081C442.521 191.367 443.082 190.812 443.796 190.415C444.51 190.018 445.314 189.82 446.21 189.82C447.094 189.82 447.881 190.018 448.573 190.415C449.275 190.8 449.819 191.35 450.205 192.064C450.601 192.767 450.8 193.583 450.8 194.512ZM446.21 191.52C445.53 191.52 444.952 191.724 444.476 192.132C444.011 192.529 443.728 193.061 443.626 193.73H448.777C448.686 193.073 448.408 192.54 447.944 192.132C447.479 191.724 446.901 191.52 446.21 191.52Z" fill="#88A1AC"/>
<path d="M454.864 191.248C455.476 190.296 456.552 189.82 458.094 189.82V191.843C457.912 191.809 457.748 191.792 457.601 191.792C456.773 191.792 456.127 192.036 455.663 192.523C455.198 192.999 454.966 193.69 454.966 194.597V199H452.841V189.922H454.864V191.248Z" fill="#88A1AC"/>
<path d="M10.1835 215.922V225H8.1605V223.844C7.8205 224.252 7.3955 224.569 6.8855 224.796C6.3755 225.011 5.82583 225.119 5.2365 225.119C4.02383 225.119 3.06617 224.785 2.3635 224.116C1.67217 223.436 1.3265 222.433 1.3265 221.107V215.922H3.4515V220.818C3.4515 221.634 3.63283 222.246 3.9955 222.654C4.3695 223.051 4.8965 223.249 5.5765 223.249C6.33583 223.249 6.9365 223.017 7.3785 222.552C7.83183 222.076 8.0585 221.396 8.0585 220.512V215.922H10.1835Z" fill="#88A1AC"/>
<path d="M15.7708 225.119C15.0341 225.119 14.3145 225.023 13.6118 224.83C12.9091 224.637 12.3481 224.394 11.9288 224.099L12.7448 222.484C13.1528 222.756 13.6401 222.977 14.2068 223.147C14.7848 223.306 15.3515 223.385 15.9068 223.385C17.1761 223.385 17.8108 223.051 17.8108 222.382C17.8108 222.065 17.6465 221.844 17.3178 221.719C17.0005 221.594 16.4848 221.475 15.7708 221.362C15.0228 221.249 14.4108 221.118 13.9348 220.971C13.4701 220.824 13.0621 220.569 12.7108 220.206C12.3708 219.832 12.2008 219.316 12.2008 218.659C12.2008 217.798 12.5578 217.112 13.2718 216.602C13.9971 216.081 14.9718 215.82 16.1958 215.82C16.8191 215.82 17.4425 215.894 18.0658 216.041C18.6891 216.177 19.1991 216.364 19.5958 216.602L18.7798 218.217C18.0091 217.764 17.1421 217.537 16.1788 217.537C15.5555 217.537 15.0795 217.633 14.7508 217.826C14.4335 218.007 14.2748 218.251 14.2748 218.557C14.2748 218.897 14.4448 219.141 14.7848 219.288C15.1361 219.424 15.6745 219.554 16.3998 219.679C17.1251 219.792 17.7201 219.923 18.1848 220.07C18.6495 220.217 19.0461 220.467 19.3748 220.818C19.7148 221.169 19.8848 221.668 19.8848 222.314C19.8848 223.164 19.5165 223.844 18.7798 224.354C18.0431 224.864 17.0401 225.119 15.7708 225.119Z" fill="#88A1AC"/>
<path d="M21.7148 215.922H23.8398V225H21.7148V215.922ZM22.7858 214.426C22.4005 214.426 22.0775 214.307 21.8168 214.069C21.5561 213.82 21.4258 213.514 21.4258 213.151C21.4258 212.788 21.5561 212.488 21.8168 212.25C22.0775 212.001 22.4005 211.876 22.7858 211.876C23.1711 211.876 23.4941 211.995 23.7548 212.233C24.0155 212.46 24.1458 212.749 24.1458 213.1C24.1458 213.474 24.0155 213.791 23.7548 214.052C23.5055 214.301 23.1825 214.426 22.7858 214.426Z" fill="#88A1AC"/>
<path d="M31.7799 215.82C32.9245 215.82 33.8425 216.154 34.5339 216.823C35.2252 217.492 35.5709 218.483 35.5709 219.798V225H33.4459V220.07C33.4459 219.277 33.2589 218.682 32.8849 218.285C32.5109 217.877 31.9782 217.673 31.2869 217.673C30.5049 217.673 29.8872 217.911 29.4339 218.387C28.9805 218.852 28.7539 219.526 28.7539 220.41V225H26.6289V215.922H28.6519V217.095C29.0032 216.676 29.4452 216.358 29.9779 216.143C30.5105 215.928 31.1112 215.82 31.7799 215.82Z" fill="#88A1AC"/>
<path d="M47.3596 215.922V223.623C47.3596 226.819 45.7276 228.417 42.4636 228.417C41.5909 228.417 40.7636 228.304 39.9816 228.077C39.1996 227.862 38.5536 227.544 38.0436 227.125L38.9956 225.527C39.3922 225.856 39.8909 226.116 40.4916 226.309C41.1036 226.513 41.7212 226.615 42.3446 226.615C43.3419 226.615 44.0729 226.388 44.5376 225.935C45.0022 225.482 45.2346 224.79 45.2346 223.861V223.385C44.8719 223.782 44.4299 224.082 43.9086 224.286C43.3872 224.49 42.8149 224.592 42.1916 224.592C41.3302 224.592 40.5482 224.411 39.8456 224.048C39.1542 223.674 38.6046 223.153 38.1966 222.484C37.7999 221.815 37.6016 221.05 37.6016 220.189C37.6016 219.328 37.7999 218.568 38.1966 217.911C38.6046 217.242 39.1542 216.727 39.8456 216.364C40.5482 216.001 41.3302 215.82 42.1916 215.82C42.8489 215.82 43.4439 215.928 43.9766 216.143C44.5206 216.358 44.9739 216.687 45.3366 217.129V215.922H47.3596ZM42.5146 222.79C43.3192 222.79 43.9766 222.552 44.4866 222.076C45.0079 221.589 45.2686 220.96 45.2686 220.189C45.2686 219.43 45.0079 218.812 44.4866 218.336C43.9766 217.86 43.3192 217.622 42.5146 217.622C41.6986 217.622 41.0299 217.86 40.5086 218.336C39.9986 218.812 39.7436 219.43 39.7436 220.189C39.7436 220.96 39.9986 221.589 40.5086 222.076C41.0299 222.552 41.6986 222.79 42.5146 222.79Z" fill="#88A1AC"/>
<path d="M60.1725 225.17C58.5292 225.17 57.2485 224.711 56.3305 223.793C55.4125 222.864 54.9535 221.538 54.9535 219.815V213.1H57.1635V219.73C57.1635 222.065 58.1722 223.232 60.1895 223.232C62.1955 223.232 63.1985 222.065 63.1985 219.73V213.1H65.3745V219.815C65.3745 221.538 64.9155 222.864 63.9975 223.793C63.0909 224.711 61.8159 225.17 60.1725 225.17Z" fill="#88A1AC"/>
<path d="M73.3656 213.1C74.3969 213.1 75.2923 213.27 76.0516 213.61C76.8223 213.95 77.4116 214.437 77.8196 215.072C78.2276 215.707 78.4316 216.46 78.4316 217.333C78.4316 218.194 78.2276 218.948 77.8196 219.594C77.4116 220.229 76.8223 220.716 76.0516 221.056C75.2923 221.396 74.3969 221.566 73.3656 221.566H70.6796V225H68.4696V213.1H73.3656ZM73.2636 219.696C74.2269 219.696 74.9579 219.492 75.4566 219.084C75.9553 218.676 76.2046 218.092 76.2046 217.333C76.2046 216.574 75.9553 215.99 75.4566 215.582C74.9579 215.174 74.2269 214.97 73.2636 214.97H70.6796V219.696H73.2636Z" fill="#88A1AC"/>
<path d="M80.6385 213.1H82.8485V225H80.6385V213.1Z" fill="#88A1AC"/>
<path d="M86.5433 225.119C86.1579 225.119 85.8293 224.989 85.5573 224.728C85.2853 224.456 85.1493 224.116 85.1493 223.708C85.1493 223.289 85.2796 222.949 85.5403 222.688C85.8123 222.427 86.1466 222.297 86.5433 222.297C86.9399 222.297 87.2686 222.427 87.5293 222.688C87.8013 222.949 87.9372 223.289 87.9372 223.708C87.9372 224.116 87.8013 224.456 87.5293 224.728C87.2573 224.989 86.9286 225.119 86.5433 225.119Z" fill="#88A1AC"/>
</g>
<path d="M25.0566 70.4889C26.1446 69.2089 26.8166 67.7369 26.8166 66.2969C26.8166 62.9049 25.2486 60.6009 20.1606 60.6009H0.640625V83.0009H21.1206C26.2086 83.0009 28.4166 80.0569 28.4166 76.3769C28.4166 73.9449 27.0086 71.8969 25.0566 70.4889ZM8.96062 66.0409H16.6406C17.4726 66.0409 18.4966 66.0409 18.4966 67.2569C18.4966 68.4729 17.4726 68.4729 16.6406 68.4729H8.96062V66.0409ZM18.2406 76.9209H8.96062V74.5529H18.2406C19.0726 74.5529 20.0966 74.5529 20.0966 75.7369C20.0966 76.9209 19.0726 76.9209 18.2406 76.9209Z" fill="#88A1AC"/>
<path d="M47.5741 63.8009V74.1689C46.0701 75.6089 43.6701 76.6009 41.3981 76.6009C37.9421 76.6009 36.7581 75.1929 36.7581 71.8969V63.8009H29.0781V75.0329C29.0781 81.9769 33.9741 83.3209 38.2941 83.3209C42.3261 83.3209 45.2701 82.0409 47.5741 80.4409V83.0009H55.2541V63.8009H47.5741Z" fill="#88A1AC"/>
<path d="M75.1464 63.8009L69.8024 77.1449L64.2344 63.8009H55.9144L63.9144 83.0009H67.4344L64.2344 91.0009H72.5544L83.4664 63.8009H75.1464Z" fill="#88A1AC"/>
<path d="M100.742 59.9609H92.7419L84.4219 87.8009H92.4219L100.742 59.9609Z" fill="#88A1AC"/>
<path d="M101.696 75.0969C101.696 81.7529 106.816 83.3209 116 83.3209C125.184 83.3209 130.304 81.7529 130.304 75.5769C130.304 69.7209 124.832 69.1129 116 68.7609C111.136 68.5689 110.336 68.6009 110.336 67.7369C110.336 66.8729 111.136 66.6809 115.04 66.6809C119.104 66.6809 121.024 66.9369 121.024 68.1209H129.344C129.344 62.3929 124.416 60.2809 115.68 60.2809C106.848 60.2809 102.016 62.3929 102.016 67.3209C102.016 72.5369 105.888 74.2009 116 74.5209C121.248 74.6809 121.984 74.8089 121.984 75.7689C121.984 76.6009 121.248 76.9209 116.32 76.9209C111.04 76.9209 110.016 76.1849 110.016 75.0969H101.696Z" fill="#88A1AC"/>
<path d="M143.682 77.2409C141.57 77.2409 139.426 76.7289 138.786 74.6809H156.994C156.994 66.2969 151.906 63.4809 144.002 63.4809C136.162 63.4809 130.946 66.2969 130.946 73.4009C130.946 80.5049 136.162 83.3209 143.682 83.3209C151.586 83.3209 155.714 80.8889 156.674 75.8009H149.154C147.586 77.0489 146.466 77.2409 143.682 77.2409ZM143.97 68.9209C146.018 68.9209 147.938 69.1129 148.802 70.8409H139.138C140.002 69.1129 141.922 68.9209 143.97 68.9209Z" fill="#88A1AC"/>
<path d="M157.953 57.4009V83.0009H165.633V57.4009H157.953Z" fill="#88A1AC"/>
<path d="M166.922 57.4009V83.0009H174.602V57.4009H166.922Z" fill="#88A1AC"/>
<path d="M213.119 70.4889C214.207 69.2089 214.879 67.7369 214.879 66.2969C214.879 62.9049 213.311 60.6009 208.223 60.6009H188.703V83.0009H209.183C214.271 83.0009 216.479 80.0569 216.479 76.3769C216.479 73.9449 215.071 71.8969 213.119 70.4889ZM197.023 66.0409H204.703C205.535 66.0409 206.559 66.0409 206.559 67.2569C206.559 68.4729 205.535 68.4729 204.703 68.4729H197.023V66.0409ZM206.303 76.9209H197.023V74.5529H206.303C207.135 74.5529 208.159 74.5529 208.159 75.7369C208.159 76.9209 207.135 76.9209 206.303 76.9209Z" fill="#88A1AC"/>
<path d="M243.372 60.6009H215.852V67.6409H225.452V83.0009H233.772V67.6409H243.372V60.6009Z" fill="#88A1AC"/>
<path d="M243.696 71.7689C243.696 79.5769 247.92 83.3209 257.776 83.3209C266.768 83.3209 271.408 80.1529 271.76 73.0489H263.248C262.928 75.1929 261.296 76.2809 257.776 76.2809C252.88 76.2809 252.016 74.1689 252.016 71.7689C252.016 69.4009 252.848 67.3209 257.776 67.3209C261.296 67.3209 262.928 68.3769 263.248 70.4889H271.76C271.408 63.4169 266.736 60.2809 257.776 60.2809C247.92 60.2809 243.696 63.9929 243.696 71.7689Z" fill="#88A1AC"/>
<path d="M0.640625 95.4009V100.521H8.32063V95.4009H0.640625ZM0.640625 101.801V121.001H8.32063V101.801H0.640625Z" fill="#88A1AC"/>
<path d="M26.5694 101.481C22.5374 101.481 19.5934 102.761 17.2894 104.361V101.801H9.60938V121.001H17.2894V110.633C18.7934 109.193 21.1934 108.201 23.4654 108.201C26.9214 108.201 28.1054 109.609 28.1054 112.905V121.001H35.7854V109.769C35.7854 102.825 30.8894 101.481 26.5694 101.481Z" fill="#88A1AC"/>
<path d="M58.2106 98.6009H49.8906V121.001H58.2106V98.6009Z" fill="#88A1AC"/>
<path d="M76.4444 101.481C72.4124 101.481 69.4684 102.761 67.1644 104.361V101.801H59.4844V121.001H67.1644V110.633C68.6684 109.193 71.0684 108.201 73.3404 108.201C76.7964 108.201 77.9804 109.609 77.9804 112.905V121.001H85.6604V109.769C85.6604 102.825 80.7644 101.481 76.4444 101.481Z" fill="#88A1AC"/>
<path d="M104.753 95.4009V104.425C102.737 102.377 99.7926 101.481 96.8166 101.481C91.8566 101.481 86.3206 103.657 86.3206 111.401C86.3206 119.145 91.8566 121.321 96.8166 121.321C99.7926 121.321 102.737 120.425 104.753 118.377V121.001H112.433V95.4009H104.753ZM99.3766 114.921C95.9526 114.921 94.0006 114.217 94.0006 111.401C94.0006 108.585 95.9526 107.881 99.3766 107.881C102.801 107.881 104.753 108.585 104.753 111.401C104.753 114.217 102.801 114.921 99.3766 114.921Z" fill="#88A1AC"/>
<path d="M113.703 95.4009V100.521H121.383V95.4009H113.703ZM113.703 101.801V121.001H121.383V101.801H113.703Z" fill="#88A1AC"/>
<path d="M135.472 101.481C131.92 101.481 127.76 102.185 123.92 103.433L126.416 108.873C129.936 108.105 132.752 107.881 135.216 107.881C137.776 107.881 140.208 107.977 140.208 110.281C138.448 109.641 136.4 109.289 133.712 109.289C128.112 109.289 122.352 110.601 122.352 115.593C122.352 119.753 126.192 121.321 130.576 121.321C133.904 121.321 137.232 120.841 140.208 118.665V121.001H147.888V111.497C147.824 104.169 143.344 101.481 135.472 101.481ZM140.208 114.729C138.288 115.561 135.472 116.201 132.88 116.201C130.928 116.201 130.032 116.041 130.032 114.985C130.032 113.769 131.568 113.449 135.12 113.449C137.328 113.449 138.992 113.609 140.208 113.929V114.729Z" fill="#88A1AC"/>
<path d="M180.48 101.801V112.169C178.976 113.609 176.576 114.601 174.304 114.601C170.848 114.601 169.664 113.193 169.664 109.897V101.801H161.984V113.033C161.984 119.977 166.88 121.321 171.2 121.321C175.232 121.321 178.176 120.041 180.48 118.441V121.001H188.16V101.801H180.48Z" fill="#88A1AC"/>
<path d="M189.133 114.377C189.133 120.393 195.533 121.321 202.797 121.321C210.061 121.321 215.181 120.393 215.181 114.537C215.181 109.513 210.349 109.065 202.797 108.681C197.933 108.425 197.133 108.457 197.133 107.657C197.133 106.921 198.253 106.921 202.157 106.921C205.581 106.921 206.861 106.921 206.861 107.945H214.541C214.541 102.409 209.581 101.481 202.477 101.481C195.373 101.481 189.453 102.409 189.453 107.881C189.453 112.777 193.325 113.449 202.157 113.801C206.765 113.993 207.501 113.897 207.501 114.857C207.501 115.689 206.765 115.881 202.477 115.881C197.837 115.881 196.813 115.465 196.813 114.377H189.133Z" fill="#88A1AC"/>
<path d="M216.141 95.4009V100.521H223.821V95.4009H216.141ZM216.141 101.801V121.001H223.821V101.801H216.141Z" fill="#88A1AC"/>
<path d="M242.069 101.481C238.037 101.481 235.093 102.761 232.789 104.361V101.801H225.109V121.001H232.789V110.633C234.293 109.193 236.693 108.201 238.965 108.201C242.421 108.201 243.605 109.609 243.605 112.905V121.001H251.285V109.769C251.285 102.825 246.389 101.481 242.069 101.481Z" fill="#88A1AC"/>
<path d="M270.69 101.801V104.681C269.026 102.665 266.306 101.481 262.434 101.481C256.514 101.481 252.258 104.297 252.258 110.761C252.258 117.225 256.514 120.041 262.434 120.041C266.306 120.041 269.026 118.857 270.69 116.841C270.626 121.705 268.61 122.601 264.866 122.601C260.706 122.601 256.482 121.673 254.274 121.257V127.497C256.098 127.977 260.802 129.001 266.274 129.001C272.866 129.001 278.37 126.217 278.37 118.537V101.801H270.69ZM265.314 113.641C261.25 113.641 259.938 112.937 259.938 110.761C259.938 108.585 261.25 107.881 265.314 107.881C269.378 107.881 270.69 108.585 270.69 110.761C270.69 112.937 269.378 113.641 265.314 113.641Z" fill="#88A1AC"/>
<path d="M320.613 109.769V98.6009H312.293V109.769C312.293 112.137 311.429 114.281 306.533 114.281C301.637 114.281 300.773 112.169 300.773 109.769V98.6009H292.453V109.769C292.453 117.577 296.677 121.321 306.533 121.321C316.357 121.321 320.613 117.545 320.613 109.769Z" fill="#88A1AC"/>
<path d="M339.491 98.6009H321.891V121.001H330.211V115.753H339.491C344.579 115.753 348.067 112.169 348.067 107.177C348.067 102.185 344.579 98.6009 339.491 98.6009ZM337.891 108.713H330.211V105.641H337.891C338.723 105.641 339.747 105.641 339.747 107.177C339.747 108.713 338.723 108.713 337.891 108.713Z" fill="#88A1AC"/>
<path d="M357.336 98.6009H349.016V121.001H357.336V98.6009Z" fill="#88A1AC"/>
<path d="M1.46289 5.11719H4.11489V17.0002H1.46289V5.11719Z" fill="#21728D"/>
<path d="M9.25301 11.9002V17.0002H6.70301V7.85419H9.25301V8.87419C10.0237 8.09219 10.8907 7.70119 11.854 7.70119C12.8173 7.70119 13.622 8.04119 14.268 8.72119C14.9253 9.40119 15.254 10.3079 15.254 11.4412V17.0002H12.704V11.8322C12.704 10.4269 12.1883 9.72419 11.157 9.72419C10.647 9.72419 10.1993 9.91119 9.81401 10.2852C9.44001 10.6479 9.25301 11.1862 9.25301 11.9002Z" fill="#21728D"/>
<path d="M19.876 17.0002L16.255 7.83719H18.907L21.185 13.6002L23.463 7.83719H26.115L22.494 17.0002H19.876Z" fill="#21728D"/>
<path d="M35.294 15.6742C34.2626 16.6489 33.05 17.1362 31.656 17.1362C30.2733 17.1362 29.1286 16.7112 28.222 15.8612C27.3153 14.9999 26.862 13.8495 26.862 12.4102C26.862 10.9709 27.321 9.82619 28.239 8.97619C29.1683 8.12619 30.262 7.70119 31.52 7.70119C32.778 7.70119 33.8433 8.08085 34.716 8.84019C35.6 9.59952 36.042 10.6422 36.042 11.9682V13.3282H29.378C29.4573 13.8269 29.718 14.2349 30.16 14.5522C30.602 14.8695 31.1006 15.0282 31.656 15.0282C32.5513 15.0282 33.288 14.7279 33.866 14.1272L35.294 15.6742ZM33.458 11.5092C33.4013 10.9652 33.1973 10.5459 32.846 10.2512C32.4946 9.95652 32.064 9.80919 31.554 9.80919C31.0553 9.80919 30.5963 9.96219 30.177 10.2682C29.7576 10.5742 29.514 10.9879 29.446 11.5092H33.458Z" fill="#21728D"/>
<path d="M44.7657 14.1612C44.7657 15.0565 44.4314 15.7762 43.7627 16.3202C43.1054 16.8642 42.2667 17.1362 41.2467 17.1362C40.5667 17.1362 39.8584 17.0172 39.1217 16.7792C38.3851 16.5299 37.7221 16.1672 37.1327 15.6912L38.2547 14.0932C39.2067 14.8299 40.2211 15.1982 41.2977 15.1982C41.6264 15.1982 41.8871 15.1359 42.0797 15.0112C42.2724 14.8752 42.3687 14.6995 42.3687 14.4842C42.3687 14.2689 42.2327 14.0705 41.9607 13.8892C41.7001 13.7079 41.3147 13.5379 40.8047 13.3792C40.3061 13.2205 39.9207 13.0845 39.6487 12.9712C39.3881 12.8579 39.0877 12.6935 38.7477 12.4782C38.0564 12.0475 37.7107 11.4129 37.7107 10.5742C37.7107 9.72419 38.0507 9.03286 38.7307 8.50019C39.4107 7.96752 40.2891 7.70119 41.3657 7.70119C42.4424 7.70119 43.5191 8.06385 44.5957 8.78919L43.6437 10.4892C42.8504 9.94519 42.0571 9.67319 41.2637 9.67319C40.4817 9.67319 40.0907 9.88852 40.0907 10.3192C40.0907 10.5572 40.2154 10.7442 40.4647 10.8802C40.7141 11.0162 41.1277 11.1749 41.7057 11.3562C42.2837 11.5375 42.6917 11.6792 42.9297 11.7812C43.1791 11.8719 43.4737 12.0192 43.8137 12.2232C44.4484 12.6085 44.7657 13.2545 44.7657 14.1612Z" fill="#21728D"/>
<path d="M49.6894 9.69019V13.7872C49.6894 14.1385 49.78 14.4162 49.9614 14.6202C50.1427 14.8129 50.358 14.9092 50.6074 14.9092C51.0834 14.9092 51.4857 14.6939 51.8144 14.2632L52.7664 16.0482C51.973 16.7735 51.1344 17.1362 50.2504 17.1362C49.3777 17.1362 48.6354 16.8472 48.0234 16.2692C47.4227 15.6912 47.1224 14.9035 47.1224 13.9062V9.69019H46.0514V7.85419H47.1224V5.11719H49.6894V7.85419H51.8994V9.69019H49.6894Z" fill="#21728D"/>
</svg>
