<svg width="476" height="224" viewBox="0 0 476 224" fill="none" xmlns="http://www.w3.org/2000/svg">
<path fill-rule="evenodd" clip-rule="evenodd" d="M395.364 135.033C395.256 135.142 395.107 135.157 395.033 135.068C394.959 134.977 395.047 134.889 395.228 134.869C395.43 134.851 395.482 134.914 395.364 135.033ZM393.613 135.131C393.52 135.147 393.372 135.033 393.286 134.878C393.199 134.723 393.203 134.582 393.297 134.566C393.391 134.549 393.539 134.663 393.626 134.818C393.713 134.973 393.707 135.114 393.613 135.131ZM386.348 134.552C385.923 134.626 385.615 134.203 385.839 133.852C385.924 133.721 386.155 133.808 386.352 134.048C386.686 134.454 386.685 134.492 386.348 134.552ZM383.048 128.292C382.59 128.394 382.437 128.275 382.642 127.978C382.699 127.894 382.918 127.907 383.129 128.007C383.463 128.165 383.453 128.201 383.048 128.292ZM381.619 128.635C380.928 128.872 379.812 128.736 380.23 128.465C380.591 128.231 382.337 127.991 382.368 128.169C382.388 128.278 382.05 128.487 381.619 128.635ZM372.466 138.849C371.935 138.949 371.429 138.903 371.342 138.748C371.255 138.593 371.245 138.447 371.318 138.424C371.392 138.4 371.722 138.282 372.051 138.157C372.404 138.025 372.811 138.084 373.041 138.302C373.393 138.631 373.335 138.688 372.466 138.849ZM365.406 136.101C365.292 136.424 364.012 136.689 360.107 137.199C359.683 137.254 359.156 137.173 358.936 137.02C358.716 136.864 357.881 136.829 357.08 136.939C355.156 137.203 354.798 137.21 354.517 136.984C354.387 136.88 354.173 136.899 354.042 137.024C353.885 137.178 353.775 137.092 353.719 136.773C353.672 136.507 353.518 136.31 353.378 136.335C353.238 136.36 353.096 136.228 353.063 136.042C353.021 135.806 353.264 135.724 353.849 135.773C354.664 135.843 356.25 135.573 358.123 135.049C358.688 134.892 359.241 134.935 359.628 135.171C359.964 135.377 360.866 135.496 361.631 135.436C362.396 135.378 363.134 135.441 363.27 135.575C363.521 135.822 364.096 135.895 365.025 135.797C365.391 135.756 365.498 135.842 365.406 136.101ZM347.956 124.459C347.676 124.992 346.846 125.236 346.63 124.849C346.553 124.711 345.937 124.68 345.263 124.781C344.588 124.88 343.991 124.907 343.936 124.839C343.823 124.702 344.632 124.086 344.907 124.1C345.005 124.105 345.787 124.08 346.646 124.045C348.037 123.991 348.179 124.035 347.956 124.459ZM335.677 126.705C334.997 126.816 334.42 126.786 334.393 126.635C334.367 126.485 334.521 126.33 334.736 126.293C334.951 126.255 335.178 126.077 335.242 125.9C335.41 125.425 338.238 124.569 338.309 124.972C338.408 125.536 336.954 126.493 335.677 126.705ZM333.675 125.546C333.506 125.818 333.526 125.977 333.788 126.444C334.182 127.144 334.009 127.281 332.018 127.836C331.258 128.047 330.629 128.166 330.617 128.1C330.58 127.892 331.522 126.942 332.296 126.405C332.706 126.119 333.062 125.762 333.087 125.611C333.112 125.458 333.3 125.307 333.506 125.274C333.808 125.224 333.84 125.278 333.675 125.546ZM346.041 117.178C346.264 117.146 346.267 117.208 346.058 117.514C345.918 117.72 345.761 117.836 345.709 117.773C345.551 117.581 345.753 117.22 346.041 117.178ZM346.754 116.733C346.914 116.705 346.939 116.415 346.826 115.898C346.685 115.253 346.74 115.044 347.119 114.763C347.728 114.316 348.098 114.491 348.119 115.241C348.131 115.67 348.238 115.845 348.502 115.866C348.705 115.882 348.925 116.043 348.992 116.222C349.153 116.652 348.608 117.017 347.508 117.216C347.017 117.306 346.592 117.244 346.563 117.078C346.534 116.912 346.619 116.757 346.754 116.733ZM352.146 117.411C352.52 117.348 352.665 117.387 352.466 117.496C352.267 117.605 351.96 117.656 351.784 117.61C351.608 117.563 351.771 117.475 352.146 117.411ZM354.292 117.398L355.495 117.506L354.654 117.936C354.032 118.253 353.727 118.276 353.487 118.032C352.897 117.427 353.075 117.285 354.292 117.398ZM356.448 117.219C356.911 117.124 357.457 116.755 357.746 116.344C358.301 115.559 358.806 115.362 359.068 115.829C359.173 116.016 359.456 116.02 359.783 115.845C360.331 115.549 360.52 115.763 360.288 116.421C360.196 116.679 360.226 116.83 360.394 116.959C360.535 117.069 360.621 116.882 360.611 116.491C360.597 115.972 360.725 115.819 361.253 115.726C361.991 115.595 362.18 115.973 361.696 116.616C361.52 116.848 361.353 117.17 361.323 117.329C361.294 117.491 360.97 117.669 360.604 117.726C360.237 117.783 359.228 117.948 358.362 118.091C357.494 118.234 356.764 118.234 356.738 118.088C356.713 117.943 356.457 117.725 356.171 117.604C355.69 117.402 355.711 117.372 356.448 117.219ZM362.36 115.74C362.742 115.369 363.778 115.234 363.834 115.549C363.86 115.696 363.628 115.915 363.319 116.039L363.32 116.039C363.012 116.161 362.61 116.202 362.428 116.129C362.112 116.004 362.109 115.985 362.36 115.74ZM364.847 117.56C365.4 117.13 365.613 117.113 366.351 117.443C367.605 118 367.646 118.319 366.493 118.522C365.936 118.621 365.194 118.556 364.842 118.381L364.203 118.061L364.847 117.56ZM409.23 140.194C409.082 140.134 408.737 139.796 408.464 139.441C408.191 139.089 407.86 138.81 407.729 138.822C407.597 138.835 407.088 138.582 406.597 138.26C406.106 137.937 405.465 137.555 405.173 137.411C404.88 137.267 404.633 136.983 404.623 136.78C404.613 136.578 404.235 136.01 403.781 135.521C402.824 134.487 402.834 133.802 403.796 134.484C404.261 134.813 404.484 134.835 404.651 134.567C404.991 134.024 404.734 133.703 403.97 133.716C403.593 133.723 403.146 133.585 402.977 133.411C402.532 132.953 402.232 132.931 400.627 133.223C399.835 133.368 399.09 133.395 398.971 133.281C398.852 133.167 398.255 133.146 397.643 133.233C397.007 133.322 396.211 133.218 395.786 132.989C395.107 132.623 395.062 132.547 395.274 132.145C395.657 131.416 395.26 131.304 394.358 131.891C393.109 132.699 391.731 132.318 391.483 131.09C391.459 130.968 392.222 130.764 393.179 130.637C394.369 130.479 394.922 130.292 394.926 130.048C394.929 129.852 394.835 129.728 394.717 129.769C394.02 130.021 392.012 129.712 391.76 129.315C391.514 128.929 391.444 128.931 391.263 129.333C391.014 129.887 388.367 130.57 387.749 130.242C387.414 130.065 387.444 130.027 387.915 130.033C388.229 130.036 388.466 129.925 388.442 129.79C388.418 129.654 388.69 129.2 389.044 128.781C389.827 127.857 390.066 127.163 389.664 126.984C389.513 126.916 389.204 127.038 388.979 127.256C388.418 127.793 387.288 127.96 387.125 127.529C387.037 127.297 386.571 127.246 385.77 127.38C385.097 127.492 384.531 127.498 384.513 127.392C384.463 127.118 383.493 127.012 381.469 127.057C380.5 127.078 379.574 126.958 379.411 126.792C379.248 126.623 378.676 126.484 378.141 126.481C377.606 126.478 377.186 126.362 377.209 126.222C377.287 125.742 376.773 125.604 375.404 125.735C374.649 125.808 373.957 125.811 373.868 125.741C373.777 125.673 372.631 125.72 371.318 125.847C368.343 126.136 367.527 126.059 367.425 125.48C367.367 125.153 367.558 124.997 368.15 124.887C369.192 124.691 369.554 123.899 368.557 123.992C366.123 124.222 365.879 124.29 366.042 124.686C366.163 124.983 366.041 125.103 365.565 125.159C364.929 125.235 363.667 125.017 363.999 124.888C364.094 124.852 364.286 124.595 364.424 124.319C364.652 123.864 364.522 123.845 363.063 124.116C362.176 124.283 361.325 124.382 361.173 124.338C359.958 123.99 359.514 124.038 359.401 124.533C359.297 124.978 359.066 125.047 357.702 125.04C356.833 125.038 355.638 124.977 355.047 124.908C354.456 124.838 353.164 124.897 352.176 125.039C350.415 125.292 349.643 125.1 348.928 124.234C348.503 123.718 348.738 123.527 349.972 123.383C351.12 123.251 351.999 122.583 352.029 121.82C352.053 121.209 351.284 121.372 351.052 122.028C350.91 122.431 350.631 122.532 349.682 122.533C349.027 122.533 348.11 122.617 347.647 122.722C346.91 122.884 346.831 122.85 347.029 122.455C347.154 122.204 347.243 121.929 347.228 121.842C347.213 121.756 346.564 121.87 345.786 122.097C344.447 122.486 344.347 122.475 343.902 121.852C343.479 121.262 343.418 121.248 343.303 121.712C343.203 122.118 342.896 122.265 341.888 122.388C340.016 122.614 339.219 122.443 339.202 121.808C339.19 121.392 339.069 121.318 338.578 121.427C338.244 121.501 337.907 121.655 337.832 121.77C337.755 121.884 337.468 122.113 337.193 122.277C336.639 122.606 336.199 122.176 336.72 121.814C337.158 121.509 336.882 121.079 336.169 120.96C335.816 120.902 335.633 120.746 335.701 120.562C335.763 120.391 336.142 120.307 336.567 120.369C337.044 120.437 337.367 120.348 337.445 120.128C337.532 119.883 337.752 119.853 338.183 120.03C338.884 120.315 341.817 119.876 343.523 119.23C344.645 118.806 345.414 118.905 345.812 119.528C345.928 119.711 346.022 119.644 346.076 119.347C346.148 118.938 346.461 118.892 348.571 118.966C351.02 119.054 351.398 119.159 351.077 119.664C350.947 119.869 351.016 119.978 351.328 120.061C351.564 120.124 351.759 120.039 351.763 119.871C351.765 119.702 351.849 119.628 351.949 119.706C352.349 120.011 355.795 119.507 355.972 119.113C356.111 118.804 356.167 118.823 356.235 119.208C356.282 119.477 356.387 119.685 356.469 119.67C356.55 119.656 357.327 119.733 358.195 119.843C359.064 119.951 360.36 119.912 361.077 119.758C361.794 119.605 362.459 119.537 362.555 119.607C362.651 119.678 364.118 119.807 365.817 119.893C368.152 120.01 369.006 119.949 369.325 119.646C369.635 119.348 369.762 119.335 369.808 119.591C369.955 120.421 373.904 120.63 374.19 119.823C374.31 119.484 373.871 119.082 373.458 119.154C373.214 119.197 372.756 119.148 372.442 119.046C370.584 118.435 370.1 118.363 369.016 118.549C367.935 118.734 367.802 118.693 367.657 118.141C367.406 117.18 368.096 116.539 368.872 117.013C369.417 117.345 369.507 117.327 369.808 116.824C370.015 116.476 370.332 116.299 370.653 116.353C370.935 116.4 371.188 116.307 371.214 116.146C371.284 115.725 370.693 115.416 369.671 115.337C369.182 115.3 368.705 115.211 368.613 115.141C368.265 114.875 366.837 115.128 366.498 115.517C366.207 115.85 366.099 115.834 365.891 115.436C365.712 115.095 365.524 115.027 365.254 115.208C365.02 115.367 364.847 115.337 364.811 115.133C364.779 114.951 364.5 114.845 364.191 114.899C363.883 114.954 363.533 114.88 363.414 114.736C363.294 114.591 362.268 114.563 361.131 114.672C359.995 114.782 358.582 114.819 357.992 114.754C356.48 114.587 355.579 114.794 355.285 115.375C354.903 116.129 354.11 116.188 353.874 115.478C353.68 114.898 353.266 114.743 353.187 115.222C353.165 115.36 352.927 115.493 352.659 115.518C352.391 115.544 351.881 115.595 351.526 115.63C351.094 115.676 350.855 115.555 350.804 115.268C350.744 114.927 350.53 114.905 349.777 115.162L348.826 115.487L349.13 114.833C349.446 114.152 349.256 113.395 348.867 113.775C348.745 113.893 348.499 113.84 348.322 113.658C348.144 113.477 347.968 113.409 347.933 113.511C347.897 113.613 347.6 113.561 347.273 113.399C346.873 113.199 346.526 113.215 346.21 113.453C345.894 113.692 345.682 113.701 345.561 113.485C345.439 113.266 345.19 113.282 344.773 113.538C344.438 113.743 343.265 114.079 342.168 114.282C340.202 114.651 340.171 114.646 340.052 113.971C339.911 113.172 339.472 113.124 339.369 113.895C339.281 114.563 338.811 114.226 338.79 113.479C338.772 112.83 338.525 112.738 336.858 112.762C335.461 112.782 331.591 113.431 330.469 113.832C330.016 113.996 328.972 114.345 328.151 114.609C327.258 114.896 326.576 115.28 326.456 115.562C326.322 115.875 325.673 116.185 324.521 116.485C323.568 116.731 322.736 117.08 322.672 117.263C322.608 117.443 322.265 117.641 321.909 117.704C321.448 117.785 321.286 117.949 321.343 118.271C321.423 118.724 321.269 118.866 320.702 118.864C320.533 118.863 320.425 119.032 320.461 119.24C320.499 119.456 320.389 119.398 320.203 119.106C319.892 118.619 319.818 118.629 318.533 119.336C317.793 119.742 317.069 120.069 316.924 120.064C316.551 120.049 315.543 120.652 314.478 121.529C313.98 121.938 313.37 122.311 313.124 122.355C312.878 122.398 312.613 122.611 312.536 122.83C312.458 123.048 312.375 123.114 312.351 122.978C312.327 122.843 312.211 122.941 312.093 123.195C311.946 123.51 311.897 123.532 311.939 123.26C311.982 122.984 311.868 122.885 311.565 122.938C311.305 122.984 311.16 123.185 311.204 123.436C311.323 124.112 310.505 124.684 310.034 124.257C309.425 123.703 309.18 123.888 309.338 124.785L309.48 125.593L309.017 124.996C308.412 124.217 308.099 124.3 307.919 125.29C307.837 125.733 307.603 126.207 307.399 126.345C306.973 126.632 307.013 127.204 307.501 127.795C307.685 128.02 307.871 128.406 307.915 128.654C307.959 128.902 308.169 129.167 308.382 129.242C308.596 129.317 308.747 129.443 308.718 129.526C308.651 129.715 307.655 129.169 307.611 128.918C307.577 128.728 306.516 129.025 306.148 129.33C305.928 129.51 306.026 130.306 306.294 130.511C306.393 130.588 306.592 131.014 306.738 131.46C306.883 131.904 307.252 132.651 307.559 133.118C307.866 133.585 308.199 134.279 308.3 134.661C308.478 135.337 308.741 135.62 309.402 135.842C309.652 135.928 309.786 136.282 309.978 137.371C310.294 139.167 311.364 142.49 311.829 143.119C312.023 143.383 312.406 143.559 312.678 143.511C313.261 143.409 313.915 143.788 314.001 144.277C314.035 144.467 313.956 144.951 313.826 145.351L313.589 146.082L314.202 147.24C314.541 147.878 314.932 148.384 315.074 148.366C315.518 148.309 316.121 149.032 316.099 149.597C316.072 150.297 316.519 150.893 317.006 150.807C317.223 150.769 317.468 150.859 317.551 151.006C317.714 151.297 318.641 150.992 319.379 150.403C319.633 150.201 320.267 149.888 320.789 149.705C321.75 149.367 322.262 148.773 322.776 147.401C322.932 146.983 323.145 146.623 323.249 146.605C323.354 146.586 323.63 146.313 323.864 146C324.125 145.649 324.841 145.287 325.716 145.063C326.501 144.862 327.692 144.459 328.364 144.168C329.036 143.877 330.841 143.201 332.375 142.665C334.981 141.754 335.189 141.721 335.573 142.145C335.946 142.56 336.197 142.532 338.407 141.825C339.74 141.397 340.897 140.912 340.978 140.747C341.238 140.214 341.885 139.927 342.169 140.218C342.329 140.381 342.701 140.373 343.052 140.198C343.385 140.031 344.163 139.675 344.778 139.41C345.393 139.142 345.924 138.847 345.957 138.754C345.99 138.66 346.225 138.891 346.478 139.267C346.992 140.029 347.749 140.059 348.233 139.335C348.468 138.984 348.555 138.968 348.671 139.258C348.749 139.457 348.922 139.601 349.055 139.578C349.187 139.554 349.246 139.369 349.186 139.167C349.105 138.89 349.465 138.744 350.617 138.579C352.117 138.365 352.602 138.365 354.824 138.565C357.806 138.836 358.492 138.807 358.853 138.393C359.142 138.06 359.263 138.056 359.439 138.369C359.623 138.699 359.716 138.687 360.006 138.295C360.203 138.032 360.53 137.891 360.762 137.974C361.138 138.104 361.153 138.15 360.948 138.541C360.754 138.909 360.871 138.993 361.788 139.144C362.372 139.243 364.007 139.393 365.421 139.481C366.836 139.569 368.513 139.687 369.151 139.747C369.788 139.804 371.456 139.868 372.859 139.886C374.261 139.904 375.533 139.968 375.684 140.028C375.836 140.086 376.561 140.167 377.294 140.203C378.027 140.242 379.225 140.307 379.956 140.349C380.687 140.393 381.92 140.445 382.695 140.466C384.018 140.501 385.201 140.611 387.331 140.898C387.826 140.966 388.816 140.987 389.531 140.943C391.336 140.838 390.473 140.527 387.565 140.234C386.289 140.105 384.076 139.866 382.648 139.703C380.388 139.444 374.89 139.051 374.5 139.12C374.425 139.133 374.217 138.824 374.039 138.432C373.762 137.824 373.756 137.665 373.996 137.343C374.15 137.134 374.502 136.896 374.776 136.811C375.103 136.712 375.223 136.531 375.124 136.289C374.93 135.814 376.78 135.674 377.447 136.113C377.752 136.314 378.811 136.256 380.648 135.939C382.157 135.676 383.553 135.567 383.75 135.692C383.948 135.817 384.477 135.912 384.927 135.9C385.991 135.877 387.715 136.097 389.536 136.49C390.339 136.665 391.364 136.802 391.814 136.797C392.263 136.791 392.718 136.853 392.826 136.938C392.933 137.019 393.812 137.158 394.778 137.243C396.812 137.425 397.868 137.599 398.907 137.92C399.733 138.176 400.946 138.399 401.913 138.473C402.262 138.499 402.749 138.751 402.995 139.03C403.277 139.353 403.686 139.496 404.103 139.419C405.105 139.236 405.943 139.351 406.785 139.779C408.002 140.401 409.347 140.785 409.427 140.535C409.468 140.407 409.379 140.255 409.23 140.194Z" fill="#21728D"/>
<path d="M5.2875 168.17C4.3695 168.17 3.47983 168.04 2.6185 167.779C1.7685 167.518 1.09417 167.173 0.5955 166.742L1.3605 165.025C1.84783 165.41 2.44283 165.728 3.1455 165.977C3.8595 166.215 4.5735 166.334 5.2875 166.334C6.1715 166.334 6.82883 166.192 7.2595 165.909C7.7015 165.626 7.9225 165.252 7.9225 164.787C7.9225 164.447 7.79783 164.169 7.5485 163.954C7.3105 163.727 7.0045 163.552 6.6305 163.427C6.2565 163.302 5.7465 163.161 5.1005 163.002C4.19383 162.787 3.45717 162.571 2.8905 162.356C2.33517 162.141 1.8535 161.806 1.4455 161.353C1.04883 160.888 0.8505 160.265 0.8505 159.483C0.8505 158.826 1.02617 158.231 1.3775 157.698C1.74017 157.154 2.2785 156.723 2.9925 156.406C3.71783 156.089 4.60183 155.93 5.6445 155.93C6.36983 155.93 7.08383 156.021 7.7865 156.202C8.48917 156.383 9.0955 156.644 9.6055 156.984L8.9085 158.701C8.38717 158.395 7.84317 158.163 7.2765 158.004C6.70983 157.845 6.16017 157.766 5.6275 157.766C4.75483 157.766 4.10317 157.913 3.6725 158.208C3.25317 158.503 3.0435 158.894 3.0435 159.381C3.0435 159.721 3.1625 159.999 3.4005 160.214C3.64983 160.429 3.9615 160.599 4.3355 160.724C4.7095 160.849 5.2195 160.99 5.8655 161.149C6.7495 161.353 7.47483 161.568 8.0415 161.795C8.60817 162.01 9.08983 162.345 9.4865 162.798C9.8945 163.251 10.0985 163.863 10.0985 164.634C10.0985 165.291 9.91717 165.886 9.5545 166.419C9.20317 166.952 8.66483 167.377 7.9395 167.694C7.21417 168.011 6.33017 168.17 5.2875 168.17Z" fill="#526167"/>
<path d="M20.6199 163.512C20.6199 163.659 20.6086 163.869 20.5859 164.141H13.4629C13.5876 164.81 13.9106 165.342 14.4319 165.739C14.9646 166.124 15.6219 166.317 16.4039 166.317C17.4012 166.317 18.2229 165.988 18.8689 165.331L20.0079 166.64C19.5999 167.127 19.0842 167.496 18.4609 167.745C17.8376 167.994 17.1349 168.119 16.3529 168.119C15.3556 168.119 14.4772 167.921 13.7179 167.524C12.9586 167.127 12.3692 166.578 11.9499 165.875C11.5419 165.161 11.3379 164.356 11.3379 163.461C11.3379 162.577 11.5362 161.784 11.9329 161.081C12.3409 160.367 12.9019 159.812 13.6159 159.415C14.3299 159.018 15.1346 158.82 16.0299 158.82C16.9139 158.82 17.7016 159.018 18.3929 159.415C19.0956 159.8 19.6396 160.35 20.0249 161.064C20.4216 161.767 20.6199 162.583 20.6199 163.512ZM16.0299 160.52C15.3499 160.52 14.7719 160.724 14.2959 161.132C13.8312 161.529 13.5479 162.061 13.4459 162.73H18.5969C18.5062 162.073 18.2286 161.54 17.7639 161.132C17.2992 160.724 16.7212 160.52 16.0299 160.52Z" fill="#526167"/>
<path d="M26.8261 168.119C25.8854 168.119 25.0411 167.921 24.2931 167.524C23.5451 167.127 22.9614 166.578 22.5421 165.875C22.1228 165.161 21.9131 164.356 21.9131 163.461C21.9131 162.566 22.1228 161.767 22.5421 161.064C22.9614 160.361 23.5394 159.812 24.2761 159.415C25.0241 159.018 25.8741 158.82 26.8261 158.82C27.7214 158.82 28.5034 159.001 29.1721 159.364C29.8521 159.727 30.3621 160.248 30.7021 160.928L29.0701 161.88C28.8094 161.461 28.4808 161.149 28.0841 160.945C27.6988 160.73 27.2738 160.622 26.8091 160.622C26.0158 160.622 25.3584 160.883 24.8371 161.404C24.3158 161.914 24.0551 162.6 24.0551 163.461C24.0551 164.322 24.3101 165.014 24.8201 165.535C25.3414 166.045 26.0044 166.3 26.8091 166.3C27.2738 166.3 27.6988 166.198 28.0841 165.994C28.4808 165.779 28.8094 165.461 29.0701 165.042L30.7021 165.994C30.3508 166.674 29.8351 167.201 29.1551 167.575C28.4864 167.938 27.7101 168.119 26.8261 168.119Z" fill="#526167"/>
<path d="M41.328 158.922V168H39.305V166.844C38.965 167.252 38.54 167.569 38.03 167.796C37.52 168.011 36.9704 168.119 36.381 168.119C35.1684 168.119 34.2107 167.785 33.508 167.116C32.8167 166.436 32.471 165.433 32.471 164.107V158.922H34.596V163.818C34.596 164.634 34.7774 165.246 35.14 165.654C35.514 166.051 36.041 166.249 36.721 166.249C37.4804 166.249 38.081 166.017 38.523 165.552C38.9764 165.076 39.203 164.396 39.203 163.512V158.922H41.328Z" fill="#526167"/>
<path d="M46.1333 160.248C46.7453 159.296 47.822 158.82 49.3633 158.82V160.843C49.182 160.809 49.0177 160.792 48.8703 160.792C48.043 160.792 47.397 161.036 46.9323 161.523C46.4677 161.999 46.2353 162.69 46.2353 163.597V168H44.1103V158.922H46.1333V160.248Z" fill="#526167"/>
<path d="M59.617 163.512C59.617 163.659 59.6056 163.869 59.583 164.141H52.46C52.5846 164.81 52.9076 165.342 53.429 165.739C53.9616 166.124 54.619 166.317 55.401 166.317C56.3983 166.317 57.22 165.988 57.866 165.331L59.005 166.64C58.597 167.127 58.0813 167.496 57.458 167.745C56.8346 167.994 56.132 168.119 55.35 168.119C54.3526 168.119 53.4743 167.921 52.715 167.524C51.9556 167.127 51.3663 166.578 50.947 165.875C50.539 165.161 50.335 164.356 50.335 163.461C50.335 162.577 50.5333 161.784 50.93 161.081C51.338 160.367 51.899 159.812 52.613 159.415C53.327 159.018 54.1316 158.82 55.027 158.82C55.911 158.82 56.6986 159.018 57.39 159.415C58.0926 159.8 58.6366 160.35 59.022 161.064C59.4186 161.767 59.617 162.583 59.617 163.512ZM55.027 160.52C54.347 160.52 53.769 160.724 53.293 161.132C52.8283 161.529 52.545 162.061 52.443 162.73H57.594C57.5033 162.073 57.2256 161.54 56.761 161.132C56.2963 160.724 55.7183 160.52 55.027 160.52Z" fill="#526167"/>
<path d="M74.8564 158.922L70.6064 168.731C70.2097 169.717 69.7281 170.408 69.1614 170.805C68.5947 171.213 67.9091 171.417 67.1044 171.417C66.6511 171.417 66.2034 171.343 65.7614 171.196C65.3194 171.049 64.9567 170.845 64.6734 170.584L65.5234 169.02C65.7274 169.213 65.9654 169.366 66.2374 169.479C66.5207 169.592 66.8041 169.649 67.0874 169.649C67.4614 169.649 67.7674 169.553 68.0054 169.36C68.2548 169.167 68.4814 168.844 68.6854 168.391L68.8384 168.034L64.8774 158.922H67.0874L69.9434 165.637L72.8164 158.922H74.8564Z" fill="#526167"/>
<path d="M80.0155 168.119C79.0975 168.119 78.2702 167.921 77.5335 167.524C76.7968 167.127 76.2188 166.578 75.7995 165.875C75.3915 165.161 75.1875 164.356 75.1875 163.461C75.1875 162.566 75.3915 161.767 75.7995 161.064C76.2188 160.361 76.7968 159.812 77.5335 159.415C78.2702 159.018 79.0975 158.82 80.0155 158.82C80.9449 158.82 81.7779 159.018 82.5145 159.415C83.2512 159.812 83.8235 160.361 84.2315 161.064C84.6508 161.767 84.8605 162.566 84.8605 163.461C84.8605 164.356 84.6508 165.161 84.2315 165.875C83.8235 166.578 83.2512 167.127 82.5145 167.524C81.7779 167.921 80.9449 168.119 80.0155 168.119ZM80.0155 166.3C80.7975 166.3 81.4435 166.039 81.9535 165.518C82.4635 164.997 82.7185 164.311 82.7185 163.461C82.7185 162.611 82.4635 161.925 81.9535 161.404C81.4435 160.883 80.7975 160.622 80.0155 160.622C79.2335 160.622 78.5875 160.883 78.0775 161.404C77.5788 161.925 77.3295 162.611 77.3295 163.461C77.3295 164.311 77.5788 164.997 78.0775 165.518C78.5875 166.039 79.2335 166.3 80.0155 166.3Z" fill="#526167"/>
<path d="M95.6815 158.922V168H93.6585V166.844C93.3185 167.252 92.8935 167.569 92.3835 167.796C91.8735 168.011 91.3239 168.119 90.7346 168.119C89.5219 168.119 88.5642 167.785 87.8615 167.116C87.1702 166.436 86.8245 165.433 86.8245 164.107V158.922H88.9495V163.818C88.9495 164.634 89.1309 165.246 89.4935 165.654C89.8675 166.051 90.3945 166.249 91.0745 166.249C91.8339 166.249 92.4345 166.017 92.8765 165.552C93.3299 165.076 93.5565 164.396 93.5565 163.512V158.922H95.6815Z" fill="#526167"/>
<path d="M100.487 160.248C101.099 159.296 102.176 158.82 103.717 158.82V160.843C103.536 160.809 103.371 160.792 103.224 160.792C102.397 160.792 101.751 161.036 101.286 161.523C100.821 161.999 100.589 162.69 100.589 163.597V168H98.4638V158.922H100.487V160.248Z" fill="#526167"/>
<path d="M113.99 156.984C113.094 156.984 112.647 157.471 112.647 158.446V158.99H115.146V160.69H112.715V168H110.59V160.69H109.094V158.99H110.59V158.412C110.59 157.437 110.873 156.672 111.44 156.117C112.006 155.55 112.805 155.267 113.837 155.267C114.653 155.267 115.293 155.431 115.758 155.76L115.163 157.358C114.8 157.109 114.409 156.984 113.99 156.984Z" fill="#526167"/>
<path d="M125.365 158.922V168H123.342V166.844C123.002 167.252 122.577 167.569 122.067 167.796C121.557 168.011 121.007 168.119 120.418 168.119C119.205 168.119 118.248 167.785 117.545 167.116C116.854 166.436 116.508 165.433 116.508 164.107V158.922H118.633V163.818C118.633 164.634 118.814 165.246 119.177 165.654C119.551 166.051 120.078 166.249 120.758 166.249C121.517 166.249 122.118 166.017 122.56 165.552C123.013 165.076 123.24 164.396 123.24 163.512V158.922H125.365Z" fill="#526167"/>
<path d="M133.604 167.507C133.355 167.711 133.049 167.864 132.686 167.966C132.335 168.068 131.961 168.119 131.564 168.119C130.567 168.119 129.796 167.858 129.252 167.337C128.708 166.816 128.436 166.056 128.436 165.059V160.69H126.94V158.99H128.436V156.916H130.561V158.99H132.992V160.69H130.561V165.008C130.561 165.45 130.669 165.79 130.884 166.028C131.1 166.255 131.411 166.368 131.819 166.368C132.295 166.368 132.692 166.243 133.009 165.994L133.604 167.507Z" fill="#526167"/>
<path d="M144.142 158.922V168H142.119V166.844C141.779 167.252 141.354 167.569 140.844 167.796C140.334 168.011 139.784 168.119 139.195 168.119C137.982 168.119 137.024 167.785 136.322 167.116C135.63 166.436 135.285 165.433 135.285 164.107V158.922H137.41V163.818C137.41 164.634 137.591 165.246 137.954 165.654C138.328 166.051 138.855 166.249 139.535 166.249C140.294 166.249 140.895 166.017 141.337 165.552C141.79 165.076 142.017 164.396 142.017 163.512V158.922H144.142Z" fill="#526167"/>
<path d="M148.947 160.248C149.559 159.296 150.635 158.82 152.177 158.82V160.843C151.995 160.809 151.831 160.792 151.684 160.792C150.856 160.792 150.21 161.036 149.746 161.523C149.281 161.999 149.049 162.69 149.049 163.597V168H146.924V158.922H148.947V160.248Z" fill="#526167"/>
<path d="M162.43 163.512C162.43 163.659 162.419 163.869 162.396 164.141H155.273C155.398 164.81 155.721 165.342 156.242 165.739C156.775 166.124 157.432 166.317 158.214 166.317C159.212 166.317 160.033 165.988 160.679 165.331L161.818 166.64C161.41 167.127 160.895 167.496 160.271 167.745C159.648 167.994 158.945 168.119 158.163 168.119C157.166 168.119 156.288 167.921 155.528 167.524C154.769 167.127 154.18 166.578 153.76 165.875C153.352 165.161 153.148 164.356 153.148 163.461C153.148 162.577 153.347 161.784 153.743 161.081C154.151 160.367 154.712 159.812 155.426 159.415C156.14 159.018 156.945 158.82 157.84 158.82C158.724 158.82 159.512 159.018 160.203 159.415C160.906 159.8 161.45 160.35 161.835 161.064C162.232 161.767 162.43 162.583 162.43 163.512ZM157.84 160.52C157.16 160.52 156.582 160.724 156.106 161.132C155.642 161.529 155.358 162.061 155.256 162.73H160.407C160.317 162.073 160.039 161.54 159.574 161.132C159.11 160.724 158.532 160.52 157.84 160.52Z" fill="#526167"/>
<path d="M174.202 158.82C175.086 158.82 175.874 159.013 176.565 159.398C177.268 159.783 177.817 160.327 178.214 161.03C178.611 161.733 178.809 162.543 178.809 163.461C178.809 164.379 178.611 165.195 178.214 165.909C177.817 166.612 177.268 167.156 176.565 167.541C175.874 167.926 175.086 168.119 174.202 168.119C173.579 168.119 173.006 168.011 172.485 167.796C171.975 167.581 171.544 167.258 171.193 166.827V168H169.17V155.386H171.295V160.027C171.658 159.63 172.083 159.33 172.57 159.126C173.069 158.922 173.613 158.82 174.202 158.82ZM173.964 166.3C174.746 166.3 175.386 166.039 175.885 165.518C176.395 164.997 176.65 164.311 176.65 163.461C176.65 162.611 176.395 161.925 175.885 161.404C175.386 160.883 174.746 160.622 173.964 160.622C173.454 160.622 172.995 160.741 172.587 160.979C172.179 161.206 171.856 161.534 171.618 161.965C171.38 162.396 171.261 162.894 171.261 163.461C171.261 164.028 171.38 164.526 171.618 164.957C171.856 165.388 172.179 165.722 172.587 165.96C172.995 166.187 173.454 166.3 173.964 166.3Z" fill="#526167"/>
<path d="M189.075 158.922L184.825 168.731C184.428 169.717 183.947 170.408 183.38 170.805C182.813 171.213 182.128 171.417 181.323 171.417C180.87 171.417 180.422 171.343 179.98 171.196C179.538 171.049 179.175 170.845 178.892 170.584L179.742 169.02C179.946 169.213 180.184 169.366 180.456 169.479C180.739 169.592 181.023 169.649 181.306 169.649C181.68 169.649 181.986 169.553 182.224 169.36C182.474 169.167 182.7 168.844 182.904 168.391L183.057 168.034L179.096 158.922H181.306L184.162 165.637L187.035 158.922H189.075Z" fill="#526167"/>
<path d="M195.102 158.922H197.227V168H195.102V158.922ZM196.173 157.426C195.787 157.426 195.464 157.307 195.204 157.069C194.943 156.82 194.813 156.514 194.813 156.151C194.813 155.788 194.943 155.488 195.204 155.25C195.464 155.001 195.787 154.876 196.173 154.876C196.558 154.876 196.881 154.995 197.142 155.233C197.402 155.46 197.533 155.749 197.533 156.1C197.533 156.474 197.402 156.791 197.142 157.052C196.892 157.301 196.569 157.426 196.173 157.426Z" fill="#526167"/>
<path d="M205.167 158.82C206.311 158.82 207.229 159.154 207.921 159.823C208.612 160.492 208.958 161.483 208.958 162.798V168H206.833V163.07C206.833 162.277 206.646 161.682 206.272 161.285C205.898 160.877 205.365 160.673 204.674 160.673C203.892 160.673 203.274 160.911 202.821 161.387C202.367 161.852 202.141 162.526 202.141 163.41V168H200.016V158.922H202.039V160.095C202.39 159.676 202.832 159.358 203.365 159.143C203.897 158.928 204.498 158.82 205.167 158.82Z" fill="#526167"/>
<path d="M219.987 158.922L216.094 168H213.901L210.008 158.922H212.218L215.04 165.654L217.947 158.922H219.987Z" fill="#526167"/>
<path d="M229.6 163.512C229.6 163.659 229.589 163.869 229.566 164.141H222.443C222.568 164.81 222.891 165.342 223.412 165.739C223.945 166.124 224.602 166.317 225.384 166.317C226.382 166.317 227.203 165.988 227.849 165.331L228.988 166.64C228.58 167.127 228.065 167.496 227.441 167.745C226.818 167.994 226.115 168.119 225.333 168.119C224.336 168.119 223.458 167.921 222.698 167.524C221.939 167.127 221.35 166.578 220.93 165.875C220.522 165.161 220.318 164.356 220.318 163.461C220.318 162.577 220.517 161.784 220.913 161.081C221.321 160.367 221.882 159.812 222.596 159.415C223.31 159.018 224.115 158.82 225.01 158.82C225.894 158.82 226.682 159.018 227.373 159.415C228.076 159.8 228.62 160.35 229.005 161.064C229.402 161.767 229.6 162.583 229.6 163.512ZM225.01 160.52C224.33 160.52 223.752 160.724 223.276 161.132C222.812 161.529 222.528 162.061 222.426 162.73H227.577C227.487 162.073 227.209 161.54 226.744 161.132C226.28 160.724 225.702 160.52 225.01 160.52Z" fill="#526167"/>
<path d="M234.447 168.119C233.71 168.119 232.99 168.023 232.288 167.83C231.585 167.637 231.024 167.394 230.605 167.099L231.421 165.484C231.829 165.756 232.316 165.977 232.883 166.147C233.461 166.306 234.027 166.385 234.583 166.385C235.852 166.385 236.487 166.051 236.487 165.382C236.487 165.065 236.322 164.844 235.994 164.719C235.676 164.594 235.161 164.475 234.447 164.362C233.699 164.249 233.087 164.118 232.611 163.971C232.146 163.824 231.738 163.569 231.387 163.206C231.047 162.832 230.877 162.316 230.877 161.659C230.877 160.798 231.234 160.112 231.948 159.602C232.673 159.081 233.648 158.82 234.872 158.82C235.495 158.82 236.118 158.894 236.742 159.041C237.365 159.177 237.875 159.364 238.272 159.602L237.456 161.217C236.685 160.764 235.818 160.537 234.855 160.537C234.231 160.537 233.755 160.633 233.427 160.826C233.109 161.007 232.951 161.251 232.951 161.557C232.951 161.897 233.121 162.141 233.461 162.288C233.812 162.424 234.35 162.554 235.076 162.679C235.801 162.792 236.396 162.923 236.861 163.07C237.325 163.217 237.722 163.467 238.051 163.818C238.391 164.169 238.561 164.668 238.561 165.314C238.561 166.164 238.192 166.844 237.456 167.354C236.719 167.864 235.716 168.119 234.447 168.119Z" fill="#526167"/>
<path d="M245.848 167.507C245.598 167.711 245.292 167.864 244.93 167.966C244.578 168.068 244.204 168.119 243.808 168.119C242.81 168.119 242.04 167.858 241.496 167.337C240.952 166.816 240.68 166.056 240.68 165.059V160.69H239.184V158.99H240.68V156.916H242.805V158.99H245.236V160.69H242.805V165.008C242.805 165.45 242.912 165.79 243.128 166.028C243.343 166.255 243.655 166.368 244.063 166.368C244.539 166.368 244.935 166.243 245.253 165.994L245.848 167.507Z" fill="#526167"/>
<path d="M247.596 158.922H249.721V168H247.596V158.922ZM248.667 157.426C248.281 157.426 247.958 157.307 247.698 157.069C247.437 156.82 247.307 156.514 247.307 156.151C247.307 155.788 247.437 155.488 247.698 155.25C247.958 155.001 248.281 154.876 248.667 154.876C249.052 154.876 249.375 154.995 249.636 155.233C249.896 155.46 250.027 155.749 250.027 156.1C250.027 156.474 249.896 156.791 249.636 157.052C249.386 157.301 249.063 157.426 248.667 157.426Z" fill="#526167"/>
<path d="M257.661 158.82C258.805 158.82 259.723 159.154 260.415 159.823C261.106 160.492 261.452 161.483 261.452 162.798V168H259.327V163.07C259.327 162.277 259.14 161.682 258.766 161.285C258.392 160.877 257.859 160.673 257.168 160.673C256.386 160.673 255.768 160.911 255.315 161.387C254.861 161.852 254.635 162.526 254.635 163.41V168H252.51V158.922H254.533V160.095C254.884 159.676 255.326 159.358 255.859 159.143C256.391 158.928 256.992 158.82 257.661 158.82Z" fill="#526167"/>
<path d="M273.24 158.922V166.623C273.24 169.819 271.608 171.417 268.344 171.417C267.472 171.417 266.644 171.304 265.862 171.077C265.08 170.862 264.434 170.544 263.924 170.125L264.876 168.527C265.273 168.856 265.772 169.116 266.372 169.309C266.984 169.513 267.602 169.615 268.225 169.615C269.223 169.615 269.954 169.388 270.418 168.935C270.883 168.482 271.115 167.79 271.115 166.861V166.385C270.753 166.782 270.311 167.082 269.789 167.286C269.268 167.49 268.696 167.592 268.072 167.592C267.211 167.592 266.429 167.411 265.726 167.048C265.035 166.674 264.485 166.153 264.077 165.484C263.681 164.815 263.482 164.05 263.482 163.189C263.482 162.328 263.681 161.568 264.077 160.911C264.485 160.242 265.035 159.727 265.726 159.364C266.429 159.001 267.211 158.82 268.072 158.82C268.73 158.82 269.325 158.928 269.857 159.143C270.401 159.358 270.855 159.687 271.217 160.129V158.922H273.24ZM268.395 165.79C269.2 165.79 269.857 165.552 270.367 165.076C270.889 164.589 271.149 163.96 271.149 163.189C271.149 162.43 270.889 161.812 270.367 161.336C269.857 160.86 269.2 160.622 268.395 160.622C267.579 160.622 266.911 160.86 266.389 161.336C265.879 161.812 265.624 162.43 265.624 163.189C265.624 163.96 265.879 164.589 266.389 165.076C266.911 165.552 267.579 165.79 268.395 165.79Z" fill="#526167"/>
<path d="M280.732 158.922H282.857V168H280.732V158.922ZM281.803 157.426C281.418 157.426 281.095 157.307 280.834 157.069C280.574 156.82 280.443 156.514 280.443 156.151C280.443 155.788 280.574 155.488 280.834 155.25C281.095 155.001 281.418 154.876 281.803 154.876C282.189 154.876 282.512 154.995 282.772 155.233C283.033 155.46 283.163 155.749 283.163 156.1C283.163 156.474 283.033 156.791 282.772 157.052C282.523 157.301 282.2 157.426 281.803 157.426Z" fill="#526167"/>
<path d="M290.797 158.82C291.942 158.82 292.86 159.154 293.551 159.823C294.243 160.492 294.588 161.483 294.588 162.798V168H292.463V163.07C292.463 162.277 292.276 161.682 291.902 161.285C291.528 160.877 290.996 160.673 290.304 160.673C289.522 160.673 288.905 160.911 288.451 161.387C287.998 161.852 287.771 162.526 287.771 163.41V168H285.646V158.922H287.669V160.095C288.021 159.676 288.463 159.358 288.995 159.143C289.528 158.928 290.129 158.82 290.797 158.82Z" fill="#526167"/>
<path d="M307.014 158.82C307.898 158.82 308.686 159.013 309.377 159.398C310.08 159.783 310.63 160.327 311.026 161.03C311.423 161.733 311.621 162.543 311.621 163.461C311.621 164.379 311.423 165.195 311.026 165.909C310.63 166.612 310.08 167.156 309.377 167.541C308.686 167.926 307.898 168.119 307.014 168.119C306.391 168.119 305.819 168.011 305.297 167.796C304.787 167.581 304.357 167.258 304.005 166.827V168H301.982V155.386H304.107V160.027C304.47 159.63 304.895 159.33 305.382 159.126C305.881 158.922 306.425 158.82 307.014 158.82ZM306.776 166.3C307.558 166.3 308.199 166.039 308.697 165.518C309.207 164.997 309.462 164.311 309.462 163.461C309.462 162.611 309.207 161.925 308.697 161.404C308.199 160.883 307.558 160.622 306.776 160.622C306.266 160.622 305.807 160.741 305.399 160.979C304.991 161.206 304.668 161.534 304.43 161.965C304.192 162.396 304.073 162.894 304.073 163.461C304.073 164.028 304.192 164.526 304.43 164.957C304.668 165.388 304.991 165.722 305.399 165.96C305.807 166.187 306.266 166.3 306.776 166.3Z" fill="#526167"/>
<path d="M313.637 158.922H315.762V168H313.637V158.922ZM314.708 157.426C314.322 157.426 313.999 157.307 313.739 157.069C313.478 156.82 313.348 156.514 313.348 156.151C313.348 155.788 313.478 155.488 313.739 155.25C313.999 155.001 314.322 154.876 314.708 154.876C315.093 154.876 315.416 154.995 315.677 155.233C315.937 155.46 316.068 155.749 316.068 156.1C316.068 156.474 315.937 156.791 315.677 157.052C315.427 157.301 315.104 157.426 314.708 157.426Z" fill="#526167"/>
<path d="M324.008 167.507C323.758 167.711 323.452 167.864 323.09 167.966C322.738 168.068 322.364 168.119 321.968 168.119C320.97 168.119 320.2 167.858 319.656 167.337C319.112 166.816 318.84 166.056 318.84 165.059V160.69H317.344V158.99H318.84V156.916H320.965V158.99H323.396V160.69H320.965V165.008C320.965 165.45 321.072 165.79 321.288 166.028C321.503 166.255 321.815 166.368 322.223 166.368C322.699 166.368 323.095 166.243 323.413 165.994L324.008 167.507Z" fill="#526167"/>
<path d="M329.622 168.119C328.681 168.119 327.837 167.921 327.089 167.524C326.341 167.127 325.757 166.578 325.338 165.875C324.919 165.161 324.709 164.356 324.709 163.461C324.709 162.566 324.919 161.767 325.338 161.064C325.757 160.361 326.335 159.812 327.072 159.415C327.82 159.018 328.67 158.82 329.622 158.82C330.517 158.82 331.299 159.001 331.968 159.364C332.648 159.727 333.158 160.248 333.498 160.928L331.866 161.88C331.605 161.461 331.277 161.149 330.88 160.945C330.495 160.73 330.07 160.622 329.605 160.622C328.812 160.622 328.154 160.883 327.633 161.404C327.112 161.914 326.851 162.6 326.851 163.461C326.851 164.322 327.106 165.014 327.616 165.535C328.137 166.045 328.8 166.3 329.605 166.3C330.07 166.3 330.495 166.198 330.88 165.994C331.277 165.779 331.605 165.461 331.866 165.042L333.498 165.994C333.147 166.674 332.631 167.201 331.951 167.575C331.282 167.938 330.506 168.119 329.622 168.119Z" fill="#526167"/>
<path d="M339.282 168.119C338.364 168.119 337.537 167.921 336.8 167.524C336.063 167.127 335.485 166.578 335.066 165.875C334.658 165.161 334.454 164.356 334.454 163.461C334.454 162.566 334.658 161.767 335.066 161.064C335.485 160.361 336.063 159.812 336.8 159.415C337.537 159.018 338.364 158.82 339.282 158.82C340.211 158.82 341.044 159.018 341.781 159.415C342.518 159.812 343.09 160.361 343.498 161.064C343.917 161.767 344.127 162.566 344.127 163.461C344.127 164.356 343.917 165.161 343.498 165.875C343.09 166.578 342.518 167.127 341.781 167.524C341.044 167.921 340.211 168.119 339.282 168.119ZM339.282 166.3C340.064 166.3 340.71 166.039 341.22 165.518C341.73 164.997 341.985 164.311 341.985 163.461C341.985 162.611 341.73 161.925 341.22 161.404C340.71 160.883 340.064 160.622 339.282 160.622C338.5 160.622 337.854 160.883 337.344 161.404C336.845 161.925 336.596 162.611 336.596 163.461C336.596 164.311 336.845 164.997 337.344 165.518C337.854 166.039 338.5 166.3 339.282 166.3Z" fill="#526167"/>
<path d="M346.159 158.922H348.284V168H346.159V158.922ZM347.23 157.426C346.845 157.426 346.522 157.307 346.261 157.069C346 156.82 345.87 156.514 345.87 156.151C345.87 155.788 346 155.488 346.261 155.25C346.522 155.001 346.845 154.876 347.23 154.876C347.615 154.876 347.938 154.995 348.199 155.233C348.46 155.46 348.59 155.749 348.59 156.1C348.59 156.474 348.46 156.791 348.199 157.052C347.95 157.301 347.627 157.426 347.23 157.426Z" fill="#526167"/>
<path d="M356.224 158.82C357.369 158.82 358.287 159.154 358.978 159.823C359.67 160.492 360.015 161.483 360.015 162.798V168H357.89V163.07C357.89 162.277 357.703 161.682 357.329 161.285C356.955 160.877 356.423 160.673 355.731 160.673C354.949 160.673 354.332 160.911 353.878 161.387C353.425 161.852 353.198 162.526 353.198 163.41V168H351.073V158.922H353.096V160.095C353.448 159.676 353.89 159.358 354.422 159.143C354.955 158.928 355.556 158.82 356.224 158.82Z" fill="#526167"/>
<path d="M363.408 165.297C363.805 165.297 364.133 165.427 364.394 165.688C364.655 165.949 364.785 166.289 364.785 166.708C364.785 166.889 364.757 167.082 364.7 167.286C364.655 167.479 364.553 167.773 364.394 168.17L363.527 170.567H362.15L362.83 167.966C362.581 167.864 362.382 167.705 362.235 167.49C362.099 167.263 362.031 167.003 362.031 166.708C362.031 166.289 362.161 165.949 362.422 165.688C362.683 165.427 363.011 165.297 363.408 165.297Z" fill="#526167"/>
<path d="M380.57 158.922V166.623C380.57 169.819 378.938 171.417 375.674 171.417C374.801 171.417 373.974 171.304 373.192 171.077C372.41 170.862 371.764 170.544 371.254 170.125L372.206 168.527C372.602 168.856 373.101 169.116 373.702 169.309C374.314 169.513 374.931 169.615 375.555 169.615C376.552 169.615 377.283 169.388 377.748 168.935C378.212 168.482 378.445 167.79 378.445 166.861V166.385C378.082 166.782 377.64 167.082 377.119 167.286C376.597 167.49 376.025 167.592 375.402 167.592C374.54 167.592 373.758 167.411 373.056 167.048C372.364 166.674 371.815 166.153 371.407 165.484C371.01 164.815 370.812 164.05 370.812 163.189C370.812 162.328 371.01 161.568 371.407 160.911C371.815 160.242 372.364 159.727 373.056 159.364C373.758 159.001 374.54 158.82 375.402 158.82C376.059 158.82 376.654 158.928 377.187 159.143C377.731 159.358 378.184 159.687 378.547 160.129V158.922H380.57ZM375.725 165.79C376.529 165.79 377.187 165.552 377.697 165.076C378.218 164.589 378.479 163.96 378.479 163.189C378.479 162.43 378.218 161.812 377.697 161.336C377.187 160.86 376.529 160.622 375.725 160.622C374.909 160.622 374.24 160.86 373.719 161.336C373.209 161.812 372.954 162.43 372.954 163.189C372.954 163.96 373.209 164.589 373.719 165.076C374.24 165.552 374.909 165.79 375.725 165.79Z" fill="#526167"/>
<path d="M383.363 158.922H385.488V168H383.363V158.922ZM384.434 157.426C384.049 157.426 383.726 157.307 383.465 157.069C383.205 156.82 383.074 156.514 383.074 156.151C383.074 155.788 383.205 155.488 383.465 155.25C383.726 155.001 384.049 154.876 384.434 154.876C384.82 154.876 385.143 154.995 385.403 155.233C385.664 155.46 385.794 155.749 385.794 156.1C385.794 156.474 385.664 156.791 385.403 157.052C385.154 157.301 384.831 157.426 384.434 157.426Z" fill="#526167"/>
<path d="M391.966 156.984C391.071 156.984 390.623 157.471 390.623 158.446V158.99H393.122V160.69H390.691V168H388.566V160.69H387.07V158.99H388.566V158.412C388.566 157.437 388.85 156.672 389.416 156.117C389.983 155.55 390.782 155.267 391.813 155.267C392.629 155.267 393.27 155.431 393.734 155.76L393.139 157.358C392.777 157.109 392.386 156.984 391.966 156.984Z" fill="#526167"/>
<path d="M400.01 167.507C399.76 167.711 399.454 167.864 399.092 167.966C398.74 168.068 398.366 168.119 397.97 168.119C396.972 168.119 396.202 167.858 395.658 167.337C395.114 166.816 394.842 166.056 394.842 165.059V160.69H393.346V158.99H394.842V156.916H396.967V158.99H399.398V160.69H396.967V165.008C396.967 165.45 397.074 165.79 397.29 166.028C397.505 166.255 397.817 166.368 398.225 166.368C398.701 166.368 399.097 166.243 399.415 165.994L400.01 167.507Z" fill="#526167"/>
<path d="M409.261 168.119C408.524 168.119 407.805 168.023 407.102 167.83C406.399 167.637 405.838 167.394 405.419 167.099L406.235 165.484C406.643 165.756 407.13 165.977 407.697 166.147C408.275 166.306 408.842 166.385 409.397 166.385C410.666 166.385 411.301 166.051 411.301 165.382C411.301 165.065 411.137 164.844 410.808 164.719C410.491 164.594 409.975 164.475 409.261 164.362C408.513 164.249 407.901 164.118 407.425 163.971C406.96 163.824 406.552 163.569 406.201 163.206C405.861 162.832 405.691 162.316 405.691 161.659C405.691 160.798 406.048 160.112 406.762 159.602C407.487 159.081 408.462 158.82 409.686 158.82C410.309 158.82 410.933 158.894 411.556 159.041C412.179 159.177 412.689 159.364 413.086 159.602L412.27 161.217C411.499 160.764 410.632 160.537 409.669 160.537C409.046 160.537 408.57 160.633 408.241 160.826C407.924 161.007 407.765 161.251 407.765 161.557C407.765 161.897 407.935 162.141 408.275 162.288C408.626 162.424 409.165 162.554 409.89 162.679C410.615 162.792 411.21 162.923 411.675 163.07C412.14 163.217 412.536 163.467 412.865 163.818C413.205 164.169 413.375 164.668 413.375 165.314C413.375 166.164 413.007 166.844 412.27 167.354C411.533 167.864 410.53 168.119 409.261 168.119Z" fill="#526167"/>
<path d="M419.285 168.119C418.367 168.119 417.54 167.921 416.803 167.524C416.066 167.127 415.488 166.578 415.069 165.875C414.661 165.161 414.457 164.356 414.457 163.461C414.457 162.566 414.661 161.767 415.069 161.064C415.488 160.361 416.066 159.812 416.803 159.415C417.54 159.018 418.367 158.82 419.285 158.82C420.214 158.82 421.047 159.018 421.784 159.415C422.521 159.812 423.093 160.361 423.501 161.064C423.92 161.767 424.13 162.566 424.13 163.461C424.13 164.356 423.92 165.161 423.501 165.875C423.093 166.578 422.521 167.127 421.784 167.524C421.047 167.921 420.214 168.119 419.285 168.119ZM419.285 166.3C420.067 166.3 420.713 166.039 421.223 165.518C421.733 164.997 421.988 164.311 421.988 163.461C421.988 162.611 421.733 161.925 421.223 161.404C420.713 160.883 420.067 160.622 419.285 160.622C418.503 160.622 417.857 160.883 417.347 161.404C416.848 161.925 416.599 162.611 416.599 163.461C416.599 164.311 416.848 164.997 417.347 165.518C417.857 166.039 418.503 166.3 419.285 166.3Z" fill="#526167"/>
<path d="M437.62 158.82C438.765 158.82 439.671 159.154 440.34 159.823C441.009 160.48 441.343 161.472 441.343 162.798V168H439.218V163.07C439.218 162.277 439.042 161.682 438.691 161.285C438.34 160.877 437.835 160.673 437.178 160.673C436.464 160.673 435.892 160.911 435.461 161.387C435.03 161.852 434.815 162.52 434.815 163.393V168H432.69V163.07C432.69 162.277 432.514 161.682 432.163 161.285C431.812 160.877 431.307 160.673 430.65 160.673C429.925 160.673 429.347 160.905 428.916 161.37C428.497 161.835 428.287 162.509 428.287 163.393V168H426.162V158.922H428.185V160.078C428.525 159.67 428.95 159.358 429.46 159.143C429.97 158.928 430.537 158.82 431.16 158.82C431.84 158.82 432.441 158.95 432.962 159.211C433.495 159.46 433.914 159.834 434.22 160.333C434.594 159.857 435.076 159.489 435.665 159.228C436.254 158.956 436.906 158.82 437.62 158.82Z" fill="#526167"/>
<path d="M452.676 163.512C452.676 163.659 452.664 163.869 452.642 164.141H445.519C445.643 164.81 445.966 165.342 446.488 165.739C447.02 166.124 447.678 166.317 448.46 166.317C449.457 166.317 450.279 165.988 450.925 165.331L452.064 166.64C451.656 167.127 451.14 167.496 450.517 167.745C449.893 167.994 449.191 168.119 448.409 168.119C447.411 168.119 446.533 167.921 445.774 167.524C445.014 167.127 444.425 166.578 444.006 165.875C443.598 165.161 443.394 164.356 443.394 163.461C443.394 162.577 443.592 161.784 443.989 161.081C444.397 160.367 444.958 159.812 445.672 159.415C446.386 159.018 447.19 158.82 448.086 158.82C448.97 158.82 449.757 159.018 450.449 159.415C451.151 159.8 451.695 160.35 452.081 161.064C452.477 161.767 452.676 162.583 452.676 163.512ZM448.086 160.52C447.406 160.52 446.828 160.724 446.352 161.132C445.887 161.529 445.604 162.061 445.502 162.73H450.653C450.562 162.073 450.284 161.54 449.82 161.132C449.355 160.724 448.777 160.52 448.086 160.52Z" fill="#526167"/>
<path d="M464.872 167.507C464.623 167.711 464.317 167.864 463.954 167.966C463.603 168.068 463.229 168.119 462.832 168.119C461.835 168.119 461.064 167.858 460.52 167.337C459.976 166.816 459.704 166.056 459.704 165.059V160.69H458.208V158.99H459.704V156.916H461.829V158.99H464.26V160.69H461.829V165.008C461.829 165.45 461.937 165.79 462.152 166.028C462.367 166.255 462.679 166.368 463.087 166.368C463.563 166.368 463.96 166.243 464.277 165.994L464.872 167.507Z" fill="#526167"/>
<path d="M470.401 168.119C469.483 168.119 468.656 167.921 467.919 167.524C467.183 167.127 466.605 166.578 466.185 165.875C465.777 165.161 465.573 164.356 465.573 163.461C465.573 162.566 465.777 161.767 466.185 161.064C466.605 160.361 467.183 159.812 467.919 159.415C468.656 159.018 469.483 158.82 470.401 158.82C471.331 158.82 472.164 159.018 472.9 159.415C473.637 159.812 474.209 160.361 474.617 161.064C475.037 161.767 475.246 162.566 475.246 163.461C475.246 164.356 475.037 165.161 474.617 165.875C474.209 166.578 473.637 167.127 472.9 167.524C472.164 167.921 471.331 168.119 470.401 168.119ZM470.401 166.3C471.183 166.3 471.829 166.039 472.339 165.518C472.849 164.997 473.104 164.311 473.104 163.461C473.104 162.611 472.849 161.925 472.339 161.404C471.829 160.883 471.183 160.622 470.401 160.622C469.619 160.622 468.973 160.883 468.463 161.404C467.965 161.925 467.715 162.611 467.715 163.461C467.715 164.311 467.965 164.997 468.463 165.518C468.973 166.039 469.619 166.3 470.401 166.3Z" fill="#526167"/>
<path d="M5.0835 182.984C4.18817 182.984 3.7405 183.471 3.7405 184.446V184.99H6.2395V186.69H3.8085V194H1.6835V186.69H0.1875V184.99H1.6835V184.412C1.6835 183.437 1.96683 182.672 2.5335 182.117C3.10017 181.55 3.89917 181.267 4.9305 181.267C5.7465 181.267 6.38683 181.431 6.8515 181.76L6.2565 183.358C5.89383 183.109 5.50283 182.984 5.0835 182.984Z" fill="#526167"/>
<path d="M11.0542 186.248C11.6662 185.296 12.7429 184.82 14.2842 184.82V186.843C14.1029 186.809 13.9386 186.792 13.7912 186.792C12.9639 186.792 12.3179 187.036 11.8532 187.523C11.3886 187.999 11.1562 188.69 11.1562 189.597V194H9.03122V184.922H11.0542V186.248Z" fill="#526167"/>
<path d="M16.0869 184.922H18.2119V194H16.0869V184.922ZM17.1579 183.426C16.7725 183.426 16.4495 183.307 16.1889 183.069C15.9282 182.82 15.7979 182.514 15.7979 182.151C15.7979 181.788 15.9282 181.488 16.1889 181.25C16.4495 181.001 16.7725 180.876 17.1579 180.876C17.5432 180.876 17.8662 180.995 18.1269 181.233C18.3875 181.46 18.5179 181.749 18.5179 182.1C18.5179 182.474 18.3875 182.791 18.1269 183.052C17.8775 183.301 17.5545 183.426 17.1579 183.426Z" fill="#526167"/>
<path d="M29.5349 189.512C29.5349 189.659 29.5236 189.869 29.5009 190.141H22.3779C22.5026 190.81 22.8256 191.342 23.3469 191.739C23.8796 192.124 24.5369 192.317 25.3189 192.317C26.3163 192.317 27.1379 191.988 27.7839 191.331L28.9229 192.64C28.5149 193.127 27.9993 193.496 27.3759 193.745C26.7526 193.994 26.0499 194.119 25.2679 194.119C24.2706 194.119 23.3923 193.921 22.6329 193.524C21.8736 193.127 21.2843 192.578 20.8649 191.875C20.4569 191.161 20.2529 190.356 20.2529 189.461C20.2529 188.577 20.4513 187.784 20.8479 187.081C21.2559 186.367 21.8169 185.812 22.5309 185.415C23.2449 185.018 24.0496 184.82 24.9449 184.82C25.8289 184.82 26.6166 185.018 27.3079 185.415C28.0106 185.8 28.5546 186.35 28.9399 187.064C29.3366 187.767 29.5349 188.583 29.5349 189.512ZM24.9449 186.52C24.2649 186.52 23.6869 186.724 23.2109 187.132C22.7463 187.529 22.4629 188.061 22.3609 188.73H27.5119C27.4213 188.073 27.1436 187.54 26.6789 187.132C26.2143 186.724 25.6363 186.52 24.9449 186.52Z" fill="#526167"/>
<path d="M36.7271 184.82C37.8718 184.82 38.7898 185.154 39.4811 185.823C40.1725 186.492 40.5181 187.483 40.5181 188.798V194H38.3931V189.07C38.3931 188.277 38.2061 187.682 37.8321 187.285C37.4581 186.877 36.9255 186.673 36.2341 186.673C35.4521 186.673 34.8345 186.911 34.3811 187.387C33.9278 187.852 33.7011 188.526 33.7011 189.41V194H31.5761V184.922H33.5991V186.095C33.9505 185.676 34.3925 185.358 34.9251 185.143C35.4578 184.928 36.0585 184.82 36.7271 184.82Z" fill="#526167"/>
<path d="M52.1878 181.386V194H50.1478V192.827C49.7965 193.258 49.3602 193.581 48.8388 193.796C48.3288 194.011 47.7622 194.119 47.1388 194.119C46.2662 194.119 45.4785 193.926 44.7758 193.541C44.0845 193.156 43.5405 192.612 43.1438 191.909C42.7472 191.195 42.5488 190.379 42.5488 189.461C42.5488 188.543 42.7472 187.733 43.1438 187.03C43.5405 186.327 44.0845 185.783 44.7758 185.398C45.4785 185.013 46.2662 184.82 47.1388 184.82C47.7395 184.82 48.2892 184.922 48.7878 185.126C49.2865 185.33 49.7115 185.636 50.0628 186.044V181.386H52.1878ZM47.3938 192.3C47.9038 192.3 48.3628 192.187 48.7708 191.96C49.1788 191.722 49.5018 191.388 49.7398 190.957C49.9778 190.526 50.0968 190.028 50.0968 189.461C50.0968 188.894 49.9778 188.396 49.7398 187.965C49.5018 187.534 49.1788 187.206 48.7708 186.979C48.3628 186.741 47.9038 186.622 47.3938 186.622C46.8838 186.622 46.4248 186.741 46.0168 186.979C45.6088 187.206 45.2858 187.534 45.0478 187.965C44.8098 188.396 44.6908 188.894 44.6908 189.461C44.6908 190.028 44.8098 190.526 45.0478 190.957C45.2858 191.388 45.6088 191.722 46.0168 191.96C46.4248 192.187 46.8838 192.3 47.3938 192.3Z" fill="#526167"/>
<path d="M57.7727 194.119C57.0361 194.119 56.3164 194.023 55.6137 193.83C54.9111 193.637 54.3501 193.394 53.9307 193.099L54.7467 191.484C55.1547 191.756 55.6421 191.977 56.2087 192.147C56.7867 192.306 57.3534 192.385 57.9087 192.385C59.1781 192.385 59.8127 192.051 59.8127 191.382C59.8127 191.065 59.6484 190.844 59.3197 190.719C59.0024 190.594 58.4867 190.475 57.7727 190.362C57.0247 190.249 56.4127 190.118 55.9367 189.971C55.4721 189.824 55.0641 189.569 54.7127 189.206C54.3727 188.832 54.2027 188.316 54.2027 187.659C54.2027 186.798 54.5597 186.112 55.2737 185.602C55.9991 185.081 56.9737 184.82 58.1977 184.82C58.8211 184.82 59.4444 184.894 60.0677 185.041C60.6911 185.177 61.2011 185.364 61.5977 185.602L60.7817 187.217C60.0111 186.764 59.1441 186.537 58.1807 186.537C57.5574 186.537 57.0814 186.633 56.7527 186.826C56.4354 187.007 56.2767 187.251 56.2767 187.557C56.2767 187.897 56.4467 188.141 56.7867 188.288C57.1381 188.424 57.6764 188.554 58.4017 188.679C59.1271 188.792 59.7221 188.923 60.1867 189.07C60.6514 189.217 61.0481 189.467 61.3767 189.818C61.7167 190.169 61.8867 190.668 61.8867 191.314C61.8867 192.164 61.5184 192.844 60.7817 193.354C60.0451 193.864 59.0421 194.119 57.7727 194.119Z" fill="#526167"/>
<path d="M71.883 184.82C73.2203 184.82 74.2403 185.143 74.943 185.789C75.657 186.424 76.014 187.387 76.014 188.679V194H74.008V192.895C73.7473 193.292 73.3733 193.598 72.886 193.813C72.41 194.017 71.832 194.119 71.152 194.119C70.472 194.119 69.877 194.006 69.367 193.779C68.857 193.541 68.4603 193.218 68.177 192.81C67.905 192.391 67.769 191.92 67.769 191.399C67.769 190.583 68.0693 189.931 68.67 189.444C69.282 188.945 70.2397 188.696 71.543 188.696H73.889V188.56C73.889 187.925 73.6963 187.438 73.311 187.098C72.937 186.758 72.376 186.588 71.628 186.588C71.118 186.588 70.6137 186.667 70.115 186.826C69.6277 186.985 69.214 187.206 68.874 187.489L68.041 185.942C68.517 185.579 69.0893 185.302 69.758 185.109C70.4267 184.916 71.135 184.82 71.883 184.82ZM71.594 192.572C72.1267 192.572 72.597 192.453 73.005 192.215C73.4243 191.966 73.719 191.614 73.889 191.161V190.107H71.696C70.472 190.107 69.86 190.509 69.86 191.314C69.86 191.699 70.013 192.005 70.319 192.232C70.625 192.459 71.05 192.572 71.594 192.572Z" fill="#526167"/>
<path d="M83.8922 184.82C85.0368 184.82 85.9548 185.154 86.6462 185.823C87.3375 186.492 87.6832 187.483 87.6832 188.798V194H85.5582V189.07C85.5582 188.277 85.3712 187.682 84.9972 187.285C84.6232 186.877 84.0905 186.673 83.3992 186.673C82.6172 186.673 81.9995 186.911 81.5462 187.387C81.0928 187.852 80.8662 188.526 80.8662 189.41V194H78.7412V184.922H80.7642V186.095C81.1155 185.676 81.5575 185.358 82.0902 185.143C82.6228 184.928 83.2235 184.82 83.8922 184.82Z" fill="#526167"/>
<path d="M99.3529 181.386V194H97.3129V192.827C96.9615 193.258 96.5252 193.581 96.0039 193.796C95.4939 194.011 94.9272 194.119 94.3039 194.119C93.4312 194.119 92.6435 193.926 91.9409 193.541C91.2495 193.156 90.7056 192.612 90.3089 191.909C89.9122 191.195 89.7139 190.379 89.7139 189.461C89.7139 188.543 89.9122 187.733 90.3089 187.03C90.7056 186.327 91.2495 185.783 91.9409 185.398C92.6435 185.013 93.4312 184.82 94.3039 184.82C94.9046 184.82 95.4542 184.922 95.9529 185.126C96.4515 185.33 96.8765 185.636 97.2279 186.044V181.386H99.3529ZM94.5589 192.3C95.0689 192.3 95.5279 192.187 95.9359 191.96C96.3439 191.722 96.6669 191.388 96.9049 190.957C97.1429 190.526 97.2619 190.028 97.2619 189.461C97.2619 188.894 97.1429 188.396 96.9049 187.965C96.6669 187.534 96.3439 187.206 95.9359 186.979C95.5279 186.741 95.0689 186.622 94.5589 186.622C94.0489 186.622 93.5899 186.741 93.1819 186.979C92.7739 187.206 92.4509 187.534 92.2129 187.965C91.9749 188.396 91.8559 188.894 91.8559 189.461C91.8559 190.028 91.9749 190.526 92.2129 190.957C92.4509 191.388 92.7739 191.722 93.1819 191.96C93.5899 192.187 94.0489 192.3 94.5589 192.3Z" fill="#526167"/>
<path d="M110.52 182.984C109.625 182.984 109.177 183.471 109.177 184.446V184.99H111.676V186.69H109.245V194H107.12V186.69H105.624V184.99H107.12V184.412C107.12 183.437 107.403 182.672 107.97 182.117C108.537 181.55 109.336 181.267 110.367 181.267C111.183 181.267 111.823 181.431 112.288 181.76L111.693 183.358C111.33 183.109 110.939 182.984 110.52 182.984Z" fill="#526167"/>
<path d="M116.408 184.82C117.746 184.82 118.766 185.143 119.468 185.789C120.182 186.424 120.539 187.387 120.539 188.679V194H118.533V192.895C118.273 193.292 117.899 193.598 117.411 193.813C116.935 194.017 116.357 194.119 115.677 194.119C114.997 194.119 114.402 194.006 113.892 193.779C113.382 193.541 112.986 193.218 112.702 192.81C112.43 192.391 112.294 191.92 112.294 191.399C112.294 190.583 112.595 189.931 113.195 189.444C113.807 188.945 114.765 188.696 116.068 188.696H118.414V188.56C118.414 187.925 118.222 187.438 117.836 187.098C117.462 186.758 116.901 186.588 116.153 186.588C115.643 186.588 115.139 186.667 114.64 186.826C114.153 186.985 113.739 187.206 113.399 187.489L112.566 185.942C113.042 185.579 113.615 185.302 114.283 185.109C114.952 184.916 115.66 184.82 116.408 184.82ZM116.119 192.572C116.652 192.572 117.122 192.453 117.53 192.215C117.95 191.966 118.244 191.614 118.414 191.161V190.107H116.221C114.997 190.107 114.385 190.509 114.385 191.314C114.385 191.699 114.538 192.005 114.844 192.232C115.15 192.459 115.575 192.572 116.119 192.572Z" fill="#526167"/>
<path d="M134.725 184.82C135.869 184.82 136.776 185.154 137.445 185.823C138.113 186.48 138.448 187.472 138.448 188.798V194H136.323V189.07C136.323 188.277 136.147 187.682 135.796 187.285C135.444 186.877 134.94 186.673 134.283 186.673C133.569 186.673 132.996 186.911 132.566 187.387C132.135 187.852 131.92 188.52 131.92 189.393V194H129.795V189.07C129.795 188.277 129.619 187.682 129.268 187.285C128.916 186.877 128.412 186.673 127.755 186.673C127.029 186.673 126.451 186.905 126.021 187.37C125.601 187.835 125.392 188.509 125.392 189.393V194H123.267V184.922H125.29V186.078C125.63 185.67 126.055 185.358 126.565 185.143C127.075 184.928 127.641 184.82 128.265 184.82C128.945 184.82 129.545 184.95 130.067 185.211C130.599 185.46 131.019 185.834 131.325 186.333C131.699 185.857 132.18 185.489 132.77 185.228C133.359 184.956 134.011 184.82 134.725 184.82Z" fill="#526167"/>
<path d="M141.163 184.922H143.288V194H141.163V184.922ZM142.234 183.426C141.849 183.426 141.526 183.307 141.265 183.069C141.004 182.82 140.874 182.514 140.874 182.151C140.874 181.788 141.004 181.488 141.265 181.25C141.526 181.001 141.849 180.876 142.234 180.876C142.619 180.876 142.942 180.995 143.203 181.233C143.464 181.46 143.594 181.749 143.594 182.1C143.594 182.474 143.464 182.791 143.203 183.052C142.954 183.301 142.631 183.426 142.234 183.426Z" fill="#526167"/>
<path d="M146.077 181.386H148.202V194H146.077V181.386Z" fill="#526167"/>
<path d="M159.491 184.922L155.241 194.731C154.845 195.717 154.363 196.408 153.796 196.805C153.23 197.213 152.544 197.417 151.739 197.417C151.286 197.417 150.838 197.343 150.396 197.196C149.954 197.049 149.592 196.845 149.308 196.584L150.158 195.02C150.362 195.213 150.6 195.366 150.872 195.479C151.156 195.592 151.439 195.649 151.722 195.649C152.096 195.649 152.402 195.553 152.64 195.36C152.89 195.167 153.116 194.844 153.32 194.391L153.473 194.034L149.512 184.922H151.722L154.578 191.637L157.451 184.922H159.491Z" fill="#526167"/>
<path d="M160.952 191.297C161.349 191.297 161.677 191.427 161.938 191.688C162.199 191.949 162.329 192.289 162.329 192.708C162.329 192.889 162.301 193.082 162.244 193.286C162.199 193.479 162.097 193.773 161.938 194.17L161.071 196.567H159.694L160.374 193.966C160.125 193.864 159.926 193.705 159.779 193.49C159.643 193.263 159.575 193.003 159.575 192.708C159.575 192.289 159.705 191.949 159.966 191.688C160.227 191.427 160.555 191.297 160.952 191.297Z" fill="#526167"/>
<path d="M173.183 194.119C172.265 194.119 171.438 193.921 170.701 193.524C169.965 193.127 169.387 192.578 168.967 191.875C168.559 191.161 168.355 190.356 168.355 189.461C168.355 188.566 168.559 187.767 168.967 187.064C169.387 186.361 169.965 185.812 170.701 185.415C171.438 185.018 172.265 184.82 173.183 184.82C174.113 184.82 174.946 185.018 175.682 185.415C176.419 185.812 176.991 186.361 177.399 187.064C177.819 187.767 178.028 188.566 178.028 189.461C178.028 190.356 177.819 191.161 177.399 191.875C176.991 192.578 176.419 193.127 175.682 193.524C174.946 193.921 174.113 194.119 173.183 194.119ZM173.183 192.3C173.965 192.3 174.611 192.039 175.121 191.518C175.631 190.997 175.886 190.311 175.886 189.461C175.886 188.611 175.631 187.925 175.121 187.404C174.611 186.883 173.965 186.622 173.183 186.622C172.401 186.622 171.755 186.883 171.245 187.404C170.747 187.925 170.497 188.611 170.497 189.461C170.497 190.311 170.747 190.997 171.245 191.518C171.755 192.039 172.401 192.3 173.183 192.3Z" fill="#526167"/>
<path d="M182.084 186.248C182.696 185.296 183.772 184.82 185.314 184.82V186.843C185.132 186.809 184.968 186.792 184.821 186.792C183.993 186.792 183.347 187.036 182.883 187.523C182.418 187.999 182.186 188.69 182.186 189.597V194H180.061V184.922H182.084V186.248Z" fill="#526167"/>
<path d="M197.354 193.507C197.105 193.711 196.799 193.864 196.436 193.966C196.085 194.068 195.711 194.119 195.314 194.119C194.317 194.119 193.546 193.858 193.002 193.337C192.458 192.816 192.186 192.056 192.186 191.059V186.69H190.69V184.99H192.186V182.916H194.311V184.99H196.742V186.69H194.311V191.008C194.311 191.45 194.419 191.79 194.634 192.028C194.85 192.255 195.161 192.368 195.569 192.368C196.045 192.368 196.442 192.243 196.759 191.994L197.354 193.507Z" fill="#526167"/>
<path d="M201.126 186.248C201.738 185.296 202.814 184.82 204.356 184.82V186.843C204.174 186.809 204.01 186.792 203.863 186.792C203.035 186.792 202.389 187.036 201.925 187.523C201.46 187.999 201.228 188.69 201.228 189.597V194H199.103V184.922H201.126V186.248Z" fill="#526167"/>
<path d="M209.576 184.82C210.914 184.82 211.934 185.143 212.636 185.789C213.35 186.424 213.707 187.387 213.707 188.679V194H211.701V192.895C211.441 193.292 211.067 193.598 210.579 193.813C210.103 194.017 209.525 194.119 208.845 194.119C208.165 194.119 207.57 194.006 207.06 193.779C206.55 193.541 206.154 193.218 205.87 192.81C205.598 192.391 205.462 191.92 205.462 191.399C205.462 190.583 205.763 189.931 206.363 189.444C206.975 188.945 207.933 188.696 209.236 188.696H211.582V188.56C211.582 187.925 211.39 187.438 211.004 187.098C210.63 186.758 210.069 186.588 209.321 186.588C208.811 186.588 208.307 186.667 207.808 186.826C207.321 186.985 206.907 187.206 206.567 187.489L205.734 185.942C206.21 185.579 206.783 185.302 207.451 185.109C208.12 184.916 208.828 184.82 209.576 184.82ZM209.287 192.572C209.82 192.572 210.29 192.453 210.698 192.215C211.118 191.966 211.412 191.614 211.582 191.161V190.107H209.389C208.165 190.107 207.553 190.509 207.553 191.314C207.553 191.699 207.706 192.005 208.012 192.232C208.318 192.459 208.743 192.572 209.287 192.572Z" fill="#526167"/>
<path d="M225.409 181.386V194H223.369V192.827C223.017 193.258 222.581 193.581 222.06 193.796C221.55 194.011 220.983 194.119 220.36 194.119C219.487 194.119 218.699 193.926 217.997 193.541C217.305 193.156 216.761 192.612 216.365 191.909C215.968 191.195 215.77 190.379 215.77 189.461C215.77 188.543 215.968 187.733 216.365 187.03C216.761 186.327 217.305 185.783 217.997 185.398C218.699 185.013 219.487 184.82 220.36 184.82C220.96 184.82 221.51 184.922 222.009 185.126C222.507 185.33 222.932 185.636 223.284 186.044V181.386H225.409ZM220.615 192.3C221.125 192.3 221.584 192.187 221.992 191.96C222.4 191.722 222.723 191.388 222.961 190.957C223.199 190.526 223.318 190.028 223.318 189.461C223.318 188.894 223.199 188.396 222.961 187.965C222.723 187.534 222.4 187.206 221.992 186.979C221.584 186.741 221.125 186.622 220.615 186.622C220.105 186.622 219.646 186.741 219.238 186.979C218.83 187.206 218.507 187.534 218.269 187.965C218.031 188.396 217.912 188.894 217.912 189.461C217.912 190.028 218.031 190.526 218.269 190.957C218.507 191.388 218.83 191.722 219.238 191.96C219.646 192.187 220.105 192.3 220.615 192.3Z" fill="#526167"/>
<path d="M236.722 189.512C236.722 189.659 236.711 189.869 236.688 190.141H229.565C229.69 190.81 230.013 191.342 230.534 191.739C231.067 192.124 231.724 192.317 232.506 192.317C233.504 192.317 234.325 191.988 234.971 191.331L236.11 192.64C235.702 193.127 235.187 193.496 234.563 193.745C233.94 193.994 233.237 194.119 232.455 194.119C231.458 194.119 230.58 193.921 229.82 193.524C229.061 193.127 228.472 192.578 228.052 191.875C227.644 191.161 227.44 190.356 227.44 189.461C227.44 188.577 227.639 187.784 228.035 187.081C228.443 186.367 229.004 185.812 229.718 185.415C230.432 185.018 231.237 184.82 232.132 184.82C233.016 184.82 233.804 185.018 234.495 185.415C235.198 185.8 235.742 186.35 236.127 187.064C236.524 187.767 236.722 188.583 236.722 189.512ZM232.132 186.52C231.452 186.52 230.874 186.724 230.398 187.132C229.934 187.529 229.65 188.061 229.548 188.73H234.699C234.609 188.073 234.331 187.54 233.866 187.132C233.402 186.724 232.824 186.52 232.132 186.52Z" fill="#526167"/>
<path d="M251.962 184.922L247.712 194.731C247.315 195.717 246.834 196.408 246.267 196.805C245.7 197.213 245.015 197.417 244.21 197.417C243.757 197.417 243.309 197.343 242.867 197.196C242.425 197.049 242.062 196.845 241.779 196.584L242.629 195.02C242.833 195.213 243.071 195.366 243.343 195.479C243.626 195.592 243.91 195.649 244.193 195.649C244.567 195.649 244.873 195.553 245.111 195.36C245.36 195.167 245.587 194.844 245.791 194.391L245.944 194.034L241.983 184.922H244.193L247.049 191.637L249.922 184.922H251.962Z" fill="#526167"/>
<path d="M257.121 194.119C256.203 194.119 255.376 193.921 254.639 193.524C253.902 193.127 253.324 192.578 252.905 191.875C252.497 191.161 252.293 190.356 252.293 189.461C252.293 188.566 252.497 187.767 252.905 187.064C253.324 186.361 253.902 185.812 254.639 185.415C255.376 185.018 256.203 184.82 257.121 184.82C258.05 184.82 258.883 185.018 259.62 185.415C260.357 185.812 260.929 186.361 261.337 187.064C261.756 187.767 261.966 188.566 261.966 189.461C261.966 190.356 261.756 191.161 261.337 191.875C260.929 192.578 260.357 193.127 259.62 193.524C258.883 193.921 258.05 194.119 257.121 194.119ZM257.121 192.3C257.903 192.3 258.549 192.039 259.059 191.518C259.569 190.997 259.824 190.311 259.824 189.461C259.824 188.611 259.569 187.925 259.059 187.404C258.549 186.883 257.903 186.622 257.121 186.622C256.339 186.622 255.693 186.883 255.183 187.404C254.684 187.925 254.435 188.611 254.435 189.461C254.435 190.311 254.684 190.997 255.183 191.518C255.693 192.039 256.339 192.3 257.121 192.3Z" fill="#526167"/>
<path d="M272.787 184.922V194H270.764V192.844C270.424 193.252 269.999 193.569 269.489 193.796C268.979 194.011 268.429 194.119 267.84 194.119C266.627 194.119 265.67 193.785 264.967 193.116C264.276 192.436 263.93 191.433 263.93 190.107V184.922H266.055V189.818C266.055 190.634 266.236 191.246 266.599 191.654C266.973 192.051 267.5 192.249 268.18 192.249C268.939 192.249 269.54 192.017 269.982 191.552C270.435 191.076 270.662 190.396 270.662 189.512V184.922H272.787Z" fill="#526167"/>
<path d="M277.592 186.248C278.204 185.296 279.281 184.82 280.822 184.82V186.843C280.641 186.809 280.477 186.792 280.329 186.792C279.502 186.792 278.856 187.036 278.391 187.523C277.927 187.999 277.694 188.69 277.694 189.597V194H275.569V184.922H277.592V186.248Z" fill="#526167"/>
<path d="M292.438 184.82C293.322 184.82 294.11 185.013 294.801 185.398C295.504 185.783 296.054 186.327 296.45 187.03C296.847 187.733 297.045 188.543 297.045 189.461C297.045 190.379 296.847 191.195 296.45 191.909C296.054 192.612 295.504 193.156 294.801 193.541C294.11 193.926 293.322 194.119 292.438 194.119C291.815 194.119 291.243 194.011 290.721 193.796C290.211 193.581 289.781 193.258 289.429 192.827V194H287.406V181.386H289.531V186.027C289.894 185.63 290.319 185.33 290.806 185.126C291.305 184.922 291.849 184.82 292.438 184.82ZM292.2 192.3C292.982 192.3 293.623 192.039 294.121 191.518C294.631 190.997 294.886 190.311 294.886 189.461C294.886 188.611 294.631 187.925 294.121 187.404C293.623 186.883 292.982 186.622 292.2 186.622C291.69 186.622 291.231 186.741 290.823 186.979C290.415 187.206 290.092 187.534 289.854 187.965C289.616 188.396 289.497 188.894 289.497 189.461C289.497 190.028 289.616 190.526 289.854 190.957C290.092 191.388 290.415 191.722 290.823 191.96C291.231 192.187 291.69 192.3 292.2 192.3Z" fill="#526167"/>
<path d="M299.061 184.922H301.186V194H299.061V184.922ZM300.132 183.426C299.746 183.426 299.423 183.307 299.163 183.069C298.902 182.82 298.772 182.514 298.772 182.151C298.772 181.788 298.902 181.488 299.163 181.25C299.423 181.001 299.746 180.876 300.132 180.876C300.517 180.876 300.84 180.995 301.101 181.233C301.361 181.46 301.492 181.749 301.492 182.1C301.492 182.474 301.361 182.791 301.101 183.052C300.851 183.301 300.528 183.426 300.132 183.426Z" fill="#526167"/>
<path d="M309.432 193.507C309.182 193.711 308.876 193.864 308.514 193.966C308.162 194.068 307.788 194.119 307.392 194.119C306.394 194.119 305.624 193.858 305.08 193.337C304.536 192.816 304.264 192.056 304.264 191.059V186.69H302.768V184.99H304.264V182.916H306.389V184.99H308.82V186.69H306.389V191.008C306.389 191.45 306.496 191.79 306.712 192.028C306.927 192.255 307.239 192.368 307.647 192.368C308.123 192.368 308.519 192.243 308.837 191.994L309.432 193.507Z" fill="#526167"/>
<path d="M315.046 194.119C314.105 194.119 313.261 193.921 312.513 193.524C311.765 193.127 311.181 192.578 310.762 191.875C310.343 191.161 310.133 190.356 310.133 189.461C310.133 188.566 310.343 187.767 310.762 187.064C311.181 186.361 311.759 185.812 312.496 185.415C313.244 185.018 314.094 184.82 315.046 184.82C315.941 184.82 316.723 185.001 317.392 185.364C318.072 185.727 318.582 186.248 318.922 186.928L317.29 187.88C317.029 187.461 316.7 187.149 316.304 186.945C315.918 186.73 315.494 186.622 315.029 186.622C314.236 186.622 313.578 186.883 313.057 187.404C312.535 187.914 312.275 188.6 312.275 189.461C312.275 190.322 312.53 191.014 313.04 191.535C313.561 192.045 314.224 192.3 315.029 192.3C315.494 192.3 315.918 192.198 316.304 191.994C316.7 191.779 317.029 191.461 317.29 191.042L318.922 191.994C318.57 192.674 318.055 193.201 317.375 193.575C316.706 193.938 315.93 194.119 315.046 194.119Z" fill="#526167"/>
<path d="M324.706 194.119C323.788 194.119 322.961 193.921 322.224 193.524C321.487 193.127 320.909 192.578 320.49 191.875C320.082 191.161 319.878 190.356 319.878 189.461C319.878 188.566 320.082 187.767 320.49 187.064C320.909 186.361 321.487 185.812 322.224 185.415C322.961 185.018 323.788 184.82 324.706 184.82C325.635 184.82 326.468 185.018 327.205 185.415C327.942 185.812 328.514 186.361 328.922 187.064C329.341 187.767 329.551 188.566 329.551 189.461C329.551 190.356 329.341 191.161 328.922 191.875C328.514 192.578 327.942 193.127 327.205 193.524C326.468 193.921 325.635 194.119 324.706 194.119ZM324.706 192.3C325.488 192.3 326.134 192.039 326.644 191.518C327.154 190.997 327.409 190.311 327.409 189.461C327.409 188.611 327.154 187.925 326.644 187.404C326.134 186.883 325.488 186.622 324.706 186.622C323.924 186.622 323.278 186.883 322.768 187.404C322.269 187.925 322.02 188.611 322.02 189.461C322.02 190.311 322.269 190.997 322.768 191.518C323.278 192.039 323.924 192.3 324.706 192.3Z" fill="#526167"/>
<path d="M331.583 184.922H333.708V194H331.583V184.922ZM332.654 183.426C332.269 183.426 331.946 183.307 331.685 183.069C331.424 182.82 331.294 182.514 331.294 182.151C331.294 181.788 331.424 181.488 331.685 181.25C331.946 181.001 332.269 180.876 332.654 180.876C333.039 180.876 333.362 180.995 333.623 181.233C333.884 181.46 334.014 181.749 334.014 182.1C334.014 182.474 333.884 182.791 333.623 183.052C333.374 183.301 333.051 183.426 332.654 183.426Z" fill="#526167"/>
<path d="M341.648 184.82C342.793 184.82 343.711 185.154 344.402 185.823C345.093 186.492 345.439 187.483 345.439 188.798V194H343.314V189.07C343.314 188.277 343.127 187.682 342.753 187.285C342.379 186.877 341.846 186.673 341.155 186.673C340.373 186.673 339.755 186.911 339.302 187.387C338.849 187.852 338.622 188.526 338.622 189.41V194H336.497V184.922H338.52V186.095C338.871 185.676 339.313 185.358 339.846 185.143C340.379 184.928 340.979 184.82 341.648 184.82Z" fill="#526167"/>
<path d="M357.865 184.82C358.749 184.82 359.537 185.013 360.228 185.398C360.931 185.783 361.48 186.327 361.877 187.03C362.274 187.733 362.472 188.543 362.472 189.461C362.472 190.379 362.274 191.195 361.877 191.909C361.48 192.612 360.931 193.156 360.228 193.541C359.537 193.926 358.749 194.119 357.865 194.119C356.641 194.119 355.672 193.711 354.958 192.895V197.298H352.833V184.922H354.856V186.112C355.207 185.681 355.638 185.358 356.148 185.143C356.669 184.928 357.242 184.82 357.865 184.82ZM357.627 192.3C358.409 192.3 359.049 192.039 359.548 191.518C360.058 190.997 360.313 190.311 360.313 189.461C360.313 188.611 360.058 187.925 359.548 187.404C359.049 186.883 358.409 186.622 357.627 186.622C357.117 186.622 356.658 186.741 356.25 186.979C355.842 187.206 355.519 187.534 355.281 187.965C355.043 188.396 354.924 188.894 354.924 189.461C354.924 190.028 355.043 190.526 355.281 190.957C355.519 191.388 355.842 191.722 356.25 191.96C356.658 192.187 357.117 192.3 357.627 192.3Z" fill="#526167"/>
<path d="M373.021 189.512C373.021 189.659 373.01 189.869 372.987 190.141H365.864C365.989 190.81 366.312 191.342 366.833 191.739C367.366 192.124 368.023 192.317 368.805 192.317C369.803 192.317 370.624 191.988 371.27 191.331L372.409 192.64C372.001 193.127 371.486 193.496 370.862 193.745C370.239 193.994 369.536 194.119 368.754 194.119C367.757 194.119 366.879 193.921 366.119 193.524C365.36 193.127 364.771 192.578 364.351 191.875C363.943 191.161 363.739 190.356 363.739 189.461C363.739 188.577 363.938 187.784 364.334 187.081C364.742 186.367 365.303 185.812 366.017 185.415C366.731 185.018 367.536 184.82 368.431 184.82C369.315 184.82 370.103 185.018 370.794 185.415C371.497 185.8 372.041 186.35 372.426 187.064C372.823 187.767 373.021 188.583 373.021 189.512ZM368.431 186.52C367.751 186.52 367.173 186.724 366.697 187.132C366.233 187.529 365.949 188.061 365.847 188.73H370.998C370.908 188.073 370.63 187.54 370.165 187.132C369.701 186.724 369.123 186.52 368.431 186.52Z" fill="#526167"/>
<path d="M383.596 189.512C383.596 189.659 383.585 189.869 383.562 190.141H376.439C376.564 190.81 376.887 191.342 377.408 191.739C377.941 192.124 378.598 192.317 379.38 192.317C380.378 192.317 381.199 191.988 381.845 191.331L382.984 192.64C382.576 193.127 382.061 193.496 381.437 193.745C380.814 193.994 380.111 194.119 379.329 194.119C378.332 194.119 377.454 193.921 376.694 193.524C375.935 193.127 375.346 192.578 374.926 191.875C374.518 191.161 374.314 190.356 374.314 189.461C374.314 188.577 374.513 187.784 374.909 187.081C375.317 186.367 375.878 185.812 376.592 185.415C377.306 185.018 378.111 184.82 379.006 184.82C379.89 184.82 380.678 185.018 381.369 185.415C382.072 185.8 382.616 186.35 383.001 187.064C383.398 187.767 383.596 188.583 383.596 189.512ZM379.006 186.52C378.326 186.52 377.748 186.724 377.272 187.132C376.808 187.529 376.524 188.061 376.422 188.73H381.573C381.483 188.073 381.205 187.54 380.74 187.132C380.276 186.724 379.698 186.52 379.006 186.52Z" fill="#526167"/>
<path d="M387.661 186.248C388.273 185.296 389.349 184.82 390.891 184.82V186.843C390.709 186.809 390.545 186.792 390.398 186.792C389.57 186.792 388.924 187.036 388.46 187.523C387.995 187.999 387.763 188.69 387.763 189.597V194H385.638V184.922H387.661V186.248Z" fill="#526167"/>
<path d="M402.932 193.507C402.682 193.711 402.376 193.864 402.014 193.966C401.662 194.068 401.288 194.119 400.892 194.119C399.894 194.119 399.124 193.858 398.58 193.337C398.036 192.816 397.764 192.056 397.764 191.059V186.69H396.268V184.99H397.764V182.916H399.889V184.99H402.32V186.69H399.889V191.008C399.889 191.45 399.996 191.79 400.212 192.028C400.427 192.255 400.739 192.368 401.147 192.368C401.623 192.368 402.019 192.243 402.337 191.994L402.932 193.507Z" fill="#526167"/>
<path d="M408.461 194.119C407.543 194.119 406.715 193.921 405.979 193.524C405.242 193.127 404.664 192.578 404.245 191.875C403.837 191.161 403.633 190.356 403.633 189.461C403.633 188.566 403.837 187.767 404.245 187.064C404.664 186.361 405.242 185.812 405.979 185.415C406.715 185.018 407.543 184.82 408.461 184.82C409.39 184.82 410.223 185.018 410.96 185.415C411.697 185.812 412.269 186.361 412.677 187.064C413.096 187.767 413.306 188.566 413.306 189.461C413.306 190.356 413.096 191.161 412.677 191.875C412.269 192.578 411.697 193.127 410.96 193.524C410.223 193.921 409.39 194.119 408.461 194.119ZM408.461 192.3C409.243 192.3 409.889 192.039 410.399 191.518C410.909 190.997 411.164 190.311 411.164 189.461C411.164 188.611 410.909 187.925 410.399 187.404C409.889 186.883 409.243 186.622 408.461 186.622C407.679 186.622 407.033 186.883 406.523 187.404C406.024 187.925 405.775 188.611 405.775 189.461C405.775 190.311 406.024 190.997 406.523 191.518C407.033 192.039 407.679 192.3 408.461 192.3Z" fill="#526167"/>
<path d="M425.068 184.82C425.952 184.82 426.74 185.013 427.431 185.398C428.134 185.783 428.683 186.327 429.08 187.03C429.477 187.733 429.675 188.543 429.675 189.461C429.675 190.379 429.477 191.195 429.08 191.909C428.683 192.612 428.134 193.156 427.431 193.541C426.74 193.926 425.952 194.119 425.068 194.119C423.844 194.119 422.875 193.711 422.161 192.895V197.298H420.036V184.922H422.059V186.112C422.41 185.681 422.841 185.358 423.351 185.143C423.872 184.928 424.445 184.82 425.068 184.82ZM424.83 192.3C425.612 192.3 426.252 192.039 426.751 191.518C427.261 190.997 427.516 190.311 427.516 189.461C427.516 188.611 427.261 187.925 426.751 187.404C426.252 186.883 425.612 186.622 424.83 186.622C424.32 186.622 423.861 186.741 423.453 186.979C423.045 187.206 422.722 187.534 422.484 187.965C422.246 188.396 422.127 188.894 422.127 189.461C422.127 190.028 422.246 190.526 422.484 190.957C422.722 191.388 423.045 191.722 423.453 191.96C423.861 192.187 424.32 192.3 424.83 192.3Z" fill="#526167"/>
<path d="M440.224 189.512C440.224 189.659 440.213 189.869 440.19 190.141H433.067C433.192 190.81 433.515 191.342 434.036 191.739C434.569 192.124 435.226 192.317 436.008 192.317C437.006 192.317 437.827 191.988 438.473 191.331L439.612 192.64C439.204 193.127 438.689 193.496 438.065 193.745C437.442 193.994 436.739 194.119 435.957 194.119C434.96 194.119 434.082 193.921 433.322 193.524C432.563 193.127 431.974 192.578 431.554 191.875C431.146 191.161 430.942 190.356 430.942 189.461C430.942 188.577 431.141 187.784 431.537 187.081C431.945 186.367 432.506 185.812 433.22 185.415C433.934 185.018 434.739 184.82 435.634 184.82C436.518 184.82 437.306 185.018 437.997 185.415C438.7 185.8 439.244 186.35 439.629 187.064C440.026 187.767 440.224 188.583 440.224 189.512ZM435.634 186.52C434.954 186.52 434.376 186.724 433.9 187.132C433.436 187.529 433.152 188.061 433.05 188.73H438.201C438.111 188.073 437.833 187.54 437.368 187.132C436.904 186.724 436.326 186.52 435.634 186.52Z" fill="#526167"/>
<path d="M450.8 189.512C450.8 189.659 450.788 189.869 450.766 190.141H443.643C443.767 190.81 444.09 191.342 444.612 191.739C445.144 192.124 445.802 192.317 446.584 192.317C447.581 192.317 448.403 191.988 449.049 191.331L450.188 192.64C449.78 193.127 449.264 193.496 448.641 193.745C448.017 193.994 447.315 194.119 446.533 194.119C445.535 194.119 444.657 193.921 443.898 193.524C443.138 193.127 442.549 192.578 442.13 191.875C441.722 191.161 441.518 190.356 441.518 189.461C441.518 188.577 441.716 187.784 442.113 187.081C442.521 186.367 443.082 185.812 443.796 185.415C444.51 185.018 445.314 184.82 446.21 184.82C447.094 184.82 447.881 185.018 448.573 185.415C449.275 185.8 449.819 186.35 450.205 187.064C450.601 187.767 450.8 188.583 450.8 189.512ZM446.21 186.52C445.53 186.52 444.952 186.724 444.476 187.132C444.011 187.529 443.728 188.061 443.626 188.73H448.777C448.686 188.073 448.408 187.54 447.944 187.132C447.479 186.724 446.901 186.52 446.21 186.52Z" fill="#526167"/>
<path d="M454.864 186.248C455.476 185.296 456.552 184.82 458.094 184.82V186.843C457.912 186.809 457.748 186.792 457.601 186.792C456.773 186.792 456.127 187.036 455.663 187.523C455.198 187.999 454.966 188.69 454.966 189.597V194H452.841V184.922H454.864V186.248Z" fill="#526167"/>
<path d="M10.1835 210.922V220H8.1605V218.844C7.8205 219.252 7.3955 219.569 6.8855 219.796C6.3755 220.011 5.82583 220.119 5.2365 220.119C4.02383 220.119 3.06617 219.785 2.3635 219.116C1.67217 218.436 1.3265 217.433 1.3265 216.107V210.922H3.4515V215.818C3.4515 216.634 3.63283 217.246 3.9955 217.654C4.3695 218.051 4.8965 218.249 5.5765 218.249C6.33583 218.249 6.9365 218.017 7.3785 217.552C7.83183 217.076 8.0585 216.396 8.0585 215.512V210.922H10.1835Z" fill="#526167"/>
<path d="M15.7708 220.119C15.0341 220.119 14.3145 220.023 13.6118 219.83C12.9091 219.637 12.3481 219.394 11.9288 219.099L12.7448 217.484C13.1528 217.756 13.6401 217.977 14.2068 218.147C14.7848 218.306 15.3515 218.385 15.9068 218.385C17.1761 218.385 17.8108 218.051 17.8108 217.382C17.8108 217.065 17.6465 216.844 17.3178 216.719C17.0005 216.594 16.4848 216.475 15.7708 216.362C15.0228 216.249 14.4108 216.118 13.9348 215.971C13.4701 215.824 13.0621 215.569 12.7108 215.206C12.3708 214.832 12.2008 214.316 12.2008 213.659C12.2008 212.798 12.5578 212.112 13.2718 211.602C13.9971 211.081 14.9718 210.82 16.1958 210.82C16.8191 210.82 17.4425 210.894 18.0658 211.041C18.6891 211.177 19.1991 211.364 19.5958 211.602L18.7798 213.217C18.0091 212.764 17.1421 212.537 16.1788 212.537C15.5555 212.537 15.0795 212.633 14.7508 212.826C14.4335 213.007 14.2748 213.251 14.2748 213.557C14.2748 213.897 14.4448 214.141 14.7848 214.288C15.1361 214.424 15.6745 214.554 16.3998 214.679C17.1251 214.792 17.7201 214.923 18.1848 215.07C18.6495 215.217 19.0461 215.467 19.3748 215.818C19.7148 216.169 19.8848 216.668 19.8848 217.314C19.8848 218.164 19.5165 218.844 18.7798 219.354C18.0431 219.864 17.0401 220.119 15.7708 220.119Z" fill="#526167"/>
<path d="M21.7148 210.922H23.8398V220H21.7148V210.922ZM22.7858 209.426C22.4005 209.426 22.0775 209.307 21.8168 209.069C21.5561 208.82 21.4258 208.514 21.4258 208.151C21.4258 207.788 21.5561 207.488 21.8168 207.25C22.0775 207.001 22.4005 206.876 22.7858 206.876C23.1711 206.876 23.4941 206.995 23.7548 207.233C24.0155 207.46 24.1458 207.749 24.1458 208.1C24.1458 208.474 24.0155 208.791 23.7548 209.052C23.5055 209.301 23.1825 209.426 22.7858 209.426Z" fill="#526167"/>
<path d="M31.7799 210.82C32.9245 210.82 33.8425 211.154 34.5339 211.823C35.2252 212.492 35.5709 213.483 35.5709 214.798V220H33.4459V215.07C33.4459 214.277 33.2589 213.682 32.8849 213.285C32.5109 212.877 31.9782 212.673 31.2869 212.673C30.5049 212.673 29.8872 212.911 29.4339 213.387C28.9805 213.852 28.7539 214.526 28.7539 215.41V220H26.6289V210.922H28.6519V212.095C29.0032 211.676 29.4452 211.358 29.9779 211.143C30.5105 210.928 31.1112 210.82 31.7799 210.82Z" fill="#526167"/>
<path d="M47.3596 210.922V218.623C47.3596 221.819 45.7276 223.417 42.4636 223.417C41.5909 223.417 40.7636 223.304 39.9816 223.077C39.1996 222.862 38.5536 222.544 38.0436 222.125L38.9956 220.527C39.3922 220.856 39.8909 221.116 40.4916 221.309C41.1036 221.513 41.7212 221.615 42.3446 221.615C43.3419 221.615 44.0729 221.388 44.5376 220.935C45.0022 220.482 45.2346 219.79 45.2346 218.861V218.385C44.8719 218.782 44.4299 219.082 43.9086 219.286C43.3872 219.49 42.8149 219.592 42.1916 219.592C41.3302 219.592 40.5482 219.411 39.8456 219.048C39.1542 218.674 38.6046 218.153 38.1966 217.484C37.7999 216.815 37.6016 216.05 37.6016 215.189C37.6016 214.328 37.7999 213.568 38.1966 212.911C38.6046 212.242 39.1542 211.727 39.8456 211.364C40.5482 211.001 41.3302 210.82 42.1916 210.82C42.8489 210.82 43.4439 210.928 43.9766 211.143C44.5206 211.358 44.9739 211.687 45.3366 212.129V210.922H47.3596ZM42.5146 217.79C43.3192 217.79 43.9766 217.552 44.4866 217.076C45.0079 216.589 45.2686 215.96 45.2686 215.189C45.2686 214.43 45.0079 213.812 44.4866 213.336C43.9766 212.86 43.3192 212.622 42.5146 212.622C41.6986 212.622 41.0299 212.86 40.5086 213.336C39.9986 213.812 39.7436 214.43 39.7436 215.189C39.7436 215.96 39.9986 216.589 40.5086 217.076C41.0299 217.552 41.6986 217.79 42.5146 217.79Z" fill="#526167"/>
<path d="M60.1725 220.17C58.5292 220.17 57.2485 219.711 56.3305 218.793C55.4125 217.864 54.9535 216.538 54.9535 214.815V208.1H57.1635V214.73C57.1635 217.065 58.1722 218.232 60.1895 218.232C62.1955 218.232 63.1985 217.065 63.1985 214.73V208.1H65.3745V214.815C65.3745 216.538 64.9155 217.864 63.9975 218.793C63.0909 219.711 61.8159 220.17 60.1725 220.17Z" fill="#526167"/>
<path d="M73.3656 208.1C74.3969 208.1 75.2923 208.27 76.0516 208.61C76.8223 208.95 77.4116 209.437 77.8196 210.072C78.2276 210.707 78.4316 211.46 78.4316 212.333C78.4316 213.194 78.2276 213.948 77.8196 214.594C77.4116 215.229 76.8223 215.716 76.0516 216.056C75.2923 216.396 74.3969 216.566 73.3656 216.566H70.6796V220H68.4696V208.1H73.3656ZM73.2636 214.696C74.2269 214.696 74.9579 214.492 75.4566 214.084C75.9553 213.676 76.2046 213.092 76.2046 212.333C76.2046 211.574 75.9553 210.99 75.4566 210.582C74.9579 210.174 74.2269 209.97 73.2636 209.97H70.6796V214.696H73.2636Z" fill="#526167"/>
<path d="M80.6385 208.1H82.8485V220H80.6385V208.1Z" fill="#526167"/>
<path d="M86.5433 220.119C86.1579 220.119 85.8293 219.989 85.5573 219.728C85.2853 219.456 85.1493 219.116 85.1493 218.708C85.1493 218.289 85.2796 217.949 85.5403 217.688C85.8123 217.427 86.1466 217.297 86.5433 217.297C86.9399 217.297 87.2686 217.427 87.5293 217.688C87.8013 217.949 87.9372 218.289 87.9372 218.708C87.9372 219.116 87.8013 219.456 87.5293 219.728C87.2573 219.989 86.9286 220.119 86.5433 220.119Z" fill="#526167"/>
<path d="M25.0566 65.4889C26.1446 64.2089 26.8166 62.7369 26.8166 61.2969C26.8166 57.9049 25.2486 55.6009 20.1606 55.6009H0.640625V78.0009H21.1206C26.2086 78.0009 28.4166 75.0569 28.4166 71.3769C28.4166 68.9449 27.0086 66.8969 25.0566 65.4889ZM8.96062 61.0409H16.6406C17.4726 61.0409 18.4966 61.0409 18.4966 62.2569C18.4966 63.4729 17.4726 63.4729 16.6406 63.4729H8.96062V61.0409ZM18.2406 71.9209H8.96062V69.5529H18.2406C19.0726 69.5529 20.0966 69.5529 20.0966 70.7369C20.0966 71.9209 19.0726 71.9209 18.2406 71.9209Z" fill="#88A1AC"/>
<path d="M47.5741 58.8009V69.1689C46.0701 70.6089 43.6701 71.6009 41.3981 71.6009C37.9421 71.6009 36.7581 70.1929 36.7581 66.8969V58.8009H29.0781V70.0329C29.0781 76.9769 33.9741 78.3209 38.2941 78.3209C42.3261 78.3209 45.2701 77.0409 47.5741 75.4409V78.0009H55.2541V58.8009H47.5741Z" fill="#88A1AC"/>
<path d="M75.1464 58.8009L69.8024 72.1449L64.2344 58.8009H55.9144L63.9144 78.0009H67.4344L64.2344 86.0009H72.5544L83.4664 58.8009H75.1464Z" fill="#88A1AC"/>
<path d="M100.742 54.9609H92.7419L84.4219 82.8009H92.4219L100.742 54.9609Z" fill="#88A1AC"/>
<path d="M101.696 70.0969C101.696 76.7529 106.816 78.3209 116 78.3209C125.184 78.3209 130.304 76.7529 130.304 70.5769C130.304 64.7209 124.832 64.1129 116 63.7609C111.136 63.5689 110.336 63.6009 110.336 62.7369C110.336 61.8729 111.136 61.6809 115.04 61.6809C119.104 61.6809 121.024 61.9369 121.024 63.1209H129.344C129.344 57.3929 124.416 55.2809 115.68 55.2809C106.848 55.2809 102.016 57.3929 102.016 62.3209C102.016 67.5369 105.888 69.2009 116 69.5209C121.248 69.6809 121.984 69.8089 121.984 70.7689C121.984 71.6009 121.248 71.9209 116.32 71.9209C111.04 71.9209 110.016 71.1849 110.016 70.0969H101.696Z" fill="#88A1AC"/>
<path d="M143.682 72.2409C141.57 72.2409 139.426 71.7289 138.786 69.6809H156.994C156.994 61.2969 151.906 58.4809 144.002 58.4809C136.162 58.4809 130.946 61.2969 130.946 68.4009C130.946 75.5049 136.162 78.3209 143.682 78.3209C151.586 78.3209 155.714 75.8889 156.674 70.8009H149.154C147.586 72.0489 146.466 72.2409 143.682 72.2409ZM143.97 63.9209C146.018 63.9209 147.938 64.1129 148.802 65.8409H139.138C140.002 64.1129 141.922 63.9209 143.97 63.9209Z" fill="#88A1AC"/>
<path d="M157.953 52.4009V78.0009H165.633V52.4009H157.953Z" fill="#88A1AC"/>
<path d="M166.922 52.4009V78.0009H174.602V52.4009H166.922Z" fill="#88A1AC"/>
<path d="M213.119 65.4889C214.207 64.2089 214.879 62.7369 214.879 61.2969C214.879 57.9049 213.311 55.6009 208.223 55.6009H188.703V78.0009H209.183C214.271 78.0009 216.479 75.0569 216.479 71.3769C216.479 68.9449 215.071 66.8969 213.119 65.4889ZM197.023 61.0409H204.703C205.535 61.0409 206.559 61.0409 206.559 62.2569C206.559 63.4729 205.535 63.4729 204.703 63.4729H197.023V61.0409ZM206.303 71.9209H197.023V69.5529H206.303C207.135 69.5529 208.159 69.5529 208.159 70.7369C208.159 71.9209 207.135 71.9209 206.303 71.9209Z" fill="#88A1AC"/>
<path d="M243.372 55.6009H215.852V62.6409H225.452V78.0009H233.772V62.6409H243.372V55.6009Z" fill="#88A1AC"/>
<path d="M243.696 66.7689C243.696 74.5769 247.92 78.3209 257.776 78.3209C266.768 78.3209 271.408 75.1529 271.76 68.0489H263.248C262.928 70.1929 261.296 71.2809 257.776 71.2809C252.88 71.2809 252.016 69.1689 252.016 66.7689C252.016 64.4009 252.848 62.3209 257.776 62.3209C261.296 62.3209 262.928 63.3769 263.248 65.4889H271.76C271.408 58.4169 266.736 55.2809 257.776 55.2809C247.92 55.2809 243.696 58.9929 243.696 66.7689Z" fill="#88A1AC"/>
<path d="M0.640625 90.4009V95.5209H8.32063V90.4009H0.640625ZM0.640625 96.8009V116.001H8.32063V96.8009H0.640625Z" fill="#88A1AC"/>
<path d="M26.5694 96.4809C22.5374 96.4809 19.5934 97.7609 17.2894 99.3609V96.8009H9.60938V116.001H17.2894V105.633C18.7934 104.193 21.1934 103.201 23.4654 103.201C26.9214 103.201 28.1054 104.609 28.1054 107.905V116.001H35.7854V104.769C35.7854 97.8249 30.8894 96.4809 26.5694 96.4809Z" fill="#88A1AC"/>
<path d="M58.2106 93.6009H49.8906V116.001H58.2106V93.6009Z" fill="#88A1AC"/>
<path d="M76.4444 96.4809C72.4124 96.4809 69.4684 97.7609 67.1644 99.3609V96.8009H59.4844V116.001H67.1644V105.633C68.6684 104.193 71.0684 103.201 73.3404 103.201C76.7964 103.201 77.9804 104.609 77.9804 107.905V116.001H85.6604V104.769C85.6604 97.8249 80.7644 96.4809 76.4444 96.4809Z" fill="#88A1AC"/>
<path d="M104.753 90.4009V99.4249C102.737 97.3769 99.7926 96.4809 96.8166 96.4809C91.8566 96.4809 86.3206 98.6569 86.3206 106.401C86.3206 114.145 91.8566 116.321 96.8166 116.321C99.7926 116.321 102.737 115.425 104.753 113.377V116.001H112.433V90.4009H104.753ZM99.3766 109.921C95.9526 109.921 94.0006 109.217 94.0006 106.401C94.0006 103.585 95.9526 102.881 99.3766 102.881C102.801 102.881 104.753 103.585 104.753 106.401C104.753 109.217 102.801 109.921 99.3766 109.921Z" fill="#88A1AC"/>
<path d="M113.703 90.4009V95.5209H121.383V90.4009H113.703ZM113.703 96.8009V116.001H121.383V96.8009H113.703Z" fill="#88A1AC"/>
<path d="M135.472 96.4809C131.92 96.4809 127.76 97.1849 123.92 98.4329L126.416 103.873C129.936 103.105 132.752 102.881 135.216 102.881C137.776 102.881 140.208 102.977 140.208 105.281C138.448 104.641 136.4 104.289 133.712 104.289C128.112 104.289 122.352 105.601 122.352 110.593C122.352 114.753 126.192 116.321 130.576 116.321C133.904 116.321 137.232 115.841 140.208 113.665V116.001H147.888V106.497C147.824 99.1689 143.344 96.4809 135.472 96.4809ZM140.208 109.729C138.288 110.561 135.472 111.201 132.88 111.201C130.928 111.201 130.032 111.041 130.032 109.985C130.032 108.769 131.568 108.449 135.12 108.449C137.328 108.449 138.992 108.609 140.208 108.929V109.729Z" fill="#88A1AC"/>
<path d="M180.48 96.8009V107.169C178.976 108.609 176.576 109.601 174.304 109.601C170.848 109.601 169.664 108.193 169.664 104.897V96.8009H161.984V108.033C161.984 114.977 166.88 116.321 171.2 116.321C175.232 116.321 178.176 115.041 180.48 113.441V116.001H188.16V96.8009H180.48Z" fill="#88A1AC"/>
<path d="M189.133 109.377C189.133 115.393 195.533 116.321 202.797 116.321C210.061 116.321 215.181 115.393 215.181 109.537C215.181 104.513 210.349 104.065 202.797 103.681C197.933 103.425 197.133 103.457 197.133 102.657C197.133 101.921 198.253 101.921 202.157 101.921C205.581 101.921 206.861 101.921 206.861 102.945H214.541C214.541 97.4089 209.581 96.4809 202.477 96.4809C195.373 96.4809 189.453 97.4089 189.453 102.881C189.453 107.777 193.325 108.449 202.157 108.801C206.765 108.993 207.501 108.897 207.501 109.857C207.501 110.689 206.765 110.881 202.477 110.881C197.837 110.881 196.813 110.465 196.813 109.377H189.133Z" fill="#88A1AC"/>
<path d="M216.141 90.4009V95.5209H223.821V90.4009H216.141ZM216.141 96.8009V116.001H223.821V96.8009H216.141Z" fill="#88A1AC"/>
<path d="M242.069 96.4809C238.037 96.4809 235.093 97.7609 232.789 99.3609V96.8009H225.109V116.001H232.789V105.633C234.293 104.193 236.693 103.201 238.965 103.201C242.421 103.201 243.605 104.609 243.605 107.905V116.001H251.285V104.769C251.285 97.8249 246.389 96.4809 242.069 96.4809Z" fill="#88A1AC"/>
<path d="M270.69 96.8009V99.6809C269.026 97.6649 266.306 96.4809 262.434 96.4809C256.514 96.4809 252.258 99.2969 252.258 105.761C252.258 112.225 256.514 115.041 262.434 115.041C266.306 115.041 269.026 113.857 270.69 111.841C270.626 116.705 268.61 117.601 264.866 117.601C260.706 117.601 256.482 116.673 254.274 116.257V122.497C256.098 122.977 260.802 124.001 266.274 124.001C272.866 124.001 278.37 121.217 278.37 113.537V96.8009H270.69ZM265.314 108.641C261.25 108.641 259.938 107.937 259.938 105.761C259.938 103.585 261.25 102.881 265.314 102.881C269.378 102.881 270.69 103.585 270.69 105.761C270.69 107.937 269.378 108.641 265.314 108.641Z" fill="#88A1AC"/>
<path d="M320.613 104.769V93.6009H312.293V104.769C312.293 107.137 311.429 109.281 306.533 109.281C301.637 109.281 300.773 107.169 300.773 104.769V93.6009H292.453V104.769C292.453 112.577 296.677 116.321 306.533 116.321C316.357 116.321 320.613 112.545 320.613 104.769Z" fill="#88A1AC"/>
<path d="M339.491 93.6009H321.891V116.001H330.211V110.753H339.491C344.579 110.753 348.067 107.169 348.067 102.177C348.067 97.1849 344.579 93.6009 339.491 93.6009ZM337.891 103.713H330.211V100.641H337.891C338.723 100.641 339.747 100.641 339.747 102.177C339.747 103.713 338.723 103.713 337.891 103.713Z" fill="#88A1AC"/>
<path d="M357.336 93.6009H349.016V116.001H357.336V93.6009Z" fill="#88A1AC"/>
<path d="M1.46094 0.117188H4.11294V12.0002H1.46094V0.117188Z" fill="#21728D"/>
<path d="M9.25105 6.90019V12.0002H6.70105V2.85419H9.25105V3.87419C10.0217 3.09219 10.8887 2.70119 11.8521 2.70119C12.8154 2.70119 13.6201 3.04119 14.2661 3.72119C14.9234 4.40119 15.2521 5.30786 15.2521 6.44119V12.0002H12.7021V6.83219C12.7021 5.42685 12.1864 4.72419 11.1551 4.72419C10.6451 4.72419 10.1974 4.91119 9.81205 5.28519C9.43805 5.64785 9.25105 6.18619 9.25105 6.90019Z" fill="#21728D"/>
<path d="M19.8741 12.0002L16.2531 2.83719H18.9051L21.1831 8.60019L23.4611 2.83719H26.1131L22.4921 12.0002H19.8741Z" fill="#21728D"/>
<path d="M35.292 10.6742C34.2607 11.6489 33.048 12.1362 31.654 12.1362C30.2713 12.1362 29.1267 11.7112 28.22 10.8612C27.3133 9.99986 26.86 8.84952 26.86 7.41019C26.86 5.97085 27.319 4.82619 28.237 3.97619C29.1663 3.12619 30.26 2.70119 31.518 2.70119C32.776 2.70119 33.8413 3.08085 34.714 3.84019C35.598 4.59952 36.04 5.64219 36.04 6.96819V8.32819H29.376C29.4553 8.82686 29.716 9.23485 30.158 9.55219C30.6 9.86952 31.0987 10.0282 31.654 10.0282C32.5493 10.0282 33.286 9.72786 33.864 9.12719L35.292 10.6742ZM33.456 6.50919C33.3993 5.96519 33.1953 5.54585 32.844 5.25119C32.4927 4.95652 32.062 4.80919 31.552 4.80919C31.0533 4.80919 30.5943 4.96219 30.175 5.26819C29.7557 5.57419 29.512 5.98785 29.444 6.50919H33.456Z" fill="#21728D"/>
<path d="M44.7638 9.16119C44.7638 10.0565 44.4295 10.7762 43.7608 11.3202C43.1035 11.8642 42.2648 12.1362 41.2448 12.1362C40.5648 12.1362 39.8565 12.0172 39.1198 11.7792C38.3831 11.5299 37.7201 11.1672 37.1308 10.6912L38.2528 9.09319C39.2048 9.82985 40.2191 10.1982 41.2958 10.1982C41.6245 10.1982 41.8851 10.1359 42.0778 10.0112C42.2705 9.87519 42.3668 9.69952 42.3668 9.48419C42.3668 9.26885 42.2308 9.07052 41.9588 8.88919C41.6981 8.70786 41.3128 8.53786 40.8028 8.37919C40.3041 8.22052 39.9188 8.08452 39.6468 7.97119C39.3861 7.85785 39.0858 7.69352 38.7458 7.47819C38.0545 7.04752 37.7088 6.41285 37.7088 5.57419C37.7088 4.72419 38.0488 4.03286 38.7288 3.50019C39.4088 2.96752 40.2871 2.70119 41.3638 2.70119C42.4405 2.70119 43.5171 3.06385 44.5938 3.78919L43.6418 5.48919C42.8485 4.94519 42.0551 4.67319 41.2618 4.67319C40.4798 4.67319 40.0888 4.88852 40.0888 5.31919C40.0888 5.55719 40.2135 5.74419 40.4628 5.88019C40.7121 6.01619 41.1258 6.17485 41.7038 6.35619C42.2818 6.53752 42.6898 6.67919 42.9278 6.78119C43.1771 6.87185 43.4718 7.01919 43.8118 7.22319C44.4465 7.60852 44.7638 8.25452 44.7638 9.16119Z" fill="#21728D"/>
<path d="M49.6874 4.69019V8.78719C49.6874 9.13852 49.7781 9.41619 49.9594 9.62019C50.1407 9.81286 50.3561 9.90919 50.6054 9.90919C51.0814 9.90919 51.4837 9.69386 51.8124 9.26319L52.7644 11.0482C51.9711 11.7735 51.1324 12.1362 50.2484 12.1362C49.3757 12.1362 48.6334 11.8472 48.0214 11.2692C47.4207 10.6912 47.1204 9.90352 47.1204 8.90619V4.69019H46.0494V2.85419H47.1204V0.117188H49.6874V2.85419H51.8974V4.69019H49.6874Z" fill="#21728D"/>
</svg>
