<svg width="52" height="82" viewBox="0 0 52 82" fill="none" xmlns="http://www.w3.org/2000/svg">
<rect x="47.1875" y="8.09766" width="3.86983" height="3.86983" fill="#FFF594"/>
<rect x="43.3184" y="8.09766" width="3.86983" height="3.86983" fill="#FFF594"/>
<rect x="43.3184" y="11.9668" width="3.86983" height="3.86983" fill="#FFF594"/>
<rect x="43.3184" y="15.8359" width="3.86983" height="3.86983" fill="#FFF594"/>
<rect x="43.3184" y="19.707" width="3.86983" height="3.86983" fill="#FFF594"/>
<rect x="43.3184" y="23.5762" width="3.86983" height="3.86983" fill="#FFF594"/>
<rect x="43.3184" y="27.4463" width="3.86983" height="3.86983" fill="#FFF594"/>
<rect x="43.3184" y="31.3164" width="3.86983" height="3.86983" fill="black"/>
<rect x="43.3184" y="35.1855" width="3.86983" height="3.86983" fill="black"/>
<rect x="43.3184" y="39.0557" width="3.86983" height="3.86983" fill="black"/>
<rect x="43.3184" y="42.9258" width="3.86983" height="3.86983" fill="black"/>
<rect x="43.3184" y="46.7949" width="3.86983" height="3.86983" fill="black"/>
<rect x="43.3184" y="50.665" width="3.86983" height="3.86983" fill="black"/>
<rect x="43.3184" y="54.5352" width="3.86983" height="3.86983" fill="black"/>
<rect x="39.4473" y="58.4053" width="3.86983" height="3.86983" fill="black"/>
<rect x="35.5801" y="62.2744" width="3.86983" height="3.86983" fill="black"/>
<rect x="31.709" y="66.1445" width="3.86983" height="3.86983" fill="black"/>
<rect x="27.8418" y="66.1445" width="3.86983" height="3.86983" fill="black"/>
<rect x="27.8418" y="70.0146" width="3.86983" height="3.86983" fill="black"/>
<rect x="27.8418" y="73.8838" width="3.86983" height="3.86983" fill="black"/>
<rect x="27.8418" y="77.7539" width="3.86983" height="3.86983" fill="black"/>
<rect x="23.9668" y="66.1445" width="3.86983" height="3.86983" fill="black"/>
<rect x="20.0977" y="62.2744" width="3.86983" height="3.86983" fill="black"/>
<rect x="47.1875" y="19.707" width="3.86983" height="3.86983" fill="#FFF594"/>
<rect x="39.4473" y="8.09766" width="3.86983" height="3.86983" fill="#FFF594"/>
<rect x="39.4473" y="15.8359" width="3.86983" height="3.86983" fill="#FFF594"/>
<rect x="39.4473" y="11.9668" width="3.86983" height="3.86983" fill="#FFF594"/>
<rect x="39.4473" y="4.22656" width="3.86983" height="3.86983" fill="#FFF594"/>
<rect x="39.4473" y="19.707" width="3.86983" height="3.86983" fill="#FFF594"/>
<rect x="39.4473" y="0.357422" width="3.86983" height="3.86983" fill="#FFF594"/>
<rect x="35.5801" y="8.09766" width="3.86983" height="3.86983" fill="#FFF594"/>
<rect x="35.5801" y="15.8359" width="3.86983" height="3.86983" fill="#FFF594"/>
<rect x="35.5801" y="11.9668" width="3.86983" height="3.86983" fill="#FFF594"/>
<rect x="35.5801" y="4.22656" width="3.86983" height="3.86983" fill="#FFF594"/>
<rect x="31.709" y="8.09766" width="3.86983" height="3.86983" fill="#FFF594"/>
<rect x="31.709" y="11.9668" width="3.86983" height="3.86983" fill="#FFF594"/>
<rect x="31.709" y="4.22656" width="3.86983" height="3.86983" fill="#FFF594"/>
<rect x="31.709" y="0.357422" width="3.86983" height="3.86983" fill="#FFF594"/>
<rect x="27.8418" y="8.09766" width="3.86983" height="3.86983" fill="#FFF594"/>
<rect x="27.8418" y="11.9668" width="3.86983" height="3.86983" fill="#FFF594"/>
<rect x="27.8418" y="19.707" width="3.86983" height="3.86983" fill="#FFF594"/>
<rect x="27.8418" y="15.8359" width="3.86983" height="3.86983" fill="#FFF594"/>
<rect x="27.8418" y="23.5762" width="3.86983" height="3.86983" fill="#FFF594"/>
<rect x="27.8418" y="0.357422" width="3.86983" height="3.86983" fill="#FFF594"/>
<rect x="27.8418" y="4.22656" width="3.86983" height="3.86983" fill="#FFF594"/>
<rect x="23.9668" y="8.09766" width="3.86983" height="3.86983" fill="#FFF594"/>
<rect x="23.9668" y="11.9668" width="3.86983" height="3.86983" fill="#FFF594"/>
<rect x="23.9668" y="15.8359" width="3.86983" height="3.86983" fill="#FFF594"/>
<rect x="23.9668" y="4.22656" width="3.86983" height="3.86983" fill="#FFF594"/>
<rect x="20.0977" y="8.09766" width="3.86983" height="3.86983" fill="#FFF594"/>
<rect x="23.9668" y="0.357422" width="3.86983" height="3.86983" fill="#FFF594"/>
<rect x="20.0977" y="11.9668" width="3.86983" height="3.86983" fill="#FFF594"/>
<rect x="20.0977" y="15.8359" width="3.86983" height="3.86983" fill="#FFF594"/>
<rect x="20.0977" y="4.22656" width="3.86983" height="3.86983" fill="#FFF594"/>
<rect x="20.0977" y="0.357422" width="3.86983" height="3.86983" fill="#FFF594"/>
<rect x="16.2285" y="11.9668" width="3.86983" height="3.86983" fill="#FFF594"/>
<rect x="16.2285" y="8.09766" width="3.86983" height="3.86983" fill="#FFF594"/>
<rect x="16.2285" y="15.8359" width="3.86983" height="3.86983" fill="#FFF594"/>
<rect x="16.2285" y="19.707" width="3.86983" height="3.86983" fill="#FFF594"/>
<rect x="16.2285" y="0.357422" width="3.86983" height="3.86983" fill="#FFF594"/>
<rect x="16.2285" y="4.22656" width="3.86983" height="3.86983" fill="#FFF594"/>
<rect x="12.3633" y="8.09766" width="3.86983" height="3.86983" fill="#FFF594"/>
<rect x="12.3633" y="11.9668" width="3.86983" height="3.86983" fill="#FFF594"/>
<rect x="12.3633" y="15.8359" width="3.86983" height="3.86983" fill="#FFF594"/>
<rect x="12.3633" y="4.22656" width="3.86983" height="3.86983" fill="#FFF594"/>
<rect x="12.3633" y="0.357422" width="3.86983" height="3.86983" fill="#FFF594"/>
<rect x="8.48828" y="8.09766" width="3.86983" height="3.86983" fill="#FFF594"/>
<rect x="8.48828" y="19.707" width="3.86983" height="3.86983" fill="#FFF594"/>
<rect x="4.61914" y="19.707" width="3.86983" height="3.86983" fill="#FFF594"/>
<rect x="0.75" y="19.707" width="3.86983" height="3.86983" fill="#FFF594"/>
<rect x="8.48828" y="11.9668" width="3.86983" height="3.86983" fill="#FFF594"/>
<rect x="8.48828" y="23.5762" width="3.86983" height="3.86983" fill="#FFF594"/>
<rect x="12.3633" y="23.5762" width="3.86983" height="3.86983" fill="#FFF594"/>
<rect x="8.48828" y="15.8359" width="3.86983" height="3.86983" fill="#FFF594"/>
<rect x="8.48828" y="27.4463" width="3.86983" height="3.86983" fill="#FFF594"/>
<rect x="4.61914" y="31.3164" width="3.86983" height="3.86983" fill="#FFF594"/>
<rect x="4.61914" y="35.1855" width="3.86983" height="3.86983" fill="#FFF594"/>
<rect x="0.75" y="39.0557" width="3.86983" height="3.86983" fill="#FFF594"/>
<rect x="8.48828" y="39.0557" width="3.86983" height="3.86983" fill="black"/>
<rect x="8.48828" y="42.9258" width="3.86983" height="3.86983" fill="black"/>
<rect x="4.61914" y="42.9258" width="3.86983" height="3.86983" fill="#FFF594"/>
<rect x="8.48828" y="46.7949" width="3.86983" height="3.86983" fill="black"/>
<rect x="8.48828" y="50.665" width="3.86983" height="3.86983" fill="black"/>
<rect x="8.48828" y="54.5352" width="3.86983" height="3.86983" fill="black"/>
<rect x="12.3633" y="58.4053" width="3.86983" height="3.86983" fill="black"/>
<rect x="12.3633" y="62.2744" width="3.86983" height="3.86983" fill="black"/>
<rect x="12.3633" y="66.1445" width="3.86983" height="3.86983" fill="black"/>
<rect x="12.3633" y="70.0146" width="3.86983" height="3.86983" fill="black"/>
<rect x="12.3633" y="73.8838" width="3.86983" height="3.86983" fill="black"/>
<rect x="12.3633" y="77.7539" width="3.86983" height="3.86983" fill="black"/>
<rect x="8.48828" y="4.22656" width="3.86983" height="3.86983" fill="#FFF594"/>
<rect x="4.61914" y="11.9668" width="3.86983" height="3.86983" fill="#FFF594"/>
<rect x="4.61914" y="8.09766" width="3.86983" height="3.86983" fill="#FFF594"/>
<rect x="0.75" y="11.9668" width="3.86983" height="3.86983" fill="#FFF594"/>
<rect x="4.61914" y="15.8359" width="3.86983" height="3.86983" fill="#FFF594"/>
<rect x="31.709" y="15.8359" width="3.86983" height="3.86983" fill="#7EA16B"/>
<rect x="31.709" y="19.707" width="3.86983" height="3.86983" fill="#7EA16B"/>
<rect x="31.709" y="23.5762" width="3.86983" height="3.86983" fill="#7EA16B"/>
<rect x="31.709" y="27.4463" width="3.86983" height="3.86983" fill="#7EA16B"/>
<rect x="39.4473" y="27.4463" width="3.86983" height="3.86983" fill="#7EA16B"/>
<rect x="39.4473" y="23.5762" width="3.86983" height="3.86983" fill="#7EA16B"/>
<rect x="27.8418" y="27.4463" width="3.86983" height="3.86983" fill="#7EA16B"/>
<rect x="35.5801" y="27.4463" width="3.86983" height="3.86983" fill="#7EA16B"/>
<rect x="35.5801" y="23.5762" width="3.86983" height="3.86983" fill="#7EA16B"/>
<rect x="35.5801" y="19.707" width="3.86983" height="3.86983" fill="#7EA16B"/>
<rect x="23.9668" y="27.4463" width="3.86983" height="3.86983" fill="#7EA16B"/>
<rect x="20.0977" y="27.4463" width="3.86983" height="3.86983" fill="#7EA16B"/>
<rect x="16.2285" y="27.4463" width="3.86983" height="3.86983" fill="#7EA16B"/>
<rect x="23.9668" y="19.707" width="3.86983" height="3.86983" fill="#7EA16B"/>
<rect x="20.0977" y="19.707" width="3.86983" height="3.86983" fill="#7EA16B"/>
<rect x="31.709" y="31.3164" width="3.86983" height="3.86983" fill="#7EA16B"/>
<rect x="39.4473" y="31.3164" width="3.86983" height="3.86983" fill="#7EA16B"/>
<rect x="39.4473" y="35.1855" width="3.86983" height="3.86983" fill="#7EA16B"/>
<rect x="39.4473" y="39.0557" width="3.86983" height="3.86983" fill="#7EA16B"/>
<rect x="39.4473" y="42.9258" width="3.86983" height="3.86983" fill="#7EA16B"/>
<rect x="35.5801" y="39.0557" width="3.86983" height="3.86983" fill="#7EA16B"/>
<rect x="35.5801" y="42.9258" width="3.86983" height="3.86983" fill="#7EA16B"/>
<rect x="39.4473" y="46.7949" width="3.86983" height="3.86983" fill="#7EA16B"/>
<rect x="35.5801" y="46.7949" width="3.86983" height="3.86983" fill="#7EA16B"/>
<rect x="39.4473" y="50.665" width="3.86983" height="3.86983" fill="#7EA16B"/>
<rect x="39.4473" y="54.5352" width="3.86983" height="3.86983" fill="#7EA16B"/>
<rect x="35.5801" y="50.665" width="3.86983" height="3.86983" fill="#7EA16B"/>
<rect x="35.5801" y="54.5352" width="3.86983" height="3.86983" fill="#7EA16B"/>
<rect x="35.5801" y="58.4053" width="3.86983" height="3.86983" fill="#7EA16B"/>
<rect x="31.709" y="62.2744" width="3.86983" height="3.86983" fill="#7EA16B"/>
<rect x="31.709" y="58.4053" width="3.86983" height="3.86983" fill="#7EA16B"/>
<rect x="27.8418" y="58.4053" width="3.86983" height="3.86983" fill="#7EA16B"/>
<rect x="27.8418" y="62.2744" width="3.86983" height="3.86983" fill="#7EA16B"/>
<rect x="23.9668" y="58.4053" width="3.86983" height="3.86983" fill="#7EA16B"/>
<rect x="23.9668" y="62.2744" width="3.86983" height="3.86983" fill="#7EA16B"/>
<rect x="27.8418" y="31.3164" width="3.86983" height="3.86983" fill="#7EA16B"/>
<rect x="20.0977" y="58.4053" width="3.86983" height="3.86983" fill="#7EA16B"/>
<rect x="23.9668" y="31.3164" width="3.86983" height="3.86983" fill="#7EA16B"/>
<rect x="35.5801" y="31.3164" width="3.86983" height="3.86983" fill="#7EA16B"/>
<rect x="20.0977" y="31.3164" width="3.86983" height="3.86983" fill="#7EA16B"/>
<rect x="23.9668" y="23.5762" width="3.86983" height="3.86983" fill="#7EA16B"/>
<rect x="16.2285" y="31.3164" width="3.86983" height="3.86983" fill="#7EA16B"/>
<rect x="16.2285" y="23.5762" width="3.86983" height="3.86983" fill="#7EA16B"/>
<rect x="20.0977" y="23.5762" width="3.86983" height="3.86983" fill="#7EA16B"/>
<rect x="31.709" y="35.1855" width="3.86983" height="3.86983" fill="#7EA16B"/>
<rect x="27.8418" y="35.1855" width="3.86983" height="3.86983" fill="#7EA16B"/>
<rect x="23.9668" y="35.1855" width="3.86983" height="3.86983" fill="#7EA16B"/>
<rect x="20.0977" y="35.1855" width="3.86983" height="3.86983" fill="#7EA16B"/>
<rect x="31.709" y="39.0557" width="3.86983" height="3.86983" fill="#7EA16B"/>
<rect x="27.8418" y="39.0557" width="3.86983" height="3.86983" fill="#7EA16B"/>
<rect x="20.0977" y="39.0557" width="3.86983" height="3.86983" fill="#7EA16B"/>
<rect x="23.9668" y="39.0557" width="3.86983" height="3.86983" fill="#7EA16B"/>
<rect x="16.2285" y="39.0557" width="3.86983" height="3.86983" fill="#7EA16B"/>
<rect x="12.3633" y="39.0557" width="3.86983" height="3.86983" fill="#7EA16B"/>
<rect x="4.61914" y="39.0557" width="3.86983" height="3.86983" fill="#7EA16B"/>
<rect x="12.3633" y="27.4463" width="3.86983" height="3.86983" fill="#7EA16B"/>
<rect x="12.3633" y="19.707" width="3.86983" height="3.86983" fill="#7EA16B"/>
<rect x="31.709" y="42.9258" width="3.86983" height="3.86983" fill="#7EA16B"/>
<rect x="27.8418" y="42.9258" width="3.86983" height="3.86983" fill="#7EA16B"/>
<rect x="23.9668" y="42.9258" width="3.86983" height="3.86983" fill="#7EA16B"/>
<rect x="20.0977" y="42.9258" width="3.86983" height="3.86983" fill="#7EA16B"/>
<rect x="16.2285" y="42.9258" width="3.86983" height="3.86983" fill="#7EA16B"/>
<rect x="12.3633" y="42.9258" width="3.86983" height="3.86983" fill="#7EA16B"/>
<rect x="12.3633" y="31.3164" width="3.86983" height="3.86983" fill="#7EA16B"/>
<rect x="23.9668" y="46.7949" width="3.86983" height="3.86983" fill="#7EA16B"/>
<rect x="8.48828" y="31.3164" width="3.86983" height="3.86983" fill="#7EA16B"/>
<rect x="20.0977" y="46.7949" width="3.86983" height="3.86983" fill="#7EA16B"/>
<rect x="16.2285" y="46.7949" width="3.86983" height="3.86983" fill="#7EA16B"/>
<rect x="12.3633" y="46.7949" width="3.86983" height="3.86983" fill="#7EA16B"/>
<rect x="12.3633" y="35.1855" width="3.86983" height="3.86983" fill="#7EA16B"/>
<rect x="8.48828" y="35.1855" width="3.86983" height="3.86983" fill="#7EA16B"/>
<rect x="23.9668" y="50.665" width="3.86983" height="3.86983" fill="#7EA16B"/>
<rect x="27.8418" y="50.665" width="3.86983" height="3.86983" fill="#7EA16B"/>
<rect x="20.0977" y="50.665" width="3.86983" height="3.86983" fill="#7EA16B"/>
<rect x="20.0977" y="54.5352" width="3.86983" height="3.86983" fill="#7EA16B"/>
<rect x="16.2285" y="50.665" width="3.86983" height="3.86983" fill="#7EA16B"/>
<rect x="12.3633" y="50.665" width="3.86983" height="3.86983" fill="#7EA16B"/>
<rect x="16.2285" y="54.5352" width="3.86983" height="3.86983" fill="#7EA16B"/>
<rect x="12.3633" y="54.5352" width="3.86983" height="3.86983" fill="#7EA16B"/>
<rect x="16.2285" y="58.4053" width="3.86983" height="3.86983" fill="#7EA16B"/>
<rect x="16.2285" y="62.2744" width="3.86983" height="3.86983" fill="#7EA16B"/>
<rect x="16.2285" y="66.1445" width="3.86983" height="3.86983" fill="#7EA16B"/>
<rect x="20.0977" y="66.1445" width="3.86983" height="3.86983" fill="#7EA16B"/>
<rect x="16.2285" y="70.0146" width="3.86983" height="3.86983" fill="#7EA16B"/>
<rect x="20.0977" y="70.0146" width="3.86983" height="3.86983" fill="#7EA16B"/>
<rect x="23.9668" y="70.0146" width="3.86983" height="3.86983" fill="#7EA16B"/>
<rect x="16.2285" y="73.8838" width="3.86983" height="3.86983" fill="#7EA16B"/>
<rect x="20.0977" y="73.8838" width="3.86983" height="3.86983" fill="#7EA16B"/>
<rect x="23.9668" y="73.8838" width="3.86983" height="3.86983" fill="#7EA16B"/>
<rect x="16.2285" y="77.7539" width="3.86983" height="3.86983" fill="#7EA16B"/>
<rect x="20.0977" y="77.7539" width="3.86983" height="3.86983" fill="#7EA16B"/>
<rect x="23.9668" y="77.7539" width="3.86983" height="3.86983" fill="#7EA16B"/>
<rect x="31.709" y="46.7949" width="3.86983" height="3.86983" fill="#7EA16B"/>
<rect x="31.709" y="50.665" width="3.86983" height="3.86983" fill="#7EA16B"/>
<rect x="35.5801" y="35.1855" width="3.86983" height="3.86983" fill="#2E5393"/>
<rect x="16.2285" y="35.1855" width="3.86983" height="3.86983" fill="#2E5393"/>
<rect x="27.8418" y="46.7949" width="3.86983" height="3.86983" fill="#298F16"/>
<rect x="31.709" y="54.5352" width="3.86983" height="3.86983" fill="#2E5393"/>
<rect x="27.8418" y="54.5352" width="3.86983" height="3.86983" fill="#2E5393"/>
<rect x="23.9668" y="54.5352" width="3.86983" height="3.86983" fill="#2E5393"/>
<rect x="16.2285" y="31.3164" width="3.86983" height="3.86983" fill="#298F16"/>
<rect x="35.5801" y="31.3164" width="3.86983" height="3.86983" fill="#298F16"/>
<rect x="20.0977" y="31.3164" width="3.86983" height="3.86983" fill="#298F16"/>
<rect x="39.4473" y="31.3164" width="3.86983" height="3.86983" fill="#298F16"/>
<rect x="20.0977" y="35.1855" width="3.86983" height="3.86983" fill="#31AF49"/>
<rect x="39.4473" y="35.1855" width="3.86983" height="3.86983" fill="#31AF49"/>
</svg>
