<svg width="526" height="66" viewBox="0 0 526 66" fill="none" xmlns="http://www.w3.org/2000/svg">
<path opacity="0.337353" fill-rule="evenodd" clip-rule="evenodd" d="M344.688 46.5C344.688 45.2969 343.703 44.3125 342.5 44.3125C341.297 44.3125 340.313 45.2969 340.313 46.5C340.313 47.7032 341.297 48.6875 342.5 48.6875C343.703 48.6875 344.688 47.7032 344.688 46.5ZM350.375 42.125V22.875C350.375 22.4102 349.965 22 349.5 22H335.5C335.035 22 334.625 22.4102 334.625 22.875V42.125C334.625 42.5899 335.035 43 335.5 43H349.5C349.965 43 350.375 42.5899 350.375 42.125ZM345.125 18.9375C345.125 18.6914 344.934 18.5 344.688 18.5H340.313C340.066 18.5 339.875 18.6914 339.875 18.9375C339.875 19.1836 340.066 19.375 340.313 19.375H344.688C344.934 19.375 345.125 19.1836 345.125 18.9375ZM353 18.5V46.5C353 48.4141 351.414 50 349.5 50H335.5C333.586 50 332 48.4141 332 46.5V18.5C332 16.5859 333.586 15 335.5 15H349.5C351.414 15 353 16.5859 353 18.5Z" fill="#6C7A84"/>
<path d="M387.681 27.1504C387.161 27.1504 386.66 27.082 386.177 26.9453C385.698 26.8086 385.249 26.6012 384.83 26.3232C384.411 26.0407 384.044 25.7012 383.729 25.3047C383.42 24.9036 383.174 24.4251 382.991 23.8691C382.813 23.3132 382.725 22.7093 382.725 22.0576C382.725 21.2601 382.857 20.5309 383.121 19.8701C383.385 19.2048 383.741 18.6556 384.188 18.2227C384.639 17.7897 385.154 17.4548 385.732 17.2178C386.316 16.9808 386.929 16.8623 387.571 16.8623C388.856 16.8623 389.941 17.2155 390.825 17.9219L390.203 19.0088C389.456 18.4756 388.622 18.209 387.701 18.209C387.072 18.209 386.505 18.373 385.999 18.7012C385.493 19.0247 385.097 19.4782 384.81 20.0615C384.522 20.6449 384.379 21.3034 384.379 22.0371C384.379 23.1855 384.696 24.1016 385.329 24.7852C385.967 25.4642 386.781 25.8037 387.77 25.8037C388.754 25.8037 389.679 25.4688 390.545 24.7988L391.071 26.0498C390.114 26.7835 388.984 27.1504 387.681 27.1504Z" fill="#4E5C60"/>
<path d="M396 25.9131C396.67 25.9131 397.169 25.6921 397.497 25.25C397.825 24.8034 397.989 24.2087 397.989 23.4658C397.989 22.7367 397.818 22.151 397.477 21.709C397.139 21.2669 396.64 21.0459 395.979 21.0459C395.3 21.0459 394.788 21.2692 394.441 21.7158C394.095 22.1579 393.922 22.7458 393.922 23.4795C393.922 24.1995 394.095 24.7852 394.441 25.2363C394.792 25.6875 395.312 25.9131 396 25.9131ZM395.788 27.1572C395.241 27.1572 394.747 27.057 394.305 26.8564C393.863 26.6514 393.505 26.3779 393.231 26.0361C392.958 25.6943 392.748 25.3115 392.603 24.8877C392.461 24.4593 392.391 24.0104 392.391 23.541C392.391 23.0488 392.466 22.5794 392.616 22.1328C392.771 21.6862 392.99 21.2897 393.272 20.9434C393.555 20.597 393.915 20.3213 394.353 20.1162C394.795 19.9111 395.282 19.8086 395.815 19.8086C396.28 19.8086 396.695 19.9089 397.06 20.1094C397.424 20.3053 397.716 20.5697 397.935 20.9023V19.9863H399.432V27H397.907V25.9473C397.698 26.3118 397.408 26.6058 397.039 26.8291C396.674 27.0479 396.257 27.1572 395.788 27.1572Z" fill="#4E5C60"/>
<path d="M401.537 27V16.958H403.062V27H401.537Z" fill="#4E5C60"/>
<path d="M405.146 27V16.958H406.671V27H405.146Z" fill="#4E5C60"/>
<path d="M415.441 27.1572C414.562 27.1572 413.89 26.9066 413.425 26.4053C412.965 25.8994 412.734 25.2272 412.734 24.3887V19.9863H414.252V24.375C414.252 24.89 414.38 25.2751 414.635 25.5303C414.895 25.7855 415.261 25.9131 415.735 25.9131C416.282 25.9131 416.697 25.7673 416.979 25.4756C417.262 25.1839 417.403 24.751 417.403 24.1768V19.9863H418.935V25.168C418.935 25.7513 418.957 26.362 419.003 27H417.431L417.403 25.9336C417.349 26.0612 417.273 26.1888 417.178 26.3164C417.082 26.444 416.957 26.5762 416.802 26.7129C416.647 26.8451 416.451 26.9521 416.214 27.0342C415.977 27.1162 415.719 27.1572 415.441 27.1572Z" fill="#4E5C60"/>
<path d="M423.631 27.1572C423.02 27.1572 422.469 27.0684 421.977 26.8906C421.484 26.7129 421.097 26.5124 420.814 26.2891L421.211 25.168C421.489 25.3776 421.84 25.5576 422.264 25.708C422.688 25.8584 423.102 25.9336 423.508 25.9336C424.319 25.9336 424.725 25.6351 424.725 25.0381C424.725 24.8102 424.64 24.6348 424.472 24.5117C424.303 24.3841 423.945 24.2269 423.398 24.04L422.742 23.8145C422.432 23.7096 422.179 23.6094 421.983 23.5137C421.787 23.418 421.596 23.2949 421.409 23.1445C421.222 22.9941 421.083 22.8096 420.992 22.5908C420.906 22.3721 420.862 22.1123 420.862 21.8115C420.862 21.4652 420.933 21.1621 421.074 20.9023C421.215 20.638 421.409 20.4307 421.655 20.2803C421.901 20.1253 422.173 20.0114 422.469 19.9385C422.765 19.861 423.082 19.8223 423.419 19.8223C423.893 19.8223 424.344 19.8815 424.772 20C425.201 20.1185 425.565 20.2757 425.866 20.4717L425.456 21.5381C425.215 21.4105 424.916 21.2943 424.561 21.1895C424.21 21.0846 423.879 21.0322 423.569 21.0322C422.763 21.0322 422.359 21.2738 422.359 21.7568C422.359 21.9756 422.43 22.1396 422.571 22.249C422.717 22.3584 423.034 22.4997 423.521 22.6729C423.54 22.6774 423.651 22.7161 423.856 22.7891C424.066 22.862 424.185 22.903 424.212 22.9121C424.476 23.0033 424.693 23.0876 424.861 23.165C425.03 23.238 425.203 23.3337 425.381 23.4521C425.563 23.5706 425.704 23.6982 425.805 23.835C425.905 23.9717 425.987 24.1403 426.051 24.3408C426.119 24.5413 426.153 24.7715 426.153 25.0312C426.153 25.4141 426.078 25.749 425.928 26.0361C425.782 26.3187 425.584 26.5397 425.333 26.6992C425.082 26.8542 424.813 26.9681 424.526 27.041C424.244 27.1185 423.945 27.1572 423.631 27.1572Z" fill="#4E5C60"/>
<path d="M391.828 44.212H387.742V48.28H387.058V44.212H382.972V43.492H387.058V39.406H387.742V43.492H391.828V44.212Z" fill="black"/>
<path d="M397.815 36.04C399.303 36.04 400.449 36.574 401.253 37.642C402.057 38.71 402.459 40.228 402.459 42.196C402.459 44.404 402.045 46.114 401.217 47.326C400.401 48.538 399.249 49.144 397.761 49.144C397.041 49.144 396.345 49 395.673 48.712C395.001 48.412 394.395 47.992 393.855 47.452L394.233 46.822C394.857 47.374 395.451 47.782 396.015 48.046C396.579 48.298 397.167 48.424 397.779 48.424C399.003 48.424 399.957 47.872 400.641 46.768C401.337 45.664 401.685 44.134 401.685 42.178V41.494C401.409 42.298 400.929 42.928 400.245 43.384C399.561 43.84 398.775 44.068 397.887 44.068C397.083 44.068 396.375 43.9 395.763 43.564C395.151 43.228 394.677 42.76 394.341 42.16C394.005 41.548 393.837 40.846 393.837 40.054C393.837 39.286 394.005 38.602 394.341 38.002C394.689 37.39 395.163 36.91 395.763 36.562C396.375 36.214 397.059 36.04 397.815 36.04ZM397.869 43.348C398.517 43.348 399.093 43.21 399.597 42.934C400.113 42.658 400.509 42.274 400.785 41.782C401.073 41.278 401.217 40.708 401.217 40.072C401.217 39.088 400.905 38.29 400.281 37.678C399.657 37.066 398.847 36.76 397.851 36.76C396.891 36.76 396.111 37.066 395.511 37.678C394.923 38.278 394.629 39.076 394.629 40.072C394.629 41.056 394.929 41.848 395.529 42.448C396.129 43.048 396.909 43.348 397.869 43.348Z" fill="black"/>
<path d="M412.604 48.316V49H406.142V48.316H409.004V37.282L406.34 39.064V38.2L409.004 36.418V36.292L409.076 36.364L409.346 36.184H409.76V48.316H412.604Z" fill="black"/>
<path d="M428.293 36.184V36.742L422.137 49H421.309L427.447 36.868H420.247V36.184H428.293Z" fill="black"/>
<path d="M434.694 36.04C436.182 36.04 437.328 36.574 438.132 37.642C438.936 38.71 439.338 40.228 439.338 42.196C439.338 44.404 438.924 46.114 438.096 47.326C437.28 48.538 436.128 49.144 434.64 49.144C433.92 49.144 433.224 49 432.552 48.712C431.88 48.412 431.274 47.992 430.734 47.452L431.112 46.822C431.736 47.374 432.33 47.782 432.894 48.046C433.458 48.298 434.046 48.424 434.658 48.424C435.882 48.424 436.836 47.872 437.52 46.768C438.216 45.664 438.564 44.134 438.564 42.178V41.494C438.288 42.298 437.808 42.928 437.124 43.384C436.44 43.84 435.654 44.068 434.766 44.068C433.962 44.068 433.254 43.9 432.642 43.564C432.03 43.228 431.556 42.76 431.22 42.16C430.884 41.548 430.716 40.846 430.716 40.054C430.716 39.286 430.884 38.602 431.22 38.002C431.568 37.39 432.042 36.91 432.642 36.562C433.254 36.214 433.938 36.04 434.694 36.04ZM434.748 43.348C435.396 43.348 435.972 43.21 436.476 42.934C436.992 42.658 437.388 42.274 437.664 41.782C437.952 41.278 438.096 40.708 438.096 40.072C438.096 39.088 437.784 38.29 437.16 37.678C436.536 37.066 435.726 36.76 434.73 36.76C433.77 36.76 432.99 37.066 432.39 37.678C431.802 38.278 431.508 39.076 431.508 40.072C431.508 41.056 431.808 41.848 432.408 42.448C433.008 43.048 433.788 43.348 434.748 43.348Z" fill="black"/>
<path d="M445.487 36.04C446.975 36.04 448.121 36.574 448.925 37.642C449.729 38.71 450.131 40.228 450.131 42.196C450.131 44.404 449.717 46.114 448.889 47.326C448.073 48.538 446.921 49.144 445.433 49.144C444.713 49.144 444.017 49 443.345 48.712C442.673 48.412 442.067 47.992 441.527 47.452L441.905 46.822C442.529 47.374 443.123 47.782 443.687 48.046C444.251 48.298 444.839 48.424 445.451 48.424C446.675 48.424 447.629 47.872 448.313 46.768C449.009 45.664 449.357 44.134 449.357 42.178V41.494C449.081 42.298 448.601 42.928 447.917 43.384C447.233 43.84 446.447 44.068 445.559 44.068C444.755 44.068 444.047 43.9 443.435 43.564C442.823 43.228 442.349 42.76 442.013 42.16C441.677 41.548 441.509 40.846 441.509 40.054C441.509 39.286 441.677 38.602 442.013 38.002C442.361 37.39 442.835 36.91 443.435 36.562C444.047 36.214 444.731 36.04 445.487 36.04ZM445.541 43.348C446.189 43.348 446.765 43.21 447.269 42.934C447.785 42.658 448.181 42.274 448.457 41.782C448.745 41.278 448.889 40.708 448.889 40.072C448.889 39.088 448.577 38.29 447.953 37.678C447.329 37.066 446.519 36.76 445.523 36.76C444.563 36.76 443.783 37.066 443.183 37.678C442.595 38.278 442.301 39.076 442.301 40.072C442.301 41.056 442.601 41.848 443.201 42.448C443.801 43.048 444.581 43.348 445.541 43.348Z" fill="black"/>
<path d="M457.072 41.098C458.296 41.098 459.262 41.47 459.97 42.214C460.678 42.946 461.032 43.918 461.032 45.13C461.032 45.898 460.87 46.588 460.546 47.2C460.222 47.8 459.754 48.274 459.142 48.622C458.542 48.958 457.834 49.126 457.018 49.126C456.262 49.126 455.518 48.976 454.786 48.676C454.054 48.376 453.424 47.962 452.896 47.434L453.274 46.804C454.474 47.872 455.722 48.406 457.018 48.406C458.002 48.406 458.782 48.106 459.358 47.506C459.946 46.906 460.24 46.108 460.24 45.112C460.24 44.14 459.952 43.354 459.376 42.754C458.812 42.142 458.068 41.836 457.144 41.836C456.412 41.836 455.788 41.986 455.272 42.286C454.756 42.574 454.306 43.03 453.922 43.654H453.202V36.184H460.582V36.886H453.976V42.52C454.324 42.064 454.762 41.716 455.29 41.476C455.83 41.224 456.424 41.098 457.072 41.098Z" fill="black"/>
<path d="M471.663 48.316V49H463.725V48.424L468.333 43.222C469.029 42.442 469.527 41.752 469.827 41.152C470.127 40.54 470.277 39.928 470.277 39.316C470.277 38.5 470.043 37.87 469.575 37.426C469.107 36.982 468.441 36.76 467.577 36.76C466.905 36.76 466.263 36.892 465.651 37.156C465.039 37.42 464.427 37.822 463.815 38.362L463.437 37.732C463.941 37.216 464.565 36.808 465.309 36.508C466.053 36.196 466.797 36.04 467.541 36.04C468.633 36.04 469.491 36.334 470.115 36.922C470.751 37.498 471.069 38.29 471.069 39.298C471.069 40.03 470.895 40.75 470.547 41.458C470.199 42.166 469.635 42.958 468.855 43.834L464.787 48.316H471.663Z" fill="black"/>
<path d="M479.792 42.412C480.56 42.628 481.142 43.006 481.538 43.546C481.934 44.074 482.132 44.74 482.132 45.544C482.132 46.648 481.778 47.524 481.07 48.172C480.362 48.808 479.414 49.126 478.226 49.126C477.422 49.126 476.654 48.982 475.922 48.694C475.19 48.394 474.56 47.974 474.032 47.434L474.41 46.804C475.01 47.344 475.622 47.746 476.246 48.01C476.87 48.274 477.536 48.406 478.244 48.406C479.216 48.406 479.972 48.166 480.512 47.686C481.064 47.194 481.34 46.498 481.34 45.598C481.34 44.686 481.052 44.002 480.476 43.546C479.912 43.078 479.078 42.844 477.974 42.844H476.696V42.124H477.704C478.76 42.124 479.582 41.872 480.17 41.368C480.758 40.852 481.052 40.132 481.052 39.208C481.052 38.428 480.818 37.828 480.35 37.408C479.882 36.976 479.222 36.76 478.37 36.76C477.71 36.76 477.074 36.892 476.462 37.156C475.85 37.42 475.232 37.822 474.608 38.362L474.23 37.732C474.734 37.192 475.346 36.778 476.066 36.49C476.798 36.19 477.56 36.04 478.352 36.04C479.42 36.04 480.272 36.328 480.908 36.904C481.544 37.468 481.862 38.242 481.862 39.226C481.862 39.982 481.676 40.642 481.304 41.206C480.932 41.77 480.428 42.172 479.792 42.412Z" fill="black"/>
<path d="M493.051 36.184V36.742L486.895 49H486.067L492.205 36.868H485.005V36.184H493.051Z" fill="black"/>
<path d="M503.844 36.184V36.742L497.688 49H496.86L502.998 36.868H495.798V36.184H503.844Z" fill="black"/>
<path d="M514.637 36.184V36.742L508.481 49H507.653L513.791 36.868H506.591V36.184H514.637Z" fill="black"/>
<path d="M525.43 36.184V36.742L519.274 49H518.446L524.584 36.868H517.384V36.184H525.43Z" fill="black"/>
<path opacity="0.11447" fill-rule="evenodd" clip-rule="evenodd" d="M283 66V0H284V66H283Z" fill="black"/>
<path d="M58.7546 24.9531L55.9656 15H57.6472C57.7976 15.5833 58.0164 16.4287 58.3035 17.5361C58.5951 18.639 58.8549 19.6393 59.0828 20.5371C59.3152 21.4303 59.5271 22.2826 59.7185 23.0938C59.9418 22.2734 60.1856 21.4189 60.45 20.5303C60.7188 19.637 61.0264 18.6344 61.3728 17.5225C61.7192 16.4105 61.9789 15.5697 62.1521 15H63.6833L65.5837 21.1113L66.158 23.1143C66.3403 22.3031 66.543 21.4463 66.7664 20.5439C66.9897 19.637 67.238 18.639 67.5115 17.5498C67.7849 16.4561 67.9968 15.6061 68.1472 15H69.7742L67.0535 24.9531H65.2283L62.8767 17.1533L60.5525 24.9531H58.7546Z" fill="#4E5C60"/>
<path d="M71.032 24.9531V19.6895C71.032 19.498 71.0229 19.2565 71.0046 18.9648C70.9864 18.6732 70.9682 18.4294 70.95 18.2334L70.9226 17.9395H72.5496V18.9307C73.0554 18.1514 73.6524 17.7617 74.3406 17.7617C74.5684 17.7617 74.8054 17.7959 75.0515 17.8643V19.2109C74.7872 19.1198 74.5138 19.0742 74.2312 19.0742C73.7345 19.0742 73.3334 19.2428 73.0281 19.5801C72.7227 19.9128 72.5701 20.389 72.5701 21.0088V24.9531H71.032Z" fill="#4E5C60"/>
<path d="M76.4187 16.3672V15H77.9089V16.3672H76.4187ZM76.4119 24.9531V17.9395H77.9089V24.9531H76.4119Z" fill="#4E5C60"/>
<path d="M83.9519 24.9463H83.2957C82.7944 24.9463 82.3819 24.9144 82.0583 24.8506C81.7348 24.7868 81.4477 24.666 81.197 24.4883C80.9464 24.3105 80.7641 24.0553 80.6501 23.7227C80.5408 23.39 80.4861 22.9616 80.4861 22.4375V18.9648H79.0916V17.9395H80.5271V16.2305L82.0105 15.7861V17.9395H83.9246V18.9648H82.0105V22.5264C82.0105 22.8135 82.0356 23.0368 82.0857 23.1963C82.1358 23.3512 82.2406 23.4743 82.4001 23.5654C82.5597 23.6566 82.7511 23.7135 82.9744 23.7363C83.1977 23.7591 83.5235 23.7705 83.9519 23.7705V24.9463Z" fill="#4E5C60"/>
<path d="M86.8845 20.6602H90.5076C90.4483 20.1087 90.2706 19.6872 89.9744 19.3955C89.6827 19.1038 89.3067 18.958 88.8464 18.958C88.3315 18.958 87.9008 19.1084 87.5544 19.4092C87.2126 19.71 86.9893 20.127 86.8845 20.6602ZM88.9832 25.1104C87.8347 25.1104 86.9255 24.7754 86.2556 24.1055C85.5857 23.4355 85.2507 22.5514 85.2507 21.4531C85.2507 20.7741 85.3897 20.1566 85.6677 19.6006C85.9457 19.0446 86.3559 18.6003 86.8982 18.2676C87.4405 17.9303 88.0671 17.7617 88.7781 17.7617C89.3022 17.7617 89.7647 17.8551 90.1658 18.042C90.5714 18.2243 90.8949 18.4818 91.1365 18.8145C91.3826 19.1426 91.5671 19.5231 91.6902 19.9561C91.8132 20.3844 91.8748 20.8584 91.8748 21.3779C91.8748 21.4736 91.8634 21.5785 91.8406 21.6924H86.8503C86.8777 22.4124 87.0942 22.9548 87.4998 23.3193C87.9054 23.6839 88.4386 23.8662 89.0994 23.8662C89.8969 23.8662 90.6306 23.611 91.3005 23.1006L91.7312 24.2217C90.9428 24.8141 90.0268 25.1104 88.9832 25.1104Z" fill="#4E5C60"/>
<path d="M101.766 24.9463H101.11C100.609 24.9463 100.196 24.9144 99.8728 24.8506C99.5492 24.7868 99.2621 24.666 99.0115 24.4883C98.7608 24.3105 98.5785 24.0553 98.4646 23.7227C98.3552 23.39 98.3005 22.9616 98.3005 22.4375V18.9648H96.906V17.9395H98.3416V16.2305L99.825 15.7861V17.9395H101.739V18.9648H99.825V22.5264C99.825 22.8135 99.85 23.0368 99.9001 23.1963C99.9503 23.3512 100.055 23.4743 100.215 23.5654C100.374 23.6566 100.566 23.7135 100.789 23.7363C101.012 23.7591 101.338 23.7705 101.766 23.7705V24.9463Z" fill="#4E5C60"/>
<path d="M106.729 25.1104C106.141 25.1104 105.61 25.0146 105.136 24.8232C104.667 24.6318 104.282 24.3698 103.981 24.0371C103.685 23.7044 103.457 23.3193 103.298 22.8818C103.143 22.4398 103.065 21.9613 103.065 21.4463C103.065 20.7445 103.202 20.1201 103.475 19.5732C103.749 19.0218 104.166 18.582 104.726 18.2539C105.291 17.9258 105.961 17.7617 106.736 17.7617C107.329 17.7617 107.857 17.8551 108.322 18.042C108.787 18.2288 109.165 18.4909 109.457 18.8281C109.748 19.1608 109.969 19.5505 110.12 19.9971C110.275 20.4391 110.352 20.9268 110.352 21.46C110.352 21.9658 110.273 22.4375 110.113 22.875C109.958 23.3125 109.733 23.6999 109.436 24.0371C109.145 24.3698 108.764 24.6318 108.295 24.8232C107.83 25.0146 107.308 25.1104 106.729 25.1104ZM106.722 23.8662C107.397 23.8662 107.903 23.6406 108.24 23.1895C108.582 22.7383 108.753 22.1549 108.753 21.4395C108.753 20.7148 108.58 20.127 108.233 19.6758C107.887 19.2246 107.381 18.999 106.716 18.999C106.05 18.999 105.542 19.2246 105.191 19.6758C104.84 20.127 104.665 20.7148 104.665 21.4395C104.665 22.1549 104.838 22.7383 105.184 23.1895C105.531 23.6406 106.043 23.8662 106.722 23.8662Z" fill="#4E5C60"/>
<path d="M118.829 25.1104C117.949 25.1104 117.277 24.8597 116.812 24.3584C116.352 23.8525 116.122 23.1803 116.122 22.3418V17.9395H117.639V22.3281C117.639 22.8431 117.767 23.2282 118.022 23.4834C118.282 23.7386 118.649 23.8662 119.123 23.8662C119.67 23.8662 120.084 23.7204 120.367 23.4287C120.649 23.137 120.791 22.7041 120.791 22.1299V17.9395H122.322V23.1211C122.322 23.7044 122.345 24.3151 122.39 24.9531H120.818L120.791 23.8867C120.736 24.0143 120.661 24.1419 120.565 24.2695C120.469 24.3971 120.344 24.5293 120.189 24.666C120.034 24.7982 119.838 24.9053 119.601 24.9873C119.364 25.0693 119.107 25.1104 118.829 25.1104Z" fill="#4E5C60"/>
<path d="M127.018 25.1104C126.408 25.1104 125.856 25.0215 125.364 24.8438C124.872 24.666 124.484 24.4655 124.202 24.2422L124.598 23.1211C124.876 23.3307 125.227 23.5107 125.651 23.6611C126.075 23.8115 126.49 23.8867 126.895 23.8867C127.706 23.8867 128.112 23.5882 128.112 22.9912C128.112 22.7633 128.028 22.5879 127.859 22.4648C127.691 22.3372 127.333 22.18 126.786 21.9932L126.13 21.7676C125.82 21.6628 125.567 21.5625 125.371 21.4668C125.175 21.3711 124.983 21.248 124.797 21.0977C124.61 20.9473 124.471 20.7627 124.38 20.5439C124.293 20.3252 124.25 20.0654 124.25 19.7646C124.25 19.4183 124.32 19.1152 124.462 18.8555C124.603 18.5911 124.797 18.3838 125.043 18.2334C125.289 18.0785 125.56 17.9645 125.856 17.8916C126.152 17.8141 126.469 17.7754 126.806 17.7754C127.28 17.7754 127.732 17.8346 128.16 17.9531C128.588 18.0716 128.953 18.2288 129.254 18.4248L128.844 19.4912C128.602 19.3636 128.303 19.2474 127.948 19.1426C127.597 19.0378 127.267 18.9854 126.957 18.9854C126.15 18.9854 125.747 19.2269 125.747 19.71C125.747 19.9287 125.817 20.0928 125.959 20.2021C126.105 20.3115 126.421 20.4528 126.909 20.626C126.927 20.6305 127.039 20.6693 127.244 20.7422C127.454 20.8151 127.572 20.8561 127.599 20.8652C127.864 20.9564 128.08 21.0407 128.249 21.1182C128.417 21.1911 128.591 21.2868 128.768 21.4053C128.951 21.5238 129.092 21.6514 129.192 21.7881C129.292 21.9248 129.374 22.0934 129.438 22.2939C129.507 22.4945 129.541 22.7246 129.541 22.9844C129.541 23.3672 129.466 23.7021 129.315 23.9893C129.169 24.2718 128.971 24.4928 128.72 24.6523C128.47 24.8073 128.201 24.9212 127.914 24.9941C127.631 25.0716 127.333 25.1104 127.018 25.1104Z" fill="#4E5C60"/>
<path d="M60.2479 46.0791C58.8319 46.0791 57.7159 45.6711 56.8999 44.8551L57.2419 44.2251C57.7219 44.6331 58.1899 44.9211 58.6459 45.0891C59.1139 45.2451 59.6659 45.3231 60.3019 45.3231C61.1059 45.3231 61.7179 45.1851 62.1379 44.9091C62.5579 44.6211 62.7679 44.2071 62.7679 43.6671C62.7679 43.2351 62.6299 42.8931 62.3539 42.6411C62.0779 42.3771 61.6339 42.1671 61.0219 42.0111L59.4919 41.6511C58.8079 41.4951 58.2559 41.2011 57.8359 40.7691C57.4159 40.3371 57.2059 39.8451 57.2059 39.2931C57.2059 38.5251 57.4939 37.9071 58.0699 37.4391C58.6579 36.9711 59.4439 36.7371 60.4279 36.7371C61.0639 36.7371 61.6459 36.8451 62.1739 37.0611C62.7139 37.2651 63.1459 37.5591 63.4699 37.9431L63.1099 38.5911C62.7019 38.2191 62.2819 37.9431 61.8499 37.7631C61.4179 37.5711 60.9439 37.4751 60.4279 37.4751C59.6719 37.4751 59.0839 37.6251 58.6639 37.9251C58.2559 38.2251 58.0519 38.6451 58.0519 39.1851C58.0519 39.6411 58.1839 40.0071 58.4479 40.2831C58.7119 40.5591 59.1199 40.7631 59.6719 40.8951L61.2199 41.2731C62.0119 41.4531 62.6059 41.7411 63.0019 42.1371C63.3979 42.5331 63.5959 43.0251 63.5959 43.6131C63.5959 44.3451 63.2899 44.9391 62.6779 45.3951C62.0779 45.8511 61.2679 46.0791 60.2479 46.0791Z" fill="black"/>
<path d="M73.2293 36.9531V45.9531H72.5093V44.2431C72.2213 44.8311 71.8013 45.2871 71.2493 45.6111C70.7093 45.9231 70.0973 46.0791 69.4133 46.0791C68.3813 46.0791 67.5953 45.7911 67.0553 45.2151C66.5153 44.6271 66.2453 43.7691 66.2453 42.6411V36.9531H66.9833V42.5691C66.9833 43.5171 67.1753 44.2191 67.5593 44.6751C67.9553 45.1191 68.5553 45.3411 69.3593 45.3411C70.3073 45.3411 71.0633 45.0471 71.6273 44.4591C72.2033 43.8591 72.4913 43.0671 72.4913 42.0831V36.9531H73.2293Z" fill="black"/>
<path d="M80.3131 36.7371C81.1051 36.7371 81.8011 36.9351 82.4011 37.3311C83.0131 37.7151 83.4871 38.2611 83.8231 38.9691C84.1591 39.6771 84.3271 40.4991 84.3271 41.4351C84.3271 42.3711 84.1591 43.1871 83.8231 43.8831C83.4991 44.5791 83.0311 45.1191 82.4191 45.5031C81.8071 45.8871 81.1051 46.0791 80.3131 46.0791C79.5331 46.0791 78.8731 45.9111 78.3331 45.5751C77.7931 45.2271 77.3911 44.7231 77.1271 44.0631V49.8411H76.3891V39.4371C76.3891 38.5011 76.3411 37.6731 76.2451 36.9531H76.9651L77.1091 38.7891C77.3611 38.1291 77.7631 37.6251 78.3151 37.2771C78.8671 36.9171 79.5331 36.7371 80.3131 36.7371ZM80.3131 45.3411C81.3211 45.3411 82.1011 44.9991 82.6531 44.3151C83.2171 43.6311 83.4991 42.6711 83.4991 41.4351C83.4991 40.1871 83.2171 39.2151 82.6531 38.5191C82.1011 37.8231 81.3271 37.4751 80.3311 37.4751C79.2991 37.4751 78.5071 37.8171 77.9551 38.5011C77.4151 39.1731 77.1451 40.1391 77.1451 41.3991C77.1451 42.6591 77.4151 43.6311 77.9551 44.3151C78.5071 44.9991 79.2931 45.3411 80.3131 45.3411Z" fill="black"/>
<path d="M90.8073 36.7371C91.5993 36.7371 92.2953 36.9351 92.8953 37.3311C93.5073 37.7151 93.9813 38.2611 94.3173 38.9691C94.6533 39.6771 94.8213 40.4991 94.8213 41.4351C94.8213 42.3711 94.6533 43.1871 94.3173 43.8831C93.9933 44.5791 93.5253 45.1191 92.9133 45.5031C92.3013 45.8871 91.5993 46.0791 90.8073 46.0791C90.0273 46.0791 89.3673 45.9111 88.8273 45.5751C88.2873 45.2271 87.8853 44.7231 87.6213 44.0631V49.8411H86.8833V39.4371C86.8833 38.5011 86.8353 37.6731 86.7393 36.9531H87.4593L87.6033 38.7891C87.8553 38.1291 88.2573 37.6251 88.8093 37.2771C89.3613 36.9171 90.0273 36.7371 90.8073 36.7371ZM90.8073 45.3411C91.8153 45.3411 92.5953 44.9991 93.1473 44.3151C93.7113 43.6311 93.9933 42.6711 93.9933 41.4351C93.9933 40.1871 93.7113 39.2151 93.1473 38.5191C92.5953 37.8231 91.8213 37.4751 90.8253 37.4751C89.7933 37.4751 89.0013 37.8171 88.4493 38.5011C87.9093 39.1731 87.6393 40.1391 87.6393 41.3991C87.6393 42.6591 87.9093 43.6311 88.4493 44.3151C89.0013 44.9991 89.7873 45.3411 90.8073 45.3411Z" fill="black"/>
<path d="M100.779 46.0791C99.9874 46.0791 99.2854 45.8871 98.6734 45.5031C98.0614 45.1191 97.5874 44.5731 97.2514 43.8651C96.9274 43.1571 96.7654 42.3351 96.7654 41.3991C96.7654 40.4631 96.9274 39.6471 97.2514 38.9511C97.5874 38.2431 98.0614 37.6971 98.6734 37.3131C99.2854 36.9291 99.9874 36.7371 100.779 36.7371C101.571 36.7371 102.267 36.9291 102.867 37.3131C103.479 37.6971 103.947 38.2431 104.271 38.9511C104.607 39.6471 104.775 40.4631 104.775 41.3991C104.775 42.3351 104.607 43.1571 104.271 43.8651C103.947 44.5731 103.479 45.1191 102.867 45.5031C102.267 45.8871 101.571 46.0791 100.779 46.0791ZM100.761 45.3411C101.781 45.3411 102.567 44.9991 103.119 44.3151C103.683 43.6311 103.965 42.6591 103.965 41.3991C103.965 40.1751 103.683 39.2151 103.119 38.5191C102.555 37.8231 101.775 37.4751 100.779 37.4751C99.7834 37.4751 98.9974 37.8231 98.4214 38.5191C97.8574 39.2031 97.5754 40.1631 97.5754 41.3991C97.5754 42.6711 97.8514 43.6491 98.4034 44.3331C98.9554 45.0051 99.7414 45.3411 100.761 45.3411Z" fill="black"/>
<path d="M110.909 36.7371C111.245 36.7371 111.497 36.7551 111.665 36.7911L111.611 37.4751C111.467 37.4511 111.227 37.4391 110.891 37.4391C110.231 37.4391 109.691 37.5951 109.271 37.9071C108.851 38.2071 108.545 38.5971 108.353 39.0771C108.161 39.5451 108.065 40.0371 108.065 40.5531V45.9531H107.327V39.4371C107.327 38.5011 107.279 37.6731 107.183 36.9531H107.903L108.029 38.6451C108.269 38.0211 108.641 37.5471 109.145 37.2231C109.661 36.8991 110.249 36.7371 110.909 36.7371Z" fill="black"/>
<path d="M115.105 37.6011V43.3431C115.105 44.1111 115.243 44.6391 115.519 44.9271C115.807 45.2031 116.227 45.3411 116.779 45.3411C117.139 45.3411 117.475 45.2871 117.787 45.1791V45.9171C117.427 46.0131 117.067 46.0611 116.707 46.0611C115.987 46.0611 115.411 45.8631 114.979 45.4671C114.559 45.0591 114.349 44.4351 114.349 43.5951V37.6011H112.549V36.9531H114.349V34.5051L115.105 34.1811V36.9531H117.841V37.6011H115.105Z" fill="black"/>
<path d="M126.791 48.6351C125.267 48.6351 123.935 48.3111 122.795 47.6631C121.655 47.0271 120.773 46.1271 120.149 44.9631C119.537 43.7991 119.231 42.4491 119.231 40.9131C119.231 39.3651 119.561 37.9971 120.221 36.8091C120.881 35.6091 121.781 34.6851 122.921 34.0371C124.073 33.3771 125.357 33.0471 126.773 33.0471C128.309 33.0471 129.617 33.3771 130.697 34.0371C131.789 34.6971 132.605 35.5371 133.145 36.5571C133.697 37.5651 133.973 38.6031 133.973 39.6711C133.973 40.9311 133.787 41.9451 133.415 42.7131C133.043 43.4691 132.581 44.0031 132.029 44.3151C131.489 44.6271 130.937 44.7831 130.373 44.7831C129.713 44.7831 129.209 44.6451 128.861 44.3691C128.525 44.0811 128.351 43.6611 128.339 43.1091H128.303C128.003 43.6251 127.607 44.0331 127.115 44.3331C126.635 44.6331 126.095 44.7831 125.495 44.7831C124.751 44.7831 124.133 44.5131 123.641 43.9731C123.161 43.4331 122.921 42.6651 122.921 41.6691C122.921 40.8531 123.077 40.0791 123.389 39.3471C123.713 38.6151 124.163 38.0271 124.739 37.5831C125.327 37.1271 126.005 36.8991 126.773 36.8991C127.397 36.8991 127.931 37.0551 128.375 37.3671C128.831 37.6791 129.107 38.0691 129.203 38.5371H129.221L129.437 37.1511H130.211L129.293 42.4251C129.257 42.6411 129.239 42.8391 129.239 43.0191C129.239 43.4391 129.347 43.7271 129.563 43.8831C129.779 44.0391 130.097 44.1171 130.517 44.1171C130.925 44.1171 131.333 43.9731 131.741 43.6851C132.149 43.3971 132.491 42.9231 132.767 42.2631C133.055 41.5911 133.199 40.7271 133.199 39.6711C133.199 38.7471 132.965 37.8351 132.497 36.9351C132.029 36.0351 131.309 35.2911 130.337 34.7031C129.365 34.1151 128.177 33.8211 126.773 33.8211C125.501 33.8211 124.343 34.1151 123.299 34.7031C122.267 35.2791 121.451 36.1071 120.851 37.1871C120.263 38.2551 119.969 39.4971 119.969 40.9131C119.969 42.3171 120.239 43.5411 120.779 44.5851C121.331 45.6291 122.117 46.4331 123.137 46.9971C124.169 47.5731 125.387 47.8611 126.791 47.8611C127.883 47.8611 128.831 47.6931 129.635 47.3571C130.451 47.0211 131.081 46.5531 131.525 45.9531H132.569C132.029 46.7931 131.255 47.4471 130.247 47.9151C129.251 48.3951 128.099 48.6351 126.791 48.6351ZM125.639 44.1171C126.311 44.1171 126.893 43.9191 127.385 43.5231C127.889 43.1151 128.267 42.5931 128.519 41.9571C128.783 41.3091 128.915 40.6311 128.915 39.9231C128.915 39.1671 128.723 38.5911 128.339 38.1951C127.955 37.7871 127.445 37.5831 126.809 37.5831C126.173 37.5831 125.609 37.7751 125.117 38.1591C124.637 38.5431 124.265 39.0411 124.001 39.6531C123.749 40.2651 123.623 40.9071 123.623 41.5791C123.623 42.4071 123.815 43.0371 124.199 43.4691C124.595 43.9011 125.075 44.1171 125.639 44.1171Z" fill="black"/>
<path d="M145.92 36.7371C147.9 36.7371 148.89 37.8771 148.89 40.1571V45.9531H148.134V40.2291C148.134 39.2691 147.96 38.5671 147.612 38.1231C147.264 37.6791 146.712 37.4571 145.956 37.4571C145.08 37.4571 144.384 37.7511 143.868 38.3391C143.352 38.9271 143.094 39.7191 143.094 40.7151V45.9531H142.338V40.2291C142.338 39.2691 142.164 38.5671 141.816 38.1231C141.468 37.6791 140.91 37.4571 140.142 37.4571C139.254 37.4571 138.552 37.7511 138.036 38.3391C137.52 38.9271 137.262 39.7191 137.262 40.7151V45.9531H136.524V39.4371C136.524 38.5011 136.476 37.6731 136.38 36.9531H137.1L137.226 38.6451C137.466 38.0331 137.832 37.5651 138.324 37.2411C138.828 36.9051 139.416 36.7371 140.088 36.7371C141.552 36.7371 142.488 37.3311 142.896 38.5191C143.148 37.9551 143.538 37.5171 144.066 37.2051C144.606 36.8931 145.224 36.7371 145.92 36.7371Z" fill="black"/>
<path d="M152.244 41.2551V41.4171C152.244 42.6771 152.538 43.6491 153.126 44.3331C153.726 45.0051 154.578 45.3411 155.682 45.3411C156.246 45.3411 156.774 45.2511 157.266 45.0711C157.758 44.8791 158.244 44.5791 158.724 44.1711L159.084 44.8191C158.7 45.2031 158.202 45.5091 157.59 45.7371C156.99 45.9651 156.366 46.0791 155.718 46.0791C154.386 46.0791 153.33 45.6651 152.55 44.8371C151.782 44.0091 151.398 42.8691 151.398 41.4171C151.398 40.4931 151.572 39.6771 151.92 38.9691C152.268 38.2611 152.754 37.7151 153.378 37.3311C154.014 36.9351 154.74 36.7371 155.556 36.7371C156.708 36.7371 157.608 37.1151 158.256 37.8711C158.916 38.6271 159.246 39.6831 159.246 41.0391V41.2551H152.244ZM155.556 37.4211C154.668 37.4211 153.936 37.6971 153.36 38.2491C152.796 38.7891 152.442 39.5451 152.298 40.5171H158.49C158.418 39.5211 158.13 38.7591 157.626 38.2311C157.122 37.6911 156.432 37.4211 155.556 37.4211Z" fill="black"/>
<path d="M169.075 32.7051V45.9531H168.318V44.1531C168.054 44.7771 167.646 45.2571 167.094 45.5931C166.554 45.9171 165.906 46.0791 165.15 46.0791C164.358 46.0791 163.656 45.8871 163.044 45.5031C162.444 45.1071 161.976 44.5551 161.64 43.8471C161.304 43.1271 161.136 42.2991 161.136 41.3631C161.136 40.4391 161.299 39.6291 161.622 38.9331C161.958 38.2251 162.426 37.6851 163.026 37.3131C163.638 36.9291 164.346 36.7371 165.15 36.7371C165.906 36.7371 166.554 36.8991 167.094 37.2231C167.646 37.5471 168.054 38.0211 168.318 38.6451V32.7051H169.075ZM165.15 45.3411C166.159 45.3411 166.938 44.9991 167.49 44.3151C168.042 43.6191 168.318 42.6471 168.318 41.3991C168.318 40.1511 168.042 39.1851 167.49 38.5011C166.938 37.8171 166.164 37.4751 165.168 37.4751C164.16 37.4751 163.368 37.8171 162.792 38.5011C162.228 39.1731 161.946 40.1271 161.946 41.3631C161.946 42.6111 162.228 43.5891 162.792 44.2971C163.368 44.9931 164.154 45.3411 165.15 45.3411Z" fill="black"/>
<path d="M172.243 36.9531H172.981V45.9531H172.243V36.9531ZM173.215 33.3531V34.5051H172.045V33.3531H173.215Z" fill="black"/>
<path d="M180.033 36.7371C182.217 36.7371 183.309 37.8771 183.309 40.1571V45.9531H182.553V40.2291C182.553 39.2691 182.355 38.5671 181.959 38.1231C181.575 37.6791 180.957 37.4571 180.105 37.4571C179.133 37.4571 178.353 37.7511 177.765 38.3391C177.189 38.9271 176.901 39.7191 176.901 40.7151V45.9531H176.163V39.4371C176.163 38.5011 176.115 37.6731 176.019 36.9531H176.739L176.865 38.6631C177.117 38.0391 177.525 37.5651 178.089 37.2411C178.653 36.9051 179.301 36.7371 180.033 36.7371Z" fill="black"/>
<path d="M186.428 36.9531H187.166V45.9531H186.428V36.9531ZM187.4 33.3531V34.5051H186.23V33.3531H187.4Z" fill="black"/>
<path d="M194.218 36.7371C196.402 36.7371 197.494 37.8771 197.494 40.1571V45.9531H196.738V40.2291C196.738 39.2691 196.54 38.5671 196.144 38.1231C195.76 37.6791 195.142 37.4571 194.29 37.4571C193.318 37.4571 192.538 37.7511 191.95 38.3391C191.374 38.9271 191.086 39.7191 191.086 40.7151V45.9531H190.348V39.4371C190.348 38.5011 190.3 37.6731 190.204 36.9531H190.924L191.05 38.6631C191.302 38.0391 191.71 37.5651 192.274 37.2411C192.838 36.9051 193.486 36.7371 194.218 36.7371Z" fill="black"/>
<path d="M201.568 44.6751V45.9531H200.344V44.6751H201.568Z" fill="black"/>
<path d="M207.587 46.0791C206.759 46.0791 206.033 45.8871 205.409 45.5031C204.797 45.1191 204.317 44.5791 203.969 43.8831C203.633 43.1751 203.465 42.3591 203.465 41.4351C203.465 40.5111 203.633 39.6951 203.969 38.9871C204.317 38.2671 204.803 37.7151 205.427 37.3311C206.051 36.9351 206.777 36.7371 207.605 36.7371C208.205 36.7371 208.775 36.8451 209.315 37.0611C209.855 37.2771 210.305 37.5711 210.665 37.9431L210.305 38.5911C209.813 38.1951 209.357 37.9071 208.937 37.7271C208.517 37.5471 208.073 37.4571 207.605 37.4571C206.573 37.4571 205.757 37.8171 205.157 38.5371C204.569 39.2451 204.275 40.2171 204.275 41.4531C204.275 42.6771 204.569 43.6311 205.157 44.3151C205.745 44.9991 206.555 45.3411 207.587 45.3411C208.055 45.3411 208.499 45.2571 208.919 45.0891C209.351 44.9091 209.813 44.6211 210.305 44.2251L210.665 44.8551C210.281 45.2391 209.813 45.5391 209.261 45.7551C208.721 45.9711 208.163 46.0791 207.587 46.0791Z" fill="black"/>
<path d="M216.25 46.0791C215.458 46.0791 214.756 45.8871 214.144 45.5031C213.532 45.1191 213.058 44.5731 212.722 43.8651C212.398 43.1571 212.236 42.3351 212.236 41.3991C212.236 40.4631 212.398 39.6471 212.722 38.9511C213.058 38.2431 213.532 37.6971 214.144 37.3131C214.756 36.9291 215.458 36.7371 216.25 36.7371C217.042 36.7371 217.738 36.9291 218.338 37.3131C218.95 37.6971 219.418 38.2431 219.742 38.9511C220.078 39.6471 220.246 40.4631 220.246 41.3991C220.246 42.3351 220.078 43.1571 219.742 43.8651C219.418 44.5731 218.95 45.1191 218.338 45.5031C217.738 45.8871 217.042 46.0791 216.25 46.0791ZM216.232 45.3411C217.252 45.3411 218.038 44.9991 218.59 44.3151C219.154 43.6311 219.436 42.6591 219.436 41.3991C219.436 40.1751 219.154 39.2151 218.59 38.5191C218.026 37.8231 217.246 37.4751 216.25 37.4751C215.254 37.4751 214.468 37.8231 213.892 38.5191C213.328 39.2031 213.046 40.1631 213.046 41.3991C213.046 42.6711 213.322 43.6491 213.874 44.3331C214.426 45.0051 215.212 45.3411 216.232 45.3411Z" fill="black"/>
<path d="M232.193 36.7371C234.173 36.7371 235.163 37.8771 235.163 40.1571V45.9531H234.407V40.2291C234.407 39.2691 234.233 38.5671 233.885 38.1231C233.537 37.6791 232.985 37.4571 232.229 37.4571C231.353 37.4571 230.657 37.7511 230.141 38.3391C229.625 38.9271 229.367 39.7191 229.367 40.7151V45.9531H228.611V40.2291C228.611 39.2691 228.437 38.5671 228.089 38.1231C227.741 37.6791 227.183 37.4571 226.415 37.4571C225.527 37.4571 224.825 37.7511 224.309 38.3391C223.793 38.9271 223.535 39.7191 223.535 40.7151V45.9531H222.797V39.4371C222.797 38.5011 222.749 37.6731 222.653 36.9531H223.373L223.499 38.6451C223.739 38.0331 224.105 37.5651 224.597 37.2411C225.101 36.9051 225.689 36.7371 226.361 36.7371C227.825 36.7371 228.761 37.3311 229.169 38.5191C229.421 37.9551 229.811 37.5171 230.339 37.2051C230.879 36.8931 231.497 36.7371 232.193 36.7371Z" fill="black"/>
<path opacity="0.337353" fill-rule="evenodd" clip-rule="evenodd" d="M32.4712 18.7325L27.5572 41.7129C27.3645 42.5319 27.0393 43.0498 26.5816 43.2666C26.1239 43.4834 25.5578 43.3991 24.8834 43.0136L17.44 37.5215L13.8267 40.9902C13.5859 41.2311 13.3931 41.3997 13.2486 41.4961C13.0077 41.6406 12.6946 41.7129 12.3092 41.7129L12.8873 34.125L26.69 21.6231C26.8827 21.4785 26.9429 21.3461 26.8707 21.2256C26.7984 21.1052 26.6539 21.057 26.4371 21.0811C26.2203 21.1052 25.9914 21.1895 25.7505 21.334L8.69589 32.1016L1.32481 29.7891C0.505805 29.5482 0.120388 29.1869 0.168566 28.7051C0.216743 28.2233 0.722601 27.7897 1.68614 27.4043L30.3755 16.3477C31.0982 16.1068 31.6763 16.1911 32.1099 16.6006C32.5435 17.0101 32.6639 17.7207 32.4712 18.7325Z" fill="#6C7A84"/>
</svg>
