<svg width="526" height="66" viewBox="0 0 526 66" fill="none" xmlns="http://www.w3.org/2000/svg">
<path fill-rule="evenodd" clip-rule="evenodd" d="M344.523 46.5C344.523 45.2969 343.539 44.3125 342.335 44.3125C341.132 44.3125 340.148 45.2969 340.148 46.5C340.148 47.7032 341.132 48.6875 342.335 48.6875C343.539 48.6875 344.523 47.7032 344.523 46.5ZM350.21 42.125V22.875C350.21 22.4102 349.8 22 349.335 22H335.335C334.871 22 334.46 22.4102 334.46 22.875V42.125C334.46 42.5899 334.871 43 335.335 43H349.335C349.8 43 350.21 42.5899 350.21 42.125ZM344.96 18.9375C344.96 18.6914 344.769 18.5 344.523 18.5H340.148C339.902 18.5 339.71 18.6914 339.71 18.9375C339.71 19.1836 339.902 19.375 340.148 19.375H344.523C344.769 19.375 344.96 19.1836 344.96 18.9375ZM352.835 18.5V46.5C352.835 48.4141 351.25 50 349.335 50H335.335C333.421 50 331.835 48.4141 331.835 46.5V18.5C331.835 16.5859 333.421 15 335.335 15H349.335C351.25 15 352.835 16.5859 352.835 18.5Z" fill="#282F3F"/>
<path d="M387.516 27.1504C386.997 27.1504 386.495 27.082 386.012 26.9453C385.534 26.8086 385.085 26.6012 384.666 26.3232C384.246 26.0407 383.879 25.7012 383.565 25.3047C383.255 24.9036 383.009 24.4251 382.827 23.8691C382.649 23.3131 382.56 22.7093 382.56 22.0576C382.56 21.2601 382.692 20.5309 382.957 19.8701C383.221 19.2048 383.576 18.6556 384.023 18.2227C384.474 17.7897 384.989 17.4548 385.568 17.2178C386.151 16.9808 386.764 16.8623 387.407 16.8623C388.692 16.8623 389.777 17.2155 390.661 17.9219L390.039 19.0088C389.291 18.4756 388.457 18.209 387.537 18.209C386.908 18.209 386.34 18.373 385.834 18.7012C385.329 19.0247 384.932 19.4782 384.645 20.0615C384.358 20.6449 384.214 21.3034 384.214 22.0371C384.214 23.1855 384.531 24.1016 385.165 24.7852C385.803 25.4642 386.616 25.8037 387.605 25.8037C388.589 25.8037 389.514 25.4687 390.38 24.7988L390.907 26.0498C389.95 26.7835 388.819 27.1504 387.516 27.1504Z" fill="#282F3F"/>
<path d="M395.835 25.9131C396.505 25.9131 397.004 25.6921 397.333 25.25C397.661 24.8034 397.825 24.2087 397.825 23.4658C397.825 22.7367 397.654 22.151 397.312 21.709C396.975 21.2669 396.476 21.0459 395.815 21.0459C395.136 21.0459 394.623 21.2692 394.277 21.7158C393.931 22.1579 393.757 22.7458 393.757 23.4795C393.757 24.1995 393.931 24.7852 394.277 25.2363C394.628 25.6875 395.147 25.9131 395.835 25.9131ZM395.624 27.1572C395.077 27.1572 394.582 27.057 394.14 26.8564C393.698 26.6514 393.34 26.3779 393.067 26.0361C392.793 25.6943 392.584 25.3115 392.438 24.8877C392.297 24.4593 392.226 24.0104 392.226 23.541C392.226 23.0488 392.301 22.5794 392.452 22.1328C392.607 21.6862 392.825 21.2897 393.108 20.9434C393.39 20.597 393.75 20.3213 394.188 20.1162C394.63 19.9111 395.118 19.8086 395.651 19.8086C396.116 19.8086 396.53 19.9089 396.895 20.1094C397.26 20.3053 397.551 20.5697 397.77 20.9023V19.9863H399.267V27H397.743V25.9473C397.533 26.3118 397.244 26.6058 396.875 26.8291C396.51 27.0478 396.093 27.1572 395.624 27.1572Z" fill="#282F3F"/>
<path d="M401.373 27V16.958H402.897V27H401.373Z" fill="#282F3F"/>
<path d="M404.982 27V16.958H406.506V27H404.982Z" fill="#282F3F"/>
<path d="M415.277 27.1572C414.397 27.1572 413.725 26.9066 413.26 26.4053C412.8 25.8994 412.57 25.2272 412.57 24.3887V19.9863H414.087V24.375C414.087 24.89 414.215 25.2751 414.47 25.5303C414.73 25.7855 415.097 25.9131 415.571 25.9131C416.118 25.9131 416.532 25.7673 416.815 25.4756C417.097 25.1839 417.239 24.751 417.239 24.1768V19.9863H418.77V25.168C418.77 25.7513 418.793 26.362 418.838 27H417.266L417.239 25.9336C417.184 26.0612 417.109 26.1888 417.013 26.3164C416.917 26.444 416.792 26.5762 416.637 26.7129C416.482 26.8451 416.286 26.9521 416.049 27.0342C415.812 27.1162 415.555 27.1572 415.277 27.1572Z" fill="#282F3F"/>
<path d="M423.466 27.1572C422.856 27.1572 422.304 27.0684 421.812 26.8906C421.32 26.7129 420.932 26.5124 420.65 26.2891L421.046 25.168C421.324 25.3776 421.675 25.5576 422.099 25.708C422.523 25.8584 422.938 25.9336 423.343 25.9336C424.154 25.9336 424.56 25.6351 424.56 25.0381C424.56 24.8102 424.476 24.6348 424.307 24.5117C424.139 24.3841 423.781 24.2269 423.234 24.04L422.578 23.8145C422.268 23.7096 422.015 23.6094 421.819 23.5137C421.623 23.418 421.431 23.2949 421.245 23.1445C421.058 22.9941 420.919 22.8096 420.828 22.5908C420.741 22.3721 420.698 22.1123 420.698 21.8115C420.698 21.4652 420.768 21.1621 420.91 20.9023C421.051 20.638 421.245 20.4307 421.491 20.2803C421.737 20.1253 422.008 20.0114 422.304 19.9385C422.6 19.861 422.917 19.8223 423.254 19.8223C423.728 19.8223 424.18 19.8815 424.608 20C425.036 20.1185 425.401 20.2757 425.702 20.4717L425.292 21.5381C425.05 21.4105 424.751 21.2943 424.396 21.1895C424.045 21.0846 423.715 21.0322 423.405 21.0322C422.598 21.0322 422.195 21.2738 422.195 21.7568C422.195 21.9756 422.265 22.1396 422.407 22.249C422.553 22.3584 422.869 22.4997 423.357 22.6728C423.375 22.6774 423.487 22.7161 423.692 22.7891C423.902 22.862 424.02 22.903 424.047 22.9121C424.312 23.0033 424.528 23.0876 424.697 23.165C424.865 23.238 425.039 23.3337 425.216 23.4521C425.399 23.5706 425.54 23.6982 425.64 23.835C425.74 23.9717 425.822 24.1403 425.886 24.3408C425.955 24.5413 425.989 24.7715 425.989 25.0312C425.989 25.4141 425.914 25.749 425.763 26.0361C425.617 26.3187 425.419 26.5397 425.168 26.6992C424.918 26.8542 424.649 26.9681 424.362 27.041C424.079 27.1185 423.781 27.1572 423.466 27.1572Z" fill="#282F3F"/>
<path d="M391.663 44.212H387.577V48.28H386.893V44.212H382.807V43.492H386.893V39.406H387.577V43.492H391.663V44.212Z" fill="#282F3F"/>
<path d="M397.65 36.04C399.138 36.04 400.284 36.574 401.088 37.642C401.892 38.71 402.294 40.228 402.294 42.196C402.294 44.404 401.88 46.114 401.052 47.326C400.236 48.538 399.084 49.144 397.596 49.144C396.876 49.144 396.18 49 395.508 48.712C394.836 48.412 394.23 47.992 393.69 47.452L394.068 46.822C394.692 47.374 395.286 47.782 395.85 48.046C396.414 48.298 397.002 48.424 397.614 48.424C398.838 48.424 399.792 47.872 400.476 46.768C401.172 45.664 401.52 44.134 401.52 42.178V41.494C401.244 42.298 400.764 42.928 400.08 43.384C399.396 43.84 398.61 44.068 397.722 44.068C396.918 44.068 396.21 43.9 395.598 43.564C394.986 43.228 394.512 42.76 394.176 42.16C393.84 41.548 393.672 40.846 393.672 40.054C393.672 39.286 393.84 38.602 394.176 38.002C394.524 37.39 394.998 36.91 395.598 36.562C396.21 36.214 396.894 36.04 397.65 36.04ZM397.704 43.348C398.352 43.348 398.928 43.21 399.432 42.934C399.948 42.658 400.344 42.274 400.62 41.782C400.908 41.278 401.052 40.708 401.052 40.072C401.052 39.088 400.74 38.29 400.116 37.678C399.492 37.066 398.682 36.76 397.686 36.76C396.726 36.76 395.946 37.066 395.346 37.678C394.758 38.278 394.464 39.076 394.464 40.072C394.464 41.056 394.764 41.848 395.364 42.448C395.964 43.048 396.744 43.348 397.704 43.348Z" fill="#282F3F"/>
<path d="M412.439 48.316V49H405.977V48.316H408.839V37.282L406.175 39.064V38.2L408.839 36.418V36.292L408.911 36.364L409.181 36.184H409.595V48.316H412.439Z" fill="#282F3F"/>
<path d="M428.128 36.184V36.742L421.972 49H421.144L427.282 36.868H420.082V36.184H428.128Z" fill="#282F3F"/>
<path d="M434.529 36.04C436.017 36.04 437.163 36.574 437.967 37.642C438.771 38.71 439.173 40.228 439.173 42.196C439.173 44.404 438.759 46.114 437.931 47.326C437.115 48.538 435.963 49.144 434.475 49.144C433.755 49.144 433.059 49 432.387 48.712C431.715 48.412 431.109 47.992 430.569 47.452L430.947 46.822C431.571 47.374 432.165 47.782 432.729 48.046C433.293 48.298 433.881 48.424 434.493 48.424C435.717 48.424 436.671 47.872 437.355 46.768C438.051 45.664 438.399 44.134 438.399 42.178V41.494C438.123 42.298 437.643 42.928 436.959 43.384C436.275 43.84 435.489 44.068 434.601 44.068C433.797 44.068 433.089 43.9 432.477 43.564C431.865 43.228 431.391 42.76 431.055 42.16C430.719 41.548 430.551 40.846 430.551 40.054C430.551 39.286 430.719 38.602 431.055 38.002C431.403 37.39 431.877 36.91 432.477 36.562C433.089 36.214 433.773 36.04 434.529 36.04ZM434.583 43.348C435.231 43.348 435.807 43.21 436.311 42.934C436.827 42.658 437.223 42.274 437.499 41.782C437.787 41.278 437.931 40.708 437.931 40.072C437.931 39.088 437.619 38.29 436.995 37.678C436.371 37.066 435.561 36.76 434.565 36.76C433.605 36.76 432.825 37.066 432.225 37.678C431.637 38.278 431.343 39.076 431.343 40.072C431.343 41.056 431.643 41.848 432.243 42.448C432.843 43.048 433.623 43.348 434.583 43.348Z" fill="#282F3F"/>
<path d="M445.322 36.04C446.81 36.04 447.956 36.574 448.76 37.642C449.564 38.71 449.966 40.228 449.966 42.196C449.966 44.404 449.552 46.114 448.724 47.326C447.908 48.538 446.756 49.144 445.268 49.144C444.548 49.144 443.852 49 443.18 48.712C442.508 48.412 441.902 47.992 441.362 47.452L441.74 46.822C442.364 47.374 442.958 47.782 443.522 48.046C444.086 48.298 444.674 48.424 445.286 48.424C446.51 48.424 447.464 47.872 448.148 46.768C448.844 45.664 449.192 44.134 449.192 42.178V41.494C448.916 42.298 448.436 42.928 447.752 43.384C447.068 43.84 446.282 44.068 445.394 44.068C444.59 44.068 443.882 43.9 443.27 43.564C442.658 43.228 442.184 42.76 441.848 42.16C441.512 41.548 441.344 40.846 441.344 40.054C441.344 39.286 441.512 38.602 441.848 38.002C442.196 37.39 442.67 36.91 443.27 36.562C443.882 36.214 444.566 36.04 445.322 36.04ZM445.376 43.348C446.024 43.348 446.6 43.21 447.104 42.934C447.62 42.658 448.016 42.274 448.292 41.782C448.58 41.278 448.724 40.708 448.724 40.072C448.724 39.088 448.412 38.29 447.788 37.678C447.164 37.066 446.354 36.76 445.358 36.76C444.398 36.76 443.618 37.066 443.018 37.678C442.43 38.278 442.136 39.076 442.136 40.072C442.136 41.056 442.436 41.848 443.036 42.448C443.636 43.048 444.416 43.348 445.376 43.348Z" fill="#282F3F"/>
<path d="M456.907 41.098C458.131 41.098 459.097 41.47 459.805 42.214C460.513 42.946 460.867 43.918 460.867 45.13C460.867 45.898 460.705 46.588 460.381 47.2C460.057 47.8 459.589 48.274 458.977 48.622C458.377 48.958 457.669 49.126 456.853 49.126C456.097 49.126 455.353 48.976 454.621 48.676C453.889 48.376 453.259 47.962 452.731 47.434L453.109 46.804C454.309 47.872 455.557 48.406 456.853 48.406C457.837 48.406 458.617 48.106 459.193 47.506C459.781 46.906 460.075 46.108 460.075 45.112C460.075 44.14 459.787 43.354 459.211 42.754C458.647 42.142 457.903 41.836 456.979 41.836C456.247 41.836 455.623 41.986 455.107 42.286C454.591 42.574 454.141 43.03 453.757 43.654H453.037V36.184H460.417V36.886H453.811V42.52C454.159 42.064 454.597 41.716 455.125 41.476C455.665 41.224 456.259 41.098 456.907 41.098Z" fill="#282F3F"/>
<path d="M471.498 48.316V49H463.56V48.424L468.168 43.222C468.864 42.442 469.362 41.752 469.662 41.152C469.962 40.54 470.112 39.928 470.112 39.316C470.112 38.5 469.878 37.87 469.41 37.426C468.942 36.982 468.276 36.76 467.412 36.76C466.74 36.76 466.098 36.892 465.486 37.156C464.874 37.42 464.262 37.822 463.65 38.362L463.272 37.732C463.776 37.216 464.4 36.808 465.144 36.508C465.888 36.196 466.632 36.04 467.376 36.04C468.468 36.04 469.326 36.334 469.95 36.922C470.586 37.498 470.904 38.29 470.904 39.298C470.904 40.03 470.73 40.75 470.382 41.458C470.034 42.166 469.47 42.958 468.69 43.834L464.622 48.316H471.498Z" fill="#282F3F"/>
<path d="M479.627 42.412C480.395 42.628 480.977 43.006 481.373 43.546C481.769 44.074 481.967 44.74 481.967 45.544C481.967 46.648 481.613 47.524 480.905 48.172C480.197 48.808 479.249 49.126 478.061 49.126C477.257 49.126 476.489 48.982 475.757 48.694C475.025 48.394 474.395 47.974 473.867 47.434L474.245 46.804C474.845 47.344 475.457 47.746 476.081 48.01C476.705 48.274 477.371 48.406 478.079 48.406C479.051 48.406 479.807 48.166 480.347 47.686C480.899 47.194 481.175 46.498 481.175 45.598C481.175 44.686 480.887 44.002 480.311 43.546C479.747 43.078 478.913 42.844 477.809 42.844H476.531V42.124H477.539C478.595 42.124 479.417 41.872 480.005 41.368C480.593 40.852 480.887 40.132 480.887 39.208C480.887 38.428 480.653 37.828 480.185 37.408C479.717 36.976 479.057 36.76 478.205 36.76C477.545 36.76 476.909 36.892 476.297 37.156C475.685 37.42 475.067 37.822 474.443 38.362L474.065 37.732C474.569 37.192 475.181 36.778 475.901 36.49C476.633 36.19 477.395 36.04 478.187 36.04C479.255 36.04 480.107 36.328 480.743 36.904C481.379 37.468 481.697 38.242 481.697 39.226C481.697 39.982 481.511 40.642 481.139 41.206C480.767 41.77 480.263 42.172 479.627 42.412Z" fill="#282F3F"/>
<path d="M492.886 36.184V36.742L486.73 49H485.902L492.04 36.868H484.84V36.184H492.886Z" fill="#282F3F"/>
<path d="M503.679 36.184V36.742L497.523 49H496.695L502.833 36.868H495.633V36.184H503.679Z" fill="#282F3F"/>
<path d="M514.472 36.184V36.742L508.316 49H507.488L513.626 36.868H506.426V36.184H514.472Z" fill="#282F3F"/>
<path d="M525.265 36.184V36.742L519.109 49H518.281L524.419 36.868H517.219V36.184H525.265Z" fill="#282F3F"/>
<path fill-rule="evenodd" clip-rule="evenodd" d="M282.835 66V0H283.835V66H282.835Z" fill="#282F3F"/>
<path d="M58.5901 24.9531L55.801 15H57.4827C57.6331 15.5833 57.8518 16.4287 58.1389 17.5361C58.4306 18.639 58.6903 19.6393 58.9182 20.5371C59.1506 21.4303 59.3625 22.2826 59.554 23.0937C59.7773 22.2734 60.0211 21.4189 60.2854 20.5303C60.5543 19.637 60.8619 18.6344 61.2083 17.5225C61.5546 16.4105 61.8144 15.5697 61.9875 15H63.5188L65.4192 21.1113L65.9934 23.1143C66.1757 22.3031 66.3785 21.4463 66.6018 20.5439C66.8251 19.637 67.0735 18.639 67.3469 17.5498C67.6204 16.4561 67.8323 15.6061 67.9827 15H69.6096L66.8889 24.9531H65.0637L62.7122 17.1533L60.3879 24.9531H58.5901Z" fill="#282F3F"/>
<path d="M70.8674 24.9531V19.6895C70.8674 19.498 70.8583 19.2565 70.8401 18.9648C70.8219 18.6732 70.8036 18.4294 70.7854 18.2334L70.7581 17.9395H72.385V18.9307C72.8909 18.1514 73.4879 17.7617 74.176 17.7617C74.4039 17.7617 74.6409 17.7959 74.887 17.8643V19.2109C74.6226 19.1198 74.3492 19.0742 74.0667 19.0742C73.5699 19.0742 73.1689 19.2428 72.8635 19.5801C72.5582 19.9128 72.4055 20.389 72.4055 21.0088V24.9531H70.8674Z" fill="#282F3F"/>
<path d="M76.2542 16.3672V15H77.7444V16.3672H76.2542ZM76.2473 24.9531V17.9395H77.7444V24.9531H76.2473Z" fill="#282F3F"/>
<path d="M83.7874 24.9463H83.1311C82.6298 24.9463 82.2174 24.9144 81.8938 24.8506C81.5702 24.7868 81.2831 24.666 81.0325 24.4883C80.7818 24.3105 80.5995 24.0553 80.4856 23.7227C80.3762 23.39 80.3215 22.9616 80.3215 22.4375V18.9648H78.927V17.9395H80.3625V16.2305L81.8459 15.7861V17.9395H83.76V18.9648H81.8459V22.5264C81.8459 22.8135 81.871 23.0368 81.9211 23.1963C81.9713 23.3512 82.0761 23.4743 82.2356 23.5654C82.3951 23.6566 82.5865 23.7135 82.8098 23.7363C83.0331 23.7591 83.359 23.7705 83.7874 23.7705V24.9463Z" fill="#282F3F"/>
<path d="M86.72 20.6602H90.343C90.2838 20.1087 90.106 19.6872 89.8098 19.3955C89.5181 19.1038 89.1422 18.958 88.6819 18.958C88.1669 18.958 87.7362 19.1084 87.3899 19.4092C87.0481 19.71 86.8248 20.127 86.72 20.6602ZM88.8186 25.1103C87.6702 25.1103 86.761 24.7754 86.0911 24.1055C85.4211 23.4355 85.0862 22.5514 85.0862 21.4531C85.0862 20.7741 85.2252 20.1566 85.5032 19.6006C85.7812 19.0446 86.1913 18.6003 86.7336 18.2676C87.276 17.9303 87.9026 17.7617 88.6135 17.7617C89.1376 17.7617 89.6002 17.8551 90.0012 18.042C90.4068 18.2243 90.7304 18.4818 90.9719 18.8145C91.218 19.1426 91.4026 19.5231 91.5256 19.9561C91.6487 20.3844 91.7102 20.8584 91.7102 21.3779C91.7102 21.4736 91.6988 21.5784 91.676 21.6924H86.6858C86.7131 22.4124 86.9296 22.9548 87.3352 23.3193C87.7408 23.6839 88.274 23.8662 88.9348 23.8662C89.7323 23.8662 90.4661 23.611 91.136 23.1006L91.5667 24.2217C90.7782 24.8141 89.8622 25.1103 88.8186 25.1103Z" fill="#282F3F"/>
<path d="M101.602 24.9463H100.946C100.444 24.9463 100.032 24.9144 99.7083 24.8506C99.3847 24.7868 99.0976 24.666 98.8469 24.4883C98.5963 24.3105 98.414 24.0553 98.3 23.7227C98.1907 23.39 98.136 22.9616 98.136 22.4375V18.9648H96.7415V17.9395H98.177V16.2305L99.6604 15.7861V17.9395H101.574V18.9648H99.6604V22.5264C99.6604 22.8135 99.6855 23.0368 99.7356 23.1963C99.7857 23.3512 99.8905 23.4743 100.05 23.5654C100.21 23.6566 100.401 23.7135 100.624 23.7363C100.848 23.7591 101.173 23.7705 101.602 23.7705V24.9463Z" fill="#282F3F"/>
<path d="M106.565 25.1103C105.977 25.1103 105.446 25.0146 104.972 24.8232C104.503 24.6318 104.117 24.3698 103.817 24.0371C103.52 23.7044 103.293 23.3193 103.133 22.8818C102.978 22.4398 102.901 21.9613 102.901 21.4463C102.901 20.7445 103.037 20.1201 103.311 19.5732C103.584 19.0218 104.001 18.582 104.562 18.2539C105.127 17.9258 105.797 17.7617 106.572 17.7617C107.164 17.7617 107.693 17.8551 108.157 18.042C108.622 18.2288 109.001 18.4909 109.292 18.8281C109.584 19.1608 109.805 19.5505 109.955 19.9971C110.11 20.4391 110.188 20.9268 110.188 21.46C110.188 21.9658 110.108 22.4375 109.948 22.875C109.794 23.3125 109.568 23.6999 109.272 24.0371C108.98 24.3698 108.6 24.6318 108.13 24.8232C107.665 25.0146 107.143 25.1103 106.565 25.1103ZM106.558 23.8662C107.232 23.8662 107.738 23.6406 108.075 23.1895C108.417 22.7383 108.588 22.1549 108.588 21.4395C108.588 20.7148 108.415 20.127 108.069 19.6758C107.722 19.2246 107.216 18.999 106.551 18.999C105.886 18.999 105.378 19.2246 105.027 19.6758C104.676 20.127 104.5 20.7148 104.5 21.4395C104.5 22.1549 104.673 22.7383 105.02 23.1895C105.366 23.6406 105.879 23.8662 106.558 23.8662Z" fill="#282F3F"/>
<path d="M118.664 25.1103C117.785 25.1103 117.113 24.8597 116.648 24.3584C116.187 23.8525 115.957 23.1803 115.957 22.3418V17.9395H117.475V22.3281C117.475 22.8431 117.602 23.2282 117.858 23.4834C118.117 23.7386 118.484 23.8662 118.958 23.8662C119.505 23.8662 119.92 23.7204 120.202 23.4287C120.485 23.137 120.626 22.7041 120.626 22.1299V17.9395H122.157V23.1211C122.157 23.7044 122.18 24.3151 122.226 24.9531H120.654L120.626 23.8867C120.572 24.0143 120.496 24.1419 120.401 24.2695C120.305 24.3971 120.18 24.5293 120.025 24.666C119.87 24.7982 119.674 24.9053 119.437 24.9873C119.2 25.0693 118.942 25.1103 118.664 25.1103Z" fill="#282F3F"/>
<path d="M126.854 25.1103C126.243 25.1103 125.692 25.0215 125.199 24.8437C124.707 24.666 124.32 24.4655 124.037 24.2422L124.434 23.1211C124.712 23.3307 125.063 23.5107 125.487 23.6611C125.91 23.8115 126.325 23.8867 126.731 23.8867C127.542 23.8867 127.948 23.5882 127.948 22.9912C127.948 22.7633 127.863 22.5879 127.695 22.4648C127.526 22.3372 127.168 22.18 126.621 21.9932L125.965 21.7676C125.655 21.6628 125.402 21.5625 125.206 21.4668C125.01 21.3711 124.819 21.248 124.632 21.0977C124.445 20.9473 124.306 20.7627 124.215 20.5439C124.128 20.3252 124.085 20.0654 124.085 19.7646C124.085 19.4183 124.156 19.1152 124.297 18.8555C124.438 18.5911 124.632 18.3838 124.878 18.2334C125.124 18.0784 125.395 17.9645 125.692 17.8916C125.988 17.8141 126.305 17.7754 126.642 17.7754C127.116 17.7754 127.567 17.8346 127.995 17.9531C128.424 18.0716 128.788 18.2288 129.089 18.4248L128.679 19.4912C128.437 19.3636 128.139 19.2474 127.783 19.1426C127.433 19.0378 127.102 18.9853 126.792 18.9853C125.986 18.9853 125.582 19.2269 125.582 19.71C125.582 19.9287 125.653 20.0928 125.794 20.2021C125.94 20.3115 126.257 20.4528 126.744 20.626C126.763 20.6305 126.874 20.6693 127.079 20.7422C127.289 20.8151 127.407 20.8561 127.435 20.8652C127.699 20.9564 127.916 21.0407 128.084 21.1182C128.253 21.1911 128.426 21.2868 128.604 21.4053C128.786 21.5238 128.927 21.6514 129.028 21.7881C129.128 21.9248 129.21 22.0934 129.274 22.2939C129.342 22.4945 129.376 22.7246 129.376 22.9844C129.376 23.3672 129.301 23.7021 129.151 23.9893C129.005 24.2718 128.807 24.4928 128.556 24.6523C128.305 24.8073 128.036 24.9212 127.749 24.9941C127.467 25.0716 127.168 25.1103 126.854 25.1103Z" fill="#282F3F"/>
<path d="M60.0834 46.0791C58.6674 46.0791 57.5514 45.6711 56.7354 44.8551L57.0774 44.2251C57.5574 44.6331 58.0254 44.9211 58.4813 45.0891C58.9493 45.2451 59.5014 45.3231 60.1374 45.3231C60.9414 45.3231 61.5534 45.1851 61.9734 44.9091C62.3934 44.6211 62.6034 44.2071 62.6034 43.6671C62.6034 43.2351 62.4653 42.8931 62.1894 42.6411C61.9134 42.3771 61.4693 42.1671 60.8573 42.0111L59.3274 41.6511C58.6434 41.4951 58.0914 41.2011 57.6714 40.7691C57.2514 40.3371 57.0414 39.8451 57.0414 39.2931C57.0414 38.5251 57.3293 37.9071 57.9053 37.4391C58.4933 36.9711 59.2794 36.7371 60.2634 36.7371C60.8994 36.7371 61.4813 36.8451 62.0093 37.0611C62.5494 37.2651 62.9814 37.5591 63.3054 37.9431L62.9454 38.5911C62.5374 38.2191 62.1174 37.9431 61.6854 37.7631C61.2534 37.5711 60.7794 37.4751 60.2634 37.4751C59.5074 37.4751 58.9194 37.6251 58.4994 37.9251C58.0914 38.2251 57.8874 38.6451 57.8874 39.1851C57.8874 39.6411 58.0194 40.0071 58.2834 40.2831C58.5474 40.5591 58.9554 40.7631 59.5074 40.8951L61.0554 41.2731C61.8474 41.4531 62.4414 41.7411 62.8374 42.1371C63.2334 42.5331 63.4314 43.0251 63.4314 43.6131C63.4314 44.3451 63.1254 44.9391 62.5134 45.3951C61.9134 45.8511 61.1034 46.0791 60.0834 46.0791Z" fill="#282F3F"/>
<path d="M73.0647 36.9531V45.9531H72.3447V44.2431C72.0567 44.8311 71.6367 45.2871 71.0847 45.6111C70.5447 45.9231 69.9327 46.0791 69.2487 46.0791C68.2167 46.0791 67.4307 45.7911 66.8907 45.2151C66.3507 44.6271 66.0807 43.7691 66.0807 42.6411V36.9531H66.8187V42.5691C66.8187 43.5171 67.0107 44.2191 67.3947 44.6751C67.7907 45.1191 68.3907 45.3411 69.1947 45.3411C70.1427 45.3411 70.8987 45.0471 71.4627 44.4591C72.0387 43.8591 72.3267 43.0671 72.3267 42.0831V36.9531H73.0647Z" fill="#282F3F"/>
<path d="M80.1486 36.7371C80.9406 36.7371 81.6366 36.9351 82.2366 37.3311C82.8486 37.7151 83.3226 38.2611 83.6586 38.9691C83.9946 39.6771 84.1626 40.4991 84.1626 41.4351C84.1626 42.3711 83.9946 43.1871 83.6586 43.8831C83.3346 44.5791 82.8666 45.1191 82.2546 45.5031C81.6426 45.8871 80.9406 46.0791 80.1486 46.0791C79.3686 46.0791 78.7086 45.9111 78.1686 45.5751C77.6286 45.2271 77.2266 44.7231 76.9626 44.0631V49.8411H76.2246V39.4371C76.2246 38.5011 76.1766 37.6731 76.0806 36.9531H76.8006L76.9446 38.7891C77.1966 38.1291 77.5986 37.6251 78.1506 37.2771C78.7026 36.9171 79.3686 36.7371 80.1486 36.7371ZM80.1486 45.3411C81.1566 45.3411 81.9366 44.9991 82.4886 44.3151C83.0526 43.6311 83.3346 42.6711 83.3346 41.4351C83.3346 40.1871 83.0526 39.2151 82.4886 38.5191C81.9366 37.8231 81.1626 37.4751 80.1666 37.4751C79.1346 37.4751 78.3426 37.8171 77.7906 38.5011C77.2506 39.1731 76.9806 40.1391 76.9806 41.3991C76.9806 42.6591 77.2506 43.6311 77.7906 44.3151C78.3426 44.9991 79.1286 45.3411 80.1486 45.3411Z" fill="#282F3F"/>
<path d="M90.6427 36.7371C91.4347 36.7371 92.1307 36.9351 92.7307 37.3311C93.3427 37.7151 93.8167 38.2611 94.1527 38.9691C94.4887 39.6771 94.6567 40.4991 94.6567 41.4351C94.6567 42.3711 94.4887 43.1871 94.1527 43.8831C93.8287 44.5791 93.3607 45.1191 92.7487 45.5031C92.1367 45.8871 91.4347 46.0791 90.6427 46.0791C89.8627 46.0791 89.2027 45.9111 88.6627 45.5751C88.1227 45.2271 87.7207 44.7231 87.4567 44.0631V49.8411H86.7187V39.4371C86.7187 38.5011 86.6707 37.6731 86.5747 36.9531H87.2947L87.4387 38.7891C87.6907 38.1291 88.0927 37.6251 88.6447 37.2771C89.1967 36.9171 89.8627 36.7371 90.6427 36.7371ZM90.6427 45.3411C91.6507 45.3411 92.4307 44.9991 92.9827 44.3151C93.5467 43.6311 93.8287 42.6711 93.8287 41.4351C93.8287 40.1871 93.5467 39.2151 92.9827 38.5191C92.4307 37.8231 91.6567 37.4751 90.6607 37.4751C89.6287 37.4751 88.8367 37.8171 88.2847 38.5011C87.7447 39.1731 87.4747 40.1391 87.4747 41.3991C87.4747 42.6591 87.7447 43.6311 88.2847 44.3151C88.8367 44.9991 89.6227 45.3411 90.6427 45.3411Z" fill="#282F3F"/>
<path d="M100.615 46.0791C99.8229 46.0791 99.1209 45.8871 98.5089 45.5031C97.8969 45.1191 97.4229 44.5731 97.0869 43.8651C96.7629 43.1571 96.6009 42.3351 96.6009 41.3991C96.6009 40.4631 96.7629 39.6471 97.0869 38.9511C97.4229 38.2431 97.8969 37.6971 98.5089 37.3131C99.1209 36.9291 99.8229 36.7371 100.615 36.7371C101.407 36.7371 102.103 36.9291 102.703 37.3131C103.315 37.6971 103.783 38.2431 104.107 38.9511C104.443 39.6471 104.611 40.4631 104.611 41.3991C104.611 42.3351 104.443 43.1571 104.107 43.8651C103.783 44.5731 103.315 45.1191 102.703 45.5031C102.103 45.8871 101.407 46.0791 100.615 46.0791ZM100.597 45.3411C101.617 45.3411 102.403 44.9991 102.955 44.3151C103.519 43.6311 103.801 42.6591 103.801 41.3991C103.801 40.1751 103.519 39.2151 102.955 38.5191C102.391 37.8231 101.611 37.4751 100.615 37.4751C99.6189 37.4751 98.8329 37.8231 98.2569 38.5191C97.6929 39.2031 97.4109 40.1631 97.4109 41.3991C97.4109 42.6711 97.6869 43.6491 98.2389 44.3331C98.7909 45.0051 99.5769 45.3411 100.597 45.3411Z" fill="#282F3F"/>
<path d="M110.744 36.7371C111.08 36.7371 111.332 36.7551 111.5 36.7911L111.446 37.4751C111.302 37.4511 111.062 37.4391 110.726 37.4391C110.066 37.4391 109.526 37.5951 109.106 37.9071C108.686 38.2071 108.38 38.5971 108.188 39.0771C107.996 39.5451 107.9 40.0371 107.9 40.5531V45.9531H107.162V39.4371C107.162 38.5011 107.114 37.6731 107.018 36.9531H107.738L107.864 38.6451C108.104 38.0211 108.476 37.5471 108.98 37.2231C109.496 36.8991 110.084 36.7371 110.744 36.7371Z" fill="#282F3F"/>
<path d="M114.94 37.6011V43.3431C114.94 44.1111 115.078 44.6391 115.354 44.9271C115.642 45.2031 116.062 45.3411 116.614 45.3411C116.974 45.3411 117.31 45.2871 117.622 45.1791V45.9171C117.262 46.0131 116.902 46.0611 116.542 46.0611C115.822 46.0611 115.246 45.8631 114.814 45.4671C114.394 45.0591 114.184 44.4351 114.184 43.5951V37.6011H112.384V36.9531H114.184V34.5051L114.94 34.1811V36.9531H117.676V37.6011H114.94Z" fill="#282F3F"/>
<path d="M126.626 48.6351C125.102 48.6351 123.77 48.3111 122.63 47.6631C121.49 47.0271 120.608 46.1271 119.984 44.9631C119.372 43.7991 119.066 42.4491 119.066 40.9131C119.066 39.3651 119.396 37.9971 120.056 36.8091C120.716 35.6091 121.616 34.6851 122.756 34.0371C123.908 33.3771 125.192 33.0471 126.608 33.0471C128.144 33.0471 129.452 33.3771 130.532 34.0371C131.624 34.6971 132.44 35.5371 132.98 36.5571C133.532 37.5651 133.808 38.6031 133.808 39.6711C133.808 40.9311 133.622 41.9451 133.25 42.7131C132.878 43.4691 132.416 44.0031 131.864 44.3151C131.324 44.6271 130.772 44.7831 130.208 44.7831C129.548 44.7831 129.044 44.6451 128.696 44.3691C128.36 44.0811 128.186 43.6611 128.174 43.1091H128.138C127.838 43.6251 127.442 44.0331 126.95 44.3331C126.47 44.6331 125.93 44.7831 125.33 44.7831C124.586 44.7831 123.968 44.5131 123.476 43.9731C122.996 43.4331 122.756 42.6651 122.756 41.6691C122.756 40.8531 122.912 40.0791 123.224 39.3471C123.548 38.6151 123.998 38.0271 124.574 37.5831C125.162 37.1271 125.84 36.8991 126.608 36.8991C127.232 36.8991 127.766 37.0551 128.21 37.3671C128.666 37.6791 128.942 38.0691 129.038 38.5371H129.056L129.272 37.1511H130.046L129.128 42.4251C129.092 42.6411 129.074 42.8391 129.074 43.0191C129.074 43.4391 129.182 43.7271 129.398 43.8831C129.614 44.0391 129.932 44.1171 130.352 44.1171C130.76 44.1171 131.168 43.9731 131.576 43.6851C131.984 43.3971 132.326 42.9231 132.602 42.2631C132.89 41.5911 133.034 40.7271 133.034 39.6711C133.034 38.7471 132.8 37.8351 132.332 36.9351C131.864 36.0351 131.144 35.2911 130.172 34.7031C129.2 34.1151 128.012 33.8211 126.608 33.8211C125.336 33.8211 124.178 34.1151 123.134 34.7031C122.102 35.2791 121.286 36.1071 120.686 37.1871C120.098 38.2551 119.804 39.4971 119.804 40.9131C119.804 42.3171 120.074 43.5411 120.614 44.5851C121.166 45.6291 121.952 46.4331 122.972 46.9971C124.004 47.5731 125.222 47.8611 126.626 47.8611C127.718 47.8611 128.666 47.6931 129.47 47.3571C130.286 47.0211 130.916 46.5531 131.36 45.9531H132.404C131.864 46.7931 131.09 47.4471 130.082 47.9151C129.086 48.3951 127.934 48.6351 126.626 48.6351ZM125.474 44.1171C126.146 44.1171 126.728 43.9191 127.22 43.5231C127.724 43.1151 128.102 42.5931 128.354 41.9571C128.618 41.3091 128.75 40.6311 128.75 39.9231C128.75 39.1671 128.558 38.5911 128.174 38.1951C127.79 37.7871 127.28 37.5831 126.644 37.5831C126.008 37.5831 125.444 37.7751 124.952 38.1591C124.472 38.5431 124.1 39.0411 123.836 39.6531C123.584 40.2651 123.458 40.9071 123.458 41.5791C123.458 42.4071 123.65 43.0371 124.034 43.4691C124.43 43.9011 124.91 44.1171 125.474 44.1171Z" fill="#282F3F"/>
<path d="M145.755 36.7371C147.735 36.7371 148.725 37.8771 148.725 40.1571V45.9531H147.969V40.2291C147.969 39.2691 147.795 38.5671 147.447 38.1231C147.099 37.6791 146.547 37.4571 145.791 37.4571C144.915 37.4571 144.219 37.7511 143.703 38.3391C143.187 38.9271 142.929 39.7191 142.929 40.7151V45.9531H142.173V40.2291C142.173 39.2691 141.999 38.5671 141.651 38.1231C141.303 37.6791 140.745 37.4571 139.977 37.4571C139.089 37.4571 138.387 37.7511 137.871 38.3391C137.355 38.9271 137.097 39.7191 137.097 40.7151V45.9531H136.359V39.4371C136.359 38.5011 136.311 37.6731 136.215 36.9531H136.935L137.061 38.6451C137.301 38.0331 137.667 37.5651 138.159 37.2411C138.663 36.9051 139.251 36.7371 139.923 36.7371C141.387 36.7371 142.323 37.3311 142.731 38.5191C142.983 37.9551 143.373 37.5171 143.901 37.2051C144.441 36.8931 145.059 36.7371 145.755 36.7371Z" fill="#282F3F"/>
<path d="M152.08 41.2551V41.4171C152.08 42.6771 152.374 43.6491 152.962 44.3331C153.562 45.0051 154.414 45.3411 155.518 45.3411C156.082 45.3411 156.61 45.2511 157.102 45.0711C157.594 44.8791 158.08 44.5791 158.56 44.1711L158.92 44.8191C158.536 45.2031 158.038 45.5091 157.426 45.7371C156.826 45.9651 156.202 46.0791 155.554 46.0791C154.222 46.0791 153.166 45.6651 152.386 44.8371C151.618 44.0091 151.234 42.8691 151.234 41.4171C151.234 40.4931 151.408 39.6771 151.756 38.9691C152.104 38.2611 152.59 37.7151 153.214 37.3311C153.85 36.9351 154.576 36.7371 155.392 36.7371C156.544 36.7371 157.444 37.1151 158.092 37.8711C158.752 38.6271 159.082 39.6831 159.082 41.0391V41.2551H152.08ZM155.392 37.4211C154.504 37.4211 153.772 37.6971 153.196 38.2491C152.632 38.7891 152.278 39.5451 152.134 40.5171H158.326C158.254 39.5211 157.966 38.7591 157.462 38.2311C156.958 37.6911 156.268 37.4211 155.392 37.4211Z" fill="#282F3F"/>
<path d="M168.91 32.7051V45.9531H168.154V44.1531C167.89 44.7771 167.482 45.2571 166.93 45.5931C166.39 45.9171 165.742 46.0791 164.986 46.0791C164.194 46.0791 163.492 45.8871 162.88 45.5031C162.28 45.1071 161.812 44.5551 161.476 43.8471C161.14 43.1271 160.972 42.2991 160.972 41.3631C160.972 40.4391 161.134 39.6291 161.458 38.9331C161.794 38.2251 162.262 37.6851 162.862 37.3131C163.474 36.9291 164.182 36.7371 164.986 36.7371C165.742 36.7371 166.39 36.8991 166.93 37.2231C167.482 37.5471 167.89 38.0211 168.154 38.6451V32.7051H168.91ZM164.986 45.3411C165.994 45.3411 166.774 44.9991 167.326 44.3151C167.878 43.6191 168.154 42.6471 168.154 41.3991C168.154 40.1511 167.878 39.1851 167.326 38.5011C166.774 37.8171 166 37.4751 165.004 37.4751C163.996 37.4751 163.204 37.8171 162.628 38.5011C162.064 39.1731 161.782 40.1271 161.782 41.3631C161.782 42.6111 162.064 43.5891 162.628 44.2971C163.204 44.9931 163.99 45.3411 164.986 45.3411Z" fill="#282F3F"/>
<path d="M172.078 36.9531H172.816V45.9531H172.078V36.9531ZM173.05 33.3531V34.5051H171.88V33.3531H173.05Z" fill="#282F3F"/>
<path d="M179.868 36.7371C182.052 36.7371 183.144 37.8771 183.144 40.1571V45.9531H182.388V40.2291C182.388 39.2691 182.19 38.5671 181.794 38.1231C181.41 37.6791 180.792 37.4571 179.94 37.4571C178.968 37.4571 178.188 37.7511 177.6 38.3391C177.024 38.9271 176.736 39.7191 176.736 40.7151V45.9531H175.998V39.4371C175.998 38.5011 175.95 37.6731 175.854 36.9531H176.574L176.7 38.6631C176.952 38.0391 177.36 37.5651 177.924 37.2411C178.488 36.9051 179.136 36.7371 179.868 36.7371Z" fill="#282F3F"/>
<path d="M186.264 36.9531H187.002V45.9531H186.264V36.9531ZM187.236 33.3531V34.5051H186.066V33.3531H187.236Z" fill="#282F3F"/>
<path d="M194.054 36.7371C196.238 36.7371 197.33 37.8771 197.33 40.1571V45.9531H196.574V40.2291C196.574 39.2691 196.376 38.5671 195.98 38.1231C195.596 37.6791 194.978 37.4571 194.126 37.4571C193.154 37.4571 192.374 37.7511 191.786 38.3391C191.21 38.9271 190.922 39.7191 190.922 40.7151V45.9531H190.184V39.4371C190.184 38.5011 190.136 37.6731 190.04 36.9531H190.76L190.886 38.6631C191.138 38.0391 191.546 37.5651 192.11 37.2411C192.674 36.9051 193.322 36.7371 194.054 36.7371Z" fill="#282F3F"/>
<path d="M201.403 44.6751V45.9531H200.179V44.6751H201.403Z" fill="#282F3F"/>
<path d="M207.422 46.0791C206.594 46.0791 205.868 45.8871 205.244 45.5031C204.632 45.1191 204.152 44.5791 203.804 43.8831C203.468 43.1751 203.3 42.3591 203.3 41.4351C203.3 40.5111 203.468 39.6951 203.804 38.9871C204.152 38.2671 204.638 37.7151 205.262 37.3311C205.886 36.9351 206.612 36.7371 207.44 36.7371C208.04 36.7371 208.61 36.8451 209.15 37.0611C209.69 37.2771 210.14 37.5711 210.5 37.9431L210.14 38.5911C209.648 38.1951 209.192 37.9071 208.772 37.7271C208.352 37.5471 207.908 37.4571 207.44 37.4571C206.408 37.4571 205.592 37.8171 204.992 38.5371C204.404 39.2451 204.11 40.2171 204.11 41.4531C204.11 42.6771 204.404 43.6311 204.992 44.3151C205.58 44.9991 206.39 45.3411 207.422 45.3411C207.89 45.3411 208.334 45.2571 208.754 45.0891C209.186 44.9091 209.648 44.6211 210.14 44.2251L210.5 44.8551C210.116 45.2391 209.648 45.5391 209.096 45.7551C208.556 45.9711 207.998 46.0791 207.422 46.0791Z" fill="#282F3F"/>
<path d="M216.086 46.0791C215.294 46.0791 214.592 45.8871 213.98 45.5031C213.368 45.1191 212.894 44.5731 212.558 43.8651C212.234 43.1571 212.072 42.3351 212.072 41.3991C212.072 40.4631 212.234 39.6471 212.558 38.9511C212.894 38.2431 213.368 37.6971 213.98 37.3131C214.592 36.9291 215.294 36.7371 216.086 36.7371C216.878 36.7371 217.574 36.9291 218.174 37.3131C218.786 37.6971 219.254 38.2431 219.578 38.9511C219.914 39.6471 220.082 40.4631 220.082 41.3991C220.082 42.3351 219.914 43.1571 219.578 43.8651C219.254 44.5731 218.786 45.1191 218.174 45.5031C217.574 45.8871 216.878 46.0791 216.086 46.0791ZM216.068 45.3411C217.088 45.3411 217.874 44.9991 218.426 44.3151C218.99 43.6311 219.272 42.6591 219.272 41.3991C219.272 40.1751 218.99 39.2151 218.426 38.5191C217.862 37.8231 217.082 37.4751 216.086 37.4751C215.09 37.4751 214.304 37.8231 213.728 38.5191C213.164 39.2031 212.882 40.1631 212.882 41.3991C212.882 42.6711 213.158 43.6491 213.71 44.3331C214.262 45.0051 215.048 45.3411 216.068 45.3411Z" fill="#282F3F"/>
<path d="M232.029 36.7371C234.009 36.7371 234.999 37.8771 234.999 40.1571V45.9531H234.243V40.2291C234.243 39.2691 234.069 38.5671 233.721 38.1231C233.373 37.6791 232.821 37.4571 232.065 37.4571C231.189 37.4571 230.493 37.7511 229.977 38.3391C229.461 38.9271 229.203 39.7191 229.203 40.7151V45.9531H228.447V40.2291C228.447 39.2691 228.273 38.5671 227.925 38.1231C227.577 37.6791 227.019 37.4571 226.251 37.4571C225.363 37.4571 224.661 37.7511 224.145 38.3391C223.629 38.9271 223.371 39.7191 223.371 40.7151V45.9531H222.633V39.4371C222.633 38.5011 222.585 37.6731 222.489 36.9531H223.209L223.335 38.6451C223.575 38.0331 223.941 37.5651 224.433 37.2411C224.937 36.9051 225.525 36.7371 226.197 36.7371C227.661 36.7371 228.597 37.3311 229.005 38.5191C229.257 37.9551 229.647 37.5171 230.175 37.2051C230.715 36.8931 231.333 36.7371 232.029 36.7371Z" fill="#282F3F"/>
<path fill-rule="evenodd" clip-rule="evenodd" d="M32.3067 18.7325L27.3926 41.7129C27.1999 42.5319 26.8747 43.0498 26.417 43.2666C25.9594 43.4834 25.3933 43.3991 24.7188 43.0136L17.2755 37.5215L13.6622 40.9902C13.4213 41.2311 13.2286 41.3997 13.0841 41.4961C12.8432 41.6406 12.53 41.7129 12.1446 41.7129L12.7227 34.125L26.5254 21.6231C26.7181 21.4785 26.7784 21.3461 26.7061 21.2256C26.6338 21.1052 26.4893 21.057 26.2725 21.0811C26.0557 21.1052 25.8269 21.1895 25.586 21.334L8.53134 32.1016L1.16026 29.7891C0.341254 29.5482 -0.0441625 29.1869 0.0040148 28.7051C0.0521921 28.2233 0.55805 27.7897 1.52159 27.4043L30.211 16.3477C30.9336 16.1068 31.5118 16.1911 31.9453 16.6006C32.3789 17.0101 32.4994 17.7207 32.3067 18.7325Z" fill="#282F3F"/>
</svg>
