<svg width="91" height="82" viewBox="0 0 91 82" fill="none" xmlns="http://www.w3.org/2000/svg">
<path fill-rule="evenodd" clip-rule="evenodd" d="M90.0021 68.5305C89.8931 66.4602 88.5409 63.8969 88.0289 61.5496C87.4628 58.9472 86.7547 55.7348 86.0556 52.2914C85.2445 48.2959 82.7992 45.6596 79.6308 43.7023C79.5898 43.0292 79.2658 41.092 79.2257 40.6039C78.7557 34.8402 77.3085 28.2934 74.9762 23.9108C74.3841 22.7977 73.409 21.9166 72.7009 20.5714C71.7048 18.6812 70.9807 16.1758 69.9686 14.0456C69.1455 12.3144 66.4551 8.45887 66.3261 8.42887C65.128 6.86767 62.9037 5.38248 60.5114 4.80241C59.5153 4.51937 58.5441 4.44937 57.629 4.58838C56.5169 4.7154 55.6838 5.37748 54.4876 5.5465C52.3683 5.84654 50.6741 4.09732 48.1138 3.87629C48.1138 3.87629 40.8019 -4.7438 32.9359 3.72527C32.6749 3.9123 32.2428 4.13933 31.8728 4.33335C30.4236 5.08945 27.7682 6.51363 26.4091 6.91268C24.7129 7.41174 22.8766 6.75966 21.2494 6.91268C15.6257 7.43874 13.1684 12.6114 12.5993 17.9921C8.4618 23.6508 6.27553 31.5418 5.76946 39.9979C3.38716 41.6811 0.0817426 43.8033 0.0017325 47.5868C-0.0392727 49.4901 0.655815 51.1703 1.21589 52.7465C1.99098 54.9327 18.4511 66.6942 23.2227 72.1739C27.3462 76.9055 33.0789 81.2751 41.891 81.8861C54.7216 82.7783 79.8688 78.1607 83.3253 77.3336C85.8696 76.7235 90.2391 72.992 90.0021 68.5305ZM56.8569 6.24059C59.5223 6.47862 61.4055 12.1573 68.5774 24.0248C70.1136 25.8731 74.4681 30.6567 73.9271 27.3013C73.676 25.7371 73.373 24.2549 73.029 22.8537C73.353 23.2787 73.661 23.6898 73.9021 24.1439C76.1494 28.3664 77.5435 34.6722 77.9966 40.2259C78.0256 40.5889 78.1436 43.7473 78.1536 43.8713C78.2296 45.4505 78.1786 47.7818 77.5455 48.869C77.2715 49.339 76.7894 49.5211 75.7733 50.1291C71.7648 52.0154 74.6102 57.9521 73.8031 60.4534C73.315 61.9676 69.9396 63.7759 68.7434 64.3179C68.6354 64.3679 69.5335 59.9274 68.8504 52.0574C68.0053 43.9444 66.5751 45.4125 63.3887 43.4103C60.3174 41.479 59.3902 16.5369 49.269 5.08345C51.1162 5.62451 52.4824 6.83266 54.1646 6.59163C55.1947 6.44662 55.8838 6.15358 56.8569 6.24059ZM13.8115 18.4411C14.4336 17.454 14.1495 16.1308 14.4686 15.0377C16.7028 13.2255 21.1924 15.0027 27.0742 35.5863C27.6272 37.5235 32.0958 32.874 32.3508 29.4855C33.0969 19.6043 28.9104 10.4821 23.9918 7.83279C25.0309 7.9368 26.098 8.06882 27.1162 7.76878C28.4233 7.38474 30.9816 6.01556 32.3808 5.28347C32.7359 5.09745 33.1529 4.87742 33.403 4.6984C33.911 4.33935 34.4021 3.9643 34.8941 3.60126C38.4676 3.9343 46.0666 7.33973 50.2831 29.0325C50.8282 31.5798 54.8337 43.4123 47.9158 46.1416C42.6541 48.3199 44.5664 56.844 45.3735 65.8031C45.3475 65.7971 45.3195 65.7921 45.2915 65.7881L35.5612 64.727C35.3092 64.7 35.0612 64.801 34.9021 64.998C34.7401 65.196 34.5211 65.3441 34.2571 65.4491C34.2871 64.543 34.2421 63.1498 34.3951 61.0915C34.8671 54.7257 33.3349 56.3759 28.2653 54.7257C23.1967 53.0765 23.6677 58.6172 23.6677 58.6172L23.5197 60.6475C13.7535 57.7781 11.1281 53.6246 11.0161 53.4415C11.1161 52.7875 11.0251 51.4183 11.1351 48.886C11.3732 43.3613 10.5971 44.7935 8.02575 43.3613C7.96374 43.3273 7.90373 43.2973 7.84472 43.2683C7.44967 42.1571 6.14851 30.5897 13.8115 18.4411Z" fill="#61E5F2"/>
<path fill-rule="evenodd" clip-rule="evenodd" d="M90.0021 68.5305C89.8931 66.4602 88.5409 63.8969 88.0289 61.5496C87.4628 58.9472 86.7547 55.7348 86.0556 52.2914C85.2445 48.2959 82.7992 45.6596 79.6308 43.7023C79.5898 43.0292 79.2658 41.092 79.2257 40.6039C78.7557 34.8402 77.3085 28.2934 74.9762 23.9108C74.3841 22.7977 73.409 21.9166 72.7009 20.5714C71.7048 18.6812 70.9807 16.1758 69.9686 14.0456C69.1455 12.3144 66.4551 8.45887 66.3261 8.42887C65.128 6.86767 62.9037 5.38248 60.5114 4.80241C59.5153 4.51937 58.5441 4.44937 57.629 4.58838C56.5169 4.7154 55.6838 5.37748 54.4876 5.5465C52.3683 5.84654 50.6741 4.09732 48.1138 3.87629C48.1138 3.87629 40.8019 -4.7438 32.9359 3.72527C32.6749 3.9123 32.2428 4.13933 31.8728 4.33335C30.4236 5.08945 27.7682 6.51363 26.4091 6.91268C24.7129 7.41174 22.8766 6.75966 21.2494 6.91268C15.6257 7.43874 13.1684 12.6114 12.5993 17.9921C8.4618 23.6508 6.27553 31.5418 5.76946 39.9979C3.38716 41.6811 0.0817426 43.8033 0.0017325 47.5868C-0.0392727 49.4901 0.655815 51.1703 1.21589 52.7465C1.99098 54.9327 18.4511 66.6942 23.2227 72.1739C27.3462 76.9055 33.0789 81.2751 41.891 81.8861C54.7216 82.7783 79.8688 78.1607 83.3253 77.3336C85.8696 76.7235 90.2391 72.992 90.0021 68.5305ZM56.8569 6.24059C59.5223 6.47862 61.4055 12.1573 68.5774 24.0248C70.1136 25.8731 74.4681 30.6567 73.9271 27.3013C73.676 25.7371 73.373 24.2549 73.029 22.8537C73.353 23.2787 73.661 23.6898 73.9021 24.1439C76.1494 28.3664 77.5435 34.6722 77.9966 40.2259C78.0256 40.5889 78.1436 43.7473 78.1536 43.8713C78.2296 45.4505 78.1786 47.7818 77.5455 48.869C77.2715 49.339 76.7894 49.5211 75.7733 50.1291C71.7648 52.0154 74.6102 57.9521 73.8031 60.4534C73.315 61.9676 69.9396 63.7759 68.7434 64.3179C68.6354 64.3679 69.5335 59.9274 68.8504 52.0574C68.0053 43.9444 66.5751 45.4125 63.3887 43.4103C60.3174 41.479 59.3902 16.5369 49.269 5.08345C51.1162 5.62451 52.4824 6.83266 54.1646 6.59163C55.1947 6.44662 55.8838 6.15358 56.8569 6.24059ZM13.8115 18.4411C14.4336 17.454 14.1495 16.1308 14.4686 15.0377C16.7028 13.2255 21.1924 15.0027 27.0742 35.5863C27.6272 37.5235 32.0958 32.874 32.3508 29.4855C33.0969 19.6043 28.9104 10.4821 23.9918 7.83279C25.0309 7.9368 26.098 8.06882 27.1162 7.76878C28.4233 7.38474 30.9816 6.01556 32.3808 5.28347C32.7359 5.09745 33.1529 4.87742 33.403 4.6984C33.911 4.33935 34.4021 3.9643 34.8941 3.60126C38.4676 3.9343 46.0666 7.33973 50.2831 29.0325C50.8282 31.5798 54.8337 43.4123 47.9158 46.1416C42.6541 48.3199 44.5664 56.844 45.3735 65.8031C45.3475 65.7971 45.3195 65.7921 45.2915 65.7881L35.5612 64.727C35.3092 64.7 35.0612 64.801 34.9021 64.998C34.7401 65.196 34.5211 65.3441 34.2571 65.4491C34.2871 64.543 34.2421 63.1498 34.3951 61.0915C34.8671 54.7257 33.3349 56.3759 28.2653 54.7257C23.1967 53.0765 23.6677 58.6172 23.6677 58.6172L23.5197 60.6475C13.7535 57.7781 11.1281 53.6246 11.0161 53.4415C11.1161 52.7875 11.0251 51.4183 11.1351 48.886C11.3732 43.3613 10.5971 44.7935 8.02575 43.3613C7.96374 43.3273 7.90373 43.2973 7.84472 43.2683C7.44967 42.1571 6.14851 30.5897 13.8115 18.4411Z" fill="url(#paint0_linear)"/>
<defs>
<linearGradient id="paint0_linear" x1="95.8213" y1="106.617" x2="95.8213" y2="14.0317" gradientUnits="userSpaceOnUse">
<stop stop-color="#21E8FF"/>
<stop offset="1" stop-color="#5362DC"/>
</linearGradient>
</defs>
</svg>
