<svg width="104" height="13" viewBox="0 0 104 13" fill="none" xmlns="http://www.w3.org/2000/svg">
<path d="M2.54873 12.226V0.417969H5.17673L11.3507 8.51797V0.417969H14.1587V12.226H15.9047V13H11.3507L5.35673 5.11597V13H0.802734V12.226H2.54873Z" fill="white"/>
<path d="M22.6176 12.226V13H16.7136V12.226H18.2616V0.417969H21.0696V12.226H22.6176Z" fill="white"/>
<path d="M25.1679 12.226V0.417969H27.7959L33.9699 8.51797V0.417969H36.7779V12.226H38.5239V13H33.9699L27.9759 5.11597V13H23.4219V12.226H25.1679Z" fill="white"/>
<path d="M49.3408 12.226V13H39.3328V12.226H41.4748C40.8868 11.962 40.3288 11.554 39.8008 11.002L41.2588 8.93197C42.0148 9.74797 42.8068 10.156 43.6348 10.156C44.0308 10.156 44.3668 9.99997 44.6428 9.68797C44.9308 9.37597 45.0748 8.91997 45.0748 8.31997V2.82997H41.3488V0.417969H47.9008V8.26597C47.9008 10.174 47.2528 11.494 45.9568 12.226H49.3408Z" fill="white"/>
<path d="M65.5807 12.226V13H60.8467L59.6767 10.282H54.4027L53.2327 13H48.4987V12.226H50.5687L55.6807 0.417969H58.3987L63.4927 12.226H65.5807ZM57.0487 4.16197L55.4647 7.81597H58.6147L57.0487 4.16197Z" fill="white"/>
<path d="M76.9328 12.226V13H64.5488V12.226H66.2948V0.417969H70.7408C72.6728 0.417969 74.0768 0.795969 74.9528 1.55197C75.8408 2.29597 76.2848 3.44797 76.2848 5.00797C76.2848 6.55597 75.8288 7.68997 74.9168 8.40997C74.0168 9.12997 72.6368 9.48997 70.7768 9.48997H69.1028V12.226H76.9328ZM70.9928 7.05997C71.9288 7.05997 72.5648 6.87397 72.9008 6.50197C73.2368 6.11797 73.4048 5.56597 73.4048 4.84597C73.4048 4.11397 73.1828 3.59797 72.7388 3.29797C72.3068 2.98597 71.6288 2.82997 70.7048 2.82997H69.1028V7.05997H70.9928Z" fill="white"/>
<path d="M93.1745 12.226V13H88.4405L87.2705 10.282H81.9965L80.8265 13H76.0925V12.226H78.1625L83.2745 0.417969H85.9925L91.0865 12.226H93.1745ZM84.6425 4.16197L83.0585 7.81597H86.2085L84.6425 4.16197Z" fill="white"/>
<path d="M103.465 12.226V13H92.3406V12.226H96.4986V8.03197L92.1426 0.417969H95.1846L97.9026 5.09797L100.621 0.417969H103.663L99.3066 8.03197V12.226H103.465Z" fill="white"/>
</svg>
