<svg width="708" height="39" viewBox="0 0 708 39" fill="none" xmlns="http://www.w3.org/2000/svg">
<g opacity="0.6">
<path d="M4.01236 3.96998H0.0683594V2.09998H10.1664V3.96998H6.22236V14H4.01236V3.96998Z" fill="#88A1AC"/>
<path d="M17.2719 4.81998C18.4166 4.81998 19.3346 5.15431 20.0259 5.82298C20.7173 6.49164 21.0629 7.48331 21.0629 8.79798V14H18.9379V9.06998C18.9379 8.27664 18.7509 7.68164 18.3769 7.28498C18.0029 6.87698 17.4703 6.67298 16.7789 6.67298C15.9969 6.67298 15.3793 6.91098 14.9259 7.38698C14.4726 7.85164 14.2459 8.52598 14.2459 9.40998V14H12.1209V1.38598H14.2459V5.97598C14.5973 5.60198 15.0279 5.31864 15.5379 5.12598C16.0593 4.92198 16.6373 4.81998 17.2719 4.81998Z" fill="#88A1AC"/>
<path d="M32.8756 9.51198C32.8756 9.65931 32.8643 9.86898 32.8416 10.141H25.7186C25.8433 10.8096 26.1663 11.3423 26.6876 11.739C27.2203 12.1243 27.8776 12.317 28.6596 12.317C29.657 12.317 30.4786 11.9883 31.1246 11.331L32.2636 12.64C31.8556 13.1273 31.34 13.4956 30.7166 13.745C30.0933 13.9943 29.3906 14.119 28.6086 14.119C27.6113 14.119 26.733 13.9206 25.9736 13.524C25.2143 13.1273 24.625 12.5776 24.2056 11.875C23.7976 11.161 23.5936 10.3563 23.5936 9.46098C23.5936 8.57698 23.792 7.78364 24.1886 7.08098C24.5966 6.36698 25.1576 5.81164 25.8716 5.41498C26.5856 5.01831 27.3903 4.81998 28.2856 4.81998C29.1696 4.81998 29.9573 5.01831 30.6486 5.41498C31.3513 5.80031 31.8953 6.34998 32.2806 7.06398C32.6773 7.76664 32.8756 8.58264 32.8756 9.51198ZM28.2856 6.51998C27.6056 6.51998 27.0276 6.72398 26.5516 7.13198C26.087 7.52864 25.8036 8.06131 25.7016 8.72998H30.8526C30.762 8.07264 30.4843 7.53998 30.0196 7.13198C29.555 6.72398 28.977 6.51998 28.2856 6.51998Z" fill="#88A1AC"/>
<path d="M44.3041 2.98398C43.4087 2.98398 42.9611 3.47131 42.9611 4.44598V4.98998H45.4601V6.68998H43.0291V14H40.9041V6.68998H39.4081V4.98998H40.9041V4.41198C40.9041 3.43731 41.1874 2.67231 41.7541 2.11698C42.3207 1.55031 43.1197 1.26698 44.1511 1.26698C44.9671 1.26698 45.6074 1.43131 46.0721 1.75998L45.4771 3.35798C45.1144 3.10864 44.7234 2.98398 44.3041 2.98398Z" fill="#88A1AC"/>
<path d="M50.6924 4.81998C52.0298 4.81998 53.0498 5.14298 53.7524 5.78898C54.4664 6.42364 54.8234 7.38698 54.8234 8.67898V14H52.8174V12.895C52.5568 13.2916 52.1828 13.5976 51.6954 13.813C51.2194 14.017 50.6414 14.119 49.9614 14.119C49.2814 14.119 48.6864 14.0056 48.1764 13.779C47.6664 13.541 47.2698 13.218 46.9864 12.81C46.7144 12.3906 46.5784 11.9203 46.5784 11.399C46.5784 10.583 46.8788 9.93131 47.4794 9.44398C48.0914 8.94531 49.0491 8.69598 50.3524 8.69598H52.6984V8.55998C52.6984 7.92531 52.5058 7.43798 52.1204 7.09798C51.7464 6.75798 51.1854 6.58798 50.4374 6.58798C49.9274 6.58798 49.4231 6.66731 48.9244 6.82598C48.4371 6.98464 48.0234 7.20564 47.6834 7.48898L46.8504 5.94198C47.3264 5.57931 47.8988 5.30164 48.5674 5.10898C49.2361 4.91631 49.9444 4.81998 50.6924 4.81998ZM50.4034 12.572C50.9361 12.572 51.4064 12.453 51.8144 12.215C52.2338 11.9656 52.5284 11.6143 52.6984 11.161V10.107H50.5054C49.2814 10.107 48.6694 10.5093 48.6694 11.314C48.6694 11.6993 48.8224 12.0053 49.1284 12.232C49.4344 12.4586 49.8594 12.572 50.4034 12.572Z" fill="#88A1AC"/>
<path d="M60.8556 14.119C60.1189 14.119 59.3993 14.0226 58.6966 13.83C57.9939 13.6373 57.4329 13.3936 57.0136 13.099L57.8296 11.484C58.2376 11.756 58.7249 11.977 59.2916 12.147C59.8696 12.3056 60.4363 12.385 60.9916 12.385C62.2609 12.385 62.8956 12.0506 62.8956 11.382C62.8956 11.0646 62.7313 10.8436 62.4026 10.719C62.0853 10.5943 61.5696 10.4753 60.8556 10.362C60.1076 10.2486 59.4956 10.1183 59.0196 9.97098C58.5549 9.82364 58.1469 9.56864 57.7956 9.20598C57.4556 8.83198 57.2856 8.31631 57.2856 7.65898C57.2856 6.79764 57.6426 6.11198 58.3566 5.60198C59.0819 5.08064 60.0566 4.81998 61.2806 4.81998C61.9039 4.81998 62.5273 4.89364 63.1506 5.04098C63.7739 5.17698 64.2839 5.36398 64.6806 5.60198L63.8646 7.21698C63.0939 6.76364 62.2269 6.53698 61.2636 6.53698C60.6403 6.53698 60.1643 6.63331 59.8356 6.82598C59.5183 7.00731 59.3596 7.25098 59.3596 7.55698C59.3596 7.89698 59.5296 8.14064 59.8696 8.28798C60.2209 8.42398 60.7593 8.55431 61.4846 8.67898C62.2099 8.79231 62.8049 8.92264 63.2696 9.06998C63.7343 9.21731 64.1309 9.46664 64.4596 9.81798C64.7996 10.1693 64.9696 10.668 64.9696 11.314C64.9696 12.164 64.6013 12.844 63.8646 13.354C63.1279 13.864 62.1249 14.119 60.8556 14.119Z" fill="#88A1AC"/>
<path d="M72.7566 13.507C72.5073 13.711 72.2013 13.864 71.8386 13.966C71.4873 14.068 71.1133 14.119 70.7166 14.119C69.7193 14.119 68.9486 13.8583 68.4046 13.337C67.8606 12.8156 67.5886 12.0563 67.5886 11.059V6.68998H66.0926V4.98998H67.5886V2.91598H69.7136V4.98998H72.1446V6.68998H69.7136V11.008C69.7136 11.45 69.8213 11.79 70.0366 12.028C70.252 12.2546 70.5636 12.368 70.9716 12.368C71.4476 12.368 71.8443 12.2433 72.1616 11.994L72.7566 13.507Z" fill="#88A1AC"/>
<path d="M83.2399 9.51198C83.2399 9.65931 83.2286 9.86898 83.2059 10.141H76.0829C76.2076 10.8096 76.5305 11.3423 77.0519 11.739C77.5845 12.1243 78.2419 12.317 79.0239 12.317C80.0212 12.317 80.8429 11.9883 81.4889 11.331L82.6279 12.64C82.2199 13.1273 81.7042 13.4956 81.0809 13.745C80.4576 13.9943 79.7549 14.119 78.9729 14.119C77.9756 14.119 77.0972 13.9206 76.3379 13.524C75.5785 13.1273 74.9892 12.5776 74.5699 11.875C74.1619 11.161 73.9579 10.3563 73.9579 9.46098C73.9579 8.57698 74.1562 7.78364 74.5529 7.08098C74.9609 6.36698 75.5219 5.81164 76.2359 5.41498C76.9499 5.01831 77.7545 4.81998 78.6499 4.81998C79.5339 4.81998 80.3216 5.01831 81.0129 5.41498C81.7156 5.80031 82.2595 6.34998 82.6449 7.06398C83.0415 7.76664 83.2399 8.58264 83.2399 9.51198ZM78.6499 6.51998C77.9699 6.51998 77.3919 6.72398 76.9159 7.13198C76.4512 7.52864 76.1679 8.06131 76.0659 8.72998H81.2169C81.1262 8.07264 80.8485 7.53998 80.3839 7.13198C79.9192 6.72398 79.3412 6.51998 78.6499 6.51998Z" fill="#88A1AC"/>
<path d="M88.5861 14.119C87.8494 14.119 87.1297 14.0226 86.4271 13.83C85.7244 13.6373 85.1634 13.3936 84.7441 13.099L85.5601 11.484C85.9681 11.756 86.4554 11.977 87.0221 12.147C87.6001 12.3056 88.1667 12.385 88.7221 12.385C89.9914 12.385 90.6261 12.0506 90.6261 11.382C90.6261 11.0646 90.4617 10.8436 90.1331 10.719C89.8157 10.5943 89.3001 10.4753 88.5861 10.362C87.8381 10.2486 87.2261 10.1183 86.7501 9.97098C86.2854 9.82364 85.8774 9.56864 85.5261 9.20598C85.1861 8.83198 85.0161 8.31631 85.0161 7.65898C85.0161 6.79764 85.3731 6.11198 86.0871 5.60198C86.8124 5.08064 87.7871 4.81998 89.0111 4.81998C89.6344 4.81998 90.2577 4.89364 90.8811 5.04098C91.5044 5.17698 92.0144 5.36398 92.4111 5.60198L91.5951 7.21698C90.8244 6.76364 89.9574 6.53698 88.9941 6.53698C88.3707 6.53698 87.8947 6.63331 87.5661 6.82598C87.2487 7.00731 87.0901 7.25098 87.0901 7.55698C87.0901 7.89698 87.2601 8.14064 87.6001 8.28798C87.9514 8.42398 88.4897 8.55431 89.2151 8.67898C89.9404 8.79231 90.5354 8.92264 91.0001 9.06998C91.4647 9.21731 91.8614 9.46664 92.1901 9.81798C92.5301 10.1693 92.7001 10.668 92.7001 11.314C92.7001 12.164 92.3317 12.844 91.5951 13.354C90.8584 13.864 89.8554 14.119 88.5861 14.119Z" fill="#88A1AC"/>
<path d="M100.487 13.507C100.238 13.711 99.9318 13.864 99.5691 13.966C99.2178 14.068 98.8438 14.119 98.4471 14.119C97.4498 14.119 96.6791 13.8583 96.1351 13.337C95.5911 12.8156 95.3191 12.0563 95.3191 11.059V6.68998H93.8231V4.98998H95.3191V2.91598H97.4441V4.98998H99.8751V6.68998H97.4441V11.008C97.4441 11.45 97.5518 11.79 97.7671 12.028C97.9824 12.2546 98.2941 12.368 98.7021 12.368C99.1781 12.368 99.5748 12.2433 99.8921 11.994L100.487 13.507Z" fill="#88A1AC"/>
<path d="M122.094 4.92198L118.745 14H116.705L114.359 7.74398L111.979 14H109.939L106.607 4.92198H108.613L111.01 11.62L113.509 4.92198H115.294L117.742 11.654L120.207 4.92198H122.094Z" fill="#88A1AC"/>
<path d="M127.241 4.81998C128.579 4.81998 129.599 5.14298 130.301 5.78898C131.015 6.42364 131.372 7.38698 131.372 8.67898V14H129.366V12.895C129.106 13.2916 128.732 13.5976 128.244 13.813C127.768 14.017 127.19 14.119 126.51 14.119C125.83 14.119 125.235 14.0056 124.725 13.779C124.215 13.541 123.819 13.218 123.535 12.81C123.263 12.3906 123.127 11.9203 123.127 11.399C123.127 10.583 123.428 9.93131 124.028 9.44398C124.64 8.94531 125.598 8.69598 126.901 8.69598H129.247V8.55998C129.247 7.92531 129.055 7.43798 128.669 7.09798C128.295 6.75798 127.734 6.58798 126.986 6.58798C126.476 6.58798 125.972 6.66731 125.473 6.82598C124.986 6.98464 124.572 7.20564 124.232 7.48898L123.399 5.94198C123.875 5.57931 124.448 5.30164 125.116 5.10898C125.785 4.91631 126.493 4.81998 127.241 4.81998ZM126.952 12.572C127.485 12.572 127.955 12.453 128.363 12.215C128.783 11.9656 129.077 11.6143 129.247 11.161V10.107H127.054C125.83 10.107 125.218 10.5093 125.218 11.314C125.218 11.6993 125.371 12.0053 125.677 12.232C125.983 12.4586 126.408 12.572 126.952 12.572Z" fill="#88A1AC"/>
<path d="M142.933 4.92198L138.683 14.731C138.287 15.717 137.805 16.4083 137.238 16.805C136.672 17.213 135.986 17.417 135.181 17.417C134.728 17.417 134.28 17.3433 133.838 17.196C133.396 17.0486 133.034 16.8446 132.75 16.584L133.6 15.02C133.804 15.2126 134.042 15.3656 134.314 15.479C134.598 15.5923 134.881 15.649 135.164 15.649C135.538 15.649 135.844 15.5526 136.082 15.36C136.332 15.1673 136.558 14.8443 136.762 14.391L136.915 14.034L132.954 4.92198H135.164L138.02 11.637L140.893 4.92198H142.933Z" fill="#88A1AC"/>
<path d="M155.417 13.507C155.167 13.711 154.861 13.864 154.499 13.966C154.147 14.068 153.773 14.119 153.377 14.119C152.379 14.119 151.609 13.8583 151.065 13.337C150.521 12.8156 150.249 12.0563 150.249 11.059V6.68998H148.753V4.98998H150.249V2.91598H152.374V4.98998H154.805V6.68998H152.374V11.008C152.374 11.45 152.481 11.79 152.697 12.028C152.912 12.2546 153.224 12.368 153.632 12.368C154.108 12.368 154.504 12.2433 154.822 11.994L155.417 13.507Z" fill="#88A1AC"/>
<path d="M161.446 14.119C160.528 14.119 159.701 13.9206 158.964 13.524C158.227 13.1273 157.649 12.5776 157.23 11.875C156.822 11.161 156.618 10.3563 156.618 9.46098C156.618 8.56564 156.822 7.76664 157.23 7.06398C157.649 6.36131 158.227 5.81164 158.964 5.41498C159.701 5.01831 160.528 4.81998 161.446 4.81998C162.375 4.81998 163.208 5.01831 163.945 5.41498C164.682 5.81164 165.254 6.36131 165.662 7.06398C166.081 7.76664 166.291 8.56564 166.291 9.46098C166.291 10.3563 166.081 11.161 165.662 11.875C165.254 12.5776 164.682 13.1273 163.945 13.524C163.208 13.9206 162.375 14.119 161.446 14.119ZM161.446 12.3C162.228 12.3 162.874 12.0393 163.384 11.518C163.894 10.9966 164.149 10.311 164.149 9.46098C164.149 8.61098 163.894 7.92531 163.384 7.40398C162.874 6.88264 162.228 6.62198 161.446 6.62198C160.664 6.62198 160.018 6.88264 159.508 7.40398C159.009 7.92531 158.76 8.61098 158.76 9.46098C158.76 10.311 159.009 10.9966 159.508 11.518C160.018 12.0393 160.664 12.3 161.446 12.3Z" fill="#88A1AC"/>
<path d="M176.826 14.119C176.09 14.119 175.37 14.0226 174.667 13.83C173.965 13.6373 173.404 13.3936 172.984 13.099L173.8 11.484C174.208 11.756 174.696 11.977 175.262 12.147C175.84 12.3056 176.407 12.385 176.962 12.385C178.232 12.385 178.866 12.0506 178.866 11.382C178.866 11.0646 178.702 10.8436 178.373 10.719C178.056 10.5943 177.54 10.4753 176.826 10.362C176.078 10.2486 175.466 10.1183 174.99 9.97098C174.526 9.82364 174.118 9.56864 173.766 9.20598C173.426 8.83198 173.256 8.31631 173.256 7.65898C173.256 6.79764 173.613 6.11198 174.327 5.60198C175.053 5.08064 176.027 4.81998 177.251 4.81998C177.875 4.81998 178.498 4.89364 179.121 5.04098C179.745 5.17698 180.255 5.36398 180.651 5.60198L179.835 7.21698C179.065 6.76364 178.198 6.53698 177.234 6.53698C176.611 6.53698 176.135 6.63331 175.806 6.82598C175.489 7.00731 175.33 7.25098 175.33 7.55698C175.33 7.89698 175.5 8.14064 175.84 8.28798C176.192 8.42398 176.73 8.55431 177.455 8.67898C178.181 8.79231 178.776 8.92264 179.24 9.06998C179.705 9.21731 180.102 9.46664 180.43 9.81798C180.77 10.1693 180.94 10.668 180.94 11.314C180.94 12.164 180.572 12.844 179.835 13.354C179.099 13.864 178.096 14.119 176.826 14.119Z" fill="#88A1AC"/>
<path d="M191.804 9.51198C191.804 9.65931 191.793 9.86898 191.77 10.141H184.647C184.772 10.8096 185.095 11.3423 185.616 11.739C186.149 12.1243 186.806 12.317 187.588 12.317C188.586 12.317 189.407 11.9883 190.053 11.331L191.192 12.64C190.784 13.1273 190.269 13.4956 189.645 13.745C189.022 13.9943 188.319 14.119 187.537 14.119C186.54 14.119 185.662 13.9206 184.902 13.524C184.143 13.1273 183.554 12.5776 183.134 11.875C182.726 11.161 182.522 10.3563 182.522 9.46098C182.522 8.57698 182.721 7.78364 183.117 7.08098C183.525 6.36698 184.086 5.81164 184.8 5.41498C185.514 5.01831 186.319 4.81998 187.214 4.81998C188.098 4.81998 188.886 5.01831 189.577 5.41498C190.28 5.80031 190.824 6.34998 191.209 7.06398C191.606 7.76664 191.804 8.58264 191.804 9.51198ZM187.214 6.51998C186.534 6.51998 185.956 6.72398 185.48 7.13198C185.016 7.52864 184.732 8.06131 184.63 8.72998H189.781C189.691 8.07264 189.413 7.53998 188.948 7.13198C188.484 6.72398 187.906 6.51998 187.214 6.51998Z" fill="#88A1AC"/>
<path d="M199.497 4.81998C200.641 4.81998 201.559 5.15431 202.251 5.82298C202.942 6.49164 203.288 7.48331 203.288 8.79798V14H201.163V9.06998C201.163 8.27664 200.976 7.68164 200.602 7.28498C200.228 6.87698 199.695 6.67298 199.004 6.67298C198.222 6.67298 197.604 6.91098 197.151 7.38698C196.697 7.85164 196.471 8.52598 196.471 9.40998V14H194.346V4.92198H196.369V6.09498C196.72 5.67564 197.162 5.35831 197.695 5.14298C198.227 4.92764 198.828 4.81998 199.497 4.81998Z" fill="#88A1AC"/>
<path d="M215.457 1.38598V14H213.417V12.827C213.066 13.2576 212.63 13.5806 212.108 13.796C211.598 14.0113 211.032 14.119 210.408 14.119C209.536 14.119 208.748 13.9263 208.045 13.541C207.354 13.1556 206.81 12.6116 206.413 11.909C206.017 11.195 205.818 10.379 205.818 9.46098C205.818 8.54298 206.017 7.73264 206.413 7.02998C206.81 6.32731 207.354 5.78331 208.045 5.39798C208.748 5.01264 209.536 4.81998 210.408 4.81998C211.009 4.81998 211.559 4.92198 212.057 5.12598C212.556 5.32998 212.981 5.63598 213.332 6.04398V1.38598H215.457ZM210.663 12.3C211.173 12.3 211.632 12.1866 212.04 11.96C212.448 11.722 212.771 11.3876 213.009 10.957C213.247 10.5263 213.366 10.0276 213.366 9.46098C213.366 8.89431 213.247 8.39564 213.009 7.96498C212.771 7.53431 212.448 7.20564 212.04 6.97898C211.632 6.74098 211.173 6.62198 210.663 6.62198C210.153 6.62198 209.694 6.74098 209.286 6.97898C208.878 7.20564 208.555 7.53431 208.317 7.96498C208.079 8.39564 207.96 8.89431 207.96 9.46098C207.96 10.0276 208.079 10.5263 208.317 10.957C208.555 11.3876 208.878 11.722 209.286 11.96C209.694 12.1866 210.153 12.3 210.663 12.3Z" fill="#88A1AC"/>
<path d="M227.403 4.81998C228.741 4.81998 229.761 5.14298 230.463 5.78898C231.177 6.42364 231.534 7.38698 231.534 8.67898V14H229.528V12.895C229.268 13.2916 228.894 13.5976 228.406 13.813C227.93 14.017 227.352 14.119 226.672 14.119C225.992 14.119 225.397 14.0056 224.887 13.779C224.377 13.541 223.981 13.218 223.697 12.81C223.425 12.3906 223.289 11.9203 223.289 11.399C223.289 10.583 223.59 9.93131 224.19 9.44398C224.802 8.94531 225.76 8.69598 227.063 8.69598H229.409V8.55998C229.409 7.92531 229.217 7.43798 228.831 7.09798C228.457 6.75798 227.896 6.58798 227.148 6.58798C226.638 6.58798 226.134 6.66731 225.635 6.82598C225.148 6.98464 224.734 7.20564 224.394 7.48898L223.561 5.94198C224.037 5.57931 224.61 5.30164 225.278 5.10898C225.947 4.91631 226.655 4.81998 227.403 4.81998ZM227.114 12.572C227.647 12.572 228.117 12.453 228.525 12.215C228.945 11.9656 229.239 11.6143 229.409 11.161V10.107H227.216C225.992 10.107 225.38 10.5093 225.38 11.314C225.38 11.6993 225.533 12.0053 225.839 12.232C226.145 12.4586 226.57 12.572 227.114 12.572Z" fill="#88A1AC"/>
<path d="M239.913 4.81998C241.057 4.81998 241.975 5.15431 242.667 5.82298C243.358 6.49164 243.704 7.48331 243.704 8.79798V14H241.579V9.06998C241.579 8.27664 241.392 7.68164 241.018 7.28498C240.644 6.87698 240.111 6.67298 239.42 6.67298C238.638 6.67298 238.02 6.91098 237.567 7.38698C237.113 7.85164 236.887 8.52598 236.887 9.40998V14H234.762V4.92198H236.785V6.09498C237.136 5.67564 237.578 5.35831 238.111 5.14298C238.643 4.92764 239.244 4.81998 239.913 4.81998Z" fill="#88A1AC"/>
<path d="M255.873 1.38598V14H253.833V12.827C253.482 13.2576 253.046 13.5806 252.524 13.796C252.014 14.0113 251.448 14.119 250.824 14.119C249.952 14.119 249.164 13.9263 248.461 13.541C247.77 13.1556 247.226 12.6116 246.829 11.909C246.433 11.195 246.234 10.379 246.234 9.46098C246.234 8.54298 246.433 7.73264 246.829 7.02998C247.226 6.32731 247.77 5.78331 248.461 5.39798C249.164 5.01264 249.952 4.81998 250.824 4.81998C251.425 4.81998 251.975 4.92198 252.473 5.12598C252.972 5.32998 253.397 5.63598 253.748 6.04398V1.38598H255.873ZM251.079 12.3C251.589 12.3 252.048 12.1866 252.456 11.96C252.864 11.722 253.187 11.3876 253.425 10.957C253.663 10.5263 253.782 10.0276 253.782 9.46098C253.782 8.89431 253.663 8.39564 253.425 7.96498C253.187 7.53431 252.864 7.20564 252.456 6.97898C252.048 6.74098 251.589 6.62198 251.079 6.62198C250.569 6.62198 250.11 6.74098 249.702 6.97898C249.294 7.20564 248.971 7.53431 248.733 7.96498C248.495 8.39564 248.376 8.89431 248.376 9.46098C248.376 10.0276 248.495 10.5263 248.733 10.957C248.971 11.3876 249.294 11.722 249.702 11.96C250.11 12.1866 250.569 12.3 251.079 12.3Z" fill="#88A1AC"/>
<path d="M266.374 6.24798C266.986 5.29598 268.063 4.81998 269.604 4.81998V6.84298C269.423 6.80898 269.259 6.79198 269.111 6.79198C268.284 6.79198 267.638 7.03564 267.173 7.52298C266.709 7.99898 266.476 8.69031 266.476 9.59698V14H264.351V4.92198H266.374V6.24798Z" fill="#88A1AC"/>
<path d="M280.358 9.51198C280.358 9.65931 280.347 9.86898 280.324 10.141H273.201C273.326 10.8096 273.649 11.3423 274.17 11.739C274.703 12.1243 275.36 12.317 276.142 12.317C277.139 12.317 277.961 11.9883 278.607 11.331L279.746 12.64C279.338 13.1273 278.822 13.4956 278.199 13.745C277.576 13.9943 276.873 14.119 276.091 14.119C275.094 14.119 274.215 13.9206 273.456 13.524C272.697 13.1273 272.107 12.5776 271.688 11.875C271.28 11.161 271.076 10.3563 271.076 9.46098C271.076 8.57698 271.274 7.78364 271.671 7.08098C272.079 6.36698 272.64 5.81164 273.354 5.41498C274.068 5.01831 274.873 4.81998 275.768 4.81998C276.652 4.81998 277.44 5.01831 278.131 5.41498C278.834 5.80031 279.378 6.34998 279.763 7.06398C280.16 7.76664 280.358 8.58264 280.358 9.51198ZM275.768 6.51998C275.088 6.51998 274.51 6.72398 274.034 7.13198C273.569 7.52864 273.286 8.06131 273.184 8.72998H278.335C278.244 8.07264 277.967 7.53998 277.502 7.13198C277.037 6.72398 276.459 6.51998 275.768 6.51998Z" fill="#88A1AC"/>
<path d="M287.064 14.119C286.124 14.119 285.279 13.9206 284.531 13.524C283.783 13.1273 283.2 12.5776 282.78 11.875C282.361 11.161 282.151 10.3563 282.151 9.46098C282.151 8.56564 282.361 7.76664 282.78 7.06398C283.2 6.36131 283.778 5.81164 284.514 5.41498C285.262 5.01831 286.112 4.81998 287.064 4.81998C287.96 4.81998 288.742 5.00131 289.41 5.36398C290.09 5.72664 290.6 6.24798 290.94 6.92798L289.308 7.87998C289.048 7.46064 288.719 7.14898 288.322 6.94498C287.937 6.72964 287.512 6.62198 287.047 6.62198C286.254 6.62198 285.597 6.88264 285.075 7.40398C284.554 7.91398 284.293 8.59964 284.293 9.46098C284.293 10.3223 284.548 11.0136 285.058 11.535C285.58 12.045 286.243 12.3 287.047 12.3C287.512 12.3 287.937 12.198 288.322 11.994C288.719 11.7786 289.048 11.4613 289.308 11.042L290.94 11.994C290.589 12.674 290.073 13.201 289.393 13.575C288.725 13.9376 287.948 14.119 287.064 14.119Z" fill="#88A1AC"/>
<path d="M301.678 9.51198C301.678 9.65931 301.667 9.86898 301.644 10.141H294.521C294.646 10.8096 294.969 11.3423 295.49 11.739C296.023 12.1243 296.68 12.317 297.462 12.317C298.46 12.317 299.281 11.9883 299.927 11.331L301.066 12.64C300.658 13.1273 300.143 13.4956 299.519 13.745C298.896 13.9943 298.193 14.119 297.411 14.119C296.414 14.119 295.536 13.9206 294.776 13.524C294.017 13.1273 293.428 12.5776 293.008 11.875C292.6 11.161 292.396 10.3563 292.396 9.46098C292.396 8.57698 292.595 7.78364 292.991 7.08098C293.399 6.36698 293.96 5.81164 294.674 5.41498C295.388 5.01831 296.193 4.81998 297.088 4.81998C297.972 4.81998 298.76 5.01831 299.451 5.41498C300.154 5.80031 300.698 6.34998 301.083 7.06398C301.48 7.76664 301.678 8.58264 301.678 9.51198ZM297.088 6.51998C296.408 6.51998 295.83 6.72398 295.354 7.13198C294.89 7.52864 294.606 8.06131 294.504 8.72998H299.655C299.565 8.07264 299.287 7.53998 298.822 7.13198C298.358 6.72398 297.78 6.51998 297.088 6.51998Z" fill="#88A1AC"/>
<path d="M304.22 4.92198H306.345V14H304.22V4.92198ZM305.291 3.42598C304.905 3.42598 304.582 3.30698 304.322 3.06898C304.061 2.81964 303.931 2.51364 303.931 2.15098C303.931 1.78831 304.061 1.48798 304.322 1.24998C304.582 1.00064 304.905 0.875977 305.291 0.875977C305.676 0.875977 305.999 0.994976 306.26 1.23298C306.52 1.45964 306.651 1.74864 306.651 2.09998C306.651 2.47398 306.52 2.79131 306.26 3.05198C306.01 3.30131 305.687 3.42598 305.291 3.42598Z" fill="#88A1AC"/>
<path d="M318.134 4.92198L314.241 14H312.048L308.155 4.92198H310.365L313.187 11.654L316.094 4.92198H318.134Z" fill="#88A1AC"/>
<path d="M328.247 9.51198C328.247 9.65931 328.235 9.86898 328.213 10.141H321.09C321.214 10.8096 321.537 11.3423 322.059 11.739C322.591 12.1243 323.249 12.317 324.031 12.317C325.028 12.317 325.85 11.9883 326.496 11.331L327.635 12.64C327.227 13.1273 326.711 13.4956 326.088 13.745C325.464 13.9943 324.762 14.119 323.98 14.119C322.982 14.119 322.104 13.9206 321.345 13.524C320.585 13.1273 319.996 12.5776 319.577 11.875C319.169 11.161 318.965 10.3563 318.965 9.46098C318.965 8.57698 319.163 7.78364 319.56 7.08098C319.968 6.36698 320.529 5.81164 321.243 5.41498C321.957 5.01831 322.761 4.81998 323.657 4.81998C324.541 4.81998 325.328 5.01831 326.02 5.41498C326.722 5.80031 327.266 6.34998 327.652 7.06398C328.048 7.76664 328.247 8.58264 328.247 9.51198ZM323.657 6.51998C322.977 6.51998 322.399 6.72398 321.923 7.13198C321.458 7.52864 321.175 8.06131 321.073 8.72998H326.224C326.133 8.07264 325.855 7.53998 325.391 7.13198C324.926 6.72398 324.348 6.51998 323.657 6.51998Z" fill="#88A1AC"/>
<path d="M347.444 4.81998C348.589 4.81998 349.495 5.15431 350.164 5.82298C350.833 6.48031 351.167 7.47198 351.167 8.79798V14H349.042V9.06998C349.042 8.27664 348.867 7.68164 348.515 7.28498C348.164 6.87698 347.66 6.67298 347.002 6.67298C346.288 6.67298 345.716 6.91098 345.285 7.38698C344.854 7.85164 344.639 8.52031 344.639 9.39298V14H342.514V9.06998C342.514 8.27664 342.338 7.68164 341.987 7.28498C341.636 6.87698 341.131 6.67298 340.474 6.67298C339.749 6.67298 339.171 6.90531 338.74 7.36998C338.321 7.83464 338.111 8.50898 338.111 9.39298V14H335.986V4.92198H338.009V6.07798C338.349 5.66998 338.774 5.35831 339.284 5.14298C339.794 4.92764 340.361 4.81998 340.984 4.81998C341.664 4.81998 342.265 4.95031 342.786 5.21098C343.319 5.46031 343.738 5.83431 344.044 6.33298C344.418 5.85698 344.9 5.48864 345.489 5.22798C346.078 4.95598 346.73 4.81998 347.444 4.81998Z" fill="#88A1AC"/>
<path d="M358.546 14.119C357.628 14.119 356.8 13.9206 356.064 13.524C355.327 13.1273 354.749 12.5776 354.33 11.875C353.922 11.161 353.718 10.3563 353.718 9.46098C353.718 8.56564 353.922 7.76664 354.33 7.06398C354.749 6.36131 355.327 5.81164 356.064 5.41498C356.8 5.01831 357.628 4.81998 358.546 4.81998C359.475 4.81998 360.308 5.01831 361.045 5.41498C361.781 5.81164 362.354 6.36131 362.762 7.06398C363.181 7.76664 363.391 8.56564 363.391 9.46098C363.391 10.3563 363.181 11.161 362.762 11.875C362.354 12.5776 361.781 13.1273 361.045 13.524C360.308 13.9206 359.475 14.119 358.546 14.119ZM358.546 12.3C359.328 12.3 359.974 12.0393 360.484 11.518C360.994 10.9966 361.249 10.311 361.249 9.46098C361.249 8.61098 360.994 7.92531 360.484 7.40398C359.974 6.88264 359.328 6.62198 358.546 6.62198C357.764 6.62198 357.118 6.88264 356.608 7.40398C356.109 7.92531 355.86 8.61098 355.86 9.46098C355.86 10.311 356.109 10.9966 356.608 11.518C357.118 12.0393 357.764 12.3 358.546 12.3Z" fill="#88A1AC"/>
<path d="M371.074 4.81998C372.218 4.81998 373.136 5.15431 373.828 5.82298C374.519 6.49164 374.865 7.48331 374.865 8.79798V14H372.74V9.06998C372.74 8.27664 372.553 7.68164 372.179 7.28498C371.805 6.87698 371.272 6.67298 370.581 6.67298C369.799 6.67298 369.181 6.91098 368.728 7.38698C368.274 7.85164 368.048 8.52598 368.048 9.40998V14H365.923V4.92198H367.946V6.09498C368.297 5.67564 368.739 5.35831 369.272 5.14298C369.804 4.92764 370.405 4.81998 371.074 4.81998Z" fill="#88A1AC"/>
<path d="M386.677 9.51198C386.677 9.65931 386.666 9.86898 386.643 10.141H379.52C379.645 10.8096 379.968 11.3423 380.489 11.739C381.022 12.1243 381.679 12.317 382.461 12.317C383.459 12.317 384.28 11.9883 384.926 11.331L386.065 12.64C385.657 13.1273 385.142 13.4956 384.518 13.745C383.895 13.9943 383.192 14.119 382.41 14.119C381.413 14.119 380.535 13.9206 379.775 13.524C379.016 13.1273 378.427 12.5776 378.007 11.875C377.599 11.161 377.395 10.3563 377.395 9.46098C377.395 8.57698 377.594 7.78364 377.99 7.08098C378.398 6.36698 378.959 5.81164 379.673 5.41498C380.387 5.01831 381.192 4.81998 382.087 4.81998C382.971 4.81998 383.759 5.01831 384.45 5.41498C385.153 5.80031 385.697 6.34998 386.082 7.06398C386.479 7.76664 386.677 8.58264 386.677 9.51198ZM382.087 6.51998C381.407 6.51998 380.829 6.72398 380.353 7.13198C379.889 7.52864 379.605 8.06131 379.503 8.72998H384.654C384.564 8.07264 384.286 7.53998 383.821 7.13198C383.357 6.72398 382.779 6.51998 382.087 6.51998Z" fill="#88A1AC"/>
<path d="M397.553 4.92198L393.303 14.731C392.906 15.717 392.424 16.4083 391.858 16.805C391.291 17.213 390.605 17.417 389.801 17.417C389.347 17.417 388.9 17.3433 388.458 17.196C388.016 17.0486 387.653 16.8446 387.37 16.584L388.22 15.02C388.424 15.2126 388.662 15.3656 388.934 15.479C389.217 15.5923 389.5 15.649 389.784 15.649C390.158 15.649 390.464 15.5526 390.702 15.36C390.951 15.1673 391.178 14.8443 391.382 14.391L391.535 14.034L387.574 4.92198H389.784L392.64 11.637L395.513 4.92198H397.553Z" fill="#88A1AC"/>
<path d="M418.74 4.92198L415.391 14H413.351L411.005 7.74398L408.625 14H406.585L403.253 4.92198H405.259L407.656 11.62L410.155 4.92198H411.94L414.388 11.654L416.853 4.92198H418.74Z" fill="#88A1AC"/>
<path d="M424.532 14.119C423.614 14.119 422.787 13.9206 422.05 13.524C421.313 13.1273 420.735 12.5776 420.316 11.875C419.908 11.161 419.704 10.3563 419.704 9.46098C419.704 8.56564 419.908 7.76664 420.316 7.06398C420.735 6.36131 421.313 5.81164 422.05 5.41498C422.787 5.01831 423.614 4.81998 424.532 4.81998C425.461 4.81998 426.294 5.01831 427.031 5.41498C427.768 5.81164 428.34 6.36131 428.748 7.06398C429.167 7.76664 429.377 8.56564 429.377 9.46098C429.377 10.3563 429.167 11.161 428.748 11.875C428.34 12.5776 427.768 13.1273 427.031 13.524C426.294 13.9206 425.461 14.119 424.532 14.119ZM424.532 12.3C425.314 12.3 425.96 12.0393 426.47 11.518C426.98 10.9966 427.235 10.311 427.235 9.46098C427.235 8.61098 426.98 7.92531 426.47 7.40398C425.96 6.88264 425.314 6.62198 424.532 6.62198C423.75 6.62198 423.104 6.88264 422.594 7.40398C422.095 7.92531 421.846 8.61098 421.846 9.46098C421.846 10.311 422.095 10.9966 422.594 11.518C423.104 12.0393 423.75 12.3 424.532 12.3Z" fill="#88A1AC"/>
<path d="M433.932 6.24798C434.544 5.29598 435.621 4.81998 437.162 4.81998V6.84298C436.981 6.80898 436.816 6.79198 436.669 6.79198C435.842 6.79198 435.196 7.03564 434.731 7.52298C434.266 7.99898 434.034 8.69031 434.034 9.59698V14H431.909V4.92198H433.932V6.24798Z" fill="#88A1AC"/>
<path d="M439.465 1.38598H441.59V14H439.465V1.38598Z" fill="#88A1AC"/>
<path d="M453.77 1.38598V14H451.73V12.827C451.378 13.2576 450.942 13.5806 450.421 13.796C449.911 14.0113 449.344 14.119 448.721 14.119C447.848 14.119 447.06 13.9263 446.358 13.541C445.666 13.1556 445.122 12.6116 444.726 11.909C444.329 11.195 444.131 10.379 444.131 9.46098C444.131 8.54298 444.329 7.73264 444.726 7.02998C445.122 6.32731 445.666 5.78331 446.358 5.39798C447.06 5.01264 447.848 4.81998 448.721 4.81998C449.321 4.81998 449.871 4.92198 450.37 5.12598C450.868 5.32998 451.293 5.63598 451.645 6.04398V1.38598H453.77ZM448.976 12.3C449.486 12.3 449.945 12.1866 450.353 11.96C450.761 11.722 451.084 11.3876 451.322 10.957C451.56 10.5263 451.679 10.0276 451.679 9.46098C451.679 8.89431 451.56 8.39564 451.322 7.96498C451.084 7.53431 450.761 7.20564 450.353 6.97898C449.945 6.74098 449.486 6.62198 448.976 6.62198C448.466 6.62198 448.007 6.74098 447.599 6.97898C447.191 7.20564 446.868 7.53431 446.63 7.96498C446.392 8.39564 446.273 8.89431 446.273 9.46098C446.273 10.0276 446.392 10.5263 446.63 10.957C446.868 11.3876 447.191 11.722 447.599 11.96C448.007 12.1866 448.466 12.3 448.976 12.3Z" fill="#88A1AC"/>
<path d="M471.211 4.92198L467.862 14H465.822L463.476 7.74398L461.096 14H459.056L455.724 4.92198H457.73L460.127 11.62L462.626 4.92198H464.411L466.859 11.654L469.324 4.92198H471.211Z" fill="#88A1AC"/>
<path d="M473.172 4.92198H475.297V14H473.172V4.92198ZM474.243 3.42598C473.857 3.42598 473.534 3.30698 473.274 3.06898C473.013 2.81964 472.883 2.51364 472.883 2.15098C472.883 1.78831 473.013 1.48798 473.274 1.24998C473.534 1.00064 473.857 0.875977 474.243 0.875977C474.628 0.875977 474.951 0.994976 475.212 1.23298C475.472 1.45964 475.603 1.74864 475.603 2.09998C475.603 2.47398 475.472 2.79131 475.212 3.05198C474.962 3.30131 474.639 3.42598 474.243 3.42598Z" fill="#88A1AC"/>
<path d="M487.477 1.38598V14H485.437V12.827C485.085 13.2576 484.649 13.5806 484.128 13.796C483.618 14.0113 483.051 14.119 482.428 14.119C481.555 14.119 480.767 13.9263 480.065 13.541C479.373 13.1556 478.829 12.6116 478.433 11.909C478.036 11.195 477.838 10.379 477.838 9.46098C477.838 8.54298 478.036 7.73264 478.433 7.02998C478.829 6.32731 479.373 5.78331 480.065 5.39798C480.767 5.01264 481.555 4.81998 482.428 4.81998C483.028 4.81998 483.578 4.92198 484.077 5.12598C484.575 5.32998 485 5.63598 485.352 6.04398V1.38598H487.477ZM482.683 12.3C483.193 12.3 483.652 12.1866 484.06 11.96C484.468 11.722 484.791 11.3876 485.029 10.957C485.267 10.5263 485.386 10.0276 485.386 9.46098C485.386 8.89431 485.267 8.39564 485.029 7.96498C484.791 7.53431 484.468 7.20564 484.06 6.97898C483.652 6.74098 483.193 6.62198 482.683 6.62198C482.173 6.62198 481.714 6.74098 481.306 6.97898C480.898 7.20564 480.575 7.53431 480.337 7.96498C480.099 8.39564 479.98 8.89431 479.98 9.46098C479.98 10.0276 480.099 10.5263 480.337 10.957C480.575 11.3876 480.898 11.722 481.306 11.96C481.714 12.1866 482.173 12.3 482.683 12.3Z" fill="#88A1AC"/>
<path d="M499.291 9.51198C499.291 9.65931 499.279 9.86898 499.257 10.141H492.134C492.258 10.8096 492.581 11.3423 493.103 11.739C493.635 12.1243 494.293 12.317 495.075 12.317C496.072 12.317 496.894 11.9883 497.54 11.331L498.679 12.64C498.271 13.1273 497.755 13.4956 497.132 13.745C496.508 13.9943 495.806 14.119 495.024 14.119C494.026 14.119 493.148 13.9206 492.389 13.524C491.629 13.1273 491.04 12.5776 490.621 11.875C490.213 11.161 490.009 10.3563 490.009 9.46098C490.009 8.57698 490.207 7.78364 490.604 7.08098C491.012 6.36698 491.573 5.81164 492.287 5.41498C493.001 5.01831 493.805 4.81998 494.701 4.81998C495.585 4.81998 496.372 5.01831 497.064 5.41498C497.766 5.80031 498.31 6.34998 498.696 7.06398C499.092 7.76664 499.291 8.58264 499.291 9.51198ZM494.701 6.51998C494.021 6.51998 493.443 6.72398 492.967 7.13198C492.502 7.52864 492.219 8.06131 492.117 8.72998H497.268C497.177 8.07264 496.899 7.53998 496.435 7.13198C495.97 6.72398 495.392 6.51998 494.701 6.51998Z" fill="#88A1AC"/>
<path d="M502.512 14.119C502.127 14.119 501.798 13.9886 501.526 13.728C501.254 13.456 501.118 13.116 501.118 12.708C501.118 12.2886 501.248 11.9486 501.509 11.688C501.781 11.4273 502.115 11.297 502.512 11.297C502.909 11.297 503.237 11.4273 503.498 11.688C503.77 11.9486 503.906 12.2886 503.906 12.708C503.906 13.116 503.77 13.456 503.498 13.728C503.226 13.9886 502.897 14.119 502.512 14.119Z" fill="#88A1AC"/>
<path d="M511.884 2.09998H514.094V14H511.884V2.09998Z" fill="#88A1AC"/>
<path d="M522.76 4.81998C523.905 4.81998 524.823 5.15431 525.514 5.82298C526.206 6.49164 526.551 7.48331 526.551 8.79798V14H524.426V9.06998C524.426 8.27664 524.239 7.68164 523.865 7.28498C523.491 6.87698 522.959 6.67298 522.267 6.67298C521.485 6.67298 520.868 6.91098 520.414 7.38698C519.961 7.85164 519.734 8.52598 519.734 9.40998V14H517.609V4.92198H519.632V6.09498C519.984 5.67564 520.426 5.35831 520.958 5.14298C521.491 4.92764 522.092 4.81998 522.76 4.81998Z" fill="#88A1AC"/>
<path d="M538.081 4.92198L534.188 14H531.995L528.102 4.92198H530.312L533.134 11.654L536.041 4.92198H538.081Z" fill="#88A1AC"/>
<path d="M548.194 9.51198C548.194 9.65931 548.183 9.86898 548.16 10.141H541.037C541.162 10.8096 541.485 11.3423 542.006 11.739C542.539 12.1243 543.196 12.317 543.978 12.317C544.975 12.317 545.797 11.9883 546.443 11.331L547.582 12.64C547.174 13.1273 546.658 13.4956 546.035 13.745C545.412 13.9943 544.709 14.119 543.927 14.119C542.93 14.119 542.051 13.9206 541.292 13.524C540.533 13.1273 539.943 12.5776 539.524 11.875C539.116 11.161 538.912 10.3563 538.912 9.46098C538.912 8.57698 539.11 7.78364 539.507 7.08098C539.915 6.36698 540.476 5.81164 541.19 5.41498C541.904 5.01831 542.709 4.81998 543.604 4.81998C544.488 4.81998 545.276 5.01831 545.967 5.41498C546.67 5.80031 547.214 6.34998 547.599 7.06398C547.996 7.76664 548.194 8.58264 548.194 9.51198ZM543.604 6.51998C542.924 6.51998 542.346 6.72398 541.87 7.13198C541.405 7.52864 541.122 8.06131 541.02 8.72998H546.171C546.08 8.07264 545.803 7.53998 545.338 7.13198C544.873 6.72398 544.295 6.51998 543.604 6.51998Z" fill="#88A1AC"/>
<path d="M553.54 14.119C552.803 14.119 552.084 14.0226 551.381 13.83C550.678 13.6373 550.118 13.3936 549.698 13.099L550.514 11.484C550.922 11.756 551.41 11.977 551.976 12.147C552.554 12.3056 553.121 12.385 553.676 12.385C554.946 12.385 555.58 12.0506 555.58 11.382C555.58 11.0646 555.416 10.8436 555.087 10.719C554.77 10.5943 554.254 10.4753 553.54 10.362C552.792 10.2486 552.18 10.1183 551.704 9.97098C551.239 9.82364 550.831 9.56864 550.48 9.20598C550.14 8.83198 549.97 8.31631 549.97 7.65898C549.97 6.79764 550.327 6.11198 551.041 5.60198C551.767 5.08064 552.741 4.81998 553.965 4.81998C554.589 4.81998 555.212 4.89364 555.835 5.04098C556.459 5.17698 556.969 5.36398 557.365 5.60198L556.549 7.21698C555.779 6.76364 554.912 6.53698 553.948 6.53698C553.325 6.53698 552.849 6.63331 552.52 6.82598C552.203 7.00731 552.044 7.25098 552.044 7.55698C552.044 7.89698 552.214 8.14064 552.554 8.28798C552.906 8.42398 553.444 8.55431 554.169 8.67898C554.895 8.79231 555.489 8.92264 555.954 9.06998C556.419 9.21731 556.815 9.46664 557.144 9.81798C557.484 10.1693 557.654 10.668 557.654 11.314C557.654 12.164 557.286 12.844 556.549 13.354C555.813 13.864 554.809 14.119 553.54 14.119Z" fill="#88A1AC"/>
<path d="M565.441 13.507C565.192 13.711 564.886 13.864 564.523 13.966C564.172 14.068 563.798 14.119 563.401 14.119C562.404 14.119 561.633 13.8583 561.089 13.337C560.545 12.8156 560.273 12.0563 560.273 11.059V6.68998H558.777V4.98998H560.273V2.91598H562.398V4.98998H564.829V6.68998H562.398V11.008C562.398 11.45 562.506 11.79 562.721 12.028C562.937 12.2546 563.248 12.368 563.656 12.368C564.132 12.368 564.529 12.2433 564.846 11.994L565.441 13.507Z" fill="#88A1AC"/>
<path d="M572.888 4.92198H575.013V14H572.888V4.92198ZM573.958 3.42598C573.573 3.42598 573.25 3.30698 572.99 3.06898C572.729 2.81964 572.599 2.51364 572.599 2.15098C572.599 1.78831 572.729 1.48798 572.99 1.24998C573.25 1.00064 573.573 0.875977 573.958 0.875977C574.344 0.875977 574.667 0.994976 574.928 1.23298C575.188 1.45964 575.319 1.74864 575.319 2.09998C575.319 2.47398 575.188 2.79131 574.928 3.05198C574.678 3.30131 574.355 3.42598 573.958 3.42598Z" fill="#88A1AC"/>
<path d="M583.453 4.81998C584.597 4.81998 585.515 5.15431 586.207 5.82298C586.898 6.49164 587.244 7.48331 587.244 8.79798V14H585.119V9.06998C585.119 8.27664 584.932 7.68164 584.558 7.28498C584.184 6.87698 583.651 6.67298 582.96 6.67298C582.178 6.67298 581.56 6.91098 581.107 7.38698C580.653 7.85164 580.427 8.52598 580.427 9.40998V14H578.302V4.92198H580.325V6.09498C580.676 5.67564 581.118 5.35831 581.651 5.14298C582.183 4.92764 582.784 4.81998 583.453 4.81998Z" fill="#88A1AC"/>
<path d="M600.669 4.81998C601.553 4.81998 602.341 5.01264 603.033 5.39798C603.735 5.78331 604.285 6.32731 604.682 7.02998C605.078 7.73264 605.277 8.54298 605.277 9.46098C605.277 10.379 605.078 11.195 604.682 11.909C604.285 12.6116 603.735 13.1556 603.033 13.541C602.341 13.9263 601.553 14.119 600.669 14.119C600.046 14.119 599.474 14.0113 598.953 13.796C598.443 13.5806 598.012 13.2576 597.661 12.827V14H595.638V1.38598H597.763V6.02698C598.125 5.63031 598.55 5.32998 599.038 5.12598C599.536 4.92198 600.08 4.81998 600.669 4.81998ZM600.432 12.3C601.214 12.3 601.854 12.0393 602.353 11.518C602.863 10.9966 603.118 10.311 603.118 9.46098C603.118 8.61098 602.863 7.92531 602.353 7.40398C601.854 6.88264 601.214 6.62198 600.432 6.62198C599.922 6.62198 599.463 6.74098 599.055 6.97898C598.647 7.20564 598.324 7.53431 598.086 7.96498C597.848 8.39564 597.729 8.89431 597.729 9.46098C597.729 10.0276 597.848 10.5263 598.086 10.957C598.324 11.3876 598.647 11.722 599.055 11.96C599.463 12.1866 599.922 12.3 600.432 12.3Z" fill="#88A1AC"/>
<path d="M607.792 4.92198H609.917V14H607.792V4.92198ZM608.863 3.42598C608.477 3.42598 608.154 3.30698 607.894 3.06898C607.633 2.81964 607.503 2.51364 607.503 2.15098C607.503 1.78831 607.633 1.48798 607.894 1.24998C608.154 1.00064 608.477 0.875977 608.863 0.875977C609.248 0.875977 609.571 0.994976 609.832 1.23298C610.093 1.45964 610.223 1.74864 610.223 2.09998C610.223 2.47398 610.093 2.79131 609.832 3.05198C609.583 3.30131 609.259 3.42598 608.863 3.42598Z" fill="#88A1AC"/>
<path d="M618.663 13.507C618.414 13.711 618.108 13.864 617.745 13.966C617.394 14.068 617.02 14.119 616.623 14.119C615.626 14.119 614.855 13.8583 614.311 13.337C613.767 12.8156 613.495 12.0563 613.495 11.059V6.68998H611.999V4.98998H613.495V2.91598H615.62V4.98998H618.051V6.68998H615.62V11.008C615.62 11.45 615.728 11.79 615.943 12.028C616.158 12.2546 616.47 12.368 616.878 12.368C617.354 12.368 617.751 12.2433 618.068 11.994L618.663 13.507Z" fill="#88A1AC"/>
<path d="M624.777 14.119C623.836 14.119 622.992 13.9206 622.244 13.524C621.496 13.1273 620.912 12.5776 620.493 11.875C620.074 11.161 619.864 10.3563 619.864 9.46098C619.864 8.56564 620.074 7.76664 620.493 7.06398C620.912 6.36131 621.49 5.81164 622.227 5.41498C622.975 5.01831 623.825 4.81998 624.777 4.81998C625.672 4.81998 626.454 5.00131 627.123 5.36398C627.803 5.72664 628.313 6.24798 628.653 6.92798L627.021 7.87998C626.76 7.46064 626.432 7.14898 626.035 6.94498C625.65 6.72964 625.225 6.62198 624.76 6.62198C623.967 6.62198 623.309 6.88264 622.788 7.40398C622.267 7.91398 622.006 8.59964 622.006 9.46098C622.006 10.3223 622.261 11.0136 622.771 11.535C623.292 12.045 623.955 12.3 624.76 12.3C625.225 12.3 625.65 12.198 626.035 11.994C626.432 11.7786 626.76 11.4613 627.021 11.042L628.653 11.994C628.302 12.674 627.786 13.201 627.106 13.575C626.437 13.9376 625.661 14.119 624.777 14.119Z" fill="#88A1AC"/>
<path d="M634.937 14.119C634.019 14.119 633.192 13.9206 632.455 13.524C631.719 13.1273 631.141 12.5776 630.721 11.875C630.313 11.161 630.109 10.3563 630.109 9.46098C630.109 8.56564 630.313 7.76664 630.721 7.06398C631.141 6.36131 631.719 5.81164 632.455 5.41498C633.192 5.01831 634.019 4.81998 634.937 4.81998C635.867 4.81998 636.7 5.01831 637.436 5.41498C638.173 5.81164 638.745 6.36131 639.153 7.06398C639.573 7.76664 639.782 8.56564 639.782 9.46098C639.782 10.3563 639.573 11.161 639.153 11.875C638.745 12.5776 638.173 13.1273 637.436 13.524C636.7 13.9206 635.867 14.119 634.937 14.119ZM634.937 12.3C635.719 12.3 636.365 12.0393 636.875 11.518C637.385 10.9966 637.64 10.311 637.64 9.46098C637.64 8.61098 637.385 7.92531 636.875 7.40398C636.365 6.88264 635.719 6.62198 634.937 6.62198C634.155 6.62198 633.509 6.88264 632.999 7.40398C632.501 7.92531 632.251 8.61098 632.251 9.46098C632.251 10.311 632.501 10.9966 632.999 11.518C633.509 12.0393 634.155 12.3 634.937 12.3Z" fill="#88A1AC"/>
<path d="M642.314 4.92198H644.439V14H642.314V4.92198ZM643.385 3.42598C643 3.42598 642.677 3.30698 642.416 3.06898C642.156 2.81964 642.025 2.51364 642.025 2.15098C642.025 1.78831 642.156 1.48798 642.416 1.24998C642.677 1.00064 643 0.875977 643.385 0.875977C643.771 0.875977 644.094 0.994976 644.354 1.23298C644.615 1.45964 644.745 1.74864 644.745 2.09998C644.745 2.47398 644.615 2.79131 644.354 3.05198C644.105 3.30131 643.782 3.42598 643.385 3.42598Z" fill="#88A1AC"/>
<path d="M652.879 4.81998C654.024 4.81998 654.942 5.15431 655.633 5.82298C656.325 6.49164 656.67 7.48331 656.67 8.79798V14H654.545V9.06998C654.545 8.27664 654.358 7.68164 653.984 7.28498C653.61 6.87698 653.078 6.67298 652.386 6.67298C651.604 6.67298 650.987 6.91098 650.533 7.38698C650.08 7.85164 649.853 8.52598 649.853 9.40998V14H647.728V4.92198H649.751V6.09498C650.103 5.67564 650.545 5.35831 651.077 5.14298C651.61 4.92764 652.211 4.81998 652.879 4.81998Z" fill="#88A1AC"/>
<path d="M660.546 14.119C660.161 14.119 659.832 13.9886 659.56 13.728C659.288 13.456 659.152 13.116 659.152 12.708C659.152 12.2886 659.282 11.9486 659.543 11.688C659.815 11.4273 660.149 11.297 660.546 11.297C660.943 11.297 661.271 11.4273 661.532 11.688C661.804 11.9486 661.94 12.2886 661.94 12.708C661.94 13.116 661.804 13.456 661.532 13.728C661.26 13.9886 660.931 14.119 660.546 14.119Z" fill="#88A1AC"/>
<path d="M674.815 2.09998C675.846 2.09998 676.741 2.26998 677.501 2.60998C678.271 2.94998 678.861 3.43731 679.269 4.07198C679.677 4.70664 679.881 5.46031 679.881 6.33298C679.881 7.19431 679.677 7.94798 679.269 8.59398C678.861 9.22864 678.271 9.71598 677.501 10.056C676.741 10.396 675.846 10.566 674.815 10.566H672.129V14H669.919V2.09998H674.815ZM674.713 8.69598C675.676 8.69598 676.407 8.49198 676.906 8.08398C677.404 7.67598 677.654 7.09231 677.654 6.33298C677.654 5.57364 677.404 4.98998 676.906 4.58198C676.407 4.17398 675.676 3.96998 674.713 3.96998H672.129V8.69598H674.713Z" fill="#88A1AC"/>
<path d="M682.55 1.38598H684.675V14H682.55V1.38598Z" fill="#88A1AC"/>
<path d="M691.432 4.81998C692.769 4.81998 693.789 5.14298 694.492 5.78898C695.206 6.42364 695.563 7.38698 695.563 8.67898V14H693.557V12.895C693.296 13.2916 692.922 13.5976 692.435 13.813C691.959 14.017 691.381 14.119 690.701 14.119C690.021 14.119 689.426 14.0056 688.916 13.779C688.406 13.541 688.009 13.218 687.726 12.81C687.454 12.3906 687.318 11.9203 687.318 11.399C687.318 10.583 687.618 9.93131 688.219 9.44398C688.831 8.94531 689.788 8.69598 691.092 8.69598H693.438V8.55998C693.438 7.92531 693.245 7.43798 692.86 7.09798C692.486 6.75798 691.925 6.58798 691.177 6.58798C690.667 6.58798 690.162 6.66731 689.664 6.82598C689.176 6.98464 688.763 7.20564 688.423 7.48898L687.59 5.94198C688.066 5.57931 688.638 5.30164 689.307 5.10898C689.975 4.91631 690.684 4.81998 691.432 4.81998ZM691.143 12.572C691.675 12.572 692.146 12.453 692.554 12.215C692.973 11.9656 693.268 11.6143 693.438 11.161V10.107H691.245C690.021 10.107 689.409 10.5093 689.409 11.314C689.409 11.6993 689.562 12.0053 689.868 12.232C690.174 12.4586 690.599 12.572 691.143 12.572Z" fill="#88A1AC"/>
<path d="M707.124 4.92198L702.874 14.731C702.477 15.717 701.995 16.4083 701.429 16.805C700.862 17.213 700.176 17.417 699.372 17.417C698.918 17.417 698.471 17.3433 698.029 17.196C697.587 17.0486 697.224 16.8446 696.941 16.584L697.791 15.02C697.995 15.2126 698.233 15.3656 698.505 15.479C698.788 15.5923 699.072 15.649 699.355 15.649C699.729 15.649 700.035 15.5526 700.273 15.36C700.522 15.1673 700.749 14.8443 700.953 14.391L701.106 14.034L697.145 4.92198H699.355L702.211 11.637L705.084 4.92198H707.124Z" fill="#88A1AC"/>
<path d="M10.4044 25.922V33.623C10.4044 36.819 8.77236 38.417 5.50836 38.417C4.63569 38.417 3.80836 38.3036 3.02636 38.077C2.24436 37.8616 1.59836 37.5443 1.08836 37.125L2.04036 35.527C2.43703 35.8556 2.93569 36.1163 3.53636 36.309C4.14836 36.513 4.76603 36.615 5.38936 36.615C6.38669 36.615 7.11769 36.3883 7.58236 35.935C8.04703 35.4816 8.27936 34.7903 8.27936 33.861V33.385C7.91669 33.7816 7.47469 34.082 6.95336 34.286C6.43203 34.49 5.85969 34.592 5.23636 34.592C4.37503 34.592 3.59303 34.4106 2.89036 34.048C2.19903 33.674 1.64936 33.1526 1.24136 32.484C0.844693 31.8153 0.646359 31.0503 0.646359 30.189C0.646359 29.3276 0.844693 28.5683 1.24136 27.911C1.64936 27.2423 2.19903 26.7266 2.89036 26.364C3.59303 26.0013 4.37503 25.82 5.23636 25.82C5.89369 25.82 6.48869 25.9276 7.02136 26.143C7.56536 26.3583 8.01869 26.687 8.38136 27.129V25.922H10.4044ZM5.55936 32.79C6.36403 32.79 7.02136 32.552 7.53136 32.076C8.05269 31.5886 8.31336 30.9596 8.31336 30.189C8.31336 29.4296 8.05269 28.812 7.53136 28.336C7.02136 27.86 6.36403 27.622 5.55936 27.622C4.74336 27.622 4.07469 27.86 3.55336 28.336C3.04336 28.812 2.78836 29.4296 2.78836 30.189C2.78836 30.9596 3.04336 31.5886 3.55336 32.076C4.07469 32.552 4.74336 32.79 5.55936 32.79Z" fill="#88A1AC"/>
<path d="M17.1661 25.82C18.5034 25.82 19.5234 26.143 20.2261 26.789C20.9401 27.4236 21.2971 28.387 21.2971 29.679V35H19.2911V33.895C19.0304 34.2916 18.6564 34.5976 18.1691 34.813C17.6931 35.017 17.1151 35.119 16.4351 35.119C15.7551 35.119 15.1601 35.0056 14.6501 34.779C14.1401 34.541 13.7434 34.218 13.4601 33.81C13.1881 33.3906 13.0521 32.9203 13.0521 32.399C13.0521 31.583 13.3524 30.9313 13.9531 30.444C14.5651 29.9453 15.5227 29.696 16.8261 29.696H19.1721V29.56C19.1721 28.9253 18.9794 28.438 18.5941 28.098C18.2201 27.758 17.6591 27.588 16.9111 27.588C16.4011 27.588 15.8967 27.6673 15.3981 27.826C14.9107 27.9846 14.4971 28.2056 14.1571 28.489L13.3241 26.942C13.8001 26.5793 14.3724 26.3016 15.0411 26.109C15.7097 25.9163 16.4181 25.82 17.1661 25.82ZM16.8771 33.572C17.4097 33.572 17.8801 33.453 18.2881 33.215C18.7074 32.9656 19.0021 32.6143 19.1721 32.161V31.107H16.9791C15.7551 31.107 15.1431 31.5093 15.1431 32.314C15.1431 32.6993 15.2961 33.0053 15.6021 33.232C15.9081 33.4586 16.3331 33.572 16.8771 33.572Z" fill="#88A1AC"/>
<path d="M35.9822 25.82C37.1269 25.82 38.0336 26.1543 38.7022 26.823C39.3709 27.4803 39.7052 28.472 39.7052 29.798V35H37.5802V30.07C37.5802 29.2766 37.4046 28.6816 37.0532 28.285C36.7019 27.877 36.1976 27.673 35.5402 27.673C34.8262 27.673 34.2539 27.911 33.8232 28.387C33.3926 28.8516 33.1772 29.5203 33.1772 30.393V35H31.0522V30.07C31.0522 29.2766 30.8766 28.6816 30.5252 28.285C30.1739 27.877 29.6696 27.673 29.0122 27.673C28.2869 27.673 27.7089 27.9053 27.2782 28.37C26.8589 28.8346 26.6492 29.509 26.6492 30.393V35H24.5242V25.922H26.5472V27.078C26.8872 26.67 27.3122 26.3583 27.8222 26.143C28.3322 25.9276 28.8989 25.82 29.5222 25.82C30.2022 25.82 30.8029 25.9503 31.3242 26.211C31.8569 26.4603 32.2762 26.8343 32.5822 27.333C32.9562 26.857 33.4379 26.4886 34.0272 26.228C34.6166 25.956 35.2682 25.82 35.9822 25.82Z" fill="#88A1AC"/>
<path d="M51.5377 30.512C51.5377 30.6593 51.5264 30.869 51.5037 31.141H44.3807C44.5054 31.8096 44.8284 32.3423 45.3497 32.739C45.8824 33.1243 46.5397 33.317 47.3217 33.317C48.3191 33.317 49.1407 32.9883 49.7867 32.331L50.9257 33.64C50.5177 34.1273 50.0021 34.4956 49.3787 34.745C48.7554 34.9943 48.0527 35.119 47.2707 35.119C46.2734 35.119 45.3951 34.9206 44.6357 34.524C43.8764 34.1273 43.2871 33.5776 42.8677 32.875C42.4597 32.161 42.2557 31.3563 42.2557 30.461C42.2557 29.577 42.4541 28.7836 42.8507 28.081C43.2587 27.367 43.8197 26.8116 44.5337 26.415C45.2477 26.0183 46.0524 25.82 46.9477 25.82C47.8317 25.82 48.6194 26.0183 49.3107 26.415C50.0134 26.8003 50.5574 27.35 50.9427 28.064C51.3394 28.7666 51.5377 29.5826 51.5377 30.512ZM46.9477 27.52C46.2677 27.52 45.6897 27.724 45.2137 28.132C44.7491 28.5286 44.4657 29.0613 44.3637 29.73H49.5147C49.4241 29.0726 49.1464 28.54 48.6817 28.132C48.2171 27.724 47.6391 27.52 46.9477 27.52Z" fill="#88A1AC"/>
<path d="M56.8839 35.119C56.1473 35.119 55.4276 35.0226 54.7249 34.83C54.0223 34.6373 53.4613 34.3936 53.0419 34.099L53.8579 32.484C54.2659 32.756 54.7533 32.977 55.3199 33.147C55.8979 33.3056 56.4646 33.385 57.0199 33.385C58.2893 33.385 58.9239 33.0506 58.9239 32.382C58.9239 32.0646 58.7596 31.8436 58.4309 31.719C58.1136 31.5943 57.5979 31.4753 56.8839 31.362C56.1359 31.2486 55.5239 31.1183 55.0479 30.971C54.5833 30.8236 54.1753 30.5686 53.8239 30.206C53.4839 29.832 53.3139 29.3163 53.3139 28.659C53.3139 27.7976 53.6709 27.112 54.3849 26.602C55.1103 26.0806 56.0849 25.82 57.3089 25.82C57.9323 25.82 58.5556 25.8936 59.1789 26.041C59.8023 26.177 60.3123 26.364 60.7089 26.602L59.8929 28.217C59.1223 27.7636 58.2553 27.537 57.2919 27.537C56.6686 27.537 56.1926 27.6333 55.8639 27.826C55.5466 28.0073 55.3879 28.251 55.3879 28.557C55.3879 28.897 55.5579 29.1406 55.8979 29.288C56.2493 29.424 56.7876 29.5543 57.5129 29.679C58.2383 29.7923 58.8333 29.9226 59.2979 30.07C59.7626 30.2173 60.1593 30.4666 60.4879 30.818C60.8279 31.1693 60.9979 31.668 60.9979 32.314C60.9979 33.164 60.6296 33.844 59.8929 34.354C59.1563 34.864 58.1533 35.119 56.8839 35.119Z" fill="#88A1AC"/>
<path d="M64.025 32.297C64.4216 32.297 64.7503 32.4273 65.011 32.688C65.2716 32.9486 65.402 33.2886 65.402 33.708C65.402 33.8893 65.3736 34.082 65.317 34.286C65.2716 34.4786 65.1696 34.7733 65.011 35.17L64.144 37.567H62.767L63.447 34.966C63.1976 34.864 62.9993 34.7053 62.852 34.49C62.716 34.2633 62.648 34.0026 62.648 33.708C62.648 33.2886 62.7783 32.9486 63.039 32.688C63.2996 32.4273 63.6283 32.297 64.025 32.297Z" fill="#88A1AC"/>
<path d="M76.6446 25.82C77.9819 25.82 79.0019 26.143 79.7046 26.789C80.4186 27.4236 80.7756 28.387 80.7756 29.679V35H78.7696V33.895C78.5089 34.2916 78.1349 34.5976 77.6476 34.813C77.1716 35.017 76.5936 35.119 75.9136 35.119C75.2336 35.119 74.6386 35.0056 74.1286 34.779C73.6186 34.541 73.2219 34.218 72.9386 33.81C72.6666 33.3906 72.5306 32.9203 72.5306 32.399C72.5306 31.583 72.8309 30.9313 73.4316 30.444C74.0436 29.9453 75.0013 29.696 76.3046 29.696H78.6506V29.56C78.6506 28.9253 78.4579 28.438 78.0726 28.098C77.6986 27.758 77.1376 27.588 76.3896 27.588C75.8796 27.588 75.3753 27.6673 74.8766 27.826C74.3893 27.9846 73.9756 28.2056 73.6356 28.489L72.8026 26.942C73.2786 26.5793 73.8509 26.3016 74.5196 26.109C75.1883 25.9163 75.8966 25.82 76.6446 25.82ZM76.3556 33.572C76.8882 33.572 77.3586 33.453 77.7666 33.215C78.1859 32.9656 78.4806 32.6143 78.6506 32.161V31.107H76.4576C75.2336 31.107 74.6216 31.5093 74.6216 32.314C74.6216 32.6993 74.7746 33.0053 75.0806 33.232C75.3866 33.4586 75.8116 33.572 76.3556 33.572Z" fill="#88A1AC"/>
<path d="M89.1538 25.82C90.2984 25.82 91.2164 26.1543 91.9078 26.823C92.5991 27.4916 92.9448 28.4833 92.9448 29.798V35H90.8198V30.07C90.8198 29.2766 90.6328 28.6816 90.2588 28.285C89.8848 27.877 89.3521 27.673 88.6608 27.673C87.8788 27.673 87.2611 27.911 86.8078 28.387C86.3544 28.8516 86.1278 29.526 86.1278 30.41V35H84.0028V25.922H86.0258V27.095C86.3771 26.6756 86.8191 26.3583 87.3518 26.143C87.8844 25.9276 88.4851 25.82 89.1538 25.82Z" fill="#88A1AC"/>
<path d="M105.114 22.386V35H103.074V33.827C102.723 34.2576 102.287 34.5806 101.765 34.796C101.255 35.0113 100.689 35.119 100.065 35.119C99.1928 35.119 98.4051 34.9263 97.7025 34.541C97.0111 34.1556 96.4671 33.6116 96.0705 32.909C95.6738 32.195 95.4755 31.379 95.4755 30.461C95.4755 29.543 95.6738 28.7326 96.0705 28.03C96.4671 27.3273 97.0111 26.7833 97.7025 26.398C98.4051 26.0126 99.1928 25.82 100.065 25.82C100.666 25.82 101.216 25.922 101.714 26.126C102.213 26.33 102.638 26.636 102.989 27.044V22.386H105.114ZM100.32 33.3C100.83 33.3 101.289 33.1866 101.697 32.96C102.105 32.722 102.428 32.3876 102.666 31.957C102.904 31.5263 103.023 31.0276 103.023 30.461C103.023 29.8943 102.904 29.3956 102.666 28.965C102.428 28.5343 102.105 28.2056 101.697 27.979C101.289 27.741 100.83 27.622 100.32 27.622C99.8105 27.622 99.3515 27.741 98.9435 27.979C98.5355 28.2056 98.2125 28.5343 97.9745 28.965C97.7365 29.3956 97.6175 29.8943 97.6175 30.461C97.6175 31.0276 97.7365 31.5263 97.9745 31.957C98.2125 32.3876 98.5355 32.722 98.9435 32.96C99.3515 33.1866 99.8105 33.3 100.32 33.3Z" fill="#88A1AC"/>
<path d="M122.484 22.386V35H120.444V33.827C120.092 34.2576 119.656 34.5806 119.135 34.796C118.625 35.0113 118.058 35.119 117.435 35.119C116.562 35.119 115.774 34.9263 115.072 34.541C114.38 34.1556 113.836 33.6116 113.44 32.909C113.043 32.195 112.845 31.379 112.845 30.461C112.845 29.543 113.043 28.7326 113.44 28.03C113.836 27.3273 114.38 26.7833 115.072 26.398C115.774 26.0126 116.562 25.82 117.435 25.82C118.035 25.82 118.585 25.922 119.084 26.126C119.582 26.33 120.007 26.636 120.359 27.044V22.386H122.484ZM117.69 33.3C118.2 33.3 118.659 33.1866 119.067 32.96C119.475 32.722 119.798 32.3876 120.036 31.957C120.274 31.5263 120.393 31.0276 120.393 30.461C120.393 29.8943 120.274 29.3956 120.036 28.965C119.798 28.5343 119.475 28.2056 119.067 27.979C118.659 27.741 118.2 27.622 117.69 27.622C117.18 27.622 116.721 27.741 116.313 27.979C115.905 28.2056 115.582 28.5343 115.344 28.965C115.106 29.3956 114.987 29.8943 114.987 30.461C114.987 31.0276 115.106 31.5263 115.344 31.957C115.582 32.3876 115.905 32.722 116.313 32.96C116.721 33.1866 117.18 33.3 117.69 33.3Z" fill="#88A1AC"/>
<path d="M129.844 35.119C128.926 35.119 128.098 34.9206 127.362 34.524C126.625 34.1273 126.047 33.5776 125.628 32.875C125.22 32.161 125.016 31.3563 125.016 30.461C125.016 29.5656 125.22 28.7666 125.628 28.064C126.047 27.3613 126.625 26.8116 127.362 26.415C128.098 26.0183 128.926 25.82 129.844 25.82C130.773 25.82 131.606 26.0183 132.342 26.415C133.079 26.8116 133.651 27.3613 134.059 28.064C134.479 28.7666 134.689 29.5656 134.689 30.461C134.689 31.3563 134.479 32.161 134.059 32.875C133.651 33.5776 133.079 34.1273 132.342 34.524C131.606 34.9206 130.773 35.119 129.844 35.119ZM129.844 33.3C130.626 33.3 131.271 33.0393 131.781 32.518C132.291 31.9966 132.546 31.311 132.546 30.461C132.546 29.611 132.291 28.9253 131.781 28.404C131.271 27.8826 130.626 27.622 129.844 27.622C129.062 27.622 128.416 27.8826 127.906 28.404C127.407 28.9253 127.158 29.611 127.158 30.461C127.158 31.311 127.407 31.9966 127.906 32.518C128.416 33.0393 129.062 33.3 129.844 33.3Z" fill="#88A1AC"/>
<path d="M145.887 25.82C147.224 25.82 148.244 26.143 148.947 26.789C149.661 27.4236 150.018 28.387 150.018 29.679V35H148.012V33.895C147.751 34.2916 147.377 34.5976 146.89 34.813C146.414 35.017 145.836 35.119 145.156 35.119C144.476 35.119 143.881 35.0056 143.371 34.779C142.861 34.541 142.464 34.218 142.181 33.81C141.909 33.3906 141.773 32.9203 141.773 32.399C141.773 31.583 142.073 30.9313 142.674 30.444C143.286 29.9453 144.243 29.696 145.547 29.696H147.893V29.56C147.893 28.9253 147.7 28.438 147.315 28.098C146.941 27.758 146.38 27.588 145.632 27.588C145.122 27.588 144.617 27.6673 144.119 27.826C143.631 27.9846 143.218 28.2056 142.878 28.489L142.045 26.942C142.521 26.5793 143.093 26.3016 143.762 26.109C144.43 25.9163 145.139 25.82 145.887 25.82ZM145.598 33.572C146.13 33.572 146.601 33.453 147.009 33.215C147.428 32.9656 147.723 32.6143 147.893 32.161V31.107H145.7C144.476 31.107 143.864 31.5093 143.864 32.314C143.864 32.6993 144.017 33.0053 144.323 33.232C144.629 33.4586 145.054 33.572 145.598 33.572Z" fill="#88A1AC"/>
<path d="M158.443 22.386H160.568V35H158.443V22.386Z" fill="#88A1AC"/>
<path d="M167.937 35.119C167.019 35.119 166.192 34.9206 165.455 34.524C164.719 34.1273 164.141 33.5776 163.721 32.875C163.313 32.161 163.109 31.3563 163.109 30.461C163.109 29.5656 163.313 28.7666 163.721 28.064C164.141 27.3613 164.719 26.8116 165.455 26.415C166.192 26.0183 167.019 25.82 167.937 25.82C168.867 25.82 169.7 26.0183 170.436 26.415C171.173 26.8116 171.745 27.3613 172.153 28.064C172.573 28.7666 172.782 29.5656 172.782 30.461C172.782 31.3563 172.573 32.161 172.153 32.875C171.745 33.5776 171.173 34.1273 170.436 34.524C169.7 34.9206 168.867 35.119 167.937 35.119ZM167.937 33.3C168.719 33.3 169.365 33.0393 169.875 32.518C170.385 31.9966 170.64 31.311 170.64 30.461C170.64 29.611 170.385 28.9253 169.875 28.404C169.365 27.8826 168.719 27.622 167.937 27.622C167.155 27.622 166.509 27.8826 165.999 28.404C165.501 28.9253 165.251 29.611 165.251 30.461C165.251 31.311 165.501 31.9966 165.999 32.518C166.509 33.0393 167.155 33.3 167.937 33.3Z" fill="#88A1AC"/>
<path d="M180.771 34.507C180.522 34.711 180.216 34.864 179.853 34.966C179.502 35.068 179.128 35.119 178.731 35.119C177.734 35.119 176.963 34.8583 176.419 34.337C175.875 33.8156 175.603 33.0563 175.603 32.059V27.69H174.107V25.99H175.603V23.916H177.728V25.99H180.159V27.69H177.728V32.008C177.728 32.45 177.836 32.79 178.051 33.028C178.267 33.2546 178.578 33.368 178.986 33.368C179.462 33.368 179.859 33.2433 180.176 32.994L180.771 34.507Z" fill="#88A1AC"/>
<path d="M199.676 25.82C200.82 25.82 201.727 26.1543 202.396 26.823C203.064 27.4803 203.399 28.472 203.399 29.798V35H201.274V30.07C201.274 29.2766 201.098 28.6816 200.747 28.285C200.395 27.877 199.891 27.673 199.234 27.673C198.52 27.673 197.947 27.911 197.517 28.387C197.086 28.8516 196.871 29.5203 196.871 30.393V35H194.746V30.07C194.746 29.2766 194.57 28.6816 194.219 28.285C193.867 27.877 193.363 27.673 192.706 27.673C191.98 27.673 191.402 27.9053 190.972 28.37C190.552 28.8346 190.343 29.509 190.343 30.393V35H188.218V25.922H190.241V27.078C190.581 26.67 191.006 26.3583 191.516 26.143C192.026 25.9276 192.592 25.82 193.216 25.82C193.896 25.82 194.496 25.9503 195.018 26.211C195.55 26.4603 195.97 26.8343 196.276 27.333C196.65 26.857 197.131 26.4886 197.721 26.228C198.31 25.956 198.962 25.82 199.676 25.82Z" fill="#88A1AC"/>
<path d="M210.777 35.119C209.859 35.119 209.032 34.9206 208.295 34.524C207.558 34.1273 206.98 33.5776 206.561 32.875C206.153 32.161 205.949 31.3563 205.949 30.461C205.949 29.5656 206.153 28.7666 206.561 28.064C206.98 27.3613 207.558 26.8116 208.295 26.415C209.032 26.0183 209.859 25.82 210.777 25.82C211.706 25.82 212.539 26.0183 213.276 26.415C214.013 26.8116 214.585 27.3613 214.993 28.064C215.412 28.7666 215.622 29.5656 215.622 30.461C215.622 31.3563 215.412 32.161 214.993 32.875C214.585 33.5776 214.013 34.1273 213.276 34.524C212.539 34.9206 211.706 35.119 210.777 35.119ZM210.777 33.3C211.559 33.3 212.205 33.0393 212.715 32.518C213.225 31.9966 213.48 31.311 213.48 30.461C213.48 29.611 213.225 28.9253 212.715 28.404C212.205 27.8826 211.559 27.622 210.777 27.622C209.995 27.622 209.349 27.8826 208.839 28.404C208.34 28.9253 208.091 29.611 208.091 30.461C208.091 31.311 208.34 31.9966 208.839 32.518C209.349 33.0393 209.995 33.3 210.777 33.3Z" fill="#88A1AC"/>
<path d="M220.177 27.248C220.789 26.296 221.866 25.82 223.407 25.82V27.843C223.226 27.809 223.061 27.792 222.914 27.792C222.087 27.792 221.441 28.0356 220.976 28.523C220.511 28.999 220.279 29.6903 220.279 30.597V35H218.154V25.922H220.177V27.248Z" fill="#88A1AC"/>
<path d="M234.161 30.512C234.161 30.6593 234.149 30.869 234.127 31.141H227.004C227.128 31.8096 227.451 32.3423 227.973 32.739C228.505 33.1243 229.163 33.317 229.945 33.317C230.942 33.317 231.764 32.9883 232.41 32.331L233.549 33.64C233.141 34.1273 232.625 34.4956 232.002 34.745C231.378 34.9943 230.676 35.119 229.894 35.119C228.896 35.119 228.018 34.9206 227.259 34.524C226.499 34.1273 225.91 33.5776 225.491 32.875C225.083 32.161 224.879 31.3563 224.879 30.461C224.879 29.577 225.077 28.7836 225.474 28.081C225.882 27.367 226.443 26.8116 227.157 26.415C227.871 26.0183 228.675 25.82 229.571 25.82C230.455 25.82 231.242 26.0183 231.934 26.415C232.636 26.8003 233.18 27.35 233.566 28.064C233.962 28.7666 234.161 29.5826 234.161 30.512ZM229.571 27.52C228.891 27.52 228.313 27.724 227.837 28.132C227.372 28.5286 227.089 29.0613 226.987 29.73H232.138C232.047 29.0726 231.769 28.54 231.305 28.132C230.84 27.724 230.262 27.52 229.571 27.52Z" fill="#88A1AC"/>
<path d="M237.382 35.119C236.997 35.119 236.668 34.9886 236.396 34.728C236.124 34.456 235.988 34.116 235.988 33.708C235.988 33.2886 236.118 32.9486 236.379 32.688C236.651 32.4273 236.985 32.297 237.382 32.297C237.779 32.297 238.107 32.4273 238.368 32.688C238.64 32.9486 238.776 33.2886 238.776 33.708C238.776 34.116 238.64 34.456 238.368 34.728C238.096 34.9886 237.767 35.119 237.382 35.119Z" fill="#88A1AC"/>
</g>
</svg>
