<svg width="119" height="14" viewBox="0 0 119 14" fill="none" xmlns="http://www.w3.org/2000/svg">
<path d="M13.205 4.83993V1.09993H0.625V12.9999H5.045V9.85493H12.185V6.11493H5.045V4.83993H13.205Z" fill="white"/>
<path d="M26.967 4.49993V1.09993H14.387V12.9999H26.967V9.59993H18.807V8.49493H26.967V5.60493H18.807V4.49993H26.967Z" fill="white"/>
<path d="M39.5391 12.9999H44.4011L39.4711 1.09993H32.9091L27.9791 12.9999H32.8411L33.6571 10.8579H38.7231L39.5391 12.9999ZM34.8131 7.79793L36.1901 4.15993L37.5671 7.79793H34.8131Z" fill="white"/>
<path d="M57.158 1.09993H42.538V4.83993H47.638V12.9999H52.058V4.83993H57.158V1.09993Z" fill="white"/>
<path d="M73.306 7.03293V1.09993H68.886V7.03293C68.886 8.29093 68.427 9.42993 65.826 9.42993C63.225 9.42993 62.766 8.30793 62.766 7.03293V1.09993H58.346V7.03293C58.346 11.1809 60.59 13.1699 65.826 13.1699C71.045 13.1699 73.306 11.1639 73.306 7.03293Z" fill="white"/>
<path d="M88.5706 5.65593C88.5706 3.00393 86.7176 1.09993 84.0146 1.09993H74.6646V12.9999H79.0846V10.2119H81.6856L83.3346 12.9999H88.5706L86.4626 9.58293C87.7716 8.81793 88.5706 7.38993 88.5706 5.65593ZM79.0846 4.83993H83.1646C83.6066 4.83993 84.1506 4.83993 84.1506 5.65593C84.1506 6.47193 83.6066 6.47193 83.1646 6.47193H79.0846V4.83993Z" fill="white"/>
<path d="M102.335 4.49993V1.09993H89.7548V12.9999H102.335V9.59993H94.1748V8.49493H102.335V5.60493H94.1748V4.49993H102.335Z" fill="white"/>
<path d="M103.347 8.80093C103.347 12.3369 106.067 13.1699 110.946 13.1699C115.825 13.1699 118.545 12.3369 118.545 9.05593C118.545 5.94493 115.638 5.62193 110.946 5.43493C108.362 5.33293 107.937 5.34993 107.937 4.89093C107.937 4.43193 108.362 4.32993 110.436 4.32993C112.595 4.32993 113.615 4.46593 113.615 5.09493H118.035C118.035 2.05193 115.417 0.929932 110.776 0.929932C106.084 0.929932 103.517 2.05193 103.517 4.66993C103.517 7.44093 105.574 8.32493 110.946 8.49493C113.734 8.57993 114.125 8.64793 114.125 9.15793C114.125 9.59993 113.734 9.76993 111.116 9.76993C108.311 9.76993 107.767 9.37893 107.767 8.80093H103.347Z" fill="white"/>
</svg>
