<svg width="551" height="152" viewBox="0 0 551 152" fill="none" xmlns="http://www.w3.org/2000/svg">
<path fill-rule="evenodd" clip-rule="evenodd" d="M398.137 65.8063C399.31 65.8145 400.373 65.7319 400.498 65.62C400.992 65.1802 400.573 64.8192 399.802 65.0206C399.354 65.1399 398.472 65.2225 397.84 65.2057C397.209 65.1888 396.538 65.3137 396.348 65.4819C396.135 65.6709 396.825 65.7953 398.137 65.8063Z" fill="#21728D"/>
<path fill-rule="evenodd" clip-rule="evenodd" d="M350.613 73.0505C350.642 73.2166 351.207 73.2564 351.868 73.1398C352.53 73.0232 353.048 72.7923 353.019 72.6263C352.99 72.4612 352.424 72.4217 351.762 72.5383C351.101 72.6549 350.584 72.8854 350.613 73.0505Z" fill="#21728D"/>
<path fill-rule="evenodd" clip-rule="evenodd" d="M381.202 71.2661C380.971 71.5958 381.386 71.966 381.888 71.8775C382.128 71.8353 382.286 71.5979 382.242 71.3493C382.162 70.8957 381.499 70.8433 381.202 71.2661Z" fill="#21728D"/>
<path fill-rule="evenodd" clip-rule="evenodd" d="M412.809 62.8716C414.543 62.3619 415.308 61.881 414.736 61.6545C414.583 61.5954 413.392 61.6342 412.089 61.7414C409.61 61.9446 409.289 62.1837 410.426 62.9813C410.912 63.3221 411.344 63.3001 412.809 62.8716Z" fill="#21728D"/>
<path fill-rule="evenodd" clip-rule="evenodd" d="M378.758 71.8076C378.889 71.9546 379.184 72.0431 379.412 72.0027C379.64 71.9626 379.887 71.7787 379.961 71.5955C380.036 71.4055 379.754 71.3214 379.306 71.4004C378.857 71.4796 378.622 71.6547 378.758 71.8076Z" fill="#21728D"/>
<path fill-rule="evenodd" clip-rule="evenodd" d="M357.799 71.122C357.549 71.325 356.959 71.4356 356.423 71.3794C355.685 71.3011 355.321 71.4486 354.713 72.0664C353.528 73.2688 354.24 73.3836 357.353 72.4923C358.884 72.0512 360.469 71.6324 360.873 71.5564C361.4 71.4598 361.5 71.3466 361.227 71.1554C360.634 70.7381 358.295 70.7155 357.799 71.122Z" fill="#21728D"/>
<path fill-rule="evenodd" clip-rule="evenodd" d="M391.199 65.8938C391.228 66.0598 391.591 66.1353 392.004 66.0624C392.417 65.9896 392.732 65.7948 392.702 65.6288C392.673 65.4636 392.311 65.3881 391.898 65.4609C391.484 65.5339 391.17 65.7287 391.199 65.8938Z" fill="#21728D"/>
<path fill-rule="evenodd" clip-rule="evenodd" d="M407.774 65.5448C408.976 65.4312 410.501 65.3811 411.165 65.4342C413.679 65.6383 417.103 65.6922 418.498 65.5499C419.297 65.4718 420.14 65.5056 420.373 65.6282C420.605 65.7489 421.048 65.8917 421.356 65.945C421.663 65.9956 421.954 66.2614 422.001 66.5308C422.065 66.8928 422.218 66.9351 422.572 66.6911C423.494 66.0524 424.925 66.0396 427.087 66.6489C428.281 66.9865 429.283 67.3926 429.311 67.5532C429.339 67.7138 429.565 67.8097 429.814 67.7658C430.061 67.7222 430.229 67.4831 430.185 67.2346C430.084 66.6658 430.41 66.6045 431.253 67.0369C431.626 67.2274 431.751 67.4083 431.54 67.4511C431.334 67.4921 431.205 67.745 431.251 68.0109C431.32 68.4009 431.127 68.4939 430.274 68.4853C428.701 68.4672 428.749 69.0415 430.387 69.8377C431.938 70.5911 433.146 70.4913 432.841 69.6341C432.573 68.8759 433.614 68.8168 434.802 69.5212C436.018 70.2422 436.597 70.1944 436.454 69.3843C436.396 69.0531 436.213 68.8075 436.048 68.8367C435.882 68.8659 435.723 68.7537 435.693 68.5859C435.64 68.2856 435.736 68.3024 437.664 68.8996C438.058 69.021 438.795 69.1651 439.303 69.2168C440.07 69.2985 440.234 69.2154 440.275 68.7199C440.316 68.2085 440.436 68.1546 441.125 68.3315C441.765 68.4974 441.969 68.4417 442.127 68.0557C442.411 67.364 442.211 66.5151 441.743 66.4228C441.522 66.3776 441.23 65.8557 441.092 65.258C440.755 63.7993 440.027 63.285 439.266 63.973C438.813 64.3794 438.617 64.4176 438.256 64.1632C437.894 63.9109 437.878 63.7874 438.174 63.5238C438.597 63.1471 438.206 62.565 437.602 62.6715C437.378 62.711 437.171 62.9009 437.142 63.0922C437.083 63.4974 433.94 63.162 433.087 62.6577C432.794 62.4886 432.267 62.4794 431.916 62.6396C431.429 62.863 431.299 62.8194 431.37 62.4524C431.483 61.8751 429.711 61.7301 427.963 62.1712C427.344 62.3298 426.652 62.3584 426.425 62.2394C426.197 62.1205 425.304 61.9656 424.439 61.8964C423.574 61.8272 422.717 61.6772 422.535 61.5642C422.353 61.4504 421.81 61.4275 421.326 61.5127C420.579 61.6444 420.515 61.7249 420.901 62.0525C421.151 62.2639 421.606 62.3932 421.912 62.3391C422.22 62.2849 422.75 62.5384 423.093 62.9035C423.811 63.6675 425.042 63.8133 428.276 63.519C429.527 63.4059 430.642 63.3993 430.754 63.5057C431.157 63.895 432.791 64.141 433.789 63.9649C434.351 63.8659 434.92 63.9087 435.055 64.0598C435.189 64.2111 435.52 64.2584 435.789 64.1642C436.111 64.0503 436.355 64.2272 436.504 64.6846C436.865 65.7929 436.414 66.0418 434.845 65.598C433.987 65.3547 432.601 65.2811 431.42 65.4153C428.636 65.7342 426.133 65.6171 425.319 65.1319C424.879 64.8691 423.934 64.7934 422.724 64.9235C421.457 65.0591 420.667 64.9871 420.361 64.7097C420.091 64.4656 419.272 64.3435 418.374 64.4147C417.532 64.4837 415.317 64.5731 413.448 64.6118C411.58 64.654 409.681 64.7597 409.227 64.8462C408.671 64.9536 408.376 64.8522 408.32 64.5338C408.254 64.1609 408.034 64.1371 407.291 64.4186C406.126 64.8627 405.275 65.1783 404.891 65.3096C404.088 65.5868 405.847 65.7313 407.774 65.5448Z" fill="#21728D"/>
<path fill-rule="evenodd" clip-rule="evenodd" d="M420.904 64.2722C421.126 64.3183 421.464 64.2586 421.656 64.1396C421.848 64.0187 421.667 63.9806 421.253 64.0535C420.84 64.1263 420.683 64.2241 420.904 64.2722Z" fill="#21728D"/>
<path fill-rule="evenodd" clip-rule="evenodd" d="M387.059 63.3664C388.938 62.761 388.949 61.9537 387.074 62.2769C386.117 62.4419 385.895 62.4016 386.192 62.1153C386.478 61.8414 386.083 61.838 384.795 62.1007C383.683 62.3284 382.829 62.6765 382.554 63.0159C382.308 63.3165 382.125 63.6611 382.147 63.7818C382.21 64.1437 385.51 63.8632 387.059 63.3664Z" fill="#21728D"/>
<path fill-rule="evenodd" clip-rule="evenodd" d="M390.936 62.9359C392.239 63.2545 393.132 63.2008 393.873 62.7548C394.656 62.2848 393.926 62.0019 392.552 62.2441C391.818 62.3737 391.193 62.3453 391.164 62.1784C391.135 62.0142 390.772 61.9388 390.359 62.0116C389.27 62.2036 389.509 62.5834 390.936 62.9359Z" fill="#21728D"/>
<path fill-rule="evenodd" clip-rule="evenodd" d="M380.562 63.5846C380.415 63.7171 380.306 63.8841 380.319 63.9567C380.332 64.0302 380.476 64.0655 380.641 64.0364C380.807 64.0071 380.917 63.8399 380.886 63.6648C380.856 63.4907 380.71 63.4528 380.562 63.5846Z" fill="#21728D"/>
<path fill-rule="evenodd" clip-rule="evenodd" d="M407.352 62.7542C407.955 62.2812 408.065 61.4976 407.47 61.915C407.28 62.0476 406.893 62.2851 406.613 62.4431C406.286 62.6261 406.223 62.8167 406.439 62.9675C406.656 63.1183 406.986 63.0424 407.352 62.7542Z" fill="#21728D"/>
<path fill-rule="evenodd" clip-rule="evenodd" d="M394.486 84.5344C394.515 84.6986 394.81 84.7879 395.141 84.7295C395.471 84.6713 395.718 84.4865 395.689 84.3223C395.66 84.1572 395.365 84.0689 395.035 84.1272C394.703 84.1855 394.457 84.3693 394.486 84.5344Z" fill="#21728D"/>
<path fill-rule="evenodd" clip-rule="evenodd" d="M385.028 84.4483C384.79 84.5913 384.621 84.8485 384.651 85.0181C384.718 85.4019 385.03 85.3525 385.547 84.8816C386.034 84.4403 385.62 84.0932 385.028 84.4483Z" fill="#21728D"/>
<mask id="mask0_1369_13765" style="mask-type:alpha" maskUnits="userSpaceOnUse" x="264" y="43" width="181" height="71">
<path fill-rule="evenodd" clip-rule="evenodd" d="M264 73.7356L438.006 43.0536L444.985 82.6334L270.979 113.315L264 73.7356Z" fill="white"/>
</mask>
<g mask="url(#mask0_1369_13765)">
<path fill-rule="evenodd" clip-rule="evenodd" d="M354.316 89.7568C353.678 89.8693 353.343 90.0548 353.485 90.214C353.616 90.361 354.122 90.4122 354.608 90.3264C355.095 90.2407 355.469 90.0344 355.44 89.8693C355.411 89.7042 354.905 89.653 354.316 89.7568Z" fill="#21728D"/>
<path fill-rule="evenodd" clip-rule="evenodd" d="M421.122 78.8098C420.92 78.9353 420.659 78.9701 420.541 78.8889C420.424 78.8049 420.589 78.7036 420.908 78.6596C421.262 78.614 421.345 78.6723 421.122 78.8098ZM418.059 79.139C417.894 79.1681 417.651 79.0706 417.52 78.9234C417.389 78.7763 417.416 78.6313 417.581 78.6022C417.747 78.5729 417.99 78.6703 418.122 78.8173C418.253 78.9645 418.225 79.1097 418.059 79.139ZM405.462 79.4994C404.712 79.6317 404.231 79.2385 404.667 78.8502C404.832 78.7051 405.223 78.7642 405.537 78.9839C406.065 79.3547 406.059 79.3941 405.462 79.4994ZM400.526 73.5281C399.714 73.6929 399.463 73.5912 399.859 73.2603C399.97 73.1669 400.351 73.1512 400.705 73.2262C401.268 73.3441 401.244 73.3827 400.526 73.5281ZM397.987 74.0671C396.752 74.3999 394.822 74.4073 395.586 74.076C396.248 73.7891 399.325 73.314 399.356 73.4918C399.376 73.6005 398.759 73.8589 397.987 74.0671ZM380.686 85.7185C379.746 85.8907 378.87 85.9095 378.739 85.7625C378.607 85.6155 378.608 85.4675 378.74 85.434C378.871 85.3996 379.463 85.2353 380.052 85.065C380.685 84.8833 381.387 84.8905 381.761 85.0828C382.331 85.3741 382.222 85.4392 380.686 85.7185ZM368.732 83.8331C368.49 84.1789 366.222 84.618 359.345 85.6519C358.597 85.7642 357.689 85.7503 357.325 85.6227C356.962 85.4923 355.51 85.5659 354.098 85.783C350.708 86.3059 350.083 86.3599 349.622 86.1654C349.409 86.0767 349.033 86.1241 348.788 86.2694C348.495 86.4474 348.313 86.3737 348.257 86.0543C348.21 85.7885 347.969 85.6076 347.721 85.6512C347.473 85.6949 347.242 85.5785 347.21 85.3925C347.168 85.1566 347.602 85.0408 348.616 85.0145C350.028 84.9788 352.829 84.4952 356.165 83.7133C357.172 83.4777 358.132 83.4498 358.775 83.6403C359.335 83.8064 360.892 83.8105 362.234 83.6487C363.577 83.4886 364.855 83.456 365.076 83.5751C365.48 83.7956 366.474 83.7945 368.108 83.5718C368.751 83.4828 368.925 83.5567 368.732 83.8331ZM339.819 74.2119C339.261 74.7938 337.781 75.153 337.455 74.785C337.338 74.654 336.269 74.7031 335.079 74.8951C333.889 75.0853 332.845 75.191 332.757 75.1288C332.578 75.0033 334.071 74.2667 334.549 74.2451C334.717 74.2369 336.085 74.1089 337.588 73.9608C340.022 73.7224 340.263 73.7491 339.819 74.2119ZM318.106 78.1215C316.905 78.3248 315.902 78.3698 315.875 78.2183C315.849 78.0686 316.138 77.8904 316.519 77.8234C316.899 77.7563 317.319 77.5448 317.452 77.3557C317.808 76.8478 322.853 75.6008 322.924 76.0036C323.023 76.567 320.361 77.737 318.106 78.1215ZM314.767 77.1988C314.436 77.4993 314.45 77.6586 314.846 78.1023C315.442 78.7672 315.121 78.9302 311.576 79.7594C310.223 80.0745 309.109 80.2794 309.097 80.2132C309.061 80.0055 310.829 78.9089 312.249 78.2581C313.002 77.9121 313.669 77.4998 313.732 77.3428C313.796 77.1829 314.144 77.0036 314.507 76.9424C315.04 76.8521 315.089 76.9024 314.767 77.1988ZM337.433 67.014C337.826 66.9524 337.823 67.0155 337.418 67.3554C337.147 67.5847 336.858 67.7244 336.775 67.6661C336.525 67.4904 336.925 67.0953 337.433 67.014ZM338.737 66.4656C339.019 66.4158 339.101 66.1161 338.972 65.6019C338.811 64.9606 338.934 64.7388 339.632 64.4014C340.753 63.8642 341.376 63.9948 341.313 64.7597C341.277 65.1973 341.441 65.3621 341.9 65.3485C342.251 65.339 342.614 65.4742 342.707 65.6485C342.932 66.0673 341.933 66.5128 339.989 66.8603C339.12 67.0172 338.387 67.0089 338.358 66.8429C338.329 66.6778 338.498 66.5077 338.737 66.4656ZM348.055 66.4513C348.716 66.3376 348.963 66.3586 348.602 66.4962C348.24 66.6337 347.698 66.7265 347.398 66.7019C347.097 66.6773 347.393 66.5652 348.055 66.4513ZM351.799 66.1556L353.883 66.109L352.358 66.6594C351.232 67.0646 350.696 67.1292 350.311 66.91C349.36 66.3686 349.69 66.2001 351.799 66.1556ZM355.582 65.6901C356.402 65.5314 357.403 65.0828 357.961 64.6243C359.033 63.7487 359.94 63.4803 360.335 63.9242C360.492 64.1012 360.987 64.0683 361.579 63.846C362.575 63.4712 362.876 63.666 362.384 64.3691C362.191 64.6455 362.223 64.796 362.499 64.9063C362.731 65.0001 362.906 64.7972 362.938 64.3986C362.982 63.8699 363.226 63.6959 364.16 63.5313C365.464 63.3013 365.743 63.6627 364.816 64.3837C364.478 64.6443 364.144 64.9961 364.071 65.1623C363.999 65.3322 363.41 65.5567 362.764 65.6631C362.118 65.7696 360.335 66.0708 358.805 66.3312C357.274 66.5909 356 66.6865 355.974 66.5413C355.949 66.3962 355.532 66.206 355.049 66.1199C354.236 65.9761 354.277 65.9427 355.582 65.6901ZM366.086 63.4016C366.802 62.9714 368.627 62.6973 368.682 63.0121C368.708 63.159 368.275 63.414 367.72 63.5812L367.722 63.5808C367.168 63.7467 366.462 63.8413 366.155 63.7899C365.62 63.7035 365.617 63.6845 366.086 63.4016ZM370.185 64.9369C371.206 64.4239 371.579 64.3786 372.825 64.6193C374.938 65.0248 374.969 65.3459 372.929 65.7055C371.946 65.8789 370.66 65.9102 370.069 65.7776L368.996 65.5339L370.185 64.9369ZM444.635 82.2692C444.384 82.2275 443.827 81.9273 443.397 81.5999C442.967 81.2753 442.427 81.0329 442.196 81.0624C441.965 81.0938 441.11 80.9013 440.296 80.636C439.481 80.37 438.413 80.0635 437.923 79.9545C437.43 79.8459 437.037 79.5878 437.046 79.3813C437.056 79.1757 436.47 78.6448 435.744 78.2032C434.21 77.2707 434.317 76.5691 435.905 77.1402C436.673 77.4165 437.059 77.4091 437.386 77.113C438.051 76.513 437.644 76.2182 436.309 76.3319C435.651 76.389 434.89 76.3061 434.618 76.1503C433.901 75.7398 433.382 75.7565 430.543 76.2664C429.142 76.519 427.839 76.644 427.647 76.5431C427.455 76.4424 426.415 76.4985 425.337 76.6681C424.216 76.8423 422.841 76.8405 422.13 76.662C420.994 76.3769 420.924 76.305 421.347 75.8656C422.111 75.0696 421.433 75.0076 419.783 75.7261C417.498 76.7173 415.144 76.5075 414.872 75.2842C414.846 75.1626 416.204 74.8539 417.891 74.5976C419.987 74.2805 420.977 74.0161 421.015 73.7662C421.046 73.5652 420.899 73.4509 420.688 73.5077C419.439 73.857 415.977 73.8042 415.589 73.4312C415.21 73.0686 415.089 73.0806 414.72 73.5151C414.213 74.1145 409.506 75.1613 408.47 74.9062C407.91 74.7692 407.966 74.7266 408.788 74.6706C409.335 74.633 409.763 74.4883 409.74 74.3532C409.716 74.2171 410.248 73.7172 410.922 73.2419C412.409 72.1941 412.917 71.4525 412.238 71.3215C411.984 71.272 411.429 71.4371 411.008 71.69C409.96 72.3135 407.966 72.6324 407.738 72.2123C407.616 71.9869 406.809 71.9954 405.394 72.2384C404.206 72.4413 403.219 72.521 403.2 72.4157C403.149 72.1413 401.471 72.1603 397.934 72.4724C396.242 72.6211 394.643 72.6198 394.381 72.4705C394.118 72.3194 393.138 72.2527 392.205 72.319C391.272 72.3862 390.556 72.3227 390.614 72.1767C390.813 71.6749 389.934 71.6017 387.528 71.9155C386.202 72.0896 384.996 72.1834 384.849 72.1233C384.7 72.0653 382.694 72.2638 380.387 72.5667C375.159 73.2529 373.747 73.2802 373.645 72.7014C373.587 72.3748 373.94 72.1901 374.987 71.9999C376.831 71.6626 377.565 70.8044 375.814 71.0309C371.538 71.5856 371.105 71.6872 371.336 72.0711C371.509 72.3588 371.279 72.4974 370.443 72.6177C369.324 72.7786 367.151 72.7212 367.746 72.5461C367.917 72.4962 368.285 72.2079 368.563 71.9072C369.02 71.4122 368.795 71.4098 366.216 71.8787C364.646 72.1657 363.149 72.3792 362.889 72.3539C360.815 72.1574 360.035 72.265 359.772 72.7857C359.534 73.2543 359.121 73.356 356.742 73.5276C355.227 73.6395 353.151 73.7343 352.129 73.7414C351.107 73.7466 348.846 73.977 347.104 74.2514C343.998 74.742 342.676 74.6468 341.544 73.854C340.87 73.3826 341.304 73.1564 343.477 72.8472C345.496 72.5614 347.118 71.7618 347.269 70.9774C347.392 70.3497 346.028 70.6173 345.537 71.3184C345.237 71.7492 344.738 71.8896 343.081 72.0152C341.939 72.1016 340.329 72.3079 339.507 72.4752C338.2 72.7384 338.067 72.7132 338.465 72.2839C338.715 72.0106 338.908 71.7176 338.892 71.6305C338.877 71.5443 337.73 71.7465 336.343 72.08C333.957 72.6541 333.784 72.6555 333.089 72.0766C332.429 71.5289 332.325 71.5229 332.062 72.0126C331.835 72.4409 331.28 72.6313 329.505 72.89C326.211 73.3671 324.844 73.2966 324.896 72.6485C324.931 72.2243 324.728 72.1646 323.859 72.3413C323.265 72.4609 322.658 72.6624 322.511 72.7893C322.363 72.9164 321.832 73.1887 321.331 73.3923C320.321 73.8013 319.61 73.4196 320.566 72.9809C321.371 72.6106 320.945 72.2078 319.717 72.1792C319.109 72.1658 318.811 72.0303 318.954 71.833C319.084 71.6501 319.755 71.5149 320.489 71.5221C321.313 71.5293 321.888 71.3961 322.053 71.1603C322.237 70.8987 322.624 70.8389 323.353 70.9629C324.539 71.1626 329.711 70.3291 332.772 69.4442C334.785 68.8628 336.113 68.8636 336.726 69.4486C336.905 69.62 337.078 69.54 337.21 69.2286C337.389 68.8004 337.942 68.7122 341.612 68.5112C345.872 68.2802 346.519 68.3382 345.892 68.8967C345.639 69.1239 345.745 69.2258 346.277 69.2704C346.681 69.3031 347.033 69.1904 347.061 69.0181C347.087 68.8451 347.243 68.7587 347.408 68.825C348.065 69.0852 354.141 68.1166 354.502 67.691C354.786 67.3556 354.88 67.368 354.948 67.7536C354.996 68.0221 355.151 68.221 355.296 68.1956C355.439 68.1703 356.785 68.1472 358.285 68.1456C359.785 68.1419 362.052 67.9321 363.323 67.68C364.594 67.4297 365.763 67.2732 365.92 67.3324C366.078 67.3924 368.621 67.3313 371.573 67.1962C375.63 67.0093 377.129 66.8348 377.724 66.4829C378.305 66.1373 378.528 66.1073 378.573 66.3641C378.723 67.1937 385.583 66.8894 386.188 66.0261C386.442 65.6632 385.728 65.3092 384.999 65.4378C384.566 65.5141 383.774 65.5238 383.24 65.4599C380.08 65.0788 379.244 65.0691 377.329 65.4012C375.42 65.7321 375.192 65.7087 375.013 65.1623C374.701 64.2117 375.989 63.4656 377.281 63.8486C378.187 64.1172 378.347 64.0871 378.937 63.5331C379.344 63.1498 379.919 62.9268 380.474 62.9394C380.959 62.9511 381.412 62.8227 381.479 62.6545C381.655 62.2147 380.666 61.9758 378.893 62.0292C378.045 62.0554 377.226 62.0267 377.073 61.9676C376.501 61.7411 373.978 62.1868 373.335 62.6295C372.784 63.0083 372.597 63.0065 372.287 62.6263C372.02 62.3011 371.701 62.2564 371.206 62.4774C370.777 62.67 370.48 62.6625 370.444 62.4584C370.412 62.276 369.939 62.2041 369.393 62.3004C368.847 62.3966 368.246 62.3669 368.058 62.2356C367.869 62.1033 366.081 62.209 364.084 62.4694C362.088 62.7315 359.619 62.9546 358.599 62.9653C355.983 62.9933 354.383 63.3232 353.794 63.9564C353.03 64.7778 351.639 64.9426 351.32 64.2468C351.058 63.6785 350.356 63.574 350.156 64.0751C350.099 64.2189 349.666 64.3859 349.195 64.4474C348.725 64.5089 347.829 64.6276 347.205 64.7105C346.445 64.8137 346.044 64.7216 345.993 64.4349C345.933 64.0938 345.562 64.0994 344.215 64.4613L342.514 64.9184L343.131 64.2092C343.769 63.4717 343.539 62.7219 342.81 63.161C342.582 63.2985 342.16 63.2766 341.874 63.1128C341.588 62.9518 341.29 62.9052 341.215 63.0139C341.138 63.1228 340.627 63.1091 340.079 62.986C339.407 62.834 338.8 62.8962 338.218 63.1803C337.634 63.4666 337.265 63.5037 337.082 63.2983C336.896 63.0906 336.462 63.1392 335.699 63.4561C335.088 63.7098 332.999 64.2072 331.059 64.5596C327.58 65.1944 327.527 65.1936 327.408 64.5186C327.267 63.7203 326.507 63.728 326.227 64.5305C325.985 65.2261 325.21 64.9427 325.272 64.1806C325.325 63.5192 324.906 63.4576 321.995 63.7015C319.557 63.905 312.72 65.0769 310.711 65.6341C309.899 65.8615 308.033 66.3552 306.565 66.7336C304.97 67.144 303.729 67.6265 303.483 67.9309C303.209 68.2693 302.036 68.6715 299.987 69.1291C298.292 69.5065 296.796 69.9725 296.659 70.1678C296.525 70.3608 295.899 70.6085 295.272 70.7192C294.456 70.863 294.152 71.0514 294.208 71.3734C294.288 71.827 294.002 71.9927 293.013 72.065C292.719 72.086 292.508 72.2729 292.544 72.4807C292.582 72.6966 292.397 72.6526 292.111 72.3775C291.633 71.9201 291.502 71.9404 289.169 72.8318C287.824 73.3448 286.518 73.7743 286.265 73.788C285.617 73.8218 283.78 74.5714 281.807 75.6086C280.884 76.0922 279.772 76.5539 279.337 76.6307C278.901 76.7075 278.411 76.9605 278.248 77.194C278.084 77.4279 277.931 77.5062 277.907 77.3701C277.883 77.235 277.668 77.3506 277.427 77.6259C277.131 77.9672 277.043 77.9959 277.151 77.7121C277.263 77.4239 277.077 77.3378 276.541 77.4323C276.081 77.5134 275.802 77.7376 275.846 77.9889C275.965 78.6648 274.463 79.3581 273.697 78.9824C272.707 78.4956 272.255 78.7175 272.413 79.6137L272.556 80.422L271.827 79.8725C270.873 79.1548 270.315 79.2803 269.872 80.3173C269.672 80.7809 269.202 81.2969 268.826 81.4651C268.046 81.8141 268.041 82.3938 268.814 82.9348C269.106 83.1406 269.38 83.5114 269.423 83.759C269.467 84.0076 269.8 84.251 270.161 84.2996C270.524 84.3487 270.771 84.4577 270.711 84.546C270.568 84.7489 268.903 84.3203 268.859 84.069C268.825 83.8794 266.936 84.3231 266.253 84.6828C265.846 84.8959 265.912 85.6979 266.352 85.8721C266.515 85.9378 266.807 86.3474 267.003 86.7843C267.197 87.2198 267.743 87.9363 268.217 88.3737C268.69 88.8112 269.181 89.4777 269.307 89.855C269.528 90.523 269.951 90.7786 271.074 90.9183C271.499 90.9734 271.686 91.3183 271.878 92.4069C272.195 94.2032 273.624 97.4625 274.352 98.0451C274.657 98.2897 275.301 98.4203 275.782 98.3355C276.812 98.1538 277.904 98.4561 277.99 98.9451C278.024 99.1347 277.823 99.6406 277.543 100.067L277.034 100.846L277.951 101.95C278.458 102.558 279.074 103.025 279.324 102.988C280.107 102.871 281.063 103.532 280.951 104.113C280.811 104.833 281.514 105.384 282.375 105.232C282.758 105.165 283.173 105.224 283.299 105.364C283.545 105.641 285.201 105.206 286.565 104.507C287.036 104.267 288.183 103.864 289.118 103.607C290.839 103.136 291.809 102.461 292.885 100.99C293.214 100.541 293.632 100.146 293.815 100.113C294 100.08 294.518 99.7648 294.968 99.4134C295.469 99.02 296.765 98.5558 298.321 98.2123C299.716 97.9036 301.847 97.3343 303.057 96.9487C304.268 96.5631 307.505 95.634 310.25 94.8843C314.917 93.6107 315.284 93.5487 315.897 93.9327C316.493 94.3083 316.935 94.2463 320.883 93.2331C323.264 92.6206 325.347 91.9727 325.509 91.7925C326.032 91.2139 327.199 90.8351 327.657 91.0958C327.913 91.2414 328.564 91.1838 329.198 90.9587C329.802 90.7446 331.205 90.2785 332.314 89.9258C333.421 89.5715 334.386 89.2003 334.456 89.1C334.526 88.9997 334.905 89.2051 335.297 89.5569C336.094 90.2694 337.409 90.2003 338.35 89.3965C338.805 89.0057 338.96 88.9784 339.123 89.2602C339.233 89.453 339.516 89.578 339.75 89.5368C339.985 89.4955 340.112 89.298 340.034 89.0994C339.929 88.8262 340.576 88.6297 342.608 88.3099C345.251 87.8943 346.098 87.83 349.948 87.7433C355.113 87.6296 356.313 87.5096 356.998 87.039C357.546 86.6599 357.758 86.6404 358.022 86.937C358.301 87.2507 358.465 87.2256 359.022 86.7869C359.399 86.4921 359.989 86.3049 360.383 86.3589C361.022 86.4427 361.041 86.4879 360.632 86.9146C360.246 87.3165 360.438 87.3874 362.018 87.4223C363.025 87.4458 365.857 87.3852 368.312 87.2899C370.768 87.1936 373.678 87.0948 374.783 87.0721C375.887 87.0468 378.788 86.8934 381.233 86.7281C383.675 86.5621 385.886 86.4604 386.142 86.5023C386.399 86.5419 387.653 86.5296 388.926 86.4705C390.201 86.4142 392.282 86.3232 393.551 86.2705C394.82 86.2189 396.964 86.1111 398.313 86.0305C400.616 85.8929 402.666 85.8494 406.344 85.8641C407.197 85.869 408.921 85.7604 410.176 85.6216C413.337 85.2773 411.874 85.0715 406.839 85.1539C404.629 85.189 400.801 85.2353 398.332 85.2564C394.423 85.2881 384.885 85.607 384.196 85.7285C384.062 85.7521 383.741 85.4627 383.482 85.0856C383.079 84.5 383.089 84.3374 383.55 83.9773C383.846 83.7426 384.49 83.4532 384.979 83.3305C385.563 83.1856 385.796 82.9854 385.655 82.7502C385.379 82.2901 388.624 81.9039 389.731 82.2653C390.236 82.4308 392.092 82.2326 395.336 81.6671C398.003 81.2006 400.453 80.9051 400.781 81.0073C401.108 81.1095 402.02 81.1368 402.806 81.0655C404.666 80.9022 407.643 80.9011 410.769 81.0646C412.146 81.1378 413.915 81.1439 414.701 81.0793C415.485 81.0148 416.271 81.0185 416.447 81.0912C416.624 81.1601 418.139 81.1868 419.813 81.1469C423.337 81.0663 425.156 81.1057 426.927 81.2974C428.334 81.4516 430.42 81.5206 432.097 81.4691C432.702 81.4503 433.519 81.6439 433.911 81.8966C434.36 82.1906 435.056 82.2831 435.792 82.1494C437.565 81.8313 439.011 81.8381 440.425 82.1661C442.465 82.6426 444.762 82.8587 444.934 82.5926C445.021 82.4566 444.887 82.3128 444.635 82.2692Z" fill="#21728D"/>
</g>
<path fill-rule="evenodd" clip-rule="evenodd" d="M415.734 85.4961C415.46 85.3856 414.677 85.3028 413.997 85.3133C413.183 85.323 412.932 85.3981 413.26 85.5283C413.535 85.6388 414.317 85.7227 414.998 85.712C415.812 85.7014 416.063 85.6262 415.734 85.4961Z" fill="#21728D"/>
<path fill-rule="evenodd" clip-rule="evenodd" d="M435.846 74.3242C434.779 74.6827 434.636 74.8135 435.025 75.077C435.285 75.2519 436.109 75.334 436.858 75.2581C437.919 75.1475 438.22 75.0084 438.231 74.6118C438.249 73.9145 437.381 73.8114 435.846 74.3242Z" fill="#21728D"/>
<path fill-rule="evenodd" clip-rule="evenodd" d="M426.225 86.2741C425.568 86.3198 425.312 86.3707 425.656 86.3885C426 86.4065 426.433 86.5219 426.616 86.6448C426.801 86.7676 427.295 86.8067 427.716 86.7251C428.862 86.509 427.736 86.1677 426.225 86.2741Z" fill="#21728D"/>
<path fill-rule="evenodd" clip-rule="evenodd" d="M441.022 78.9958C441.14 79.0778 441.4 79.0424 441.602 78.9178C441.826 78.7792 441.741 78.7193 441.389 78.7684C441.07 78.8106 440.904 78.9127 441.022 78.9958Z" fill="#21728D"/>
<path fill-rule="evenodd" clip-rule="evenodd" d="M432.385 86.4411C431.207 86.5011 431.126 86.5424 431.679 86.8276C432.02 87.0013 432.768 87.0686 433.339 86.9725C434.747 86.7374 434.063 86.3575 432.385 86.4411Z" fill="#21728D"/>
<path fill-rule="evenodd" clip-rule="evenodd" d="M435.6 84.1051C435.455 84.1307 435.383 84.421 435.442 84.7522C435.544 85.33 436.173 85.4632 436.513 84.9796C436.7 84.7126 435.994 84.0356 435.6 84.1051Z" fill="#21728D"/>
<path fill-rule="evenodd" clip-rule="evenodd" d="M429.492 83.6329C429.088 83.7041 428.781 83.8948 428.81 84.0563C428.868 84.3892 430.388 84.5703 430.599 84.2703C430.869 83.8831 430.212 83.5059 429.492 83.6329Z" fill="#21728D"/>
<path fill-rule="evenodd" clip-rule="evenodd" d="M421.219 85.7433C420.442 85.7354 419.823 85.8322 419.846 85.9592C419.903 86.2822 420.538 86.3694 422.267 86.2909C424.172 86.2058 423.329 85.766 421.219 85.7433Z" fill="#21728D"/>
<path fill-rule="evenodd" clip-rule="evenodd" d="M419.195 85.7864C418.922 85.6905 418.378 85.5685 417.986 85.5225C417.594 85.4729 417.296 85.5639 417.323 85.7199C417.375 86.0138 418.443 86.1969 419.241 86.0449C419.64 85.9708 419.635 85.9408 419.195 85.7864Z" fill="#21728D"/>
<path fill-rule="evenodd" clip-rule="evenodd" d="M442.833 77.4C442.497 77.7006 442.932 78.3797 443.536 78.4967C444.078 78.6042 444.535 78.3 444.462 77.8854C444.394 77.5026 443.136 77.1296 442.833 77.4Z" fill="#21728D"/>
<path opacity="0.6" d="M2.598 107.1H4.808V117.13H11.03V119H2.598V107.1ZM16.5678 119.119C15.6498 119.119 14.8224 118.921 14.0858 118.524C13.3491 118.127 12.7711 117.578 12.3518 116.875C11.9438 116.161 11.7398 115.356 11.7398 114.461C11.7398 113.566 11.9438 112.767 12.3518 112.064C12.7711 111.361 13.3491 110.812 14.0858 110.415C14.8224 110.018 15.6498 109.82 16.5678 109.82C17.4971 109.82 18.3301 110.018 19.0668 110.415C19.8034 110.812 20.3758 111.361 20.7838 112.064C21.2031 112.767 21.4128 113.566 21.4128 114.461C21.4128 115.356 21.2031 116.161 20.7838 116.875C20.3758 117.578 19.8034 118.127 19.0668 118.524C18.3301 118.921 17.4971 119.119 16.5678 119.119ZM16.5678 117.3C17.3498 117.3 17.9958 117.039 18.5058 116.518C19.0158 115.997 19.2708 115.311 19.2708 114.461C19.2708 113.611 19.0158 112.925 18.5058 112.404C17.9958 111.883 17.3498 111.622 16.5678 111.622C15.7858 111.622 15.1398 111.883 14.6298 112.404C14.1311 112.925 13.8818 113.611 13.8818 114.461C13.8818 115.311 14.1311 115.997 14.6298 116.518C15.1398 117.039 15.7858 117.3 16.5678 117.3ZM26.7966 109.82C28.1339 109.82 29.1539 110.143 29.8566 110.789C30.5706 111.424 30.9276 112.387 30.9276 113.679V119H28.9216V117.895C28.6609 118.292 28.2869 118.598 27.7996 118.813C27.3236 119.017 26.7456 119.119 26.0656 119.119C25.3856 119.119 24.7906 119.006 24.2806 118.779C23.7706 118.541 23.3739 118.218 23.0906 117.81C22.8186 117.391 22.6826 116.92 22.6826 116.399C22.6826 115.583 22.9829 114.931 23.5836 114.444C24.1956 113.945 25.1532 113.696 26.4566 113.696H28.8026V113.56C28.8026 112.925 28.6099 112.438 28.2246 112.098C27.8506 111.758 27.2896 111.588 26.5416 111.588C26.0316 111.588 25.5272 111.667 25.0286 111.826C24.5412 111.985 24.1276 112.206 23.7876 112.489L22.9546 110.942C23.4306 110.579 24.0029 110.302 24.6716 110.109C25.3402 109.916 26.0486 109.82 26.7966 109.82ZM26.5076 117.572C27.0402 117.572 27.5106 117.453 27.9186 117.215C28.3379 116.966 28.6326 116.614 28.8026 116.161V115.107H26.6096C25.3856 115.107 24.7736 115.509 24.7736 116.314C24.7736 116.699 24.9266 117.005 25.2326 117.232C25.5386 117.459 25.9636 117.572 26.5076 117.572ZM42.6288 106.386V119H40.5888V117.827C40.2374 118.258 39.8011 118.581 39.2798 118.796C38.7698 119.011 38.2031 119.119 37.5798 119.119C36.7071 119.119 35.9194 118.926 35.2168 118.541C34.5254 118.156 33.9814 117.612 33.5848 116.909C33.1881 116.195 32.9898 115.379 32.9898 114.461C32.9898 113.543 33.1881 112.733 33.5848 112.03C33.9814 111.327 34.5254 110.783 35.2168 110.398C35.9194 110.013 36.7071 109.82 37.5798 109.82C38.1804 109.82 38.7301 109.922 39.2288 110.126C39.7274 110.33 40.1524 110.636 40.5038 111.044V106.386H42.6288ZM37.8348 117.3C38.3448 117.3 38.8038 117.187 39.2118 116.96C39.6198 116.722 39.9428 116.388 40.1808 115.957C40.4188 115.526 40.5378 115.028 40.5378 114.461C40.5378 113.894 40.4188 113.396 40.1808 112.965C39.9428 112.534 39.6198 112.206 39.2118 111.979C38.8038 111.741 38.3448 111.622 37.8348 111.622C37.3248 111.622 36.8658 111.741 36.4578 111.979C36.0498 112.206 35.7268 112.534 35.4888 112.965C35.2508 113.396 35.1318 113.894 35.1318 114.461C35.1318 115.028 35.2508 115.526 35.4888 115.957C35.7268 116.388 36.0498 116.722 36.4578 116.96C36.8658 117.187 37.3248 117.3 37.8348 117.3ZM58.8959 109.922V119H56.8729V117.844C56.5329 118.252 56.1079 118.569 55.5979 118.796C55.0879 119.011 54.5382 119.119 53.9489 119.119C52.7362 119.119 51.7786 118.785 51.0759 118.116C50.3846 117.436 50.0389 116.433 50.0389 115.107V109.922H52.1639V114.818C52.1639 115.634 52.3452 116.246 52.7079 116.654C53.0819 117.051 53.6089 117.249 54.2889 117.249C55.0482 117.249 55.6489 117.017 56.0909 116.552C56.5442 116.076 56.7709 115.396 56.7709 114.512V109.922H58.8959ZM66.7102 109.82C67.5942 109.82 68.3818 110.013 69.0732 110.398C69.7758 110.783 70.3255 111.327 70.7222 112.03C71.1188 112.733 71.3172 113.543 71.3172 114.461C71.3172 115.379 71.1188 116.195 70.7222 116.909C70.3255 117.612 69.7758 118.156 69.0732 118.541C68.3818 118.926 67.5942 119.119 66.7102 119.119C65.4862 119.119 64.5172 118.711 63.8032 117.895V122.298H61.6782V109.922H63.7012V111.112C64.0525 110.681 64.4832 110.358 64.9932 110.143C65.5145 109.928 66.0868 109.82 66.7102 109.82ZM66.4722 117.3C67.2542 117.3 67.8945 117.039 68.3932 116.518C68.9032 115.997 69.1582 115.311 69.1582 114.461C69.1582 113.611 68.9032 112.925 68.3932 112.404C67.8945 111.883 67.2542 111.622 66.4722 111.622C65.9622 111.622 65.5032 111.741 65.0952 111.979C64.6872 112.206 64.3642 112.534 64.1262 112.965C63.8882 113.396 63.7692 113.894 63.7692 114.461C63.7692 115.028 63.8882 115.526 64.1262 115.957C64.3642 116.388 64.6872 116.722 65.0952 116.96C65.5032 117.187 65.9622 117.3 66.4722 117.3ZM86.5307 109.922L82.2807 119.731C81.8841 120.717 81.4024 121.408 80.8357 121.805C80.2691 122.213 79.5834 122.417 78.7787 122.417C78.3254 122.417 77.8777 122.343 77.4357 122.196C76.9937 122.049 76.6311 121.845 76.3477 121.584L77.1977 120.02C77.4017 120.213 77.6397 120.366 77.9117 120.479C78.1951 120.592 78.4784 120.649 78.7617 120.649C79.1357 120.649 79.4417 120.553 79.6797 120.36C79.9291 120.167 80.1557 119.844 80.3597 119.391L80.5127 119.034L76.5517 109.922H78.7617L81.6177 116.637L84.4907 109.922H86.5307ZM91.6898 119.119C90.7718 119.119 89.9445 118.921 89.2078 118.524C88.4712 118.127 87.8932 117.578 87.4738 116.875C87.0658 116.161 86.8618 115.356 86.8618 114.461C86.8618 113.566 87.0658 112.767 87.4738 112.064C87.8932 111.361 88.4712 110.812 89.2078 110.415C89.9445 110.018 90.7718 109.82 91.6898 109.82C92.6192 109.82 93.4522 110.018 94.1888 110.415C94.9255 110.812 95.4978 111.361 95.9058 112.064C96.3252 112.767 96.5348 113.566 96.5348 114.461C96.5348 115.356 96.3252 116.161 95.9058 116.875C95.4978 117.578 94.9255 118.127 94.1888 118.524C93.4522 118.921 92.6192 119.119 91.6898 119.119ZM91.6898 117.3C92.4718 117.3 93.1178 117.039 93.6278 116.518C94.1378 115.997 94.3928 115.311 94.3928 114.461C94.3928 113.611 94.1378 112.925 93.6278 112.404C93.1178 111.883 92.4718 111.622 91.6898 111.622C90.9078 111.622 90.2618 111.883 89.7518 112.404C89.2532 112.925 89.0038 113.611 89.0038 114.461C89.0038 115.311 89.2532 115.997 89.7518 116.518C90.2618 117.039 90.9078 117.3 91.6898 117.3ZM107.356 109.922V119H105.333V117.844C104.993 118.252 104.568 118.569 104.058 118.796C103.548 119.011 102.998 119.119 102.409 119.119C101.196 119.119 100.239 118.785 99.5359 118.116C98.8445 117.436 98.4989 116.433 98.4989 115.107V109.922H100.624V114.818C100.624 115.634 100.805 116.246 101.168 116.654C101.542 117.051 102.069 117.249 102.749 117.249C103.508 117.249 104.109 117.017 104.551 116.552C105.004 116.076 105.231 115.396 105.231 114.512V109.922H107.356ZM112.161 111.248C112.773 110.296 113.85 109.82 115.391 109.82V111.843C115.21 111.809 115.045 111.792 114.898 111.792C114.071 111.792 113.425 112.036 112.96 112.523C112.495 112.999 112.263 113.69 112.263 114.597V119H110.138V109.922H112.161V111.248ZM121.975 106.386H124.1V119H121.975V106.386ZM126.889 109.922H129.014V119H126.889V109.922ZM127.96 108.426C127.575 108.426 127.252 108.307 126.991 108.069C126.73 107.82 126.6 107.514 126.6 107.151C126.6 106.788 126.73 106.488 126.991 106.25C127.252 106.001 127.575 105.876 127.96 105.876C128.345 105.876 128.668 105.995 128.929 106.233C129.19 106.46 129.32 106.749 129.32 107.1C129.32 107.474 129.19 107.791 128.929 108.052C128.68 108.301 128.357 108.426 127.96 108.426ZM140.813 109.922V117.623C140.813 120.819 139.181 122.417 135.917 122.417C135.045 122.417 134.217 122.304 133.435 122.077C132.653 121.862 132.007 121.544 131.497 121.125L132.449 119.527C132.846 119.856 133.345 120.116 133.945 120.309C134.557 120.513 135.175 120.615 135.798 120.615C136.796 120.615 137.527 120.388 137.991 119.935C138.456 119.482 138.688 118.79 138.688 117.861V117.385C138.326 117.782 137.884 118.082 137.362 118.286C136.841 118.49 136.269 118.592 135.645 118.592C134.784 118.592 134.002 118.411 133.299 118.048C132.608 117.674 132.058 117.153 131.65 116.484C131.254 115.815 131.055 115.05 131.055 114.189C131.055 113.328 131.254 112.568 131.65 111.911C132.058 111.242 132.608 110.727 133.299 110.364C134.002 110.001 134.784 109.82 135.645 109.82C136.303 109.82 136.898 109.928 137.43 110.143C137.974 110.358 138.428 110.687 138.79 111.129V109.922H140.813ZM135.968 116.79C136.773 116.79 137.43 116.552 137.94 116.076C138.462 115.589 138.722 114.96 138.722 114.189C138.722 113.43 138.462 112.812 137.94 112.336C137.43 111.86 136.773 111.622 135.968 111.622C135.152 111.622 134.484 111.86 133.962 112.336C133.452 112.812 133.197 113.43 133.197 114.189C133.197 114.96 133.452 115.589 133.962 116.076C134.484 116.552 135.152 116.79 135.968 116.79ZM148.758 109.82C149.903 109.82 150.821 110.154 151.512 110.823C152.203 111.492 152.549 112.483 152.549 113.798V119H150.424V114.07C150.424 113.277 150.237 112.682 149.863 112.285C149.489 111.877 148.956 111.673 148.265 111.673C147.483 111.673 146.865 111.911 146.412 112.387C145.959 112.852 145.732 113.526 145.732 114.41V119H143.607V106.386H145.732V110.976C146.083 110.602 146.514 110.319 147.024 110.126C147.545 109.922 148.123 109.82 148.758 109.82ZM160.702 118.507C160.452 118.711 160.146 118.864 159.784 118.966C159.432 119.068 159.058 119.119 158.662 119.119C157.664 119.119 156.894 118.858 156.35 118.337C155.806 117.816 155.534 117.056 155.534 116.059V111.69H154.038V109.99H155.534V107.916H157.659V109.99H160.09V111.69H157.659V116.008C157.659 116.45 157.766 116.79 157.982 117.028C158.197 117.255 158.509 117.368 158.917 117.368C159.393 117.368 159.789 117.243 160.107 116.994L160.702 118.507ZM167.601 109.82C168.745 109.82 169.663 110.154 170.355 110.823C171.046 111.492 171.392 112.483 171.392 113.798V119H169.267V114.07C169.267 113.277 169.08 112.682 168.706 112.285C168.332 111.877 167.799 111.673 167.108 111.673C166.326 111.673 165.708 111.911 165.255 112.387C164.801 112.852 164.575 113.526 164.575 114.41V119H162.45V109.922H164.473V111.095C164.824 110.676 165.266 110.358 165.799 110.143C166.331 109.928 166.932 109.82 167.601 109.82ZM174.087 109.922H176.212V119H174.087V109.922ZM175.158 108.426C174.773 108.426 174.45 108.307 174.189 108.069C173.929 107.82 173.798 107.514 173.798 107.151C173.798 106.788 173.929 106.488 174.189 106.25C174.45 106.001 174.773 105.876 175.158 105.876C175.544 105.876 175.867 105.995 176.127 106.233C176.388 106.46 176.518 106.749 176.518 107.1C176.518 107.474 176.388 107.791 176.127 108.052C175.878 108.301 175.555 108.426 175.158 108.426ZM184.152 109.82C185.297 109.82 186.215 110.154 186.906 110.823C187.598 111.492 187.943 112.483 187.943 113.798V119H185.818V114.07C185.818 113.277 185.631 112.682 185.257 112.285C184.883 111.877 184.351 111.673 183.659 111.673C182.877 111.673 182.26 111.911 181.806 112.387C181.353 112.852 181.126 113.526 181.126 114.41V119H179.001V109.922H181.024V111.095C181.376 110.676 181.818 110.358 182.35 110.143C182.883 109.928 183.484 109.82 184.152 109.82ZM199.732 109.922V117.623C199.732 120.819 198.1 122.417 194.836 122.417C193.963 122.417 193.136 122.304 192.354 122.077C191.572 121.862 190.926 121.544 190.416 121.125L191.368 119.527C191.765 119.856 192.263 120.116 192.864 120.309C193.476 120.513 194.094 120.615 194.717 120.615C195.714 120.615 196.445 120.388 196.91 119.935C197.375 119.482 197.607 118.79 197.607 117.861V117.385C197.244 117.782 196.802 118.082 196.281 118.286C195.76 118.49 195.187 118.592 194.564 118.592C193.703 118.592 192.921 118.411 192.218 118.048C191.527 117.674 190.977 117.153 190.569 116.484C190.172 115.815 189.974 115.05 189.974 114.189C189.974 113.328 190.172 112.568 190.569 111.911C190.977 111.242 191.527 110.727 192.218 110.364C192.921 110.001 193.703 109.82 194.564 109.82C195.221 109.82 195.816 109.928 196.349 110.143C196.893 110.358 197.346 110.687 197.709 111.129V109.922H199.732ZM194.887 116.79C195.692 116.79 196.349 116.552 196.859 116.076C197.38 115.589 197.641 114.96 197.641 114.189C197.641 113.43 197.38 112.812 196.859 112.336C196.349 111.86 195.692 111.622 194.887 111.622C194.071 111.622 193.402 111.86 192.881 112.336C192.371 112.812 192.116 113.43 192.116 114.189C192.116 114.96 192.371 115.589 192.881 116.076C193.402 116.552 194.071 116.79 194.887 116.79ZM221.385 109.922L218.036 119H215.996L213.65 112.744L211.27 119H209.23L205.898 109.922H207.904L210.301 116.62L212.8 109.922H214.585L217.033 116.654L219.498 109.922H221.385ZM226.032 109.82C227.369 109.82 228.389 110.143 229.092 110.789C229.806 111.424 230.163 112.387 230.163 113.679V119H228.157V117.895C227.896 118.292 227.522 118.598 227.035 118.813C226.559 119.017 225.981 119.119 225.301 119.119C224.621 119.119 224.026 119.006 223.516 118.779C223.006 118.541 222.609 118.218 222.326 117.81C222.054 117.391 221.918 116.92 221.918 116.399C221.918 115.583 222.218 114.931 222.819 114.444C223.431 113.945 224.389 113.696 225.692 113.696H228.038V113.56C228.038 112.925 227.845 112.438 227.46 112.098C227.086 111.758 226.525 111.588 225.777 111.588C225.267 111.588 224.763 111.667 224.264 111.826C223.777 111.985 223.363 112.206 223.023 112.489L222.19 110.942C222.666 110.579 223.238 110.302 223.907 110.109C224.576 109.916 225.284 109.82 226.032 109.82ZM225.743 117.572C226.276 117.572 226.746 117.453 227.154 117.215C227.573 116.966 227.868 116.614 228.038 116.161V115.107H225.845C224.621 115.107 224.009 115.509 224.009 116.314C224.009 116.699 224.162 117.005 224.468 117.232C224.774 117.459 225.199 117.572 225.743 117.572ZM232.89 106.386H235.015V119H232.89V106.386ZM237.804 106.386H239.929V119H237.804V106.386ZM251.252 114.512C251.252 114.659 251.241 114.869 251.218 115.141H244.095C244.22 115.81 244.543 116.342 245.064 116.739C245.597 117.124 246.254 117.317 247.036 117.317C248.034 117.317 248.855 116.988 249.501 116.331L250.64 117.64C250.232 118.127 249.717 118.496 249.093 118.745C248.47 118.994 247.767 119.119 246.985 119.119C245.988 119.119 245.11 118.921 244.35 118.524C243.591 118.127 243.002 117.578 242.582 116.875C242.174 116.161 241.97 115.356 241.97 114.461C241.97 113.577 242.169 112.784 242.565 112.081C242.973 111.367 243.534 110.812 244.248 110.415C244.962 110.018 245.767 109.82 246.662 109.82C247.546 109.82 248.334 110.018 249.025 110.415C249.728 110.8 250.272 111.35 250.657 112.064C251.054 112.767 251.252 113.583 251.252 114.512ZM246.662 111.52C245.982 111.52 245.404 111.724 244.928 112.132C244.464 112.529 244.18 113.061 244.078 113.73H249.229C249.139 113.073 248.861 112.54 248.396 112.132C247.932 111.724 247.354 111.52 246.662 111.52ZM258.75 118.507C258.501 118.711 258.195 118.864 257.832 118.966C257.481 119.068 257.107 119.119 256.71 119.119C255.713 119.119 254.942 118.858 254.398 118.337C253.854 117.816 253.582 117.056 253.582 116.059V111.69H252.086V109.99H253.582V107.916H255.707V109.99H258.138V111.69H255.707V116.008C255.707 116.45 255.815 116.79 256.03 117.028C256.246 117.255 256.557 117.368 256.965 117.368C257.441 117.368 257.838 117.243 258.155 116.994L258.75 118.507ZM279.358 109.922L276.009 119H273.969L271.623 112.744L269.243 119H267.203L263.871 109.922H265.877L268.274 116.62L270.773 109.922H272.558L275.006 116.654L277.471 109.922H279.358ZM280.819 109.922H282.944V119H280.819V109.922ZM281.89 108.426C281.504 108.426 281.181 108.307 280.921 108.069C280.66 107.82 280.53 107.514 280.53 107.151C280.53 106.788 280.66 106.488 280.921 106.25C281.181 106.001 281.504 105.876 281.89 105.876C282.275 105.876 282.598 105.995 282.859 106.233C283.119 106.46 283.25 106.749 283.25 107.1C283.25 107.474 283.119 107.791 282.859 108.052C282.609 108.301 282.286 108.426 281.89 108.426ZM291.19 118.507C290.941 118.711 290.635 118.864 290.272 118.966C289.921 119.068 289.547 119.119 289.15 119.119C288.153 119.119 287.382 118.858 286.838 118.337C286.294 117.816 286.022 117.056 286.022 116.059V111.69H284.526V109.99H286.022V107.916H288.147V109.99H290.578V111.69H288.147V116.008C288.147 116.45 288.255 116.79 288.47 117.028C288.685 117.255 288.997 117.368 289.405 117.368C289.881 117.368 290.278 117.243 290.595 116.994L291.19 118.507ZM298.089 109.82C299.234 109.82 300.152 110.154 300.843 110.823C301.534 111.492 301.88 112.483 301.88 113.798V119H299.755V114.07C299.755 113.277 299.568 112.682 299.194 112.285C298.82 111.877 298.287 111.673 297.596 111.673C296.814 111.673 296.196 111.911 295.743 112.387C295.29 112.852 295.063 113.526 295.063 114.41V119H292.938V106.386H295.063V110.976C295.414 110.602 295.845 110.319 296.355 110.126C296.876 109.922 297.454 109.82 298.089 109.82ZM314.306 109.82C315.19 109.82 315.978 110.013 316.669 110.398C317.372 110.783 317.921 111.327 318.318 112.03C318.715 112.733 318.913 113.543 318.913 114.461C318.913 115.379 318.715 116.195 318.318 116.909C317.921 117.612 317.372 118.156 316.669 118.541C315.978 118.926 315.19 119.119 314.306 119.119C313.683 119.119 313.11 119.011 312.589 118.796C312.079 118.581 311.648 118.258 311.297 117.827V119H309.274V106.386H311.399V111.027C311.762 110.63 312.187 110.33 312.674 110.126C313.173 109.922 313.717 109.82 314.306 109.82ZM314.068 117.3C314.85 117.3 315.49 117.039 315.989 116.518C316.499 115.997 316.754 115.311 316.754 114.461C316.754 113.611 316.499 112.925 315.989 112.404C315.49 111.883 314.85 111.622 314.068 111.622C313.558 111.622 313.099 111.741 312.691 111.979C312.283 112.206 311.96 112.534 311.722 112.965C311.484 113.396 311.365 113.894 311.365 114.461C311.365 115.028 311.484 115.526 311.722 115.957C311.96 116.388 312.283 116.722 312.691 116.96C313.099 117.187 313.558 117.3 314.068 117.3ZM326.385 118.507C326.136 118.711 325.83 118.864 325.467 118.966C325.116 119.068 324.742 119.119 324.345 119.119C323.348 119.119 322.577 118.858 322.033 118.337C321.489 117.816 321.217 117.056 321.217 116.059V111.69H319.721V109.99H321.217V107.916H323.342V109.99H325.773V111.69H323.342V116.008C323.342 116.45 323.45 116.79 323.665 117.028C323.881 117.255 324.192 117.368 324.6 117.368C325.076 117.368 325.473 117.243 325.79 116.994L326.385 118.507ZM331.999 119.119C331.059 119.119 330.214 118.921 329.466 118.524C328.718 118.127 328.135 117.578 327.715 116.875C327.296 116.161 327.086 115.356 327.086 114.461C327.086 113.566 327.296 112.767 327.715 112.064C328.135 111.361 328.713 110.812 329.449 110.415C330.197 110.018 331.047 109.82 331.999 109.82C332.895 109.82 333.677 110.001 334.345 110.364C335.025 110.727 335.535 111.248 335.875 111.928L334.243 112.88C333.983 112.461 333.654 112.149 333.257 111.945C332.872 111.73 332.447 111.622 331.982 111.622C331.189 111.622 330.532 111.883 330.01 112.404C329.489 112.914 329.228 113.6 329.228 114.461C329.228 115.322 329.483 116.014 329.993 116.535C330.515 117.045 331.178 117.3 331.982 117.3C332.447 117.3 332.872 117.198 333.257 116.994C333.654 116.779 333.983 116.461 334.243 116.042L335.875 116.994C335.524 117.674 335.008 118.201 334.328 118.575C333.66 118.938 332.883 119.119 331.999 119.119ZM346.1 107.984C345.204 107.984 344.757 108.471 344.757 109.446V109.99H347.256V111.69H344.825V119H342.7V111.69H341.204V109.99H342.7V109.412C342.7 108.437 342.983 107.672 343.55 107.117C344.116 106.55 344.915 106.267 345.947 106.267C346.763 106.267 347.403 106.431 347.868 106.76L347.273 108.358C346.91 108.109 346.519 107.984 346.1 107.984ZM352.633 119.119C351.715 119.119 350.888 118.921 350.151 118.524C349.415 118.127 348.837 117.578 348.417 116.875C348.009 116.161 347.805 115.356 347.805 114.461C347.805 113.566 348.009 112.767 348.417 112.064C348.837 111.361 349.415 110.812 350.151 110.415C350.888 110.018 351.715 109.82 352.633 109.82C353.563 109.82 354.396 110.018 355.132 110.415C355.869 110.812 356.441 111.361 356.849 112.064C357.269 112.767 357.478 113.566 357.478 114.461C357.478 115.356 357.269 116.161 356.849 116.875C356.441 117.578 355.869 118.127 355.132 118.524C354.396 118.921 353.563 119.119 352.633 119.119ZM352.633 117.3C353.415 117.3 354.061 117.039 354.571 116.518C355.081 115.997 355.336 115.311 355.336 114.461C355.336 113.611 355.081 112.925 354.571 112.404C354.061 111.883 353.415 111.622 352.633 111.622C351.851 111.622 351.205 111.883 350.695 112.404C350.197 112.925 349.947 113.611 349.947 114.461C349.947 115.311 350.197 115.997 350.695 116.518C351.205 117.039 351.851 117.3 352.633 117.3ZM361.533 111.248C362.145 110.296 363.222 109.82 364.763 109.82V111.843C364.582 111.809 364.418 111.792 364.27 111.792C363.443 111.792 362.797 112.036 362.332 112.523C361.868 112.999 361.635 113.69 361.635 114.597V119H359.51V109.922H361.533V111.248ZM375.036 107.984C374.141 107.984 373.693 108.471 373.693 109.446V109.99H376.192V111.69H373.761V119H371.636V111.69H370.14V109.99H371.636V109.412C371.636 108.437 371.919 107.672 372.486 107.117C373.053 106.55 373.852 106.267 374.883 106.267C375.699 106.267 376.339 106.431 376.804 106.76L376.209 108.358C375.846 108.109 375.455 107.984 375.036 107.984ZM381.007 111.248C381.619 110.296 382.696 109.82 384.237 109.82V111.843C384.056 111.809 383.891 111.792 383.744 111.792C382.917 111.792 382.271 112.036 381.806 112.523C381.341 112.999 381.109 113.69 381.109 114.597V119H378.984V109.922H381.007V111.248ZM394.491 114.512C394.491 114.659 394.479 114.869 394.457 115.141H387.334C387.458 115.81 387.781 116.342 388.303 116.739C388.835 117.124 389.493 117.317 390.275 117.317C391.272 117.317 392.094 116.988 392.74 116.331L393.879 117.64C393.471 118.127 392.955 118.496 392.332 118.745C391.708 118.994 391.006 119.119 390.224 119.119C389.226 119.119 388.348 118.921 387.589 118.524C386.829 118.127 386.24 117.578 385.821 116.875C385.413 116.161 385.209 115.356 385.209 114.461C385.209 113.577 385.407 112.784 385.804 112.081C386.212 111.367 386.773 110.812 387.487 110.415C388.201 110.018 389.005 109.82 389.901 109.82C390.785 109.82 391.572 110.018 392.264 110.415C392.966 110.8 393.51 111.35 393.896 112.064C394.292 112.767 394.491 113.583 394.491 114.512ZM389.901 111.52C389.221 111.52 388.643 111.724 388.167 112.132C387.702 112.529 387.419 113.061 387.317 113.73H392.468C392.377 113.073 392.099 112.54 391.635 112.132C391.17 111.724 390.592 111.52 389.901 111.52ZM405.066 114.512C405.066 114.659 405.054 114.869 405.032 115.141H397.909C398.033 115.81 398.356 116.342 398.878 116.739C399.41 117.124 400.068 117.317 400.85 117.317C401.847 117.317 402.669 116.988 403.315 116.331L404.454 117.64C404.046 118.127 403.53 118.496 402.907 118.745C402.283 118.994 401.581 119.119 400.799 119.119C399.801 119.119 398.923 118.921 398.164 118.524C397.404 118.127 396.815 117.578 396.396 116.875C395.988 116.161 395.784 115.356 395.784 114.461C395.784 113.577 395.982 112.784 396.379 112.081C396.787 111.367 397.348 110.812 398.062 110.415C398.776 110.018 399.58 109.82 400.476 109.82C401.36 109.82 402.147 110.018 402.839 110.415C403.541 110.8 404.085 111.35 404.471 112.064C404.867 112.767 405.066 113.583 405.066 114.512ZM400.476 111.52C399.796 111.52 399.218 111.724 398.742 112.132C398.277 112.529 397.994 113.061 397.892 113.73H403.043C402.952 113.073 402.674 112.54 402.21 112.132C401.745 111.724 401.167 111.52 400.476 111.52ZM415.273 109.82C416.61 109.82 417.63 110.143 418.333 110.789C419.047 111.424 419.404 112.387 419.404 113.679V119H417.398V117.895C417.137 118.292 416.763 118.598 416.276 118.813C415.8 119.017 415.222 119.119 414.542 119.119C413.862 119.119 413.267 119.006 412.757 118.779C412.247 118.541 411.85 118.218 411.567 117.81C411.295 117.391 411.159 116.92 411.159 116.399C411.159 115.583 411.459 114.931 412.06 114.444C412.672 113.945 413.63 113.696 414.933 113.696H417.279V113.56C417.279 112.925 417.086 112.438 416.701 112.098C416.327 111.758 415.766 111.588 415.018 111.588C414.508 111.588 414.004 111.667 413.505 111.826C413.018 111.985 412.604 112.206 412.264 112.489L411.431 110.942C411.907 110.579 412.479 110.302 413.148 110.109C413.817 109.916 414.525 109.82 415.273 109.82ZM414.984 117.572C415.517 117.572 415.987 117.453 416.395 117.215C416.814 116.966 417.109 116.614 417.279 116.161V115.107H415.086C413.862 115.107 413.25 115.509 413.25 116.314C413.25 116.699 413.403 117.005 413.709 117.232C414.015 117.459 414.44 117.572 414.984 117.572ZM427.282 109.82C428.427 109.82 429.345 110.154 430.036 110.823C430.728 111.492 431.073 112.483 431.073 113.798V119H428.948V114.07C428.948 113.277 428.761 112.682 428.387 112.285C428.013 111.877 427.481 111.673 426.789 111.673C426.007 111.673 425.39 111.911 424.936 112.387C424.483 112.852 424.256 113.526 424.256 114.41V119H422.131V109.922H424.154V111.095C424.506 110.676 424.948 110.358 425.48 110.143C426.013 109.928 426.614 109.82 427.282 109.82ZM442.743 106.386V119H440.703V117.827C440.352 118.258 439.915 118.581 439.394 118.796C438.884 119.011 438.317 119.119 437.694 119.119C436.821 119.119 436.034 118.926 435.331 118.541C434.64 118.156 434.096 117.612 433.699 116.909C433.302 116.195 433.104 115.379 433.104 114.461C433.104 113.543 433.302 112.733 433.699 112.03C434.096 111.327 434.64 110.783 435.331 110.398C436.034 110.013 436.821 109.82 437.694 109.82C438.295 109.82 438.844 109.922 439.343 110.126C439.842 110.33 440.267 110.636 440.618 111.044V106.386H442.743ZM437.949 117.3C438.459 117.3 438.918 117.187 439.326 116.96C439.734 116.722 440.057 116.388 440.295 115.957C440.533 115.526 440.652 115.028 440.652 114.461C440.652 113.894 440.533 113.396 440.295 112.965C440.057 112.534 439.734 112.206 439.326 111.979C438.918 111.741 438.459 111.622 437.949 111.622C437.439 111.622 436.98 111.741 436.572 111.979C436.164 112.206 435.841 112.534 435.603 112.965C435.365 113.396 435.246 113.894 435.246 114.461C435.246 115.028 435.365 115.526 435.603 115.957C435.841 116.388 436.164 116.722 436.572 116.96C436.98 117.187 437.439 117.3 437.949 117.3ZM461.679 109.82C462.824 109.82 463.73 110.154 464.399 110.823C465.068 111.48 465.402 112.472 465.402 113.798V119H463.277V114.07C463.277 113.277 463.101 112.682 462.75 112.285C462.399 111.877 461.894 111.673 461.237 111.673C460.523 111.673 459.951 111.911 459.52 112.387C459.089 112.852 458.874 113.52 458.874 114.393V119H456.749V114.07C456.749 113.277 456.573 112.682 456.222 112.285C455.871 111.877 455.366 111.673 454.709 111.673C453.984 111.673 453.406 111.905 452.975 112.37C452.556 112.835 452.346 113.509 452.346 114.393V119H450.221V109.922H452.244V111.078C452.584 110.67 453.009 110.358 453.519 110.143C454.029 109.928 454.596 109.82 455.219 109.82C455.899 109.82 456.5 109.95 457.021 110.211C457.554 110.46 457.973 110.834 458.279 111.333C458.653 110.857 459.135 110.489 459.724 110.228C460.313 109.956 460.965 109.82 461.679 109.82ZM471.586 109.82C472.923 109.82 473.943 110.143 474.646 110.789C475.36 111.424 475.717 112.387 475.717 113.679V119H473.711V117.895C473.45 118.292 473.076 118.598 472.589 118.813C472.113 119.017 471.535 119.119 470.855 119.119C470.175 119.119 469.58 119.006 469.07 118.779C468.56 118.541 468.163 118.218 467.88 117.81C467.608 117.391 467.472 116.92 467.472 116.399C467.472 115.583 467.772 114.931 468.373 114.444C468.985 113.945 469.942 113.696 471.246 113.696H473.592V113.56C473.592 112.925 473.399 112.438 473.014 112.098C472.64 111.758 472.079 111.588 471.331 111.588C470.821 111.588 470.316 111.667 469.818 111.826C469.33 111.985 468.917 112.206 468.577 112.489L467.744 110.942C468.22 110.579 468.792 110.302 469.461 110.109C470.129 109.916 470.838 109.82 471.586 109.82ZM471.297 117.572C471.829 117.572 472.3 117.453 472.708 117.215C473.127 116.966 473.422 116.614 473.592 116.161V115.107H471.399C470.175 115.107 469.563 115.509 469.563 116.314C469.563 116.699 469.716 117.005 470.022 117.232C470.328 117.459 470.753 117.572 471.297 117.572ZM482.15 115.107L480.569 116.603V119H478.444V106.386H480.569V114.002L484.972 109.922H487.522L483.731 113.73L487.879 119H485.295L482.15 115.107ZM497.404 114.512C497.404 114.659 497.392 114.869 497.37 115.141H490.247C490.371 115.81 490.694 116.342 491.216 116.739C491.748 117.124 492.406 117.317 493.188 117.317C494.185 117.317 495.007 116.988 495.653 116.331L496.792 117.64C496.384 118.127 495.868 118.496 495.245 118.745C494.621 118.994 493.919 119.119 493.137 119.119C492.139 119.119 491.261 118.921 490.502 118.524C489.742 118.127 489.153 117.578 488.734 116.875C488.326 116.161 488.122 115.356 488.122 114.461C488.122 113.577 488.32 112.784 488.717 112.081C489.125 111.367 489.686 110.812 490.4 110.415C491.114 110.018 491.918 109.82 492.814 109.82C493.698 109.82 494.485 110.018 495.177 110.415C495.879 110.8 496.423 111.35 496.809 112.064C497.205 112.767 497.404 113.583 497.404 114.512ZM492.814 111.52C492.134 111.52 491.556 111.724 491.08 112.132C490.615 112.529 490.332 113.061 490.23 113.73H495.381C495.29 113.073 495.012 112.54 494.548 112.132C494.083 111.724 493.505 111.52 492.814 111.52ZM7.426 135.82C8.31 135.82 9.09767 136.013 9.789 136.398C10.4917 136.783 11.0413 137.327 11.438 138.03C11.8347 138.733 12.033 139.543 12.033 140.461C12.033 141.379 11.8347 142.195 11.438 142.909C11.0413 143.612 10.4917 144.156 9.789 144.541C9.09767 144.926 8.31 145.119 7.426 145.119C6.202 145.119 5.233 144.711 4.519 143.895V148.298H2.394V135.922H4.417V137.112C4.76833 136.681 5.199 136.358 5.709 136.143C6.23033 135.928 6.80267 135.82 7.426 135.82ZM7.188 143.3C7.97 143.3 8.61033 143.039 9.109 142.518C9.619 141.997 9.874 141.311 9.874 140.461C9.874 139.611 9.619 138.925 9.109 138.404C8.61033 137.883 7.97 137.622 7.188 137.622C6.678 137.622 6.219 137.741 5.811 137.979C5.403 138.206 5.08 138.534 4.842 138.965C4.604 139.396 4.485 139.894 4.485 140.461C4.485 141.028 4.604 141.526 4.842 141.957C5.08 142.388 5.403 142.722 5.811 142.96C6.219 143.187 6.678 143.3 7.188 143.3ZM17.4001 135.82C18.7374 135.82 19.7574 136.143 20.4601 136.789C21.1741 137.424 21.5311 138.387 21.5311 139.679V145H19.5251V143.895C19.2644 144.292 18.8904 144.598 18.4031 144.813C17.9271 145.017 17.3491 145.119 16.6691 145.119C15.9891 145.119 15.3941 145.006 14.8841 144.779C14.3741 144.541 13.9774 144.218 13.6941 143.81C13.4221 143.391 13.2861 142.92 13.2861 142.399C13.2861 141.583 13.5864 140.931 14.1871 140.444C14.7991 139.945 15.7568 139.696 17.0601 139.696H19.4061V139.56C19.4061 138.925 19.2134 138.438 18.8281 138.098C18.4541 137.758 17.8931 137.588 17.1451 137.588C16.6351 137.588 16.1308 137.667 15.6321 137.826C15.1448 137.985 14.7311 138.206 14.3911 138.489L13.5581 136.942C14.0341 136.579 14.6064 136.302 15.2751 136.109C15.9438 135.916 16.6521 135.82 17.4001 135.82ZM17.1111 143.572C17.6438 143.572 18.1141 143.453 18.5221 143.215C18.9414 142.966 19.2361 142.614 19.4061 142.161V141.107H17.2131C15.9891 141.107 15.3771 141.509 15.3771 142.314C15.3771 142.699 15.5301 143.005 15.8361 143.232C16.1421 143.459 16.5671 143.572 17.1111 143.572ZM32.5922 135.922L28.3422 145.731C27.9456 146.717 27.4639 147.408 26.8972 147.805C26.3306 148.213 25.6449 148.417 24.8402 148.417C24.3869 148.417 23.9392 148.343 23.4972 148.196C23.0552 148.049 22.6926 147.845 22.4092 147.584L23.2592 146.02C23.4632 146.213 23.7012 146.366 23.9732 146.479C24.2566 146.592 24.5399 146.649 24.8232 146.649C25.1972 146.649 25.5032 146.553 25.7412 146.36C25.9906 146.167 26.2172 145.844 26.4212 145.391L26.5742 145.034L22.6132 135.922H24.8232L27.6792 142.637L30.5522 135.922H32.5922ZM45.3784 135.82C46.523 135.82 47.4297 136.154 48.0984 136.823C48.767 137.48 49.1014 138.472 49.1014 139.798V145H46.9764V140.07C46.9764 139.277 46.8007 138.682 46.4494 138.285C46.098 137.877 45.5937 137.673 44.9364 137.673C44.2224 137.673 43.65 137.911 43.2194 138.387C42.7887 138.852 42.5734 139.52 42.5734 140.393V145H40.4484V140.07C40.4484 139.277 40.2727 138.682 39.9214 138.285C39.57 137.877 39.0657 137.673 38.4084 137.673C37.683 137.673 37.105 137.905 36.6744 138.37C36.255 138.835 36.0454 139.509 36.0454 140.393V145H33.9204V135.922H35.9434V137.078C36.2834 136.67 36.7084 136.358 37.2184 136.143C37.7284 135.928 38.295 135.82 38.9184 135.82C39.5984 135.82 40.199 135.95 40.7204 136.211C41.253 136.46 41.6724 136.834 41.9784 137.333C42.3524 136.857 42.834 136.489 43.4234 136.228C44.0127 135.956 44.6644 135.82 45.3784 135.82ZM60.4339 140.512C60.4339 140.659 60.4225 140.869 60.3999 141.141H53.2769C53.4015 141.81 53.7245 142.342 54.2459 142.739C54.7785 143.124 55.4359 143.317 56.2179 143.317C57.2152 143.317 58.0369 142.988 58.6829 142.331L59.8219 143.64C59.4139 144.127 58.8982 144.496 58.2749 144.745C57.6515 144.994 56.9489 145.119 56.1669 145.119C55.1695 145.119 54.2912 144.921 53.5319 144.524C52.7725 144.127 52.1832 143.578 51.7639 142.875C51.3559 142.161 51.1519 141.356 51.1519 140.461C51.1519 139.577 51.3502 138.784 51.7469 138.081C52.1549 137.367 52.7159 136.812 53.4299 136.415C54.1439 136.018 54.9485 135.82 55.8439 135.82C56.7279 135.82 57.5155 136.018 58.2069 136.415C58.9095 136.8 59.4535 137.35 59.8389 138.064C60.2355 138.767 60.4339 139.583 60.4339 140.512ZM55.8439 137.52C55.1639 137.52 54.5859 137.724 54.1099 138.132C53.6452 138.529 53.3619 139.061 53.2599 139.73H58.4109C58.3202 139.073 58.0425 138.54 57.5779 138.132C57.1132 137.724 56.5352 137.52 55.8439 137.52ZM67.6261 135.82C68.7707 135.82 69.6887 136.154 70.3801 136.823C71.0714 137.492 71.4171 138.483 71.4171 139.798V145H69.2921V140.07C69.2921 139.277 69.1051 138.682 68.7311 138.285C68.3571 137.877 67.8244 137.673 67.1331 137.673C66.3511 137.673 65.7334 137.911 65.2801 138.387C64.8267 138.852 64.6001 139.526 64.6001 140.41V145H62.4751V135.922H64.4981V137.095C64.8494 136.676 65.2914 136.358 65.8241 136.143C66.3567 135.928 66.9574 135.82 67.6261 135.82ZM79.5698 144.507C79.3204 144.711 79.0144 144.864 78.6518 144.966C78.3004 145.068 77.9264 145.119 77.5298 145.119C76.5324 145.119 75.7618 144.858 75.2177 144.337C74.6738 143.816 74.4018 143.056 74.4018 142.059V137.69H72.9058V135.99H74.4018V133.916H76.5268V135.99H78.9578V137.69H76.5268V142.008C76.5268 142.45 76.6344 142.79 76.8498 143.028C77.0651 143.255 77.3768 143.368 77.7848 143.368C78.2608 143.368 78.6574 143.243 78.9748 142.994L79.5698 144.507ZM84.1228 145.119C83.3862 145.119 82.6665 145.023 81.9638 144.83C81.2612 144.637 80.7002 144.394 80.2808 144.099L81.0968 142.484C81.5048 142.756 81.9922 142.977 82.5588 143.147C83.1368 143.306 83.7035 143.385 84.2588 143.385C85.5282 143.385 86.1628 143.051 86.1628 142.382C86.1628 142.065 85.9985 141.844 85.6698 141.719C85.3525 141.594 84.8368 141.475 84.1228 141.362C83.3748 141.249 82.7628 141.118 82.2868 140.971C81.8222 140.824 81.4142 140.569 81.0628 140.206C80.7228 139.832 80.5528 139.316 80.5528 138.659C80.5528 137.798 80.9098 137.112 81.6238 136.602C82.3492 136.081 83.3238 135.82 84.5478 135.82C85.1712 135.82 85.7945 135.894 86.4178 136.041C87.0412 136.177 87.5512 136.364 87.9478 136.602L87.1318 138.217C86.3612 137.764 85.4942 137.537 84.5308 137.537C83.9075 137.537 83.4315 137.633 83.1028 137.826C82.7855 138.007 82.6268 138.251 82.6268 138.557C82.6268 138.897 82.7968 139.141 83.1368 139.288C83.4882 139.424 84.0265 139.554 84.7518 139.679C85.4772 139.792 86.0722 139.923 86.5368 140.07C87.0015 140.217 87.3982 140.467 87.7268 140.818C88.0668 141.169 88.2368 141.668 88.2368 142.314C88.2368 143.164 87.8685 143.844 87.1318 144.354C86.3952 144.864 85.3922 145.119 84.1228 145.119ZM103.775 135.922V143.623C103.775 146.819 102.143 148.417 98.8791 148.417C98.0064 148.417 97.1791 148.304 96.3971 148.077C95.6151 147.862 94.9691 147.544 94.4591 147.125L95.4111 145.527C95.8078 145.856 96.3064 146.116 96.9071 146.309C97.5191 146.513 98.1368 146.615 98.7601 146.615C99.7574 146.615 100.488 146.388 100.953 145.935C101.418 145.482 101.65 144.79 101.65 143.861V143.385C101.287 143.782 100.845 144.082 100.324 144.286C99.8028 144.49 99.2304 144.592 98.6071 144.592C97.7458 144.592 96.9638 144.411 96.2611 144.048C95.5698 143.674 95.0201 143.153 94.6121 142.484C94.2154 141.815 94.0171 141.05 94.0171 140.189C94.0171 139.328 94.2154 138.568 94.6121 137.911C95.0201 137.242 95.5698 136.727 96.2611 136.364C96.9638 136.001 97.7458 135.82 98.6071 135.82C99.2644 135.82 99.8594 135.928 100.392 136.143C100.936 136.358 101.389 136.687 101.752 137.129V135.922H103.775ZM98.9301 142.79C99.7348 142.79 100.392 142.552 100.902 142.076C101.423 141.589 101.684 140.96 101.684 140.189C101.684 139.43 101.423 138.812 100.902 138.336C100.392 137.86 99.7348 137.622 98.9301 137.622C98.1141 137.622 97.4454 137.86 96.9241 138.336C96.4141 138.812 96.1591 139.43 96.1591 140.189C96.1591 140.96 96.4141 141.589 96.9241 142.076C97.4454 142.552 98.1141 142.79 98.9301 142.79ZM106.569 132.386H108.694V145H106.569V132.386ZM115.563 145.119C114.645 145.119 113.818 144.921 113.081 144.524C112.344 144.127 111.766 143.578 111.347 142.875C110.939 142.161 110.735 141.356 110.735 140.461C110.735 139.566 110.939 138.767 111.347 138.064C111.766 137.361 112.344 136.812 113.081 136.415C113.818 136.018 114.645 135.82 115.563 135.82C116.492 135.82 117.325 136.018 118.062 136.415C118.799 136.812 119.371 137.361 119.779 138.064C120.198 138.767 120.408 139.566 120.408 140.461C120.408 141.356 120.198 142.161 119.779 142.875C119.371 143.578 118.799 144.127 118.062 144.524C117.325 144.921 116.492 145.119 115.563 145.119ZM115.563 143.3C116.345 143.3 116.991 143.039 117.501 142.518C118.011 141.997 118.266 141.311 118.266 140.461C118.266 139.611 118.011 138.925 117.501 138.404C116.991 137.883 116.345 137.622 115.563 137.622C114.781 137.622 114.135 137.883 113.625 138.404C113.126 138.925 112.877 139.611 112.877 140.461C112.877 141.311 113.126 141.997 113.625 142.518C114.135 143.039 114.781 143.3 115.563 143.3ZM127.472 135.82C128.356 135.82 129.144 136.013 129.835 136.398C130.538 136.783 131.087 137.327 131.484 138.03C131.881 138.733 132.079 139.543 132.079 140.461C132.079 141.379 131.881 142.195 131.484 142.909C131.087 143.612 130.538 144.156 129.835 144.541C129.144 144.926 128.356 145.119 127.472 145.119C126.849 145.119 126.276 145.011 125.755 144.796C125.245 144.581 124.814 144.258 124.463 143.827V145H122.44V132.386H124.565V137.027C124.928 136.63 125.353 136.33 125.84 136.126C126.339 135.922 126.883 135.82 127.472 135.82ZM127.234 143.3C128.016 143.3 128.656 143.039 129.155 142.518C129.665 141.997 129.92 141.311 129.92 140.461C129.92 139.611 129.665 138.925 129.155 138.404C128.656 137.883 128.016 137.622 127.234 137.622C126.724 137.622 126.265 137.741 125.857 137.979C125.449 138.206 125.126 138.534 124.888 138.965C124.65 139.396 124.531 139.894 124.531 140.461C124.531 141.028 124.65 141.526 124.888 141.957C125.126 142.388 125.449 142.722 125.857 142.96C126.265 143.187 126.724 143.3 127.234 143.3ZM137.446 135.82C138.783 135.82 139.803 136.143 140.506 136.789C141.22 137.424 141.577 138.387 141.577 139.679V145H139.571V143.895C139.31 144.292 138.936 144.598 138.449 144.813C137.973 145.017 137.395 145.119 136.715 145.119C136.035 145.119 135.44 145.006 134.93 144.779C134.42 144.541 134.023 144.218 133.74 143.81C133.468 143.391 133.332 142.92 133.332 142.399C133.332 141.583 133.632 140.931 134.233 140.444C134.845 139.945 135.803 139.696 137.106 139.696H139.452V139.56C139.452 138.925 139.259 138.438 138.874 138.098C138.5 137.758 137.939 137.588 137.191 137.588C136.681 137.588 136.177 137.667 135.678 137.826C135.191 137.985 134.777 138.206 134.437 138.489L133.604 136.942C134.08 136.579 134.652 136.302 135.321 136.109C135.99 135.916 136.698 135.82 137.446 135.82ZM137.157 143.572C137.69 143.572 138.16 143.453 138.568 143.215C138.987 142.966 139.282 142.614 139.452 142.161V141.107H137.259C136.035 141.107 135.423 141.509 135.423 142.314C135.423 142.699 135.576 143.005 135.882 143.232C136.188 143.459 136.613 143.572 137.157 143.572ZM144.304 132.386H146.429V145H144.304V132.386ZM149.218 132.386H151.343V145H149.218V132.386ZM162.632 135.922L158.382 145.731C157.986 146.717 157.504 147.408 156.937 147.805C156.371 148.213 155.685 148.417 154.88 148.417C154.427 148.417 153.979 148.343 153.537 148.196C153.095 148.049 152.733 147.845 152.449 147.584L153.299 146.02C153.503 146.213 153.741 146.366 154.013 146.479C154.297 146.592 154.58 146.649 154.863 146.649C155.237 146.649 155.543 146.553 155.781 146.36C156.031 146.167 156.257 145.844 156.461 145.391L156.614 145.034L152.653 135.922H154.863L157.719 142.637L160.592 135.922H162.632ZM172.127 135.82C173.464 135.82 174.484 136.143 175.187 136.789C175.901 137.424 176.258 138.387 176.258 139.679V145H174.252V143.895C173.991 144.292 173.617 144.598 173.13 144.813C172.654 145.017 172.076 145.119 171.396 145.119C170.716 145.119 170.121 145.006 169.611 144.779C169.101 144.541 168.704 144.218 168.421 143.81C168.149 143.391 168.013 142.92 168.013 142.399C168.013 141.583 168.313 140.931 168.914 140.444C169.526 139.945 170.483 139.696 171.787 139.696H174.133V139.56C174.133 138.925 173.94 138.438 173.555 138.098C173.181 137.758 172.62 137.588 171.872 137.588C171.362 137.588 170.857 137.667 170.359 137.826C169.871 137.985 169.458 138.206 169.118 138.489L168.285 136.942C168.761 136.579 169.333 136.302 170.002 136.109C170.67 135.916 171.379 135.82 172.127 135.82ZM171.838 143.572C172.37 143.572 172.841 143.453 173.249 143.215C173.668 142.966 173.963 142.614 174.133 142.161V141.107H171.94C170.716 141.107 170.104 141.509 170.104 142.314C170.104 142.699 170.257 143.005 170.563 143.232C170.869 143.459 171.294 143.572 171.838 143.572ZM184.442 144.507C184.192 144.711 183.886 144.864 183.524 144.966C183.172 145.068 182.798 145.119 182.402 145.119C181.404 145.119 180.634 144.858 180.09 144.337C179.546 143.816 179.274 143.056 179.274 142.059V137.69H177.778V135.99H179.274V133.916H181.399V135.99H183.83V137.69H181.399V142.008C181.399 142.45 181.506 142.79 181.722 143.028C181.937 143.255 182.249 143.368 182.657 143.368C183.133 143.368 183.529 143.243 183.847 142.994L184.442 144.507ZM190.888 132.386H193.013V145H190.888V132.386ZM199.882 145.119C198.964 145.119 198.137 144.921 197.4 144.524C196.664 144.127 196.086 143.578 195.666 142.875C195.258 142.161 195.054 141.356 195.054 140.461C195.054 139.566 195.258 138.767 195.666 138.064C196.086 137.361 196.664 136.812 197.4 136.415C198.137 136.018 198.964 135.82 199.882 135.82C200.812 135.82 201.645 136.018 202.381 136.415C203.118 136.812 203.69 137.361 204.098 138.064C204.518 138.767 204.727 139.566 204.727 140.461C204.727 141.356 204.518 142.161 204.098 142.875C203.69 143.578 203.118 144.127 202.381 144.524C201.645 144.921 200.812 145.119 199.882 145.119ZM199.882 143.3C200.664 143.3 201.31 143.039 201.82 142.518C202.33 141.997 202.585 141.311 202.585 140.461C202.585 139.611 202.33 138.925 201.82 138.404C201.31 137.883 200.664 137.622 199.882 137.622C199.1 137.622 198.454 137.883 197.944 138.404C197.446 138.925 197.196 139.611 197.196 140.461C197.196 141.311 197.446 141.997 197.944 142.518C198.454 143.039 199.1 143.3 199.882 143.3ZM210.924 145.119C209.984 145.119 209.139 144.921 208.391 144.524C207.643 144.127 207.06 143.578 206.64 142.875C206.221 142.161 206.011 141.356 206.011 140.461C206.011 139.566 206.221 138.767 206.64 138.064C207.06 137.361 207.638 136.812 208.374 136.415C209.122 136.018 209.972 135.82 210.924 135.82C211.82 135.82 212.602 136.001 213.27 136.364C213.95 136.727 214.46 137.248 214.8 137.928L213.168 138.88C212.908 138.461 212.579 138.149 212.182 137.945C211.797 137.73 211.372 137.622 210.907 137.622C210.114 137.622 209.457 137.883 208.935 138.404C208.414 138.914 208.153 139.6 208.153 140.461C208.153 141.322 208.408 142.014 208.918 142.535C209.44 143.045 210.103 143.3 210.907 143.3C211.372 143.3 211.797 143.198 212.182 142.994C212.579 142.779 212.908 142.461 213.168 142.042L214.8 142.994C214.449 143.674 213.933 144.201 213.253 144.575C212.585 144.938 211.808 145.119 210.924 145.119ZM220.105 135.82C221.442 135.82 222.462 136.143 223.165 136.789C223.879 137.424 224.236 138.387 224.236 139.679V145H222.23V143.895C221.969 144.292 221.595 144.598 221.108 144.813C220.632 145.017 220.054 145.119 219.374 145.119C218.694 145.119 218.099 145.006 217.589 144.779C217.079 144.541 216.682 144.218 216.399 143.81C216.127 143.391 215.991 142.92 215.991 142.399C215.991 141.583 216.291 140.931 216.892 140.444C217.504 139.945 218.462 139.696 219.765 139.696H222.111V139.56C222.111 138.925 221.918 138.438 221.533 138.098C221.159 137.758 220.598 137.588 219.85 137.588C219.34 137.588 218.836 137.667 218.337 137.826C217.85 137.985 217.436 138.206 217.096 138.489L216.263 136.942C216.739 136.579 217.311 136.302 217.98 136.109C218.649 135.916 219.357 135.82 220.105 135.82ZM219.816 143.572C220.349 143.572 220.819 143.453 221.227 143.215C221.646 142.966 221.941 142.614 222.111 142.161V141.107H219.918C218.694 141.107 218.082 141.509 218.082 142.314C218.082 142.699 218.235 143.005 218.541 143.232C218.847 143.459 219.272 143.572 219.816 143.572ZM226.963 132.386H229.088V145H226.963V132.386ZM239.381 145.119C238.644 145.119 237.924 145.023 237.222 144.83C236.519 144.637 235.958 144.394 235.539 144.099L236.355 142.484C236.763 142.756 237.25 142.977 237.817 143.147C238.395 143.306 238.961 143.385 239.517 143.385C240.786 143.385 241.421 143.051 241.421 142.382C241.421 142.065 241.256 141.844 240.928 141.719C240.61 141.594 240.095 141.475 239.381 141.362C238.633 141.249 238.021 141.118 237.545 140.971C237.08 140.824 236.672 140.569 236.321 140.206C235.981 139.832 235.811 139.316 235.811 138.659C235.811 137.798 236.168 137.112 236.882 136.602C237.607 136.081 238.582 135.82 239.806 135.82C240.429 135.82 241.052 135.894 241.676 136.041C242.299 136.177 242.809 136.364 243.206 136.602L242.39 138.217C241.619 137.764 240.752 137.537 239.789 137.537C239.165 137.537 238.689 137.633 238.361 137.826C238.043 138.007 237.885 138.251 237.885 138.557C237.885 138.897 238.055 139.141 238.395 139.288C238.746 139.424 239.284 139.554 240.01 139.679C240.735 139.792 241.33 139.923 241.795 140.07C242.259 140.217 242.656 140.467 242.985 140.818C243.325 141.169 243.495 141.668 243.495 142.314C243.495 143.164 243.126 143.844 242.39 144.354C241.653 144.864 240.65 145.119 239.381 145.119ZM250.782 144.507C250.532 144.711 250.226 144.864 249.864 144.966C249.512 145.068 249.138 145.119 248.742 145.119C247.744 145.119 246.974 144.858 246.43 144.337C245.886 143.816 245.614 143.056 245.614 142.059V137.69H244.118V135.99H245.614V133.916H247.739V135.99H250.17V137.69H247.739V142.008C247.739 142.45 247.846 142.79 248.062 143.028C248.277 143.255 248.589 143.368 248.997 143.368C249.473 143.368 249.869 143.243 250.187 142.994L250.782 144.507ZM256.311 145.119C255.393 145.119 254.566 144.921 253.829 144.524C253.092 144.127 252.514 143.578 252.095 142.875C251.687 142.161 251.483 141.356 251.483 140.461C251.483 139.566 251.687 138.767 252.095 138.064C252.514 137.361 253.092 136.812 253.829 136.415C254.566 136.018 255.393 135.82 256.311 135.82C257.24 135.82 258.073 136.018 258.81 136.415C259.547 136.812 260.119 137.361 260.527 138.064C260.946 138.767 261.156 139.566 261.156 140.461C261.156 141.356 260.946 142.161 260.527 142.875C260.119 143.578 259.547 144.127 258.81 144.524C258.073 144.921 257.24 145.119 256.311 145.119ZM256.311 143.3C257.093 143.3 257.739 143.039 258.249 142.518C258.759 141.997 259.014 141.311 259.014 140.461C259.014 139.611 258.759 138.925 258.249 138.404C257.739 137.883 257.093 137.622 256.311 137.622C255.529 137.622 254.883 137.883 254.373 138.404C253.874 138.925 253.625 139.611 253.625 140.461C253.625 141.311 253.874 141.997 254.373 142.518C254.883 143.039 255.529 143.3 256.311 143.3ZM265.211 137.248C265.823 136.296 266.9 135.82 268.441 135.82V137.843C268.26 137.809 268.095 137.792 267.948 137.792C267.121 137.792 266.475 138.036 266.01 138.523C265.545 138.999 265.313 139.69 265.313 140.597V145H263.188V135.922H265.211V137.248ZM278.695 140.512C278.695 140.659 278.683 140.869 278.661 141.141H271.538C271.662 141.81 271.985 142.342 272.507 142.739C273.039 143.124 273.697 143.317 274.479 143.317C275.476 143.317 276.298 142.988 276.944 142.331L278.083 143.64C277.675 144.127 277.159 144.496 276.536 144.745C275.912 144.994 275.21 145.119 274.428 145.119C273.43 145.119 272.552 144.921 271.793 144.524C271.033 144.127 270.444 143.578 270.025 142.875C269.617 142.161 269.413 141.356 269.413 140.461C269.413 139.577 269.611 138.784 270.008 138.081C270.416 137.367 270.977 136.812 271.691 136.415C272.405 136.018 273.209 135.82 274.105 135.82C274.989 135.82 275.776 136.018 276.468 136.415C277.17 136.8 277.714 137.35 278.1 138.064C278.496 138.767 278.695 139.583 278.695 140.512ZM274.105 137.52C273.425 137.52 272.847 137.724 272.371 138.132C271.906 138.529 271.623 139.061 271.521 139.73H276.672C276.581 139.073 276.303 138.54 275.839 138.132C275.374 137.724 274.796 137.52 274.105 137.52ZM283.541 145.119C282.804 145.119 282.084 145.023 281.382 144.83C280.679 144.637 280.118 144.394 279.699 144.099L280.515 142.484C280.923 142.756 281.41 142.977 281.977 143.147C282.555 143.306 283.121 143.385 283.677 143.385C284.946 143.385 285.581 143.051 285.581 142.382C285.581 142.065 285.416 141.844 285.088 141.719C284.77 141.594 284.255 141.475 283.541 141.362C282.793 141.249 282.181 141.118 281.705 140.971C281.24 140.824 280.832 140.569 280.481 140.206C280.141 139.832 279.971 139.316 279.971 138.659C279.971 137.798 280.328 137.112 281.042 136.602C281.767 136.081 282.742 135.82 283.966 135.82C284.589 135.82 285.212 135.894 285.836 136.041C286.459 136.177 286.969 136.364 287.366 136.602L286.55 138.217C285.779 137.764 284.912 137.537 283.949 137.537C283.325 137.537 282.849 137.633 282.521 137.826C282.203 138.007 282.045 138.251 282.045 138.557C282.045 138.897 282.215 139.141 282.555 139.288C282.906 139.424 283.444 139.554 284.17 139.679C284.895 139.792 285.49 139.923 285.955 140.07C286.419 140.217 286.816 140.467 287.145 140.818C287.485 141.169 287.655 141.668 287.655 142.314C287.655 143.164 287.286 143.844 286.55 144.354C285.813 144.864 284.81 145.119 283.541 145.119ZM290.182 142.297C290.578 142.297 290.907 142.427 291.168 142.688C291.428 142.949 291.559 143.289 291.559 143.708C291.559 143.889 291.53 144.082 291.474 144.286C291.428 144.479 291.326 144.773 291.168 145.17L290.301 147.567H288.924L289.604 144.966C289.354 144.864 289.156 144.705 289.009 144.49C288.873 144.263 288.805 144.003 288.805 143.708C288.805 143.289 288.935 142.949 289.196 142.688C289.456 142.427 289.785 142.297 290.182 142.297ZM312.494 135.922L309.145 145H307.105L304.759 138.744L302.379 145H300.339L297.007 135.922H299.013L301.41 142.62L303.909 135.922H305.694L308.142 142.654L310.607 135.922H312.494ZM322.241 140.512C322.241 140.659 322.229 140.869 322.207 141.141H315.084C315.208 141.81 315.531 142.342 316.053 142.739C316.585 143.124 317.243 143.317 318.025 143.317C319.022 143.317 319.844 142.988 320.49 142.331L321.629 143.64C321.221 144.127 320.705 144.496 320.082 144.745C319.458 144.994 318.756 145.119 317.974 145.119C316.976 145.119 316.098 144.921 315.339 144.524C314.579 144.127 313.99 143.578 313.571 142.875C313.163 142.161 312.959 141.356 312.959 140.461C312.959 139.577 313.157 138.784 313.554 138.081C313.962 137.367 314.523 136.812 315.237 136.415C315.951 136.018 316.755 135.82 317.651 135.82C318.535 135.82 319.322 136.018 320.014 136.415C320.716 136.8 321.26 137.35 321.646 138.064C322.042 138.767 322.241 139.583 322.241 140.512ZM317.651 137.52C316.971 137.52 316.393 137.724 315.917 138.132C315.452 138.529 315.169 139.061 315.067 139.73H320.218C320.127 139.073 319.849 138.54 319.385 138.132C318.92 137.724 318.342 137.52 317.651 137.52ZM329.314 135.82C330.198 135.82 330.985 136.013 331.677 136.398C332.379 136.783 332.929 137.327 333.326 138.03C333.722 138.733 333.921 139.543 333.921 140.461C333.921 141.379 333.722 142.195 333.326 142.909C332.929 143.612 332.379 144.156 331.677 144.541C330.985 144.926 330.198 145.119 329.314 145.119C328.69 145.119 328.118 145.011 327.597 144.796C327.087 144.581 326.656 144.258 326.305 143.827V145H324.282V132.386H326.407V137.027C326.769 136.63 327.194 136.33 327.682 136.126C328.18 135.922 328.724 135.82 329.314 135.82ZM329.076 143.3C329.858 143.3 330.498 143.039 330.997 142.518C331.507 141.997 331.762 141.311 331.762 140.461C331.762 139.611 331.507 138.925 330.997 138.404C330.498 137.883 329.858 137.622 329.076 137.622C328.566 137.622 328.107 137.741 327.699 137.979C327.291 138.206 326.968 138.534 326.73 138.965C326.492 139.396 326.373 139.894 326.373 140.461C326.373 141.028 326.492 141.526 326.73 141.957C326.968 142.388 327.291 142.722 327.699 142.96C328.107 143.187 328.566 143.3 329.076 143.3ZM338.741 145.119C338.004 145.119 337.285 145.023 336.582 144.83C335.879 144.637 335.318 144.394 334.899 144.099L335.715 142.484C336.123 142.756 336.61 142.977 337.177 143.147C337.755 143.306 338.322 143.385 338.877 143.385C340.146 143.385 340.781 143.051 340.781 142.382C340.781 142.065 340.617 141.844 340.288 141.719C339.971 141.594 339.455 141.475 338.741 141.362C337.993 141.249 337.381 141.118 336.905 140.971C336.44 140.824 336.032 140.569 335.681 140.206C335.341 139.832 335.171 139.316 335.171 138.659C335.171 137.798 335.528 137.112 336.242 136.602C336.967 136.081 337.942 135.82 339.166 135.82C339.789 135.82 340.413 135.894 341.036 136.041C341.659 136.177 342.169 136.364 342.566 136.602L341.75 138.217C340.979 137.764 340.112 137.537 339.149 137.537C338.526 137.537 338.05 137.633 337.721 137.826C337.404 138.007 337.245 138.251 337.245 138.557C337.245 138.897 337.415 139.141 337.755 139.288C338.106 139.424 338.645 139.554 339.37 139.679C340.095 139.792 340.69 139.923 341.155 140.07C341.62 140.217 342.016 140.467 342.345 140.818C342.685 141.169 342.855 141.668 342.855 142.314C342.855 143.164 342.487 143.844 341.75 144.354C341.013 144.864 340.01 145.119 338.741 145.119ZM344.685 135.922H346.81V145H344.685V135.922ZM345.756 134.426C345.371 134.426 345.048 134.307 344.787 134.069C344.526 133.82 344.396 133.514 344.396 133.151C344.396 132.788 344.526 132.488 344.787 132.25C345.048 132.001 345.371 131.876 345.756 131.876C346.141 131.876 346.464 131.995 346.725 132.233C346.986 132.46 347.116 132.749 347.116 133.1C347.116 133.474 346.986 133.791 346.725 134.052C346.476 134.301 346.153 134.426 345.756 134.426ZM355.056 144.507C354.807 144.711 354.501 144.864 354.138 144.966C353.787 145.068 353.413 145.119 353.016 145.119C352.019 145.119 351.248 144.858 350.704 144.337C350.16 143.816 349.888 143.056 349.888 142.059V137.69H348.392V135.99H349.888V133.916H352.013V135.99H354.444V137.69H352.013V142.008C352.013 142.45 352.121 142.79 352.336 143.028C352.551 143.255 352.863 143.368 353.271 143.368C353.747 143.368 354.144 143.243 354.461 142.994L355.056 144.507ZM365.039 140.512C365.039 140.659 365.028 140.869 365.005 141.141H357.882C358.007 141.81 358.33 142.342 358.851 142.739C359.384 143.124 360.041 143.317 360.823 143.317C361.821 143.317 362.642 142.988 363.288 142.331L364.427 143.64C364.019 144.127 363.504 144.496 362.88 144.745C362.257 144.994 361.554 145.119 360.772 145.119C359.775 145.119 358.897 144.921 358.137 144.524C357.378 144.127 356.789 143.578 356.369 142.875C355.961 142.161 355.757 141.356 355.757 140.461C355.757 139.577 355.956 138.784 356.352 138.081C356.76 137.367 357.321 136.812 358.035 136.415C358.749 136.018 359.554 135.82 360.449 135.82C361.333 135.82 362.121 136.018 362.812 136.415C363.515 136.8 364.059 137.35 364.444 138.064C364.841 138.767 365.039 139.583 365.039 140.512ZM360.449 137.52C359.769 137.52 359.191 137.724 358.715 138.132C358.251 138.529 357.967 139.061 357.865 139.73H363.016C362.926 139.073 362.648 138.54 362.183 138.132C361.719 137.724 361.141 137.52 360.449 137.52ZM369.886 145.119C369.149 145.119 368.429 145.023 367.727 144.83C367.024 144.637 366.463 144.394 366.044 144.099L366.86 142.484C367.268 142.756 367.755 142.977 368.322 143.147C368.9 143.306 369.466 143.385 370.022 143.385C371.291 143.385 371.926 143.051 371.926 142.382C371.926 142.065 371.761 141.844 371.433 141.719C371.115 141.594 370.6 141.475 369.886 141.362C369.138 141.249 368.526 141.118 368.05 140.971C367.585 140.824 367.177 140.569 366.826 140.206C366.486 139.832 366.316 139.316 366.316 138.659C366.316 137.798 366.673 137.112 367.387 136.602C368.112 136.081 369.087 135.82 370.311 135.82C370.934 135.82 371.557 135.894 372.181 136.041C372.804 136.177 373.314 136.364 373.711 136.602L372.895 138.217C372.124 137.764 371.257 137.537 370.294 137.537C369.67 137.537 369.194 137.633 368.866 137.826C368.548 138.007 368.39 138.251 368.39 138.557C368.39 138.897 368.56 139.141 368.9 139.288C369.251 139.424 369.789 139.554 370.515 139.679C371.24 139.792 371.835 139.923 372.3 140.07C372.764 140.217 373.161 140.467 373.49 140.818C373.83 141.169 374 141.668 374 142.314C374 143.164 373.631 143.844 372.895 144.354C372.158 144.864 371.155 145.119 369.886 145.119ZM383.996 135.82C385.333 135.82 386.353 136.143 387.056 136.789C387.77 137.424 388.127 138.387 388.127 139.679V145H386.121V143.895C385.86 144.292 385.486 144.598 384.999 144.813C384.523 145.017 383.945 145.119 383.265 145.119C382.585 145.119 381.99 145.006 381.48 144.779C380.97 144.541 380.573 144.218 380.29 143.81C380.018 143.391 379.882 142.92 379.882 142.399C379.882 141.583 380.182 140.931 380.783 140.444C381.395 139.945 382.352 139.696 383.656 139.696H386.002V139.56C386.002 138.925 385.809 138.438 385.424 138.098C385.05 137.758 384.489 137.588 383.741 137.588C383.231 137.588 382.726 137.667 382.228 137.826C381.74 137.985 381.327 138.206 380.987 138.489L380.154 136.942C380.63 136.579 381.202 136.302 381.871 136.109C382.539 135.916 383.248 135.82 383.996 135.82ZM383.707 143.572C384.239 143.572 384.71 143.453 385.118 143.215C385.537 142.966 385.832 142.614 386.002 142.161V141.107H383.809C382.585 141.107 381.973 141.509 381.973 142.314C381.973 142.699 382.126 143.005 382.432 143.232C382.738 143.459 383.163 143.572 383.707 143.572ZM396.005 135.82C397.15 135.82 398.068 136.154 398.759 136.823C399.45 137.492 399.796 138.483 399.796 139.798V145H397.671V140.07C397.671 139.277 397.484 138.682 397.11 138.285C396.736 137.877 396.203 137.673 395.512 137.673C394.73 137.673 394.112 137.911 393.659 138.387C393.206 138.852 392.979 139.526 392.979 140.41V145H390.854V135.922H392.877V137.095C393.228 136.676 393.67 136.358 394.203 136.143C394.736 135.928 395.336 135.82 396.005 135.82ZM411.466 132.386V145H409.426V143.827C409.074 144.258 408.638 144.581 408.117 144.796C407.607 145.011 407.04 145.119 406.417 145.119C405.544 145.119 404.756 144.926 404.054 144.541C403.362 144.156 402.818 143.612 402.422 142.909C402.025 142.195 401.827 141.379 401.827 140.461C401.827 139.543 402.025 138.733 402.422 138.03C402.818 137.327 403.362 136.783 404.054 136.398C404.756 136.013 405.544 135.82 406.417 135.82C407.017 135.82 407.567 135.922 408.066 136.126C408.564 136.33 408.989 136.636 409.341 137.044V132.386H411.466ZM406.672 143.3C407.182 143.3 407.641 143.187 408.049 142.96C408.457 142.722 408.78 142.388 409.018 141.957C409.256 141.526 409.375 141.028 409.375 140.461C409.375 139.894 409.256 139.396 409.018 138.965C408.78 138.534 408.457 138.206 408.049 137.979C407.641 137.741 407.182 137.622 406.672 137.622C406.162 137.622 405.703 137.741 405.295 137.979C404.887 138.206 404.564 138.534 404.326 138.965C404.088 139.396 403.969 139.894 403.969 140.461C403.969 141.028 404.088 141.526 404.326 141.957C404.564 142.388 404.887 142.722 405.295 142.96C405.703 143.187 406.162 143.3 406.672 143.3ZM422.412 135.82C423.749 135.82 424.769 136.143 425.472 136.789C426.186 137.424 426.543 138.387 426.543 139.679V145H424.537V143.895C424.276 144.292 423.902 144.598 423.415 144.813C422.939 145.017 422.361 145.119 421.681 145.119C421.001 145.119 420.406 145.006 419.896 144.779C419.386 144.541 418.989 144.218 418.706 143.81C418.434 143.391 418.298 142.92 418.298 142.399C418.298 141.583 418.598 140.931 419.199 140.444C419.811 139.945 420.768 139.696 422.072 139.696H424.418V139.56C424.418 138.925 424.225 138.438 423.84 138.098C423.466 137.758 422.905 137.588 422.157 137.588C421.647 137.588 421.142 137.667 420.644 137.826C420.156 137.985 419.743 138.206 419.403 138.489L418.57 136.942C419.046 136.579 419.618 136.302 420.287 136.109C420.955 135.916 421.664 135.82 422.412 135.82ZM422.123 143.572C422.655 143.572 423.126 143.453 423.534 143.215C423.953 142.966 424.248 142.614 424.418 142.161V141.107H422.225C421.001 141.107 420.389 141.509 420.389 142.314C420.389 142.699 420.542 143.005 420.848 143.232C421.154 143.459 421.579 143.572 422.123 143.572ZM434.302 135.82C435.186 135.82 435.974 136.013 436.665 136.398C437.368 136.783 437.917 137.327 438.314 138.03C438.711 138.733 438.909 139.543 438.909 140.461C438.909 141.379 438.711 142.195 438.314 142.909C437.917 143.612 437.368 144.156 436.665 144.541C435.974 144.926 435.186 145.119 434.302 145.119C433.078 145.119 432.109 144.711 431.395 143.895V148.298H429.27V135.922H431.293V137.112C431.644 136.681 432.075 136.358 432.585 136.143C433.106 135.928 433.679 135.82 434.302 135.82ZM434.064 143.3C434.846 143.3 435.486 143.039 435.985 142.518C436.495 141.997 436.75 141.311 436.75 140.461C436.75 139.611 436.495 138.925 435.985 138.404C435.486 137.883 434.846 137.622 434.064 137.622C433.554 137.622 433.095 137.741 432.687 137.979C432.279 138.206 431.956 138.534 431.718 138.965C431.48 139.396 431.361 139.894 431.361 140.461C431.361 141.028 431.48 141.526 431.718 141.957C431.956 142.388 432.279 142.722 432.687 142.96C433.095 143.187 433.554 143.3 434.064 143.3ZM445.956 135.82C446.84 135.82 447.628 136.013 448.319 136.398C449.022 136.783 449.572 137.327 449.968 138.03C450.365 138.733 450.563 139.543 450.563 140.461C450.563 141.379 450.365 142.195 449.968 142.909C449.572 143.612 449.022 144.156 448.319 144.541C447.628 144.926 446.84 145.119 445.956 145.119C444.732 145.119 443.763 144.711 443.049 143.895V148.298H440.924V135.922H442.947V137.112C443.299 136.681 443.729 136.358 444.239 136.143C444.761 135.928 445.333 135.82 445.956 135.82ZM445.718 143.3C446.5 143.3 447.141 143.039 447.639 142.518C448.149 141.997 448.404 141.311 448.404 140.461C448.404 139.611 448.149 138.925 447.639 138.404C447.141 137.883 446.5 137.622 445.718 137.622C445.208 137.622 444.749 137.741 444.341 137.979C443.933 138.206 443.61 138.534 443.372 138.965C443.134 139.396 443.015 139.894 443.015 140.461C443.015 141.028 443.134 141.526 443.372 141.957C443.61 142.388 443.933 142.722 444.341 142.96C444.749 143.187 445.208 143.3 445.718 143.3ZM455.384 145.119C454.647 145.119 453.927 145.023 453.225 144.83C452.522 144.637 451.961 144.394 451.542 144.099L452.358 142.484C452.766 142.756 453.253 142.977 453.82 143.147C454.398 143.306 454.964 143.385 455.52 143.385C456.789 143.385 457.424 143.051 457.424 142.382C457.424 142.065 457.259 141.844 456.931 141.719C456.613 141.594 456.098 141.475 455.384 141.362C454.636 141.249 454.024 141.118 453.548 140.971C453.083 140.824 452.675 140.569 452.324 140.206C451.984 139.832 451.814 139.316 451.814 138.659C451.814 137.798 452.171 137.112 452.885 136.602C453.61 136.081 454.585 135.82 455.809 135.82C456.432 135.82 457.055 135.894 457.679 136.041C458.302 136.177 458.812 136.364 459.209 136.602L458.393 138.217C457.622 137.764 456.755 137.537 455.792 137.537C455.168 137.537 454.692 137.633 454.364 137.826C454.046 138.007 453.888 138.251 453.888 138.557C453.888 138.897 454.058 139.141 454.398 139.288C454.749 139.424 455.287 139.554 456.013 139.679C456.738 139.792 457.333 139.923 457.798 140.07C458.262 140.217 458.659 140.467 458.988 140.818C459.328 141.169 459.498 141.668 459.498 142.314C459.498 143.164 459.129 143.844 458.393 144.354C457.656 144.864 456.653 145.119 455.384 145.119ZM462.008 145.119C461.622 145.119 461.294 144.989 461.022 144.728C460.75 144.456 460.614 144.116 460.614 143.708C460.614 143.289 460.744 142.949 461.005 142.688C461.277 142.427 461.611 142.297 462.008 142.297C462.404 142.297 462.733 142.427 462.994 142.688C463.266 142.949 463.402 143.289 463.402 143.708C463.402 144.116 463.266 144.456 462.994 144.728C462.722 144.989 462.393 145.119 462.008 145.119Z" fill="#88A1AC"/>
<path d="M34.944 6.6H24.704L17.792 19.4L10.88 6.6H0.64V29H8.96V18.344L15.072 29H20.512L26.624 18.344V29H34.944V6.6ZM48.9698 29.32C57.1298 29.32 62.0258 26.504 62.0258 19.4C62.0258 12.296 57.1298 9.48 48.9698 9.48C40.8098 9.48 35.9138 12.296 35.9138 19.4C35.9138 26.504 40.8098 29.32 48.9698 29.32ZM48.9698 22.92C45.5458 22.92 43.5938 22.216 43.5938 19.4C43.5938 16.584 45.5458 15.88 48.9698 15.88C52.3938 15.88 54.3458 16.584 54.3458 19.4C54.3458 22.216 52.3938 22.92 48.9698 22.92ZM62.3513 22.376C62.3513 28.392 68.7513 29.32 76.0153 29.32C83.2793 29.32 88.3993 28.392 88.3993 22.536C88.3993 17.512 83.5673 17.064 76.0153 16.68C71.1513 16.424 70.3513 16.456 70.3513 15.656C70.3513 14.92 71.4713 14.92 75.3753 14.92C78.7993 14.92 80.0793 14.92 80.0793 15.944H87.7593C87.7593 10.408 82.7993 9.48 75.6953 9.48C68.5913 9.48 62.6713 10.408 62.6713 15.88C62.6713 20.776 66.5433 21.448 75.3753 21.8C79.9833 21.992 80.7193 21.896 80.7193 22.856C80.7193 23.688 79.9833 23.88 75.6953 23.88C71.0553 23.88 70.0312 23.464 70.0312 22.376H62.3513ZM107.806 16.2V9.8H99.9658V4.68L92.2858 6.6V9.8H88.4138V16.2H92.2858V23.336C92.2858 27.496 95.2298 29.32 101.182 29.32C103.71 29.32 105.982 29.16 107.806 28.84V22.6C105.598 22.92 104.638 22.92 102.91 22.92C100.67 22.92 99.9658 21.992 99.9658 20.168V16.2H107.806ZM121.258 22.376C121.258 28.392 127.658 29.32 134.922 29.32C142.186 29.32 147.306 28.392 147.306 22.536C147.306 17.512 142.474 17.064 134.922 16.68C130.058 16.424 129.258 16.456 129.258 15.656C129.258 14.92 130.378 14.92 134.282 14.92C137.706 14.92 138.986 14.92 138.986 15.944H146.666C146.666 10.408 141.706 9.48 134.602 9.48C127.498 9.48 121.578 10.408 121.578 15.88C121.578 20.776 125.45 21.448 134.282 21.8C138.89 21.992 139.626 21.896 139.626 22.856C139.626 23.688 138.89 23.88 134.602 23.88C129.962 23.88 128.938 23.464 128.938 22.376H121.258ZM160.681 23.24C158.569 23.24 156.425 22.728 155.785 20.68H173.993C173.993 12.296 168.905 9.48 161.001 9.48C153.161 9.48 147.945 12.296 147.945 19.4C147.945 26.504 153.161 29.32 160.681 29.32C168.585 29.32 172.713 26.888 173.673 21.8H166.153C164.585 23.048 163.465 23.24 160.681 23.24ZM160.969 14.92C163.017 14.92 164.937 15.112 165.801 16.84H156.137C157.001 15.112 158.921 14.92 160.969 14.92ZM174.633 19.4C174.633 26.504 179.529 29.32 187.689 29.32C195.273 29.32 200.041 26.888 200.681 20.84H192.841C192.233 22.472 190.441 22.92 187.689 22.92C184.265 22.92 182.312 22.216 182.312 19.4C182.312 16.584 184.265 15.88 187.689 15.88C190.441 15.88 192.233 16.328 192.841 17.96H200.681C200.041 11.912 195.273 9.48 187.689 9.48C179.529 9.48 174.633 12.296 174.633 19.4ZM220.136 9.8V20.168C218.632 21.608 216.232 22.6 213.96 22.6C210.504 22.6 209.32 21.192 209.32 17.896V9.8H201.64V21.032C201.64 27.976 206.536 29.32 210.856 29.32C214.888 29.32 217.832 28.04 220.136 26.44V29H227.816V9.8H220.136ZM244.245 9.48C241.109 9.48 238.485 10.472 236.789 13V9.8H229.109V29H236.789V18.632C238.997 16.2 241.973 15.88 244.693 15.88C246.101 15.88 247.541 16.072 249.333 16.52V10.12C248.053 9.8 246.485 9.48 244.245 9.48ZM262.4 23.24C260.288 23.24 258.144 22.728 257.504 20.68H275.712C275.712 12.296 270.624 9.48 262.72 9.48C254.88 9.48 249.664 12.296 249.664 19.4C249.664 26.504 254.88 29.32 262.4 29.32C270.304 29.32 274.432 26.888 275.392 21.8H267.872C266.304 23.048 265.184 23.24 262.4 23.24ZM262.688 14.92C264.736 14.92 266.656 15.112 267.52 16.84H257.856C258.72 15.112 260.64 14.92 262.688 14.92ZM323.148 9.8L318.7 21.896L314.476 9.8H306.476L302.252 21.896L297.804 9.8H289.164L297.164 29H306.476L310.476 18.984L314.476 29H323.788L331.788 9.8H323.148ZM342.971 9.48C339.419 9.48 335.259 10.184 331.419 11.432L333.915 16.872C337.435 16.104 340.251 15.88 342.715 15.88C345.275 15.88 347.707 15.976 347.707 18.28C345.947 17.64 343.899 17.288 341.211 17.288C335.611 17.288 329.851 18.6 329.851 23.592C329.851 27.752 333.691 29.32 338.075 29.32C341.403 29.32 344.731 28.84 347.707 26.664V29H355.387V19.496C355.323 12.168 350.843 9.48 342.971 9.48ZM347.707 22.728C345.787 23.56 342.971 24.2 340.379 24.2C338.427 24.2 337.531 24.04 337.531 22.984C337.531 21.768 339.067 21.448 342.619 21.448C344.827 21.448 346.491 21.608 347.707 21.928V22.728ZM373.021 9.8L367.677 23.144L362.109 9.8H353.789L361.789 29H365.309L362.109 37H370.429L381.341 9.8H373.021ZM414.181 16.2V9.8H406.341V4.68L398.661 6.6V9.8H394.789V16.2H398.661V23.336C398.661 27.496 401.605 29.32 407.557 29.32C410.085 29.32 412.357 29.16 414.181 28.84V22.6C411.973 22.92 411.013 22.92 409.285 22.92C407.045 22.92 406.341 21.992 406.341 20.168V16.2H414.181ZM427.876 29.32C436.036 29.32 440.932 26.504 440.932 19.4C440.932 12.296 436.036 9.48 427.876 9.48C419.716 9.48 414.82 12.296 414.82 19.4C414.82 26.504 419.716 29.32 427.876 29.32ZM427.876 22.92C424.452 22.92 422.5 22.216 422.5 19.4C422.5 16.584 424.452 15.88 427.876 15.88C431.3 15.88 433.252 16.584 433.252 19.4C433.252 22.216 431.3 22.92 427.876 22.92ZM470.319 9.48C467.343 9.48 464.399 10.376 462.383 12.424V9.8H454.703V37H462.383V26.376C464.399 28.424 467.343 29.32 470.319 29.32C475.279 29.32 480.815 27.144 480.815 19.4C480.815 11.656 475.279 9.48 470.319 9.48ZM467.759 22.92C464.335 22.92 462.383 22.216 462.383 19.4C462.383 16.584 464.335 15.88 467.759 15.88C471.183 15.88 473.135 16.584 473.135 19.4C473.135 22.216 471.183 22.92 467.759 22.92ZM494.253 9.48C490.701 9.48 486.541 10.184 482.701 11.432L485.197 16.872C488.717 16.104 491.533 15.88 493.997 15.88C496.557 15.88 498.989 15.976 498.989 18.28C497.229 17.64 495.181 17.288 492.493 17.288C486.893 17.288 481.133 18.6 481.133 23.592C481.133 27.752 484.973 29.32 489.357 29.32C492.685 29.32 496.013 28.84 498.989 26.664V29H506.669V19.496C506.605 12.168 502.125 9.48 494.253 9.48ZM498.989 22.728C497.069 23.56 494.253 24.2 491.661 24.2C489.709 24.2 488.812 24.04 488.812 22.984C488.812 21.768 490.349 21.448 493.901 21.448C496.109 21.448 497.773 21.608 498.989 21.928V22.728ZM524.302 9.8L518.958 23.144L513.39 9.8H505.07L513.07 29H516.59L513.39 37H521.71L532.622 9.8H524.302ZM8.96 44.6H0.64V67H8.96V44.6ZM27.1938 47.48C23.1618 47.48 20.2178 48.76 17.9138 50.36V47.8H10.2338V67H17.9138V56.632C19.4178 55.192 21.8178 54.2 24.0898 54.2C27.5458 54.2 28.7298 55.608 28.7298 58.904V67H36.4098V55.768C36.4098 48.824 31.5138 47.48 27.1938 47.48ZM38.3425 52.92V59.32H63.9425V52.92H38.3425ZM65.5388 60.376C65.5388 66.392 71.9388 67.32 79.2028 67.32C86.4668 67.32 91.5868 66.392 91.5868 60.536C91.5868 55.512 86.7548 55.064 79.2028 54.68C74.3388 54.424 73.5388 54.456 73.5388 53.656C73.5388 52.92 74.6588 52.92 78.5628 52.92C81.9868 52.92 83.2668 52.92 83.2668 53.944H90.9468C90.9468 48.408 85.9868 47.48 78.8828 47.48C71.7788 47.48 65.8588 48.408 65.8588 53.88C65.8588 58.776 69.7308 59.448 78.5628 59.8C83.1708 59.992 83.9068 59.896 83.9068 60.856C83.9068 61.688 83.1708 61.88 78.8828 61.88C74.2428 61.88 73.2188 61.464 73.2188 60.376H65.5388ZM110.993 54.2V47.8H103.153V42.68L95.4733 44.6V47.8H91.6013V54.2H95.4733V61.336C95.4733 65.496 98.4173 67.32 104.369 67.32C106.897 67.32 109.169 67.16 110.993 66.84V60.6C108.785 60.92 107.825 60.92 106.097 60.92C103.857 60.92 103.153 59.992 103.153 58.168V54.2H110.993ZM124.689 67.32C132.849 67.32 137.745 64.504 137.745 57.4C137.745 50.296 132.849 47.48 124.689 47.48C116.529 47.48 111.633 50.296 111.633 57.4C111.633 64.504 116.529 67.32 124.689 67.32ZM124.689 60.92C121.265 60.92 119.312 60.216 119.312 57.4C119.312 54.584 121.265 53.88 124.689 53.88C128.113 53.88 130.065 54.584 130.065 57.4C130.065 60.216 128.113 60.92 124.689 60.92ZM153.839 47.48C150.703 47.48 148.079 48.472 146.383 51V47.8H138.703V67H146.383V56.632C148.591 54.2 151.567 53.88 154.287 53.88C155.694 53.88 157.135 54.072 158.927 54.52V48.12C157.647 47.8 156.079 47.48 153.839 47.48ZM171.994 61.24C169.882 61.24 167.738 60.728 167.098 58.68H185.306C185.306 50.296 180.218 47.48 172.314 47.48C164.474 47.48 159.258 50.296 159.258 57.4C159.258 64.504 164.474 67.32 171.994 67.32C179.898 67.32 184.026 64.888 184.986 59.8H177.466C175.898 61.048 174.778 61.24 171.994 61.24ZM172.282 52.92C174.33 52.92 176.25 53.112 177.114 54.84H167.45C168.314 53.112 170.234 52.92 172.282 52.92ZM231.558 61.816C230.086 61.176 228.71 60.6 227.43 60.056C228.23 59.032 228.966 57.912 229.67 56.664L222.822 54.04C222.118 55.128 221.382 56.12 220.614 56.984C218.982 56.216 217.606 55.512 216.486 54.936C220.774 53.56 223.302 51.928 223.302 49.4C223.302 46.04 219.078 44.28 213.702 44.28C207.334 44.28 203.974 46.04 203.974 49.72C203.974 51.448 204.678 52.952 206.214 54.52C202.854 55.192 199.078 56.472 199.078 60.824C199.078 64.984 203.014 67.32 211.014 67.32C215.878 67.32 219.686 66.36 222.822 64.344C224.55 65.176 226.374 66.072 228.358 67L231.558 61.816ZM213.702 49.4C215.078 49.4 215.622 49.912 215.622 50.808C215.622 51.768 214.822 52.44 213.286 52.984C212.038 52.056 211.654 51.384 211.654 50.808C211.654 49.912 212.326 49.4 213.702 49.4ZM211.59 60.92C207.974 60.92 206.758 60.12 206.758 59C206.758 58.104 207.59 57.528 209.19 56.952C210.758 58.04 212.742 59.192 215.142 60.472C214.086 60.76 212.902 60.92 211.59 60.92ZM259.4 67.32C269.224 67.32 273.48 63.544 273.48 55.768C273.48 48.024 269.224 44.28 259.4 44.28C249.544 44.28 245.32 47.992 245.32 55.768C245.32 63.576 249.544 67.32 259.4 67.32ZM259.4 60.28C254.504 60.28 253.64 58.168 253.64 55.768C253.64 53.4 254.472 51.32 259.4 51.32C264.328 51.32 265.16 53.432 265.16 55.768C265.16 58.136 264.296 60.28 259.4 60.28ZM291.413 47.48C287.381 47.48 284.437 48.76 282.133 50.36V47.8H274.453V67H282.133V56.632C283.637 55.192 286.037 54.2 288.309 54.2C291.765 54.2 292.949 55.608 292.949 58.904V67H300.629V55.768C300.629 48.824 295.733 47.48 291.413 47.48ZM301.921 41.4V67H309.601V41.4H301.921ZM310.89 41.4V46.52H318.57V41.4H310.89ZM310.89 47.8V67H318.57V47.8H310.89ZM336.819 47.48C332.787 47.48 329.843 48.76 327.539 50.36V47.8H319.859V67H327.539V56.632C329.043 55.192 331.443 54.2 333.715 54.2C337.171 54.2 338.355 55.608 338.355 58.904V67H346.035V55.768C346.035 48.824 341.139 47.48 336.819 47.48ZM359.431 61.24C357.319 61.24 355.175 60.728 354.535 58.68H372.743C372.743 50.296 367.655 47.48 359.751 47.48C351.911 47.48 346.695 50.296 346.695 57.4C346.695 64.504 351.911 67.32 359.431 67.32C367.335 67.32 371.463 64.888 372.423 59.8H364.903C363.335 61.048 362.215 61.24 359.431 61.24ZM359.719 52.92C361.767 52.92 363.687 53.112 364.551 54.84H354.887C355.751 53.112 357.671 52.92 359.719 52.92Z" fill="#88A1AC"/>
</svg>
