<svg width="169" height="14" viewBox="0 0 169 14" fill="none" xmlns="http://www.w3.org/2000/svg">
<path d="M13.2616 4.83969V1.09969H0.681641V12.9997H5.10164V9.85469H12.2416V6.11469H5.10164V4.83969H13.2616Z" fill="white"/>
<path d="M21.5877 13.1697C26.8067 13.1697 29.0677 11.1637 29.0677 7.03269C29.0677 2.91869 26.8067 0.929688 21.5877 0.929688C16.3517 0.929688 14.1077 2.90169 14.1077 7.03269C14.1077 11.1807 16.3517 13.1697 21.5877 13.1697ZM21.5877 9.42969C18.9867 9.42969 18.5277 8.30769 18.5277 7.03269C18.5277 5.77469 18.9697 4.66969 21.5877 4.66969C24.2057 4.66969 24.6477 5.79169 24.6477 7.03269C24.6477 8.29069 24.1887 9.42969 21.5877 9.42969Z" fill="white"/>
<path d="M44.1703 5.65569C44.1703 3.00369 42.3173 1.09969 39.6143 1.09969H30.2643V12.9997H34.6843V10.2117H37.2853L38.9343 12.9997H44.1703L42.0623 9.58269C43.3713 8.81769 44.1703 7.38969 44.1703 5.65569ZM34.6843 4.83969H38.7643C39.2063 4.83969 39.7503 4.83969 39.7503 5.65569C39.7503 6.47169 39.2063 6.47169 38.7643 6.47169H34.6843V4.83969Z" fill="white"/>
<path d="M65.8121 6.35269C66.3901 5.67269 66.7471 4.89069 66.7471 4.12569C66.7471 2.32369 65.9141 1.09969 63.2111 1.09969H52.8411V12.9997H63.7211C66.4241 12.9997 67.5971 11.4357 67.5971 9.48069C67.5971 8.18869 66.8491 7.10069 65.8121 6.35269ZM57.2611 3.98969H61.3411C61.7831 3.98969 62.3271 3.98969 62.3271 4.63569C62.3271 5.28169 61.7831 5.28169 61.3411 5.28169H57.2611V3.98969ZM62.1911 9.76969H57.2611V8.51169H62.1911C62.6331 8.51169 63.1771 8.51169 63.1771 9.14069C63.1771 9.76969 62.6331 9.76969 62.1911 9.76969Z" fill="white"/>
<path d="M83.4225 7.03269V1.09969H79.0025V7.03269C79.0025 8.29069 78.5435 9.42969 75.9425 9.42969C73.3415 9.42969 72.8825 8.30769 72.8825 7.03269V1.09969H68.4625V7.03269C68.4625 11.1807 70.7065 13.1697 75.9425 13.1697C81.1615 13.1697 83.4225 11.1637 83.4225 7.03269Z" fill="white"/>
<path d="M84.6112 8.80069C84.6112 12.3367 87.3312 13.1697 92.2102 13.1697C97.0892 13.1697 99.8092 12.3367 99.8092 9.05569C99.8092 5.94469 96.9022 5.62169 92.2102 5.43469C89.6262 5.33269 89.2012 5.34969 89.2012 4.89069C89.2012 4.43169 89.6262 4.32969 91.7002 4.32969C93.8592 4.32969 94.8792 4.46569 94.8792 5.09469H99.2992C99.2992 2.05169 96.6812 0.929688 92.0402 0.929688C87.3482 0.929688 84.7812 2.05169 84.7812 4.66969C84.7812 7.44069 86.8382 8.32469 92.2102 8.49469C94.9982 8.57969 95.3892 8.64769 95.3892 9.15769C95.3892 9.59969 94.9982 9.76969 92.3802 9.76969C89.5752 9.76969 89.0312 9.37869 89.0312 8.80069H84.6112Z" fill="white"/>
<path d="M105.42 1.09969H101V12.9997H105.42V1.09969Z" fill="white"/>
<path d="M117.691 1.09969V8.12069L112.557 1.09969H106.777V12.9997H111.197V5.97869L116.331 12.9997H122.111V1.09969H117.691Z" fill="white"/>
<path d="M136.057 4.49969V1.09969H123.477V12.9997H136.057V9.59969H127.897V8.49469H136.057V5.60469H127.897V4.49969H136.057Z" fill="white"/>
<path d="M137.069 8.80069C137.069 12.3367 139.789 13.1697 144.668 13.1697C149.547 13.1697 152.267 12.3367 152.267 9.05569C152.267 5.94469 149.36 5.62169 144.668 5.43469C142.084 5.33269 141.659 5.34969 141.659 4.89069C141.659 4.43169 142.084 4.32969 144.158 4.32969C146.317 4.32969 147.337 4.46569 147.337 5.09469H151.757C151.757 2.05169 149.139 0.929688 144.498 0.929688C139.806 0.929688 137.239 2.05169 137.239 4.66969C137.239 7.44069 139.296 8.32469 144.668 8.49469C147.456 8.57969 147.847 8.64769 147.847 9.15769C147.847 9.59969 147.456 9.76969 144.838 9.76969C142.033 9.76969 141.489 9.37869 141.489 8.80069H137.069Z" fill="white"/>
<path d="M153.288 8.80069C153.288 12.3367 156.008 13.1697 160.887 13.1697C165.766 13.1697 168.487 12.3367 168.487 9.05569C168.487 5.94469 165.579 5.62169 160.887 5.43469C158.303 5.33269 157.879 5.34969 157.879 4.89069C157.879 4.43169 158.304 4.32969 160.378 4.32969C162.537 4.32969 163.557 4.46569 163.557 5.09469H167.977C167.977 2.05169 165.358 0.929688 160.717 0.929688C156.025 0.929688 153.458 2.05169 153.458 4.66969C153.458 7.44069 155.515 8.32469 160.887 8.49469C163.675 8.57969 164.066 8.64769 164.066 9.15769C164.066 9.59969 163.676 9.76969 161.058 9.76969C158.253 9.76969 157.709 9.37869 157.709 8.80069H153.288Z" fill="white"/>
</svg>
