<svg width="414" height="130" viewBox="0 0 414 130" fill="none" xmlns="http://www.w3.org/2000/svg">
<path d="M25.0563 13.4879C26.1443 12.2079 26.8163 10.7359 26.8163 9.2959C26.8163 5.9039 25.2483 3.5999 20.1603 3.5999H0.640313V25.9999H21.1203C26.2083 25.9999 28.4163 23.0559 28.4163 19.3759C28.4163 16.9439 27.0083 14.8959 25.0563 13.4879ZM8.96031 9.0399H16.6403C17.4723 9.0399 18.4963 9.0399 18.4963 10.2559C18.4963 11.4719 17.4723 11.4719 16.6403 11.4719H8.96031V9.0399ZM18.2403 19.9199H8.96031V17.5519H18.2403C19.0723 17.5519 20.0963 17.5519 20.0963 18.7359C20.0963 19.9199 19.0723 19.9199 18.2403 19.9199Z" fill="#88A1AC"/>
<path d="M47.5738 6.7999V17.1679C46.0698 18.6079 43.6698 19.5999 41.3978 19.5999C37.9418 19.5999 36.7578 18.1919 36.7578 14.8959V6.7999H29.0778V18.0319C29.0778 24.9759 33.9738 26.3199 38.2938 26.3199C42.3258 26.3199 45.2698 25.0399 47.5738 23.4399V25.9999H55.2538V6.7999H47.5738Z" fill="#88A1AC"/>
<path d="M56.2266 19.3759C56.2266 25.3919 62.6266 26.3199 69.8906 26.3199C77.1546 26.3199 82.2746 25.3919 82.2746 19.5359C82.2746 14.5119 77.4426 14.0639 69.8906 13.6799C65.0266 13.4239 64.2266 13.4559 64.2266 12.6559C64.2266 11.9199 65.3466 11.9199 69.2506 11.9199C72.6746 11.9199 73.9546 11.9199 73.9546 12.9439H81.6346C81.6346 7.4079 76.6746 6.4799 69.5706 6.4799C62.4666 6.4799 56.5466 7.4079 56.5466 12.8799C56.5466 17.7759 60.4186 18.4479 69.2506 18.7999C73.8586 18.9919 74.5946 18.8959 74.5946 19.8559C74.5946 20.6879 73.8586 20.8799 69.5706 20.8799C64.9306 20.8799 63.9066 20.4639 63.9066 19.3759H56.2266Z" fill="#88A1AC"/>
<path d="M83.2341 0.399902V5.5199H90.9141V0.399902H83.2341ZM83.2341 6.7999V25.9999H90.9141V6.7999H83.2341Z" fill="#88A1AC"/>
<path d="M109.163 6.4799C105.131 6.4799 102.187 7.7599 99.8828 9.3599V6.7999H92.2028V25.9999H99.8828V15.6319C101.387 14.1919 103.787 13.1999 106.059 13.1999C109.515 13.1999 110.699 14.6079 110.699 17.9039V25.9999H118.379V14.7679C118.379 7.8239 113.483 6.4799 109.163 6.4799Z" fill="#88A1AC"/>
<path d="M131.775 20.2399C129.663 20.2399 127.519 19.7279 126.879 17.6799H145.087C145.087 9.2959 139.999 6.4799 132.095 6.4799C124.255 6.4799 119.039 9.2959 119.039 16.3999C119.039 23.5039 124.255 26.3199 131.775 26.3199C139.679 26.3199 143.807 23.8879 144.767 18.7999H137.247C135.679 20.0479 134.559 20.2399 131.775 20.2399ZM132.063 11.9199C134.111 11.9199 136.031 12.1119 136.895 13.8399H127.231C128.095 12.1119 130.015 11.9199 132.063 11.9199Z" fill="#88A1AC"/>
<path d="M145.414 19.3759C145.414 25.3919 151.814 26.3199 159.078 26.3199C166.342 26.3199 171.462 25.3919 171.462 19.5359C171.462 14.5119 166.63 14.0639 159.078 13.6799C154.214 13.4239 153.414 13.4559 153.414 12.6559C153.414 11.9199 154.534 11.9199 158.438 11.9199C161.862 11.9199 163.142 11.9199 163.142 12.9439H170.822C170.822 7.4079 165.862 6.4799 158.758 6.4799C151.654 6.4799 145.734 7.4079 145.734 12.8799C145.734 17.7759 149.606 18.4479 158.438 18.7999C163.046 18.9919 163.782 18.8959 163.782 19.8559C163.782 20.6879 163.046 20.8799 158.758 20.8799C154.118 20.8799 153.094 20.4639 153.094 19.3759H145.414Z" fill="#88A1AC"/>
<path d="M172.102 19.3759C172.102 25.3919 178.502 26.3199 185.766 26.3199C193.03 26.3199 198.15 25.3919 198.15 19.5359C198.15 14.5119 193.318 14.0639 185.766 13.6799C180.902 13.4239 180.102 13.4559 180.102 12.6559C180.102 11.9199 181.222 11.9199 185.126 11.9199C188.55 11.9199 189.83 11.9199 189.83 12.9439H197.51C197.51 7.4079 192.55 6.4799 185.446 6.4799C178.342 6.4799 172.422 7.4079 172.422 12.8799C172.422 17.7759 176.294 18.4479 185.126 18.7999C189.734 18.9919 190.47 18.8959 190.47 19.8559C190.47 20.6879 189.734 20.8799 185.446 20.8799C180.806 20.8799 179.782 20.4639 179.782 19.3759H172.102Z" fill="#88A1AC"/>
<path d="M239.122 3.5999H211.602V10.6399H221.202V25.9999H229.522V10.6399H239.122V3.5999Z" fill="#88A1AC"/>
<path d="M251.533 26.3199C259.693 26.3199 264.589 23.5039 264.589 16.3999C264.589 9.2959 259.693 6.4799 251.533 6.4799C243.373 6.4799 238.477 9.2959 238.477 16.3999C238.477 23.5039 243.373 26.3199 251.533 26.3199ZM251.533 19.9199C248.109 19.9199 246.157 19.2159 246.157 16.3999C246.157 13.5839 248.109 12.8799 251.533 12.8799C254.957 12.8799 256.909 13.5839 256.909 16.3999C256.909 19.2159 254.957 19.9199 251.533 19.9199Z" fill="#88A1AC"/>
<path d="M278.283 26.3199C286.443 26.3199 291.339 23.5039 291.339 16.3999C291.339 9.2959 286.443 6.4799 278.283 6.4799C270.123 6.4799 265.227 9.2959 265.227 16.3999C265.227 23.5039 270.123 26.3199 278.283 26.3199ZM278.283 19.9199C274.859 19.9199 272.907 19.2159 272.907 16.3999C272.907 13.5839 274.859 12.8799 278.283 12.8799C281.707 12.8799 283.659 13.5839 283.659 16.3999C283.659 19.2159 281.707 19.9199 278.283 19.9199Z" fill="#88A1AC"/>
<path d="M292.297 0.399902V25.9999H299.977V0.399902H292.297Z" fill="#88A1AC"/>
<path d="M300.945 19.3759C300.945 25.3919 307.345 26.3199 314.609 26.3199C321.873 26.3199 326.993 25.3919 326.993 19.5359C326.993 14.5119 322.161 14.0639 314.609 13.6799C309.745 13.4239 308.945 13.4559 308.945 12.6559C308.945 11.9199 310.065 11.9199 313.969 11.9199C317.393 11.9199 318.673 11.9199 318.673 12.9439H326.353C326.353 7.4079 321.393 6.4799 314.289 6.4799C307.185 6.4799 301.265 7.4079 301.265 12.8799C301.265 17.7759 305.137 18.4479 313.969 18.7999C318.577 18.9919 319.313 18.8959 319.313 19.8559C319.313 20.6879 318.577 20.8799 314.289 20.8799C309.649 20.8799 308.625 20.4639 308.625 19.3759H300.945Z" fill="#88A1AC"/>
<path d="M359.837 13.1999V6.7999H351.997V1.6799L344.317 3.5999V6.7999H340.445V13.1999H344.317V20.3359C344.317 24.4959 347.261 26.3199 353.213 26.3199C355.741 26.3199 358.013 26.1599 359.837 25.8399V19.5999C357.629 19.9199 356.669 19.9199 354.941 19.9199C352.701 19.9199 351.997 18.9919 351.997 17.1679V13.1999H359.837Z" fill="#88A1AC"/>
<path d="M373.533 26.3199C381.693 26.3199 386.589 23.5039 386.589 16.3999C386.589 9.2959 381.693 6.4799 373.533 6.4799C365.373 6.4799 360.477 9.2959 360.477 16.3999C360.477 23.5039 365.373 26.3199 373.533 26.3199ZM373.533 19.9199C370.109 19.9199 368.157 19.2159 368.157 16.3999C368.157 13.5839 370.109 12.8799 373.533 12.8799C376.957 12.8799 378.909 13.5839 378.909 16.3999C378.909 19.2159 376.957 19.9199 373.533 19.9199Z" fill="#88A1AC"/>
<path d="M17.6003 54.4799C13.5683 54.4799 10.6243 55.7599 8.32031 57.3599V48.3999H0.640313V73.9999H8.32031V63.6319C9.82431 62.1919 12.2243 61.1999 14.4963 61.1999C17.9523 61.1999 19.1363 62.6079 19.1363 65.9039V73.9999H26.8163V62.7679C26.8163 55.8239 21.9203 54.4799 17.6003 54.4799Z" fill="#88A1AC"/>
<path d="M40.2126 68.2399C38.1006 68.2399 35.9566 67.7279 35.3166 65.6799H53.5246C53.5246 57.2959 48.4366 54.4799 40.5326 54.4799C32.6926 54.4799 27.4766 57.2959 27.4766 64.3999C27.4766 71.5039 32.6926 74.3199 40.2126 74.3199C48.1166 74.3199 52.2446 71.8879 53.2046 66.7999H45.6846C44.1166 68.0479 42.9966 68.2399 40.2126 68.2399ZM40.5006 59.9199C42.5486 59.9199 44.4686 60.1119 45.3326 61.8399H35.6686C36.5326 60.1119 38.4526 59.9199 40.5006 59.9199Z" fill="#88A1AC"/>
<path d="M54.4841 48.3999V73.9999H62.1641V48.3999H54.4841Z" fill="#88A1AC"/>
<path d="M79.0688 54.4799C76.0928 54.4799 73.1488 55.3759 71.1328 57.4239V54.7999H63.4528V81.9999H71.1328V71.3759C73.1488 73.4239 76.0928 74.3199 79.0688 74.3199C84.0288 74.3199 89.5648 72.1439 89.5648 64.3999C89.5648 56.6559 84.0288 54.4799 79.0688 54.4799ZM76.5088 67.9199C73.0848 67.9199 71.1328 67.2159 71.1328 64.3999C71.1328 61.5839 73.0848 60.8799 76.5088 60.8799C79.9328 60.8799 81.8848 61.5839 81.8848 64.3999C81.8848 67.2159 79.9328 67.9199 76.5088 67.9199Z" fill="#88A1AC"/>
<path d="M122.24 54.7999L116.896 68.1439L111.328 54.7999H103.008L111.008 73.9999H114.528L111.328 81.9999H119.648L130.56 54.7999H122.24Z" fill="#88A1AC"/>
<path d="M141.689 74.3199C149.849 74.3199 154.745 71.5039 154.745 64.3999C154.745 57.2959 149.849 54.4799 141.689 54.4799C133.529 54.4799 128.633 57.2959 128.633 64.3999C128.633 71.5039 133.529 74.3199 141.689 74.3199ZM141.689 67.9199C138.265 67.9199 136.313 67.2159 136.313 64.3999C136.313 61.5839 138.265 60.8799 141.689 60.8799C145.113 60.8799 147.065 61.5839 147.065 64.3999C147.065 67.2159 145.113 67.9199 141.689 67.9199Z" fill="#88A1AC"/>
<path d="M174.199 54.7999V65.1679C172.695 66.6079 170.295 67.5999 168.023 67.5999C164.567 67.5999 163.383 66.1919 163.383 62.8959V54.7999H155.703V66.0319C155.703 72.9759 160.599 74.3199 164.919 74.3199C168.951 74.3199 171.895 73.0399 174.199 71.4399V73.9999H181.879V54.7999H174.199Z" fill="#88A1AC"/>
<path d="M198.308 54.4799C195.172 54.4799 192.548 55.4719 190.852 57.9999V54.7999H183.172V73.9999H190.852V63.6319C193.06 61.1999 196.036 60.8799 198.756 60.8799C200.164 60.8799 201.604 61.0719 203.396 61.5199V55.1199C202.116 54.7999 200.548 54.4799 198.308 54.4799Z" fill="#88A1AC"/>
<path d="M232.788 54.4799C229.812 54.4799 226.868 55.3759 224.852 57.4239V48.3999H217.172V73.9999H224.852V71.3759C226.868 73.4239 229.812 74.3199 232.788 74.3199C237.748 74.3199 243.284 72.1439 243.284 64.3999C243.284 56.6559 237.748 54.4799 232.788 54.4799ZM230.228 67.9199C226.804 67.9199 224.852 67.2159 224.852 64.3999C224.852 61.5839 226.804 60.8799 230.228 60.8799C233.652 60.8799 235.604 61.5839 235.604 64.3999C235.604 67.2159 233.652 67.9199 230.228 67.9199Z" fill="#88A1AC"/>
<path d="M262.73 54.7999V65.1679C261.226 66.6079 258.826 67.5999 256.554 67.5999C253.098 67.5999 251.914 66.1919 251.914 62.8959V54.7999H244.234V66.0319C244.234 72.9759 249.13 74.3199 253.45 74.3199C257.482 74.3199 260.426 73.0399 262.73 71.4399V73.9999H270.41V54.7999H262.73Z" fill="#88A1AC"/>
<path d="M271.383 67.3759C271.383 73.3919 277.783 74.3199 285.047 74.3199C292.311 74.3199 297.431 73.3919 297.431 67.5359C297.431 62.5119 292.599 62.0639 285.047 61.6799C280.183 61.4239 279.383 61.4559 279.383 60.6559C279.383 59.9199 280.503 59.9199 284.407 59.9199C287.831 59.9199 289.111 59.9199 289.111 60.9439H296.791C296.791 55.4079 291.831 54.4799 284.727 54.4799C277.623 54.4799 271.703 55.4079 271.703 60.8799C271.703 65.7759 275.575 66.4479 284.407 66.7999C289.015 66.9919 289.751 66.8959 289.751 67.8559C289.751 68.6879 289.015 68.8799 284.727 68.8799C280.087 68.8799 279.063 68.4639 279.063 67.3759H271.383Z" fill="#88A1AC"/>
<path d="M298.39 48.3999V53.5199H306.07V48.3999H298.39ZM298.39 54.7999V73.9999H306.07V54.7999H298.39Z" fill="#88A1AC"/>
<path d="M324.319 54.4799C320.287 54.4799 317.343 55.7599 315.039 57.3599V54.7999H307.359V73.9999H315.039V63.6319C316.543 62.1919 318.943 61.1999 321.215 61.1999C324.671 61.1999 325.855 62.6079 325.855 65.9039V73.9999H333.535V62.7679C333.535 55.8239 328.639 54.4799 324.319 54.4799Z" fill="#88A1AC"/>
<path d="M346.931 68.2399C344.819 68.2399 342.675 67.7279 342.035 65.6799H360.243C360.243 57.2959 355.155 54.4799 347.251 54.4799C339.411 54.4799 334.195 57.2959 334.195 64.3999C334.195 71.5039 339.411 74.3199 346.931 74.3199C354.835 74.3199 358.963 71.8879 359.923 66.7999H352.403C350.835 68.0479 349.715 68.2399 346.931 68.2399ZM347.219 59.9199C349.267 59.9199 351.187 60.1119 352.051 61.8399H342.387C343.251 60.1119 345.171 59.9199 347.219 59.9199Z" fill="#88A1AC"/>
<path d="M360.57 67.3759C360.57 73.3919 366.97 74.3199 374.234 74.3199C381.498 74.3199 386.618 73.3919 386.618 67.5359C386.618 62.5119 381.786 62.0639 374.234 61.6799C369.37 61.4239 368.57 61.4559 368.57 60.6559C368.57 59.9199 369.69 59.9199 373.594 59.9199C377.018 59.9199 378.298 59.9199 378.298 60.9439H385.978C385.978 55.4079 381.018 54.4799 373.914 54.4799C366.81 54.4799 360.89 55.4079 360.89 60.8799C360.89 65.7759 364.762 66.4479 373.594 66.7999C378.202 66.9919 378.938 66.8959 378.938 67.8559C378.938 68.6879 378.202 68.8799 373.914 68.8799C369.274 68.8799 368.25 68.4639 368.25 67.3759H360.57Z" fill="#88A1AC"/>
<path d="M387.258 67.3759C387.258 73.3919 393.658 74.3199 400.922 74.3199C408.186 74.3199 413.306 73.3919 413.306 67.5359C413.306 62.5119 408.474 62.0639 400.922 61.6799C396.058 61.4239 395.258 61.4559 395.258 60.6559C395.258 59.9199 396.378 59.9199 400.282 59.9199C403.706 59.9199 404.986 59.9199 404.986 60.9439H412.666C412.666 55.4079 407.706 54.4799 400.602 54.4799C393.498 54.4799 387.578 55.4079 387.578 60.8799C387.578 65.7759 391.45 66.4479 400.282 66.7999C404.89 66.9919 405.626 66.8959 405.626 67.8559C405.626 68.6879 404.89 68.8799 400.602 68.8799C395.962 68.8799 394.938 68.4639 394.938 67.3759H387.258Z" fill="#88A1AC"/>
<path d="M18.7523 102.8V105.68C17.0883 103.664 14.3683 102.48 10.4963 102.48C4.57631 102.48 0.320312 105.296 0.320312 111.76C0.320312 118.224 4.57631 121.04 10.4963 121.04C14.3683 121.04 17.0883 119.856 18.7523 117.84C18.6883 122.704 16.6723 123.6 12.9283 123.6C8.76831 123.6 4.54431 122.672 2.33631 122.256V128.496C4.16031 128.976 8.86431 130 14.3363 130C20.9283 130 26.4323 127.216 26.4323 119.536V102.8H18.7523ZM13.3763 114.64C9.31231 114.64 8.00031 113.936 8.00031 111.76C8.00031 109.584 9.31231 108.88 13.3763 108.88C17.4403 108.88 18.7523 109.584 18.7523 111.76C18.7523 113.936 17.4403 114.64 13.3763 114.64Z" fill="#88A1AC"/>
<path d="M42.8388 102.48C39.7028 102.48 37.0788 103.472 35.3828 106V102.8H27.7028V122H35.3828V111.632C37.5908 109.2 40.5668 108.88 43.2868 108.88C44.6948 108.88 46.1348 109.072 47.9268 109.52V103.12C46.6468 102.8 45.0788 102.48 42.8388 102.48Z" fill="#88A1AC"/>
<path d="M61.3138 122.32C69.4738 122.32 74.3698 119.504 74.3698 112.4C74.3698 105.296 69.4738 102.48 61.3138 102.48C53.1538 102.48 48.2578 105.296 48.2578 112.4C48.2578 119.504 53.1538 122.32 61.3138 122.32ZM61.3138 115.92C57.8898 115.92 55.9378 115.216 55.9378 112.4C55.9378 109.584 57.8898 108.88 61.3138 108.88C64.7378 108.88 66.6898 109.584 66.6898 112.4C66.6898 115.216 64.7378 115.92 61.3138 115.92Z" fill="#88A1AC"/>
<path d="M106.429 102.8L101.981 114.896L97.7573 102.8H89.7573L85.5333 114.896L81.0853 102.8H72.4453L80.4453 122H89.7573L93.7573 111.984L97.7573 122H107.069L115.069 102.8H106.429Z" fill="#88A1AC"/>
</svg>
